<?xml version="1.0" encoding="utf-8"?>
<!-- Generator: Adobe Illustrator 26.3.1, SVG Export Plug-In . SVG Version: 6.00 Build 0)  -->
<svg version="1.1" id="a" xmlns="http://www.w3.org/2000/svg" xmlns:xlink="http://www.w3.org/1999/xlink" x="0px" y="0px"
	 viewBox="0 0 128 128" style="enable-background:new 0 0 128 128;" xml:space="preserve">
<path style="fill:#8BC12D;" d="M89.92,30.91c0,0,3.29-3.98,7.95-5.89c3.48-1.43,6.96-0.71,7.86-0.18s4.11,3.57,2.14,5
	s-2.67-0.57-6.07-0.62c-5.45-0.09-8.21,3.57-8.21,3.57s14.56,7.39,6.69,25.02S71.41,72.33,66.14,70.5
	c-8.21-2.84-13.57-7.55-15.32-8.53s-3.17-2.63-1.64-3.5s5.32-0.68,8.42-3.72c4.7-4.6,5.54-12.64,9.63-17.94
	C76.75,24.45,89.92,30.92,89.92,30.91L89.92,30.91z"/>
<path style="fill:#8BC12D;" d="M40.18,106.27c0,0-0.8-13.51,4.41-20.51s14.8-9.87,23.88-9.09c9.09,0.78,15.84,2.89,21.15,1.86
	c5.36-1.03,6.2-3.29,7.5-4.13c1.07-0.69,2.37-0.07,2.5,1.1s0.26,8.44-2.21,16.23s-9.24,27.92-28.56,31.41
	c-20.39,3.69-25.05-9.61-29.21-11.68c-4.15-2.08-9.87-0.13-10.77,0.26s-3.76-1.82-2.86-5.06s3.12-3.5,5.06-2.21s4.67,2.47,9.09,1.82
	L40.18,106.27z"/>
<path style="fill:#589622;" d="M83.71,38.05c-2.44,4.13-2.77,9.08-6.89,14.65c-3.94,5.34-9.43,6.11-13.42,6.16
	c-2.97,0.03-3.96,0.53-3.97,1.16c-0.02,0.67,2.01,1.53,5.46,1.57c3.86,0.04,9.63,0,14.93-5.6c4.25-4.48,5.46-12.21,6.35-15.15
	c0.63-2.09,2.22-3.79,2.52-4.29c0.34-0.56,0.69-1.34,0.06-2.03s-1.94-0.09-2.64,0.59c-0.63,0.61-1.58,1.56-2.41,2.95L83.71,38.05z"
	/>
<path style="fill:#589622;" d="M45.1,108.57c0.99,1.69,7.75-3.39,13.01-5.79c5.34-2.44,14.65-3.23,20.76-6.42
	c6.51-3.39,12.79-9.19,10.96-11.14c-1.43-1.51-2.67,3.03-12.65,6.68c-6.43,2.35-13.99,3.65-18.09,5.52
	c-4.1,1.87-10.78,6.51-12.03,7.66S44.21,107.04,45.1,108.57L45.1,108.57z"/>
<path style="fill:#B1E3FF;" d="M76.29,11.51c-2.16,1.12,0,3.27,0.06,7.03s-0.42,5.69,0.67,6.24s3.33-2.36,3.33-6.91
	S77.93,10.66,76.29,11.51z"/>
<path style="fill:#B1E3FF;" d="M93.15,4.21c-1.46,0.92,1.36,5.02,1.89,9.68s-1.28,9.8,0.09,10.34c1.67,0.66,4.08-4.4,3.48-10.29
	C97.91,7.08,95,3.05,93.15,4.21L93.15,4.21z"/>
<path style="fill:#B1E3FF;" d="M111.69,10.95c-2.05,1.37,2.77,8.1,0.8,19.04c-1.69,9.41-5.27,13.59-6.08,14.5
	c-0.85,0.96-1.77,2.38-1.16,2.99s2.61-0.05,3.81-1.14c2.64-2.42,5.82-8.01,7.1-16.09c1.15-7.26-0.74-14.24-1.28-15.94
	s-2-4.14-3.19-3.35L111.69,10.95z"/>
<path style="fill:#B1E3FF;" d="M35.88,40.76c-1.56-0.74-6.84,6.8-4.64,18.94c0.98,5.38,3.1,8.94,5.09,10.95
	c1.99,2.02,3.74,2.91,4.3,2.12c0.38-0.54-0.81-1.82-2.51-4.81c-1.27-2.22-2.86-5.23-3.41-9.84c-0.91-7.63,0.13-11.49,0.84-13.92
	c0.6-2.07,0.88-3.21,0.34-3.46L35.88,40.76z"/>
<path style="fill:#B1E3FF;" d="M21.41,53c-2.39-0.67-4.19,12.52,1.62,21.63c2.64,4.13,5.47,6.44,8.05,7.93s4.9,2.17,5.53,1.24
	c0.95-1.4-6.37-4.47-9.89-10.51C20.19,62.09,22.81,53.4,21.41,53z"/>
<path style="fill:#B1E3FF;" d="M12.52,67.02c-1-0.06-1.56,2.24-1.67,3.3S9.9,80.66,17.44,88.65c4.72,4.99,9.23,6.91,12.52,7.38
	c1.97,0.28,4.02,0.17,4.02-0.84c0-1.12-1.71-1.4-4.1-2.28c-3.35-1.23-5.88-2.71-9.93-7.16c-6.08-6.7-6.61-13.88-6.64-15.54
	c-0.02-1.12,0.1-3.13-0.8-3.19H12.52z"/>
</svg>
