<?xml version="1.0" encoding="utf-8"?>
<!-- Generator: Adobe Illustrator 26.3.1, SVG Export Plug-In . SVG Version: 6.00 Build 0)  -->
<svg version="1.1" id="a" xmlns="http://www.w3.org/2000/svg" xmlns:xlink="http://www.w3.org/1999/xlink" x="0px" y="0px"
	 viewBox="0 0 128 128" style="enable-background:new 0 0 128 128;" xml:space="preserve">
<path style="fill:#BF0578;" d="M38.44,35.48L6.3,77.4c0,0,4.9,3.82,6.18,5.1s7.68,10.12,9.86,11.65s4.74,2.95,5.63,3.46
	s3.58,5.86,6.5,8.05s9.52,8.25,15.07,10.29s12.82,4.02,19.53,5.04c6.72,1.02,16.5,1.17,22.05,0.29c5.55-0.88,8.47-1.75,12.12-2.04
	s9.05-0.29,12.12-0.73s5.19-1.81,6.53-3.25c1.96-2.1,2.06-7.41,1.22-8.04c-1.11-0.83-32.57-4.19-32.57-4.19L38.44,35.48z"/>
<path style="fill:#D3578B;" d="M110.14,94.76c-2.01-4.21-1.97-15.23-5.08-24.9c-3.11-9.66-16.38-29.81-27.35-38.33
	s-16.54-14.41-22.27-14.9S35.62,18.27,18.92,37.1C2.21,55.95,2.04,73.07,6.3,77.4c4.72,4.79,10.97,4.09,14.25,3.6
	c3.28-0.49,5.57-1.47,7.7-0.49s8.84,6.22,10.97,8.35s7.86,8.03,14.9,12.94s13.27,5.4,15.07,5.9s12.12,1.64,13.43,1.64
	s7.04-0.49,11.96-0.16c4.91,0.33,12.94,0.98,14.9,1.8s6.88,1.97,9.34,1.47s4.59-1.97,4.75-3.77s-1.97-3.93-3.6-5.08
	s-3.16-1.24-3.63-1.66s-2.34-3.02-3.2-3.95C112.01,96.77,110.6,95.73,110.14,94.76L110.14,94.76z"/>
<path style="fill:#FAD674;" d="M21.82,38.35c-10.53,12.15-19.2,30.5-11.24,36.9s24.35-4.05,35.77-18.41S64,27.42,57.94,22.06
	S35.31,22.77,21.82,38.35L21.82,38.35z"/>
<path style="fill:#A7281D;" d="M57.43,62.74c-0.35,1.7,2.78,3.18,1.59,4.47s-6.06,0.3-6.65-4.86s2.58-5.05,3.57-4.86
	c1.59,0.3,2.18,1.89,1.49,5.26V62.74z"/>
<path style="fill:#A7281D;" d="M46.01,84.78c0.3,2.86,3.57,1.99,5.56,3.18s0,2.68,2.48,3.28s5.12-4.16,0.2-7.35
	C49.19,80.61,45.81,82.9,46.01,84.78z"/>
<path style="fill:#A7281D;" d="M65.86,94.81c0.99,2.48,3.67,0.79,5.36,1.29s2.38,2.78,4.47,1.89c2.57-1.1,0.79-5.46-3.38-6.65
	S65.21,93.2,65.86,94.81z"/>
<path style="fill:#A7281D;" d="M95.11,88.61c-2.43-0.85-4.68,2.97-2.82,6.62c1.9,3.73,5.71,4.26,6.7,3.12s-2.51-2.97-2.51-4.57
	S96.86,89.21,95.11,88.61L95.11,88.61z"/>
<path style="fill:#A7281D;" d="M79.2,66.91c-2.25-0.98-5.02,2.89-3.5,6.78c1.52,3.88,5.81,3.71,6.7,2.36
	c1.75-2.66-2.06-3.12-2.06-4.49s0.61-3.88-1.14-4.64C79.2,66.92,79.2,66.91,79.2,66.91z"/>
</svg>
