<?xml version="1.0" encoding="utf-8"?>
<!-- Generator: Adobe Illustrator 26.3.1, SVG Export Plug-In . SVG Version: 6.00 Build 0)  -->
<svg version="1.1" id="Layer_1" xmlns="http://www.w3.org/2000/svg" xmlns:xlink="http://www.w3.org/1999/xlink" x="0px" y="0px"
	 viewBox="0 0 128 128" style="enable-background:new 0 0 128 128;" xml:space="preserve">
<path style="fill:#595858;" d="M76,80v28h20l12,16h8c4.4,0,8-3.6,8-8V72c0-4.4-3.6-8-8-8h-8L96,80H76z"/>
<rect x="109" y="64" style="fill:#3A3A3A;" width="3" height="60"/>
<path style="fill:#595858;" d="M4,75.2v13.5c0,1.5,1.6,2.5,2.9,1.8l5.1-2.6h16v-12H12l-5.1-2.6C5.6,72.6,4,73.6,4,75.1V75.2z"/>
<rect x="36" y="48" style="fill:#3F3F3F;" width="28" height="28"/>
<g style="opacity:0.5;">
	<rect x="93.5" y="80" style="fill:#787676;" width="3" height="28"/>
</g>
<rect x="84.2" y="80" style="fill:#3A3A3A;" width="3" height="28"/>
<circle style="fill:#504F4F;" cx="80" cy="36" r="32"/>
<circle style="fill:#504F4F;" cx="27" cy="46" r="22"/>
<path style="fill:#504F4F;" d="M16,112V76c0-4.4,3.6-8,8-8h52c4.4,0,8,3.6,8,8v36c0,4.4-3.6,8-8,8H24C19.6,120,16,116.4,16,112z"/>
<g>
	<path style="fill:#3A3A3A;" d="M74,94c1.1,0,2,0.9,2,2s-0.9,2-2,2s-2-0.9-2-2S72.9,94,74,94 M70,96c0,2.2,1.8,4,4,4s4-1.8,4-4
		s-1.8-4-4-4S70,93.8,70,96z"/>
	<path style="fill:#3A3A3A;" d="M74,102c1.1,0,2,0.9,2,2s-0.9,2-2,2s-2-0.9-2-2S72.9,102,74,102 M70,104c0,2.2,1.8,4,4,4s4-1.8,4-4
		s-1.8-4-4-4S70,101.8,70,104z"/>
</g>
<g>
	<path style="fill:#504F4F;" d="M32,107c-1.7,0-3-1.3-3-3v-8c0-1.7,1.3-3,3-3h32c1.7,0,3,1.3,3,3v8c0,1.7-1.3,3-3,3H32z"/>
	<path style="fill:#3A3A3A;" d="M32,94.5h32c0.8,0,1.5,0.7,1.5,1.5v8c0,0.8-0.7,1.5-1.5,1.5H32c-0.8,0-1.5-0.7-1.5-1.5v-8
		C30.5,95.2,31.2,94.5,32,94.5 M32,91.5c-2.5,0-4.5,2-4.5,4.5v8c0,2.5,2,4.5,4.5,4.5h32c2.5,0,4.5-2,4.5-4.5v-8c0-2.5-2-4.5-4.5-4.5
		H32z"/>
</g>
<g>
	<circle style="fill:#504F4F;" cx="80" cy="36" r="22.5"/>
	<path style="fill:#3A3A3A;" d="M80,15c11.6,0,21,9.4,21,21s-9.4,21-21,21s-21-9.4-21-21S68.4,15,80,15 M80,12
		c-13.2,0-24,10.7-24,24c0,13.2,10.7,24,24,24s24-10.7,24-24C104,22.8,93.3,12,80,12L80,12z"/>
</g>
<g>
	<circle style="fill:#504F4F;" cx="27" cy="46" r="12.5"/>
	<path style="fill:#3A3A3A;" d="M27,35c6.1,0,11,4.9,11,11s-4.9,11-11,11s-11-4.9-11-11S20.9,35,27,35 M27,32c-7.7,0-14,6.3-14,14
		s6.3,14,14,14s14-6.3,14-14S34.7,32,27,32L27,32z"/>
</g>
<circle style="fill:#636262;" cx="80" cy="36" r="8"/>
<circle style="fill:#636262;" cx="27" cy="46" r="8"/>
<linearGradient id="SVGID_1_" gradientUnits="userSpaceOnUse" x1="-1736" y1="-135.9" x2="-1736" y2="-139.9" gradientTransform="matrix(-1 0 0 -1 -1662 -42.1)">
	<stop  offset="0" style="stop-color:#FF1744"/>
	<stop  offset="1" style="stop-color:#D50000"/>
</linearGradient>
<circle style="fill:url(#SVGID_1_);" cx="74" cy="96" r="2"/>
<linearGradient id="SVGID_00000026135485271506415040000014384600665447827617_" gradientUnits="userSpaceOnUse" x1="-1736" y1="-143.9" x2="-1736" y2="-147.9" gradientTransform="matrix(-1 0 0 -1 -1662 -42.1)">
	<stop  offset="0" style="stop-color:#76FF03"/>
	<stop  offset="1" style="stop-color:#64DD17"/>
</linearGradient>
<circle style="fill:url(#SVGID_00000026135485271506415040000014384600665447827617_);" cx="74" cy="104" r="2"/>
</svg>
