<?xml version="1.0" encoding="utf-8"?>
<!-- Generator: Adobe Illustrator 26.3.1, SVG Export Plug-In . SVG Version: 6.00 Build 0)  -->
<svg version="1.1" id="Layer_3" xmlns="http://www.w3.org/2000/svg" xmlns:xlink="http://www.w3.org/1999/xlink" x="0px" y="0px"
	 viewBox="0 0 128 128" style="enable-background:new 0 0 128 128;" xml:space="preserve">
<g>
	<g>
		<path style="fill:#1D7DCC;" d="M36.02,32.78c0,0,3.49-9.87,9.51-17.59S56.56,4.83,56.97,6.39c0.4,1.55-10.4,27.04-10.79,27.44
			c-0.39,0.4-6.29,4.59-6.34,4.42C39.78,38.09,36.02,32.78,36.02,32.78z"/>
		<g>
			<path style="fill:#82AEC0;" d="M31.66,109.26c0,0-7.21,3.96-13.89,1.89c-4.48-1.39-6.16,2.49-3.38,5.12
				c2.79,2.64,15.43,10.63,29.67,0.71c13.54-9.44,69.97-46.91,76.93-53.06l0.21-16.37L31.66,109.26z"/>
			<path style="fill:#2F7889;" d="M44.25,113.74c-14.24,9.93-26.89,1.93-29.67-0.71c-0.41-0.38-0.71-0.8-0.93-1.23
				c-0.97,1.11,0.09,4.03,1.54,5.62c4.15,4.51,15.43,10.63,29.67,0.71c13.54-9.44,69.16-46.91,76.12-51.76v-4.54
				C108.27,70.69,57.07,104.8,44.25,113.74z"/>
		</g>
		<path style="fill:#1D7DCC;" d="M86.55,37.84c0,0,6.46,5.11,12.07,14.51c6.04,10.12,7.01,13.56,7.01,13.56l-55.58,38.75l-0.51-4.32
			c0,0-4.61-6.04-5.23-7.27c-1.68-3.28-1.89-6.47,0.65-10.09c2.71-3.87,11.81-18.35,12.81-21.11c0.99-2.76,0.16-5.82,0.16-5.82
			L86.55,37.84z"/>
		<g>
			<path style="fill:#BDBDBD;" d="M66.33,72.48c-0.04-0.02-3.74-2.18-7.25-4.08c-2.34-1.28-4.27-0.86-4.3-0.86l-0.66-0.68l2.75-5.34
				c0.27-0.48,0.83-0.74,1.37-0.62c1.29,0.24,2.7,0.7,4.13,1.47c3.59,1.95,7.26,4.09,7.43,4.18L66.33,72.48z"/>
		</g>
		<path style="fill:#757575;" d="M65.89,70.61l-6.79-3.39c-1.45-0.62-2.76-0.8-3.89-0.74c-0.63,0.03-1.09,0.36-1.09,0.36l0.52,0.8
			c0.24-0.17,0.74-0.15,0.74-0.15c0.92-0.02,2.3,0.11,3.72,0.89c3.5,1.91,7.21,4.06,7.25,4.08l3.45-5.94
			c-0.05-0.03-0.47-0.28-1.14-0.66L65.89,70.61z"/>
		<path style="fill:#212121;" d="M72.19,70.62c0.8-1.97-0.18-4.21-2.06-5.19c-1.76-0.91-3.47-1.74-6.01-3.16
			c-0.66-0.37-1.52-0.11-1.84,0.58l-0.15,0.29c-0.3,0.62,0.01,1.35,0.6,1.69c2.1,1.23,4.03,2.18,4.05,2.2
			c0.49,0.24,1.03,0.77,0.58,1.65c-0.35,0.68-1.08,0.9-1.8,0.54c-0.11-0.05-1.79-0.89-3.79-2.07c-0.64-0.37-1.53-0.14-1.9,0.48l0,0
			c-0.38,0.64-0.14,1.47,0.51,1.83c2.63,1.46,4.34,2.28,6.17,3.24C68.67,73.79,71.29,72.85,72.19,70.62z"/>
		<g>
			<path style="fill:#BDBDBD;" d="M59.78,83.24c-0.03-0.02-3.58-2.44-6.94-4.59c-2.24-1.44-4.2-1.18-4.22-1.17L48,76.76l3.13-5.14
				c0.31-0.45,0.87-0.67,1.41-0.52c1.27,0.34,2.64,0.88,4.01,1.76c3.45,2.21,6.95,4.6,7.1,4.7L59.78,83.24z"/>
		</g>
		<path style="fill:#757575;" d="M59.48,81.36l-6.52-3.86c-1.41-0.72-2.69-0.99-3.83-1.01c-0.63-0.01-1.11,0.28-1.11,0.28l0.45,0.83
			c0.26-0.15,0.75-0.1,0.75-0.1c0.93,0.05,2.29,0.28,3.64,1.15c3.35,2.16,6.9,4.57,6.94,4.59l3.87-5.68
			c-0.05-0.04-0.45-0.31-1.09-0.74L59.48,81.36z"/>
		<path style="fill:#212121;" d="M65.37,81.63c0.93-1.9,0.12-4.2-1.68-5.32c-1.69-1.03-3.33-2-5.77-3.58
			c-0.64-0.41-1.5-0.21-1.87,0.45l-0.15,0.28c-0.34,0.6-0.14,1.23,0.42,1.63c1.99,1.38,3.86,2.46,3.88,2.48
			c0.47,0.27,0.96,0.84,0.46,1.69c-0.4,0.66-1.15,0.82-1.84,0.41c-0.11-0.07-1.72-1.03-3.63-2.34c-0.6-0.42-1.46-0.15-1.87,0.45l0,0
			c-0.42,0.61-0.25,1.46,0.37,1.87c2.51,1.64,4.16,2.59,5.92,3.67C61.63,84.56,64.31,83.81,65.37,81.63z"/>
		
			<rect x="55.61" y="76.88" transform="matrix(0.8203 -0.5719 0.5719 0.8203 -30.714 61.0754)" style="opacity:0.7;fill:#0D47A1;enable-background:new    ;" width="52.45" height="5.07"/>
		<path style="fill:#212121;" d="M98.11,71.16c0,0-3.44-5.53-1.9-10.04c1.54-4.49,4.45-6.12,4.45-6.12s-0.32-2.66,0.7-8.08
			c0.58-3.13,1.7-5.41,2.64-6.86c0.59-0.92,2.01-0.71,2.32,0.34l6.25,20.69L98.11,71.16z"/>
		<path style="fill:#212121;" d="M41.6,110.56c0,0-0.61-5.64,0.21-9.88c0.56-2.87,2.86-5.78,5.91-5.4l4.44,0.65
			c1.86,0.23,3.21-0.94,3.25-2.82l0.02-0.77c0.02-1.27,1.15-2.27,2.39-2.08c0.71,0.12,1.46,0.38,2.05,0.94
			c1.64,1.55,3.41,4.24,3.41,4.24S41.6,110.56,41.6,110.56z"/>
		<path style="fill:#212121;" d="M92.83,74.84c-2.97-0.44-7.74,1.13-12.33,4.33c-4.59,3.2-7.72,7.13-8.33,10.07L92.83,74.84z"/>
		<path style="fill:#5FB2DE;" d="M36.02,32.78l-0.22,2.51L57.93,58.4c0,0,2.48,0.44,5.89-1.32c3.68-1.9,9.14-1.58,12.93-0.78
			c3.79,0.8,7.13,1.27,10.72-2.68c3.59-3.96,2.88-8.81,2.23-12.14s-1.9-5.92-1.9-5.92L60.13,6.28c0,0-2.88-2.19-6.08,1.68
			c-5.02,6.06-7.02,14.47-8.97,18.81C41.08,35.7,36.02,32.78,36.02,32.78z"/>
		<path style="fill:#9E9E9E;" d="M54.17,47.38c-1.42,1.01-2.87,1.91-4.39,2.72c-0.98,0.52-2.09-0.37-2.09-0.37l-3.41-3.87
			c0,0,0.35-0.87,0.65-1.01c4.14-1.94,7.59-4.64,11.71-8.31c6.68-5.94,11.44-10.95,11.49-10.99l4.99,4.73
			c-0.2,0.21-4.98,5.25-11.91,11.4C58.8,43.83,56.52,45.73,54.17,47.38z"/>
		<path style="fill:#E0E0E0;" d="M57.13,37.24c6.68-5.94,11.44-10.95,11.49-10.99L73,30.41c0.06-0.06,0.1-0.1,0.12-0.12l-4.99-4.73
			c-0.05,0.05-4.8,5.05-11.49,10.99c-4.13,3.66-7.58,6.37-11.71,8.31c-0.29,0.13-0.65,1.01-0.65,1.01l0.04,0.04
			C48.91,44.11,53.25,40.69,57.13,37.24z"/>
		<path style="fill:#424242;" d="M37.88,33.96c0,0-4.5-3.44-4.68-4.98c-0.19-1.54,1.26-4.44,5.59-5.57c4.33-1.13,7.2,0.1,7.2,0.1
			s-0.76,4.65-3.2,7.47C40.34,33.8,37.88,33.96,37.88,33.96z"/>
		<path style="fill:#424242;" d="M36.1,37.51c0,0-0.26-0.23-0.36-0.54c0,0,6.21-2.9,15.89-11.75c6.92-6.33,11.55-13.54,13.11-15.7
			l0.47,0.42l5.41,5.59c0.43,0.44,0.47,1.13,0.09,1.63c-1.57,2.01-6.12,7.67-13.58,14.43c-6.95,6.3-12.41,9.86-14.34,11.12
			c-0.49,0.32-1.12,0.26-1.54-0.15L36.1,37.51z"/>
		<path style="fill:#616161;" d="M57.7,31.04c0.08-1.09-0.22-2.51-1.44-4.22c-1.14-1.62-2.76-2-4.34-1.86
			c-0.09,0.09-0.19,0.18-0.29,0.27c-9.67,8.85-15.89,11.75-15.89,11.75c0.11,0.3,0.36,0.54,0.36,0.54l5.14,5.03
			c0.42,0.41,1.06,0.47,1.54,0.15c1.92-1.27,7.39-4.82,14.33-11.13C57.32,31.39,57.5,31.22,57.7,31.04z"/>
		<path style="fill:#9E9E9E;" d="M36.94,37.28c0.7-0.36,3.93-1.58,15.36-12.03c8.73-7.98,12.75-15.02,12.75-15.02
			s0.09-0.76-1.03-1.02c-0.45-0.1-0.9,0.25-0.9,0.25l0.47,0.46c-0.07,0.12-3.95,6.8-12.28,14.41c-5.79,5.3-9.69,8.29-11.94,9.86
			c-2.28,1.59-2.97,1.85-2.97,1.85l-0.46-0.54c-0.17,0.47-0.43,0.8-0.27,1.31C35.82,37.29,36.25,37.63,36.94,37.28z"/>
		<g>
			<path style="fill:#9E9E9E;" d="M55.83,32.71c1.04-0.93,1.89-2.48,0.65-4.64c-0.92-1.59-2.27-2.17-3.07-2.24
				c-1.59-0.13-3.23,1.34-3.24,1.34l-0.93-1c0.09-0.08,2.19-2.14,4.4-1.92c1.36,0.14,2.56,0.79,3.55,2.05
				c1.16,1.46,1.29,2.61,0.93,3.84C57.63,31.8,55.83,32.71,55.83,32.71z"/>
		</g>
		<path style="fill:#212121;" d="M71.63,26.19c-1.64-1.35-4.07-1.1-5.56,0.4c-1.41,1.4-2.72,2.78-4.83,4.78
			c-0.56,0.52-0.56,1.41-0.01,1.93l0.24,0.21c0.5,0.47,1.28,0.48,1.79,0.02c1.81-1.62,3.29-3.17,3.31-3.2
			c0.38-0.4,1.05-0.75,1.75-0.06c0.55,0.53,0.53,1.3-0.03,1.88c-0.08,0.09-1.39,1.42-3.12,2.98c-0.55,0.49-0.59,1.33-0.1,1.88l0,0
			c0.5,0.55,1.35,0.58,1.9,0.07c2.18-2.06,3.49-3.44,4.95-4.9C73.6,30.5,73.5,27.72,71.63,26.19z"/>
		<path style="fill:#9E9E9E;" d="M61.64,55.25c-1.42,1.01-2.87,1.91-4.39,2.72c-0.98,0.52-2.09-0.37-2.09-0.37l-3.41-3.87
			c0,0,0.35-0.87,0.65-1.01c4.14-1.94,7.59-4.64,11.71-8.31c6.68-5.94,11.44-10.95,11.49-10.99l4.99,4.73
			c-0.2,0.21-4.98,5.25-11.91,11.4C66.27,51.69,63.99,53.59,61.64,55.25z"/>
		<path style="fill:#E0E0E0;" d="M64.59,45.11c6.68-5.94,11.44-10.95,11.49-10.99l4.39,4.16c0.06-0.06,0.1-0.1,0.12-0.12l-4.99-4.73
			c-0.05,0.05-4.8,5.05-11.49,10.99c-4.13,3.66-7.58,6.37-11.71,8.31c-0.29,0.13-0.65,1.01-0.65,1.01l0.04,0.04
			C56.38,51.97,60.73,48.56,64.59,45.11z"/>
		<path style="fill:#212121;" d="M79.11,34.06c-1.64-1.35-4.07-1.1-5.56,0.4c-1.41,1.4-2.72,2.78-4.83,4.78
			c-0.56,0.52-0.56,1.41-0.01,1.93l0.24,0.21c0.5,0.47,1.28,0.48,1.79,0.02c1.81-1.62,3.29-3.17,3.31-3.2
			c0.38-0.4,1.05-0.75,1.75-0.06c0.55,0.53,0.53,1.3-0.03,1.88c-0.08,0.09-1.39,1.42-3.12,2.98c-0.55,0.49-0.59,1.33-0.1,1.88l0,0
			c0.5,0.55,1.35,0.58,1.9,0.07c2.18-2.06,3.49-3.44,4.95-4.9C81.07,38.37,80.97,35.6,79.11,34.06z"/>
		<circle style="fill:#616161;" cx="82.19" cy="47.84" r="3.02"/>
		<path style="fill:#616161;" d="M38.79,23.42c-4.33,1.13-5.77,4.02-5.59,5.57c0.02,0.2,0.12,0.42,0.26,0.66
			c0.45-1.49,1.73-2.63,3.16-3.23c1.49-0.62,3.15-0.72,4.75-0.72c1.36,0.01,2.73,0.08,4.09-0.03c0.38-1.25,0.52-2.15,0.52-2.15
			S43.12,22.29,38.79,23.42z"/>
	</g>
</g>
</svg>
