<?xml version="1.0" encoding="utf-8"?>
<!-- Generator: Adobe Illustrator 26.3.1, SVG Export Plug-In . SVG Version: 6.00 Build 0)  -->
<svg version="1.1" id="a" xmlns="http://www.w3.org/2000/svg" xmlns:xlink="http://www.w3.org/1999/xlink" x="0px" y="0px"
	 viewBox="0 0 128 128" style="enable-background:new 0 0 128 128;" xml:space="preserve">
<polygon style="fill:#573D36;" points="50.54,65.09 52.91,64.44 59.81,68.77 52.25,71.93 "/>
<path style="fill:#85E4FF;" d="M38.95,51.36c0,0,4.21-1.99,9.79-2.6c5.58-0.61,7.8-1.38,17.36,0.31s13,3.37,15.22,4.21
	s4.9,2.68,6.88,3.29s7.04,1.07,7.19,3.75c0.13,2.32-5.05,2.52-9.79,2.45s-36.72,1.15-36.72,1.15l-8.49-6.73l-1.45-5.81L38.95,51.36z
	"/>
<path style="fill:#573D36;" d="M70.79,49.47l6.71,0.96l2.07-3.1c0.59-0.89,1.25-2.36,1.62-2.36s4.5,2.73,6.56,4.35
	s5.3,4.39,6.7,5.94s3.94,5.01,7.31,6.45c2.6,1.11,5.83,1.33,9.29-0.07s6.05-2.51,5.83-4.06s-8.26-3.02-8.26-3.02L80.3,32.88
	L70.79,49.47L70.79,49.47z"/>
<path style="fill:#70534A;" d="M74.17,49.2c0,0,1.7-2.34,3.61-4.89c1.08-1.45,2.2-3.03,3.42-3.03s7.85,5.64,10.13,7.64
	s8.71,9.67,12.76,10.62c3.76,0.88,5.06,0.27,5.06,0.27l7.66-2.61l-0.14-0.5c0,0,0.3-1.71-0.8-2.67c-1.66-1.45-6-1.28-6-1.28
	s-1.31-1.94-4.12-3.45c-1.94-1.04-3.99-1.71-3.99-1.71s-8.77-12.72-11.72-16.16c-2.94-3.44-6.28-6.91-9.12-6.84
	c-3.41,0.09-9.42,6.14-11.48,8.36s-5.53,7.08-5.53,7.08l1.3,5.95l8.94,3.22H74.17z"/>
<path style="fill:#70534A;" d="M79.86,60.39c-1.99-0.66-4.65-1.99-4.43-4.35s2.07-5.61,2.07-5.61s-3.54-1.55-7.38-4.5
	s-6.2-5.9-6.2-5.9l-2.88,4.28c0,0-5.83,4.57-8.19,8.78c-1.94,3.46-2.29,8.26-2.29,8.26l-0.07,2.88c0,0,3.32,2.36,4.13,3.1
	s1.99,3.02,1.99,3.02l16.96,11.36h16.82l7.6-14.46C97.99,67.25,81.84,61.05,79.86,60.39L79.86,60.39z"/>
<path style="fill:#85E4FF;" d="M58.49,94.34c-5.08,0.13-12.28,2.98-11.66,4.96s4.09,0.74,10.42,1.74
	c6.33,0.99,11.78,6.45,21.83,7.32s21.95-3.97,26.17-10.05s3.92-8.9,2.11-9.92c-2.85-1.61-4.47,5.71-18.36,8.81
	C75.15,100.29,68.04,94.1,58.49,94.34L58.49,94.34z"/>
<path style="fill:#0FCAFF;" d="M108.67,43.02c1.17,1.55,4.24-0.52,7.25-0.66s6.59,0.57,7.58-2.87s-1.93-5.85-6.74-5.32
	c-5.56,0.61-9.8,6.59-8.1,8.86L108.67,43.02z"/>
<path style="fill:#0FCAFF;" d="M101.04,38.73c1.08,1.22,3.56-0.36,5.79-1.74c1.6-0.99,3.86-2.36,2.87-4.71
	c-1.16-2.76-4.27-1.91-6.17-0.24S99.88,37.43,101.04,38.73L101.04,38.73z"/>
<path style="fill:#77F7FF;" d="M103.68,35.01c0.75,0.9,1.74-0.05,2.78-0.66s2.03-1.32,1.41-2.31s-2.12-0.28-2.87,0.24
	C104.25,32.8,102.97,34.16,103.68,35.01z"/>
<path style="fill:#77F7FF;" d="M110.7,40.24c0.57,0.91,2.12-0.05,4.24-0.85c2.12-0.8,4.8-1.13,4.71-2.45s-3.06-1.32-5.23-0.42
	S110.09,39.25,110.7,40.24z"/>
<g>
	<path style="fill:#492C25;" d="M107.61,56.38c0.09,0.67,1.19,0.94,4.53,0.58c2.96-0.32,4.35-0.88,4.56-1.02
		c0.06-0.04-0.13-1.11-0.27-1.16c-0.23-0.08-1.35,0.51-4.54,0.8c-1.54,0.14-4.4-0.16-4.27,0.8H107.61z"/>
	<path style="fill:#492C25;" d="M107.51,59.65c-0.13,0.96,3.15,0.67,5.59-0.16s3.73-1.61,3.79-1.88s-0.11-0.86-0.22-0.92
		c-0.06-0.03-2.51,1.12-4.24,1.61S107.64,58.68,107.51,59.65z"/>
</g>
<path style="fill:#4B0FCE;" d="M50.51,61.29c0,0,9.63,2.34,20.03,2.34c9.26,0,12.26-2.22,12.26-2.22s7.23,2.56,11.91,4.36
	c4.68,1.8,4.77,2.88,4.77,2.88l-8.82,10.8l-14.67,3.24l-14.4-8.1c0,0-2.32-3.38-5.56-5.18c-1.49-2.98-5.47-4.61-5.47-4.61
	s-0.18-0.78-0.16-1.96c0-0.48,0.1-1.14,0.11-1.53L50.51,61.29z"/>
<path style="fill:#70534A;" d="M19.66,78.43l2.3-23.85l10.18-4.47c0,0,0.85-1.97,3.94-1.18c4.2,1.07,5.98,6.64,5.98,6.64
	s3.61,1.57,7.49,6.24s4.24,9.54,4.24,9.54l-6.53,11.74l-21.55,0.2L19.66,78.43L19.66,78.43z"/>
<path style="fill:#573D36;" d="M17.79,72.03l2.89,0.27c0,0,7.87,3.6,14.83,4.31s14.4-0.66,14.4-0.66l-5.58,9.01l-22.08-4.55
	l-4.46-8.39V72.03z"/>
<path style="fill:#909090;" d="M32.18,50.1c0,0-0.11,0.91-0.64,1.28c-1.71,1.23-5.88,4.51-7.77,10.84
	c-1.34,4.49-1.63,8.56-1.55,10.38c0.15,3.41,1.16,7.28,1.16,7.28L8.43,77.4c0,0-4.26-7.44-2.01-14.95
	c5.37-17.96,25.75-12.36,25.75-12.36L32.18,50.1z"/>
<path style="fill:#7B7B7B;" d="M8.98,78.11L8.2,77.03c0,0-1.77-3.46-2.25-7.09s0.48-7.49,0.48-7.49s4.23,5.01,8.2,7.48
	c4.99,3.1,7.58,3.52,7.58,3.52s0.21,1.8,0.6,3.75s0.58,2.68,0.58,2.68S8.98,78.11,8.98,78.11z"/>
<path style="fill:#1A1717;" d="M41.16,70.15c-0.18,2.31,1.51,4.08,4.3,4c3.07-0.09,4.26-2,4.23-3.59c-0.03-1.7-1.21-3.54-4.16-3.68
	C44.27,66.82,41.4,67.07,41.16,70.15z"/>
<g>
	<path style="fill:#1A1717;" d="M33.19,50.16c-0.85-0.61-2.23,0.47-2.81,2.08s-0.56,2.9-0.56,2.9s-3.59,1.74-3.88,6.25
		c-0.32,4.8,2.15,6.24,2.15,6.24s-0.78,0.64-0.82,1.93c-0.04,1.41,0.41,1.98,0.41,1.98s-2.85,1.15-3.24,5.11s0.98,5.43,0.98,5.43
		l6.2,0.33c0,0,2.07-1.15,2.07-5.19c0-4.93-2.77-5.83-2.77-5.83s-0.18-0.54-0.15-1.43c0.03-0.99,0.41-1.76,0.41-1.76
		s4.16-0.16,4.44-5.96s-2.99-7.09-2.99-7.09s0.06-1.38,0.35-2.32S34.12,50.84,33.19,50.16z"/>
	<path style="fill:#AFD7E9;" d="M28.69,81.27c0.3,0.04,3.17,0.19,3.32-3.7s-2.26-4.17-2.91-4.11c-0.6,0.05-2.88,0.49-3.02,4.19
		C25.97,80.74,28.38,81.23,28.69,81.27L28.69,81.27z"/>
	<path style="fill:#EBF8FF;" d="M27.74,74.92c-0.07,0.21,0.65,0.93,1.29,1.71s1.2,1.62,1.41,1.68c0.43,0.11,1.9-1.6,0.21-3.4
		C29.2,73.36,27.87,74.5,27.74,74.92L27.74,74.92z"/>
	<path style="fill:#82BAD2;" d="M28.2,78.37c0.5,0.56,2.15,2.57,2.15,2.57s-1.97,1.1-3.36-0.45c-1.51-1.69-0.72-4.24-0.72-4.24
		s1.32,1.45,1.92,2.13L28.2,78.37z"/>
	<path style="fill:#AFD7E9;" d="M27.88,61.38c-0.11,1.25,0.04,4.46,2.43,4.75c2.81,0.34,3.48-2.61,3.55-4.28s-0.4-4.24-2.39-4.38
		C29.48,57.33,28.1,58.88,27.88,61.38z"/>
	<path style="fill:#EBF8FF;" d="M29.95,58.73c-0.22,0.54,2.54,4.06,2.83,3.95s0.45-3.54-0.51-4.24
		C30.89,57.43,30.07,58.43,29.95,58.73z"/>
	<path style="fill:#82B9D1;" d="M29.66,62.83c0.76,1.05,2.31,3.05,2.31,3.05s-1.74,0.93-3.12-0.49c-1.66-1.72-0.81-5.01-0.81-5.01
		S29.66,62.83,29.66,62.83z"/>
</g>
<g>
	<path style="fill:#4A2F27;" d="M38.49,67.02c-0.72-0.15-2.78,0.38-2.84,2.96c-0.06,2.43,1.93,3.25,2.61,3.25s0.88-1.47,0.94-3.19
		S39.05,67.14,38.49,67.02L38.49,67.02z"/>
	<path style="fill:#573D36;" d="M34.75,51.24c-0.65,0.74-0.41,2.13,0.86,2.85s2.41,0.67,2.79,0.19s-0.1-2.13-0.89-2.76
		s-2.03-1.11-2.76-0.29L34.75,51.24z"/>
</g>
<path style="fill:#85E4FF;" d="M25.85,88.35l-9.02-4.63l-5.96-0.83c0,0-3.56-0.19-4.9-0.43c-2.16-0.38-2.13-2.31-1.39-3.22
	s2.81-2.15,9.35-1.82s14.32,3.15,19.2,3.48s10.05-0.32,13.41-2.57s7.23-8.02,11.67-10.92c3.68-2.41,8.55-2.97,9.87-0.74
	s-3.17,7.11-3.17,7.11s8.86-4.97,11.34-1.24s-3.61,5.26-3.28,6.34s6.76,1.83,10.31,1.03c7.7-1.74,8.61-8.69,13.41-11.92
	c4.8-3.23,9.6-0.83,13.57,0.66c3.97,1.49,8.16,0.3,8.88,1.91c0.29,0.64-0.26,2.23-1.22,3.49c-0.72,0.95-2.24,1.51-2.24,1.51
	l-11.96-0.87L90.73,86.36L75.92,87.1L59.7,83.29l-20.86,6.12l-12.99-1.08L25.85,88.35z"/>
<path style="fill:#0FCAFF;" d="M10.87,82.89c0,0,3.97,0.83,5.88,2.07s7.67,6.51,16.8,7.03c12.91,0.74,21.38-6.59,26.98-5.79
	c5.79,0.83,16.1,4.83,24.42,3.64c12.17-1.74,13.98-11.64,19.04-13.32c2.73-0.91,4.8,0.25,7.37,0.25c4.06,0,6.26-2.36,6.26-2.36
	s-3.04,0.58-5.85-0.04c-2.22-0.49-3.62-1.76-7.61-1.66c-6.46,0.17-9.89,10.95-19.19,12.39C78.1,86.16,67.33,83.96,67,82.8
	c-0.3-1.04,3.31-3.81,1.16-5.96c-2.4-2.4-6.79,1.99-6.79,1.99s2.39-4.7,0.08-6.12c-2.81-1.74-4.8,0.74-9.93,5.55
	c-5.13,4.8-13.82,9.02-19.7,8.86c-5.88-0.17-9.4-2.87-12.75-3.64c-5.71-1.32-8.19-0.58-8.19-0.58L10.87,82.89z"/>
<path style="fill:#573D36;" d="M74.55,48.71c0,0-3.77,4.62-2.03,8.78c1.4,3.34,8.1,4.15,8.57,3.68c0.56-0.56-3.58-1.35-4.83-3.07
	c-1.06-1.46-0.4-3.28-0.2-4.07c0.37-1.46,1.37-3.17,2.46-4.97c1.22-2.02,2.52-4.05,2.52-4.05l-2.49,1.06L74.55,48.71z"/>
</svg>
