<?xml version="1.0" encoding="utf-8"?>
<!-- Generator: Adobe Illustrator 26.3.1, SVG Export Plug-In . SVG Version: 6.00 Build 0)  -->
<svg version="1.1" id="a" xmlns="http://www.w3.org/2000/svg" xmlns:xlink="http://www.w3.org/1999/xlink" x="0px" y="0px"
	 viewBox="0 0 128 128" style="enable-background:new 0 0 128 128;" xml:space="preserve">
<path style="fill:#875334;" d="M90.41,38.01l-5.86,2.51l0.86,2.02c0,0,1.46,0.02,1.95,0.08c0.88,0.1,2.46,0.41,3.89,0.56
	s2.82-0.2,3.15-1.14c0.26-0.73-0.38-1.11-0.38-1.11l-1.62-0.47c0,0,1.43-0.32,2.62-0.42s2.12-0.38,2.33-0.89c0.24-0.6,0-0.95,0-0.95
	l-6.93-0.19C90.42,38.01,90.41,38.01,90.41,38.01z"/>
<path style="fill:#3C2C23;" d="M50.99,25.61l-3.38-5.54c0,0-1.42-6.58-0.46-10.08s4.83-5.57,9.35-5.66
	c4.84-0.1,8.45,1.73,10.01,5.13c1.89,4.1-0.33,10.02-0.33,10.02l-1.04,4.09l-2.59,3.33l-11.57-1.3h0.01L50.99,25.61z"/>
<path style="fill:#85E4FF;" d="M86.92,102.19L65.9,113.72c0,0-2,1-2.34,1.19c-0.71,0.42-1.59,1.2-0.83,2.32s2.52,0.66,4.07,0
	c1.5-0.64,13.73-5.58,23.07-11.51c7.49-4.76,14.28-10.12,16.15-12.26c1.16-1.32,1.05-2.77,0.34-3.42c-1.23-1.13-2.9-0.38-3.65-0.08
	s-1.45,0.36-1.66-0.28s0.89-1.71,3.54-4.19c2.65-2.49,11.92-11.81,13.12-13.18s1.96-3.87,0.77-5.22c-1.42-1.62-3.89-0.88-6.31,0.38
	c-1.75,0.91-3.57,1.91-3.62,1.62s2.17-1.63,4.33-3.77c3.09-3.06,6.24-6.58,7.09-7.81c1.44-2.09,1.59-3.85,0.2-5.13
	c-1.08-0.99-2.73-1.26-4.74-0.24c-2.54,1.29-6.7,3.52-6.87,3.42s4.88-7.45,6.17-10.89c0.84-2.25,1.9-4.16,0.06-5.21
	c-1.36-0.78-3.4,0.39-7.87,3.72c-4.48,3.34-7.83,7.02-8.02,6.88s2.58-5.13,0.52-6.46c-1.15-0.75-3.08-0.18-5.7,2.06
	c-3.6,3.07-7.71,5.73-7.71,5.73S61.15,61.43,54.16,64.81c-6.99,3.38-22.46,11.86-28.15,16.01c-3.7,2.7-6.08,5.78-4.71,7.15
	c0.55,0.55,5.7-3.62,17.39-9.56c7.26-3.69,20.1-9.42,20.1-9.42l15.38-6.32l17.76-5.42l6.97-4.3l7.22-4.09l-4.09,11.88l9.39-2.57
	l0.56,3.05l-10.52,11.4h7.79l-1.04,3.05L93.92,92.13l-0.72,5.3L86.92,102.19L86.92,102.19L86.92,102.19z"/>
<path style="fill:#0FCAFF;" d="M65.9,113.72c0,0,12.77-7.72,16.32-10.02c3.55-2.31,8.51-5.5,8.51-7.63s-1.15-3.37-0.71-4.52
	s7.72-8.07,10.2-10.29c2.48-2.22,7.08-5.58,6.64-6.69c-0.33-0.83-3.93,0.48-5.4,0.74c-2.48,0.44-3.45-1.56-2.03-2.98
	s9.47-9.37,10.27-10.16c1.18-1.15,0.62-2.65-1.06-1.94s-10.57,6.69-11.25,7.17c-1.35,0.96-2.49-0.26-1.43-1.59s4.7-6.83,6.03-9.13
	s2.04-3.28,1.15-3.72s-9.59,6.57-10.56,7.37s-2.93,2.48-3.54,2.85c-1.46,0.89-2.42-0.54-1.5-1.61s2.02-1.91,1.6-2.75
	c-0.17-0.33-0.74-0.4-2.13,0.05c-5.07,1.62-16.71,6.7-19.95,7.99c-4.37,1.74-10.9,4.37-10.9,4.37l-0.53-2.31
	c0,0,16.76-7.89,20.75-9.31C80.37,58.19,88,55.35,88,55.35s4.88-4.52,6.56-3.72s0.71,3.02,0.71,3.02s12.68-10.2,14.46-8.6
	s-6.47,14.28-6.47,14.28s10.11-6.39,11.79-3.1c1.68,3.28-11.85,14.39-11.75,14.73s8.93-2.51,9.89-0.45
	c1.12,2.41-16.05,19.24-16.05,19.24s3.19,0.62,3.19,2.48s-5.45,6.38-11.04,9.66c-5.59,3.28-14.51,7.9-16.37,8.78
	s-4.79,2.48-7.01,2.04l0,0L65.9,113.72z"/>
<path style="fill:#00BDA3;" d="M63.46,97.75L8.78,123.04c0,0,2.95,0.72,7.94,0.62c6.41-0.13,16.1-1.49,26.2-5.97
	c20.03-8.88,34.88-20.48,45.34-30.92c6.8-6.79,7.16-7.81,7.24-8.49c0.15-1.41-0.3-2.8-0.3-2.8L63.46,97.75L63.46,97.75L63.46,97.75z
	"/>
<path style="fill:#24E2B5;" d="M84.5,64.9c-1.07-0.12-33.5,5.82-60.11,25.78C0.8,108.38,3.91,119.82,4.38,120.89
	c1.19,2.73,15.14,6.38,43.77-8.59c29.62-15.49,47.16-35.52,47.04-36.83S85.57,65.02,84.5,64.9z"/>
<path style="fill:#06927F;" d="M46.04,78.7c0,0-3.5,3.74-5.64,7c-1.67,2.54-3.46,5.97-3.79,6.9c-0.49,1.38-0.68,2.28-0.68,5.34
	s-0.06,5.24,1.93,5.72c0.57,0.14,1.41,0.11,2.06,0.11c1.13,0,2.13-0.1,2.13-0.1l6.61-0.1c0,0,1.65-1.75,3.25-4.81
	s1.89-3.59,3.3-5.54s8.16-8.5,8.16-8.5l5.3,0.42c0,0,2.13,1.81,3.98,2.54c1.85,0.73,2.72,0.73,3.84,0.29s2.62-2.82,2.14-3.64
	s-5.83-6.17-5.83-6.17l-0.15-10.69c0,0-7.43,2.14-11.22,3.59c-3.79,1.46-13.5,5.64-13.5,5.64L46.04,78.7L46.04,78.7L46.04,78.7z"/>
<path style="fill:#FFEBC9;" d="M3.99,118.42c0,0,32.75-19.54,48.79-28.69s36.16-21.19,36.16-21.19s0.47,0.44,1.03,0.96
	c0.51,0.47,1.47,1.47,1.47,1.47S64.89,87.81,54.37,93.71S6.14,122.3,6.14,122.3s-1.45-0.64-1.81-1.4s-0.35-2.47-0.35-2.47l0,0
	L3.99,118.42z"/>
<path style="fill:#FFEBC9;" d="M4.29,115.5c0,0,43.38-24.54,51.7-29.47s31.79-18.57,31.79-18.57s-0.46-0.43-0.68-0.62
	s-0.69-0.59-0.69-0.59L5,112.96c0,0-0.23,0.57-0.36,1.02c-0.18,0.63-0.35,1.51-0.35,1.51l0,0V115.5z"/>
<path style="fill:#FFEBC9;" d="M8.77,123.05l84.19-50.48c0,0,0.44,0.49,0.62,0.68S94.22,74,94.22,74l-81.94,49.37
	c0,0-1.6-0.06-1.98-0.1s-1.53-0.23-1.53-0.23l0,0L8.77,123.05z"/>
<path style="fill:#ABC9B8;" d="M36.03,95.15l5.14-2.95l0.46,2.11l-5.7,3.24c0,0,0-0.75,0.03-1.23
	C35.96,95.92,36.03,95.16,36.03,95.15L36.03,95.15L36.03,95.15z"/>
<path style="fill:#ABC9B8;" d="M39.54,102.36l-2.02,1.19c0,0-0.57-0.17-1-0.8c-0.68-1.02-0.58-3.24-0.58-3.24l3.66-2.14l-0.07,5
	h0.01L39.54,102.36z"/>
<polygon style="fill:#ABC9B8;" points="48.7,101.43 51.31,99.85 53.16,96.43 48.54,99.19 "/>
<path style="fill:#ABC9B8;" d="M48.46,97.13l6.76-3.91c0,0,4.33-6.09,5.63-7.32s2.99-2.42,4.06-2.52s1.73,0.14,2,0.38
	s1.78,1.4,1.78,1.4l2.98-1.8l-2.34-3.3L48.12,92.38l0.33,4.74l0,0L48.46,97.13z"/>
<polygon style="fill:#ABC9B8;" points="51.21,88.85 69.52,78.1 68.69,76.39 50.47,86.84 "/>
<path style="fill:#ABC9B8;" d="M70.13,86.25l2.73-1.65l1.55,1.35l-2.4,1.44c0,0-0.71-0.35-1.02-0.57s-0.85-0.57-0.85-0.57
	S70.13,86.25,70.13,86.25z"/>
<path style="fill:#464C4F;" d="M61.99,57.45l-7.67,8.07l3.08-0.28c0,0,2.28-2.4,2.84-2.4s3,1,4.99,1.72c2,0.72,5.15,1.8,5.15,1.8
	s-1.12,3.6-1.4,5.43s-0.48,2.68-0.52,3.16s-0.22,0.61-0.33,1.16c-0.08,0.42,0.24,0.67,0.24,0.67l1.37,1.16l4.04-5.31l1.04-8.51
	L62,57.45L61.99,57.45L61.99,57.45z"/>
<path style="fill:#5E6367;" d="M44.56,84.68l-1.96,6.68l5.39,1.24l1-0.95c0,0,0.86-0.43,1.48-1.44s3.25-4.53,4.72-6.49
	s3.39-4.06,3.44-5.68s-0.33-5.82-0.62-8.64s-0.95-5.11-0.95-5.11s3.05-3.77,3.53-3.77s3.58,1.91,6.06,2.82s5.49,2.43,5.49,2.43
	s-1.34,4.06-1.72,5.92s-0.67,3.67-0.67,3.67s-0.44,0.46-0.58,1.1c-0.27,1.24,1.72,2.67,1.72,2.67l3.34,0.05l0.94-1.15
	c0,0,0.4-0.81,0.59-1.48s2.29-6.01,3.1-7.92s2.67-5.73,2.2-7.87c-0.48-2.15-1.81-4.1-7.87-6.49c-6.06-2.39-7.21-2.71-7.51-3.11
	s0.44-2.81,0.97-4.33s1.1-3.34,1.1-3.34l-0.72-5.01l-17.9,0.95l-4.63,9.88l0.43,18.04l2.05,10.83l-2.43,6.49h0.01L44.56,84.68z"/>
<path style="fill:#A56C43;" d="M85.65,37.3c0,0,0.4-0.16,3.88-0.23s4.96,0,5.86,0.23c1.16,0.29,2.07,0.73,2.04,1.12
	s-3.48,0.44-4.72,0.92c-0.61,0.24-0.45,0.85,0.04,1c0.59,0.19,1.05,0.36,1.43,0.68c0.35,0.3-0.12,1.17-1.77,1.1
	c-1.22-0.05-2.75-0.54-4-0.77S85.6,40.9,85.6,40.9l0.06-3.61h-0.01V37.3z"/>
<path style="fill:#2F2F2F;" d="M68.08,35.53l1.17,4.2c0,0,5.53,3.41,6.97,3.57s7.64-0.66,8.84-0.68s-0.32-4.37-0.32-4.37
	l-16.66-2.71l0,0V35.53z"/>
<path style="fill:#2F2F2F;" d="M27.37,50.75l0.74,4.9l2.25-0.22c0,0,2.27-3.93,2.97-5.15s2.39-3.72,2.93-4.2s3.14-1.92,4.9-2.66
	s3.3-1.38,3.41-0.85c0.16,0.78,2.82-0.32,2.82-0.32L47.5,39l-11.23,2.45l-8.89,9.31h-0.01L27.37,50.75z"/>
<path style="fill:#464C4F;" d="M23.54,53.09c0,0,0.96-4.36,3.51-9.53c2.55-5.16,4.26-6.23,5.06-6.86s4.26-3.35,9.42-5.69
	s8.25-2.55,8.25-2.55s11.81-1.06,13.2-0.85c1.39,0.21,4.84,0.59,7.98,2.39s7.2,6.46,7.89,6.52c1.7,0.16,8.1,0.64,8.1,0.64
	s0.55,0.84,0.47,2.45s-1.32,2.97-1.32,2.97s-0.52,0.03-0.99,0.03c-0.13-0.19-0.34-0.73-1.03-0.84s-6.1,0.24-7.27,0.03
	c-0.58-0.1-6.12-3.25-6.65-3.35s-2.08,3.99-2.08,3.99l-4.68-1.7l-5.53-0.27l-5.59,2.13l-3.46,2.87l-3.03,7.66l-0.32,7.61l1.06,6.12
	l2.61,9.05l-0.32,3.46l-2.7,4.31l-2.73,7.02l-1.28,0.05l-0.28-1.96c0,0-0.04-0.75,0.44-1.87s1.38-4.52,2.23-6.39s1.81-2.34,1.7-3.57
	s-2.87-10.43-3.35-13.2s-0.27-6.17,0.21-10.32s1.49-10.91,1.49-10.91s1.6-0.53,1.86-1.17s0.05-1.38-0.85-1.38s-7.96,1.98-10.41,4.43
	c-1.1,1.1-1.85,3.02-2.86,4.61c-1.24,1.95-2.48,3.89-3.46,5.4C27.15,56.99,23.53,53.08,23.54,53.09L23.54,53.09L23.54,53.09z"/>
<path style="fill:#875334;" d="M53.9,29.48l-0.12,1.75c0,0,1.22,2.49,4.4,2.53c3.87,0.04,4.75-2.23,4.81-2.61s0.05-1.51,0.03-2.93
	c0-1.34,0.35-3.01,0.35-3.62C63.37,23.47,53.89,29.48,53.9,29.48L53.9,29.48L53.9,29.48z"/>
<path style="fill:#875334;" d="M63.46,23.79c0,0,2.72,0.47,3.57-2.14s-0.75-4.21-2.18-4.18c-0.47,0.01-0.18,1.38-0.84,4.06
	c-0.23,0.92-0.54,2.25-0.54,2.25h-0.01L63.46,23.79z"/>
<path style="fill:#D9D9D9;" d="M43.97,90.61c-0.06,0-0.12,0-0.18-0.02c-0.38-0.1-0.6-0.48-0.5-0.86c0.04-0.14,0.89-3.35,2.43-6.75
	c0.57-1.25,1.29-2.51,1.92-3.62c0.65-1.14,1.27-2.21,1.44-2.82c0.22-0.77-0.46-2.6-1.25-4.72c-1.58-4.24-3.98-10.66-2.77-17.88
	c1.96-11.77,9.2-14.24,14.92-14.24c6.07,0,8.34,2.78,8.43,2.9c0.24,0.3,0.19,0.75-0.11,0.99s-0.74,0.19-0.98-0.11
	c0,0-0.5-0.6-1.63-1.18c-1.06-0.54-2.91-1.19-5.7-1.19c-9.39,0-12.54,7.1-13.53,13.06c-1.14,6.85,1.08,12.81,2.7,17.16
	c0.95,2.54,1.64,4.38,1.29,5.6c-0.22,0.77-0.85,1.87-1.57,3.13c-0.62,1.08-1.33,2.31-1.86,3.5c-1.49,3.29-2.34,6.5-2.35,6.53
	c-0.08,0.32-0.37,0.52-0.68,0.52C43.99,90.61,43.97,90.61,43.97,90.61z"/>
<path style="fill:#85E4FF;" d="M115.86,48.95c0.32,0.46,4.38-1.29,5.6-2.03c1.98-1.2,3.55-2.93,1.79-4.67s-3.95,0.73-4.95,2.15
	C117.47,45.59,115.57,48.53,115.86,48.95z"/>
<path style="fill:#85E4FF;" d="M109.14,86.74c0.31,0.81,4.67-0.33,7.64-1.11s5.82-2.54,4.94-4.6c-1.12-2.66-4.36-1.5-7.05,0.35
	s-5.89,4.45-5.54,5.37h0.01V86.74z"/>
<path style="fill:#A56C43;" d="M48.34,12.11c0,0,3.52-0.1,5.74-0.1c3.97,0,7.62,0.42,7.62,0.42s0.33,5.5,0.6,6.59
	c0.5,1.99,1.71,2.52,1.71,2.52s0.05,2.24-0.49,3.7c-0.79,2.12-4.28,6.28-9.1,6.09c-4.23-0.17-5.94-5.17-6.37-7.18
	c-0.78-3.7-0.44-9.31,0.29-12.03l0,0V12.11z"/>
<g>
	<path style="fill:#3C2C23;" d="M56.03,16.18c-0.34-0.29-0.34-0.99-0.03-1.22s2.27-0.14,2.82-0.02c0.89,0.2,1.47,1,1.32,1.28
		c-0.08,0.14-1.13-0.02-2.07,0S56.18,16.31,56.03,16.18z"/>
	<path style="fill:#3C2C23;" d="M48.99,16.18c-0.24-0.36,0.34-0.96,1.32-1.18c0.85-0.19,1.7-0.06,1.87,0.2
		c0.19,0.31,0.28,0.85-0.16,1.06c-0.18,0.08-2.8,0.27-3.03-0.07l0,0V16.18z"/>
</g>
<g>
	<path style="fill:#42312C;" d="M58.16,18.09c-0.7-0.03-1.48,0.42-1.44,1.71c0.04,1.18,0.67,1.74,1.51,1.71s1.32-0.76,1.32-1.67
		s-0.58-1.71-1.4-1.75C58.15,18.09,58.16,18.09,58.16,18.09z"/>
	<path style="fill:#42312C;" d="M50.52,18.16c-0.67,0-1.26,0.62-1.26,1.67s0.63,1.59,1.37,1.63s1.37-0.58,1.33-1.59
		S51.4,18.16,50.52,18.16z"/>
</g>
<path style="fill:#875334;" d="M54.21,24.32c0.7-0.06,1.54-0.47,1.53-0.9s-0.91-0.44-1.61-0.42s-1.63,0.01-1.62,0.48
	S53.55,24.38,54.21,24.32z"/>
<path style="fill:#473530;" d="M54.23,26c-1.04,0-2.3-0.77-2.6-0.15s0.73,1.65,2.63,1.62c2.08-0.03,3.18-1.04,2.91-1.68
	S55.39,26,54.23,26z"/>
<path style="fill:#875334;" d="M71.36,81.46l-3.1-2.89c0,0,0.02-0.48,0.12-0.95c0.07-0.34,0-0.83,0-0.83s2.61,1.81,4.52,1.77
	s2.26-0.53,2.26-0.53s0.12,0.36,0.27,0.65s0.53,0.72,0.53,0.72l-0.34,0.98l-4.25,1.08C71.37,81.46,71.36,81.46,71.36,81.46z"/>
<path style="fill:#875334;" d="M41.18,93.97l-0.21-3.3c0,0,0.25-0.64,0.41-0.97s0.44-0.93,0.44-0.93s1.38,2,3.26,2.61
	S49,91.64,49,91.64l-0.37,1.73l-1.49,2.43L41.18,93.97L41.18,93.97L41.18,93.97z"/>
<path style="fill:#A56C43;" d="M68.24,78.54c0,0.21-0.21,1.31,0.84,2.5c0.88,1,3.34,3.62,4.16,4.39s1.31,1.2,1.66,1.38
	c0.95,0.49,1.64,0.39,1.92,0.22s0.52-0.64,0.52-0.64l0.1-0.64l0.35-0.22c0,0,1.12-0.64,0.89-2.21s-2.75-3.95-2.75-3.95
	s-1.66,0.71-3.29,0.65C70.73,79.95,68.25,78.53,68.24,78.54L68.24,78.54L68.24,78.54z"/>
<path style="fill:#875334;" d="M21.06,60.85l-2.15,2.17c0,0,0.19,1.7,0.32,2.12c0.22,0.76,3.31,2.29,5.01-1.85
	c0.43-1.05,1.62-2.91,1.86-2.81s0.06,0.8,0.44,1.56c0.44,0.88,1.76,0.88,1.76,0.88l0.78-4.77l-3.75-0.95l-4.26,3.65
	C21.07,60.85,21.06,60.85,21.06,60.85z"/>
<path style="fill:#A56C43;" d="M23.8,52.46c0,0,1.66-0.21,2.84,0.1c2.45,0.66,3.79,2.57,3.79,2.87s0.04,2.56-0.38,3.84
	c-0.52,1.55-1.28,3.57-1.72,3.64s-1.02-0.85-0.86-2.5c0.09-0.96,0.04-2.14-1.14-1.97c-0.37,0.05-1.66,0.66-2.61,2.55
	c-0.64,1.28-1.53,3.24-2.1,3.65s-2.05,0.13-2.56-0.78s0.31-4.72,0.57-5.48C21.09,54.26,23.79,52.46,23.8,52.46L23.8,52.46
	L23.8,52.46z"/>
<path style="fill:#A56C43;" d="M40.98,90.62c0,0-0.2,0.54-0.46,1.26c-0.65,1.75-1.01,1.6-1.35,2.65c-0.2,0.62-0.39,1.93-0.5,3.29
	c-0.13,1.7,0.02,3.5,0.15,4.12c0.35,1.68,1.08,2.6,2.78,2.85s3.35,0.18,3.35,0.18s1.98,0.09,2.67-0.14
	c0.95-0.32,1.37-1.33,1.37-2.02s-0.33-3.98-0.36-5.67s0.04-3.81,0.04-3.81s-1.62,1.01-3.93,0S40.98,90.62,40.98,90.62L40.98,90.62z"
	/>
<path style="fill:#875334;" d="M22.59,58.68c-0.47-0.21-1.24,1.08-1.86,2.93c-0.51,1.52-0.54,3.4-0.51,3.57
	c0.02,0.15,0.22,0.24,0.36,0.08c0.13-0.1,0.4-1.54,1.23-3.42c0.4-0.91,1.47-2.86,0.79-3.15l0,0L22.59,58.68z"/>
<path style="fill:#875334;" d="M19.09,60.05c-0.63,2.7,0.04,4.96,0.17,5c-0.13-0.44,0.07-2.84,0.4-3.98
	c0.42-1.44,1.06-2.69,0.76-2.89s-0.95,0.23-1.32,1.88L19.09,60.05z"/>
<path style="fill:#875334;" d="M48.96,102.3c0,0.43-0.38,0.93-1.05,0.98s-1.14-0.33-1.22-1.17s-0.02-1.48-0.62-1.46
	s-0.57,0.98-0.6,1.65c-0.01,0.3,0.02,1.15-0.75,1.17c-0.54,0.02-0.75-0.73-0.75-0.73s-0.12,0.75-0.82,0.68
	c-0.6-0.06-0.74-0.75-0.74-0.75s-0.39,0.57-0.92,0.46c-0.53-0.12-0.58-0.72-0.58-0.72s-0.35,0.35-1.01,0.14
	c-0.59-0.19-1.14-0.82-1.14-0.82s0.27,2.03,1.51,2.72c1.22,0.68,5.13,0.58,5.32,0.57c0.57,0.05,1.87,0.08,2.69-0.53
	c1.04-0.76,0.67-2.63,0.67-2.2L48.96,102.3z"/>
<path style="fill:#875334;" d="M68.56,80.3c0,0,0.59,1.26,3.41,3.91c1.01,0.95,1.22,1.47,1.86,2.03c0.88,0.76,2.32,1.21,2.92,0.88
	c0.75-0.42,0.72-1.2,0.72-1.2s0.58-0.26,1.02-1.07c0.52-0.94,0.09-1.93,0.09-1.93s0.02,0.79-0.28,1.01c-0.23,0.17-0.48,0-0.48,0
	s0.25,0.43,0.03,0.6s-0.56-0.16-0.56-0.16s0.22,0.47,0,0.65c-0.23,0.2-0.89-0.27-0.89-0.27s0.93,0.93,0.1,1.29
	c-0.58,0.25-1.65-0.35-3.29-1.58c-2.18-1.62-4.66-4.16-4.66-4.16H68.56z"/>
</svg>
