<?xml version="1.0" encoding="utf-8"?>
<!-- Generator: Adobe Illustrator 26.3.1, SVG Export Plug-In . SVG Version: 6.00 Build 0)  -->
<svg version="1.1" id="a" xmlns="http://www.w3.org/2000/svg" xmlns:xlink="http://www.w3.org/1999/xlink" x="0px" y="0px"
	 viewBox="0 0 128 128" style="enable-background:new 0 0 128 128;" xml:space="preserve">
<path style="fill:#99674F;" d="M90.09,39.33l-5.79,2.48l0.85,1.99c0,0,1.45,0.02,1.92,0.08c0.87,0.1,2.43,0.41,3.84,0.56
	s2.78-0.2,3.11-1.12c0.26-0.73-0.37-1.1-0.37-1.1l-1.6-0.47c0,0,1.42-0.32,2.59-0.41s2.1-0.38,2.3-0.88c0.24-0.59,0-0.94,0-0.94
	L90.09,39.33L90.09,39.33L90.09,39.33z"/>
<path style="fill:#543930;" d="M49.34,28.27c0,0-3.06-0.31-4.45-4.09c-1.18-3.18,0.36-5.49,0.36-5.49s-1.71-1.09-1.71-3.62
	s2.17-4.04,2.17-4.04s-0.88-1.4-0.36-3.06s2.07-2.49,2.54-2.28s0.46,1.92,2.02,1.86c2.85-0.1,4.4-3.88,9.22-3.47
	s5.85,4.61,5.85,4.61s3.48-0.19,5.23,3.57c1.4,3-0.41,5.39-0.41,5.39s1.85,1.08,1.02,4.19c-0.49,1.82-2.93,3.05-2.63,4.04
	c0.29,0.95,1.09,0,1.29,0.72s-1.19,2.12-3,2.49s-3.26,0.36-3.26,0.36l-13.88-1.19l0,0L49.34,28.27z"/>
<path style="fill:#85E4FF;" d="M86.64,102.73l-20.76,11.39c0,0-1.98,0.99-2.31,1.18c-0.7,0.41-1.57,1.19-0.82,2.29s2.49,0.65,4.02,0
	c1.48-0.63,13.56-5.51,22.78-11.37c7.39-4.7,14.11-10,15.95-12.11c1.14-1.31,1.03-2.74,0.34-3.37c-1.22-1.12-2.86-0.37-3.6-0.08
	s-1.44,0.36-1.64-0.27s0.88-1.69,3.5-4.14c2.62-2.46,11.77-11.67,12.96-13.02s1.93-3.82,0.76-5.15c-1.41-1.6-3.85-0.86-6.23,0.38
	c-1.73,0.9-3.53,1.88-3.57,1.6s2.15-1.61,4.28-3.73c3.05-3.03,6.16-6.5,7-7.71c1.43-2.06,1.57-3.81,0.2-5.07
	c-1.06-0.97-2.7-1.24-4.68-0.24c-2.51,1.27-6.62,3.47-6.78,3.38s4.82-7.36,6.09-10.76c0.83-2.23,1.88-4.11,0.06-5.15
	c-1.34-0.77-3.36,0.38-7.77,3.68c-4.43,3.3-7.73,6.93-7.93,6.79s2.55-5.07,0.52-6.38c-1.13-0.74-3.05-0.17-5.63,2.03
	c-3.56,3.03-7.61,5.66-7.61,5.66s-24.56,9.92-31.46,13.25S32.12,77.53,26.5,81.63c-3.65,2.66-6.01,5.71-4.65,7.06
	c0.54,0.54,5.63-3.57,17.18-9.44c7.17-3.64,19.85-9.3,19.85-9.3l15.19-6.24l17.54-5.35l6.88-4.24l7.14-4.04l-4.04,11.73l9.28-2.54
	l0.56,3.01l-10.39,11.26h7.69l-1.03,3.01L93.59,92.8l-0.71,5.23l-6.21,4.7L86.64,102.73L86.64,102.73z"/>
<path style="fill:#0FCAFF;" d="M65.88,114.11c0,0,12.61-7.62,16.12-9.9s8.41-5.43,8.41-7.53s-1.14-3.33-0.7-4.47
	s7.62-7.97,10.07-10.16c2.45-2.19,6.99-5.51,6.56-6.6c-0.33-0.82-3.89,0.48-5.33,0.74c-2.45,0.44-3.41-1.54-2-2.94
	c1.4-1.4,9.35-9.26,10.15-10.03c1.16-1.14,0.62-2.62-1.05-1.92S97.67,67.91,97,68.39c-1.33,0.95-2.46-0.25-1.41-1.57
	s4.64-6.75,5.96-9.02c1.31-2.28,2.01-3.24,1.14-3.68s-9.47,6.49-10.44,7.28s-2.89,2.45-3.5,2.81c-1.44,0.87-2.39-0.53-1.49-1.59
	s2-1.88,1.58-2.72c-0.17-0.33-0.73-0.39-2.11,0.05c-5.01,1.6-16.51,6.62-19.71,7.89c-4.32,1.72-10.77,4.32-10.77,4.32l-0.53-2.28
	c0,0,16.56-7.8,20.5-9.2s11.48-4.2,11.48-4.2s4.82-4.47,6.48-3.68s0.7,2.98,0.7,2.98s12.53-10.07,14.28-8.5
	c1.75,1.58-6.39,14.1-6.39,14.1s9.99-6.31,11.65-3.07s-11.7,14.21-11.61,14.55s8.82-2.48,9.77-0.45
	c1.1,2.39-15.86,19.01-15.86,19.01s3.15,0.61,3.15,2.45s-5.38,6.3-10.9,9.55s-14.33,7.8-16.17,8.67S68.07,114.54,65.88,114.11
	L65.88,114.11L65.88,114.11z"/>
<path style="fill:#F47A00;" d="M63.47,98.34L9.46,123.32c0,0,2.91,0.72,7.84,0.61c6.33-0.13,15.9-1.47,25.88-5.9
	c19.78-8.77,34.45-20.23,44.78-30.54c6.71-6.7,7.07-7.71,7.15-8.39c0.15-1.39-0.3-2.77-0.3-2.77l-31.34,22l0,0L63.47,98.34z"/>
<path style="fill:#FF8E00;" d="M84.25,65.9c-1.06-0.12-33.09,5.75-59.38,25.46C1.57,108.84,4.64,120.14,5.11,121.2
	c1.17,2.7,14.95,6.3,43.23-8.48c29.26-15.3,46.59-35.09,46.47-36.38S85.31,66.01,84.25,65.9z"/>
<path style="fill:#B05100;" d="M46.26,79.53c0,0-3.45,3.69-5.57,6.91c-1.65,2.51-3.41,5.89-3.74,6.81
	c-0.49,1.36-0.67,2.26-0.67,5.28s-0.06,5.17,1.91,5.65c0.56,0.14,1.39,0.11,2.04,0.11c1.11,0,2.1-0.1,2.1-0.1l6.53-0.1
	c0,0,1.63-1.73,3.21-4.75c1.58-3.02,1.87-3.55,3.26-5.47s8.06-8.4,8.06-8.4l5.23,0.42c0,0,2.11,1.79,3.93,2.51s2.69,0.72,3.79,0.29
	s2.59-2.78,2.11-3.6S72.69,79,72.69,79l-0.14-10.56c0,0-7.34,2.11-11.08,3.55c-3.74,1.44-13.34,5.57-13.34,5.57
	S46.26,79.53,46.26,79.53z"/>
<path style="fill:#FFEBC9;" d="M4.72,118.76c0,0,32.35-19.3,48.19-28.33C68.75,81.39,88.63,69.5,88.63,69.5s0.46,0.44,1.02,0.95
	c0.51,0.47,1.45,1.45,1.45,1.45S64.87,88.53,54.48,94.36c-10.39,5.82-47.63,28.23-47.63,28.23s-1.43-0.63-1.79-1.39
	S4.72,118.76,4.72,118.76z"/>
<path style="fill:#FFEBC9;" d="M5.03,115.87c0,0,42.85-24.24,51.06-29.11s31.4-18.34,31.4-18.34s-0.46-0.42-0.67-0.61
	s-0.69-0.59-0.69-0.59L5.72,113.37c0,0-0.22,0.57-0.35,1.01C5.19,115,5.03,115.87,5.03,115.87z"/>
<path style="fill:#FFEBC9;" d="M9.45,123.33l83.16-49.86c0,0,0.43,0.48,0.61,0.67s0.63,0.74,0.63,0.74l-80.93,48.77
	c0,0-1.58-0.06-1.96-0.1s-1.51-0.23-1.51-0.23l0,0V123.33z"/>
<path style="fill:#BC9671;" d="M36.37,95.77l5.07-2.92l0.46,2.08l-5.63,3.2c0,0,0-0.74,0.03-1.22c0-0.39,0.07-1.15,0.07-1.15l0,0
	L36.37,95.77z"/>
<path style="fill:#BC9671;" d="M39.84,102.89l-1.99,1.17c0,0-0.56-0.16-0.98-0.8c-0.67-1.01-0.57-3.2-0.57-3.2l3.61-2.12l-0.07,4.94
	l0,0V102.89z"/>
<polygon style="fill:#BC9671;" points="48.88,101.97 51.47,100.42 53.29,97.03 48.73,99.76 "/>
<path style="fill:#BC9671;" d="M48.65,97.73l6.68-3.86c0,0,4.28-6.01,5.56-7.23s2.95-2.39,4.01-2.49s1.71,0.14,1.98,0.38
	s1.76,1.39,1.76,1.39l2.95-1.77l-2.31-3.26L48.33,93.06L48.65,97.73L48.65,97.73L48.65,97.73z"/>
<polygon style="fill:#BC9671;" points="51.36,89.55 69.46,78.93 68.64,77.24 50.64,87.56 "/>
<path style="fill:#BC9671;" d="M70.05,86.98l2.7-1.63l1.53,1.33l-2.38,1.43c0,0-0.7-0.35-1.01-0.56s-0.84-0.56-0.84-0.56l0,0V86.98z
	"/>
<path style="fill:#464C4F;" d="M62.01,58.53l-7.58,7.97l3.04-0.28c0,0,2.25-2.37,2.8-2.37s2.96,0.99,4.93,1.7
	c1.97,0.71,5.09,1.78,5.09,1.78s-1.1,3.55-1.38,5.37s-0.47,2.64-0.51,3.12s-0.22,0.6-0.32,1.15c-0.08,0.42,0.24,0.66,0.24,0.66
	l1.35,1.15l3.99-5.25l1.03-8.41L62.01,58.53L62.01,58.53L62.01,58.53z"/>
<path style="fill:#5E6367;" d="M44.8,85.43l-1.93,6.6l5.33,1.23l0.99-0.94c0,0,0.85-0.43,1.46-1.42s3.21-4.48,4.67-6.41
	s3.35-4.01,3.39-5.61s-0.33-5.75-0.61-8.53s-0.94-5.04-0.94-5.04s3.02-3.72,3.49-3.72s3.54,1.89,5.99,2.78s5.42,2.4,5.42,2.4
	s-1.32,4.01-1.7,5.85s-0.66,3.63-0.66,3.63s-0.43,0.45-0.57,1.09c-0.27,1.23,1.7,2.64,1.7,2.64l3.3,0.05l0.93-1.13
	c0,0,0.39-0.8,0.58-1.46s2.26-5.94,3.06-7.82s2.64-5.66,2.17-7.78s-1.79-4.05-7.78-6.41s-7.12-2.68-7.41-3.07s0.44-2.77,0.96-4.28
	s1.08-3.3,1.08-3.3l-0.71-4.95l-17.68,0.94l-4.57,9.76l0.42,17.82l2.03,10.7l-2.4,6.41L44.8,85.43L44.8,85.43z"/>
<path style="fill:#BA8D68;" d="M85.38,38.63c0,0,0.39-0.16,3.83-0.22s4.9,0,5.79,0.22c1.15,0.29,2.04,0.72,2.01,1.1
	s-3.44,0.43-4.67,0.91c-0.61,0.24-0.45,0.84,0.04,0.99c0.58,0.19,1.04,0.35,1.41,0.67c0.35,0.3-0.12,1.15-1.75,1.09
	c-1.21-0.05-2.71-0.54-3.95-0.76s-2.77-0.45-2.77-0.45l0.06-3.56l0,0L85.38,38.63z"/>
<path style="fill:#2F2F2F;" d="M68.03,36.88l1.16,4.15c0,0,5.47,3.36,6.89,3.52s7.54-0.65,8.73-0.67s-0.32-4.32-0.32-4.32
	L68.03,36.88L68.03,36.88L68.03,36.88z"/>
<path style="fill:#2F2F2F;" d="M27.82,51.92l0.74,4.84l2.22-0.22c0,0,2.25-3.88,2.93-5.09s2.37-3.68,2.89-4.15s3.1-1.89,4.84-2.63
	s3.26-1.37,3.36-0.84c0.15,0.77,2.79-0.32,2.79-0.32l0.11-3.21l-11.09,2.42l-8.78,9.2C27.83,51.92,27.82,51.92,27.82,51.92z"/>
<path style="fill:#464C4F;" d="M24.04,54.23c0,0,0.95-4.31,3.47-9.41s4.2-6.15,4.99-6.78s4.2-3.31,9.3-5.62s8.15-2.52,8.15-2.52
	s11.67-1.05,13.04-0.84s4.78,0.58,7.88,2.37c3.1,1.79,7.11,6.38,7.8,6.44c1.68,0.16,8,0.63,8,0.63s0.54,0.83,0.46,2.42
	s-1.31,2.94-1.31,2.94s-0.52,0.03-0.98,0.03c-0.13-0.19-0.33-0.72-1.02-0.83s-6.02,0.24-7.18,0.03c-0.57-0.1-6.04-3.21-6.57-3.31
	s-2.05,3.94-2.05,3.94l-4.63-1.68l-5.47-0.26l-5.52,2.1l-3.42,2.84l-3,7.57l-0.32,7.52l1.05,6.04l2.58,8.94l-0.32,3.42l-2.67,4.26
	l-2.69,6.94l-1.26,0.05l-0.28-1.94c0,0-0.04-0.74,0.44-1.84s1.37-4.47,2.21-6.31s1.79-2.31,1.68-3.52s-2.84-10.3-3.31-13.04
	s-0.26-6.1,0.21-10.2s1.47-10.78,1.47-10.78s1.58-0.53,1.84-1.16s0.05-1.37-0.84-1.37s-7.87,1.95-10.28,4.37
	c-1.08,1.08-1.83,2.99-2.82,4.55c-1.23,1.93-2.45,3.84-3.42,5.33c-1.66,2.54-5.23-1.33-5.23-1.33L24.04,54.23L24.04,54.23z"/>
<path style="fill:#D9D9D9;" d="M44.22,91.29c-0.06,0-0.12,0-0.18-0.02c-0.37-0.1-0.59-0.48-0.49-0.85c0.04-0.13,0.88-3.31,2.4-6.67
	c0.56-1.23,1.27-2.48,1.9-3.58c0.64-1.12,1.25-2.18,1.42-2.78c0.22-0.76-0.46-2.57-1.24-4.67c-1.56-4.19-3.93-10.53-2.74-17.66
	C47.23,43.44,54.37,41,60.03,41c5.99,0,8.24,2.74,8.33,2.86c0.24,0.3,0.19,0.74-0.11,0.97c-0.3,0.24-0.73,0.19-0.97-0.11
	c0,0-0.5-0.59-1.61-1.16c-1.05-0.54-2.87-1.18-5.63-1.18c-9.27,0-12.39,7.02-13.37,12.9c-1.13,6.77,1.07,12.65,2.67,16.95
	c0.94,2.51,1.61,4.33,1.27,5.53c-0.22,0.76-0.84,1.84-1.55,3.09c-0.61,1.07-1.31,2.28-1.84,3.46c-1.47,3.25-2.32,6.42-2.32,6.45
	c-0.08,0.31-0.36,0.52-0.67,0.52l0,0L44.22,91.29z"/>
<path style="fill:#85E4FF;" d="M115.23,50.14c0.32,0.45,4.32-1.28,5.53-2.01c1.95-1.18,3.51-2.89,1.77-4.62s-3.9,0.72-4.89,2.13
	C116.82,46.81,114.94,49.72,115.23,50.14z"/>
<path style="fill:#85E4FF;" d="M108.59,87.46c0.31,0.8,4.61-0.32,7.55-1.1s5.74-2.51,4.88-4.55c-1.11-2.63-4.31-1.48-6.96,0.35
	S108.24,86.56,108.59,87.46z"/>
<path style="fill:#99674F;" d="M54.02,30.91l-0.12,1.73c0,0,1.21,2.46,4.35,2.5c3.83,0.04,4.69-2.21,4.75-2.58s-0.07-1.04-0.09-2.44
	c-0.03-1.65,0.65-3.57,0.65-4.17C63.56,24.84,54.02,30.91,54.02,30.91z"/>
<path style="fill:#99674F;" d="M63.47,25.28c0,0,2.68,0.46,3.53-2.11s-0.35-4.22-1.76-4.18c-0.47,0.01-0.58,1.42-1.23,4.06
	c-0.22,0.91-0.54,2.22-0.54,2.22l0,0L63.47,25.28z"/>
<path style="fill:#BA8D68;" d="M49.09,14.58c0,0,2.15,0.19,4.33,0s4.76-1,4.76-1s1.15,1.04,2.07,1.76c0.92,0.72,1.5,1.3,1.5,1.3
	s0.47,2.8,0.58,3.91c0.15,1.65,0.46,2.99,1.04,2.99s0.65-0.5,0.65-0.5s0.19,2.29-0.35,3.72c-0.78,2.1-4.37,6.14-9.13,5.94
	c-4.18-0.17-5.87-5.11-6.29-7.09c-0.77-3.65-0.33-6.46-0.33-6.46s0.4-2.78,1.17-4.58l0,0V14.58z"/>
<g>
	<path style="fill:#613E31;" d="M56.13,17.77c-0.34-0.28-0.34-0.98-0.03-1.21s2.24-0.14,2.79-0.02c0.88,0.2,1.45,0.99,1.3,1.26
		c-0.08,0.13-1.11-0.02-2.05,0s-1.86,0.09-2.02-0.04l0,0L56.13,17.77z"/>
	<path style="fill:#613E31;" d="M49.18,17.77c-0.24-0.36,0.34-0.95,1.31-1.17c0.84-0.19,1.68-0.06,1.85,0.2
		c0.19,0.31,0.28,0.84-0.16,1.04C52.01,17.92,49.42,18.11,49.18,17.77L49.18,17.77L49.18,17.77z"/>
</g>
<g>
	<path style="fill:#49352E;" d="M58.23,19.65c-0.69-0.03-1.46,0.41-1.42,1.69c0.04,1.16,0.66,1.72,1.5,1.69s1.3-0.75,1.3-1.65
		s-0.58-1.69-1.38-1.72l0,0V19.65z"/>
	<path style="fill:#49352E;" d="M50.69,19.73c-0.66,0-1.24,0.61-1.24,1.65s0.62,1.57,1.35,1.61s1.35-0.58,1.32-1.57
		S51.57,19.73,50.69,19.73z"/>
</g>
<path style="fill:#99674F;" d="M54.33,25.81c0.69-0.06,1.52-0.47,1.51-0.89s-0.9-0.43-1.59-0.41s-1.61,0.01-1.6,0.47
	S53.67,25.87,54.33,25.81z"/>
<path style="fill:#49352E;" d="M54.35,27.47c-1.03,0-2.27-0.76-2.57-0.15s0.73,1.63,2.6,1.6c2.06-0.03,3.14-1.03,2.87-1.66
	S55.5,27.47,54.35,27.47z"/>
<path style="fill:#99674F;" d="M71.27,82.25l-3.06-2.86c0,0,0.02-0.48,0.12-0.94c0.07-0.34,0-0.81,0-0.81s2.59,1.71,4.47,1.74
	s2.27-0.49,2.27-0.49s0.08,0.33,0.23,0.61s0.52,0.71,0.52,0.71l-0.34,0.97l-4.19,1.06h-0.01L71.27,82.25z"/>
<path style="fill:#99674F;" d="M41.46,94.61l-0.21-3.26c0,0,0.25-0.63,0.4-0.96s0.43-0.95,0.43-0.95s1.36,2.01,3.22,2.61
	s3.87,0.27,3.87,0.27l-0.37,1.7l-1.47,2.4l-5.89-1.82h0.02L41.46,94.61z"/>
<path style="fill:#BA8D68;" d="M68.21,79.34c0,0.21-0.28,1.36,0.77,2.55c0.88,1,3.34,3.62,4.16,4.39s1.31,1.2,1.66,1.38
	c0.95,0.49,1.64,0.39,1.92,0.22s0.52-0.64,0.52-0.64l0.1-0.64l0.35-0.22c0,0,1.12-0.64,0.89-2.21s-2.75-3.95-2.75-3.95
	s-1.66,0.71-3.29,0.65C70.63,80.8,68.21,79.34,68.21,79.34z"/>
<path style="fill:#99674F;" d="M21.59,61.91l-2.15,2.17c0,0,0.19,1.7,0.32,2.12c0.22,0.76,3.31,2.29,5.01-1.85
	c0.43-1.05,1.62-2.91,1.86-2.81s0.06,0.8,0.44,1.56c0.44,0.88,1.76,0.88,1.76,0.88l0.78-4.77l-3.75-0.95l-4.26,3.65
	C21.6,61.91,21.59,61.91,21.59,61.91z"/>
<path style="fill:#BA8D68;" d="M24.33,53.52c0,0,1.66-0.21,2.84,0.1c2.45,0.66,3.79,2.57,3.79,2.87s0.04,2.56-0.38,3.84
	c-0.52,1.55-1.28,3.57-1.72,3.64c-0.44,0.07-1.02-0.85-0.86-2.5c0.09-0.96,0.04-2.14-1.14-1.97c-0.37,0.05-1.66,0.66-2.61,2.55
	c-0.64,1.28-1.53,3.24-2.1,3.65s-2.05,0.13-2.56-0.78s0.31-4.72,0.57-5.48c1.46-4.12,4.16-5.92,4.16-5.92l0,0L24.33,53.52z"/>
<path style="fill:#BA8D68;" d="M41.24,91.36c0,0-0.38,0.88-0.5,1.19c-0.41,1.05-1.07,1.58-1.41,2.63c-0.2,0.62-0.39,1.93-0.5,3.29
	c-0.13,1.7,0.02,3.5,0.15,4.12c0.35,1.68,1.08,2.6,2.78,2.85s3.35,0.18,3.35,0.18s1.98,0.09,2.67-0.14
	c0.95-0.32,1.37-1.33,1.37-2.02s-0.33-3.98-0.36-5.67S48.8,94,48.8,94s-1.97,0.73-3.9-0.02C42.55,93.07,41.24,91.36,41.24,91.36z"/>
<path style="fill:#99674F;" d="M23.12,59.74c-0.47-0.21-1.24,1.08-1.86,2.93c-0.51,1.52-0.54,3.4-0.51,3.57
	c0.02,0.15,0.22,0.24,0.36,0.08c0.13-0.1,0.4-1.54,1.23-3.42c0.4-0.91,1.47-2.86,0.79-3.15l0,0L23.12,59.74z"/>
<path style="fill:#99674F;" d="M19.62,61.11c-0.63,2.7,0.04,4.96,0.17,5c-0.13-0.44,0.07-2.84,0.4-3.98
	c0.42-1.44,1.06-2.69,0.76-2.89s-0.95,0.23-1.32,1.88L19.62,61.11z"/>
<path style="fill:#99674F;" d="M49.12,102.95c0,0.43-0.38,0.93-1.05,0.98s-1.14-0.33-1.22-1.17s-0.02-1.48-0.62-1.46
	s-0.57,0.98-0.6,1.65c-0.01,0.3,0.02,1.15-0.75,1.17c-0.54,0.02-0.75-0.73-0.75-0.73s-0.12,0.75-0.82,0.68
	c-0.6-0.06-0.74-0.75-0.74-0.75s-0.39,0.57-0.92,0.46c-0.53-0.12-0.58-0.72-0.58-0.72s-0.35,0.35-1.01,0.14
	c-0.59-0.19-1.14-0.82-1.14-0.82s0.27,2.03,1.51,2.72c1.22,0.68,5.13,0.58,5.32,0.57c0.57,0.05,1.87,0.08,2.69-0.53
	c1.04-0.76,0.67-2.63,0.67-2.2L49.12,102.95z"/>
<path style="fill:#99674F;" d="M68.46,81.14c0,0,0,0.13,0.35,0.6c0.46,0.63,1.44,1.8,3.05,3.31c1.01,0.95,1.22,1.47,1.86,2.03
	c0.88,0.76,2.32,1.21,2.92,0.88c0.75-0.42,0.72-1.2,0.72-1.2s0.58-0.26,1.02-1.07c0.52-0.94,0.09-1.93,0.09-1.93
	s0.02,0.79-0.28,1.01c-0.23,0.17-0.48,0-0.48,0s0.25,0.43,0.03,0.6s-0.56-0.16-0.56-0.16s0.22,0.47,0,0.65
	c-0.23,0.2-0.89-0.27-0.89-0.27s0.93,0.93,0.1,1.29c-0.58,0.25-1.65-0.35-3.29-1.58c-2.18-1.62-4.64-4.17-4.64-4.17L68.46,81.14z"/>
</svg>
