<?xml version="1.0" encoding="utf-8"?>
<!-- Generator: Adobe Illustrator 26.3.1, SVG Export Plug-In . SVG Version: 6.00 Build 0)  -->
<svg version="1.1" id="a" xmlns="http://www.w3.org/2000/svg" xmlns:xlink="http://www.w3.org/1999/xlink" x="0px" y="0px"
	 viewBox="0 0 128 128" style="enable-background:new 0 0 128 128;" xml:space="preserve">
<path style="fill:#85E4FF;" d="M39,48.8c0,0,4.2-2,9.8-2.6s7.8-1.4,17.4,0.3s13,3.4,15.2,4.2s4.9,2.7,6.9,3.3s7,1.1,7.2,3.8
	c0.1,2.3-5.1,2.5-9.8,2.5S49,61.5,49,61.5l-8.5-6.7L39,49l0,0L39,48.8z"/>
<polygon style="fill:#F8AB16;" points="50.6,62.6 53,61.9 59.9,66.2 52.3,69.4 "/>
<path style="fill:#F8AB19;" d="M70.9,47l6.7,1l2.1-3.1c0.6-0.9,1.2-2.4,1.6-2.4s4.5,2.7,6.6,4.3s5.3,4.4,6.7,5.9s3.9,5,7.3,6.5
	c2.6,1.1,5.8,1.3,9.3,0s6.1-2.5,5.8-4.1s-8.3-3-8.3-3L80.4,30.4L70.9,47C70.9,47,70.9,47,70.9,47z"/>
<path style="fill:#FEC925;" d="M74.3,46.7c0,0,1.7-2.3,3.6-4.9c1.1-1.5,2.2-3,3.4-3s7.8,5.6,10.1,7.6s8.7,9.7,12.8,10.6
	c3.8,0.9,5.1,0.3,5.1,0.3l7.7-2.6v-0.5c-0.1,0,0.2-1.7-0.9-2.7c-1.7-1.5-6-1.3-6-1.3s-1.3-1.9-4.1-3.5c-1.9-1-4-1.7-4-1.7
	s-8.8-12.7-11.7-16.2c-2.9-3.4-6.3-6.9-9.1-6.8c-3.4,0-9.4,6.1-11.5,8.4s-5.5,7.1-5.5,7.1l1.3,6l8.9,3.2l0,0H74.3z"/>
<g>
	<path style="fill:#E89D05;" d="M107.7,53.8c0,0.7,1.2,0.9,4.5,0.6c3-0.3,4.3-0.9,4.6-1c0,0-0.1-1.1-0.3-1.2c-0.2,0-1.3,0.5-4.5,0.8
		C110.5,53.1,107.6,52.8,107.7,53.8C107.7,53.8,107.7,53.8,107.7,53.8z"/>
	<path style="fill:#E89D05;" d="M107.6,57.1c-0.1,1,3.2,0.7,5.6-0.2s3.7-1.6,3.8-1.9s-0.1-0.9-0.2-0.9c0,0-2.5,1.1-4.2,1.6
		s-4.8,0.4-4.9,1.3L107.6,57.1z"/>
</g>
<path style="fill:#FEC925;" d="M80,57.9c-2-0.7-4.7-2-4.4-4.3s2.1-5.6,2.1-5.6s-3.5-1.5-7.4-4.5s-6.2-5.9-6.2-5.9l-2.9,4.3
	c0,0-5.8,4.6-8.2,8.8c-1.9,3.5-2.3,8.3-2.3,8.3v2.9c0,0,3.2,2.4,4.1,3.1c0.8,0.7,2,3,2,3l17,11.4h16.8l7.6-14.5
	c0,0-16.2-6.2-18.1-6.9l0,0L80,57.9z"/>
<path style="fill:#85E4FF;" d="M58.6,91.8c-5.1,0.1-12.3,3-11.7,5s4.1,0.7,10.4,1.7s11.8,6.4,21.8,7.3s22-4,26.2-10.1
	s3.9-8.9,2.1-9.9c-2.8-1.6-4.5,5.7-18.4,8.8s-21-3.1-30.5-2.8l0,0H58.6z"/>
<path style="fill:#0FCAFF;" d="M108.8,40.5C110,42,113,40,116,39.8s6.6,0.6,7.6-2.9s-1.9-5.9-6.7-5.3
	C111.3,32.2,107.1,38.2,108.8,40.5L108.8,40.5z"/>
<path style="fill:#0FCAFF;" d="M101.1,36.2c1.1,1.2,3.6-0.4,5.8-1.7c1.6-1,3.9-2.4,2.9-4.7c-1.2-2.8-4.3-1.9-6.2-0.2
	s-3.7,5.4-2.5,6.7l0,0L101.1,36.2z"/>
<path style="fill:#77F7FF;" d="M103.8,32.5c0.8,0.9,1.7,0,2.8-0.7s2-1.3,1.4-2.3s-2.1-0.3-2.9,0.2s-2,1.9-1.3,2.7V32.5z"/>
<path style="fill:#77F7FF;" d="M110.8,37.7c0.6,0.9,2.1,0,4.2-0.8s4.8-1.1,4.7-2.5s-3.1-1.3-5.2-0.4S110.2,36.7,110.8,37.7z"/>
<path style="fill:#4B0FCE;" d="M50.6,58.8c0,0,9.6,2.3,20,2.3s12.3-2.2,12.3-2.2s7.2,2.6,11.9,4.4c4.7,1.8,4.8,2.9,4.8,2.9L90.8,77
	l-14.7,3.2l-14.4-8.1c0,0-2.3-3.4-5.6-5.2c-1.5-3-5.5-4.6-5.5-4.6s-0.2-0.8-0.2-2c0-0.5,0-1.1,0.1-1.5l0,0L50.6,58.8z"/>
<path style="fill:#FEC925;" d="M19.8,75.9l2.3-23.8l10.2-4.5c0,0,0.8-2,3.9-1.2c4.2,1.1,6,6.6,6,6.6s3.6,1.6,7.5,6.2
	s4.2,9.5,4.2,9.5l-6.5,11.7l-21.5,0.2l-6-4.9l0,0L19.8,75.9z"/>
<path style="fill:#F8AB16;" d="M17.9,69.5l2.9,0.3c0,0,7.9,3.6,14.8,4.3c7,0.7,14.4-0.7,14.4-0.7l-5.6,9l-22.1-4.6l-4.5-8.4l0,0
	L17.9,69.5z"/>
<path style="fill:#909090;" d="M32.3,47.6c0,0-0.1,0.9-0.6,1.3c-1.7,1.2-5.9,4.5-7.8,10.8c-1.3,4.5-1.6,8.6-1.5,10.4
	c0.1,3.4,1.2,7.3,1.2,7.3L8.7,74.9c0,0-4.3-7.4-2-15c5.4-18,25.8-12.4,25.8-12.4l0,0L32.3,47.6z"/>
<path style="fill:#7B7B7B;" d="M9.1,75.6l-0.8-1.1c0,0-1.8-3.5-2.2-7.1s0.5-7.5,0.5-7.5s4.2,5,8.2,7.5c5,3.1,7.6,3.5,7.6,3.5
	s0.2,1.8,0.6,3.8s0.6,2.7,0.6,2.7L9.2,75.6H9.1z"/>
<path style="fill:#52575C;" d="M33.3,47.6c-0.8-0.6-2.2,0.5-2.8,2.1s-0.6,2.9-0.6,2.9s-3.6,1.7-3.9,6.2c-0.3,4.8,2.1,6.2,2.1,6.2
	s-0.8,0.6-0.8,1.9c0,1.4,0.4,2,0.4,2s-2.9,1.2-3.2,5.1c-0.4,4,1,5.4,1,5.4l6.2,0.3c0,0,2.1-1.2,2.1-5.2S31,68.7,31,68.7
	s-0.2-0.5-0.1-1.4c0-1,0.4-1.8,0.4-1.8s4.2-0.2,4.4-6s-3-7.1-3-7.1s0-1.4,0.3-2.3s1.1-2,0.2-2.7L33.3,47.6z"/>
<path style="fill:#403F42;" d="M41.2,67.6c-0.2,2.3,1.5,4.1,4.3,4c3.1,0,4.3-2,4.2-3.6c0-1.7-1.2-3.5-4.2-3.7
	c-1.3,0-4.1,0.2-4.4,3.3L41.2,67.6z"/>
<path style="fill:#AFD7E9;" d="M28.8,78.8c0.3,0,3.2,0.2,3.3-3.7c0.2-3.9-2.3-4.2-2.9-4.1c-0.6,0-2.9,0.5-3,4.2
	C26.1,78.3,28.5,78.8,28.8,78.8L28.8,78.8z"/>
<path style="fill:#EBF8FF;" d="M27.8,72.4c0,0.2,0.6,0.9,1.3,1.7s1.2,1.6,1.4,1.7c0.4,0.1,1.9-1.6,0.2-3.4
	C29.2,70.8,27.9,72,27.8,72.4C27.8,72.4,27.8,72.4,27.8,72.4z"/>
<path style="fill:#82BAD2;" d="M28.3,75.8c0.5,0.6,2.1,2.6,2.1,2.6s-2,1.1-3.4-0.4c-1.5-1.7-0.7-4.2-0.7-4.2s1.3,1.4,1.9,2.1l0,0
	L28.3,75.8z"/>
<path style="fill:#AFD7E9;" d="M28,58.8c-0.1,1.2,0,4.5,2.4,4.8c2.8,0.3,3.5-2.6,3.5-4.3s-0.4-4.2-2.4-4.4s-3.4,1.4-3.6,3.9H28z"/>
<path style="fill:#EBF8FF;" d="M30,56.2c-0.2,0.5,2.5,4.1,2.8,4s0.5-3.5-0.5-4.2c-1.4-1-2.2,0-2.3,0.3V56.2z"/>
<path style="fill:#82B9D1;" d="M29.8,60.3c0.8,1,2.3,3,2.3,3s-1.7,0.9-3.1-0.5c-1.7-1.7-0.8-5-0.8-5L29.8,60.3z"/>
<g>
	<path style="fill:#E89D05;" d="M38.6,64.5c-0.7-0.2-2.8,0.4-2.8,3c0,2.4,1.9,3.2,2.6,3.2s0.9-1.5,0.9-3.2S39.1,64.6,38.6,64.5
		L38.6,64.5z"/>
	<path style="fill:#F8AB16;" d="M34.8,48.7c-0.7,0.7-0.4,2.1,0.9,2.8s2.4,0.7,2.8,0.2s0-2.1-0.9-2.8s-2-1.1-2.8-0.3l0,0V48.7z"/>
</g>
<path style="fill:#85E4FF;" d="M25.9,85.8l-9-4.6l-6-0.8c0,0-3.6-0.2-4.9-0.4c-2.2-0.4-2.1-2.3-1.4-3.2S7.4,74.6,14,75
	c6.5,0.3,14.3,3.2,19.2,3.5s10-0.3,13.4-2.6s7.2-8,11.7-10.9c3.7-2.4,8.6-3,9.9-0.7S65,71.4,65,71.4s8.9-5,11.3-1.2
	s-3.6,5.3-3.3,6.3s6.8,1.8,10.3,1c7.7-1.7,8.6-8.7,13.4-11.9c4.8-3.2,9.6-0.8,13.6,0.7s8.2,0.3,8.9,1.9c0.3,0.6-0.3,2.2-1.2,3.5
	c-0.7,0.9-2.2,1.5-2.2,1.5l-12-0.9L90.8,84L76,84.7l-16.2-3.8L38.9,87l-13-1.1l0,0L25.9,85.8z"/>
<path style="fill:#0FCAFF;" d="M11,80.4c0,0,4,0.8,5.9,2.1s7.7,6.5,16.8,7c12.9,0.7,21.4-6.6,27-5.8c5.8,0.8,16.1,4.8,24.4,3.6
	c12.2-1.7,14-11.6,19-13.3c2.7-0.9,4.8,0.2,7.4,0.2c4.1,0,6.3-2.4,6.3-2.4s-3,0.6-5.8,0c-2.2-0.5-3.6-1.8-7.6-1.7
	c-6.5,0.2-9.9,10.9-19.2,12.4c-6.9,1.1-17.6-1.1-18-2.3c-0.3-1,3.3-3.8,1.2-6c-2.4-2.4-6.8,2-6.8,2s2.4-4.7,0-6.1
	c-2.8-1.7-4.8,0.7-9.9,5.6s-13.8,9-19.7,8.9c-5.9-0.2-9.4-2.9-12.8-3.6C13.5,79.7,11,80.4,11,80.4C11,80.4,11,80.4,11,80.4z"/>
<path style="fill:#F8AB19;" d="M74.6,46.2c0,0-3.8,4.6-2,8.8c1.4,3.3,8.1,4.2,8.6,3.7c0.6-0.6-3.6-1.3-4.8-3.1
	c-1.1-1.5-0.4-3.3-0.2-4.1c0.4-1.5,1.4-3.2,2.5-5c1.2-2,2.5-4,2.5-4l-2.5,1.1l-4,2.6H74.6z"/>
</svg>
