<?xml version="1.0" encoding="utf-8"?>
<!-- Generator: Adobe Illustrator 26.3.1, SVG Export Plug-In . SVG Version: 6.00 Build 0)  -->
<svg version="1.1" id="a" xmlns="http://www.w3.org/2000/svg" xmlns:xlink="http://www.w3.org/1999/xlink" x="0px" y="0px"
	 viewBox="0 0 128 128" style="enable-background:new 0 0 128 128;" xml:space="preserve">
<path style="fill:#62453B;" d="M69.94,6.53c5.06,0.09,7,4.7,9.31,6.18s5.87-2.45,6.14-1.2c0.4,1.82-0.16,9.7-8.4,9.1
	c-5.65-0.42-5.87-6.99-8.59-6.75s-4.16,2.26-4.16,2.26s-1.09-4.04-0.68-5.41C64.17,8.64,66.16,6.47,69.94,6.53L69.94,6.53
	L69.94,6.53z"/>
<path style="fill:#62453B;" d="M51.01,25.69l-3.66-6.05c0,0-1.13-0.44-1.65-2.38c-1.52-5.69,2.45-8.91,3.03-9.57
	c1.73-1.99,4.39-3.16,7.78-3.23c4.83-0.1,7.9,1.53,10.04,4.59c2.28,3.25,2.53,7.11,1.9,10.14c-0.42,2.01-0.76,3.65-2.69,5.58
	c-1.75,1.75-3.21,2.21-3.21,2.21S51.01,25.69,51.01,25.69z"/>
<path style="fill:#85E4FF;" d="M86.88,102.12L65.9,113.63c0,0-2,1-2.33,1.19c-0.71,0.41-1.59,1.2-0.83,2.32s2.52,0.66,4.06,0
	c1.49-0.64,13.71-5.56,23.02-11.49c7.47-4.75,14.26-10.1,16.12-12.23c1.16-1.32,1.05-2.76,0.34-3.41c-1.23-1.13-2.89-0.38-3.64-0.08
	s-1.45,0.36-1.66-0.28s0.89-1.7,3.53-4.19c2.64-2.48,11.9-11.79,13.1-13.15s1.95-3.86,0.77-5.21c-1.42-1.61-3.89-0.87-6.3,0.38
	c-1.75,0.91-3.56,1.9-3.61,1.61s2.17-1.63,4.32-3.76c3.08-3.06,6.23-6.57,7.08-7.79c1.44-2.08,1.59-3.85,0.2-5.12
	c-1.07-0.98-2.73-1.25-4.73-0.24c-2.54,1.29-6.69,3.51-6.86,3.41s4.87-7.44,6.15-10.87c0.84-2.25,1.9-4.15,0.06-5.2
	c-1.36-0.77-3.4,0.39-7.86,3.71c-4.47,3.34-7.81,7.01-8.01,6.86s2.57-5.12,0.52-6.45c-1.15-0.74-3.08-0.18-5.69,2.05
	c-3.59,3.06-7.69,5.71-7.69,5.71S61.15,61.43,54.18,64.79c-6.97,3.36-22.42,11.84-28.1,15.98c-3.69,2.69-6.07,5.77-4.7,7.14
	c0.55,0.55,5.69-3.61,17.36-9.54c7.25-3.68,20.06-9.4,20.06-9.4l15.35-6.31l17.72-5.41l6.95-4.29l7.21-4.09l-4.09,11.86l9.37-2.56
	l0.56,3.04l-10.5,11.38h7.77l-1.04,3.04L93.84,92.05l-0.72,5.29l-6.27,4.75L86.88,102.12L86.88,102.12z"/>
<path style="fill:#0FCAFF;" d="M65.9,113.62c0,0,12.75-7.7,16.29-10s8.5-5.49,8.5-7.61s-1.15-3.36-0.71-4.51s7.7-8.05,10.18-10.27
	c2.48-2.21,7.06-5.57,6.63-6.67c-0.33-0.83-3.93,0.48-5.39,0.74c-2.48,0.44-3.44-1.55-2.03-2.97c1.42-1.42,9.45-9.35,10.25-10.14
	c1.18-1.15,0.62-2.64-1.06-1.94s-10.55,6.67-11.23,7.16c-1.34,0.96-2.49-0.26-1.43-1.58s4.69-6.82,6.02-9.12
	c1.33-2.3,2.04-3.27,1.15-3.72s-9.57,6.55-10.54,7.35s-2.92,2.47-3.53,2.84c-1.46,0.88-2.42-0.54-1.5-1.61s2.02-1.9,1.59-2.74
	c-0.17-0.33-0.74-0.4-2.13,0.05c-5.06,1.62-16.68,6.69-19.91,7.98c-4.36,1.74-10.88,4.36-10.88,4.36l-0.53-2.3
	c0,0,16.73-7.88,20.71-9.29c3.98-1.42,11.6-4.25,11.6-4.25s4.87-4.51,6.55-3.72s0.71,3.01,0.71,3.01s12.66-10.18,14.43-8.59
	s-6.46,14.25-6.46,14.25s10.09-6.37,11.77-3.1c1.68,3.27-11.83,14.36-11.73,14.7s8.92-2.51,9.87-0.45
	c1.12,2.41-16.02,19.21-16.02,19.21s3.19,0.62,3.19,2.48s-5.44,6.37-11.01,9.64c-5.58,3.27-14.48,7.88-16.34,8.77
	s-4.78,2.48-6.99,2.04L65.9,113.62L65.9,113.62z"/>
<path style="fill:#583EE2;" d="M63.46,97.68L8.89,122.92c0,0,2.94,0.72,7.92,0.62c6.4-0.13,16.07-1.49,26.15-5.96
	c19.99-8.86,34.81-20.44,45.25-30.86c6.78-6.77,7.15-7.79,7.22-8.47c0.15-1.4-0.3-2.8-0.3-2.8S63.46,97.68,63.46,97.68z"/>
<path style="fill:#7669F7;" d="M84.46,64.9c-1.07-0.12-33.44,5.81-60,25.73C0.92,108.29,4.02,119.71,4.49,120.78
	c1.19,2.73,15.11,6.37,43.68-8.57c29.56-15.46,47.07-35.45,46.95-36.76s-9.6-10.43-10.67-10.55C84.45,64.9,84.46,64.9,84.46,64.9z"
	/>
<path style="fill:#4B0FCE;" d="M46.08,78.67c0,0-3.49,3.73-5.62,6.98c-1.67,2.54-3.45,5.95-3.78,6.88C36.19,93.91,36,94.81,36,97.86
	s-0.06,5.23,1.93,5.71c0.57,0.14,1.4,0.11,2.06,0.11c1.12,0,2.12-0.1,2.12-0.1l6.59-0.1c0,0,1.65-1.75,3.25-4.8s1.89-3.59,3.3-5.53
	s8.15-8.48,8.15-8.48l5.29,0.42c0,0,2.13,1.81,3.97,2.53c1.84,0.73,2.72,0.73,3.83,0.29s2.62-2.81,2.13-3.64s-5.82-6.16-5.82-6.16
	l-0.15-10.67c0,0-7.42,2.13-11.2,3.59c-3.78,1.45-13.48,5.62-13.48,5.62l-1.89,1.99V78.67z"/>
<path style="fill:#FFEBC9;" d="M4.1,118.31c0,0,32.69-19.5,48.7-28.63s36.09-21.15,36.09-21.15s0.47,0.44,1.03,0.96
	c0.51,0.47,1.46,1.47,1.46,1.47s-26.5,16.81-37,22.69c-10.5,5.88-48.13,28.53-48.13,28.53s-1.45-0.64-1.81-1.4s-0.35-2.47-0.35-2.47
	S4.1,118.31,4.1,118.31z"/>
<path style="fill:#FFEBC9;" d="M4.41,115.4c0,0,43.3-24.5,51.6-29.41c8.3-4.92,31.72-18.53,31.72-18.53s-0.46-0.43-0.68-0.62
	s-0.69-0.59-0.69-0.59L5.11,112.87c0,0-0.23,0.57-0.36,1.02C4.57,114.52,4.4,115.4,4.41,115.4L4.41,115.4L4.41,115.4z"/>
<path style="fill:#FFEBC9;" d="M8.88,122.93l84.03-50.39c0,0,0.44,0.49,0.62,0.68s0.64,0.75,0.64,0.75l-81.79,49.29
	c0,0-1.6-0.06-1.98-0.1s-1.53-0.23-1.53-0.23H8.88z"/>
<path style="fill:#A58DC6;" d="M36.08,95.09l5.13-2.95l0.46,2.1l-5.68,3.23c0,0,0-0.75,0.03-1.23c0-0.4,0.07-1.16,0.07-1.16l0,0
	L36.08,95.09z"/>
<path style="fill:#A58DC6;" d="M39.58,102.28l-2.01,1.19c0,0-0.57-0.17-0.99-0.8C35.9,101.65,36,99.44,36,99.44l3.65-2.14
	L39.58,102.28L39.58,102.28L39.58,102.28z"/>
<polygon style="fill:#A58DC6;" points="48.73,101.36 51.34,99.78 53.18,96.36 48.57,99.12 "/>
<path style="fill:#A58DC6;" d="M48.49,97.07l6.75-3.9c0,0,4.32-6.08,5.62-7.31s2.98-2.42,4.06-2.52c1.08-0.1,1.73,0.14,2,0.38
	s1.78,1.4,1.78,1.4l2.98-1.79l-2.33-3.29l-21.17,12.3L48.49,97.07L48.49,97.07L48.49,97.07z"/>
<polygon style="fill:#A58DC6;" points="51.23,88.8 69.51,78.07 68.68,76.37 50.5,86.8 "/>
<path style="fill:#A58DC6;" d="M70.12,86.21l2.72-1.65l1.55,1.34l-2.4,1.44c0,0-0.71-0.35-1.02-0.56S70.12,86.21,70.12,86.21z"/>
<path style="fill:#464C4F;" d="M61.99,57.46l-7.66,8.05l3.07-0.28c0,0,2.27-2.39,2.83-2.39s2.99,1,4.98,1.71
	c1.99,0.71,5.14,1.79,5.14,1.79s-1.12,3.59-1.4,5.42s-0.48,2.67-0.52,3.15s-0.22,0.61-0.33,1.16c-0.08,0.42,0.24,0.67,0.24,0.67
	l1.36,1.16l4.03-5.3l1.04-8.49l-12.8-6.66L61.99,57.46L61.99,57.46z"/>
<path style="fill:#5E6367;" d="M44.6,84.64l-1.95,6.67l5.38,1.24l1-0.95c0,0,0.86-0.43,1.48-1.43s3.24-4.52,4.72-6.48
	s3.38-4.05,3.43-5.67s-0.33-5.81-0.62-8.62s-0.95-5.1-0.95-5.1s3.05-3.76,3.52-3.76s3.57,1.91,6.05,2.81s5.48,2.43,5.48,2.43
	s-1.33,4.05-1.71,5.91s-0.67,3.67-0.67,3.67s-0.44,0.46-0.58,1.1c-0.27,1.24,1.72,2.66,1.72,2.66l3.33,0.05l0.94-1.15
	c0,0,0.39-0.8,0.58-1.47s2.29-6,3.1-7.91s2.67-5.72,2.19-7.86c-0.48-2.14-1.81-4.1-7.86-6.48s-7.19-2.71-7.49-3.1
	s0.44-2.8,0.97-4.33s1.1-3.33,1.1-3.33l-0.71-5l-17.86,0.95l-4.62,9.86l0.43,18l2.05,10.81l-2.43,6.48L44.6,84.64L44.6,84.64z"/>
<path style="fill:#E3970A;" d="M90.36,38.06l-5.85,2.51l0.86,2.01c0,0,1.46,0.02,1.94,0.08c0.88,0.1,2.45,0.41,3.88,0.56
	s2.81-0.2,3.14-1.14c0.26-0.73-0.38-1.11-0.38-1.11l-1.61-0.47c0,0,1.43-0.32,2.62-0.42s2.12-0.38,2.32-0.89
	c0.24-0.59,0-0.95,0-0.95l-6.91-0.19L90.36,38.06L90.36,38.06z"/>
<path style="fill:#FFCB29;" d="M85.61,37.36c0,0,0.4-0.16,3.87-0.22s4.95,0,5.85,0.22c1.16,0.29,2.06,0.73,2.03,1.12
	s-3.47,0.44-4.71,0.92c-0.61,0.24-0.45,0.85,0.04,1c0.59,0.19,1.05,0.36,1.42,0.68c0.35,0.3-0.12,1.17-1.76,1.1
	c-1.22-0.05-2.74-0.54-3.99-0.77s-2.8-0.45-2.8-0.45L85.61,37.36L85.61,37.36L85.61,37.36z"/>
<path style="fill:#2F2F2F;" d="M68.07,35.59l1.17,4.2c0,0,5.52,3.4,6.96,3.56s7.62-0.66,8.82-0.68s-0.32-4.36-0.32-4.36L68.08,35.6
	l0,0L68.07,35.59z"/>
<path style="fill:#2F2F2F;" d="M27.44,50.78l0.74,4.89l2.25-0.22c0,0,2.27-3.92,2.96-5.14s2.39-3.72,2.92-4.2s3.13-1.91,4.89-2.66
	s3.29-1.38,3.4-0.85c0.16,0.78,2.81-0.32,2.81-0.32l0.11-3.24l-11.21,2.44l-8.87,9.29l0,0L27.44,50.78z"/>
<path style="fill:#464C4F;" d="M23.62,53.11c0,0,0.96-4.36,3.51-9.51s4.25-6.21,5.05-6.85s4.25-3.35,9.4-5.68s8.23-2.55,8.23-2.55
	s11.79-1.06,13.17-0.85c1.38,0.21,4.83,0.58,7.97,2.39c3.13,1.81,7.18,6.45,7.88,6.51c1.7,0.16,8.09,0.64,8.09,0.64
	s0.55,0.84,0.47,2.45s-1.32,2.97-1.32,2.97s-0.52,0.03-0.99,0.03c-0.13-0.19-0.34-0.73-1.03-0.83s-6.09,0.24-7.26,0.03
	c-0.58-0.1-6.11-3.24-6.64-3.35s-2.07,3.98-2.07,3.98l-4.67-1.7l-5.52-0.27l-5.58,2.12l-3.45,2.87l-3.03,7.65l-0.32,7.59l1.06,6.11
	l2.6,9.03l-0.32,3.45l-2.7,4.3l-2.72,7.01l-1.27,0.05l-0.28-1.96c0,0-0.04-0.75,0.44-1.86s1.38-4.51,2.23-6.37s1.81-2.34,1.7-3.56
	s-2.87-10.41-3.35-13.17s-0.27-6.16,0.21-10.3s1.49-10.89,1.49-10.89s1.59-0.53,1.86-1.17s0.05-1.38-0.85-1.38
	s-7.95,1.97-10.39,4.42c-1.1,1.1-1.85,3.02-2.85,4.6c-1.24,1.95-2.47,3.89-3.46,5.39C27.23,57.02,23.62,53.11,23.62,53.11z"/>
<path style="fill:#F09E00;" d="M71.34,81.43l-3.09-2.89c0,0,0.02-0.48,0.12-0.95c0.07-0.34,0-0.83,0-0.83s2.62,1.81,4.52,1.77
	s2.29-0.52,2.29-0.52s0.08,0.35,0.23,0.64s0.53,0.72,0.53,0.72l-0.34,0.98l-4.24,1.08h-0.01L71.34,81.43z"/>
<path style="fill:#FFCB29;" d="M68.24,78.54c0,0.21-0.21,1.31,0.84,2.5c0.88,1,3.34,3.62,4.16,4.39s1.31,1.2,1.66,1.38
	c0.95,0.49,1.64,0.39,1.92,0.22s0.52-0.64,0.52-0.64l0.1-0.64l0.35-0.22c0,0,1.12-0.64,0.89-2.21s-2.75-3.95-2.75-3.95
	s-1.66,0.71-3.29,0.65C70.73,79.95,68.25,78.53,68.24,78.54L68.24,78.54L68.24,78.54z"/>
<path style="fill:#F09E00;" d="M41.22,93.91l-0.21-3.3c0,0,0.25-0.64,0.41-0.97s0.44-0.96,0.44-0.96s1.38,2.03,3.26,2.64
	s3.91,0.26,3.91,0.26l-0.37,1.72l-1.49,2.43l-5.95-1.84C41.22,93.89,41.22,93.91,41.22,93.91z"/>
<path style="fill:#E3970A;" d="M21.06,60.85l-2.15,2.17c0,0,0.19,1.7,0.32,2.12c0.22,0.76,3.31,2.29,5.01-1.85
	c0.43-1.05,1.62-2.91,1.86-2.81s0.06,0.8,0.44,1.56c0.44,0.88,1.76,0.88,1.76,0.88l0.78-4.77l-3.75-0.95l-4.26,3.65
	C21.07,60.85,21.06,60.85,21.06,60.85z"/>
<path style="fill:#EF9E01;" d="M53.92,29.55L53.8,31.3c0,0,1.22,2.49,4.4,2.52c3.87,0.04,4.74-2.23,4.8-2.6s-0.07-1.05-0.09-2.47
	c-0.03-1.67,0.66-3.61,0.66-4.22c0-1.12-9.64,5.01-9.64,5.01L53.92,29.55L53.92,29.55z"/>
<path style="fill:#EF9E01;" d="M63.93,23.83c0,0,2.24,0.05,3.09-2.1c1.01-2.54-0.35-4.11-1.78-4.22c-0.12,0-0.76,1.68-1.05,3.58
	C64.05,22.02,63.93,23.83,63.93,23.83z"/>
<path style="fill:#FFCB29;" d="M23.8,52.46c0,0,1.66-0.21,2.84,0.1c2.45,0.66,3.79,2.57,3.79,2.87s0.04,2.56-0.38,3.84
	c-0.52,1.55-1.28,3.57-1.72,3.64s-1.02-0.85-0.86-2.5c0.09-0.96,0.04-2.14-1.14-1.97c-0.37,0.05-1.66,0.66-2.61,2.55
	c-0.64,1.28-1.53,3.24-2.1,3.65s-2.05,0.13-2.56-0.78s0.31-4.72,0.57-5.48C21.09,54.26,23.79,52.46,23.8,52.46L23.8,52.46
	L23.8,52.46z"/>
<path style="fill:#FFCB29;" d="M41.02,90.62c0,0-0.24,0.54-0.5,1.26c-0.65,1.75-1.01,1.6-1.35,2.65c-0.2,0.62-0.39,1.93-0.5,3.29
	c-0.13,1.7,0.02,3.5,0.15,4.12c0.35,1.68,1.08,2.6,2.78,2.85s3.35,0.18,3.35,0.18s1.98,0.09,2.67-0.14
	c0.95-0.32,1.37-1.33,1.37-2.02s-0.33-3.98-0.36-5.67s0.04-3.81,0.04-3.81s-1.62,1.01-3.93,0s-3.71-2.7-3.71-2.7h-0.01L41.02,90.62z
	"/>
<path style="fill:#D9D9D9;" d="M44.01,90.56c-0.06,0-0.12,0-0.18-0.02c-0.37-0.1-0.6-0.48-0.5-0.86c0.04-0.13,0.89-3.34,2.43-6.74
	c0.56-1.25,1.29-2.51,1.92-3.61c0.65-1.13,1.26-2.2,1.44-2.81c0.22-0.77-0.46-2.6-1.25-4.71c-1.58-4.24-3.97-10.64-2.77-17.85
	c1.96-11.74,9.18-14.21,14.89-14.21c6.05,0,8.32,2.77,8.42,2.89c0.24,0.3,0.19,0.74-0.11,0.99c-0.3,0.24-0.74,0.19-0.98-0.11
	c0,0-0.5-0.6-1.63-1.18c-1.06-0.54-2.9-1.19-5.69-1.19c-9.37,0-12.52,7.09-13.51,13.04c-1.14,6.84,1.08,12.78,2.7,17.12
	c0.95,2.54,1.63,4.37,1.28,5.59c-0.22,0.77-0.84,1.86-1.57,3.12c-0.62,1.08-1.32,2.31-1.86,3.5c-1.49,3.28-2.34,6.48-2.35,6.52
	C44.61,90.35,44.32,90.56,44.01,90.56z"/>
<path style="fill:#85E4FF;" d="M115.76,48.98c0.32,0.46,4.37-1.29,5.59-2.03c1.97-1.2,3.55-2.92,1.79-4.66
	c-1.82-1.81-3.94,0.73-4.94,2.15C117.37,45.62,115.47,48.56,115.76,48.98z"/>
<path style="fill:#85E4FF;" d="M109.05,86.69c0.31,0.8,4.66-0.33,7.63-1.11s5.8-2.53,4.93-4.59c-1.12-2.66-4.35-1.49-7.03,0.35
	s-5.88,4.45-5.53,5.36l0,0V86.69z"/>
<path style="fill:#FFCB29;" d="M49.97,14.57c4.07-1.16,6.04-3.64,6.04-3.64s0.32,1.41,1.75,2.62c1.62,1.37,4.78,2.11,4.95,4.95
	c0.27,4.63,1.25,4.92,1.25,4.92s0.1,0.44-0.44,1.89c-0.79,2.12-4.27,6.27-9.08,6.08c-4.22-0.17-5.93-5.16-6.35-7.17
	c-0.42-1.99-0.7-3.51-0.76-4.92c-0.05-1.2,0.43-4.09,2.65-4.73C49.98,14.57,49.97,14.57,49.97,14.57z"/>
<g>
	<path style="fill:#62453B;" d="M56.05,16.27c-0.34-0.29-0.34-0.99-0.03-1.22s2.26-0.14,2.82-0.02c0.89,0.2,1.47,1,1.31,1.27
		c-0.08,0.14-1.13-0.02-2.07,0s-1.88,0.09-2.04-0.04l0,0L56.05,16.27z"/>
	<path style="fill:#62453B;" d="M49.02,16.28c-0.24-0.36,0.34-0.96,1.32-1.18c0.85-0.19,1.7-0.06,1.86,0.2
		c0.19,0.31,0.28,0.85-0.16,1.05C51.86,16.43,49.25,16.62,49.02,16.28z"/>
</g>
<g>
	<path style="fill:#2F2F2F;" d="M58.17,18.18c-0.7-0.03-1.48,0.42-1.43,1.7c0.04,1.17,0.66,1.74,1.51,1.7s1.32-0.76,1.32-1.67
		S58.99,18.21,58.17,18.18L58.17,18.18L58.17,18.18z"/>
	<path style="fill:#2F2F2F;" d="M50.55,18.25c-0.66,0-1.26,0.62-1.26,1.67s0.63,1.59,1.37,1.63s1.37-0.58,1.33-1.59
		S51.44,18.26,50.55,18.25L50.55,18.25L50.55,18.25z"/>
</g>
<path style="fill:#E59502;" d="M54.23,24.4c0.7-0.06,1.54-0.47,1.52-0.9s-0.91-0.44-1.6-0.42s-1.63,0.01-1.61,0.48
	S53.58,24.46,54.23,24.4z"/>
<path style="fill:#62453B;" d="M54.25,26.07c-1.04,0-2.29-0.76-2.6-0.15s0.73,1.65,2.63,1.62c2.08-0.03,3.18-1.04,2.9-1.68
	S55.41,26.07,54.25,26.07z"/>
<path style="fill:#E3970A;" d="M22.59,58.68c-0.47-0.21-1.24,1.08-1.86,2.93c-0.51,1.52-0.54,3.4-0.51,3.57
	c0.02,0.15,0.22,0.24,0.36,0.08c0.13-0.1,0.4-1.54,1.23-3.42c0.4-0.91,1.47-2.86,0.79-3.15l0,0L22.59,58.68z"/>
<path style="fill:#E3970A;" d="M19.09,60.05c-0.63,2.7,0.04,4.96,0.17,5c-0.13-0.44,0.07-2.84,0.4-3.98
	c0.42-1.44,1.06-2.69,0.76-2.89s-0.95,0.23-1.32,1.88L19.09,60.05z"/>
<path style="fill:#E59502;" d="M48.96,102.3c0,0.43-0.38,0.93-1.05,0.98s-1.14-0.33-1.22-1.17s-0.02-1.48-0.62-1.46
	s-0.57,0.98-0.6,1.65c-0.01,0.3,0.02,1.15-0.75,1.17c-0.54,0.02-0.75-0.73-0.75-0.73s-0.12,0.75-0.82,0.68
	c-0.6-0.06-0.74-0.75-0.74-0.75s-0.39,0.57-0.92,0.46c-0.53-0.12-0.58-0.72-0.58-0.72s-0.35,0.35-1.01,0.14
	c-0.59-0.19-1.14-0.82-1.14-0.82s0.27,2.03,1.51,2.72c1.22,0.68,5.13,0.58,5.32,0.57c0.57,0.05,1.87,0.08,2.69-0.53
	c1.04-0.76,0.67-2.63,0.67-2.2L48.96,102.3z"/>
<path style="fill:#E59502;" d="M68.56,80.3c0,0,0.59,1.26,3.41,3.91c1.01,0.95,1.22,1.47,1.86,2.03c0.88,0.76,2.32,1.21,2.92,0.88
	c0.75-0.42,0.72-1.2,0.72-1.2s0.58-0.26,1.02-1.07c0.52-0.94,0.09-1.93,0.09-1.93s0.02,0.79-0.28,1.01c-0.23,0.17-0.48,0-0.48,0
	s0.25,0.43,0.03,0.6s-0.56-0.16-0.56-0.16s0.22,0.47,0,0.65c-0.23,0.2-0.89-0.27-0.89-0.27s0.93,0.93,0.1,1.29
	c-0.58,0.25-1.65-0.35-3.29-1.58c-2.18-1.62-4.66-4.16-4.66-4.16H68.56z"/>
</svg>
