<?xml version="1.0" encoding="utf-8"?>
<!-- Generator: Adobe Illustrator 26.3.1, SVG Export Plug-In . SVG Version: 6.00 Build 0)  -->
<svg version="1.1" id="a" xmlns="http://www.w3.org/2000/svg" xmlns:xlink="http://www.w3.org/1999/xlink" x="0px" y="0px"
	 viewBox="0 0 128 128" style="enable-background:new 0 0 128 128;" xml:space="preserve">
<polygon style="fill:#875334;" points="50.64,62.57 53,61.91 59.9,66.25 52.34,69.4 "/>
<path style="fill:#85E4FF;" d="M39.05,48.84c0,0,4.21-1.99,9.79-2.6s7.8-1.38,17.36,0.31c9.56,1.68,13,3.37,15.22,4.21
	s4.9,2.68,6.88,3.29s7.04,1.07,7.19,3.75c0.13,2.32-5.05,2.52-9.79,2.45S48.98,61.4,48.98,61.4l-8.49-6.73l-1.45-5.81L39.05,48.84z"
	/>
<path style="fill:#875334;" d="M70.89,46.95l6.71,0.96l2.07-3.1c0.59-0.89,1.25-2.36,1.62-2.36s4.5,2.73,6.56,4.35
	s5.3,4.39,6.7,5.94s3.94,5.01,7.31,6.45c2.6,1.11,5.83,1.33,9.29-0.07s6.05-2.51,5.83-4.06s-8.26-3.02-8.26-3.02L80.4,30.36
	L70.89,46.95L70.89,46.95z"/>
<path style="fill:#A56C43;" d="M74.26,46.67c0,0,1.7-2.34,3.61-4.89c1.08-1.45,2.2-3.03,3.42-3.03s7.85,5.64,10.13,7.64
	s8.71,9.67,12.76,10.62c3.76,0.88,5.06,0.27,5.06,0.27l7.66-2.61l-0.14-0.5c0,0,0.3-1.71-0.8-2.67c-1.66-1.45-6-1.28-6-1.28
	s-1.31-1.94-4.12-3.45c-1.94-1.04-3.99-1.71-3.99-1.71S93.08,32.34,90.13,28.9c-2.94-3.44-6.28-6.91-9.12-6.84
	c-3.41,0.09-9.42,6.14-11.48,8.36S64,37.5,64,37.5l1.3,5.95l8.94,3.22L74.26,46.67z"/>
<g>
	<path style="fill:#63351E;" d="M107.7,53.85c0.09,0.67,1.19,0.94,4.53,0.58c2.96-0.32,4.35-0.88,4.56-1.02
		c0.06-0.04-0.13-1.11-0.27-1.16c-0.23-0.08-1.35,0.51-4.54,0.8c-1.54,0.14-4.4-0.16-4.27,0.8H107.7z"/>
	<path style="fill:#63351E;" d="M107.6,57.13c-0.13,0.96,3.15,0.67,5.59-0.16c2.44-0.84,3.73-1.61,3.79-1.88s-0.11-0.86-0.22-0.92
		c-0.06-0.03-2.51,1.12-4.24,1.61S107.73,56.16,107.6,57.13z"/>
</g>
<path style="fill:#A56C43;" d="M79.96,57.87c-1.99-0.66-4.65-1.99-4.43-4.35c0.22-2.36,2.07-5.61,2.07-5.61s-1.26-0.55-3.08-1.62
	c-1.24-0.72-2.74-1.69-4.29-2.88c-3.84-2.95-6.2-5.9-6.2-5.9l-2.88,4.28c0,0-5.83,4.57-8.19,8.78c-1.94,3.46-2.29,8.26-2.29,8.26
	l-0.07,2.88c0,0,3.32,2.36,4.13,3.1s1.99,3.02,1.99,3.02l16.96,11.36H90.5l7.6-14.46C98.1,64.73,81.95,58.53,79.96,57.87z"/>
<path style="fill:#85E4FF;" d="M58.58,91.81c-5.08,0.13-12.28,2.98-11.66,4.96s4.09,0.74,10.42,1.74
	c6.33,0.99,11.78,6.45,21.83,7.32s21.95-3.97,26.17-10.05c4.22-6.08,3.92-8.9,2.11-9.92c-2.85-1.61-4.47,5.71-18.36,8.81
	C75.24,97.76,68.13,91.57,58.58,91.81L58.58,91.81z"/>
<path style="fill:#0FCAFF;" d="M108.76,40.5c1.17,1.55,4.24-0.52,7.25-0.66s6.59,0.57,7.58-2.87c0.97-3.36-1.93-5.85-6.74-5.32
	c-5.56,0.61-9.8,6.59-8.1,8.86L108.76,40.5z"/>
<path style="fill:#0FCAFF;" d="M101.13,36.21c1.08,1.22,3.56-0.36,5.79-1.74c1.6-0.99,3.86-2.36,2.87-4.71
	c-1.16-2.76-4.27-1.91-6.17-0.24S99.97,34.91,101.13,36.21L101.13,36.21z"/>
<path style="fill:#77F7FF;" d="M103.77,32.49c0.75,0.9,1.74-0.05,2.78-0.66s2.03-1.32,1.41-2.31s-2.12-0.28-2.87,0.24
	S103.06,31.64,103.77,32.49z"/>
<path style="fill:#77F7FF;" d="M110.79,37.72c0.57,0.91,2.12-0.05,4.24-0.85s4.8-1.13,4.71-2.45s-3.06-1.32-5.23-0.42
	S110.18,36.73,110.79,37.72z"/>
<path style="fill:#A56C43;" d="M19.76,75.91l2.3-23.85l10.18-4.47c0,0,0.85-1.97,3.94-1.18c4.2,1.07,5.98,6.64,5.98,6.64
	s3.61,1.57,7.49,6.24s4.3,9.31,4.3,9.31l-6.6,11.98l-21.55,0.2L19.76,75.91L19.76,75.91z"/>
<path style="fill:#875334;" d="M17.89,69.51l2.89,0.27c0,0,7.87,3.6,14.83,4.31s14.4-0.66,14.4-0.66l-5.58,9.01l-22.08-4.55
	l-4.46-8.39V69.51z"/>
<path style="fill:#473530;" d="M41.25,67.63c-0.18,2.31,1.51,4.08,4.3,4c3.07-0.09,4.26-2,4.23-3.59c-0.03-1.7-1.21-3.54-4.16-3.68
	C44.36,64.3,41.49,64.55,41.25,67.63z"/>
<g>
	<path style="fill:#875334;" d="M38.59,64.49c-0.72-0.15-2.78,0.38-2.84,2.96c-0.06,2.43,1.93,3.25,2.61,3.25s0.88-1.47,0.94-3.19
		S39.15,64.61,38.59,64.49L38.59,64.49z"/>
	<path style="fill:#875334;" d="M34.84,48.72c-0.65,0.74-0.41,2.13,0.86,2.85s2.41,0.67,2.79,0.19s-0.1-2.13-0.89-2.76
		s-2.03-1.11-2.76-0.29L34.84,48.72z"/>
</g>
<g>
	<path style="fill:#875334;" d="M75.74,70.12c0,0,1.96,1.75,1.61,4.15c-0.23,1.61,1.38,1.92,2.54,1.84s3.53,0.23,7.53-4.3
		s9.91-6.38,9.91-6.38l0.85,9.14L77.13,81.1l-7.91-4.92l6.53-6.07L75.74,70.12z"/>
	<path style="fill:#875334;" d="M66.47,65.03c0,0,3.84,0.23,2.54,3.46s-0.85,5.07-0.15,5.46s-6.22-0.85-6.22-0.85L66.47,65.03
		L66.47,65.03z"/>
	<path style="fill:#875334;" d="M74.64,46.18c0,0-3.77,4.62-2.03,8.78c1.4,3.34,8.1,4.15,8.57,3.68c0.56-0.56-3.58-1.35-4.83-3.07
		c-1.06-1.46-0.4-3.28-0.2-4.07c0.37-1.46,1.37-3.17,2.46-4.97c1.22-2.02,2.52-4.05,2.52-4.05l-2.49,1.06L74.64,46.18z"/>
</g>
<path style="fill:#A0A0A0;" d="M32.28,47.58c0,0-0.11,0.91-0.64,1.28c-1.71,1.23-5.88,4.51-7.77,10.84
	c-1.34,4.49-1.63,8.56-1.55,10.38c0.15,3.41,1.16,7.28,1.16,7.28L8.53,74.88c0,0-4.26-7.44-2.01-14.95
	c5.37-17.96,25.75-12.36,25.75-12.36L32.28,47.58z"/>
<path style="fill:#7F7E7E;" d="M9.07,75.59l-0.78-1.08c0,0-1.77-3.46-2.25-7.09s0.48-7.49,0.48-7.49s4.23,5.01,8.2,7.48
	c4.99,3.1,7.58,3.52,7.58,3.52s0.21,1.8,0.6,3.75s0.58,2.68,0.58,2.68S9.07,75.59,9.07,75.59z"/>
<g>
	<path style="fill:#3F3F3F;" d="M33.28,47.64c-0.85-0.61-2.23,0.47-2.81,2.08s-0.56,2.9-0.56,2.9s-3.59,1.74-3.88,6.25
		c-0.32,4.8,2.15,6.24,2.15,6.24s-0.78,0.64-0.82,1.93c-0.04,1.41,0.41,1.98,0.41,1.98s-2.85,1.15-3.24,5.11s0.98,5.43,0.98,5.43
		l6.2,0.33c0,0,2.07-1.15,2.07-5.19c0-4.93-2.77-5.83-2.77-5.83s-0.18-0.54-0.15-1.43c0.03-0.99,0.41-1.76,0.41-1.76
		s4.16-0.16,4.44-5.96s-2.99-7.09-2.99-7.09s0.06-1.38,0.35-2.32S34.21,48.32,33.28,47.64z"/>
	<path style="fill:#AFD7E9;" d="M28.79,78.75c0.3,0.04,3.17,0.19,3.32-3.7c0.15-3.89-2.26-4.17-2.91-4.11
		c-0.6,0.05-2.88,0.49-3.02,4.19c-0.11,3.09,2.3,3.58,2.6,3.62L28.79,78.75z"/>
	<path style="fill:#EBF8FF;" d="M27.83,72.4c-0.07,0.21,0.65,0.93,1.29,1.71s1.2,1.62,1.41,1.68c0.43,0.11,1.9-1.6,0.21-3.4
		C29.29,70.84,27.96,71.98,27.83,72.4L27.83,72.4z"/>
	<path style="fill:#82BAD2;" d="M28.3,75.84c0.5,0.56,2.15,2.57,2.15,2.57s-1.97,1.1-3.36-0.45c-1.51-1.69-0.72-4.24-0.72-4.24
		s1.32,1.45,1.92,2.13L28.3,75.84z"/>
	<path style="fill:#AFD7E9;" d="M27.98,58.85c-0.11,1.25,0.04,4.46,2.43,4.75c2.81,0.34,3.48-2.61,3.55-4.28s-0.4-4.24-2.39-4.38
		S28.2,56.35,27.98,58.85z"/>
	<path style="fill:#EBF8FF;" d="M30.04,56.21c-0.22,0.54,2.54,4.06,2.83,3.95s0.45-3.54-0.51-4.24
		C30.98,54.91,30.16,55.91,30.04,56.21z"/>
	<path style="fill:#82B9D1;" d="M29.75,60.3c0.76,1.05,2.31,3.05,2.31,3.05s-1.74,0.93-3.12-0.49c-1.66-1.72-0.81-5.01-0.81-5.01
		S29.75,60.3,29.75,60.3z"/>
</g>
<g>
	<path style="fill:#85E4FF;" d="M25.94,85.83l-9.02-4.63l-5.96-0.83c0,0-3.56-0.19-4.9-0.43c-2.16-0.38-2.13-2.31-1.39-3.22
		s2.81-2.15,9.35-1.82s14.32,3.15,19.2,3.48s10.05-0.32,13.41-2.57s7.12-8.19,11.67-10.92c4.55-2.73,8.94-3.56,10.26-1.32
		c1.32,2.23-3.56,7.7-3.56,7.7s8.86-4.97,11.34-1.24c2.48,3.72-3.61,5.26-3.28,6.34s6.76,1.83,10.31,1.03
		c7.7-1.74,8.61-8.69,13.41-11.92s9.6-0.83,13.57,0.66s8.16,0.3,8.88,1.91c0.29,0.64-0.26,2.23-1.22,3.49
		c-0.72,0.95-2.24,1.51-2.24,1.51l-11.96-0.87L90.82,83.85l-14.81,0.74l-16.22-3.81L38.93,86.9L25.94,85.83L25.94,85.83z"/>
	<path style="fill:#0FCAFF;" d="M10.96,80.36c0,0,3.97,0.83,5.88,2.07s7.67,6.51,16.8,7.03c12.91,0.74,21.38-6.59,26.98-5.79
		s16.1,4.83,24.42,3.64c12.17-1.74,13.98-11.64,19.04-13.32c2.73-0.91,4.8,0.25,7.37,0.25c4.06,0,6.26-2.36,6.26-2.36
		s-3.04,0.58-5.85-0.04c-2.22-0.49-3.62-1.76-7.61-1.66c-6.46,0.17-9.89,10.95-19.19,12.39c-6.87,1.06-17.64-1.14-17.97-2.3
		c-0.3-1.04,3.31-3.81,1.16-5.96c-2.4-2.4-6.79,1.99-6.79,1.99s2.39-4.7,0.08-6.12c-2.81-1.74-4.8,0.74-9.93,5.55
		s-13.82,9.02-19.7,8.86s-9.4-2.87-12.75-3.64c-5.71-1.32-8.19-0.58-8.19-0.58L10.96,80.36z"/>
</g>
</svg>
