<?xml version="1.0" encoding="utf-8"?>
<!-- Generator: Adobe Illustrator 26.3.1, SVG Export Plug-In . SVG Version: 6.00 Build 0)  -->
<svg version="1.1" id="a" xmlns="http://www.w3.org/2000/svg" xmlns:xlink="http://www.w3.org/1999/xlink" x="0px" y="0px"
	 viewBox="0 0 128 128" style="enable-background:new 0 0 128 128;" xml:space="preserve">
<path style="fill:#008C9A;" d="M12.71,58.9c0,0,8.4-27.87,39-39.95c27.57-10.89,49.49,1.56,49.49,2.97s-4.81,0.42-7.64,3.39
	s-3.25,6.22-2.55,7.64s3.82,4.38,6.93,9.05s4.38,9.62,5.66,10.04s6.65-4.24,9.19-6.65s6.5-7.78,7.92-7.49s0.99,9.33,0.99,9.33
	l-18.1,16.69l-73.55-8.85L12.7,58.91L12.71,58.9z"/>
<path style="fill:#797C00;" d="M94.89,69.81l6.35,7.41c0,0,1.94,0.16,5.64,3.97c3.7,3.82,10.4,11.68,11.79,11.56
	s3.83-4.25,3.83-13.61s-4.06-14.13-4.06-14.13s4.3-5.13,4.97-13.53c1.12-13.96-2.69-13.59-2.69-13.59l-3.63,13.76L94.9,69.81H94.89z
	"/>
<path style="fill:#A1A40A;" d="M56.96,99.42l-14.37,2.3c0,0,5.72,6.8,13.71,9.88c6.58,2.54,16.19,4.28,16.64,2.49
	c0.39-1.57-3.6-3.86-6.61-7.53c-1.48-1.8-3.14-5.17-3.14-5.17l-6.22-1.96L56.96,99.42z"/>
<path style="fill:#797C00;" d="M61.42,109.11c2.3-0.52,4.28-1.24,5.59-1.78c-0.23-0.25-0.45-0.51-0.67-0.78
	c-1.48-1.8-3.14-5.17-3.14-5.17l-6.22-1.96l-14.37,2.3c0,0,3.13,5.04,10.86,8.57c2.28-0.22,5.49-0.61,7.96-1.17L61.42,109.11z"/>
<path style="fill:#A1A40A;" d="M82.96,94.63l-10.35,6.75c0,0,5.06,2.84,10.61,3.67c7.07,1.05,14.59,0.46,14.87-0.92
	c0.39-1.96-4-3.34-7.01-6.16c-1.69-1.58-5.44-5.57-5.44-5.57l-2.69,2.23L82.96,94.63z"/>
<path style="fill:#797C00;" d="M86.5,101.05c2.37-1.73,3.8-3.54,3.94-3.7c-1.85-1.81-4.79-4.95-4.79-4.95l-2.69,2.23l-10.35,6.75
	c0,0,3.55,1.99,7.97,3.13c0.02-0.05,3.65-1.8,5.91-3.45L86.5,101.05z"/>
<path style="fill:#D5C60E;" d="M22.71,77.49l-8.93,5.44c0,0,18.15,20.56,38.26,21.26c19.08,0.66,31.22-4.89,39.9-14.03
	s9.3-12.93,9.3-12.93L83.89,51.05C83.89,51.05,22.71,77.49,22.71,77.49z"/>
<radialGradient id="SVGID_1_" cx="-1217.3855" cy="166.614" r="64.35" gradientTransform="matrix(0.1 -0.995 -2.6765 -0.269 628.4829 -1076.7441)" gradientUnits="userSpaceOnUse">
	<stop  offset="0.3" style="stop-color:#FFD61C"/>
	<stop  offset="0.34" style="stop-color:#EED429"/>
	<stop  offset="0.44" style="stop-color:#C2D04C"/>
	<stop  offset="0.57" style="stop-color:#7BCA86"/>
	<stop  offset="0.73" style="stop-color:#1AC2D3"/>
	<stop  offset="0.76" style="stop-color:#0AC1E1"/>
</radialGradient>
<path style="fill:url(#SVGID_1_);" d="M89.58,22.82c0.5,1.11-3,4.65-2.7,8.4s4.31,4.9,7.83,11.09c3.52,6.2,5.83,12.64,8.51,12.52
	s9.25-5.46,11.79-8.38c3.56-4.11,5.41-8.59,5.71-8.55s0.21,10.47-1.04,15.56c-1.99,8.14-6.06,9.97-5.7,11.54s4.8,6.03,5.27,13.2
	c0.41,6.32-1.2,10.32-1.73,10.46s-9.89-12.28-13.57-13.06c-2.02-0.43-2.71,1.61-2.71,1.61s-0.86-0.44-1.84-0.41
	s-1.84,0.52-2.69,1.43C91.93,83.38,76.27,95,56.83,95.32c-24.87,0.42-43.05-12.4-43.05-12.4s-1.45-1.66-2.37-2.57
	s-2.27-1.81-2.27-1.81l2.1-5.64l-5.18-4.64c0,0,2.37-1.24,4.05-4.15s9.09-26.03,41.03-38.59c22.4-8.81,37.93-3.82,38.43-2.71
	L89.58,22.82z"/>
<radialGradient id="SVGID_00000122679239083720783680000018375610405789307294_" cx="34.4275" cy="175.9668" r="22.76" gradientTransform="matrix(0.9997 -0.0239 -0.0335 -1.3996 17.5048 321.7096)" gradientUnits="userSpaceOnUse">
	<stop  offset="0.29" style="stop-color:#FFD61C"/>
	<stop  offset="0.42" style="stop-color:#FFDB3B"/>
	<stop  offset="0.6" style="stop-color:#FFE15C"/>
	<stop  offset="0.74" style="stop-color:#FFE571"/>
	<stop  offset="0.84" style="stop-color:#FFE779"/>
</radialGradient>
<path style="fill:url(#SVGID_00000122679239083720783680000018375610405789307294_);" d="M67.99,60.81c0,0-5.49-0.19-10.18,1.59
	c-5.53,2.1-8.17,5.21-8.17,5.21s-2.11,1.72-2.38,5.55s1.52,6.87,1.52,6.87s3.01,2.99,7.28,4.32c4.03,1.25,9.02,1.36,9.02,1.36
	s3.76-3.57,4.29-5.68s1.78-11.22,1.78-13.07s-1.19-4.23-1.19-4.23l-1.98-1.91L67.99,60.81z"/>
<path style="fill:#FFF0AD;" d="M67.74,85.42c1.16-0.41,3.69-3.94,4.48-12.79s-1-10.72-1.73-11.25s-2.5-0.57-2.5-0.57
	s1.32,7.14,0.4,12.95s-3.3,11.94-3.3,11.94S66.62,85.81,67.74,85.42z"/>
<path style="fill:#FFE779;" d="M51.35,72.99c-0.44,0-0.84-0.31-0.93-0.75c-0.11-0.52,0.22-1.02,0.73-1.14
	c0.21-0.05,5.29-1.14,8.4-1.53c3.11-0.4,7.48-0.86,7.48-0.86l0.2,1.9c0,0-4.35,0.46-7.44,0.86c-3.03,0.39-8.19,1.49-8.24,1.51
	c-0.07,0.01-0.14,0.02-0.2,0.02L51.35,72.99z"/>
<path style="fill:#FFE779;" d="M66.38,78.99c0,0-3.97-0.4-7.34-0.79c-3.37-0.4-8.13-0.99-8.13-0.99s-0.89-0.14-0.81-1.07
	c0.08-1.01,1.05-0.82,1.05-0.82s4.75,0.59,8.11,0.99c3.36,0.39,7.31,0.79,7.31,0.79L66.38,79L66.38,78.99z"/>
<path style="fill:#A1A40A;" d="M9.7,73.73c0,0-0.89,0.98-1.31,1.36s-1.3,0.75-1.36,1.5c-0.12,1.47,1.64,1.97,2.11,1.97
	s1.64-1.69,2.06-2.2s1.73-2.2,1.73-2.2L9.7,73.74L9.7,73.73z"/>
<path style="fill:#7A7D02;" d="M9.24,70.12c-1.4-0.81-2.44-2.16-3.33-2.2c-0.56-0.03-1.62,1.17-1.59,1.87
	c0.05,1.12,1.22,2.06,3.05,3.23c1.83,1.17,3.33,1.78,3.94,1.92s1.48,0.1,2.27-1.96c0.2-0.52-2.55-1.84-4.33-2.87L9.24,70.12z"/>
<path style="fill:#A2A409;" d="M41.65,59.09c-0.46,0.33-0.35,1.12,0,1.85c1.16,2.45,3.83,7.46,1.91,12.87
	c-1.99,5.63-5.83,7.79-7.59,9.24c-0.73,0.6-1.04,1.29-0.79,1.72c0.99,1.72,11.15-1.64,13.01-10.1
	C50.63,63.51,43.29,57.92,41.65,59.09z"/>
<path style="fill:#464C4F;" d="M28.55,58.21c-3.38,0.08-5.81,2.97-5.88,6.23c-0.06,2.85,2.15,6.11,6.52,6.05
	c3.79-0.05,5.94-3.14,5.82-6.23C34.9,61.41,33.21,58.09,28.55,58.21z"/>
<path style="fill:#B0B0B0;" d="M29.25,60.83c-1.35-1.27-2.85-0.29-3.61,0.64s-1.11,2.5,0.23,3.49c1.13,0.83,2.39,0.35,3.2-0.58
	c1.03-1.18,1.16-2.62,0.17-3.55L29.25,60.83z"/>
<radialGradient id="SVGID_00000034049428245043638800000003207174387025206412_" cx="-848.8752" cy="-56.6347" r="24.81" gradientTransform="matrix(0.4676 -0.8839 -1.432 -0.7575 363.2797 -757.0908)" gradientUnits="userSpaceOnUse">
	<stop  offset="0.36" style="stop-color:#FFFFFF;stop-opacity:0.8"/>
	<stop  offset="0.44" style="stop-color:#FFFFFF;stop-opacity:0.74"/>
	<stop  offset="0.59" style="stop-color:#FFFFFF;stop-opacity:0.59"/>
	<stop  offset="0.8" style="stop-color:#FFFFFF;stop-opacity:0.35"/>
	<stop  offset="1" style="stop-color:#FFFFFF;stop-opacity:0.1"/>
</radialGradient>
<path style="fill:url(#SVGID_00000034049428245043638800000003207174387025206412_);" d="M51.71,18.94
	c-1.15,0.45-2.26,0.94-3.35,1.43c-1.78,2.77-3.83,6.1-5.35,9.02c-3.33,6.4-8.93,18.53-6,20.4c2.7,1.72,5.47-3.33,12.53-14.13
	c4.79-7.32,12.09-15.8,16.29-20.51C61.36,15.8,56.62,16.99,51.71,18.94L51.71,18.94z"/>
<radialGradient id="SVGID_00000120556284973036680400000000492743661442288276_" cx="69.46" cy="91.98" r="30.23" gradientTransform="matrix(1 0 0 -1 0 130)" gradientUnits="userSpaceOnUse">
	<stop  offset="0.3" style="stop-color:#FFFFFF;stop-opacity:0.8"/>
	<stop  offset="0.91" style="stop-color:#FFFFFF;stop-opacity:0.1"/>
</radialGradient>
<path style="fill:url(#SVGID_00000120556284973036680400000000492743661442288276_);" d="M79.25,14.71
	c-3.19,3.33-9.08,10.21-15.03,20.95c-8.8,15.87-6.8,18.93-5.47,19.2c3.64,0.73,13.47-14.4,19.33-22.93
	c3.34-4.85,7.49-11.16,10.45-15.71C85.79,15.54,82.67,14.99,79.25,14.71z"/>
<radialGradient id="SVGID_00000155130178568082209930000002523583353647096972_" cx="-583.3282" cy="232.892" r="21.51" gradientTransform="matrix(0.652 -0.7582 -2.3127 -1.9885 1007.357 68.9782)" gradientUnits="userSpaceOnUse">
	<stop  offset="0.16" style="stop-color:#FFFFFF;stop-opacity:0.8"/>
	<stop  offset="0.19" style="stop-color:#FFFFFF;stop-opacity:0.76"/>
	<stop  offset="0.39" style="stop-color:#FFFFFF;stop-opacity:0.53"/>
	<stop  offset="0.57" style="stop-color:#FFFFFF;stop-opacity:0.34"/>
	<stop  offset="0.73" style="stop-color:#FFFFFF;stop-opacity:0.21"/>
	<stop  offset="0.86" style="stop-color:#FFFFFF;stop-opacity:0.13"/>
	<stop  offset="0.94" style="stop-color:#FFFFFF;stop-opacity:0.1"/>
</radialGradient>
<path style="fill:url(#SVGID_00000155130178568082209930000002523583353647096972_);" d="M97.95,41.99
	c-2.18-3.27-4.34-5.69-5.69-7.34c-4.23,5.13-18.53,22.94-15.11,25.68c3.04,2.43,15.28-11.26,21.01-18.01
	C98.09,42.21,98.02,42.1,97.95,41.99z"/>
</svg>
