<?xml version="1.0" encoding="utf-8"?>
<!-- Generator: Adobe Illustrator 26.3.1, SVG Export Plug-In . SVG Version: 6.00 Build 0)  -->
<svg version="1.1" id="a" xmlns="http://www.w3.org/2000/svg" xmlns:xlink="http://www.w3.org/1999/xlink" x="0px" y="0px"
	 viewBox="0 0 128 128" style="enable-background:new 0 0 128 128;" xml:space="preserve">
<path style="fill:#9CECAC;" d="M44.74,107.31c0,0-0.46,2.87-1.62,4.34s-2.41,2.18-2.33,3.57s1.7,2.72,4.5,2.49s4.73-1.62,4.73-1.62
	s-0.47,4.31,2.1,4.73c2.87,0.46,5.9-3.57,5.9-3.57s1.62,6.75,5.27,6.75c3.65,0,4.73-6.52,4.73-6.52s3.41,3.88,6.44,3.26
	s2.18-4.27,2.18-4.27s2.72,1.78,5.59,1.55c2.87-0.23,4.19-1.16,4.27-2.25s-1.62-2.02-2.49-3.65c-0.95-1.81-1.87-4.96-1.87-4.96
	l-19.24,2.18l-18.15-2.02L44.74,107.31L44.74,107.31z"/>
<path style="fill:#63C776;" d="M102.62,44.01c0,0,4.34-3.96,6.52-3.72s5.21,3.97,5.82,10.78c0.77,8.76-5.12,11.94-3.65,13.58
	c1.47,1.63,5.43-1.55,7.76,0.31c2.33,1.87-0.23,7.45-4.96,11.4c-4.73,3.96-14.58,8.22-18.46,10.09c-1.91,0.91-7.76,5.04-7.76,5.04
	S102.62,44.01,102.62,44.01z"/>
<path style="fill:#63C776;" d="M39.2,91.44c0,0-5.01-3.19-8.66-5.19s-9.98-3.19-15.04-7.2c-5.28-4.19-8.48-11.21-7.11-12.95
	s8.11,1.45,8.57-0.45c0.45-1.92-4.18-6.89-4.83-11.12c-0.82-5.37,1.09-12.86,4.01-14.04s11.21,4.83,11.21,4.83L39.2,91.46V91.44z"/>
<path style="fill:#73DC86;" d="M60.65,26.24c0,0-0.29-2.65-0.32-5.02c-0.03-1.98,0.47-4.59-0.94-5.48s-5.69,0.1-8.61,2.35
	c-2.39,1.83-5.01,4.83-5.01,4.83l3.33,9.47l11.57-6.16C60.66,26.23,60.65,26.24,60.65,26.24z"/>
<path style="fill:#73DC86;" d="M65.74,26.33c0,0,0.47-1.95,0.49-5.38c0.02-2.85-0.67-4.58,1.03-5.34s6.33,1.12,9.52,3.87
	s4.01,5.1,4.01,5.1l-3.3,8.78C77.5,33.36,65.74,26.33,65.74,26.33z"/>
<polygon style="fill:#AF0C1A;" points="46.25,78.45 40.34,76.94 36.85,81.18 48.44,107.76 79.63,106.92 91.29,77.16 "/>
<path style="fill:#F9F9FC;" d="M47.38,101.55c0,0,1.43-5.53,2.88-5.61c1.67-0.09,2.5,3.71,3.56,3.94s3.86-1.43,9.69-1.36
	c6.21,0.08,9.17,2.05,9.92,1.9s1.13-3.71,3.11-4.62c1.65-0.76,3.41,6.29,3.41,6.29l-0.6,7.19l-31.27-0.68l-0.68-7.04
	C47.39,101.55,47.38,101.55,47.38,101.55z"/>
<path style="fill:#F9F9FC;" d="M68.43,87.31c0,0,1.36,7.87,3.86,8.02c1.21,0.08,2.41-2.14,3.11-4.39c0.78-2.52,0.91-5.14,0.91-5.14
	l-7.87,1.51L68.43,87.31z"/>
<path style="fill:#F9F9FC;" d="M54.04,85.34c0,0-3.15-1.62-3.41-0.83c-0.45,1.36,1.06,9.17,3.63,10.3c1,0.44,2.33-1.65,3.11-3.71
	c0.63-1.65,0.83-3.33,0.83-3.33S54.04,85.34,54.04,85.34z"/>
<path style="fill:#06AA46;" d="M105.77,56.06l-3.81-6.28l-1.81-3.15l5.36-21.91c0,0-1.32-1.02-4.33,0.52
	c-1.29,0.66-5.04,2.16-7.06,3.68c-2.77,2.09-4.94,4.22-4.94,4.22l-12.85-1.62c0,0-4.43-6.52-13.4-6.18
	c-8.95,0.34-13.07,6.33-13.07,6.33l-17.72-3.97c0,0-5.84-5.13-9.79-4.84c-1,0.07-1.37,0.75-1.53,1.16
	c-0.36,0.91,4.45,14.19,4.45,14.19l6.54,5.45l-5.46,0.94l-0.99,4.55l-0.26,1.05l-3.06,8.94l2.83,15.96l7.54,7.34
	c0,0,3.64,4.38,5.73,8.22c2.09,3.84,3.18,5.68,3.91,7.95c1.2,3.74,1.76,7.64,2.02,9.43c0.46,3.28,3.14,7.59,9.2,8.73
	c6.07,1.14,15.88,0.44,19.79-0.09c3.91-0.54,7.34-2.6,8.73-6.23c1.4-3.65,1.54-8.67,4.78-15c3.23-6.33,9.92-14.68,9.92-14.68
	l9.82-11.19l-0.54-13.54V56.06L105.77,56.06z M85.32,87.39c-2.05,3.41-5.48,8.76-6.01,12.39c-0.34,2.36,0.14,4.73-2.32,6.16
	c-4.31,2.5-8.4-0.98-13.71-1.06c-5.99-0.09-9.74,2.44-12.56,0.83c-3.33-1.9-2.28-3.41-2.88-6.14S44.52,91.55,43,88.89
	c-1.51-2.65-5.5-9.03-2.95-9.85c3.28-1.04,5.66,1.16,7.49,3.05c1.68,1.73,4.12,6.06,9.88,6.06c4.56,0,5.35-3.97,6.42-3.97
	c1.06,0,2.03,4.4,6.73,4.02c4.69-0.38,6.57-1.8,9.54-6.14c2.58-3.75,5.83-4.46,7.8-3.11c1.58,1.1-0.53,4.99-2.58,8.4
	C85.33,87.36,85.32,87.39,85.32,87.39z"/>
<path style="fill:#2E5128;" d="M25.1,50.22c0,0-8.1,3.57-7.09,15.58c0.93,11.11,13.75,17.58,14.13,17.08
	c0.49-0.66-7.34-10.18-8.05-19.59C23.48,55.14,25.1,50.22,25.1,50.22z"/>
<path style="fill:#FDB20D;" d="M49.63,35.54c0,0,2.21-3.27,0.3-8.2s-7.14-7.22-8.96-11.55S39.14,4,35.49,4s-7.03,7.25-5.86,15.73
	c1.29,9.28,6.01,14.44,6.01,14.44l11.7,5.63l2.28-4.25C49.62,35.55,49.63,35.54,49.63,35.54z"/>
<path style="fill:#FDB20D;" d="M75.2,32.8c0,0-0.95-1.85,0.67-5.21s5.36-4.24,7.72-8.09c2.77-4.51,3.28-8.5,3.73-11.12
	s1.6-3.94,3.62-4.33c2.26-0.44,3.97,2.73,4.73,6.33c0.75,3.61,0.72,9.76-0.2,14.02c-1.18,5.48-4.94,9.77-4.94,9.77l-10.54,4.51
	l-4.77-5.88C75.22,32.79,75.2,32.8,75.2,32.8z"/>
<path style="fill:#2E5128;" d="M52.39,41.05l4.03,10.52c0,0,0.74,2.21,0.2,5.25c-0.75,4.3-3.36,4.86-3.36,4.86l-3.95,3.53
	c0,0-2.19,2.94-6.56,2.19s-7.77-3.86-9.63-10.99c-2.05-7.85-5.81-10.52-5.81-10.52s-0.54,0.75-0.95,1.29s-1.01,1.98-1.01,1.98
	s-3.31-4.63-4.38-12.14c-0.95-6.67-0.41-12.63-0.07-13.11s1.17,0.06,1.44,0.43c0.83,1.11,2.61,4.3,3.65,6.98
	c1.32,3.4,2.39,7.01,2.39,7.01l12.24,0.67l11.74,2.05C52.37,41.05,52.39,41.05,52.39,41.05z"/>
<path style="fill:#2E5128;" d="M100.13,32.82c2.46-4.98,4.76-8.09,5.37-8.09s1.22,1.37,1.29,2.4c0.07,1.02-0.31,8.05-1.26,11.6
	c-0.95,3.55-3.35,10.2-3.97,10.41c-0.42-0.65-0.93-1.55-1.54-2.43c-0.48-0.67-1.44-1.68-1.44-1.68s-2.8,2.72-3.99,5.97
	c-1.43,3.89-1.9,10.96-6.84,14.3c-3.72,2.52-8.26,2.19-11.33-0.34s-3.48-3.96-3.48-3.96s-3.14-0.21-3.28-5.81
	c-0.08-3.47,1.92-6.76,1.92-6.76l7.17-8.53l12.63,0.07l3.77,0.09c0,0,2.53-2.24,4.98-7.22C100.13,32.83,100.13,32.82,100.13,32.82z"
	/>
<path style="fill:#728035;" d="M59.04,46.95c0,0-1.13-8.42-6.75-13.32s-8.58-4.16-9.62-3.28c-0.77,0.65-0.56,2.24-0.71,2.09
	c-0.71-0.65-5.95-4.3-8.36-1.31c-1.25,1.55-0.3,3.82-0.3,3.82s-7.11-0.3-7.52,4.06c-0.31,3.27,3.94,3.7,3.94,3.7l3.23-2.63
	l15.76-0.12C48.71,39.96,59.04,46.95,59.04,46.95z"/>
<path style="fill:#728035;" d="M67.46,48.98c-0.36-2.51-0.18-9.08,4.12-13.92c4.35-4.89,6.79-4.2,7.7-3.76
	c1.49,0.71,1.49,2.61,1.73,2.67s3.57-6.7,8.13-5.19c2.21,0.73,0.43,4.97,1.08,5.01c0.84,0.05,4.19-3.68,7.14-2.14
	c2.42,1.27,0.33,6.07,0.33,6.07l-16.26,1.51l-13.97,9.75H67.46L67.46,48.98z"/>
<path style="fill:#9CECAC;" d="M91.4,51.44c0.17,1.1-0.49,9.62-5.58,12.68c-3.58,2.16-10.36,2.88-12.97-2.79
	c-2.79-6.07,0.59-13.5,6.28-15.48c8.99-3.14,12.06,4.18,12.27,5.58C91.41,51.43,91.4,51.44,91.4,51.44z"/>
<path style="fill:#9CECAC;" d="M34.37,51.44c-0.17,1.1,0.7,8.99,5.86,12.61c3.43,2.41,10.43,3.3,13.04-2.37
	c2.79-6.07-0.52-14.05-6.21-16.03C38.06,42.52,34.57,50.05,34.37,51.44z"/>
<path style="fill:#5EDF70;" d="M45.39,71.45c0,0,2.03-7.81,8.99-7.67s7.11,3.35,9.49,3.35c2.38,0,4.13-3.77,9.42-3.35
	c6.97,0.56,8.02,8.22,8.02,8.22l-17.92,4.46L45.4,71.44C45.4,71.44,45.39,71.45,45.39,71.45z"/>
<path style="fill:#BCCE45;" d="M63.79,72.94c-0.66,0-4.1-5.81-9.92-5.97c-5.58-0.15-7.96,3.98-7.96,3.98s-8.31-1.11-12.45,6.23
	c-5.07,8.99,0.2,17.38,1.69,23.43c2.12,8.54-3.38,11.85-8.71,11.97c-5.15,0.12-8.09-3.27-8.52-6.6c-0.49-3.76,2.23-7.44,8.58-5.81
	c1.72,0.44,1.95-0.89,0.89-2.1c-2.56-2.94-13.41-3.03-13.18,7.62c0.11,5.34,3.4,8.86,8.26,10.23c4.85,1.36,11.05,0.54,14.97-4.52
	c3.24-4.17,2.18-9.55,0.88-13.86c-1.76-5.88-4.71-11.33-1.64-17.68c2.7-5.58,9.21-4.07,9.21-4.07s3.53,6.96,8.55,8.53
	c6.28,1.97,9.19-1.71,9.19-1.71s2.92,3.76,9.52,1.65c5.34-1.7,8.16-8.82,8.16-8.82s7.66-0.77,10.51,4.83
	c4.54,8.96-6.19,17.02-3.94,28.39c1.39,7.04,9.42,10.2,15.72,8.57c6.37-1.63,10.65-8.31,8.41-14.86
	c-2.62-7.66-10.65-5.28-12.21-2.28c-0.95,1.83,0.43,2.34,1.35,1.59s7.34-3.57,8.04,3.5c0.31,3.07-2.59,7.71-6.76,8.78
	c-4.62,1.18-10.32-2.05-10.8-6.49c-0.99-9.29,5.71-14.33,5.21-22.49c-0.97-16.18-15.84-13.92-15.84-13.92s-2.58-4.07-8.22-3.82
	c-5.66,0.25-8.17,5.67-8.99,5.66L63.79,72.94L63.79,72.94z"/>
<path style="fill:#272C34;" d="M43.21,48.95c-2.11,1.99-2.6,6.06-1.42,9.93c0.85,2.8,3.04,4.57,4.93,2.87
	c1.89-1.7,2.4-6.91,1.45-10.3C47.36,48.62,45.1,47.17,43.21,48.95z"/>
<path style="fill:#272C34;" d="M79.45,48.95c-2.11,1.99-2.6,6.06-1.42,9.93c0.85,2.8,3.04,4.57,4.93,2.87
	c1.89-1.7,2.4-6.91,1.45-10.3C83.6,48.62,81.34,47.17,79.45,48.95z"/>
<path style="fill:#2F502A;" d="M69.71,80.07c2.26,0.96,2.74-1.44,4.87-3.75c2.77-2.98,4.1-4.78,1.83-5.95s-5.14,0.21-6.81,3
	C68.51,75.21,68.17,79.41,69.71,80.07z"/>
<path style="fill:#2F502A;" d="M50.26,70.63c-0.97,2.04,0.91,2.84,3.06,5.36s2.52,4,4.23,3.7c1.83-0.32,2.2-5.2-0.43-8.2
	C54.78,68.83,50.85,69.41,50.26,70.63z"/>
<path style="fill:#BDCD43;" d="M44.77,41.63c4.78,0.99,8.83,4.71,9.85,7.28c0.66,1.66,1.25,3.11,2.87,2.99
	c2.16-0.16,1.79-3.88,1.55-4.95s-2.91-7.04-6.33-10.15c-3.34-3.05-6.89-4.88-8.12-4.12c-1.23,0.76-0.6,2.33-0.95,2.63
	s-5.98-4.71-8.12-2.57c-1.73,1.73,1.55,4.65,1.25,5.07s-6.75-2.33-8.77,0.95c-1.29,2.09,1.73,3.94,1.73,3.94
	S35.81,39.78,44.77,41.63z"/>
<path style="fill:#BDCD43;" d="M68.77,51.42c-1.55-0.29-2.31-4.17,0.65-10.45c2.57-5.43,6.34-6.7,7.52-6.57
	c3.23,0.36,2.21,3.34,3.82,2.93c2.5-0.65,3.33-6.45,6.33-5.74c2.49,0.59-0.15,4.74,1.19,5.25c0.99,0.38,2.25-1.13,3.58-2.03
	c1.68-1.13,3.54-1.83,5.37-1.19c3.07,1.06-1.25,7.58-1.92,7.7s-8-1.92-14.15,0.18c-5.59,1.9-7.76,5.19-9.14,7.05
	c-0.91,1.22-1.07,3.28-3.28,2.87C68.76,51.43,68.77,51.42,68.77,51.42z"/>
<path style="fill:#2E5128;" d="M101.87,49.64c0,0,2.41,5.27,1.72,13.2c-0.3,3.54-1.12,6.92-2.33,9.56c-2.03,4.46-4.78,8.4-4.78,8.4
	s12.85-5.32,13.11-18.16c0.2-10.04-7.73-13-7.73-13S101.87,49.64,101.87,49.64z"/>
</svg>
