<?xml version="1.0" encoding="utf-8"?>
<!-- Generator: Adobe Illustrator 26.3.1, SVG Export Plug-In . SVG Version: 6.00 Build 0)  -->
<svg version="1.1" id="a" xmlns="http://www.w3.org/2000/svg" xmlns:xlink="http://www.w3.org/1999/xlink" x="0px" y="0px"
	 viewBox="0 0 128 128" style="enable-background:new 0 0 128 128;" xml:space="preserve">
<path style="fill:#232020;" d="M97.99,107.39c0,0,8.58-18.31,8.3-52.93C106,19.84,87.12,5.24,66.23,4.1s-46.78,13.38-45.5,56.37
	c0.72,24.02,5.58,40.95,9.64,51c14.25,0.24,34.46,0.24,34.46,0.24S97.99,107.39,97.99,107.39z"/>
<path style="fill:#70534A;" d="M72.12,24.26c-0.56,0-6.92,7.84-18.36,13.69c-12.96,6.63-19.64,7.27-19.64,7.27
	s-2.13,12.16,1.1,25.86c2.34,9.91,10.88,25.16,29.63,25.36c20.26,0.21,27.16-16.96,28.84-26.3c2.12-11.78,0.46-26.67,0.46-26.67
	s-8.29-3.85-13.49-9.28C75.46,28.75,72.12,24.26,72.12,24.26z"/>
<path style="fill:#4A2F27;" d="M64.66,68.6c-3.11,0.06-4.27-0.99-5.37,0.12c-1.01,1.02-0.11,2.48,1.57,3.78
	c2.28,1.77,5.8,1.71,7.62,0.07c1.81-1.62,2.59-2.98,1.42-3.98c-1.16-0.99-2.07-0.06-5.24,0l0,0V68.6z"/>
<path style="fill:#1A1717;" d="M39.61,49.33c0.81,1.31,3.54-0.75,7.89-0.87c3.56-0.1,6.66,2.43,7.4,0.12
	c0.87-2.73-2.05-3.92-7.33-3.67C42.17,45.16,38.53,47.57,39.61,49.33L39.61,49.33L39.61,49.33z"/>
<path style="fill:#1A1717;" d="M73.85,49.17c1.8,0.5,3.17-0.81,6.84-0.56c3.42,0.23,6.78,1.74,7.77,0.62s-1.56-3.8-7.21-4.35
	c-5.1-0.5-8.2,0.87-8.58,1.99S73.11,48.97,73.85,49.17z"/>
<path style="fill:#1A1717;" d="M47.44,53.06c-4.16-0.06-5.78,3.54-5.53,6.09s2.18,4.97,5.84,4.91s5.41-2.36,5.41-5.41
	S51.3,53.11,47.44,53.06z"/>
<path style="fill:#1A1717;" d="M80.8,52.94c-3.11-0.33-5.97,1.86-5.84,5.59C75.1,62.69,78.75,64,80.74,64
	c2.86,0,5.17-2.11,5.22-5.16C86.02,55.42,84.28,53.31,80.8,52.94z"/>
<path style="fill:#583EE2;" d="M9.65,123c-0.81-1.67,3.41-15.32,12.12-19.35s31.72-5.07,31.72-5.07s2.61,8.85,13.16,8.33
	c10.56-0.51,11.9-8.82,11.9-8.82s23.06,2.3,29.41,5.05c10.66,4.6,11.17,16.78,10.09,19.05c-0.77,1.62-28.26,1.28-55.38,1.57
	S9.64,123,9.64,123H9.65L9.65,123z"/>
<g>
	<path style="fill:#E0E0E0;" d="M69.47,92.9l-58.33,5.03c0,0-3.04-14.82,0.4-19.05s9.26-3.44,15.87-3.7
		c2.99-0.12,74.69-0.35,77.52-0.13c5.16,0.4,9.29-0.18,10.98,5.03c1.4,4.3-1.32,15.34-1.32,15.34l-45.11-2.51l0,0L69.47,92.9z"/>
	<path style="fill:#B0B0B0;" d="M15.77,123.59c-0.89-0.28-4.63-23.55-5.16-28.97s1.46-12.83,7.28-13.1
		c5.82-0.26,84.79-0.26,89.29-0.13c4.5,0.13,8.86,4.37,7.67,11.91s-4.91,29.96-5.82,30.16C106.88,123.93,17.89,124.25,15.77,123.59z
		"/>
</g>
<g>
	<path style="fill:#858585;" d="M64.97,100.87c-6.93-0.01-9.8,4.9-10.1,9.16c-0.42,5.92,2.82,7.68,9.93,7.68s10.17-1.2,9.65-7.99
		C74.09,105.04,70.82,100.88,64.97,100.87z"/>
	<path style="fill:#B0B0B0;" d="M68.22,109.25c1.04-0.03,1.7-0.84,1.73-2.03c-0.01-1.17-0.9-1.88-1.86-1.86s-1.58,0.93-1.6,2.01
		S67.28,109.29,68.22,109.25z"/>
	<path style="fill:#B0B0B0;" d="M61.49,109.17c0.92-0.16,1.57-0.89,1.33-2.31c-0.32-1.34-1.21-1.84-2.28-1.54s-1.24,1.7-1.03,2.52
		C59.76,108.81,60.58,109.32,61.49,109.17z"/>
	<path style="fill:#B0B0B0;" d="M59.26,111.76c-0.53,0.83,1.93,3.06,5.78,3.02c4.33-0.04,6.13-2.71,5.12-3.46
		c-1.4-1.03-1.44,0.96-5.21,1.01S60.28,110.14,59.26,111.76z"/>
</g>
</svg>
