<?xml version="1.0" encoding="utf-8"?>
<!-- Generator: Adobe Illustrator 26.3.1, SVG Export Plug-In . SVG Version: 6.00 Build 0)  -->
<svg version="1.1" id="a" xmlns="http://www.w3.org/2000/svg" xmlns:xlink="http://www.w3.org/1999/xlink" x="0px" y="0px"
	 viewBox="0 0 128 128" style="enable-background:new 0 0 128 128;" xml:space="preserve">
<path style="fill:#3C2C23;" d="M65.58,47.86l-20.67-1.08c0,0-7.81-12.81-6.9-23.64c0.72-8.61,6.17-14.29,15.58-17.34
	c10.06-3.26,19.56-2.3,23.69,3.9c5.96,8.93,7.07,25.11,7.07,25.11L65.58,47.85V47.86z"/>
<g>
	<path style="fill:#875334;" d="M83.01,42.93c0,0,4.45-1.66,3.95-6.98c-0.64-6.96-5.06-5.62-5.06-5.62L83.01,42.93z"/>
	<path style="fill:#875334;" d="M41.79,46.27c1.34,4.71,6.87,4.73,6.87,4.73l-1.54-9.95l-2.33-1.15
		C44.79,39.9,40.13,40.48,41.79,46.27L41.79,46.27z"/>
</g>
<path style="fill:#C7C7C7;" d="M34.58,105.56l-0.25,5.81c0,0-0.41,3.71,2.86,6.99c5.22,5.22,16.9,4.74,16.9,4.74l12.66-8.11
	l-4.21-8.5l-6.9-5.89L34.58,105.56L34.58,105.56z"/>
<path style="fill:#00BDA3;" d="M98.65,104.17l13.03-0.41c0,0-1.95-16.99-8.28-27.82c-7.01-12-16.06-15.85-16.06-15.85l-21.91,13.3
	l13.14,33.35l20.08-2.56L98.65,104.17z"/>
<path style="fill:#06927F;" d="M17.8,98.59c0,0,6.44-14.88,16.67-25.59C45.7,61.26,54.86,57.02,54.86,57.02l23.38,0.21
	c0,0,2.43,0.63,4.76,1.27c2.33,0.63,4.33,1.59,4.33,1.59s-1.37,3.7-4.97,7.29c-3.59,3.59-8.88,5.18-8.88,5.18L17.79,98.6L17.8,98.59
	z"/>
<polygon style="fill:#007A71;" points="36.86,102.4 81.5,89.35 74.08,70.82 47.52,74.66 37.96,98.91 "/>
<path style="fill:#875334;" d="M59.91,59.15l0.64,8.61c0,0,2.6,2.74,9.44,1.76c6.72-0.96,8.2-3.91,8.32-4.48s-0.32-10.72-0.32-10.72
	L59.91,59.15L59.91,59.15z"/>
<path style="fill:#A56C43;" d="M51.35,54.73c4.07,4.96,11.84,7.86,19.5,6.24c8.22-1.73,13.06-9.23,13.36-18.27
	c0.06-1.88-0.18-3.91-0.63-5.96c-3.28-6.95-7.16-16.71-8.13-17.07c-1.53-0.57-29.87,7.7-31.12,10.04
	c-0.53,0.99,2.56,11.33,1.97,16.37c0.33,0.67,1.8,4.69,5.03,8.64L51.35,54.73z"/>
<path style="fill:#875334;" d="M63.05,46.95c0.31,1.17,3.32,2.08,4.69,1.74c1.94-0.47,3.52-3.12,2.75-3.82
	c-0.95-0.86-2.79,1.06-3.39,1.14c-1.21,0.17-4.43-0.47-4.06,0.94H63.05z"/>
<path style="fill:#473530;" d="M62.78,53.08c0.42,1.15,3.65,1.51,5.9,1.17s6.24-3.25,4.93-4.32c-1.14-0.93-2.95,1.01-5,1.44
	c-1.03,0.22-2.4,0.35-3.62,0.47c-0.65,0.07-1.31,0-1.74,0.23C62.88,52.27,62.65,52.71,62.78,53.08z"/>
<path style="fill:#FFFDE7;" d="M75.98,68.3c0,0-1.26-6.24-7.06-9.39S57.58,53.3,57.07,53.3s-5.48,0.82-8.25,6.68
	s-0.88,10.96-0.63,11.66S60.67,78,65.2,78.82s7.44-2.14,7.44-2.14L75.98,68.3z"/>
<path style="fill:#4396A9;" d="M70.74,70.96c-2.58,4.03-2.2,7.82-2.2,7.82s1.59-0.21,2.72-0.97s5.18-8.08,4.95-8.93
	s-0.61-1.9-0.61-1.9s-2.73,0.66-4.86,3.97V70.96z"/>
<path style="fill:#6DCBE0;" d="M70.31,78.3c0,0-0.32-2.79,1.71-6.07s4.02-3.87,4.02-3.87s2.49,0.12,4.05,1.52
	c2.06,1.85,2.01,3.48,2.01,3.48l-4.73,8.11c0,0-1.86,0.9-4.51-0.61C70.99,79.8,70.31,78.31,70.31,78.3L70.31,78.3z"/>
<path style="fill:#50AFC4;" d="M80.3,73.72c0,0-1.85-1.61-2.83-2.25s-2.54-1.57-3.07-0.73s1.15,1.52,2.59,2.58s2.5,2.02,2.5,2.02
	l0.8-1.62L80.3,73.72z"/>
<path style="fill:#50AFC4;" d="M78.06,77.59c0,0-1.89-0.57-3.02-1.13c-1.13-0.57-2.46-1.83-3.15-1.01s1.01,2.08,2.39,2.84
	s3.78,1.07,3.78,1.07V77.59L78.06,77.59z"/>
<path style="fill:#D9F2D1;" d="M51.22,64.09c0,0,0.31-2.48,1.51-3.93s2.01-2.01,2.01-2.01l8.19,2.9l-0.76,1.89
	c0,0-4.6-0.88-6.36-0.69s-4.59,1.85-4.59,1.85L51.22,64.09z"/>
<path style="fill:#FFEBB1;" d="M72.64,65.84c0,0-2.21-3.4-5.67-5.36s-8.19-4.1-9.14-4.1s-3.09,1.76-3.09,1.76s1.02,1.05,3.28,2.08
	c2.57,1.17,4.03,1.45,4.16,1.64c0.28,0.42,0,1.07,0,1.07s3.91,1.01,5.36,1.45c1.45,0.44,4.98,1.64,5.1,1.45V65.84z"/>
<path style="fill:#FDFEFA;" d="M77.18,84.31c0,0-0.15-3.15-0.07-3.87c0.49-4.14,1.83-7.3,6.45-9.98c4.93-2.85,10.58-2.33,14.08-0.37
	c3.6,2.01,5.33,4.91,5.33,4.91L84.14,93.77l-6.95-9.46L77.18,84.31z"/>
<path style="fill:#DFD7C5;" d="M77.09,80.69c0,0,1.57,3.18,4.44,4.1c1.89,0.61,2.63,0.11,2.63,0.11l0.6,10.24L79.45,90l-2.27-5.68
	c0,0-0.1-0.56-0.13-0.79C76.99,83.05,77.09,80.7,77.09,80.69L77.09,80.69z"/>
<path style="fill:#C6E1A5;" d="M84.94,91.03c0,0-3.99-8.87,0.7-15.28c4.67-6.39,13.4-4.08,13.4-4.08c1.94,0.37,6.68,3.07,7.28,8.39
	c0.54,4.8-3.65,11.68-3.65,11.68l-17.73-0.72V91.03z"/>
<path style="fill:#A1C07D;" d="M83.44,84.95c0,0,5.51,7.12,14.85,5.22c9.62-1.95,7.49-11.99,7.49-11.99s5.92,9.71-2.14,16.5
	c-1.64,1.38-14,12.17-14,12.17s-3.67-8.61-4.49-10.94c-1.92-5.41-1.72-10.96-1.72-10.96H83.44z"/>
<path style="fill:#E0E0E0;" d="M40.22,98.82c0,0,3.03-3.2,5.56-4.88c2.53-1.68,12.55-5.73,15.24-6.57s9.45-3.42,9.45-3.42
	l1.33,12.77l-7.3,8.83l-7.78-2.18c0,0-0.84,0.76-0.25,2.61s2.36,3.2,2.36,3.2l-9.84,1.19c0,0-3.71-0.1-7.25-0.18
	s-7.24-0.93-7.24-0.93L40.22,98.82L40.22,98.82z"/>
<path style="fill:#9A9A9A;" d="M70.47,83.95c0,0,2.21-0.67,3.74-0.8s2.82-0.12,2.82-0.12s2.02,5.27,6.25,9.75s9.14,8.09,9.14,8.09
	l-11.4,11.4l-17.97-4.91c0,0,0.91-7.68,3.56-14.35C69.43,85.9,70.47,83.94,70.47,83.95L70.47,83.95z"/>
<path style="fill:#C7C7C7;" d="M72.8,99.4l-5.46,6.93l8.83,2.27l14.47-5.83l-1.23-0.67c0,0-3.62-3.19-5.89-5.33
	c-2.27-2.15-3.8-4.72-3.8-4.72l-6.93,7.36L72.8,99.4z"/>
<path style="fill:#E0E0E0;" d="M66.32,105.55c0,0,1.94-8.42,3.6-12.9c1.66-4.48,3.56-9.5,4.23-9.32s5.58,8.71,5.58,8.71
	s-1.47,4.91-4.23,7.79c-2.76,2.88-7.73,5.95-7.73,5.95S66.32,105.55,66.32,105.55z"/>
<path style="fill:#63351E;" d="M58.06,102.33c0,0-1.07,0.61-0.72,1.79s1.64,2.3,2.61,2.86s2.1,1.12,1.48,1.59s-12.4,1.82-12.4,1.82
	s-0.74,1.92,1.51,2.38s6.7,0.87,6.7,0.87s3.38,0.13,3.32,0.74s-10.19,0.07-10.19,0.07s-2.39,0.29-2.39,1.63
	c0,0.98,1.27,1.49,1.27,1.49s-1.05,0.73-0.34,1.74c0.93,1.34,3.68,1.53,3.68,1.53s-0.86,0.31-0.29,1.33s3.36,1.69,10.01,1.84
	c8.07,0.18,11.74-1.66,11.74-1.66l2.91-6.92l-12.45-9.89l-6.44-3.22L58.06,102.33z"/>
<path style="fill:#A56C43;" d="M73.78,107.35c0,0-1.09-0.31-5.02-1.52c-3.79-1.17-5.7-1.86-7.56-2.71
	c-1.39-0.63-2.76-1.18-3.13-0.81c-0.42,0.42,0.42,1.89,1.77,2.81c1.35,0.92,4.1,2.2,3.92,2.99s-4.73,0.96-7.54,1.16
	c-2.8,0.2-6.82,0.24-7.23,1.11s1.44,1.12,2.37,1.24c1.29,0.17,6.34,0.71,7.65,0.76c2.58,0.1,3.46,0.31,3.48,0.91
	c0.03,0.88-8.67,0.93-10.34,0.98c-1.25,0.04-3.05,0.07-3.32,0.72c-0.46,1.09,4.13,1.38,6.58,1.39c1.37,0,6.07-0.12,6.1,0.68
	c0.03,0.73-5.23,0.8-6.48,0.8c-1.49,0-5.47-0.25-5.47-0.25s-0.17,0.76,0.65,1.23c0.88,0.51,3.25,0.8,5.15,0.8
	c2.41,0,6.42-0.29,6.46,0.41c0.05,0.75-3.23,0.9-4.18,0.86c-0.84-0.03-3.88-0.11-4.39-0.04c-0.44,1.45,4.9,1.87,8.27,1.85
	c8.46-0.05,15.49-4.51,15.49-4.51l1.43-6.59l-4.65-4.27L73.78,107.35z"/>
<path style="fill:#06927F;" d="M35.62,86.4l-18.18,24.2c0,0,1.64,5.35,8.49,5.35s9.81-6.05,12.09-10.84s8.12-17.4,8.46-18.42
	s-1.85-2.57-1.85-2.57S35.62,86.4,35.62,86.4z"/>
<path style="fill:#00BDA3;" d="M41.09,74.42l-5.18,4.15c0,0-7.71,8.05-9.99,10.34c-2.28,2.28-5.13,4.79-6.16,6.16
	s-3.7,5.92-3.42,10.38c0.21,3.25,1.11,5.2,1.11,5.2s7.79,0.27,9.96-0.98s9.01-10.84,11.29-14.94c2.28-4.11,6.5-13.01,6.5-13.01
	S41.09,74.42,41.09,74.42z"/>
<path style="fill:#63351E;" d="M43.49,78.63l-2.73,5.76c0,0,2.13,1.13,4.58,0.91c3.16-0.28,5.09-2.8,5.06-2.67
	c-0.06,0.23,0,1.15,0.86,1.15s3.65-0.74,4.49-1.28s1.44-1.5,1.44-1.5s1.03,0.24,1.46-0.85s0.24-4.91,0.24-4.91l-1.24-3.22
	c0,0,4.09-1.39,6.03-2.06s3.7-1.09,3.88-2.06s-0.07-1.55-0.07-1.55L54.04,68.7c0,0,0.15-1.51,0.57-2.04
	c0.46-0.58,2.73-2.31,4.2-3.14c1.57-0.89,3.37-2.07,4.06-2.68s0.91-1.58,0.64-2.17c-0.23-0.51-0.71-0.43-0.71-0.43l-14.16,8.69
	C48.64,66.93,43.49,78.63,43.49,78.63z"/>
<path style="fill:#A56C43;" d="M35.92,78.57c0,0,4.73-5.94,6.73-8.06s6.79-6.73,10.25-8.55s9.57-3.69,9.95-3.72
	c0.85-0.06,0.28,1.12-0.33,1.55s-5.98,3.32-6.65,3.87s-3.7,2.79-3.09,3.7s4.55-0.91,6.55-1.27s7.21-0.24,7.94,0.06
	s0.06,1.7-2.06,1.94S61.2,68.6,60.6,68.7s-6.06,2.12-6.06,2.12s3.84,0.5,4.64,2.09c2.3,4.55-0.88,7.98-1.25,8.04
	s0.97-3.88-0.61-5.52s-3.76-1.58-4.49-1.39s-0.73,1.03,0.24,1.21s3.14,0.27,3.52,1.52c0.55,1.82,0.06,5.68-2.18,6.28
	c-2.24,0.61-3.8,1.17-3.72,0.3c0.18-2,3.05-2.28,3.11-4.04c0.03-0.79-1.21-1.39-1.88-1.33s-3.2,3.01-5.21,4.3
	c-2.78,1.78-5.94,2.12-5.94,2.12s-2.45-1.37-3.4-2.73c-1.09-1.58-1.46-3.09-1.46-3.09L35.92,78.57z"/>
<g>
	<path style="fill:#3C2C23;" d="M67.82,30.79c0.43,1.13,1.53,0.62,4.73-0.25s4.9-1.09,4.67-2.18c-0.26-1.19-2.43-0.82-5.23-0.55
		c-3.35,0.32-4.64,1.73-4.17,2.97V30.79z"/>
	<path style="fill:#3C2C23;" d="M48.73,36.53c0.83,1.07,3.34-0.51,4.98-1.07s4.81-0.97,4.72-2.3s-3.19-1.13-5.44-0.39
		c-0.89,0.29-2.52,1.07-3.38,1.89s-1.15,1.53-0.89,1.88L48.73,36.53z"/>
</g>
<path style="fill:#3C2C23;" d="M42.56,38.17c0,0,3.03,8.3,3.87,8.06s-1.37-10.8-1.37-10.8l-3.04,0.49L42.56,38.17L42.56,38.17z"/>
<path style="fill:#3C2C23;" d="M80.55,26.21c0,0,1.42,2.13,2.34,5.37s1.01,5.09,0.69,5.15s-7.02-16.07-6.37-16.33
	C77.64,20.23,80.55,26.21,80.55,26.21z"/>
<g>
	<path style="fill:#42312C;" d="M50.21,41.97c-0.2,1.04,1.86,2.73,5.22,2.17s5.35-3.06,4.56-4.21c-0.79-1.14-2.25,0.59-5.05,1.18
		c-2.38,0.51-4.52-0.2-4.73,0.85L50.21,41.97z"/>
	<path style="fill:#42312C;" d="M69.6,37.13c-0.55,1.48,2.33,2.48,5.34,1.62s4.76-3.49,3.41-4.37c-0.73-0.47-1.44,0.76-4,1.57
		C72.13,36.66,70.1,35.78,69.6,37.13z"/>
</g>
<path style="fill:#00BDA3;" d="M111.67,103.8c0,0-0.53-11.02-8.18-9.09c-7.55,1.9-13.85,7.95-19.92,10.11
	c-4.86,1.73-10.07,2.45-10.07,2.45s0.76,2.33,0.76,4.76s-0.13,4.99-0.13,4.99l18.42,0.99l16.78-7.52
	C109.33,110.49,111.75,106.28,111.67,103.8L111.67,103.8z"/>
<path style="fill:#06927F;" d="M81.7,121.36c-3.67,0.33-7.8,1.13-7.8,1.13l0.24-5.5c0,0,5.38-0.68,8.51-0.78
	c3.13-0.1,7.62-0.25,15.85-2.84c8.22-2.6,13.18-9.62,13.18-9.62s0.2,5.06-2.15,8.64c-2.4,3.67-7.48,5.8-9.09,6.25
	C93.44,120.57,83.36,121.21,81.7,121.36L81.7,121.36z"/>
</svg>
