<?xml version="1.0" encoding="utf-8"?>
<!-- Generator: Adobe Illustrator 26.3.1, SVG Export Plug-In . SVG Version: 6.00 Build 0)  -->
<svg version="1.1" id="a" xmlns="http://www.w3.org/2000/svg" xmlns:xlink="http://www.w3.org/1999/xlink" x="0px" y="0px"
	 viewBox="0 0 128 128" style="enable-background:new 0 0 128 128;" xml:space="preserve">
<path style="fill:#E0E0E0;" d="M63.32,91.8c0,0-17.21-1.37-29.07,6.92c-8.56,5.98-12.19,11.25-12.19,11.25l29.97,13.78l41.88,0.05
	c0,0,14.65-0.12,14.89-1.41s-5.27-12.07-13.13-19.81c-7.85-7.74-18.4-10.08-18.4-10.08S63.32,91.8,63.32,91.8z"/>
<path style="fill:#F2A259;" d="M9.05,122.91c0,0-9.42-14.39-0.58-22.71s27.42,2.19,35.1,10.19c6.83,7.12,9.23,12.97,8.45,13.36
	S9.82,123.43,9.05,122.91z"/>
<path style="fill:#E07F14;" d="M45.59,120.83l-1.02-0.55c0,0-2.82-0.63-4.19,1.47c-0.58,0.88-0.28,2.05-0.28,2.05l2.09,0.02l3.4-3
	L45.59,120.83z"/>
<path style="fill:#FFED5A;" d="M42.13,123.83c0,0-0.79-3.44,1.62-3.57c3.99-0.23,4.79,3.61,4.79,3.61s-2.24,0.01-3.5,0.02
	S42.13,123.83,42.13,123.83z"/>
<path style="fill:#C62727;" d="M22.24,107.41l-9.54-4.08c0,0-2.36,2.03-0.67,4.48c0.73,1.06,2.95,1.76,4.14,2.59
	s3.13,2.09,4.99,2.06c2.93-0.05,3.51-3.58,3.51-3.58l-2.42-1.47L22.24,107.41z"/>
<path style="fill:#F44236;" d="M12.41,103.76c-1.23,2.83,2.67,3.4,4.84,4.37c2.46,1.11,5.51,4.76,7.1,1.65s-1.8-5.4-4.22-6.74
	S13.22,101.9,12.41,103.76z"/>
<path style="fill:#00579C;" d="M21.11,122.59l-7.56-7.15c0,0-2.77,1.63-1.3,4.79c0.97,2.09,2.54,3.03,2.54,3.03s1.79,0.09,2.55,0.13
	s2.96,0.06,2.96,0.06S21.11,122.59,21.11,122.59z"/>
<path style="fill:#2885C6;" d="M24.64,123.54c0,0,0.05-3.73-4.04-6.51c-4.63-3.14-6.22-2.06-7.05-1.59s-1.19,2.66,1.73,5.58
	c2.16,2.16,3.88,2.41,3.88,2.41l5.48,0.12V123.54z"/>
<polygon style="fill:#B0B0B0;" points="71.71,116.65 71.7,123.76 75.19,123.76 75.21,117.35 "/>
<path style="fill:#1465C0;" d="M99.9,103.08c0,0-2.18,3.93-4.03,9.34c-2.44,7.12-3.16,11.38-3.16,11.38s3.31,0.32,5.68,0.32
	c4.42,0,6.68-0.76,6.68-0.76s2.07-3.52,3.37-7.76c1.31-4.23,2.26-8.09,2.26-8.09l-8.92-4.67L99.9,103.08L99.9,103.08z"/>
<path style="fill:#BDBDBD;" d="M106.55,88.34c0,0-1.4,0.58-2.76,4.09c-0.64,1.66-1.27,3.98-1.27,3.98s-1.42,0.77-2.2,2.78
	s-0.43,3.88-0.43,3.88s1.38,1.34,4.99,2.67c3.62,1.33,5.81,1.74,5.81,1.74s1.45-0.76,2.45-3.83c0.55-1.68,0.23-3.73,0.23-3.73
	s0.88-1.9,1.51-3.34c0.64-1.44,1.67-4.4,1.52-4.93s-9.86-3.32-9.86-3.32L106.55,88.34z"/>
<path style="fill:#C67100;" d="M111.62,75.82l-4.78,2.89c0,0-6.08,8.47,3.29,12.56c11.47,5,13.46-6.68,13.16-10.27
	c-0.28-3.38,0-3.39,0-3.39l-3.19-6.28l-8.47,4.49H111.62z"/>
<path style="fill:#F09300;" d="M109.53,75.92c0,0-2.09,2.09-2.69,2.79s-0.9,6.98,4.49,8.87c5.82,2.05,8.67-2.29,8.67-3.69
	s0-8.57-0.2-10.67S109.53,75.91,109.53,75.92L109.53,75.92z"/>
<path style="fill:#C67100;" d="M114.51,77.32c0,0-2.99,4.09-1.4,4.98c1.59,0.9,6.18-8.17,6.18-8.17S114.51,77.32,114.51,77.32z"/>
<path style="fill:#007D33;" d="M40.62,96.31l-0.34-4.7c0,0,1.57-1.13,3.62-1.68c2.55-0.68,3.21-0.69,3.21-0.69s1.2-3.25,5.38-3.82
	c3.82-0.52,25.24,1.59,25.24,1.59s10.32,3.52,9.74,8.68c-0.47,4.25-4.69,3.99-4.69,3.99l8.15,15.5c0,0-1.95,0-5.14-1.59
	s-7.71-3.54-7.71-3.54l-1.06,9.21l-6.55-5.4l-2.21-7.35c0,0,0.8-2.39,1.95-3.45s-5.49-2.21-5.49-2.21l-24.09-4.52L40.62,96.31z"/>
<path style="fill:#E59502;" d="M52.22,90.56c0,0,2.04,4.69,11.78,4.78c8.77,0.08,10.1-3.72,10.1-3.72l-0.09-4.69h-21.7
	C52.31,86.93,52.22,90.56,52.22,90.56z"/>
<path style="fill:#9A9A9A;" d="M61.43,106.34c-2.68,0.25-3.3,2.08-3.24,3.72s1.71,3.11,3.42,3.11s3.66-1.04,3.66-3.24
	S64.05,106.08,61.43,106.34L61.43,106.34z"/>
<path style="fill:#02AB47;" d="M68.25,106.5c0,0-1.68,3.81,0,6.91c1.68,3.1,7.97,6.64,9.03,7.26s2.04,0.44,2.3-0.97
	s-0.18-6.38-0.27-7.79s-1.59-4.25-2.48-4.25s0.97,7.98-1.77,7.79c-1.95-0.13-1.66-3.52-2.92-5.4c-1.77-2.66-3.9-3.54-3.9-3.54
	L68.25,106.5z"/>
<path style="fill:#02AB47;" d="M82.78,99.68c0,0,0.18,1.15-0.09,2.21s-0.97,2.66-0.97,2.66s3.19,3.72,5.05,5.67s4.16,4.96,4.16,4.96
	s0.8-0.18,0.71-2.66s0.04-6.07-3.28-9.83C85.7,99.68,82.78,99.68,82.78,99.68z"/>
<path style="fill:#02AB47;" d="M67.9,98.79c0,0,0.27-2.92,0.71-3.81s1.33-1.77,2.92-1.77s6.93,1.01,7.26,6.02
	c0.05,0.71-0.44,4.07-2.3,5.49s-4.69,0.71-5.85,0.18s-2.04-1.24-3.19-1.42s-14.17-0.27-22.41-2.66c-8.24-2.39-7.37-5.36-7-6.38
	c0.77-2.13,2.26-2.87,2.26-2.87s3.25,3.72,9.34,5.26c8.41,2.13,18.25,1.95,18.25,1.95L67.9,98.79z"/>
<path style="fill:#2A85C6;" d="M116.71,65.16c-2.39,0.1-1,2.89-2.79,5.28s-3.99,2.29-5.08,4.09s-0.8,3.19,1.1,3.79
	s4.39,0.1,6.18-1.1s2.09-2.29,3.69-1.99s3.39,2.19,3.39,2.19s0.6-4.68-1.69-8.17c-0.93-1.42-3.08-4.16-4.78-4.09H116.71z"/>
<path style="fill:#EEEEEE;" d="M105.64,96.15c1.84,0.85,2.51-1.47,2.95-2.43s0.78-2.69-0.35-3.12s-2.08,0.95-2.6,2.08
	S104.51,95.63,105.64,96.15z"/>
<path style="fill:#EEEEEE;" d="M104.83,101.11c-1.37-0.74-3.05-1.77-3.61-0.41c-0.48,1.19,0.79,1.83,2.61,2.61s3.29,1.04,3.64,0.35
	S105.95,101.72,104.83,101.11L104.83,101.11z"/>
<path style="fill:#9E9E9E;" d="M103.3,97.87c-0.63,1.26,1.78,2.66,5.1,3.87c3.46,1.26,4.91,1.38,4.91,1.38s0.29-1.15,0.25-1.85
	s-0.26-1.08-0.26-1.08s-1.55-0.17-4.41-1.19C107.19,98.39,103.86,96.8,103.3,97.87L103.3,97.87z"/>
<path style="fill:#2096F3;" d="M101.22,107.18c-0.61-0.3-1.6,0.48-3.12,5.04c-1.42,4.24-2.15,6.62-1.23,6.92s1.56-0.31,3.48-5.9
	C101.93,108.66,101.88,107.51,101.22,107.18L101.22,107.18z"/>
<path style="fill:#FFFFFF;" d="M13.2,105.1c0.23,0.58,1.41-0.06,2.28-0.4c1.44-0.57,2.2-0.59,1.99-1.4s-1.58-0.65-2.68-0.21
	S12.81,104.1,13.2,105.1L13.2,105.1z"/>
<path style="fill:#FFFFFF;" d="M13.86,117.03c-0.07,1.05,1.17,1.03,2.29,0.97s1.73-0.3,1.67-1.15S16.84,116,15.7,116
	C14.75,116,13.92,116.18,13.86,117.03z"/>
<path style="fill:#FFFFFF;" d="M43.79,121.61c-0.24,0.65,0,0.98,1.08,1.18s1.39-0.05,1.49-0.57s-0.52-0.98-1.13-1.08
	s-1.29,0.05-1.44,0.46L43.79,121.61z"/>
<path style="fill:#548B2E;" d="M32.58,108.45l-2.43,0.9c0,0-3.15,2.66,0.32,6.16c2.83,2.86,5.58,2.87,7.14,2.26
	c1.15-0.45,1.92-1.17,2.1-2.3c0.32-1.96-1.59-4.22-1.59-4.22L32.58,108.45L32.58,108.45z"/>
<path style="fill:#7DB343;" d="M30.57,108.9c-1.33,1.1-0.94,3.28,1.18,5.45s4.51,2.45,6.43,1.13s0.67-4.37-2.11-6.17
	S31.44,108.18,30.57,108.9z"/>
<path style="fill:#FFFFFF;" d="M31.09,111.68c0.62,0.68,1.65,0.15,2.21-0.46s0.62-1.29,0.05-1.75s-1.34-0.26-2.06,0.41
	s-0.72,1.23-0.21,1.8L31.09,111.68z"/>
<path style="fill:#E39503;" d="M89.68,72.86c0,0,8.32,0.08,9.91-8.44c1.68-8.99-4.79-10.46-4.79-10.46S89.68,72.86,89.68,72.86z"/>
<path style="fill:#E39503;" d="M33.3,55.52c0,0-8.25-1.09-5.64,9.17c2.27,8.92,10.77,8.16,10.77,8.16S33.3,55.52,33.3,55.52z"/>
<path style="fill:#62453B;" d="M61.85,71.75L33.71,61.71c0,0-5.83-19.33-0.09-33.93c4.56-11.6,14.76-18.82,29.04-19.15
	c15.26-0.35,25.89,6.16,30.83,18.01c5.96,14.31-0.29,34.84-0.29,34.84L61.85,71.74V71.75z"/>
<path style="fill:#FFCA26;" d="M40.12,37.54c-1.35,0.86-1.25,12.4-2.02,17.37c-0.81,5.24-4.43,6.71-4.43,6.71s1.93,7.68,4.98,13.52
	c4.18,8.03,12.54,16.25,25.41,16.26c10.72,0,16.9-5.69,20.98-10.62c6.07-7.32,8.15-19.28,8.15-19.28s-2.13-1.68-3.63-6.59
	c-1.75-5.72-1.46-16.89-3-17.94s-10-0.38-24.04-0.19C51.38,36.93,41.46,36.68,40.12,37.54z"/>
<path style="fill:#E59700;" d="M64.08,66.06c-2.7,0.05-3.72-0.87-4.67,0.11c-0.88,0.89-0.09,2.16,1.36,3.29
	c1.98,1.54,5.04,1.48,6.63,0.06c1.57-1.41,2.25-2.6,1.24-3.46S66.84,66.01,64.08,66.06z"/>
<g>
	<path style="fill:#6D4C3F;" d="M42.29,49.29c0.7,1.14,3.08-0.65,6.87-0.76c3.1-0.09,5.8,2.12,6.43,0.11
		c0.76-2.38-1.78-3.41-6.38-3.19C44.51,45.67,41.35,47.77,42.29,49.29z"/>
	<path style="fill:#785446;" d="M72.08,49.16c1.57,0.43,2.76-0.7,5.95-0.49c2.98,0.2,5.89,1.51,6.76,0.54s-1.36-3.31-6.27-3.79
		c-4.43-0.43-7.14,0.76-7.46,1.73s0.38,1.82,1.03,2L72.08,49.16z"/>
</g>
<g>
	<path style="fill:#3F4040;" d="M49.1,52.54c-3.62-0.05-5.03,3.08-4.81,5.3s1.89,4.33,5.08,4.27c3.03-0.05,4.7-2.05,4.7-4.7
		S52.45,52.59,49.1,52.54z"/>
	<path style="fill:#3F4040;" d="M78.13,52.43c-2.7-0.29-5.19,1.62-5.08,4.87c0.12,3.62,3.3,4.76,5.03,4.76
		c2.49,0,4.49-1.84,4.54-4.49C82.67,54.6,81.16,52.76,78.13,52.43z"/>
</g>
<path style="fill:#785446;" d="M64.44,75.41c-3.94,0-7.9-2.04-8.79-0.72c-0.39,0.58-0.27,1.72,0.95,2.78
	c1.42,1.23,4.22,2.35,7.68,2.37c7.28,0.04,9.66-3.95,8.73-5.15S68.97,75.41,64.44,75.41z"/>
<g>
	<path style="fill:#373C3F;" d="M78.28,26.92l-20.03,6.72c0,0,12.39-0.28,22.14,1c9.12,1.2,13.19,5.19,15.5,5.19
		s2.83-2.09,3.34-4.49s1.27-5.96,1.27-5.96l-22.23-2.45L78.28,26.92z"/>
	<path style="fill:#2F2F2F;" d="M47.4,27.55l-21.6,7.17c0,0,0.17,2.43,1.41,4.33c1.24,1.91,3.85,3.06,3.85,3.06
		s9.65-4.44,19.02-6.56c8.91-2.03,13.07-2.62,17.09-3.52c5.24-1.17,12.27-2.35,18.98-2.45s14.36-0.21,14.36-0.21
		s0.84-3.31,0.63-7.04S47.4,27.55,47.4,27.55L47.4,27.55z"/>
	<path style="fill:#464C4F;" d="M25.4,24.32l-11.53,2.39c0,0-2.32,7.2,11.46,8.33s28.21-2.79,34.11-4.75
		c5.91-1.97,8.56-4.04,18.83-4.98c6.32-0.58,19.73,0.58,24.43-1.56c3.36-1.53,4.4-5.82,4.4-8.91s-1.13-5-1.13-5L56.33,14.2
		L25.39,24.33L25.4,24.32z"/>
	<path style="fill:#5E6367;" d="M13.87,26.71C13.51,25.5,12.6,15.74,55.21,7.58c19.68-3.77,34.55-3.97,41.77-2.67
		c8.41,1.51,9,4.92,9,4.92s-1.97,4.36-9,5.34s-25.03-0.98-34.74,2.11c-9.7,3.09-15.47,7.31-26.72,9.56S14.99,30.5,13.86,26.7
		L13.87,26.71z"/>
	<path style="fill:#464C4F;" d="M56.43,4.13c-2.88,0.85-2.89,3.75-2.52,4.86s1.72,2.83,4.62,2.22c2.89-0.62,3.26-3.26,3.02-4.31
		S60.01,3.08,56.43,4.13L56.43,4.13z"/>
</g>
</svg>
