<?xml version="1.0" encoding="utf-8"?>
<!-- Generator: Adobe Illustrator 26.3.1, SVG Export Plug-In . SVG Version: 6.00 Build 0)  -->
<svg version="1.1" id="a" xmlns="http://www.w3.org/2000/svg" xmlns:xlink="http://www.w3.org/1999/xlink" x="0px" y="0px"
	 viewBox="0 0 128 128" style="enable-background:new 0 0 128 128;" xml:space="preserve">
<path style="fill:#312D2D;" d="M86.42,106.86c0,0,5.2-9.1,8.48-43.38C98.91,21.61,75.89,5.25,55.66,4.11
	c-20.23-1.13-45.18,8.86-44.88,54.37c0.14,21.75,6.21,42.44,10.15,52.43c13.8,0.24,33.38,0.24,33.38,0.24l32.12-4.29H86.42z"/>
<path style="fill:#070707;" d="M24.06,49.24c0,8.13-3.05,19.31,2.03,39.64c3.05,12.2,9.15,21.34,9.15,21.34l40.65-4.07
	c0,0,4.07-7.11,7.11-23.38s1.02-33.54,1.02-33.54L24.06,49.24L24.06,49.24z"/>
<polygon style="fill:#F9DDBD;" points="34.32,97.38 43.11,97.6 65.48,97.6 72.96,97.46 78.52,109.52 51.46,121.14 33.81,105.55 "/>
<path style="fill:#EDBD82;" d="M72.96,97.46c0,0-2.37-0.6-7.2-1l-0.06-3.68H41.73l-0.02,3.82c-4.77,0.33-7.39,0.78-7.39,0.78
	c0.72,1.35,9.08,9.16,19.61,9.24C65.16,106.7,72.96,97.46,72.96,97.46z"/>
<polygon style="fill:#EFEFEF;" points="39.59,108.59 53.86,114.17 69.36,108.14 67.32,118.87 48.72,119.22 "/>
<path style="fill:#545454;" d="M90.04,102.8c-5.8-2.85-11.62-4.44-17.08-5.34c-0.8,3.98-3.49,8.13-6.5,11.52
	c-3.62,4.07-10.61,8.61-12.81,8.68s-10.22-5.93-12.62-8.63c-3.05-3.44-6.11-7.61-6.7-11.63c-0.77,0.13-1.55,0.27-2.32,0.43
	c-8.83,1.85-15.52,6.45-19.42,10.22c-4.93,4.77-8.66,13.76-7.91,15.3c0.44,0.92,23.69,0.61,48.7,0.44
	c25.26-0.17,50.54,0.37,50.58-0.12c0.09-1-3.23-15.61-13.91-20.86L90.04,102.8z"/>
<g>
	<g id="b">
		<path style="fill:#DD8A3E;" d="M98.58,123.86l1.8-9.08c0.07-0.32,0.18-0.62,0.32-0.92l4.4-9.05c1.15-2.38-0.63-3.44-3.17-4.16l0,0
			c-2.54-0.72-4.62-0.73-4.87,1.9l-0.97,10.02c-0.02,0.33-0.1,0.64-0.2,0.95l-3.82,10.35h6.52L98.58,123.86z"/>
		<path style="fill:#DD8A3E;" d="M102.45,93.1l2.56,0.72c1.87,0.53,2.98,2.49,2.46,4.38l-0.18,0.61c-0.53,1.87-2.49,2.98-4.38,2.46
			l-2.56-0.72c-1.87-0.53-2.98-2.49-2.46-4.38l0.18-0.61C98.6,93.68,100.58,92.57,102.45,93.1z"/>
		
			<rect x="99.96" y="72.57" transform="matrix(0.2709 -0.9626 0.9626 0.2709 -4.7177 165.6639)" style="fill:#995F33;" width="14.1" height="26.76"/>
		<path style="fill:#DD8A3E;" d="M109.47,95.46l-10.93-3.04c-1.56-0.43-3.4-1.39-1.93-5.43l3.06-9.2c0.43-1.5,2.03-2.37,3.6-1.94
			l10.93,3.04c1.56,0.43,2.64,0.97,2.05,3.49l-3.17,11.13c-0.44,1.52-2.05,2.39-3.6,1.95L109.47,95.46z"/>
		<path style="fill:#DD8A3E;" d="M96.02,81.79c1.78-6.31,2.34-7.7-0.11-8.4c-2.45-0.69-5.11,2.6-6.46,7.4s-0.88,9.28,1.57,9.97
			S94.25,88.1,96.02,81.79z"/>
		<path style="fill:#DD8A3E;" d="M116.56,88.6c1.78-6.31,2.02-8.82,4.48-8.13c2.45,0.69,3.02,4.9,1.66,9.7
			c-1.35,4.8-4.1,8.36-6.56,7.67C113.69,97.15,114.78,94.92,116.56,88.6L116.56,88.6z"/>
	</g>
	<path style="fill:#995F33;" d="M97.89,96.17c0,0,2.04,1.28,4.46,1.93c2.76,0.74,5.04,0.08,4.94,0.71s-1.31,3.67-5.75,2.39
		C97.99,100.18,97.21,98.01,97.89,96.17z"/>
</g>
<path style="fill:#666666;" d="M44.79,118.83c-7.85,0-14.22-0.17-15.01-0.7c-1.99-1.33-12.28-13.29-12.72-13.79l0.95-0.65
	c2.93,3.4,10.86,12.46,12.41,13.49c2.01,1,43.62,0.31,46.87-0.05c1.02-0.91,7.85-9.38,12.05-14.66l1.04,0.52
	c-11.78,14.8-12.49,15.17-12.69,15.24c-0.2,0.07-18.91,0.62-32.9,0.62V118.83z"/>
<path style="fill:#666666;" d="M17.8,123.96h-1.14c0.05-0.17,1.22-3.75,2.84-6.31c1.89-2.99,4.66-5.7,4.77-5.81l0.8,0.83
	c0,0-2.79,2.72-4.6,5.6c-1.54,2.44-2.67,5.65-2.68,5.69L17.8,123.96z"/>
<path style="fill:#666666;" d="M27.76,123.95h-1.18c0.02-0.08,0.37-1.81,1.09-3.48c0.87-2.04,1.98-3.17,2.02-3.22l0.82,0.81
	c0,0-1,1.04-1.79,2.87C28.05,122.49,27.78,123.82,27.76,123.95L27.76,123.95z"/>
<path style="fill:#666666;" d="M89.54,123.84h1.24c-0.05-0.15-1.33-4.01-2.95-6.57c-1.89-2.99-4.66-5.7-4.77-5.81l-0.8,0.83
	c0,0,2.79,2.72,4.6,5.6c1.54,2.44,2.67,5.92,2.68,5.96V123.84z"/>
<path style="fill:#666666;" d="M79.61,123.79h1.19c-0.02-0.08-0.41-2.03-1.13-3.7c-0.87-2.04-1.98-3.17-2.02-3.22l-0.82,0.81
	c0,0,1,1.04,1.79,2.87c0.67,1.56,1,3.23,1,3.25L79.61,123.79z"/>
<path style="fill:#F9DDBD;" d="M60.99,25.79c-0.55,0-5.86,5.98-17.19,11.77c-12.83,6.56-19.88,6.7-19.88,6.7s-2.32,12.32,1.53,28.37
	c2.35,9.8,12.66,23.52,28.18,23.44c20.06-0.09,27.34-15.11,29.26-25.01c2.68-13.84,0.89-24.57,0.89-24.57s-9.19-5.5-14.34-10.88
	S60.99,25.78,60.99,25.79L60.99,25.79z"/>
<g>
	<path style="fill:#312D2D;" d="M28.6,47.89c0.83,1.35,3.65-0.77,8.14-0.9c3.67-0.1,6.87,2.51,7.63,0.13
		c0.9-2.82-2.11-4.04-7.56-3.78c-5.57,0.26-9.32,2.75-8.2,4.55H28.6z"/>
	<path style="fill:#312D2D;" d="M63.66,47.73c1.86,0.51,3.27-0.83,7.05-0.58c3.53,0.24,6.99,1.79,8.01,0.64s-1.61-3.92-7.43-4.49
		c-5.26-0.51-8.46,0.9-8.84,2.05s0.45,2.16,1.22,2.37L63.66,47.73z"/>
</g>
<g>
	<path style="fill:#454140;" d="M37.18,51.99c-4.29-0.06-5.96,3.65-5.7,6.28s2.24,5.13,6.02,5.06c3.59-0.06,5.58-2.44,5.58-5.58
		s-1.92-5.71-5.9-5.77V51.99z"/>
	<path style="fill:#454140;" d="M70.32,51.86c-3.2-0.34-6.15,1.92-6.02,5.77c0.14,4.29,3.91,5.64,5.96,5.64
		c2.95,0,5.33-2.18,5.38-5.32C75.7,54.43,73.91,52.25,70.32,51.86z"/>
</g>
<path style="fill:#DBA689;" d="M54.17,67.75c-3.2,0.06-4.4-1.03-5.54,0.13c-1.04,1.06-0.11,2.56,1.62,3.9
	c2.35,1.82,5.98,1.76,7.86,0.08s2.67-3.08,1.47-4.1s-2.13-0.06-5.4,0L54.17,67.75z"/>
<path id="c" style="fill:#444444;" d="M46.04,81.88c-2.15-0.99-2.45-3.65,0.25-3.68c0.57,0,4.68,0.56,8.45,0.56s7.71-0.42,8.27-0.49
	c2.84-0.37,2.61,2.75,0.59,3.54c-1.5,0.59-3.83,1.3-8.78,1.3c-4.01,0-7.5-0.63-8.78-1.22L46.04,81.88z"/>
</svg>
