<?xml version="1.0" encoding="utf-8"?>
<!-- Generator: Adobe Illustrator 26.3.1, SVG Export Plug-In . SVG Version: 6.00 Build 0)  -->
<svg version="1.1" id="a" xmlns="http://www.w3.org/2000/svg" xmlns:xlink="http://www.w3.org/1999/xlink" x="0px" y="0px"
	 viewBox="0 0 128 128" style="enable-background:new 0 0 128 128;" xml:space="preserve">
<path style="fill:#B3B3B3;" d="M108.07,63.94c0,0,10.48-2.18,13.28,4.63c3.43,8.36,2.53,28.41,2.53,32.56s-0.22,13.15-0.29,14.05
	c-0.06,0.84-1.93,0.79-4.02,0.79c-2.35,0-3.92-0.11-3.92-0.11l-11.73-24.07l-4.87-19.46l9.01-8.38L108.07,63.94z"/>
<path style="fill:#B3B3B3;" d="M4.46,115.45c-0.14-1.11-0.2-13.04-0.41-22.47c-0.22-9.92,0.31-18.71,2.37-23.35
	c2.85-6.43,7.03-6.58,7.03-6.58l9.01,15.77L19,115.95c0,0-8.46,0.18-10.47,0.05s-4.08-0.54-4.08-0.54L4.46,115.45z"/>
<path style="fill:#858585;" d="M106.08,77.55c0,0,7.51-0.56,9.19,11.71c1.26,9.18,0.4,26.61,0.4,26.61l-7.76-0.15l-23.64-12.94
	L106.08,77.55L106.08,77.55z"/>
<path style="fill:#858585;" d="M19.77,77.91c0,0-4.69,1.8-5.95,14.24c-1.26,12.43-0.2,23.89-0.2,23.89l22.73-6.59L31.3,89.63
	L19.77,77.91L19.77,77.91z"/>
<path style="fill:#E0E0E0;" d="M28.21,91.9c0,0-4.05-0.95-4.18,5.52c-0.16,7.57,3.31,8.52,3.31,8.52l-1.03,1.74l-2.05,0.08
	c0,0-2.46,1.05-5.44,3.23c-3.71,2.71-5.21,5.05-5.21,5.05s10.16,2.77,15.98,3.48s20.55,1.8,37.45,2.17
	c30.78,0.68,48.2-5.82,48.2-5.82s-2.24-3.13-6.27-5.67c-3.34-2.1-6.33-2.84-6.33-2.84l-2.79-2.69c0,0,3.67-3.89,3.2-8.16
	s-3.28-5.76-3.28-5.76L28.23,91.9L28.21,91.9z"/>
<path style="fill:#5F6468;" d="M42.16,107.26l3.59,5.14c0,0,4.3,0.7,4.96,0.72c1.16,0.04,1.43-1.37,1.49-1.97s0.23-2.42,0.35-3.8
	s0.85-3.79,0.85-3.79l-7.11-1.97L42.16,107.26L42.16,107.26z"/>
<path style="fill:#9A9A9A;" d="M37.56,98.89c0,0-2.03,1.61-2.57,4.96c-0.34,2.11-0.51,3.98-0.59,5.08
	c-0.04,0.59,0.34,1.13,0.91,1.28c1.25,0.33,3.49,0.91,5.54,1.35c2.61,0.56,4.9,0.84,4.9,0.84s0.38-6.31,0.98-8.16
	c0.6-1.85,1.35-1.88,1.35-1.88S37.56,98.89,37.56,98.89z"/>
<path style="fill:#E0E0E0;" d="M22.95,31.31c0,0-0.6-3.17-7.33-2.42c-6.72,0.76-7.33,2.34-7.03,10.2c0.3,7.86,0.68,11.63,5.06,11.41
	s8.08-2.42,8.08-2.42l1.21-16.77L22.95,31.31z"/>
<path style="fill:#FFFFFF;" d="M16.55,42.17c-1.84-0.2-3.53,1.12-3.46,3.36c0.08,2.5,2.24,3.29,3.42,3.29c1.69,0,3.06-1.27,3.09-3.1
	C19.64,43.66,18.61,42.39,16.55,42.17z"/>
<path style="fill:#FFFFFF;" d="M15.83,32.83c-1.53,0.09-4.07,1.82-3.69,4.53c0.32,2.27,2.32,3.55,4.4,3.55s3.58-2.02,3.45-4.25
	s-1.89-3.97-4.17-3.83H15.83z"/>
<path style="fill:#E0E0E0;" d="M103.54,30.04c0,0,1.06-1.92,3.01-2.16c3.21-0.39,7.2,0.39,8.58,0.65s2.03,1.51,2.1,3.27
	s0,14.14,0,15.12s-1.05,2.88-2.68,2.95s-3.93,0-3.93,0l-7.07-19.84L103.54,30.04z"/>
<path style="fill:#FFFFFF;" d="M111.06,40.84c-1.84-0.2-3.53,1.12-3.46,3.36c0.08,2.5,2.24,3.29,3.42,3.29
	c1.69,0,3.06-1.27,3.09-3.1C114.15,42.33,113.12,41.06,111.06,40.84z"/>
<path style="fill:#FFFFFF;" d="M110.03,31.34c-1.54,0.09-3.99,1.83-3.27,4.32s1.9,3.27,3.99,3.27s3.6-1.9,3.47-3.99
	C114.09,32.84,112.32,31.21,110.03,31.34z"/>
<path style="fill:#929292;" d="M109.96,48.57c0,0,4.29-0.38,5.29,1.26c1.01,1.64,0.88,8.32,0.88,11.09s0.38,6.81-0.88,7.94
	c-1.01,0.91-5.29,1.01-5.29,1.01S109.96,48.57,109.96,48.57z"/>
<path style="fill:#929292;" d="M12.78,68.98c3.28,1.13,5.92,1.26,5.92,1.26L17.82,49.7c0,0-3.4-0.13-4.92,0.25s-2.27,2.14-2.27,3.53
	c0,0.87-0.72,7.02-0.25,11.22c0.28,2.52,1.17,3.86,2.39,4.29L12.78,68.98z"/>
<path style="fill:#B3B3B3;" d="M61.92,5.65c29.99-1.1,49.97,22.18,49.74,53.97c-0.1,13.14-4.04,22.86-11.91,31.14
	c-8.53,8.96-22.02,15.38-35.79,15.38c-14.82,0-27.78-4.51-36.31-13.52c-7.29-7.7-11.2-18.85-11.65-31.46
	c-0.66-18.43,4.61-29.25,14.48-40.21c8.55-9.49,20.01-15.06,31.45-15.29l0,0"/>
<path style="fill:#B3B3B3;" d="M60.3,5.89c25.96-0.45,46.08,20.42,46.68,48.66c0.26,12.1-3.39,22.09-10.85,29.71
	c-8.08,8.26-20.85,14.16-33.9,14.16c-26.03,0-43.56-16.28-44.91-39.97c-0.84-14.72,3.85-28.39,13.2-38.49
	c8.1-8.74,18.96-13.87,29.78-14.08l0,0"/>
<path style="fill:#2F2F2F;" d="M107.33,54.88c0,18.51-7.99,33.21-23.58,39.99c-5.2,2.26-13.86,4.69-19.86,4.69
	c-8.89,0-19.69-3.11-26.57-7.82c-11.7-8.01-16.87-21.32-16.87-36.86c0-24.68,19.45-44.69,43.44-44.69S107.33,30.2,107.33,54.88z"/>
<path style="fill:#5E6367;" d="M65.96,21.45l-23.35-1.71c0,0-5.57,5.71-8.26,11.54s-3.54,12.79-3.54,12.79s-8.33,4.17-7.97,15.67
	c0.42,13.55,13.56,20.79,17.93,21.77l48.86-2.02c0,0,15.57-7.91,15.33-21.24c-0.18-10.53-8.77-15.05-8.77-15.05
	s-1.53-15.93-11.66-22.47s-18.56,0.72-18.56,0.72L65.96,21.45z"/>
<path style="fill:#9A9A9A;" d="M48.97,38.05L48.9,26.77l-6.3-7.02c0,0,8.66-6.69,21.45-6.23c14.29,0.51,20.46,7.21,20.46,7.21
	l-5.44,5.9l-0.26,13.51L48.97,38.05L48.97,38.05z"/>
<path style="fill:#BF8302;" d="M51.97,89.23c0,0-0.16,2.82-0.28,3.44s-2.07,1.9-2.94,2.27s9.8,3.84,9.8,3.84l16.37-1.36l2.48-2.11
	c0,0-2.36-0.87-2.36-1.36s-0.37-4.46-0.37-4.46l-22.69-0.25L51.97,89.23z"/>
<path style="opacity:0.5;fill:#FFA70B;enable-background:new    ;" d="M38.95,17.68L26.6,32.14l-3.37,10.21
	c0,0,19.72-10.95,41.28-10.21c22.8,0.79,39.93,10.66,39.93,10.66l-8.3-18.51L78.19,12.06L58,9.82L38.95,17.68L38.95,17.68z"/>
<path style="fill:#FFCA26;" d="M63.55,35.03c-12.72-0.45-22.49,5.27-25.89,11.96c-3.4,6.69-3.4,23.48,0.11,29.73
	c3.29,5.86,9.62,14.66,26.4,15.32c16.78,0.66,24.92-12.57,26.69-18.5c1.45-4.85,2.74-23.58-3.62-30.39
	C80.88,36.35,69.69,35.25,63.55,35.03z"/>
<path style="fill:#E0E0E0;" d="M76.2,87.11l-1.77,4.12c0,0,4.02,0.34,8.28-2.06c5.32-2.99,8.55-9.67,6.78-10.82
	c-1.52-0.98-3.23,2.71-6.06,5.07C80.27,86.05,76.2,87.11,76.2,87.11z"/>
<path style="fill:#E59700;" d="M63.84,65.45c-1.99,0.06-4.08-0.75-4.99,0.29s0.25,2.23,1.46,3.16c2.03,1.56,4.71,1.56,6.62,0.24
	s2.59-2.78,1.54-3.64C67.42,64.63,65.7,65.39,63.84,65.45L63.84,65.45z"/>
<path style="fill:#785446;" d="M63.36,74.58c-4.73,0-9.49-2.52-10.56-0.89c-0.47,0.72-0.33,2.13,1.14,3.43
	c1.71,1.52,5.07,2.9,9.23,2.93c8.74,0.05,11.61-4.88,10.49-6.36S68.81,74.58,63.36,74.58z"/>
<g>
	<path style="fill:#6D4C3F;" d="M39.74,47.57c0.76,1.23,3.33-0.7,7.43-0.82c3.35-0.1,6.27,2.29,6.96,0.12
		c0.82-2.57-1.93-3.68-6.9-3.45S38.73,45.93,39.74,47.57z"/>
	<path style="fill:#785446;" d="M72.29,47.42c1.7,0.47,2.98-0.76,6.43-0.53c3.22,0.22,6.37,1.64,7.31,0.58s-1.47-3.58-6.78-4.09
		c-4.8-0.47-7.64,0.62-7.99,1.67S71.59,47.22,72.29,47.42L72.29,47.42z"/>
</g>
<g>
	<path style="fill:#3F4040;" d="M47.52,50.71c-3.92-0.06-5.44,3.33-5.2,5.73s2.05,4.68,5.5,4.62c3.28-0.06,5.09-2.22,5.09-5.09
		S51.16,50.76,47.52,50.71L47.52,50.71z"/>
	<path style="fill:#3F4040;" d="M78.79,50.83c-2.92-0.31-5.61,1.75-5.5,5.26c0.13,3.92,3.56,5.15,5.44,5.15
		c2.69,0,4.86-1.99,4.91-4.85C83.7,53.17,82.06,51.19,78.79,50.83z"/>
</g>
<path style="fill:#3F4040;" d="M71.97,82.77c-2.8,1.69-3.8,5.01-2.66,6.97s4.94,2.47,7.67,0.76c2.73-1.71,4.44-4.44,2.98-6.97
	S74.7,81.12,71.97,82.77z"/>
<path style="opacity:0.5;fill:#FFFFFF;enable-background:new    ;" d="M32.43,32.15c0.99,0.72,2.73,0.09,4.53-1.6
	c2.33-2.21,6.08-5.06,9.24-6.98c3.58-2.17,9.67-4.64,11.5-5.28c2.45-0.85,3.39-1.79,2.92-3.39s-3.67-1.05-5.09-0.68
	s-6.77,1.38-12.17,4.92c-5.75,3.77-7.54,5.66-9.52,7.92C32.83,28.22,31.01,31.11,32.43,32.15z"/>
<path style="fill:#FFFFFF;" d="M63.96,100.81c-26.03,0-43.56-16.28-44.91-39.97c-0.84-14.72,3.85-28.39,13.2-38.49
	c8.1-8.74,18.96-13.87,29.78-14.08l0,0c25.96-0.45,46.08,20.42,46.68,48.66c0.26,12.1-3.39,22.09-10.85,29.71
	c-8.08,8.26-20.85,14.16-33.9,14.16V100.81z M62.94,11.35c-0.28,0-0.56,0-0.85,0c-9.99,0.19-20.05,4.96-27.58,13.09
	c-8.78,9.47-13.18,22.33-12.39,36.22c1.25,21.92,17.73,36.08,41.99,36.08c12.24,0,24.02-4.58,31.54-12.26
	c6.86-7,10.21-16.25,9.97-27.49C105.06,30.81,86.78,11.34,62.94,11.35L62.94,11.35z"/>
<path style="fill:#858585;" d="M25.74,51.01c-1.25,1.56-1.49,6.52-0.87,10.01c0.62,3.49,2.41,7.96,4.06,8.27s3.7-0.56,4.31-1.64
	s0.36-7.5,0.51-10.11s0.77-4.93-0.41-5.8s-2.31-1.28-4.06-1.28C27.89,50.46,26.56,50,25.74,51.01L25.74,51.01z"/>
<path style="fill:#858585;" d="M93.93,52.09c-1.11,1.06-0.41,4.78-0.26,7.96s-0.21,6.83,0.87,7.55s5.85-0.26,7.19-1.8
	s1.39-6.47,1.28-8.83s-0.46-5.52-3.54-5.6c-2.11-0.05-4.36-0.41-5.55,0.72L93.93,52.09z"/>
<path style="fill:#B0B0B0;" d="M41.02,120.53c0,0,0.3-2.5,0.3-3.67s0.96-2.02,3.4-2.23s12.21-1.06,20.91-0.96s18.15-0.11,20.38,0.32
	s3.29,2.12,2.97,3.82s-0.42,3.18-0.42,3.18s-22.18,1.27-27.49,1.38s-20.04-1.85-20.04-1.85L41.02,120.53z"/>
<path style="fill:#E0E0E0;" d="M52.68,116.34c5.84,0.11,7.01,6.05,7.01,6.05s-3.49-0.03-7.2-0.43s-6.76-0.87-6.76-0.87
	S46.84,116.23,52.68,116.34z"/>
<path style="fill:#5F6468;" d="M24.5,107.21c-0.66,0.59,0.06,0.94,1.4,4.41c1.33,3.47,2.01,7.06,2.67,7.82
	c0.1,0.11,3.82,0.98,4.09,0.44s-1.96-7.47-2.84-9.51s-1.93-4.34-2.47-4.43s-1.95,0.46-2.84,1.26L24.5,107.21z"/>
<path style="fill:#5F6468;" d="M99.97,104.66c-0.35-0.09-2.91,4.93-3.86,7.91c-1.41,4.39-2.26,7.86-2.26,7.86s0.48,0.13,2.11-0.13
	s2.03-0.53,2.03-0.53s1.13-4.75,2.39-7.63s2.26-4.77,2.26-4.77s-0.89-2.26-2.67-2.7V104.66z"/>
</svg>
