<?xml version="1.0" encoding="utf-8"?>
<!-- Generator: Adobe Illustrator 26.3.1, SVG Export Plug-In . SVG Version: 6.00 Build 0)  -->
<svg version="1.1" id="a" xmlns="http://www.w3.org/2000/svg" xmlns:xlink="http://www.w3.org/1999/xlink" x="0px" y="0px"
	 viewBox="0 0 128 128" style="enable-background:new 0 0 128 128;" xml:space="preserve">
<path style="fill:#99674F;" d="M44.63,89.79l-0.24,7.75c0,0-0.85,8.26,12.59,8.26s12.83-7.65,12.83-7.65l-0.24-9.38
	C69.57,88.77,44.63,89.79,44.63,89.79z"/>
<path style="fill:#DFDFDF;" d="M45.18,93.41l-4.82,0.11c0,0,0.4,5.28-0.22,5.98s-18.11,3.93-24.02,9.71
	c-4.7,4.6-7.42,12.54-6.71,14.04c0.42,0.89,24.62,0.59,48.3,0.43c23.93-0.17,45.18-1.1,45.22-1.57c0.09-0.97-2.63-11.33-12.67-16.59
	c-7.42-3.89-16.9-6.14-16.9-6.14l-0.24-5.99L66.54,95l-6.36,6.45v2.38l-7.77-0.35l-2.91-7.07l-4.33-3H45.18z"/>
<path style="fill:#B0B0B0;" d="M95.96,109.56c0,0,1,1.1,1.26,1.42s0.84,1,0.84,1l-5.59,10.82l-4.16,0.42l7.64-13.66H95.96z"/>
<path style="fill:#F2A25B;" d="M81.79,123.28l17.28-32c0,0-5.95-5.83-0.11-16.67c4.98-9.26,13.28-9.73,18.06-6.6
	c4.97,3.26,5.31,11.85,2.02,17.83c-5.56,10.09-14.29,8.28-14.29,8.28l-15.23,28.92c0,0-1.24,0.75-4.01,0.68
	c-2.38-0.07-3.71-0.43-3.71-0.43L81.79,123.28z"/>
<path style="fill:#D27857;" d="M102.84,89.92c4.93,2.82,11.2-2.11,13.54-7.75c2.35-5.64,1.17-10.26-2.11-12.06s-9.08-0.7-12.68,6.81
	C98.58,83.2,99.92,88.25,102.84,89.92z"/>
<path style="fill:#FFB775;" d="M104.88,87.81c4.25,1.74,7.67-2.55,9.24-5.32c1.72-3.05,2.82-8.77-0.86-10.8
	c-3.27-1.81-7.75,1.64-9.71,6.03C101.77,81.72,101.83,86.57,104.88,87.81L104.88,87.81z"/>
<path style="fill:#B0B0B0;" d="M40.37,93.52c0.31,2.63,4.86,0.87,7.29,3.69s3.2,8.37,4.06,9.07s10.21,0.54,10.83,0
	s0.44-6.02,3.02-7.9c2.58-1.88,6.03-3.37,6.97-3.6s1.33-2.11-0.31-2.43s-7.5-0.02-10,3.89s-2.68,6.52-2.68,6.52h-5.09
	c0,0-1.06-4.71-3.68-7.52c-2.19-2.35-4.38-3.44-7.99-3.6C40.98,91.56,40.21,92.23,40.37,93.52L40.37,93.52z"/>
<path style="fill:#9A9A9A;" d="M43.97,109.39c-1.95,0-2.52,1.54-2.57,2.8s1.2,2.12,2.46,2.17c1.4,0.07,2.4-1.37,2.4-2.52
	S45.57,109.38,43.97,109.39L43.97,109.39z"/>
<path style="fill:#9A9A9A;" d="M70.46,109.73c-1.54-0.07-2.42,0.89-2.36,2.21s1.39,2.19,2.53,2.19s2.29-1.09,2.23-2.29
	s-1.09-2.06-2.4-2.12V109.73z"/>
<path style="fill:#9A9A9A;" d="M67.73,119.77c-0.04,1.28,0.92,2.33,2.33,2.37s2.49-0.92,2.49-2.33s-1.04-2.41-2.57-2.41
	S67.77,118.4,67.73,119.77z"/>
<path style="fill:#9A9A9A;" d="M43.93,118.32c-1.76,0.16-2.17,1.36-2.13,2.45s1.12,2.05,2.25,2.05s2.41-0.68,2.41-2.13
	S45.66,118.16,43.93,118.32z"/>
<path style="fill:#99674F;" d="M82.8,76.77c0,0,8.29,0.08,9.88-8.41c1.68-8.96-4.77-10.42-4.77-10.42L82.8,76.78V76.77z"/>
<path style="fill:#99674F;" d="M26.62,59.5c0,0-8.22-1.09-5.62,9.14c2.26,8.89,10.73,8.13,10.73,8.13S26.62,59.5,26.62,59.5z"/>
<path style="fill:#543930;" d="M55.07,75.67L27.03,65.66c0,0-5.81-19.26-0.09-33.81c4.55-11.56,14.71-18.75,28.94-19.08
	c15.21-0.35,25.8,6.13,30.72,17.95c5.94,14.26-0.29,34.72-0.29,34.72L55.07,75.67z"/>
<path style="fill:#BA8D68;" d="M33.42,41.57c-1.34,0.86-1.25,12.36-2.01,17.31C30.6,64.1,27,65.57,27,65.57s1.93,7.65,4.96,13.47
	c4.16,8,12.49,16.19,25.32,16.2c10.68,0,16.84-5.67,20.91-10.58c6.05-7.29,8.12-19.22,8.12-19.22s-2.12-1.68-3.62-6.56
	c-1.75-5.7-1.46-16.83-2.99-17.87s-9.96-0.38-23.95-0.19c-11.1,0.15-20.98-0.1-22.32,0.76L33.42,41.57z"/>
<path style="fill:#99674F;" d="M57.3,69.99c-2.69,0.05-3.7-0.86-4.66,0.11c-0.87,0.89-0.09,2.15,1.36,3.28
	c1.97,1.53,5.03,1.48,6.61,0.06c1.57-1.4,2.24-2.59,1.23-3.45S60.04,69.94,57.3,69.99z"/>
<g>
	<path style="fill:#613E31;" d="M35.58,53.29c0.7,1.13,3.07-0.65,6.84-0.75c3.09-0.09,5.78,2.11,6.41,0.11
		c0.75-2.37-1.78-3.39-6.36-3.18c-4.68,0.22-7.84,2.31-6.9,3.83L35.58,53.29z"/>
	<path style="fill:#613E31;" d="M65.27,53.15c1.56,0.43,2.75-0.7,5.93-0.48c2.97,0.2,5.87,1.51,6.74,0.54s-1.36-3.29-6.25-3.77
		c-4.42-0.43-7.11,0.75-7.44,1.72S64.63,52.98,65.27,53.15z"/>
</g>
<g>
	<path style="fill:#49352E;" d="M42.37,56.52c-3.61-0.05-5.01,3.07-4.8,5.28c0.21,2.21,1.89,4.31,5.07,4.26
		c3.02-0.05,4.69-2.05,4.69-4.69S45.71,56.57,42.37,56.52z"/>
	<path style="fill:#49352E;" d="M71.29,56.42c-2.69-0.29-5.17,1.62-5.07,4.85c0.12,3.61,3.28,4.74,5.01,4.74
		c2.48,0,4.48-1.83,4.53-4.47C75.81,58.58,74.31,56.74,71.29,56.42z"/>
</g>
<path style="fill:#49352E;" d="M57.66,79.32c-3.93,0-7.87-2.03-8.76-0.72c-0.39,0.58-0.27,1.72,0.95,2.77
	c1.42,1.22,4.21,2.34,7.65,2.36c7.25,0.04,9.63-3.94,8.7-5.13S62.18,79.32,57.66,79.32z"/>
<g>
	<path style="fill:#B0B0B0;" d="M61.58,13.66L8.4,31.01c0,0,1.85,3.37,6.31,4.93s7.82,1.25,7.82,1.25v4.48l50.25-4.14l17.49-1.15
		c0,0,3.25-0.36,7.21-3.88c4.98-4.42,6.61-8.04,6.61-11.43S61.58,13.67,61.58,13.66L61.58,13.66z"/>
	<path style="fill:#E3E3E2;" d="M8.4,31.01c0,0-1.98-2.03-1.51-5.08s3.66-9.17,9.29-11.5c5.14-2.13,8.41,0,8.41,0
		s2.54-5.75,7.94-6.77s7.74,0.33,7.74,0.33s5.12-3.29,15.35-3.76c8.55-0.39,14.59,0.26,19.19,2.04s6.86,3.41,6.86,3.41
		s4.29,1.69,6.35,1.86s3.1-0.34,7.54,0.34s8.1,2.88,8.65,6.09c0.56,3.21-0.12,8.82-6.24,9.92s-9.16-1.53-9.16-1.53l-1.51-0.93
		c0,0-4.21,1.08-10.32-0.19s-5.43-4.19-5.43-4.19s-1.69,3.68-15.24,3.68c-7.9,0-11-4.06-11-4.06s-5.16,4.65-10.88,6.26
		s-11.27,0.08-11.27,0.08s-3.97,3.81-7.3,4.74s-6.11,0-7.46-0.76L8.4,31.01z"/>
	<path style="fill:#E3E3E2;" d="M22.4,39.4c-1.03,1.24-0.34,5.66,0,6.74c0.39,1.24,0.65,2.2,1.42,2.75s8.65-4.67,34.32-4.4
		c25.68,0.27,29.42,2.89,30.71,2.89s1.68-2.89,1.68-5.5s-0.26-5.5-0.26-5.5s-12.77-5.22-35.1-4.54
		C32.85,32.53,23.43,38.16,22.4,39.4z"/>
	<path style="fill:#9B9B9B;" d="M24.51,27.03c-3.3-2.16-5-7.19-6.75-7.02s-4.16,5.31,4.13,10.49c6.91,4.31,11.51,2.62,11.67,0.51
		C33.72,28.9,28.64,29.74,24.51,27.03z"/>
	<path style="fill:#9B9B9B;" d="M42.85,19.76c1.4,4.1,1.67,8.66,3.25,8.54c2.22-0.17,1.11-6.26,0.16-9.56s-2.86-6.94-4.68-6.18
		s0,3.47,1.27,7.19V19.76z"/>
	<path style="fill:#9B9B9B;" d="M64.52,27.2c1.21,1.67,4.92-0.17,8.1-4.57s2.61-8.22,0.95-8.54c-2.62-0.51-1.67,2.96-4.13,6.51
		S63.17,25.34,64.52,27.2z"/>
	<path style="fill:#9B9B9B;" d="M92.78,18.23c-1.63-0.94-3.85,3.76-6.91,7.19c-2.94,3.3-7.14,2.62-7.14,4.82s6.27,1.18,9.6-1.69
		C91.66,25.67,94.68,19.33,92.78,18.23z"/>
</g>
</svg>
