<?xml version="1.0" encoding="utf-8"?>
<!-- Generator: Adobe Illustrator 26.3.1, SVG Export Plug-In . SVG Version: 6.00 Build 0)  -->
<svg version="1.1" id="a" xmlns="http://www.w3.org/2000/svg" xmlns:xlink="http://www.w3.org/1999/xlink" x="0px" y="0px"
	 viewBox="0 0 128 128" style="enable-background:new 0 0 128 128;" xml:space="preserve">
<path style="fill:#232020;" d="M41.65,71.57c0,0-5.26-1.27-7.97-7.49S30.63,47.48,33.36,33c2.71-14.34,9.43-24.6,22.18-27.95
	s24.27,1.38,29.14,11.38c7.2,14.79,6.53,24.38,4.94,34.42S84.29,67.2,84.29,67.2L41.65,71.57z"/>
<path style="fill:#070707;" d="M44.91,68.72c0,0-3.92-3.36-4.25-8.84s1.79-10.63,1.79-10.63L60.86,35.8l21.54-2.44
	c0,0,3.33,6.86,2.62,15.61c-0.52,6.39-3.75,13.2-3.75,13.2l-10.74,3.64C70.53,65.81,44.91,68.72,44.91,68.72z"/>
<path style="fill:#583EE2;" d="M97.53,104.81l12.6-0.4c0,0-1.89-16.44-8.01-26.92c-6.79-11.62-15.54-15.34-15.54-15.34l-21.2,12.87
	l12.72,32.27L97.53,104.81L97.53,104.81z"/>
<path style="fill:#4B0FCE;" d="M19.29,99.41c0,0,6.23-14.4,16.14-24.76C46.3,63.29,55.16,59.18,55.16,59.18l22.63,0.2
	c0,0,2.35,0.61,4.6,1.23s4.19,1.53,4.19,1.53s-1.33,3.58-4.81,7.06c-3.48,3.48-8.59,5.01-8.59,5.01S19.29,99.41,19.29,99.41z"/>
<polygon style="fill:#351BA4;" points="37.74,103.09 80.94,90.47 73.76,72.53 48.05,76.25 38.81,99.71 "/>
<path style="fill:#573D36;" d="M42.44,49.25c0,0,0.49,1.98,2.6,3.22c1.47,0.86,4.15,0.69,4.15,0.69l-1.52-9.44l-2.04-0.58
	c0,0-1.02,1.68-1.82,3.21S42.45,49.25,42.44,49.25L42.44,49.25z"/>
<path style="fill:#573D36;" d="M60.04,61.24l0.62,8.33c0,0,2.52,2.65,9.14,1.7s7.93-3.78,8.06-4.34s-0.31-10.37-0.31-10.37
	l-17.5,4.68L60.04,61.24z"/>
<path style="fill:#70534A;" d="M45.63,43.14c0,0,0.22,7.95,5.91,13.86s11.74,8.24,19.04,6.2c7.3-2.04,12.69-9.12,12.99-17.87
	S82.4,33.37,82.4,33.37s-5.85-2.64-11.25-6.95c-5.4-4.3-7.42-7.71-7.42-7.71s-0.07,3.28-3.57,7.22s-8.19,8.74-10.07,11.02
	c-2.77,3.36-4.45,6.2-4.45,6.2L45.63,43.14z"/>
<path style="fill:#4A2F27;" d="M63.08,49.44c0.3,1.13,3.21,2.01,4.54,1.69c1.87-0.46,3.41-3.02,2.66-3.7
	c-0.91-0.84-2.7,1.02-3.28,1.1C65.83,48.69,62.72,48.08,63.08,49.44L63.08,49.44z"/>
<path style="fill:#1A1717;" d="M62.63,55.18c0.4,1.11,3.54,1.46,5.71,1.14s6.03-3.15,4.77-4.19c-1.1-0.9-2.85,0.97-4.83,1.4
	c-0.99,0.21-2.32,0.34-3.5,0.45c-0.63,0.06-1.27,0-1.69,0.23C62.73,54.4,62.51,54.83,62.63,55.18L62.63,55.18z"/>
<g>
	<path style="fill:#1A1717;" d="M68.37,33.51c0.34,1.12,1.44,0.69,4.59,0.05s4.8-0.75,4.64-1.81c-0.17-1.16-2.29-0.94-5.01-0.85
		c-3.25,0.11-4.59,1.39-4.21,2.61H68.37z"/>
	<path style="fill:#1A1717;" d="M48.34,39.67c0.59,1.17,3.2-0.69,4.75-1.33s4.59-1.23,4.43-2.51s-3.15-0.91-5.28-0.05
		c-1.69,0.68-2.13,1.08-2.13,1.08l-0.69,0.84l-0.97,1.22C48.45,38.92,48.16,39.3,48.34,39.67z"/>
</g>
<g>
	<path style="fill:#1A1717;" d="M50.61,44.39c-0.21,1,1.76,2.67,5.01,2.19s5.23-2.88,4.48-4s-2.19,0.53-4.91,1.07
		C52.88,44.1,50.82,43.38,50.61,44.39L50.61,44.39z"/>
	<path style="fill:#1A1717;" d="M69.54,40.14c-0.59,1.41,1.97,2.51,4.96,1.97s5.58-3.33,4-4.43c-0.69-0.48-1.81,0.8-4.32,1.49
		C72.01,39.77,70.07,38.85,69.54,40.14L69.54,40.14z"/>
</g>
<g>
	<path style="fill:#FFFDE7;" d="M75.59,70.09c0,0-1.22-6.04-6.83-9.09s-10.98-5.43-11.46-5.43s-5.3,0.79-7.99,6.46
		s-0.85,10.61-0.61,11.28s12.07,6.16,16.46,6.95s7.2-2.07,7.2-2.07l3.23-8.11V70.09z"/>
	<path style="fill:#E2DEFA;" d="M51.63,66.02c0,0,0.3-2.4,1.46-3.81s1.94-1.94,1.94-1.94l7.93,2.8l-0.73,1.83
		c0,0-4.45-0.85-6.16-0.67S51.63,66.02,51.63,66.02z"/>
	<path style="fill:#FFEBB1;" d="M72.36,67.71c0,0-2.13-3.29-5.49-5.18s-7.93-3.96-8.84-3.96s-2.99,1.71-2.99,1.71
		s0.99,1.02,3.17,2.01c2.48,1.13,3.9,1.4,4.02,1.59c0.27,0.41,0,1.04,0,1.04s3.78,0.98,5.18,1.4s4.82,1.59,4.94,1.4L72.36,67.71z"/>
</g>
<path style="fill:#4396A9;" d="M70.52,72.67c-2.5,3.9-2.13,7.57-2.13,7.57s1.54-0.2,2.63-0.94s5.01-7.82,4.79-8.64
	s-0.59-1.83-0.59-1.83S72.58,69.47,70.52,72.67z"/>
<g>
	<path style="fill:#6DCBE0;" d="M70.1,79.78c0,0-0.31-2.7,1.65-5.88s3.89-3.75,3.89-3.75s2.41,0.12,3.92,1.47
		c1.99,1.79,1.95,3.37,1.95,3.37l-4.58,7.85c0,0-1.8,0.87-4.36-0.59C70.76,81.22,70.1,79.78,70.1,79.78z"/>
	<path style="fill:#50AFC4;" d="M79.78,75.34c0,0-1.79-1.56-2.74-2.18s-2.46-1.52-2.97-0.7s1.11,1.47,2.51,2.5S79,76.91,79,76.91
		l0.77-1.57H79.78z"/>
	<path style="fill:#50AFC4;" d="M77.6,79.09c0,0-1.83-0.55-2.93-1.1s-2.38-1.77-3.05-0.98s0.98,2.01,2.32,2.74s3.66,1.04,3.66,1.04
		v-1.71V79.09z"/>
</g>
<g>
	<path style="fill:#FDFEFA;" d="M76.75,85.59c0,0-0.15-3.05-0.07-3.75c0.47-4,1.77-7.07,6.24-9.66c4.77-2.76,10.23-2.25,13.63-0.36
		c3.48,1.94,5.15,4.75,5.15,4.75L83.47,94.73l-6.73-9.15L76.75,85.59z"/>
	<path style="fill:#DFD7C5;" d="M76.67,82.08c0,0,1.52,3.08,4.3,3.97c1.83,0.59,2.55,0.1,2.55,0.1l0.58,9.91l-5.14-4.98l-2.2-5.5
		c0,0-0.1-0.54-0.13-0.77c-0.06-0.46,0.04-2.74,0.04-2.74L76.67,82.08z"/>
	<path style="fill:#C6E1A5;" d="M84.27,92.1c0,0-3.86-8.58,0.67-14.78c4.52-6.19,12.96-3.95,12.96-3.95
		c1.88,0.36,6.46,2.97,7.05,8.12c0.52,4.64-3.53,11.31-3.53,11.31S84.27,92.1,84.27,92.1z"/>
	<path style="fill:#A1C07D;" d="M82.81,86.21c0,0,5.33,6.89,14.37,5.05c9.3-1.88,7.25-11.6,7.25-11.6s5.73,9.4-2.07,15.96
		c-1.59,1.34-13.54,11.78-13.54,11.78s-3.55-8.33-4.35-10.58C82.61,91.58,82.81,86.21,82.81,86.21z"/>
</g>
<g>
	<path style="fill:#C7C7C7;" d="M35.53,106.15l-0.24,5.62c0,0-0.4,3.59,2.77,6.76c5.05,5.05,16.35,4.59,16.35,4.59l12.25-7.85
		l-4.07-8.23l-6.68-5.7L35.53,106.15L35.53,106.15z"/>
	<path style="fill:#E0E0E0;" d="M40.99,99.63c0,0,2.93-3.1,5.38-4.73s12.14-5.54,14.75-6.36s9.15-3.31,9.15-3.31l1.28,12.35
		l-7.06,8.55l-7.52-2.11c0,0-0.81,0.73-0.24,2.53s2.28,3.1,2.28,3.1l-9.53,1.16c0,0-3.59-0.1-7.01-0.18s-7.01-0.9-7.01-0.9
		L40.99,99.63L40.99,99.63z"/>
	<path style="fill:#9A9A9A;" d="M70.26,85.24c0,0,2.14-0.65,3.62-0.77s2.73-0.12,2.73-0.12s1.96,5.1,6.05,9.43s8.84,7.83,8.84,7.83
		l-11.04,11.04l-17.39-4.75c0,0,0.88-7.43,3.44-13.88C69.24,87.14,70.25,85.24,70.26,85.24L70.26,85.24z"/>
	<path style="fill:#C7C7C7;" d="M72.52,100.19l-5.28,6.7l8.54,2.2l14-5.64l-1.19-0.65c0,0-3.5-3.09-5.7-5.16
		c-2.2-2.08-3.68-4.57-3.68-4.57L72.52,100.19L72.52,100.19z"/>
	<path style="fill:#E0E0E0;" d="M66.25,106.14c0,0,1.88-8.15,3.48-12.48s3.44-9.2,4.09-9.02s5.4,8.43,5.4,8.43s-1.42,4.75-4.09,7.54
		s-7.48,5.76-7.48,5.76l-1.4-0.22V106.14z"/>
</g>
<path style="fill:#492C25;" d="M58.25,103.02c0,0-1.04,0.59-0.69,1.73s1.58,2.23,2.52,2.77s2.03,1.09,1.43,1.53s-12,1.76-12,1.76
	s-0.72,1.85,1.46,2.3s6.48,0.84,6.48,0.84s3.27,0.13,3.22,0.72s-9.86,0.07-9.86,0.07s-2.32,0.28-2.32,1.58
	c0,0.95,1.23,1.44,1.23,1.44s-1.02,0.7-0.33,1.69c0.9,1.3,3.56,1.48,3.56,1.48s-0.83,0.3-0.28,1.29s3.25,1.64,9.68,1.78
	c7.8,0.18,11.36-1.6,11.36-1.6l2.81-6.69l-12.04-9.57C64.48,106.14,58.25,103.02,58.25,103.02z"/>
<path style="fill:#70534A;" d="M73.47,107.88c0,0-1.06-0.3-4.86-1.47c-3.67-1.13-5.51-1.8-7.32-2.62c-1.34-0.61-2.67-1.14-3.03-0.78
	c-0.41,0.41,0.41,1.83,1.71,2.72c1.31,0.89,3.97,2.13,3.79,2.89s-4.57,0.93-7.3,1.12c-2.71,0.2-6.6,0.23-6.99,1.08
	s1.4,1.09,2.29,1.2c1.25,0.16,6.13,0.69,7.4,0.74c2.49,0.1,3.34,0.3,3.37,0.88c0.03,0.85-8.39,0.9-10.01,0.95
	c-1.21,0.04-2.95,0.07-3.22,0.69c-0.45,1.06,4,1.33,6.37,1.34c1.32,0,5.88-0.11,5.91,0.66c0.03,0.7-5.06,0.77-6.27,0.77
	c-1.44,0-5.3-0.25-5.3-0.25s-0.16,0.74,0.63,1.19c0.85,0.49,3.15,0.77,4.98,0.77c2.33,0,6.21-0.28,6.25,0.39
	c0.05,0.73-3.12,0.87-4.04,0.83c-0.81-0.03-3.75-0.11-4.25-0.04c-0.42,1.4,4.75,1.81,8,1.79c8.18-0.05,14.99-4.36,14.99-4.36
	l1.39-6.37l-4.5-4.13L73.47,107.88z"/>
<g>
	<path style="fill:#583EE2;" d="M110.13,104.44c0,0-0.52-10.66-7.92-8.8c-7.3,1.84-13.4,7.7-19.27,9.79
		c-4.7,1.67-9.75,2.37-9.75,2.37s0.74,2.26,0.74,4.61c0,2.37-0.13,4.83-0.13,4.83l17.83,0.96l16.24-7.28c0,0,2.35-4.07,2.26-6.47
		L110.13,104.44z"/>
	<path style="fill:#4B0FCE;" d="M81.13,121.44c-3.55,0.32-7.55,1.09-7.55,1.09l0.23-5.32c0,0,5.2-0.66,8.24-0.75
		c3.03-0.09,7.38-0.24,15.34-2.75s12.76-9.31,12.76-9.31s0.2,4.89-2.08,8.37c-2.33,3.55-7.24,5.61-8.8,6.04
		c-6.77,1.86-16.53,2.49-18.13,2.63H81.13z"/>
</g>
<g>
	<path style="fill:#4B0FCE;" d="M36.54,87.61l-17.6,23.42c0,0,1.59,5.18,8.21,5.18s9.49-5.85,11.7-10.49s7.86-16.83,8.19-17.83
		s-1.79-2.48-1.79-2.48l-8.72,2.21L36.54,87.61z"/>
	<path style="fill:#583EE2;" d="M41.83,76.02l-5.01,4.02c0,0-7.46,7.79-9.67,10s-4.97,4.64-5.96,5.96s-3.58,5.73-3.31,10.05
		c0.2,3.15,1.07,5.03,1.07,5.03s7.54,0.27,9.63-0.95c2.1-1.21,8.72-10.49,10.93-14.46s6.29-12.59,6.29-12.59L41.83,76.02
		L41.83,76.02z"/>
</g>
<path style="fill:#492C25;" d="M44.16,80.1l-2.64,5.57c0,0,2.06,1.09,4.44,0.88c3.05-0.27,4.92-2.71,4.89-2.58
	c-0.05,0.23,0,1.11,0.83,1.11s3.53-0.71,4.35-1.24s1.39-1.45,1.39-1.45s1,0.23,1.41-0.82s0.23-4.75,0.23-4.75l-1.2-3.11
	c0,0,3.96-1.35,5.84-1.99c1.88-0.64,3.58-1.06,3.75-1.99s-0.06-1.5-0.06-1.5l-13.01,2.28c0,0,0.14-1.46,0.56-1.98
	c0.45-0.56,2.64-2.24,4.06-3.03c1.52-0.86,3.26-2.01,3.93-2.59s0.88-1.53,0.62-2.1c-0.22-0.49-0.69-0.42-0.69-0.42L49.15,68.8
	l-4.99,11.32L44.16,80.1z"/>
<path style="fill:#70534A;" d="M36.82,80.04c0,0,4.58-5.75,6.51-7.8s6.57-6.51,9.92-8.27c3.34-1.76,9.26-3.57,9.63-3.6
	c0.82-0.06,0.27,1.09-0.32,1.5s-5.79,3.21-6.44,3.74s-3.58,2.7-2.99,3.58s4.4-0.88,6.34-1.23s6.98-0.23,7.69,0.06
	s0.06,1.64-1.99,1.88c-2.05,0.23-3.88,0.5-4.46,0.59s-5.87,2.05-5.87,2.05s3.71,0.48,4.49,2.02c2.23,4.4-0.85,7.72-1.21,7.78
	s0.94-3.75-0.59-5.34s-3.64-1.53-4.34-1.35s-0.7,1,0.23,1.17s3.04,0.27,3.4,1.47c0.53,1.76,0.06,5.49-2.11,6.08
	c-2.17,0.59-3.67,1.13-3.6,0.29c0.18-1.94,2.95-2.21,3.01-3.91c0.03-0.76-1.17-1.35-1.82-1.29s-3.1,2.92-5.05,4.17
	c-2.69,1.72-5.75,2.05-5.75,2.05s-2.37-1.32-3.29-2.64c-1.06-1.53-1.41-2.99-1.41-2.99L36.82,80.04z"/>
</svg>
