<?xml version="1.0" encoding="utf-8"?>
<!-- Generator: Adobe Illustrator 26.3.1, SVG Export Plug-In . SVG Version: 6.00 Build 0)  -->
<svg version="1.1" id="a" xmlns="http://www.w3.org/2000/svg" xmlns:xlink="http://www.w3.org/1999/xlink" x="0px" y="0px"
	 viewBox="0 0 128 128" style="enable-background:new 0 0 128 128;" xml:space="preserve">
<path style="fill:#DBA689;" d="M81.92,77.62c0,0,9.5,0.1,11.33-9.65c1.92-10.27-5.47-11.95-5.47-11.95L81.92,77.62z"/>
<path style="fill:#DBA689;" d="M17.49,57.81c0,0-9.42-1.25-6.44,10.48c2.59,10.19,12.31,9.33,12.31,9.33S17.49,57.81,17.49,57.81z"
	/>
<path style="fill:#AB872F;" d="M50.12,76.35L17.96,64.87c0,0-6.66-22.09-0.1-38.77C23.07,12.84,34.73,4.59,51.04,4.22
	c17.44-0.4,29.59,7.04,35.23,20.58c6.81,16.35-0.33,39.82-0.33,39.82L50.12,76.35L50.12,76.35z"/>
<path style="fill:#C48E6A;" d="M40.74,98.08c0,0,1.61,15.38,12.22,15.49c9.55,0.1,11.56-14.45,11.56-14.45l-0.1-6.09H40.78
	L40.74,98.08L40.74,98.08z"/>
<g>
	<path style="fill:#06927F;" d="M52.56,121.18c0,0,2.64-4.48,6.48-7.04c-1.98-3.11-4.58-5.64-6.47-5.88c0,0-3.02,0.4-4.58,1.9
		c-1.56,1.51-2.45,3.6-2.45,3.6c3.09,2.56,7.02,7.41,7.02,7.41L52.56,121.18z"/>
	<path style="fill:#EFEFEF;" d="M40.62,94.71c-2.78,0.72-4.87,1.81-7.19,2.67c0.84,6.58,4.75,16.93,8.91,19.59l10.21-8.72
		c-8.3-4.34-11.17-12.35-11.94-13.55L40.62,94.71z"/>
	<path style="fill:#EFEFEF;" d="M64.49,95.05c-0.77,1.2-3.65,8.88-11.91,13.22l8.72,8.39c4.91-2.88,9.14-12.64,10.34-19.23
		C69.5,96.33,67.03,95.37,64.49,95.05z"/>
</g>
<path style="fill:#545454;" d="M88.43,102.91c-5.72-2.81-11.46-4.38-16.84-5.27c-0.79,3.92-3.44,8.02-6.42,11.36
	c-3.57,4.01-10.47,8.49-12.64,8.56s-10.08-5.85-12.45-8.52c-3.01-3.39-6.03-7.5-6.61-11.48c-0.76,0.13-1.53,0.27-2.29,0.42
	c-8.71,1.82-15.31,6.36-19.16,10.08c-4.87,4.7-8.54,13.57-7.8,15.09c0.44,0.9,23.37,0.6,48.03,0.43
	c24.92-0.17,49.85,0.36,49.89-0.12c0.09-0.99-3.18-15.39-13.72-20.58L88.43,102.91z"/>
<g>
	<g id="b">
		<path style="fill:#DD8A3E;" d="M99.36,123.68l1.78-8.96c0.07-0.32,0.18-0.62,0.32-0.91l4.34-8.93c1.13-2.34-0.62-3.4-3.13-4.1l0,0
			c-2.51-0.71-4.56-0.72-4.8,1.87l-0.96,9.88c-0.02,0.32-0.1,0.63-0.2,0.94l-3.77,10.21h6.43H99.36z"/>
		<path style="fill:#DD8A3E;" d="M103.17,93.35l2.53,0.71c1.85,0.53,2.94,2.46,2.42,4.32l-0.17,0.6c-0.53,1.85-2.46,2.94-4.32,2.42
			l-2.53-0.71c-1.85-0.53-2.94-2.46-2.42-4.32l0.17-0.6C99.38,93.91,101.32,92.82,103.17,93.35z"/>
		
			<rect x="100.71" y="73.09" transform="matrix(0.2709 -0.9626 0.9626 0.2709 -4.5654 166.5517)" style="fill:#995F33;" width="13.91" height="26.39"/>
		<path style="fill:#DD8A3E;" d="M110.1,95.67l-10.78-3c-1.54-0.43-3.36-1.37-1.9-5.36l3.01-9.08c0.42-1.48,2-2.34,3.55-1.91
			l10.78,3c1.54,0.43,2.6,0.96,2.02,3.45l-3.13,10.97c-0.44,1.5-2.02,2.36-3.55,1.92V95.67z"/>
		<path style="fill:#DD8A3E;" d="M96.83,82.19c1.75-6.23,2.31-7.6-0.11-8.28s-5.04,2.56-6.37,7.3c-1.33,4.73-0.87,9.15,1.55,9.83
			c2.42,0.68,3.19-2.62,4.94-8.85L96.83,82.19z"/>
		<path style="fill:#DD8A3E;" d="M117.1,88.91c1.75-6.23,2-8.7,4.42-8.02c2.42,0.68,2.97,4.83,1.64,9.57
			c-1.33,4.73-4.05,8.24-6.47,7.56S115.35,95.14,117.1,88.91z"/>
	</g>
	<path style="fill:#995F33;" d="M98.68,96.38c0,0,2.02,1.27,4.4,1.91c2.72,0.73,4.97,0.08,4.88,0.7s-1.29,3.62-5.67,2.35
		c-3.5-1.01-4.27-3.15-3.6-4.96H98.68z"/>
</g>
<path style="fill:#666666;" d="M43.8,118.72c-7.75,0-14.03-0.17-14.81-0.69c-1.96-1.31-12.12-13.11-12.54-13.6l0.94-0.64
	c2.89,3.36,10.71,12.29,12.24,13.3c1.98,0.99,43.02,0.31,46.23-0.05c1-0.9,7.74-9.25,11.89-14.46l1.03,0.51
	c-11.62,14.6-12.32,14.97-12.52,15.03c-0.2,0.07-18.65,0.61-32.45,0.61L43.8,118.72z"/>
<path style="fill:#666666;" d="M17.18,123.78h-1.12c0.05-0.17,1.21-3.7,2.8-6.22c1.86-2.95,4.59-5.62,4.71-5.73l0.79,0.82
	c0,0-2.75,2.69-4.54,5.52C18.3,120.57,17.19,123.75,17.18,123.78z"/>
<path style="fill:#666666;" d="M27,123.78h-1.16c0.02-0.08,0.36-1.78,1.07-3.44c0.86-2.01,1.95-3.13,2-3.18l0.81,0.8
	c0,0-0.99,1.03-1.76,2.83C27.3,122.33,27.04,123.64,27,123.78L27,123.78z"/>
<path style="fill:#666666;" d="M87.93,123.67h1.22c-0.05-0.15-1.31-3.96-2.9-6.48c-1.86-2.95-4.59-5.62-4.71-5.73l-0.79,0.82
	c0,0,2.75,2.69,4.54,5.52c1.52,2.4,2.63,5.84,2.65,5.87L87.93,123.67z"/>
<path style="fill:#666666;" d="M78.14,123.62h1.17c-0.02-0.08-0.4-2-1.11-3.65c-0.86-2.01-1.95-3.13-2-3.18l-0.81,0.8
	c0,0,0.99,1.03,1.76,2.83C77.81,121.96,78.14,123.61,78.14,123.62z"/>
<path style="fill:#E0BB95;" d="M25.29,37.25c-1.54,0.98-1.43,14.18-2.31,19.85c-0.93,5.99-5.06,7.67-5.06,7.67s2.21,8.77,5.69,15.45
	c4.77,9.18,14.33,18.57,29.04,18.58c12.25,0,19.31-6.51,23.98-12.14c6.94-8.37,9.31-22.04,9.31-22.04s-2.44-1.92-4.15-7.53
	c-2-6.54-1.67-19.3-3.43-20.5s-11.43-0.44-27.47-0.22c-12.73,0.17-24.06-0.11-25.6,0.87L25.29,37.25z"/>
<g>
	<path style="fill:#9B782C;" d="M27.76,50.69c0.8,1.3,3.52-0.74,7.85-0.87c3.54-0.1,6.62,2.42,7.35,0.12
		c0.87-2.72-2.04-3.89-7.29-3.65c-5.37,0.25-8.99,2.65-7.91,4.39L27.76,50.69z"/>
	<path style="fill:#9B782C;" d="M61.81,50.53c1.79,0.49,3.15-0.8,6.8-0.56c3.41,0.23,6.74,1.73,7.72,0.62s-1.55-3.78-7.17-4.33
		c-5.07-0.49-8.16,0.87-8.53,1.98S61.07,50.32,61.81,50.53L61.81,50.53z"/>
</g>
<g>
	<path style="fill:#3F4040;" d="M35.55,54.39c-4.14-0.06-5.75,3.52-5.5,6.06c0.25,2.53,2.16,4.94,5.81,4.88
		c3.47-0.06,5.38-2.35,5.38-5.38S39.39,54.45,35.55,54.39z"/>
	<path style="fill:#3F4040;" d="M68.72,54.27c-3.09-0.33-5.93,1.85-5.81,5.56c0.14,4.14,3.77,5.44,5.75,5.44
		c2.84,0,5.14-2.1,5.19-5.13C73.91,56.74,72.18,54.64,68.72,54.27z"/>
</g>
<path style="fill:#C48E6A;" d="M52.67,69.84c-3.09,0.06-4.25-0.99-5.34,0.12c-1,1.02-0.11,2.47,1.56,3.76
	c2.26,1.76,5.76,1.7,7.58,0.07c1.8-1.61,2.57-2.97,1.42-3.95c-1.16-0.99-2.06-0.06-5.21,0L52.67,69.84z"/>
<path id="c" style="fill:#785446;" d="M44.3,83.09c-2.12-0.98-2.42-3.6,0.25-3.63c0.56,0,4.62,0.55,8.33,0.55s7.61-0.42,8.16-0.49
	c2.8-0.37,2.57,2.72,0.58,3.49c-1.48,0.58-3.77,1.28-8.66,1.28C49,84.29,45.56,83.67,44.3,83.09L44.3,83.09z"/>
</svg>
