<?xml version="1.0" encoding="utf-8"?>
<!-- Generator: Adobe Illustrator 26.3.1, SVG Export Plug-In . SVG Version: 6.00 Build 0)  -->
<svg version="1.1" id="a" xmlns="http://www.w3.org/2000/svg" xmlns:xlink="http://www.w3.org/1999/xlink" x="0px" y="0px"
	 viewBox="0 0 128 128" style="enable-background:new 0 0 128 128;" xml:space="preserve">
<g>
	<path style="fill:#573D36;" d="M93.73,78.2c0,0,9.62,0.1,11.47-9.77c1.95-10.4-5.54-12.1-5.54-12.1L93.73,78.2z"/>
	<path style="fill:#573D36;" d="M28.48,58.14c0,0-9.54-1.27-6.52,10.61c2.62,10.32,12.46,9.44,12.46,9.44L28.48,58.14L28.48,58.14
		L28.48,58.14z"/>
</g>
<path style="fill:#232020;" d="M61.52,76.92L28.96,65.3c0,0-6.75-22.37-0.11-39.26C34.13,12.61,45.94,4.25,62.46,3.88
	C80.12,3.48,92.42,11,98.13,24.72c6.9,16.56-0.33,40.32-0.33,40.32S61.52,76.92,61.52,76.92z"/>
<path style="fill:#70534A;" d="M36.38,37.32c-1.56,0.99-1.45,14.35-2.34,20.1c-0.94,6.07-5.13,7.77-5.13,7.77s2.24,8.88,5.76,15.65
	c4.83,9.29,14.51,18.8,29.41,18.81c12.4,0,19.55-6.59,24.28-12.29c7.03-8.47,9.43-22.31,9.43-22.31s-2.47-1.95-4.2-7.62
	c-2.03-6.62-1.69-19.54-3.47-20.76s-11.57-0.44-27.82-0.22C49.41,36.63,37.93,36.34,36.38,37.32L36.38,37.32L36.38,37.32z"/>
<path style="fill:#4A2F27;" d="M64.11,70.33c-3.13,0.06-4.3-1-5.41,0.13c-1.01,1.03-0.11,2.5,1.58,3.81
	c2.29,1.78,5.84,1.72,7.67,0.07c1.82-1.63,2.61-3,1.43-4C68.21,69.34,67.3,70.28,64.11,70.33L64.11,70.33L64.11,70.33z"/>
<path style="fill:#1A1717;" d="M38.89,50.93c0.81,1.31,3.57-0.75,7.95-0.88c3.58-0.1,6.71,2.45,7.45,0.13
	c0.88-2.75-2.06-3.94-7.38-3.69c-5.44,0.26-9.1,2.68-8.01,4.44C38.9,50.93,38.89,50.93,38.89,50.93z"/>
<path style="fill:#1A1717;" d="M73.37,50.77c1.81,0.5,3.19-0.81,6.88-0.56c3.45,0.23,6.82,1.75,7.82,0.63s-1.57-3.83-7.26-4.38
	c-5.13-0.5-8.26,0.88-8.64,2s0.44,2.11,1.19,2.32L73.37,50.77L73.37,50.77z"/>
<path style="fill:#1A1717;" d="M46.78,54.68c-4.19-0.06-5.82,3.57-5.57,6.13s2.19,5.01,5.88,4.94c3.51-0.06,5.44-2.38,5.44-5.44
	s-1.88-5.57-5.76-5.63C46.77,54.68,46.78,54.68,46.78,54.68z"/>
<path style="fill:#1A1717;" d="M80.36,54.56c-3.13-0.33-6.01,1.88-5.88,5.63c0.14,4.19,3.81,5.51,5.82,5.51
	c2.88,0,5.2-2.13,5.26-5.19c0.06-3.44-1.69-5.57-5.19-5.94h-0.01V54.56z"/>
<path style="fill:#00BDA3;" d="M10.78,123.19c-0.79-1.64,3.34-15.04,11.87-18.99s31.06-4.98,31.06-4.98s2.55,8.69,12.89,8.18
	c10.34-0.5,11.65-8.66,11.65-8.66s22.58,2.26,28.8,4.95c10.44,4.52,10.94,16.48,9.88,18.71c-0.75,1.59-27.67,1.25-54.22,1.54
	S10.78,123.19,10.78,123.19z"/>
<g>
	<path style="fill:#E0E0E0;" d="M69.23,93.64l-57.28,4.94c0,0-2.99-14.55,0.39-18.7c3.38-4.16,9.09-3.38,15.59-3.64
		c2.93-0.12,73.33-0.34,76.11-0.13c5.07,0.39,9.12-0.17,10.78,4.94c1.37,4.23-1.3,15.07-1.3,15.07l-44.29-2.47l0,0V93.64z"/>
	<path style="fill:#B0B0B0;" d="M16.5,123.77c-0.88-0.27-4.55-23.12-5.07-28.44s1.43-12.6,7.14-12.86s83.25-0.26,87.67-0.13
		c4.42,0.13,8.7,4.29,7.53,11.69s-4.82,29.42-5.71,29.61C105.95,124.1,18.58,124.42,16.5,123.77z"/>
</g>
<g>
	<path style="fill:#858585;" d="M64.97,100.87c-6.93-0.01-9.8,4.9-10.1,9.16c-0.42,5.92,2.82,7.68,9.93,7.68s10.17-1.2,9.65-7.99
		C74.09,105.04,70.82,100.88,64.97,100.87z"/>
	<path style="fill:#B0B0B0;" d="M68.22,109.25c1.04-0.03,1.7-0.84,1.73-2.03c-0.01-1.17-0.9-1.88-1.86-1.86s-1.58,0.93-1.6,2.01
		S67.28,109.29,68.22,109.25z"/>
	<path style="fill:#B0B0B0;" d="M61.49,109.17c0.92-0.16,1.57-0.89,1.33-2.31c-0.32-1.34-1.21-1.84-2.28-1.54s-1.24,1.7-1.03,2.52
		C59.76,108.81,60.58,109.32,61.49,109.17z"/>
	<path style="fill:#B0B0B0;" d="M59.26,111.76c-0.53,0.83,1.93,3.06,5.78,3.02c4.33-0.04,6.13-2.71,5.12-3.46
		c-1.4-1.03-1.44,0.96-5.21,1.01S60.28,110.14,59.26,111.76z"/>
</g>
</svg>
