<?xml version="1.0" encoding="utf-8"?>
<!-- Generator: Adobe Illustrator 26.3.1, SVG Export Plug-In . SVG Version: 6.00 Build 0)  -->
<svg version="1.1" id="a" xmlns="http://www.w3.org/2000/svg" xmlns:xlink="http://www.w3.org/1999/xlink" x="0px" y="0px"
	 viewBox="0 0 128 128" style="enable-background:new 0 0 128 128;" xml:space="preserve">
<path style="fill:#AF2C96;" d="M31.23,43.77c0,0-7.5,8.47-6.62,22.7c0.9,14.6,17.05,21.24,19.38,27.76s1.46,13.54,1.46,13.54
	l57.96-3.99c0,0,4.75-4.07,5.69-12.33c1.62-14.19-2.87-20.57-2.87-20.57L86.66,49.81l-21.67-2.36
	C64.99,47.45,31.23,43.77,31.23,43.77z"/>
<path style="fill:#DBA689;" d="M32.37,60.97c0,0-1.75-5.27-2.56-5.28S24,59.02,26.3,66.45c2.17,7.03,8.67,6.95,8.67,6.95
	l-2.59-12.43C32.38,60.97,32.37,60.97,32.37,60.97z"/>
<rect x="41.64" y="13.32" style="fill:#7A166C;" width="26.68" height="15.91"/>
<polygon style="fill:#E0BB95;" points="57.53,122.09 60.78,122.49 64.03,122.47 75.67,106.15 45.84,99.2 42.44,101.34 "/>
<path style="fill:#C48E6A;" d="M51.39,90.88c0,0,0.51,4.47-0.32,5.11s-6.77,2.36-6.77,2.36s5.86,7.72,16.68,8.75
	c10.03,0.96,14.69-0.96,14.69-0.96l4.98-9.71l-12.97-5.05l-16.29-0.51l0,0V90.88z"/>
<polygon style="fill:#5D18F6;" points="64.03,122.48 77.78,99.4 83.38,98.83 82.6,107.59 68.68,122.44 "/>
<path style="fill:#5D18F6;" d="M60.78,122.49L45.06,98.06c0,0-4.39,1.78-7.63,1.78s-6.3,0.02-9.14-1.39s-6.78-4.97-7.8-4.1
	s1.97,7.33,3.15,8.99s2.27,2.58,2.27,2.58s-3.72,2.43-6.05,6.88c-1.62,3.09-3.04,9.08-2.52,9.46
	C18.28,122.95,60.78,122.5,60.78,122.49L60.78,122.49L60.78,122.49z"/>
<path style="fill:#907BF3;" d="M81.12,101.83c0,0-3.23,5.36-5.91,9.46c-2.68,4.1-6.85,11.02-6.71,11.19s24.59,0.17,25.3-0.15
	s-6.76-18.85-6.76-18.85l-5.91-1.66h-0.01V101.83z"/>
<path style="fill:#907BF3;" d="M35.16,99.84c0.39-0.39,1.67-0.56,2.53-0.66c1.11-0.13,2.76-0.12,3.16,0.14
	c1.58,1.02,15.31,23.08,15.15,23.25s-8.97,0.05-13.07,0.05s-10.54,0.02-10.54,0.02s0-7.88,0.87-13.72c0.87-5.83,1.9-9.09,1.9-9.09
	l0,0V99.84z"/>
<path style="fill:#E0BB95;" d="M32.12,48.87c0,0-1.5,19.76,5.2,30.94c3.21,5.35,12.82,13.67,25.06,13.8S82.37,86,86.77,79.41
	c8.17-12.26,4.28-31.78,4.28-34.08c0-3.53-13.07-10.94-13.07-10.94l-43.81,7.24L32.12,48.87L32.12,48.87L32.12,48.87z"/>
<path style="fill:#F964E5;" d="M36.1,43.39c0,0,0.15,21.7,0.15,22.62s0.26,3.49,2.22,2.47s4.27-2.63,4.27-2.63
	s-1.14,10.63-1.34,13.1s-0.6,5.17-0.6,5.17s0.37,0.41,0.78,0.79c0.36,0.33,1.44,1.24,1.44,1.24s7.09-15.4,11.22-23.09
	s7.11-15.48,7.89-16.93s-0.89-1.56-1.67-1.11s-5.89,2.76-5.89,2.76l2.71-11.18C57.28,36.6,36.1,43.39,36.1,43.39z"/>
<path style="fill:#5D18F6;" d="M31.51,49.26c1.08,0.81,10.39-8.6,30.88-8.5c20.49,0.1,35.05,8.5,36.08,7.89s0-7.72-0.82-12.36
	c-0.82-4.63-4.12-8.04-4.12-8.04s-11.51-6.65-29.65-7c-18.13-0.35-30.67,7.17-31.45,8.61S30.43,48.45,31.51,49.26z"/>
<path style="fill:#757575;" d="M71.96,83.6c-5.45,5.61-1.24,12.04-1.24,12.04l1.77,2.25c0,0,6.54,5.49,12.71-1
	c6.16-6.5,0.59-12.4,0.59-12.4s-1.26-1.43-1.93-1.93s-6.97-4.01-11.89,1.05l0,0L71.96,83.6z"/>
<path style="fill:#81AEC0;" d="M85.96,100.44l-2.97,4.14c0,0-3.86-3.52-3.91-4.43s0.53-3.96,3.39-6.54
	c2.87-2.58,5.48-2.04,5.86-1.99s4.22,3.61,4.27,4.19S85.96,100.44,85.96,100.44z"/>
<path style="fill:#93D1E0;" d="M79.77,98.26c0.16,0.52,1.59,2.06,2.1,2.06s1.93-2.12,3.8-3.69c2.14-1.78,4.44-2.1,4.56-2.34
	s-2.34-2.7-2.66-2.73s-2.26-0.4-4.95,1.78c-2.03,1.64-3.14,4-2.85,4.91l0,0V98.26z"/>
<path style="fill:#81AEC0;" d="M78.52,86.76l-2.71,0.63c0,0-2.22,1.94-3.97,5.12c-0.83,1.5-1.26,2.48-1.26,3.11s0.41,1.32,0.79,1.76
	s1.09,0.71,1.47,0.75c0.27,0.03,0.56-1.52,1.41-3.02s2.38-3.45,2.38-3.45S78.52,86.76,78.52,86.76z"/>
<path style="fill:#93D1E0;" d="M78.57,84.87c-2.81,2.01-5,4.48-5.04,5.37s0.21,1.04,0.68,1.48c0.67,0.62,1.39,0.83,1.92,0.52
	s1.85-2.45,4.3-4.38c3.16-2.49,5.87-2.59,5.87-2.95s-0.31-1.26-1.16-1.79s-1.48-0.6-1.48-0.6s-2.75,0.68-5.1,2.35
	C78.56,84.87,78.57,84.87,78.57,84.87z"/>
<path style="fill:#CABEFF;" d="M38.2,104.35c-1.03,0.06-1.45,0.9-1.45,2.14s0.48,2.14,1.73,2.14s1.73-0.83,1.52-2.62
	C39.88,104.98,39.31,104.28,38.2,104.35L38.2,104.35L38.2,104.35z"/>
<path style="fill:#CABEFF;" d="M35.65,110.76c-1.66-0.06-1.86,1.24-1.86,2.97s0.14,3.17,1.86,3.17s1.93-2,1.86-3.24
	S37.51,110.83,35.65,110.76z"/>
<path style="fill:#CABEFF;" d="M42.06,112.7c-1.66,0-1.93,1.24-1.93,2.83s0.48,2.83,1.93,2.83c1.36,0,2.07-1.24,1.86-3.11
	C43.78,114.01,43.64,112.7,42.06,112.7z"/>
<path style="fill:#CABEFF;" d="M47.24,117.67c-1.22,0.35-1.34,1.01-1.1,2.35c0.21,1.17,1.1,1.66,2.21,1.31
	c1.02-0.32,0.97-1.38,0.69-2.42S48.21,117.39,47.24,117.67L47.24,117.67L47.24,117.67z"/>
<path style="fill:#CABEFF;" d="M75.14,116.63c-1.53,0.1-1.85,1.3-1.85,2.69s0.46,2.32,1.76,2.32s1.9-0.97,1.81-2.41
	S76.63,116.54,75.14,116.63z"/>
<path style="fill:#CABEFF;" d="M77.95,110.56c-1.38-0.11-1.79,1.12-1.88,2.63s0.51,2.14,1.62,2.19s1.58-1.27,1.58-2.19
	S79.27,110.67,77.95,110.56z"/>
<path style="fill:#E0BB95;" d="M88.71,115.34l-4.19-5.27l-0.8,0.52c0,0-2.4-0.56-3.01,2.16c-0.61,2.73,1.13,5.74,6.35,8.47
	c6.98,3.65,16.84,1.6,16.84,1.6l-0.14-6.92l-15.06-0.56C88.7,115.34,88.71,115.34,88.71,115.34z"/>
<path style="fill:#A87254;" d="M97.03,100.57l-7.1-2.07l-6.87,6.49l-1.05,0.55c0,0-0.72,3.9,1.71,5.05
	c1.35,0.64,2.04,1.34,2.51,2.79c0.59,1.86,0.31,3.09,0.31,3.09s2.16,2.92,6.78,3.67c4.61,0.75,9.18,0.33,9.18,0.33l6.68-4.05
	c0,0-0.19-3.15-1.51-5.36C106.84,109.67,97.04,100.57,97.03,100.57L97.03,100.57L97.03,100.57z"/>
<path style="fill:#E0BB95;" d="M83.15,108.43c1.84,0.77,1.13-3.11,4.09-6.12c1.9-1.93,3.62-2.73,4.61-2.16s-1.59,1.52-3.19,3.3
	c-1.85,2.07-2.61,4.07-2.7,5.68c-0.09,1.84,1.36,2.73,2.21,0.61c0.45-1.14,1.55-3.51,3.32-5.1c1.36-1.22,3.12-1.77,3.88-1.16
	s-1.18,0.76-3.25,2.93c-1.89,1.98-3.19,4.46-3.39,5.68s0.89,2.16,1.41,1.69s2.29-3.7,3.99-5.36c1.84-1.79,3.82-2.73,4.43-1.89
	s-1.13,1.58-2.92,3.27s-3.39,4.07-3.3,5.48s1.32,1.88,1.88,1.51s4.08-5.52,8.94-6.68c3.15-0.75,4.47,0.94,4.47,0.94
	s-1.13-4.85-7.06-10.96c-4.82-4.97-7.53-4.31-8.61-4.33c-2.4-0.05-5.37,1.37-7.72,4.33c-2.68,3.39-3.15,7.48-1.13,8.33L83.15,108.43
	L83.15,108.43z"/>
<path style="fill:#C48E6A;" d="M61.82,67.6c-2.81,0.06-3.86-0.9-4.86,0.11c-0.91,0.93-0.1,2.24,1.42,3.42
	c2.06,1.6,5.24,1.54,6.89,0.07c1.64-1.46,2.34-2.7,1.29-3.6S64.69,67.54,61.82,67.6z"/>
<path style="fill:#785446;" d="M62.04,76.11c-2.24,0-5.02-0.63-6.66-0.47c-1.32,0.13-3.1,0.78-2.83,3c0.29,2.42,3.28,5.84,9.9,5.83
	c6.55-0.01,8.77-4.25,9.07-5.83c0.41-2.18-1.36-2.93-2.24-3.06C67.65,75.32,65.07,76.11,62.04,76.11L62.04,76.11L62.04,76.11z"/>
<g>
	<path style="fill:#825E1D;" d="M39.16,50.76c0.73,1.18,3.21-0.67,7.14-0.79c3.22-0.09,6.03,2.2,6.69,0.11
		c0.79-2.47-1.86-3.54-6.63-3.32C41.47,46.99,38.18,49.17,39.16,50.76L39.16,50.76L39.16,50.76z"/>
	<path style="fill:#9B782C;" d="M70.15,50.62c1.63,0.45,2.87-0.73,6.19-0.51c3.1,0.21,6.13,1.57,7.03,0.56s-1.41-3.44-6.52-3.94
		c-4.61-0.45-7.42,0.79-7.76,1.8s0.4,1.9,1.07,2.08L70.15,50.62L70.15,50.62z"/>
</g>
<g>
	<path style="fill:#3F4040;" d="M46.25,54.13c-3.77-0.06-5.23,3.21-5,5.51c0.22,2.31,1.97,4.5,5.29,4.44s4.89-2.14,4.89-4.89
		s-1.69-5.01-5.17-5.06C46.26,54.13,46.25,54.13,46.25,54.13z"/>
	<path style="fill:#3F4040;" d="M76.43,54.02c-2.81-0.3-5.4,1.69-5.29,5.06c0.13,3.77,3.43,4.95,5.23,4.95
		c2.59,0,4.67-1.91,4.72-4.67C81.15,56.27,79.57,54.36,76.43,54.02L76.43,54.02L76.43,54.02z"/>
</g>
<path style="fill:#AF2C96;" d="M42.91,24.37c0,0-0.35-7.8,8.32-7.28S67,25.23,69.94,32.68s0.87,15.59,6.24,20.44
	s8.53,4.36,12.32,7.62c5.39,4.64,5.35,8.84,5.35,8.84l3.29-5.37L81.2,22.8L57.46,8.59l-20.79,8.66l2.08,8.85
	c0,0,1.47-0.52,2.27-0.88s1.89-0.86,1.89-0.86l0,0V24.37z"/>
<path style="fill:#F772DB;" d="M32.71,29.51c0,0,0.74-0.74,2.51-1.62l3.54-1.77c0,0,0.19-4,1.25-6.71
	c1.71-4.36,10.74-11.88,22.73-4.06c15.38,10.02,10.87,29.88,15.21,34.22c5.88,5.88,12.79,7.26,15.38,12.1s1.58,10.19,6.22,13.83
	c4.49,3.52,9.24,3,9.24,3s0.1-5.89-5.61-11.64c-3.71-3.74-3.8-10.54-2.77-15.73c1.04-5.18,6.91-13.31,2.25-22.12
	c-4.67-8.81-10.54-7.09-15.55-10.2S80.37,8.1,71.38,4.98s-28.86,0.35-36.29,8.47s-2.38,16.07-2.38,16.07l0,0L32.71,29.51z"/>
<path style="fill:#424242;" d="M97.61,117.33c0,0.46,5.86,6.32,6.32,6.62s3.62,0.51,5.35-1.32c1.73-1.83,1.58-3.87,1.38-4.38
	s-4.53-5.69-5.4-5.81C100.88,111.83,97.62,117.33,97.61,117.33L97.61,117.33L97.61,117.33z"/>
</svg>
