<?xml version="1.0" encoding="utf-8"?>
<!-- Generator: Adobe Illustrator 26.3.1, SVG Export Plug-In . SVG Version: 6.00 Build 0)  -->
<svg version="1.1" id="a" xmlns="http://www.w3.org/2000/svg" xmlns:xlink="http://www.w3.org/1999/xlink" x="0px" y="0px"
	 viewBox="0 0 128 128" style="enable-background:new 0 0 128 128;" xml:space="preserve">
<path style="fill:#EDBD82;" d="M30.43,62.07c0,0-5.82,1.24-3.35,9.83c2.48,8.59,12.67,5.68,12.67,5.68L30.43,62.07z"/>
<path style="fill:#EDBD82;" d="M84.16,77l2.99,1.46c0,0,7.16,1.03,8.3-7.57c1.16-8.81-8.01-9.97-8.01-9.97L84.16,77L84.16,77
	L84.16,77z"/>
<polygon style="fill:#EDBD82;" points="50.36,93.76 50.47,98.34 45.83,99.09 60.35,120.02 77.42,114.7 75.01,96.97 68.88,90.55 "/>
<path style="fill:#2A898B;" d="M42.72,100.52l5.5-0.83c0,0,6.11,6.81,7.75,8.73s5.55,5.7,5.55,5.7s5.77-6.55,7.69-8.83
	s5.06-6.27,5.06-6.27l1.07,24.28c0,0-20.14,0.16-26.05,0.19s-28.92-0.11-30.63-0.26s-0.93-2.78-0.71-3.99s0.07-7.62,4.77-11.61
	s9.9-4.63,9.9-4.63L42.72,100.52L42.72,100.52L42.72,100.52z"/>
<path style="fill:#1F82A3;" d="M95.2,100.66l5.06-4.63c0,0,1.15,0,1.07,1.28c-0.14,2.21-2.63,5.2-2.63,5.2l-3.49-1.85H95.2z"/>
<path style="fill:#1F82A3;" d="M91.92,97.67l4.13-7.05c0,0,1.53,0.27,1.42,1.42c-0.22,2.36-1.28,5.2-2.28,6.84s-3.28-1.21-3.28-1.21
	S91.92,97.67,91.92,97.67z"/>
<path style="fill:#4EB0D3;" d="M73.41,99.45c0,0,0.59,23.83,0.8,23.9s16.93-0.89,16.93-0.89l6.54-21.45c0,0,1.07-1.35,1.64-2.28
	s1.28-2.42,0.93-2.71s-1.78,1.42-3.06,1.99s-3.35,0.71-3.35,0.71l-0.78-0.71c0,0,1.5-1.5,2.28-3.63s1.07-3.56,0.71-3.77
	s-2.42,2.35-3.42,3.28c-1.81,1.68-4.49,2.35-6.62,2.49s-12.6,3.06-12.6,3.06l0,0L73.41,99.45z"/>
<path style="fill:#1F82A3;" d="M33.06,100.65c0,0-1.69-2.31-2.65-4.34s-1.63-3.55-0.79-3.94s1.58,0.62,1.58,0.62l4.84,5.92
	l-0.34,2.7l-2.65-0.96C33.05,100.65,33.06,100.65,33.06,100.65z"/>
<path style="fill:#1F82A3;" d="M36.05,105.05l-4.9,1.69c0,0-6.62-6.4-6.62-7.59c0-0.96,1.1-1.48,1.55-1.32L36.05,105.05
	L36.05,105.05L36.05,105.05z"/>
<path style="fill:#0896A5;" d="M75.42,45.43l10.83-2.17l6.03,3.85c0,0,2.17,2.12,1.57,5.86s-2.06,6.57-2.28,8.09
	s-1.59,6.76-1.59,6.76l-8.78,0.24L75.42,45.43L75.42,45.43L75.42,45.43z"/>
<path style="fill:#0896A5;" d="M28.83,47.23c0,0-1.08,7.22-0.84,8.67s1.56,3.73,1.56,3.73s1.56,8.06,2.29,9.63
	c0.73,1.57,11.44-11.31,11.44-11.31l-1.53-14.73C41.75,43.22,28.83,47.23,28.83,47.23z"/>
<path style="fill:#F9DDBD;" d="M37.14,45.55c0,0,0.24,8.43-1.81,15.05c-1.3,4.22-3.49,8.67-3.49,8.67s5.42,27.21,29.85,27.32
	c25.76,0.12,28.29-28.77,28.29-28.77s-3.32-4.87-4.81-10.23c-2.41-8.67-2.05-13.84-2.05-13.84L60.61,34L37.14,45.55L37.14,45.55
	L37.14,45.55z"/>
<path style="fill:#82E8D7;" d="M41.75,43.22c0,0-7.09,29.43-6.57,29.8s7.69-3.6,8.03-3.37c0.38,0.25-1.51,18.46-1.15,18.83
	c0.41,0.43,1.11,1.01,1.11,1.01s5.8-12.12,10.71-22.75c3.81-8.26,7.09-15.7,6.97-15.83c-0.29-0.3-5.98,3.97-6.44,3.58
	c-0.43-0.36,0-3.26,0.43-6.36s1.26-6.85,1.26-6.85l-14.33,1.95h-0.02L41.75,43.22z"/>
<polygon style="fill:#0896A5;" points="39.5,18.44 32.4,28.28 33.77,31.15 79.48,27.66 73.25,16.58 "/>
<path style="fill:#1E5FC6;" d="M28.52,48.85c0.06,0.57,14.08-5.22,33.62-5.13s30.18,5.53,30.98,4.73s-0.15-8.38-0.93-12.59
	s-3.09-7.28-3.09-7.28s-10.49-3.98-27.79-4.29c-17.29-0.32-29.63,5.38-30.42,6.7c-2.61,4.35-2.51,16.56-2.37,17.87l0,0L28.52,48.85z
	"/>
<path style="fill:#757575;" d="M71.76,85.88C66.68,91.11,70.6,97.1,70.6,97.1l1.65,2.09c0,0,6.1,5.12,11.85-0.94
	c5.75-6.06,0.55-11.56,0.55-11.56s-1.17-1.33-1.8-1.8s-6.5-3.74-11.09,0.98l0,0L71.76,85.88z"/>
<path style="fill:#81AEC0;" d="M84.81,101.58l-2.77,3.86c0,0-3.6-3.28-3.65-4.13s0.49-3.7,3.16-6.1c2.67-2.41,5.11-1.9,5.46-1.86
	s3.93,3.37,3.98,3.9S84.8,101.57,84.81,101.58L84.81,101.58L84.81,101.58z"/>
<path style="fill:#F9DDBD;" d="M87.38,115.48l-3.9-4.91l-0.75,0.48c0,0-2.24-0.53-2.81,2.02s1.05,5.35,5.92,7.9
	c6.5,3.4,15.71,1.49,15.71,1.49l-0.13-6.45C101.42,116.01,87.38,115.48,87.38,115.48z"/>
<path style="fill:#D89852;" d="M95.15,101.7l-6.63-1.93l-6.41,6.05l-0.98,0.51c0,0-0.67,3.64,1.6,4.71c1.26,0.6,1.91,1.25,2.34,2.6
	c0.55,1.73,0.29,2.88,0.29,2.88s2.02,2.72,6.32,3.42s8.56,0.31,8.56,0.31l6.23-3.77c0,0-0.18-2.94-1.4-5
	C104.3,110.18,95.15,101.7,95.15,101.7z"/>
<path style="fill:#F9DDBD;" d="M82.2,109.03c1.72,0.72,1.05-2.9,3.82-5.7c1.77-1.8,3.38-2.54,4.3-2.02s-1.48,1.41-2.97,3.08
	c-1.73,1.93-2.44,3.8-2.51,5.3c-0.09,1.71,1.27,2.54,2.06,0.57c0.42-1.06,1.45-3.27,3.1-4.75c1.27-1.14,2.91-1.65,3.62-1.08
	s-1.1,0.71-3.03,2.73c-1.76,1.84-2.97,4.16-3.16,5.3s0.83,2.02,1.32,1.58s2.13-3.45,3.72-5c1.71-1.67,3.56-2.55,4.13-1.76
	s-1.05,1.47-2.72,3.05s-3.16,3.79-3.07,5.11s1.23,1.75,1.75,1.4s3.81-5.15,8.34-6.23c2.94-0.7,4.17,0.88,4.17,0.88
	s-1.05-4.52-6.58-10.22c-4.49-4.63-7.02-4.02-8.03-4.04c-2.24-0.04-5.01,1.28-7.2,4.04c-2.5,3.16-2.94,6.98-1.05,7.77l0,0
	L82.2,109.03z"/>
<path style="fill:#93D1E0;" d="M79.05,99.55c0.15,0.48,1.48,1.92,1.96,1.92s1.8-1.98,3.55-3.44c2-1.66,4.14-1.96,4.25-2.18
	s-2.18-2.51-2.48-2.55s-2.11-0.37-4.62,1.66c-1.89,1.53-2.92,3.73-2.66,4.58l0,0L79.05,99.55z"/>
<path style="fill:#81AEC0;" d="M77.88,88.83l-2.53,0.59c0,0-2.07,1.81-3.7,4.78c-0.77,1.4-1.18,2.32-1.18,2.9s0.38,1.23,0.74,1.64
	s1.01,0.67,1.37,0.7c0.26,0.03,0.53-1.41,1.32-2.82s2.22-3.22,2.22-3.22S77.88,88.83,77.88,88.83z"/>
<path style="fill:#93D1E0;" d="M77.93,87.06c-2.62,1.87-4.66,4.18-4.7,5.01s0.2,0.97,0.64,1.38c0.62,0.58,1.29,0.77,1.79,0.49
	s1.72-2.29,4.01-4.09c2.94-2.32,5.48-2.42,5.48-2.75s-0.29-1.18-1.08-1.67s-1.38-0.56-1.38-0.56S80.12,85.5,77.93,87.06L77.93,87.06
	L77.93,87.06z"/>
<path style="fill:#DBA689;" d="M61.14,71.4c-2.65,0.05-3.65-0.85-4.58,0.11c-0.86,0.87-0.09,2.12,1.34,3.23
	c1.94,1.51,4.95,1.46,6.51,0.06c1.54-1.38,2.21-2.55,1.22-3.4s-1.77-0.05-4.47,0C61.16,71.4,61.14,71.4,61.14,71.4z"/>
<path style="fill:#444444;" d="M61.35,79.43c-2.11,0-4.74-0.6-6.28-0.44c-1.24,0.12-2.92,0.74-2.67,2.83
	c0.28,2.28,3.1,5.52,9.34,5.5c6.18-0.01,8.28-4.01,8.56-5.5c0.39-2.06-1.29-2.76-2.11-2.89C66.65,78.69,64.22,79.43,61.35,79.43z"/>
<g>
	<path style="fill:#312D2D;" d="M39.76,55.51c0.69,1.11,3.02-0.64,6.74-0.74c3.04-0.09,5.69,2.08,6.31,0.11
		c0.74-2.33-1.92-3.53-6.43-3.32C41.77,51.78,38.83,54.02,39.76,55.51z"/>
	<path style="fill:#312D2D;" d="M68.99,55.37c1.54,0.42,2.71-0.69,5.84-0.48c2.92,0.2,5.78,1.49,6.63,0.53s-1.34-3.24-6.16-3.71
		c-4.35-0.42-7,0.74-7.32,1.7S68.36,55.2,68.99,55.37z"/>
</g>
<g>
	<path style="fill:#3F4040;" d="M46.44,58.69c-3.56-0.05-4.93,3.02-4.72,5.2s1.86,4.25,4.99,4.19s4.62-2.02,4.62-4.62
		S49.74,58.73,46.44,58.69L46.44,58.69L46.44,58.69z"/>
	<path style="fill:#3F4040;" d="M74.93,58.59c-2.65-0.28-5.09,1.59-4.99,4.78c0.12,3.55,3.23,4.67,4.93,4.67
		c2.44,0,4.41-1.8,4.46-4.4C79.38,60.72,77.9,58.92,74.93,58.59L74.93,58.59L74.93,58.59z"/>
</g>
<path style="fill:#4EB0D3;" d="M25.95,97.81c-0.05,0.06,1.29,2.18,2.67,4c1.31,1.72,2.74,3.01,2.82,3.56
	c0.17,1.13-0.3,1.37-0.3,1.37s2.99,3.72,3.55,8.06s0.44,8.7,0.44,8.7l14.2,0.03c0,0-0.06-6.21-0.4-12.29
	c-0.31-5.66-0.91-11.21-0.72-11.54c0.39-0.68,2.25-1.35,2.25-1.35l-0.02-1.02c0,0-1.1-0.89-3.65-0.56c-2.74,0.35-4.3,1.05-4.3,1.05
	s-2.46,0.08-5.33-1.27s-6.12-3.96-6.23-3.8s2.11,3.68,2.85,4.87s0.95,2.36,0.51,2.76c-1.01,0.9-8.25-2.68-8.35-2.56h0.01
	L25.95,97.81z"/>
<path style="fill:#0896A5;" d="M64.66,23.53c0,0,5.86,2.88,9.55,7.51s7.18,9.3,10.78,9.56s3.6-3.95,3.6-3.95l-1.2-3.35
	c0,0,3.95,3.35,8.06,8.15c4.12,4.8,6.43,5.15,8.15,4.72s2.75-2.83,2.49-4.2s-7.98-11.5-7.98-11.5s5.7,1.08,8.79,0.74
	s4.08-2.37,3.23-5.29s-32.94-6.26-32.94-6.26l-11.41-0.6L64.66,23.53L64.66,23.53L64.66,23.53z"/>
<path style="fill:#19DDB8;" d="M31.41,30.49c0,0-1.77-8.23,4.61-13.92c7.29-6.5,10.14-2.12,10.72-2.22s2.1-4.12,6.35-5.57
	s6.04-0.16,7.29-1.03s5.75-3.71,14.67-3.43s14.5,6.01,14.16,7.72s-0.94,2.4-0.94,2.4s4.2-1.46,11.58,1.37
	c7.38,2.83,10.29,10.12,10.29,10.12s-0.26,1.8-4.12,1.89c-2.67,0.06-6.01-0.43-6.86-0.43s-1.54,0.51-1.37,1.46s0.86,1.37,1.8,2.23
	s8.84,9.87,5.83,12.18s-8.06-4.63-11.15-8.24c-3.09-3.6-6.35-4.72-7.03-4.63s2.66,6.69,0.69,7.72s-6.95-3.09-10.64-7.89
	s-9.69-10.21-16.9-10.55c-4.81-0.23-8.15,2.57-9.44,2.06s-1.46-2.04-4.8-1.89c-7.46,0.34-12.56,9.48-12.56,9.48l-2.16,1.16h-0.02
	L31.41,30.49z"/>
<path style="fill:#424242;" d="M95.68,117.34c0,0.43,5.46,5.89,5.89,6.18s3.37,0.48,4.99-1.24s1.47-3.61,1.28-4.09
	s-4.22-5.3-5.04-5.42c-4.09-0.57-7.13,4.56-7.13,4.56L95.68,117.34L95.68,117.34z"/>
</svg>
