<?xml version="1.0" encoding="utf-8"?>
<!-- Generator: Adobe Illustrator 26.3.1, SVG Export Plug-In . SVG Version: 6.00 Build 0)  -->
<svg version="1.1" id="a" xmlns="http://www.w3.org/2000/svg" xmlns:xlink="http://www.w3.org/1999/xlink" x="0px" y="0px"
	 viewBox="0 0 128 128" style="enable-background:new 0 0 128 128;" xml:space="preserve">
<path style="fill:#232020;" d="M92.42,101.51c0,0,4.05-10.51,6.86-40.74c3.01-32.37-16.14-48.83-33.97-49.83S24.81,21.9,27.42,61.93
	c1.37,21.03,3.8,34.34,7.27,43.15c12.17,0.21,29.42,0.21,29.42,0.21l28.31-3.79V101.51z"/>
<path style="fill:#E0E0E0;" d="M63.32,91.77c0,0-17.23-1.37-29.1,6.92c-8.57,5.98-12.2,11.27-12.2,11.27l30,13.8l41.93,0.05
	c0,0,14.67-0.12,14.9-1.41s-5.28-12.09-13.14-19.83S77.29,92.48,77.29,92.48l-13.96-0.7L63.32,91.77z"/>
<path style="fill:#F2A259;" d="M8.99,122.92c0,0-9.43-14.41-0.58-22.74s27.46,2.2,35.14,10.21c6.84,7.13,9.24,12.98,8.46,13.37
	S9.76,123.44,8.99,122.92z"/>
<path style="fill:#E07F14;" d="M45.56,120.84l-1.02-0.56c0,0-2.82-0.63-4.2,1.48c-0.58,0.88-0.28,2.06-0.28,2.06l2.09,0.02
	L45.56,120.84z"/>
<path style="fill:#FFED5A;" d="M42.1,123.84c0,0-0.79-3.44,1.62-3.58c3.99-0.23,4.8,3.62,4.8,3.62s-2.24,0.01-3.5,0.02
	S42.1,123.84,42.1,123.84z"/>
<path style="fill:#C62727;" d="M22.19,107.4l-9.55-4.09c0,0-2.37,2.03-0.67,4.49c0.73,1.06,2.96,1.76,4.14,2.59s3.14,2.09,5,2.06
	c2.94-0.05,3.51-3.58,3.51-3.58L22.19,107.4L22.19,107.4z"/>
<path style="fill:#F44236;" d="M12.35,103.74c-1.24,2.83,2.68,3.4,4.84,4.38c2.46,1.11,5.52,4.77,7.11,1.65
	c1.55-3.04-1.8-5.41-4.22-6.75S13.17,101.88,12.35,103.74z"/>
<path style="fill:#00579C;" d="M21.05,122.6l-7.57-7.16c0,0-2.77,1.63-1.31,4.8c0.97,2.09,2.54,3.03,2.54,3.03s1.79,0.09,2.56,0.13
	s2.96,0.06,2.96,0.06l0.81-0.86H21.05z"/>
<path style="fill:#2885C6;" d="M24.59,123.55c0,0,0.06-3.74-4.05-6.52c-4.64-3.14-6.23-2.06-7.06-1.6s-1.19,2.67,1.73,5.59
	c2.16,2.16,3.88,2.41,3.88,2.41l5.49,0.12L24.59,123.55z"/>
<polygon style="fill:#B0B0B0;" points="71.72,116.65 71.71,123.77 75.2,123.77 75.22,117.35 "/>
<path style="fill:#1465C0;" d="M99.94,103.06c0,0-2.18,3.94-4.04,9.35c-2.45,7.13-3.16,11.39-3.16,11.39s3.32,0.32,5.69,0.32
	c4.43,0,6.68-0.76,6.68-0.76s2.07-3.53,3.38-7.77s2.27-8.1,2.27-8.1l-8.93-4.67l-1.88,0.25L99.94,103.06z"/>
<path style="fill:#BDBDBD;" d="M106.6,88.31c0,0-1.4,0.58-2.76,4.09c-0.64,1.67-1.27,3.99-1.27,3.99s-1.43,0.77-2.2,2.78
	s-0.43,3.89-0.43,3.89s1.38,1.35,5,2.68s5.82,1.74,5.82,1.74s1.45-0.76,2.45-3.84c0.55-1.68,0.23-3.74,0.23-3.74s0.88-1.9,1.52-3.34
	c0.64-1.44,1.68-4.4,1.52-4.93s-9.87-3.33-9.87-3.33L106.6,88.31z"/>
<path style="fill:#C67100;" d="M111.68,75.78l-4.79,2.89c0,0-6.09,8.48,3.29,12.57c11.48,5.01,13.47-6.69,13.17-10.28
	c-0.28-3.38,0-3.39,0-3.39l-3.19-6.29l-8.48,4.49L111.68,75.78z"/>
<path style="fill:#F09300;" d="M109.58,75.88c0,0-2.1,2.1-2.69,2.79s-0.9,6.99,4.49,8.88c5.82,2.05,8.68-2.3,8.68-3.69
	s0-8.58-0.2-10.68s-10.28,2.69-10.28,2.69V75.88z"/>
<path style="fill:#C67100;" d="M114.57,77.27c0,0-2.99,4.09-1.4,4.99s6.19-8.18,6.19-8.18L114.57,77.27z"/>
<path style="fill:#007D33;" d="M40.59,96.29l-0.34-4.7c0,0,1.57-1.14,3.62-1.68c2.56-0.68,3.21-0.69,3.21-0.69s1.2-3.25,5.39-3.83
	c3.83-0.52,25.28,1.6,25.28,1.6s10.33,3.53,9.76,8.69c-0.47,4.25-4.7,3.99-4.7,3.99l8.16,15.52c0,0-1.95,0-5.14-1.6
	s-7.72-3.55-7.72-3.55l-1.06,9.22l-6.56-5.41l-2.22-7.36c0,0,0.8-2.39,1.95-3.46c1.15-1.06-5.5-2.22-5.5-2.22L40.59,96.29
	L40.59,96.29z"/>
<path style="fill:#9A9A9A;" d="M61.42,106.33c-2.68,0.25-3.3,2.08-3.24,3.73s1.71,3.12,3.42,3.12s3.67-1.04,3.67-3.24
	S64.05,106.09,61.42,106.33z"/>
<path style="fill:#02AB47;" d="M68.26,106.49c0,0-1.69,3.81,0,6.92s7.98,6.65,9.05,7.27s2.04,0.44,2.31-0.98s-0.18-6.39-0.27-7.8
	c-0.09-1.42-1.6-4.26-2.48-4.26s0.97,7.99-1.77,7.8c-1.95-0.13-1.67-3.52-2.93-5.41c-1.77-2.66-3.9-3.55-3.9-3.55L68.26,106.49z"/>
<path style="fill:#02AB47;" d="M82.8,99.66c0,0,0.18,1.15-0.09,2.22s-0.98,2.66-0.98,2.66s3.19,3.72,5.06,5.68s4.17,4.97,4.17,4.97
	s0.8-0.18,0.71-2.66s0.04-6.08-3.28-9.84c-2.66-3.02-5.59-3.02-5.59-3.02V99.66z"/>
<path style="fill:#2A85C6;" d="M116.77,65.1c-2.4,0.1-1,2.89-2.79,5.29c-1.8,2.4-3.99,2.3-5.09,4.09s-0.8,3.19,1.1,3.79
	s4.39,0.1,6.19-1.1s2.1-2.3,3.69-2s3.39,2.2,3.39,2.2s0.6-4.69-1.7-8.18C120.63,67.77,118.48,65.03,116.77,65.1z"/>
<path style="fill:#EEEEEE;" d="M105.69,96.13c1.84,0.85,2.52-1.48,2.95-2.43s0.78-2.69-0.35-3.12s-2.08,0.95-2.6,2.08
	S104.56,95.61,105.69,96.13z"/>
<path style="fill:#EEEEEE;" d="M104.87,101.09c-1.37-0.74-3.06-1.78-3.61-0.41c-0.48,1.19,0.79,1.83,2.62,2.61s3.3,1.04,3.64,0.35
	S106,101.7,104.87,101.09z"/>
<path style="fill:#9E9E9E;" d="M103.35,97.85c-0.63,1.27,1.78,2.66,5.1,3.87c3.46,1.27,4.92,1.38,4.92,1.38s0.29-1.15,0.25-1.85
	s-0.26-1.08-0.26-1.08s-1.56-0.17-4.42-1.19C107.24,98.37,103.9,96.77,103.35,97.85L103.35,97.85z"/>
<path style="fill:#2096F3;" d="M101.26,107.17c-0.61-0.3-1.6,0.48-3.13,5.04c-1.42,4.24-2.16,6.63-1.23,6.92s1.56-0.31,3.48-5.9
	c1.58-4.59,1.54-5.74,0.88-6.07V107.17z"/>
<path style="fill:#FFFFFF;" d="M13.13,105.09c0.23,0.58,1.42-0.06,2.28-0.4c1.44-0.57,2.2-0.59,1.99-1.4s-1.59-0.65-2.69-0.21
	s-1.98,1.01-1.59,2.01H13.13z"/>
<path style="fill:#FFFFFF;" d="M13.79,117.04c-0.07,1.05,1.17,1.03,2.29,0.97s1.73-0.3,1.67-1.15s-0.98-0.85-2.12-0.85
	C14.68,116.01,13.84,116.19,13.79,117.04z"/>
<path style="fill:#FFFFFF;" d="M43.77,121.62c-0.24,0.65,0,0.98,1.08,1.18s1.39-0.05,1.49-0.57s-0.52-0.98-1.13-1.08
	s-1.29,0.05-1.44,0.46L43.77,121.62z"/>
<path style="fill:#548B2E;" d="M32.54,108.44l-2.44,0.9c0,0-3.16,2.66,0.32,6.17c2.84,2.87,5.59,2.87,7.14,2.27
	c1.15-0.45,1.92-1.17,2.1-2.3c0.32-1.96-1.59-4.23-1.59-4.23S32.54,108.44,32.54,108.44z"/>
<path style="fill:#7DB343;" d="M30.53,108.89c-1.34,1.1-0.94,3.28,1.18,5.46c2.21,2.27,4.52,2.45,6.44,1.13
	c1.96-1.34,0.67-4.38-2.11-6.18S31.4,108.17,30.53,108.89z"/>
<path style="fill:#FFFFFF;" d="M31.05,111.68c0.62,0.68,1.65,0.15,2.21-0.46s0.62-1.29,0.05-1.75s-1.34-0.26-2.06,0.41
	s-0.72,1.24-0.21,1.8L31.05,111.68z"/>
<path style="fill:#573D36;" d="M52.21,90.53c0,0,2.04,4.7,11.8,4.79c8.78,0.08,10.11-3.72,10.11-3.72l-0.09-4.7H52.3l-0.09,3.64
	L52.21,90.53z"/>
<path style="fill:#70534A;" d="M69.54,28.62c-0.49,0-5.19,5.3-15.22,10.43c-11.36,5.81-17.6,5.93-17.6,5.93s-2.05,10.91,1.35,25.13
	c2.08,8.68,11.21,20.82,24.95,20.76c17.76-0.08,24.21-13.38,25.91-22.15c2.37-12.25,0.79-21.76,0.79-21.76s-8.14-4.87-12.7-9.63
	C72.46,32.56,69.53,28.62,69.54,28.62L69.54,28.62z"/>
<g>
	<path style="fill:#373C3F;" d="M78.01,26.94l-20.39,6.73c0,0,11.32,0,21.24,1.28c9.28,1.2,14.73,4.91,17.08,4.91s2.88-2.1,3.4-4.5
		c0.53-2.46,1.29-5.97,1.29-5.97L78,26.93L78.01,26.94z"/>
	<path style="fill:#2F2F2F;" d="M46.56,27.57l-21.99,7.18c0,0,0.17,2.43,1.43,4.34s3.43,2.47,3.43,2.47s10.32-3.85,19.86-5.98
		s13.31-2.62,17.4-3.52c5.34-1.17,12.49-2.35,19.32-2.46c6.83-0.11,14.62-0.21,14.62-0.21s0.85-3.31,0.64-7.05
		S46.55,27.56,46.56,27.57L46.56,27.57z"/>
	<path style="fill:#464C4F;" d="M24.18,24.33l-11.55,2.39c0,0-2.32,7.21,11.48,8.34c13.8,1.13,28.24-2.79,34.15-4.76
		s8.57-4.05,18.86-4.99c6.32-0.58,19.76,0.58,24.46-1.56c3.36-1.53,4.41-5.82,4.41-8.92s-1.13-5.01-1.13-5.01l-49.7,4.36
		L24.18,24.32L24.18,24.33z"/>
	<path style="fill:#5E6367;" d="M12.63,26.72c-0.36-1.21-1.27-10.98,41.4-19.15C73.73,3.8,88.62,3.6,95.85,4.89
		c8.42,1.51,9.01,4.93,9.01,4.93s-1.97,4.36-9.01,5.35s-25.06-0.99-34.78,2.11s-15.49,7.32-26.75,9.57s-20.56,3.66-21.68-0.14
		L12.63,26.72z"/>
	<path style="fill:#464C4F;" d="M55.24,4.12c-2.89,0.85-2.9,3.76-2.53,4.87s1.73,2.83,4.62,2.22c2.9-0.62,3.27-3.27,3.02-4.31
		s-1.54-3.82-5.11-2.77V4.12z"/>
</g>
<path style="fill:#4A2F27;" d="M63.5,65.78c-2.84,0.06-3.9-0.91-4.9,0.11c-0.92,0.94-0.1,2.27,1.43,3.45
	c2.08,1.61,5.29,1.56,6.96,0.07c1.65-1.48,2.36-2.72,1.3-3.63S66.4,65.72,63.5,65.78z"/>
<path style="fill:#1A1717;" d="M63.72,74.77c-4.04,0-8.1-2.09-9.02-0.74c-0.41,0.6-0.28,1.77,0.98,2.85
	c1.46,1.26,4.33,2.41,7.88,2.43c7.46,0.05,9.91-4.06,8.96-5.28S68.38,74.77,63.72,74.77z"/>
<g>
	<path style="fill:#1A1717;" d="M48.46,51.82c-3.8-0.06-5.28,3.23-5.05,5.56s1.99,4.54,5.33,4.48c3.18-0.05,4.94-2.16,4.94-4.94
		S51.98,51.86,48.46,51.82L48.46,51.82z"/>
	<path style="fill:#1A1717;" d="M77.8,51.71c-2.84-0.3-5.45,1.7-5.33,5.11c0.13,3.8,3.46,4.99,5.28,4.99c2.61,0,4.72-1.93,4.77-4.71
		C82.58,53.98,80.99,52.05,77.8,51.71L77.8,51.71z"/>
</g>
<g>
	<path style="fill:#1A1717;" d="M40.86,48.19c0.74,1.19,3.23-0.68,7.21-0.79c3.25-0.09,6.08,2.22,6.75,0.11
		c0.79-2.5-1.87-3.58-6.7-3.35C43.19,44.39,39.87,46.59,40.86,48.19z"/>
	<path style="fill:#1A1717;" d="M71.9,48.05c1.65,0.45,2.89-0.74,6.24-0.51c3.13,0.21,6.19,1.59,7.09,0.57s-1.43-3.47-6.58-3.97
		c-4.65-0.45-7.49,0.79-7.83,1.82S71.22,47.87,71.9,48.05L71.9,48.05z"/>
</g>
<path style="fill:#02AB47;" d="M67.9,98.77c0,0,0.27-2.93,0.71-3.81s1.33-1.77,2.93-1.77s6.94,1.01,7.27,6.03
	c0.05,0.71-0.44,4.08-2.31,5.5c-1.86,1.42-4.7,0.71-5.85,0.18s-2.04-1.24-3.19-1.42s-14.19-0.27-22.44-2.66
	c-8.25-2.39-7.37-5.37-7.01-6.39c0.77-2.13,2.26-2.87,2.26-2.87s3.25,3.73,9.35,5.27c8.43,2.13,18.27,1.95,18.27,1.95L67.9,98.77z"
	/>
</svg>
