<?xml version="1.0" encoding="utf-8"?>
<!-- Generator: Adobe Illustrator 26.3.1, SVG Export Plug-In . SVG Version: 6.00 Build 0)  -->
<svg version="1.1" id="a" xmlns="http://www.w3.org/2000/svg" xmlns:xlink="http://www.w3.org/1999/xlink" x="0px" y="0px"
	 viewBox="0 0 128 128" style="enable-background:new 0 0 128 128;" xml:space="preserve">
<path style="fill:#232020;" d="M88.08,105.95c0,0,4.98-10.8,6.26-41.3c1.63-38.56-15.6-48.76-33.53-49.76S20.1,25.91,22.72,66.16
	c1.38,21.14,3.82,34.53,7.31,43.39c12.23,0.21,29.58,0.21,29.58,0.21L88.08,105.95L88.08,105.95z"/>
<path style="fill:#573D36;" d="M46.49,89.86l-0.24,7.77c0,0-0.85,8.28,12.62,8.28s12.87-7.67,12.87-7.67l-0.24-9.41l-25,1.02
	L46.49,89.86z"/>
<path style="fill:#DFDFDF;" d="M47.05,93.49l-4.83,0.11c0,0,0.4,5.29-0.22,6s-18.16,3.94-24.09,9.74
	c-4.72,4.62-7.44,12.58-6.73,14.08c0.42,0.89,24.69,0.59,48.44,0.43c23.99-0.17,45.3-1.1,45.34-1.58
	c0.09-0.97-2.64-11.36-12.71-16.63c-7.44-3.9-16.95-6.16-16.95-6.16l-0.24-6.01l-6.59,1.62l-6.38,6.46v2.39l-7.79-0.35l-2.92-7.08
	l-4.34-3.01L47.05,93.49z"/>
<path style="fill:#B0B0B0;" d="M97.97,109.68c0,0,1,1.11,1.27,1.42s0.84,1,0.84,1l-5.6,10.85l-4.17,0.42l7.66-13.7V109.68z"/>
<path style="fill:#F2A25B;" d="M83.76,123.44l17.32-32.09c0,0-5.96-5.84-0.11-16.72c5-9.29,13.32-9.76,18.11-6.62
	s5.33,11.88,2.02,17.88c-5.57,10.12-14.33,8.3-14.33,8.3l-15.27,29c0,0-1.24,0.76-4.02,0.68c-2.39-0.07-3.72-0.44-3.72-0.44V123.44z
	"/>
<path style="fill:#D27857;" d="M104.86,89.99c4.95,2.83,11.23-2.12,13.58-7.77s1.18-10.28-2.12-12.09s-9.11-0.71-12.72,6.83
	C100.58,83.26,101.93,88.32,104.86,89.99z"/>
<path style="fill:#FFB775;" d="M106.9,87.87c4.26,1.75,7.69-2.55,9.26-5.34c1.73-3.06,2.83-8.79-0.86-10.83
	c-3.28-1.81-7.77,1.65-9.73,6.04C103.78,81.75,103.84,86.61,106.9,87.87z"/>
<path style="fill:#B0B0B0;" d="M42.22,93.6c0.31,2.63,4.88,0.87,7.31,3.7c2.43,2.83,3.21,8.39,4.07,9.1s10.24,0.54,10.86,0
	s0.44-6.04,3.03-7.92s6.04-3.38,6.99-3.61s1.33-2.12-0.31-2.43s-7.52-0.02-10.03,3.9c-2.51,3.93-2.69,6.54-2.69,6.54h-5.1
	c0,0-1.06-4.72-3.69-7.54c-2.2-2.36-4.4-3.45-8.01-3.61C42.83,91.65,42.06,92.32,42.22,93.6L42.22,93.6z"/>
<path style="fill:#9A9A9A;" d="M45.83,109.51c-1.95,0-2.52,1.55-2.58,2.81s1.21,2.12,2.47,2.18c1.4,0.07,2.41-1.38,2.41-2.52
	S47.44,109.51,45.83,109.51L45.83,109.51z"/>
<path style="fill:#9A9A9A;" d="M72.39,109.85c-1.55-0.07-2.43,0.9-2.37,2.22s1.39,2.2,2.54,2.2s2.29-1.09,2.24-2.29
	S73.71,109.91,72.39,109.85L72.39,109.85z"/>
<path style="fill:#9A9A9A;" d="M69.66,119.92c-0.04,1.29,0.93,2.33,2.33,2.38c1.41,0.04,2.5-0.93,2.5-2.33s-1.05-2.42-2.58-2.42
	S69.7,118.56,69.66,119.92L69.66,119.92z"/>
<path style="fill:#9A9A9A;" d="M45.79,118.47c-1.76,0.16-2.17,1.37-2.13,2.46s1.13,2.05,2.25,2.05s2.42-0.68,2.42-2.13
	S47.52,118.31,45.79,118.47z"/>
<path style="fill:#70534A;" d="M63.59,33.17c-0.49,0-4.83,2.55-13.42,9.93c-5.56,4.78-18.09,6-18.09,6s-2.06,10.97,1.36,25.26
	c2.09,8.73,11.27,20.94,25.09,20.87c17.86-0.08,24.35-13.45,26.05-22.27c2.38-12.32,0.73-23.56,0.73-23.56s-12.84-2.92-17.29-8.52
	c-4.13-5.19-4.42-7.72-4.42-7.72L63.59,33.17z"/>
<path style="fill:#4A2F27;" d="M59.01,70.02c-2.85,0.06-3.92-0.91-4.93,0.11c-0.92,0.94-0.1,2.28,1.44,3.47
	c2.09,1.62,5.32,1.57,7,0.07c1.66-1.49,2.38-2.74,1.31-3.65S61.93,69.96,59.01,70.02L59.01,70.02z"/>
<g>
	<path style="fill:#1A1717;" d="M36.24,52.33c0.74,1.2,3.25-0.68,7.25-0.8c3.27-0.09,6.12,2.23,6.79,0.11
		c0.8-2.51-1.88-3.59-6.73-3.37c-4.96,0.23-8.3,2.45-7.3,4.05L36.24,52.33z"/>
	<path style="fill:#1A1717;" d="M67.45,52.19c1.65,0.46,2.91-0.74,6.28-0.51c3.14,0.21,6.22,1.6,7.13,0.57s-1.44-3.49-6.62-3.99
		c-4.68-0.46-7.53,0.8-7.87,1.83s0.4,1.92,1.08,2.11L67.45,52.19z"/>
</g>
<g>
	<path style="fill:#1A1717;" d="M43.88,55.98c-3.82-0.06-5.31,3.25-5.08,5.59s2,4.57,5.36,4.51c3.2-0.05,4.96-2.17,4.96-4.96
		S47.41,56.04,43.88,55.98L43.88,55.98z"/>
	<path style="fill:#1A1717;" d="M73.38,55.87c-2.85-0.31-5.48,1.71-5.36,5.14c0.13,3.82,3.48,5.02,5.31,5.02
		c2.62,0,4.74-1.94,4.79-4.74C78.18,58.15,76.58,56.21,73.38,55.87z"/>
</g>
<path style="fill:#1A1717;" d="M59.23,79.06c-4.06,0-8.15-2.1-9.06-0.74c-0.41,0.6-0.28,1.78,0.98,2.87
	c1.47,1.27,4.36,2.42,7.92,2.44c7.51,0.05,9.97-4.08,9.01-5.31S63.92,79.06,59.23,79.06z"/>
<g>
	<path style="fill:#B0B0B0;" d="M64.12,13.53L6.46,30.92c0,0,2.01,3.38,6.84,4.94s8.48,1.25,8.48,1.25v4.5l54.47-4.16l18.96-1.15
		c0,0,3.52-0.36,7.82-3.89c5.4-4.44,7.17-8.07,7.17-11.46S64.12,13.53,64.12,13.53z"/>
	<path style="fill:#E3E3E2;" d="M6.46,30.92c0,0-2.15-2.04-1.64-5.09s3.96-9.2,10.07-11.54c5.57-2.13,9.12,0,9.12,0
		s2.75-5.77,8.61-6.79s8.39,0.34,8.39,0.34s5.55-3.3,16.64-3.77c9.27-0.39,15.81,0.26,20.81,2.04s7.44,3.42,7.44,3.42
		s4.65,1.7,6.88,1.87s3.36-0.34,8.18,0.34s8.78,2.88,9.38,6.11c0.6,3.22-0.13,8.85-6.76,9.95s-9.93-1.54-9.93-1.54l-1.64-0.93
		c0,0-4.57,1.09-11.19-0.19s-5.88-4.2-5.88-4.2s-1.83,3.69-16.53,3.69c-8.57,0-11.92-4.07-11.92-4.07s-5.59,4.67-11.79,6.28
		s-12.22,0.08-12.22,0.08s-4.3,3.82-7.92,4.75c-3.61,0.93-6.63,0-8.09-0.76L6.46,30.92z"/>
	<path style="fill:#E3E3E2;" d="M21.64,39.33c-1.12,1.24-0.37,5.68,0,6.76c0.42,1.24,0.7,2.21,1.54,2.76s9.37-4.69,37.21-4.41
		s31.89,2.9,33.29,2.9s1.82-2.9,1.82-5.51s-0.28-5.51-0.28-5.51s-13.85-5.24-38.05-4.55c-24.2,0.69-34.41,6.34-35.53,7.58
		L21.64,39.33z"/>
	<path style="fill:#9B9B9B;" d="M23.93,26.93c-3.58-2.17-5.42-7.21-7.31-7.04s-4.51,5.33,4.47,10.52
		c7.49,4.33,12.48,2.63,12.65,0.51S28.4,29.65,23.93,26.93z"/>
	<path style="fill:#9B9B9B;" d="M43.81,19.63c1.52,4.11,1.81,8.69,3.53,8.57c2.41-0.17,1.2-6.28,0.17-9.58
		c-1.03-3.31-3.1-6.96-5.08-6.19s0,3.48,1.38,7.21V19.63z"/>
	<path style="fill:#9B9B9B;" d="M67.3,27.1c1.32,1.68,5.34-0.17,8.78-4.58s2.83-8.25,1.03-8.57c-2.84-0.51-1.81,2.97-4.47,6.53
		S65.84,25.23,67.3,27.1z"/>
	<path style="fill:#9B9B9B;" d="M97.94,18.11c-1.76-0.94-4.17,3.77-7.49,7.21s-7.75,2.63-7.75,4.83s6.8,1.19,10.41-1.7
		s6.88-9.25,4.82-10.35L97.94,18.11z"/>
</g>
</svg>
