<?xml version="1.0" encoding="utf-8"?>
<!-- Generator: Adobe Illustrator 26.3.1, SVG Export Plug-In . SVG Version: 6.00 Build 0)  -->
<svg version="1.1" id="a" xmlns="http://www.w3.org/2000/svg" xmlns:xlink="http://www.w3.org/1999/xlink" x="0px" y="0px"
	 viewBox="0 0 128 128" style="enable-background:new 0 0 128 128;" xml:space="preserve">
<g>
	<path style="fill:#EDBD82;" d="M92.56,78.92c0,0,9,0.09,10.72-9.13c1.82-9.72-5.18-11.31-5.18-11.31L92.56,78.92z"/>
	<path style="fill:#EDBD82;" d="M31.58,60.17c0,0-8.92-1.18-6.1,9.92c2.45,9.65,11.65,8.83,11.65,8.83S31.58,60.17,31.58,60.17z"/>
</g>
<path style="fill:#312D2D;" d="M62.46,77.72L32.02,66.86c0,0-6.31-20.91-0.1-36.7C36.85,17.61,47.89,9.8,63.33,9.45
	c16.51-0.38,28,6.66,33.34,19.48c6.45,15.48-0.31,37.69-0.31,37.69L62.46,77.72L62.46,77.72z"/>
<path style="fill:#EDBD82;" d="M52.61,93.59l-0.22,8.38c0,0-0.79,8.93,11.69,8.93s11.91-8.27,11.91-8.27l-0.22-10.14l-23.15,1.1
	L52.61,93.59z"/>
<path style="fill:#00BDA3;" d="M14.76,123.61c-0.36-0.49,0.24-5.21,4.72-9.76c3.58-3.64,10.63-7.08,14.36-8.75
	c8.39-3.76,18.53-5.88,18.53-5.88s1.76,7.6,12.45,7.79c11.7,0.21,11.15-8.13,11.15-8.13s22.34,3.42,31.81,12.59
	c4.52,4.38,5.82,9.13,5.51,12.12c-0.1,0.95-22.36,0.2-48.48,0.47c-26.11,0.28-50.05-0.47-50.05-0.47L14.76,123.61z"/>
<path style="fill:#F9DDBD;" d="M38.96,40.71c-1.46,0.93-1.35,13.42-2.18,18.78c-0.88,5.67-4.79,7.26-4.79,7.26s2.09,8.3,5.38,14.62
	c4.52,8.68,13.56,17.58,27.49,17.58c11.59,0,18.28-6.16,22.7-11.49c6.57-7.92,8.82-20.86,8.82-20.86s-2.31-1.82-3.93-7.12
	c-1.9-6.19-1.29-17.23-2.96-18.36s-9.36-0.89-24.54-0.68C52.9,40.6,40.43,39.77,38.96,40.71L38.96,40.71z"/>
<path style="fill:#DBA689;" d="M64.94,71.67c-3.15,0.06-4.34-1.01-5.45,0.13c-1.02,1.04-0.11,2.52,1.59,3.84
	c2.31,1.79,5.89,1.73,7.74,0.07c1.84-1.64,2.63-3.03,1.45-4.04S68.17,71.61,64.94,71.67L64.94,71.67z"/>
<path style="fill:#444444;" d="M65.03,81.12c-4.42,0-8.6-1.68-9.6,0.07s2.38,5.58,9.6,5.63c8.17,0.06,10.81-4.31,9.76-5.89
	S70.12,81.12,65.03,81.12z"/>
<g>
	<path style="fill:#312D2D;" d="M41.33,53.71c0.93,1.21,3.59-0.91,7.88-1.46c3.51-0.45,7.01,0.86,7.51-1.5
		c0.59-2.79-3.03-3.28-8.24-2.52C43.16,49.01,40.08,52.08,41.33,53.71L41.33,53.71z"/>
	<path style="fill:#312D2D;" d="M73.78,52.14c1.77,0.58,3.01,0.04,6.64,0.46c3.39,0.39,6.42,1.85,7.46,0.78s-1.8-4.16-7.39-4.96
		c-5.04-0.72-7.29-0.51-7.96,1.31c-0.4,1.1,0.51,2.17,1.24,2.41H73.78z"/>
</g>
<g>
	<path style="fill:#3F4040;" d="M41.83,61.66c-0.6,1.97,3.62,4.45,7.78,4.45c4.41,0,8.9-2.16,7.55-4.5
		c-1.05-1.82-3.19,0.39-7.71,0.44C45.53,62.09,42.59,59.16,41.83,61.66L41.83,61.66z"/>
	<path style="fill:#3F4040;" d="M72.64,61.85c-1.1,1.57,2.14,4.45,7.34,4.34c5.9-0.13,8.18-3.44,7.1-4.72
		c-1.49-1.76-3.45,1.01-7.23,1.06s-5.85-2.62-7.2-0.67L72.64,61.85z"/>
</g>
<path style="fill:#F9DDBD;" d="M20.71,4.47c-0.63,0.71,0.4,2.95-0.13,7.44s-2.12,17.33-0.53,24.6s3.7,10.98,4.23,15.47
	s0.93,12.56,2.78,12.96s5.55-1.45,6.08-6.88c0.53-5.42-0.93-11.24-0.79-15.08s0.79-6.08,1.72-6.08s3.97,1.59,7.67,1.45
	s7.12-2.51,6.08-5.42c-0.66-1.85-3.2-0.32-6.79-5.48c-2.12-3.04-1.81-6.03-3.92-11.32c-1.21-3.02-2.65-4.89-2.65-4.89
	s-0.01-4.34-0.32-5.53C33.67,3.89,21.76,3.27,20.71,4.47L20.71,4.47z"/>
<path style="fill:#F9DDBD;" d="M96.26,6.18C95.38,6.8,96,10.86,96,10.86s-2.73,5.1-4.14,9.42c-1.41,4.31-3.08,8.62-6.25,9.94
	s-5.37,1.23-6.16,2.29s0.18,5.81,6.86,6.34s7.92-2.29,9.06-1.41s0.09,18.65,1.5,22.44c1.41,3.78,5.98,6.34,7.3,5.19
	s0.09-9.15,1.41-16.98c1.15-6.84,2.46-10.47,3.17-15.57s0.88-13.81,0.35-17.25s-1.23-5.37-1.23-5.37s0.35-2.66-0.09-3.27
	s-2.55-1.67-5.72-1.67s-4.93,0.62-5.81,1.23L96.26,6.18z"/>
</svg>
