<?xml version="1.0" encoding="utf-8"?>
<!-- Generator: Adobe Illustrator 26.3.1, SVG Export Plug-In . SVG Version: 6.00 Build 0)  -->
<svg version="1.1" id="a" xmlns="http://www.w3.org/2000/svg" xmlns:xlink="http://www.w3.org/1999/xlink" x="0px" y="0px"
	 viewBox="0 0 128 128" style="enable-background:new 0 0 128 128;" xml:space="preserve">
<path style="fill:#312D2D;" d="M84.6,19.18c0,0-0.14-9.89-15.9-10.13C53.01,8.81,49.97,18.47,41.56,20.9
	c-7.5,2.17-13.16,1.82-13.16,1.82s-3.44,6.89-5.06,11.54c-3.86,11.09,0.91,16.71,0.91,16.71s-7.18,8.34-2.43,17.21
	c3.52,6.57,7.1,7.42,6.99,11.64s-4.27,4.96-4.15,6.78s1.72,2.94,3.95,3.75c3.51,1.28,6.87,0.51,6.87,0.51s2.03,4.08,7.31,5.14
	c6.85,1.37,11.07-2.05,11.07-2.05l11.19-6.05c0,0,9.54,9.05,20.15,9.55c7.52,0.35,12.47-3.29,12.47-3.86s-2.43-3.65-2.43-3.65
	s3.71,1.64,7.59-0.3s4.32-4.95,3.75-5.97s-5.87-0.41-5.57-6.48c0.36-7.11,7.29-6.68,6.28-18.02c-0.83-9.35-5.02-12.82-5.02-12.82
	s6.16-7.99-1.83-19.06c-7.04-9.76-15.83-8.11-15.83-8.11L84.6,19.18z"/>
<g>
	<path style="fill:#EDBD82;" d="M30.85,58.39c0,0-6.42-0.86-4.43,9.56c1.79,9.37,11.23,8.38,11.23,8.38l-4.71-5.89
		c0,0-1-2.99-1.45-6.16s-0.63-5.89-0.63-5.89H30.85z"/>
	<path style="fill:#EDBD82;" d="M97.37,58.92c1.09-0.45,6.58,2.23,5.4,9.57s-6.7,7.85-8.24,7.85s-5.25-3.35-5.25-3.35
		s6.07-2.63,7.16-3.9S97.37,58.92,97.37,58.92z"/>
</g>
<path style="fill:#EDBD82;" d="M52.57,93.45l-0.23,8.41c0,0-0.79,8.96,11.72,8.96s11.95-8.3,11.95-8.3l-0.23-10.18l-23.22,1.11
	H52.57z"/>
<path style="fill:#F9DDBD;" d="M37.1,49.9c-1,1.01-0.69,18.02-2.36,20.01c-0.77,0.92-1.81,0.51-1.81,0.51s5.86,25.22,31.83,25.84
	c12.14,0.29,19.04-4.67,23.66-9.92c6.88-7.79,8.02-17.19,8.02-17.19s-2.1,0.67-2.44-1.01s0.67-17.59-5.66-24.62
	c-4.74-5.27-9.16-3.63-9.16-3.63s-2.38-7.48-12.31-6.62c-7.52,0.65-9.76,7.07-20.61,12.17c-5.71,2.69-9.16,4.47-9.16,4.47L37.1,49.9
	z"/>
<path style="fill:#DBA689;" d="M64.99,69.2c-3.09,0.06-4.25-0.99-5.34,0.12c-1,1.02-0.11,2.47,1.56,3.76
	c2.26,1.76,5.76,1.7,7.58,0.07c1.8-1.61,2.57-2.97,1.42-3.95c-1.16-0.99-2.06-0.06-5.21,0L64.99,69.2z"/>
<path style="fill:#444444;" d="M65.08,78.45c-4.33,0-8.42-1.64-9.4,0.07s2.33,5.46,9.4,5.51c8,0.06,10.58-4.22,9.56-5.77
	S70.07,78.45,65.08,78.45z"/>
<g>
	<path style="fill:#312D2D;" d="M41.88,51.62c0.91,1.19,3.52-0.89,7.72-1.43c3.44-0.44,6.86,0.84,7.35-1.47
		c0.58-2.73-2.97-3.21-8.06-2.46C43.68,47.03,40.67,50.03,41.88,51.62L41.88,51.62z"/>
	<path style="fill:#312D2D;" d="M73.65,50.08c1.73,0.56,2.95,0.04,6.5,0.45c3.32,0.38,6.29,1.81,7.31,0.76s-1.77-4.07-7.23-4.85
		c-4.93-0.71-7.14-0.5-7.79,1.29c-0.39,1.08,0.5,2.13,1.21,2.36L73.65,50.08z"/>
</g>
<g>
	<path style="fill:#3F4040;" d="M42.37,59.4c-0.59,1.93,3.55,4.36,7.62,4.36c4.31,0,8.71-2.11,7.39-4.41
		c-1.03-1.78-3.12,0.38-7.54,0.43C46,59.82,43.13,56.95,42.37,59.4L42.37,59.4z"/>
	<path style="fill:#3F4040;" d="M72.53,59.59c-1.08,1.54,2.09,4.36,7.18,4.24c5.78-0.13,8.01-3.37,6.95-4.62
		c-1.46-1.73-3.38,0.99-7.08,1.03S73.86,57.68,72.53,59.59L72.53,59.59z"/>
</g>
<g>
	<path style="fill:#F9DDBD;" d="M20.57,4.64c-0.64,0.72,0.4,5.71-0.13,10.22s-2.12,17.38-0.53,24.68s3.72,11.01,4.25,15.53
		s0.93,12.61,2.79,13s5.57-1.46,6.1-6.9s-0.93-11.28-0.8-15.13s0.8-6.1,1.73-6.1s3.98,1.59,7.7,1.46s7.15-2.52,6.1-5.44
		c-0.66-1.86-3.21-0.32-6.81-5.5c-2.12-3.05-1.81-6.05-3.93-11.35c-1.21-3.03-2.65-4.91-2.65-4.91s-0.01-7.11-0.32-8.3
		C33.6,4.07,21.65,3.45,20.59,4.64L20.57,4.64z"/>
	<path style="fill:#F9DDBD;" d="M96.74,5.13c-0.88,0.62-0.26,6.44-0.26,6.44s-2.74,5.12-4.15,9.45s-3.09,8.65-6.27,9.98
		c-3.18,1.32-5.39,1.24-6.18,2.3s0.18,5.83,6.89,6.36c6.71,0.53,7.95-2.3,9.09-1.41s0.09,18.72,1.5,22.51c1.41,3.8,6,6.36,7.33,5.21
		s0.09-9.18,1.41-17.04c1.16-6.86,2.47-10.51,3.18-15.63s0.88-13.86,0.35-17.3s-1.24-5.39-1.24-5.39s0.35-4.41-0.09-5.03
		s-2.56-1.68-5.74-1.68s-4.94,0.62-5.83,1.24L96.74,5.13z"/>
</g>
<path style="fill:#F06E00;" d="M14.59,123.58c-0.36-0.49,0.24-5.23,4.74-9.79c3.59-3.65,10.67-7.1,14.41-8.78
	c8.42-3.77,18.59-5.89,18.59-5.89s1.76,7.63,12.49,7.82c11.74,0.21,11.19-8.15,11.19-8.15s22.42,3.44,31.91,12.64
	c4.54,4.4,5.84,9.16,5.53,12.16c-0.1,0.96-22.44,0.2-48.64,0.47C38.61,124.34,14.59,123.59,14.59,123.58L14.59,123.58z"/>
</svg>
