<?xml version="1.0" encoding="utf-8"?>
<!-- Generator: Adobe Illustrator 26.3.1, SVG Export Plug-In . SVG Version: 6.00 Build 0)  -->
<svg version="1.1" id="a" xmlns="http://www.w3.org/2000/svg" xmlns:xlink="http://www.w3.org/1999/xlink" x="0px" y="0px"
	 viewBox="0 0 128 128" style="enable-background:new 0 0 128 128;" xml:space="preserve">
<path style="fill:#63453B;" d="M95.65,107.76c0,0,4.3-11.18,7.29-43.34c3.2-34.44-17.17-51.95-36.15-53.02
	c-18.97-1.07-43.08,11.66-40.31,54.25c1.46,22.37,4.04,36.54,7.73,45.91c12.94,0.23,31.3,0.23,31.3,0.23l30.12-4.03H95.65z"/>
<path style="fill:#F09D02;" d="M52.57,93.45l-0.23,8.41c0,0-0.79,8.96,11.72,8.96s11.95-8.3,11.95-8.3l-0.23-10.18l-23.22,1.11
	H52.57z"/>
<path style="fill:#583EE2;" d="M14.59,123.58c-0.36-0.49,0.24-5.23,4.74-9.79c3.59-3.65,10.67-7.1,14.41-8.78
	c8.42-3.77,18.59-5.89,18.59-5.89s1.76,7.63,12.49,7.82c11.74,0.21,11.19-8.15,11.19-8.15s22.42,3.44,31.91,12.64
	c4.54,4.4,5.84,9.16,5.53,12.16c-0.1,0.96-22.44,0.2-48.64,0.47C38.61,124.34,14.59,123.59,14.59,123.58L14.59,123.58z"/>
<g>
	<path style="fill:#FFCA26;" d="M20.16,4.98c-0.64,0.72,0.4,4.96-0.13,9.47c-0.53,4.51-2.12,17.38-0.53,24.68s3.72,11.01,4.25,15.53
		s0.93,12.61,2.79,13s5.57-1.46,6.1-6.9s-0.93-11.28-0.8-15.13s0.8-6.1,1.73-6.1s3.98,1.59,7.7,1.46s7.15-2.52,6.1-5.44
		c-0.66-1.86-3.21-0.32-6.81-5.5C38.44,27,38.75,24,36.63,18.7c-1.21-3.03-2.65-4.91-2.65-4.91s-0.01-6.36-0.32-7.55
		c-0.47-1.83-12.42-2.45-13.48-1.26L20.16,4.98z"/>
	<path style="fill:#FFCA26;" d="M97.97,5.13c-0.88,0.62-0.26,6.44-0.26,6.44s-2.74,5.12-4.15,9.45s-3.09,8.65-6.27,9.98
		c-3.18,1.33-5.39,1.24-6.18,2.3s0.18,5.83,6.89,6.36s7.95-2.3,9.09-1.41s0.09,18.72,1.5,22.51c1.41,3.8,6,6.36,7.33,5.21
		s0.09-9.18,1.41-17.04c1.16-6.86,2.47-10.51,3.18-15.63s0.88-13.86,0.35-17.3s-1.24-5.39-1.24-5.39s0.35-4.41-0.09-5.03
		s-2.56-1.68-5.74-1.68s-4.94,0.62-5.83,1.24L97.97,5.13z"/>
</g>
<path style="fill:#FFCA26;" d="M71.31,30.2c-0.52,0-5.52,5.64-16.19,11.09c-12.09,6.18-18.73,6.31-18.73,6.31
	s-2.18,11.61,1.44,26.74c2.21,9.24,11.93,22.16,26.55,22.09c18.9-0.09,25.76-14.24,27.57-23.57c2.52-13.04,0.84-23.15,0.84-23.15
	s-8.66-5.18-13.51-10.25C74.43,34.39,71.31,30.2,71.31,30.2L71.31,30.2z"/>
<path style="fill:#E59700;" d="M64.79,69.55c-3.11,0.06-4.27-0.99-5.37,0.12c-1.01,1.02-0.11,2.48,1.57,3.78
	c2.28,1.77,5.8,1.71,7.62,0.07c1.81-1.62,2.59-2.98,1.42-3.98c-1.16-0.99-2.07-0.06-5.24,0V69.55z"/>
<path style="fill:#785446;" d="M64.88,78.85c-4.36,0-8.47-1.65-9.45,0.07s2.34,5.5,9.45,5.55c8.04,0.06,10.64-4.24,9.62-5.8
	s-4.6,0.19-9.62,0.19V78.85z"/>
<g>
	<path style="fill:#6D4C42;" d="M41.54,51.86c0.91,1.19,3.54-0.9,7.76-1.44c3.46-0.44,6.9,0.84,7.39-1.48
		c0.58-2.75-2.99-3.23-8.11-2.48C43.34,47.23,40.31,50.25,41.54,51.86L41.54,51.86z"/>
	<path style="fill:#6D4C42;" d="M73.5,50.32c1.74,0.57,2.96,0.04,6.54,0.45c3.34,0.38,6.33,1.82,7.35,0.77s-1.78-4.09-7.27-4.88
		c-4.96-0.71-7.18-0.5-7.84,1.29C71.88,49.03,72.79,50.09,73.5,50.32z"/>
</g>
<g>
	<path style="fill:#3F4040;" d="M42.04,59.69c-0.6,1.94,3.57,4.38,7.66,4.38c4.34,0,8.76-2.13,7.43-4.44
		c-1.03-1.79-3.14,0.39-7.59,0.43c-3.86,0.04-6.75-2.85-7.51-0.38L42.04,59.69z"/>
	<path style="fill:#3F4040;" d="M72.38,59.88c-1.08,1.55,2.11,4.38,7.23,4.27c5.81-0.13,8.05-3.39,6.99-4.65
		c-1.47-1.74-3.4,1-7.12,1.04S73.72,57.96,72.38,59.88z"/>
</g>
</svg>
