<?xml version="1.0" encoding="utf-8"?>
<!-- Generator: Adobe Illustrator 26.3.1, SVG Export Plug-In . SVG Version: 6.00 Build 0)  -->
<svg version="1.1" id="a" xmlns="http://www.w3.org/2000/svg" xmlns:xlink="http://www.w3.org/1999/xlink" x="0px" y="0px"
	 viewBox="0 0 128 128" style="enable-background:new 0 0 128 128;" xml:space="preserve">
<path style="fill:#DA342E;" d="M30.55,115.65l-6.65,2.08c0,0-0.3,2.3,0.11,3.72s1.15,2.23,3.64,2.29s33.3,0,33.3,0l6.1,0.04
	c0,0,33.71-0.11,34.65-0.11s2.36-1.69,2.5-3.57s-0.95-3.29-0.95-3.29l-32.02-4.21C71.23,112.6,30.55,115.65,30.55,115.65z"/>
<path style="fill:#232020;" d="M38.2,62.71c0,0-10.73,5.41-8.78,16.81c1.1,6.44,4.66,7.75,4.57,11.05s-3.29,3.95-3.2,5.38
	s1.67,3.28,3.43,4.14c2.62,1.27,4.84,0.39,4.84,0.39s2.31,3.2,6.42,4.02c5.34,1.07,27.08,0.6,35.35,0.78s11.5-2.06,11.5-2.51
	S91,99.63,91,99.63s2.99,1.05,6.01-0.47c3.02-1.52,3.49-4.39,3.05-5.2s-4.25-1.93-4.42-5.5c-0.26-5.52,4.5-5.42,4.41-11.52
	c-0.11-7.35-7.36-15.6-7.36-15.6l-54.48,1.37L38.2,62.71z"/>
<g>
	<path style="fill:#573D36;" d="M36.36,71.94c-0.46-0.25-5.83,1.43-4.39,8.97c0.62,3.24,2.87,5.3,5.14,6.15
		c2.72,1.02,5.47,0.46,5.47,0.46l-4.37-5.38c0,0-0.81-2.89-1.22-5.65s-0.16-4.3-0.62-4.55H36.36z"/>
	<path style="fill:#573D36;" d="M91.93,71.73c1.04-0.41,6,2.34,4.87,9.06c-1.13,6.71-6.33,7.58-7.8,7.58s-5.02-3.07-5.02-3.07
		s5.51-2.8,6.55-3.96S91.92,71.73,91.93,71.73L91.93,71.73z"/>
</g>
<polygon style="fill:#573D36;" points="52.8,105.34 62.88,119.37 65.08,119.37 74.76,105.22 74.76,102.17 52.82,101.41 "/>
<path style="fill:#FFFFFF;" d="M76.69,113.26l-0.85,2.72c0,0,6.06,1.59,12.96,2.15s10.64,0.7,11.77,0.57
	c2.77-0.34,2.67-1.88,2.67-1.88l-9.12-2.02l-17.44-1.53L76.69,113.26z"/>
<path style="fill:#FFFFFF;" d="M26.82,116.26l-2.92,1.47c0,0,0.03,1.53,2.41,1.7s7.53-0.37,12.62-1.02
	c7.98-1.02,13.13-3.34,13.13-3.34l-1.64-2.55l-15,2.83C35.42,115.35,26.82,116.26,26.82,116.26z"/>
<path style="fill:#474C4F;" d="M66.28,114.04l-0.38,6.01c0,0,3.72,0.8,8.57-2.09c2.65-1.58,3.17-3.52,3.17-3.52s4.67,0.92,10.9,1.5
	s14.7,0.86,14.7,0.86s-1.44-2.48-4.61-2.94s-7.09-0.39-10.15-0.75c-3.46-0.4-8.77-1.27-9.8-1.73c-0.76-0.34-1.79-0.92-1.96-1.73
	s-0.17-3.17-0.17-3.17l-5.65,0.06L66.28,114.04L66.28,114.04z"/>
<path style="fill:#474C4F;" d="M53.25,106.03l-2.83,0.63c0,0-0.06,3.06-0.06,3.46s-3,1.73-5.82,2.54
	c-2.83,0.81-10.44,1.5-12.51,1.73s-4.02,0.42-5.54,0.92c-2.25,0.75-2.59,2.42-2.59,2.42s9.43-0.61,14.59-1.27
	c6.75-0.86,11.01-2.65,11.42-2.48s1.59,2.79,4.56,4.21c3.98,1.9,7.48,1.59,7.48,1.59l-0.5-9.15l-5.54-4.21l-2.65-0.4L53.25,106.03z"
	/>
<path style="fill:#FFCA26;" d="M55.78,109.34c-1.66,0.07-2.56,1-2.46,2.93c0.07,1.33,1.13,2.4,2.66,2.33
	c1.4-0.06,2.66-0.8,2.53-2.79c-0.1-1.46-1.07-2.53-2.73-2.46V109.34z"/>
<path style="fill:#FFCA26;" d="M71.71,109.86c-1.65,0.24-2.5,1.39-2.53,2.86c-0.03,1.6,1.2,2.66,2.79,2.6
	c1.71-0.07,2.73-1.46,2.46-3.19c-0.21-1.38-1.33-2.46-2.73-2.26L71.71,109.86z"/>
<path style="fill:#FEFEFE;" d="M50.24,105.94c-0.18,0.89,1.08,1.35,3.42,1.43s4.5,0.79,6.06,3.42s1.22,12.96,1.22,12.96
	s1.13,0.33,3.13,0.28c1.74-0.04,2.98-0.24,2.98-0.24s-0.02-3.91,0.47-7.7c0.31-2.42,0.82-4.58,1.41-5.51
	c1.59-2.52,3.62-3.13,5.05-3.21s2.67-0.11,2.74-1.25s-3.03-1.37-5.26-0.5c-1.59,0.62-4.01,2.22-5.19,4.69
	c-1.01,2.1-1.21,4.61-1.36,6.64c-0.08,1.05-1.25,1.01-1.25-0.05s-0.03-4.19-1.17-6.75s-2.99-4.14-5.78-4.85s-6.26-0.47-6.49,0.64
	H50.24z"/>
<path style="fill:#70534A;" d="M44.17,61.6c-0.82,0.86-2.54,6.85-3.23,13.1c-0.28,2.58-0.26,7.42-1.08,7.99s-1.32,0.16-1.32,0.16
	s0.53,5.94,4.64,11.64c3.8,5.28,10.69,10.37,21.49,10.37c9.98,0,15.82-3.56,19.63-8.03c5.66-6.63,6.27-14.44,6.27-14.44
	s-1.93,0.99-2.43-0.99c-0.35-1.42-0.06-17.85-5.26-23.84c-3.9-4.48-12.05-4.44-18.36-4.11C55.98,53.9,44.17,61.59,44.17,61.6
	L44.17,61.6z"/>
<path style="fill:#4A2F27;" d="M64.29,81.33c-1.56,0.05-3.2-0.63-3.91,0.25s0.2,1.88,1.15,2.67c1.59,1.32,3.7,1.31,5.19,0.21
	c1.54-1.14,2.03-2.34,1.21-3.07s-2.17-0.1-3.63-0.05L64.29,81.33z"/>
<path style="fill:#1A1717;" d="M64.29,89.49c-3.73,0-7.28-1.39-7.95,0.07c-0.98,2.16,2.71,4.63,8.08,4.63c6.89,0,9.16-3.46,8.28-4.7
	C71.82,88.25,68.59,89.49,64.29,89.49z"/>
<g>
	<path style="fill:#1A1717;" d="M50.42,69.49c-3.3-0.05-4.59,2.81-4.39,4.83s1.73,3.94,4.63,3.9c2.76-0.05,4.29-1.87,4.29-4.29
		S53.47,69.54,50.42,69.49L50.42,69.49z"/>
	<path style="fill:#1A1717;" d="M77.55,69.4c-2.46-0.26-4.73,1.48-4.63,4.44c0.11,3.3,3,4.34,4.59,4.34c2.27,0,4.1-1.68,4.14-4.09
		c0.05-2.71-1.33-4.39-4.09-4.68L77.55,69.4z"/>
</g>
<path style="fill:#C18816;" d="M64.73,99.75h-0.21c-27.22-0.16-30.2-29.49-30.23-29.79l3.18-0.29c0,0.07,0.69,6.82,4.43,13.47
	c4.9,8.7,12.54,13.15,22.69,13.21h0.19c22.99,0,26.55-25.63,26.69-26.72l3.17,0.39C94.6,70.32,90.54,99.76,64.73,99.75L64.73,99.75z
	"/>
<g>
	<path style="fill:#464C4F;" d="M26.45,67.22c0,0-6.33-26.57,1.05-42.35S46.11,3.73,64.01,3.97c19.36,0.26,29.67,7.52,36.03,19.5
		c7.2,13.57,2.49,43.27,2.49,43.27l-37.3-4.45l-38.77,4.92L26.45,67.22z"/>
	<path style="fill:#3E4346;" d="M26.45,67.22c0,0,15.37-13.83,38.7-14.23c22.1-0.38,37.37,13.75,37.37,13.75s-0.76,5.12-1.33,7.4
		s-0.85,4.55-1.61,5.03s-7.3-12.52-34.71-12.05c-25.25,0.44-34.05,11.57-35.38,11s-1.61-3.41-2.28-6.45
		C26.83,69.91,26.45,67.21,26.45,67.22L26.45,67.22z"/>
	<path style="fill:#50565C;" d="M42.18,14.18c-1.76,1.42-3.23,3.59-1.32,5.72s4.98-0.66,6.01-1.61s2.27-3.15,1.03-4.76
		S44.09,12.65,42.18,14.18L42.18,14.18z"/>
	<path style="fill:#50565C;" d="M30.75,29.14c-0.26,1.71,1.54,3.15,4.18,3.23s4.49-0.95,4.54-2.64c0.07-2.27-1.25-3.23-4.03-3.37
		c-2.79-0.15-4.4,0.88-4.69,2.79L30.75,29.14z"/>
	<path style="fill:#50565C;" d="M41.74,42.26c-1.6-1.84-4.76-0.29-6.23,1.25s-3.37,3.96-1.39,5.94s4.03,0,5.72-1.39
		s3.37-4.11,1.91-5.79L41.74,42.26z"/>
	<path style="fill:#50565C;" d="M50.1,38.81c-1.8,1.96-3.37,4.11-1.39,5.94c2.14,1.98,4.54-0.66,5.72-1.69s3.01-3.96,1.76-5.35
		s-3.59-1.61-6.08,1.1H50.1z"/>
	<path style="fill:#3E4346;" d="M86.9,42.04c-0.73,2.2,1.1,3.45,4.33,4.33s5.2,0.07,5.5-2.05s-1.03-3.37-4.4-3.96
		c-2.9-0.5-4.76-0.29-5.42,1.69L86.9,42.04z"/>
	<path style="fill:#3E4346;" d="M81.18,45.7c-1.76,1.98,0.51,4.33,2.05,6.16s4.25,3.08,5.72,1.32c1.74-2.08-0.66-4.47-1.91-5.86
		S83.08,43.57,81.18,45.7L81.18,45.7z"/>
	<path style="fill:#3E4346;" d="M80.45,24.67c-1.98,1.29-1.54,3.96,0.73,6.45c2.27,2.49,4.25,2.2,5.42,1.25s1.03-3.15-0.81-5.5
		C84.4,25.09,82.34,23.42,80.45,24.67L80.45,24.67z"/>
	<path style="fill:#3E4346;" d="M83.97,18.14c-1.31,1.73-0.44,4.11,3.08,6.38c3.52,2.27,6.03,3.13,7.11,0.73s-1.39-3.89-3.74-5.42
		C88.63,18.66,85.8,15.72,83.97,18.14z"/>
</g>
</svg>
