<?xml version="1.0" encoding="utf-8"?>
<!-- Generator: Adobe Illustrator 26.3.1, SVG Export Plug-In . SVG Version: 6.00 Build 0)  -->
<svg version="1.1" id="Layer_2_00000052799965294126415390000005503516353270721961_"
	 xmlns="http://www.w3.org/2000/svg" xmlns:xlink="http://www.w3.org/1999/xlink" x="0px" y="0px" viewBox="0 0 128 128"
	 style="enable-background:new 0 0 128 128;" xml:space="preserve">
<path style="fill:#FAA700;" d="M75.4,97.1c7.8-11,2.5-16.2,0.8-18.1c-0.4-0.4-4.9-4.3-7.2-3.7c-8.8,2.6-25.1,15.5-25.1,15.5
	s14.8-11,21.6-18c7.6-7.7,4.5-12.4,4.1-14c-1.6-4.3-7.9-9.2-12.7-8.8L22.2,70.7c0,0,3.6-2.7,8.1-5.8c5.7-4,12.4-12.1,8.8-19.9
	c-0.5-1.1-3.7-7.1-9.1-7.3s-14.3,5.8-22.7,9.7v73.5h48C63.5,111.7,72.8,100.9,75.4,97.1z"/>
<g>
	<path style="fill:#B55E19;" d="M28.4,62.6c-3.9,2.7-17.3,10.9-21.1,13.3v4c2.7-1.5,18.5-11.8,23-14.9c5.7-4,12.9-9.8,9.3-17.6
		c-0.2-0.3-1-1.1-1.9-1.1c2.6,7.1-2.2,11.7-9.4,16.3C28.3,62.6,28.4,62.6,28.4,62.6z"/>
	<path style="fill:#B55E19;" d="M67.8,56.9c0.5,1.4,3.1,7.1-4.1,14S7.3,116.4,7.3,116.4v4.3l36.6-29.9c0,0,14.8-11,21.6-18
		c7.6-7.7,4.8-12.9,4.4-14.5c-0.5-1.9-2.9-3.7-3.8-4.3C66.3,54.7,67.6,56,67.8,56.9z"/>
	<path style="fill:#B55E19;" d="M77.7,80.8c0.6,3.6,0,8.5-4.1,14.4c-2.4,3.5-14.5,16.5-22.8,25.6h4.5c8.2-9.1,17.5-19.9,20.1-23.7
		C81.5,88.5,79.6,83.5,77.7,80.8z"/>
</g>
<g>
	<path style="fill:#FFCA28;" d="M61.7,100.2c-5.1-0.7-8.9-5.1-8.3-9c0.5-4.9,14.4,1.4,15.8-0.5c2.2-2.8,4.3-5.7,6.2-8.7
		c0.2-0.3,0.4-0.7,0.5-1.1c0-0.9-0.8-1.7-1.3-2.2c-4.8-4.7-9-5.3-19.1,2.4c-7.3,5.6-33.8,27.6-48.1,39.6v0.3h37.2
		c0,0,11.6-12.1,13.7-14.3s6.7-6,3.5-6.4h-0.1L61.7,100.2z"/>
	<path style="fill:#FFCA28;" d="M28.1,37.7c-2.8,0.4-11.9,4.9-20.8,9.7v23.7c9.4-5.8,11.8-7.2,14-9.1c2.6-2.3-7.4-2.4-6.6-12.8
		c0.3-3.5,19-1.3,22.4-3.9C37.3,45.1,34.2,36.8,28.1,37.7z"/>
	<path style="fill:#FFCA28;" d="M64.6,54.8c-1-2.1-2.5-3.2-7-4.6c-2.1-1.3-7.9,2.6-21.1,10.5c-7.8,4.6-19.2,12.1-29.2,18.8V109
		c18.8-14.5,41.9-31.8,43.9-33.7c1.9-1.8-8.8-3.1-7.5-13.3c0.2-1.4,12.4,6.1,13,4.9c1.2-2.4,2.6-4.7,4.3-6.8
		c0.7-0.8,1.4-1.6,2.3-2.1C63.8,57.8,65.6,56.9,64.6,54.8z"/>
</g>
<g id="unpainted_nail">
	<path style="fill:#FFD766;" d="M43.4,36.8c2.7,3.9,1.9,8.1-4.8,14.2c-4.9,4.4-8.2,6.1-13,7.1c-4.3,0.9-7.2-1.4-9.8-6.1
		c-2.1-3.8-0.7-5.8,0.3-7.1c2.9-3.8,10-7,13.9-8.5C36.1,34.2,41.4,34.1,43.4,36.8z"/>
	<path style="fill:#FFD766;" d="M69.5,62.4c-3.3,3-8.4,7.2-12.9,8.5c-2.1,0.6-6.4,1-10.7-4.2c-4.2-5.1-1.5-8.4-0.5-9.7
		c3.1-4,8.3-6.9,12.9-9c5.7-2.6,11.2-3.6,14.1-1.1C76.4,50.1,75.7,56.7,69.5,62.4z"/>
	<path style="fill:#FFD766;" d="M78.4,73.5c4.7,3.2,1.9,10.5-0.8,14.1c-2.9,3.9-6.8,8.4-10.2,9.9c-2.4,1.1-6.2,2-11.4-2.3
		c-4.3-3.6-2.9-8.6-1.4-11c2.3-3.8,6.5-6.7,11.3-9.5C71.1,71.5,75.6,71.6,78.4,73.5z"/>
</g>
<g id="unpainted_nail-2">
	<path style="fill:#FFE8AE;" d="M19.9,50.7c2.7,3.9,2.1,7.6,0.6,6.7s-3.2-2.8-4.6-5.4c-1-1.7-1.2-3.1-1.1-4.2S17.9,48,19.9,50.7z"/>
	<path style="fill:#FFE8AE;" d="M50.9,70.6c-1.6-0.6-3.3-1.8-5-3.9c-1.5-1.8-2.1-3.3-2.2-4.7c-0.3-2.5,3.5-1.3,6.2,2
		s3.5,7.5,1.1,6.5l0,0L50.9,70.6z"/>
	<path style="fill:#FFE8AE;" d="M59.7,92.1c3.8,3.3,4.5,6.6,2.3,6.2s-3.7-1.2-6-3.1c-1.7-1.4-2.5-3.1-2.8-4.7S55.3,88.3,59.7,92.1z"
		/>
</g>
<g>
	<g>
		<path style="fill:#F44336;" d="M43.4,36.8c2.7,3.9,1.9,8.1-4.8,14.2c-4.9,4.4-8.2,6.1-13,7.1c-4.3,0.9-7.2-1.4-9.8-6.1
			c-2.1-3.8-0.7-5.8,0.3-7.1c2.9-3.8,10-7,13.9-8.5C36.1,34.2,41.4,34.1,43.4,36.8z"/>
		<path style="fill:#F44336;" d="M69.5,62.4c-3.3,3-8.4,7.2-12.9,8.5c-2.1,0.6-6.4,1-10.7-4.2c-4.2-5.1-1.5-8.4-0.5-9.7
			c3.1-4,8.3-6.9,12.9-9c5.7-2.6,11.2-3.6,14.1-1.1C76.4,50.1,75.7,56.7,69.5,62.4z"/>
		<path style="fill:#F44336;" d="M78.4,73.5c4.7,3.2,1.9,10.5-0.8,14.1c-2.9,3.9-6.8,8.4-10.2,9.9c-2.4,1.1-6.2,2-11.4-2.3
			c-4.3-3.6-2.9-8.6-1.4-11c2.3-3.8,6.5-6.7,11.3-9.5C71.1,71.5,75.6,71.6,78.4,73.5z"/>
	</g>
	<g>
		<path style="fill:#C62828;" d="M77.6,87.6c2-2.7,4.1-7.5,3-11.1c-2,2.3-13.6,16.1-18.9,18.3C59.4,95.7,57,96,57,96l0,0
			c4.7,3.4,8.2,2.5,10.4,1.5C70.8,96,74.7,91.5,77.6,87.6z"/>
		<path style="fill:#C62828;" d="M74.9,52.8c-4,3.1-18.6,14-23.3,15.1c-2,0.5-3.2,0.6-4,0.5c3.5,3.2,7.2,3,9,2.5
			c4.5-1.3,9.6-5.4,12.9-8.5C73,59.2,74.7,55.8,74.9,52.8z"/>
		<path style="fill:#C62828;" d="M21.6,55.7c-1.3,0.2-2.3,0.3-3,0.3c1.9,1.9,4.1,2.7,6.9,2.1c4.8-1,8.1-2.8,13-7.1
			c3.4-3.1,5.3-5.7,6-8C38.4,47,25.7,55.1,21.6,55.7z"/>
	</g>
	<g>
		<path style="fill:#FF7555;" d="M20.5,45.6c2.2-2.5,7.2-6.5,13.5-8.3c2.8-0.8,3.7,2,1.8,2.8c-4,1.7-12,6.1-13.1,6.7
			C20.5,48,19,47.4,20.5,45.6z"/>
		<path style="fill:#FF7555;" d="M49.3,58.3c3.5-4,6.5-6.1,12.4-9.1c1.3-0.7,3.1-0.8,3.9-0.3c1.5,0.9,1.6,2.2-0.3,3.2
			c-8.4,4.3-10.6,6.2-14.2,8C49.2,61.1,48.2,59.6,49.3,58.3z"/>
		<path style="fill:#FF7555;" d="M64.5,79.5c4.1-3.5,6.7-4.6,7.5-3.9c1.5,1.1,0.3,2.5-1.1,3.6s-9.1,7.2-10.2,8.1
			c-1.2,0.9-2.8,1.3-2.1-0.6C59.1,85.2,61.3,82.2,64.5,79.5z"/>
	</g>
</g>
<g>
	<path style="fill:#546E7A;" d="M80.2,30.9c-1.5,4.3,4.9,10.3,14.2,13.5s18,2.3,19.4-2c0.7-2.1,6.5-35.1,6.5-35.1H92.5
		C88.2,15.4,81.2,28.1,80.2,30.9z"/>
	
		<ellipse transform="matrix(0.3223 -0.9466 0.9466 0.3223 30.228 116.7812)" style="fill:#202020;" cx="96.67" cy="37.28" rx="5" ry="14.7"/>
	<path style="fill:#546E7A;" d="M89,66.9c0.2-0.4,1-2.2,1.2-2.4c0.8-1.1,1.5-1.2,2.1-2.8c0.5-1.4,8-22.6,8-22.6s0.5-2.3-2.7-3.4
		c-3.2-1.1-4.2,1-4.2,1s-7.1,19.9-7.8,22.2c-0.7,1.9,0,2.5-0.4,3.7c0,0.2-0.9,1.7-1,1.9L89,66.9z"/>
	<g>
		<path style="fill:#78909C;" d="M86.5,28.1c1.5-0.2,4.1-0.1,6.1,0.2c0.7,0.1,1.4-0.3,1.6-0.9c1.9-4.1,5.7-13,6.4-15.1
			c0.7-2.1-6.1-3-7.6-0.5c-1.8,3.1-7.2,14-7.2,14C85,27.2,85.2,28.3,86.5,28.1z"/>
		<path style="fill:#78909C;" d="M86.3,60c-0.5-0.2-0.8-0.8-0.7-1.4c1.2-3.9,6.3-18,7.1-19.8c0.9-2.1,3.5-1.6,3,0
			c-0.4,1.4-6.4,16.5-8,20.6C87.5,59.9,86.8,60.2,86.3,60z"/>
	</g>
	<path style="fill:#F44336;" d="M86.5,61.5c-0.5,0-1.1,0-1.9,0.9c-1.5,1.7-3.7,3.6-7.1,4.9c-1.1,0.4-2.5,1.1-2.5,2.3
		c0,2.5,4.8,5.8,8.3,4.9c3.1-0.8,5.9-6.2,6.2-7.3c0.2-1.1,0.6-2.4,0.3-3.3C89.5,62.5,87.9,61.4,86.5,61.5z"/>
	<path style="fill:#C62828;" d="M77.9,70.6c0.5,0.2,0.9-0.2,1.4-0.5c0.7-0.3,1.5,0,2.2,0.2c0.7,0.3,1.3,0.7,2.1,0.8
		c1.1,0.2,2.3-0.2,3.2-0.8c0.9-0.7,2.6-5.3,3.2-6.3v1.2c-0.5,4-3.8,8.6-6.5,9.3c-1,0.3-2.6,0.3-3.6,0c-1-0.2-2.3-0.8-3.2-1.4
		c-0.9-0.6-1.5-1.4-2-2.4c-0.2-0.5-0.2-1.2,0-1.7c0.2-0.3,0.6-0.6,1-0.6s0.9,0.2,1.2,0.6c0.3,0.4,0.3,0.9,0.6,1.3c0,0,0,0.2,0.2,0.2
		h0.2L77.9,70.6z"/>
	<path style="fill:#FF7555;" d="M82.5,69.5c-2.8,2.1-4.1,1.6-4.6,1.4S77,70,77.1,69.5c0.2-0.6,0.8-0.9,1.4-1.1
		c1.3-0.6,3.1-1.1,4.3-1.9c4.3-2.8,3.4-4.2,4.2-3.9c0.8,0.3-0.2,2.6-1.4,4.1C84.7,67.7,83.3,68.8,82.5,69.5z"/>
</g>
</svg>
