<?xml version="1.0" encoding="utf-8"?>
<!-- Generator: Adobe Illustrator 26.3.1, SVG Export Plug-In . SVG Version: 6.00 Build 0)  -->
<svg version="1.1" id="a" xmlns="http://www.w3.org/2000/svg" xmlns:xlink="http://www.w3.org/1999/xlink" x="0px" y="0px"
	 viewBox="0 0 128 128" style="enable-background:new 0 0 128 128;" xml:space="preserve">
<path style="fill:#7EAAB3;" d="M19.51,24.56L7.22,27.32l-2.58,3.87c0,0,91.18,92.82,93.01,92.82c0.66,0,25.72-25.49,25.72-25.89
	c0-0.27-2.06-4.24-2.06-4.24L19.51,24.56z"/>
<path style="fill:#A6CFD6;" d="M7.22,27.32c0,0,4.43-5.72,6.39-8.05s5.29-5.41,5.29-5.41l91.46,91.34l-12.29,12.66L7.22,27.32z"/>
<path style="fill:#C9E3E6;" d="M18.9,13.86c0,0,12.43-9.76,13.41-9.88c0.98-0.12,89,89.91,89,89.91l-10.94,11.31L18.9,13.86z"/>
<polygon style="fill:#347A88;" points="26.8,14.33 29.23,16.89 37.83,9.2 35.16,6.59 "/>
<polygon style="fill:#347A88;" points="37.85,18.05 39.32,19.71 43.93,15.27 42.4,13.75 "/>
<polygon style="fill:#347A88;" points="40.01,27.77 48.59,19.95 50.98,22.35 42.31,30.33 "/>
<polygon style="fill:#347A88;" points="51.06,31.42 52.73,33.15 57.35,28.79 55.7,27.12 "/>
<polygon style="fill:#347A88;" points="53.42,41.08 61.85,33.34 64.43,35.95 55.79,43.64 "/>
<polygon style="fill:#347A88;" points="64.5,45.55 69.36,40.94 71,42.61 66.22,47.21 "/>
<polygon style="fill:#347A88;" points="67.49,55.43 70.05,57.85 78.11,49.83 75.45,47.13 "/>
<polygon style="fill:#347A88;" points="78.68,59.26 80.15,60.93 84.72,56.56 83.17,54.99 "/>
<polygon style="fill:#347A88;" points="81.2,68.87 89.25,61.17 91.66,63.62 83.56,71.38 "/>
<polygon style="fill:#347A88;" points="92.31,72.95 93.97,74.67 98.41,70.5 96.67,68.74 "/>
<polygon style="fill:#347A88;" points="95.24,83.46 103.35,75.55 105.85,78.1 97.6,86.01 "/>
<polygon style="fill:#347A88;" points="105.85,86.37 110.1,82.44 111.6,83.97 107.51,88.02 "/>
<polygon style="fill:#347A88;" points="109.46,96.44 116.99,89.49 119.5,92.05 111.99,99.06 "/>
</svg>
