<?xml version="1.0" encoding="utf-8"?>
<!-- Generator: Adobe Illustrator 26.3.1, SVG Export Plug-In . SVG Version: 6.00 Build 0)  -->
<svg version="1.1" id="a" xmlns="http://www.w3.org/2000/svg" xmlns:xlink="http://www.w3.org/1999/xlink" x="0px" y="0px"
	 viewBox="0 0 128 128" style="enable-background:new 0 0 128 128;" xml:space="preserve">
<polygon style="fill:#7EAAB3;" points="31.94,62.79 67.31,99.75 71.61,92.82 35.25,56.54 30.2,60.12 "/>
<path style="fill:#7EAAB3;" d="M121.52,123.78c2.42-0.76,1-5.17,1-5.17l-102.99-6.78L10.34,8.25L8.65,4.18c0,0-3.56-1.02-3.66,2.73
	C4.9,10.22,5.24,118.96,5.3,120.44s1.96,3.46,3.7,3.46s111.32,0.25,112.54-0.13L121.52,123.78z"/>
<path style="fill:#C9E3E6;" d="M16.3,37.25L8.73,24.92c0,0-0.74-19.78-0.09-20.65s113.88,114.34,113.88,114.34l-20.36,0.26
	l-60.1-55.55L16.3,37.26L16.3,37.25z"/>
<path style="fill:#A6CFD6;" d="M32.93,95.65c0,0-0.03-35.88,0.26-36c0.38-0.16,8.61,8.36,17.34,17.27
	c8.72,8.9,17.83,18.46,17.77,18.93C68.25,96.23,32.93,95.66,32.93,95.65L32.93,95.65z M8.73,24.92c0,0-0.18,93.5,0.04,94.16
	c0.28,0.83,93.39-0.22,93.39-0.22L8.73,24.92z"/>
<polygon style="fill:#367A8B;" points="13.04,8.26 9.09,12.13 11.3,14.15 15.24,10.39 "/>
<polygon style="fill:#367A8B;" points="15.9,19.51 20.09,15.18 21.93,17.02 17.92,21.49 "/>
<polygon style="fill:#367A8B;" points="18.33,29.72 26.7,21.78 29.52,24.56 21.09,32.48 "/>
<polygon style="fill:#367A8B;" points="30.15,33.72 34.49,29.55 36.39,31.45 32.04,35.7 "/>
<polygon style="fill:#367A8B;" points="32.5,44.35 41.15,36.22 43.9,39 35.3,47.29 "/>
<polygon style="fill:#367A8B;" points="44.37,49.09 49.22,44.35 51.33,46.49 46.39,51.16 "/>
<polygon style="fill:#367A8B;" points="47.82,59.39 56.03,51.21 58.67,53.88 50.67,62.29 "/>
<polygon style="fill:#367A8B;" points="59.45,64.22 64.27,59.54 66.13,61.42 61.34,66.15 "/>
<polygon style="fill:#367A8B;" points="62.46,74.11 70.82,66.15 73.63,69 65.22,76.87 "/>
<polygon style="fill:#367A8B;" points="74.22,78.97 79.02,74.46 80.86,76.33 76.1,80.95 "/>
<polygon style="fill:#367A8B;" points="77.75,89.67 85.95,81.48 88.9,84.46 80.55,92.54 "/>
<polygon style="fill:#367A8B;" points="88.43,93.53 93.26,88.89 95.25,90.9 90.45,95.6 "/>
<polygon style="fill:#367A8B;" points="92.51,104.5 100.69,96.44 103.37,99.14 95.39,107.29 "/>
<polygon style="fill:#367A8B;" points="103.28,108.65 108.04,103.89 109.89,105.76 105.2,110.64 "/>
<polygon style="fill:#367A8B;" points="111.38,115.56 115.41,111.37 117.33,113.32 113.54,117.31 "/>
</svg>
