<?xml version="1.0" encoding="utf-8"?>
<!-- Generator: Adobe Illustrator 26.3.1, SVG Export Plug-In . SVG Version: 6.00 Build 0)  -->
<svg version="1.1" id="Layer_3" xmlns="http://www.w3.org/2000/svg" xmlns:xlink="http://www.w3.org/1999/xlink" x="0px" y="0px"
	 viewBox="0 0 128 128" style="enable-background:new 0 0 128 128;" xml:space="preserve">
<g>
	<g>
		<path style="fill:#82AEC0;" d="M62.18,111.42l13.38,0.54c4.53-0.1,6.01-1.45,7.62-5.53l3.41-8.6l-6.28-1.31l-2.95,7.45
			c-0.32,0.81-1.12,1.32-1.99,1.26l-10.5-0.76c-2.93-0.31-3.41-2-2.78-3.59l3.16-7.97l-7.98-2.78l-3.47,8.77
			c-1.09,2.76-1.83,5.82-0.57,8.31C54.68,110.08,57,111.2,62.18,111.42z"/>
	</g>
	<path style="fill:#2F7889;" d="M86.37,98.38l-1.82,4.59c0,0-0.71-1.06-3.02-1.26c-2.63-0.23-3.66,0.96-3.66,0.96l1.87-4.72
		L86.37,98.38z"/>
	<path style="fill:#2F7889;" d="M63.65,96.92l-8.85-0.59c-1.2,2.59-1.73,4.63-1.73,4.63s1.85-1.55,5.29-1.32
		c2.46,0.16,3.49,1.87,3.49,1.87L63.65,96.92z"/>
	
		<ellipse transform="matrix(0.3682 -0.9298 0.9298 0.3682 -8.9537 159.2226)" style="fill:#B8DADE;" cx="112.67" cy="86.2" rx="17.95" ry="9.89"/>
	<path style="fill:#82AEC0;" d="M101.42,94.5c1.96-1.48,7.27,2.58,7.27,2.58c0.68,4.75,5.93,3.38,5.93,3.38
		c-2.89,2.44-5.98,3.44-8.56,2.42C103.32,101.8,101.73,98.63,101.42,94.5z"/>
	<path style="fill:#F44336;" d="M47.04,14.59l67.59,55.03c2.68,1.84,3.95,9.22,0.63,17.6s-9.4,13.24-12.58,12.18l-86.86-5.94
		c-9.43-3.73-10.08-24.42-1.46-46.2S37.61,10.86,47.04,14.59z"/>
	<path style="fill:#C62828;" d="M32.83,80.52c-3.19,4.71,1.91,4.92,22.42,8.34c5.61,0.94,53.44,8.23,53.44,8.23
		c-1.29,1.19-3.87,3.04-6.07,2.33c0,0-85.21-5.32-86.81-5.95L32.83,80.52z"/>
	<path style="fill:#C62828;" d="M54.61,27.74c-1.4-1.01-3.41-2.57-3.89-5.27c-0.25-1.41-0.43-3.02-0.76-3.71
		c-0.65-1.37-3.14-4.51-3.14-4.51l67.8,55.37c1.83,1.25,2.09,3.34,2.09,3.34C106.33,65.18,64.93,35.21,54.61,27.74z"/>
	
		<ellipse transform="matrix(0.3682 -0.9298 0.9298 0.3682 -31.3989 58.7732)" style="fill:#B8DADE;" cx="27.54" cy="52.49" rx="44.77" ry="18.08"/>
	
		<ellipse transform="matrix(0.3682 -0.9298 0.9298 0.3682 -31.9702 56.2164)" style="fill:#2F7889;" cx="25.38" cy="51.63" rx="37.15" ry="11.86"/>
	
		<linearGradient id="SVGID_1_" gradientUnits="userSpaceOnUse" x1="115.7079" y1="83.0591" x2="103.1498" y2="52.9196" gradientTransform="matrix(-1 0 0 1 128 0)">
		<stop  offset="0" style="stop-color:#353738"/>
		<stop  offset="1" style="stop-color:#353738;stop-opacity:0"/>
	</linearGradient>
	<path style="fill:url(#SVGID_1_);" d="M11.7,86.17c-6.09-2.41-4.9-19.83,2.65-38.91L36.4,56C28.85,75.07,17.79,88.58,11.7,86.17z"
		/>
	<path style="fill:#FFFFFF;" d="M48.29,37.64c1.29-5.68,1.18-10.86,0.36-14.91c-0.23-1.1-0.99-2.42-2.12-2.29
		c-1.12,0.13-1.45,1.19-1.32,2.31c0.44,3.82,0.1,9.08-0.92,14.07c-0.23,1.11-0.21,2.56,1.36,3.12
		C47.01,40.44,48.06,38.64,48.29,37.64z"/>
	<path style="opacity:0.45;fill:#FFCA28;" d="M113,75.47L57.26,37.95c-1.7-1.13-3.81-3-4.23,0.76c-0.26,2.34-0.56,4.36-0.35,7.4
		c0.13,1.89,3.84,3.35,5,3.94l55.38,28.79c0.84,0.42,2.4,0.81,2.14-0.7C114.92,76.51,113.45,75.77,113,75.47z"/>
</g>
</svg>
