<?xml version="1.0" encoding="utf-8"?>
<!-- Generator: Adobe Illustrator 26.3.1, SVG Export Plug-In . SVG Version: 6.00 Build 0)  -->
<svg version="1.1" id="Layer_2" xmlns="http://www.w3.org/2000/svg" xmlns:xlink="http://www.w3.org/1999/xlink" x="0px" y="0px"
	 viewBox="0 0 128 128" style="enable-background:new 0 0 128 128;" xml:space="preserve">
<g>
	<path style="fill:#C62828;" d="M86.99,114.68l10.17-31.23l-15.02,0.89l-0.74,8.78c-0.92,1.73-3.09,2.52-4.01,4.25
		c-0.47,0.89-0.55,1.94-0.42,2.94c0.27,2.07,1.36,4.31,0.3,6.12c-1.25,2.13-4.37,2.74-4.27,5.67
		C73.1,114.79,85.69,118.43,86.99,114.68z"/>
	<path style="fill:#F44336;" d="M88.51,121.41c0,0,0.95,0.33,0.95,0.33c3.75,1.3,7.84-0.68,9.14-4.43l11.79-34.03H94.14
		c-0.58,1.66-0.78,2.27-1.37,3.93c-0.54,1.51-1.28,2.26-0.8,3.86c0.48,1.58,0.88,3.38,0.06,4.92c-0.92,1.73-3.09,2.52-4.01,4.25
		c-0.47,0.89-0.55,1.94-0.42,2.94c0.27,2.07,1.36,4.31,0.3,6.12c-1.25,2.13-4.37,2.74-4.27,5.67
		C83.72,117.65,85.99,120.54,88.51,121.41z"/>
	<path style="fill:#A12524;" d="M88.22,106.18c0.38,1.56-0.55,1.77-1.49,1.79c-2.29,0.06-5.31-0.86-6.8-1.53
		c-0.57-0.25-1.1-0.58-1.58-0.95c-0.36-0.28-0.6-0.69-0.63-1.14c-0.07-1.31-0.57-2.7-0.74-4.03c-0.07-0.55-0.07-1.12,0.02-1.66
		c0.07-0.43,0.57-0.65,0.95-0.44c0.96,0.53,2.67,1.41,3.81,1.64c2.26,0.46,3.65,0.42,4.63,0.44c0.73,0.01,1.31,0.66,1.21,1.38
		c-0.07,0.5-0.06,1.01,0,1.5C87.73,104.16,87.98,105.19,88.22,106.18z"/>
	<path style="fill:#A12524;" d="M83.63,114.96c1.34,4.26,4.68,5.74,8.17,5.97c3.38,0.23,5.72-1.66,5.72-1.66
		c-4.84,7.28-17.26,2.75-19.78,1.37c-3.85-2.11-4.49-4.25-4.74-8.28c-0.02-0.25,0.4-1.1,1.19-0.46c1.2,0.96,2.56,1.31,4.08,1.62
		c1.87,0.38,2.87,0.27,3.63,0.32C82.88,113.9,83.37,114.12,83.63,114.96z"/>
	<path style="fill:#C62828;" d="M110.4,83.28l-3.13,9.08c0,0-1.91-4.25-9.51-3.47c-5.15,0.53-6.69,2.33-6.69,2.33l-0.33-7.68
		L110.4,83.28z"/>
	<path style="fill:#E0E0E0;" d="M24.84,110.64c0,0,33.81-25.03,61.92-25.78c12.09-0.32,20.86-0.35,22.97-0.35
		c6.62,0,14.28-9.4,14.28-25.96s-8.61-27.73-15.23-27.73c-0.98,0-11.45,0.62-24.11,0.26C54.87,30.25,24.84,6.46,24.84,6.46V110.64z"
		/>
	<path style="fill:#BDBDBD;" d="M47.86,73.46c1.13,2.02,1.15,6.62,0.85,10.88c-0.22,3.05,2.83,5.31,5.68,4.19
		c19.44-7.58,35.4-6.9,35.4-6.9l-0.77,3.17c-0.74,0.02-1.49,0.04-2.25,0.06c-16.98,0.45-36.04,9.76-48.47,17.07
		c0,0,3.84-5.52,5.8-13.06C46.13,81.01,47.86,73.46,47.86,73.46z"/>
	<path style="fill:#F44336;" d="M93.73,58.55c0-9.45-3.09-20.05-6.96-27.42c11.69,0.24,21.07-0.31,22-0.31
		c6.62,0,15.23,11.17,15.23,27.73s-7.65,25.96-14.28,25.96c-2.11,0-10.88,0.03-22.97,0.35c-0.07,0-0.15,0.01-0.22,0.01
		C91.01,76.83,93.73,67.97,93.73,58.55z"/>
	<ellipse style="fill:#2F7889;" cx="24.84" cy="58.55" rx="20.84" ry="52.09"/>
	
		<linearGradient id="SVGID_1_" gradientUnits="userSpaceOnUse" x1="103.1641" y1="103.8268" x2="103.1641" y2="45.2216" gradientTransform="matrix(-1 0 0 1 128 0)">
		<stop  offset="0" style="stop-color:#353738"/>
		<stop  offset="1" style="stop-color:#353738;stop-opacity:0"/>
	</linearGradient>
	<path style="fill:url(#SVGID_1_);" d="M44.76,43.31c0.59,4.82,0.91,9.94,0.91,15.25c0,28.77-9.33,52.09-20.84,52.09
		C13.33,110.64,4,87.32,4,58.55c0-5.31,0.32-10.42,0.91-15.25H44.76z"/>
	<g>
		<path style="fill:#E0E0E0;" d="M4,58.55C4,27.15,11.25,3.46,24.84,3.46s23.84,23.68,23.84,55.09c0,31.41-10.25,55.09-23.84,55.09
			S4,89.96,4,58.55z M7,58.55c0,28.93,9.4,49.09,17.84,49.09s17.84-20.16,17.84-49.09S33.27,9.46,24.84,9.46S7,29.63,7,58.55z"/>
	</g>
	<path style="fill:#FFFFFF;" d="M38.44,23.24c0.9,2.44,4.15,7.85,5.65,25.65c0.05,0.6,0.38,3.24,1.85,3.24
		c0.98,0,1.27-1.48,1.27-3.52c0-7.95-1.32-16.72-4.39-25.38C41.08,18.34,37.19,19.88,38.44,23.24z"/>
	
		<radialGradient id="SVGID_00000060025852318051291200000017873157110133987205_" cx="101.2066" cy="60.2475" r="20.9176" gradientTransform="matrix(-1 0 0 1.7015 128 -42.2637)" gradientUnits="userSpaceOnUse">
		<stop  offset="0.4156" style="stop-color:#82AEC0"/>
		<stop  offset="1" style="stop-color:#7FA9BB;stop-opacity:0"/>
	</radialGradient>
	<path style="fill:url(#SVGID_00000060025852318051291200000017873157110133987205_);" d="M42.1,46.49l-18.9,2.2v19.9l18.76,3.38
		C43.2,56.24,42.1,46.49,42.1,46.49z"/>
	<ellipse style="fill:#E0E0E0;" cx="23.2" cy="58.65" rx="4.72" ry="9.95"/>
	<path style="fill:#353738;" d="M89.77,87.4l0.75,1.3l-3.21,6.27c-0.39,0.76-1.23,1.18-2.07,1.02l-5.42-1.09c0,0-1.51-2.15-1.8-2.64
		c-0.29-0.49-0.18-0.78-0.18-0.78l6.16,1.18C84.01,92.66,89.57,87.46,89.77,87.4z"/>
	<path style="fill:#616161;" d="M85.67,91.96l4.16-4.53l-7.49-0.03l-4.24,3.67c-0.51,0.54-0.18,1.21,0.55,1.33l4.21,0.66
		C83.92,93.22,84.99,92.81,85.67,91.96z"/>
	<path style="fill:#FFFFFF;" d="M70.49,37.53c-6.34-0.84-12.6-2.77-17.96-6.26c3.11,8.35,4.59,18.41,3.44,27.26
		c2.96-1.46,5.95-2.92,9.11-3.86c2.64-0.78,5.37-1.19,8.1-1.51c6.87-0.83,13.23-0.96,20.14-0.83c-0.2,0-0.75-4.67-1.59-8.15
		c-0.84-3.48-1.7-5.5-1.7-5.5S76.5,38.33,70.49,37.53z"/>
	<path style="fill:#FF7555;" d="M92.72,38.25c9.7,0.29,20.53,0.42,20.53,0.42s4.89,4.26,5.76,13.65c0,0-11.55,0-22.04,0.19
		C96.23,45.75,94.05,40.76,92.72,38.25z"/>
</g>
</svg>
