<?xml version="1.0" encoding="utf-8"?>
<!-- Generator: Adobe Illustrator 26.3.1, SVG Export Plug-In . SVG Version: 6.00 Build 0)  -->
<svg version="1.1" id="Layer_1" xmlns="http://www.w3.org/2000/svg" xmlns:xlink="http://www.w3.org/1999/xlink" x="0px" y="0px"
	 viewBox="0 0 128 128" style="enable-background:new 0 0 128 128;" xml:space="preserve">
<path style="fill:#2F7889;" d="M95.2,6.3l-54.9,52C19.5,62.6,7.1,75.8,7.1,75.8L52,120.7c0,0,14.3-10.7,17.5-33.1l51.9-55.2
	c4.6-5.4,2.7-15-4.5-21.8c-6.9-6.5-16.5-8.5-21.8-4.2L95.2,6.3z"/>
<path style="fill:#9E740B;" d="M10,78.4c5.7-5.7,19.2-1.5,30.1,9.4s15.1,24.4,9.4,30.1s-19.2,1.5-30.1-9.4S4.3,84.1,10,78.4"/>
<path style="fill:#FFEE58;" d="M14.3,77.1c4.6-4.6,15.8,0.6,25.9,10.7s15.3,21.3,10.7,25.9c-4.6,4.6-16.5,0.2-26.6-9.9
	s-14.5-22-9.9-26.6"/>
<path style="fill:#FFFFFF;" d="M22.8,74.5c0,0,10.1,3.6,18.5,12s12,18.5,12,18.5c-4.9,4.9-15.8,2.1-24.2-6.3S17.8,79.4,22.8,74.5"/>
<path style="fill:#80DEEA;" d="M9.7,80.3c5-5,17.5-0.5,28,9.9s14.9,23,9.9,28s-17.5,0.5-28-9.9C9.1,97.8,4.7,85.3,9.7,80.3
	 M7.1,75.9c-3.4,3.4-4,9.1-1.6,16c2.2,6.1,6.5,12.6,12.2,18.3s12.2,10.1,18.3,12.2c6.9,2.4,12.5,1.9,16-1.6c3.4-3.4,4-9.1,1.6-16
	c-2.2-6.1-6.5-12.6-12.2-18.3S29.2,76.4,23.1,74.3C16.2,71.9,10.6,72.4,7.1,75.9C7.1,75.9,7.1,75.9,7.1,75.9z"/>
<path style="fill:#FFFF8D;" d="M40.7,109.7c0.2,1.6,0.3,3-1,2.6C29.2,109.3,20,99,16.9,91.6c-0.7-1.7,1.7-1,3.1-0.8s2.2,0.6,2.6,1.4
	c2.2,4.1,8.3,12,16.4,14.8s1.4,1.1,1.6,2.7L40.7,109.7z"/>
<path style="fill:#E2A610;" d="M41,116.7L41,116.7c0.4,1.3,1.3,2.7,0,2.4c-14.8-2.8-27.3-15.5-31.4-27.9s0.4-0.7,2.4-0.4
	c1.9,0.3,2.1,0.7,2.4,1.2c3.9,7.5,11.6,18,24.5,22.9s1.6,0.5,2.1,1.9V116.7z"/>
<path style="fill:#212121;" d="M72.1,47l-9.4,10.4c-1.5,1.5-3.9,1.5-5.3,0L55.8,56c-1.5-1.5-1.5-3.9,0-5.3l10-10
	c1.5-1.5,3.9-1.5,5.3,0l1,1C73.6,43.2,73.6,45.6,72.1,47z"/>
<circle style="fill:#49A4BA;" cx="60.2" cy="52.9" r="3.3"/>
<path style="fill:#49A4BA;" d="M34.5,74c3.8,0,2.8-3.2,9.5-6.2c2.5-1.1,1.8-2.5,0.8-3.2c-4.5-3.2-5.5-2.6-9.8-1.5S23.3,67.4,23.1,69
	s1.6,1.6,3.2,2.1c4.5,1.2,6.2,3,8.2,3V74z"/>
<path style="fill:#212121;" d="M68.8,91.5c0,0-1.8-10.5-12.7-21.5C45.2,59.1,36.8,59.2,36.5,59.2l3.7-0.8c0,0,8.6-1.5,18.9,8.8
	s10.4,20.6,10.4,20.6L68.8,91.5z"/>
</svg>
