<?xml version="1.0" encoding="utf-8"?>
<!-- Generator: Adobe Illustrator 26.3.1, SVG Export Plug-In . SVG Version: 6.00 Build 0)  -->
<svg version="1.1" id="a" xmlns="http://www.w3.org/2000/svg" xmlns:xlink="http://www.w3.org/1999/xlink" x="0px" y="0px"
	 viewBox="0 0 128 128" style="enable-background:new 0 0 128 128;" xml:space="preserve">
<path style="fill:#445A65;" d="M80.91,117.11c0,0-4.29,2.8-4.98,3.6s-0.51,1.66,0.11,2.17s1.03,0.92,4.29,0.97s5.26-0.29,6.52-0.74
	s2.86-1.2,2.86-1.2s0.46,1.72,1.14,1.83s4.23,0.23,4.63-0.51s0.06-3.72-0.8-5.78s-2.86-4.29-2.86-4.29l-10.92,3.95H80.91z"/>
<path style="fill:#445A65;" d="M41.38,114.48c0,0-7.72,4.58-8.24,5.49s-0.16,2.27,0.23,2.52c0.8,0.51,7.26,0.23,8.52,0.06
	s2.97-1.14,3.55-1.49s1.14-0.4,1.14-0.4s0.34,1.77,1.14,1.89s3.95,0.29,4.58-0.23s0.57-2.8,0.51-4.35s-1.25-5.5-1.25-5.5
	l-10.19,2.01L41.38,114.48z"/>
<path style="fill:#C2EDF4;" d="M47.96,64.83l1.34,5.79c0,0-4.68,5.06-6.97,7.92S36,87.4,35.65,88.98c-0.74,3.31,0.9,17.6,1.39,21.22
	c0.49,3.62,0.33,5.34,0.8,5.95c0.37,0.48,1.7,1.84,7.89,1.14s9.6-1.81,9.81-2.37s-3.06-11.69-3.9-14.33
	c-0.83-2.64-2.16-6.47-2.16-7.58s3.41-3.97,5.36-5.63c1.95-1.67,3.76-3.62,4.38-3.62s2.85,2.71,7.44,9.04s5.5,7.58,6.4,9.04
	s3.83,8.63,4.94,11.2s1.52,3.95,2.49,4.3s4.47,1.47,9.82-0.06c5.36-1.53,7.23-4.24,7.17-5.36c-0.07-1.11-5.91-7.1-7.37-9.04
	s-3.62-4.1-5.63-7.58c-2.02-3.48-4.87-10.44-5.84-13.5s-2.16-5.57-2.16-5.57s1.39-0.07,2.3-0.35s1.81-0.7,1.81-1.46
	s-2.43-4.17-3.13-10.64s0.07-12.73,0.07-12.73s2.59,0.77,3.97,1.18s3.55,1.46,3.55,1.46s0.42,2.23,0.83,3.9s0.9,4.59,0.9,4.59
	l6.4,3.13l2.92-2.78l-0.68-1c0,0-0.22-9.65-1.13-12.15c-0.9-2.5-8.96-7.22-12.45-8.9c-3.76-1.81-7.72-2.64-8.56-2.37
	c-1.61,0.54-25.32,26.71-25.32,26.71L47.96,64.83z"/>
<path style="fill:#C2EDF4;" d="M37.58,21.76l-3.29,4.65c0,0,0.89,5.34,1.91,8.78c0.65,2.19,0.93,3.89,1.76,4.56
	c2.7,2.18,9.87,4.84,9.87,4.84s-3.08,4.7-5.17,9.59c-2.09,4.89-3.05,8.85-3.05,9.7s1.11,2.19,1.11,2.19l5.93-3.49l12.62-26.57
	c0,0-4.61-1.27-6.91-2.09c-2.42-0.85-4.95-1.05-5.47-1.47s-1.71-3.08-2.52-4.89s-2.09-4.41-2.09-4.41L37.58,21.76L37.58,21.76z"/>
<path style="fill:#22AD9D;" d="M88.23,65.57l-1.9-3.32c0,0-0.21-1.25,0.21-1.34c0.2-0.04,3.83,1.95,6.44,1.71s2.44-1.08,2.44-1.08
	s1.05,0.11,1.53,0.61c0.64,0.68-0.41,1.93-0.41,1.93L88.23,65.57L88.23,65.57z"/>
<path style="fill:#00C0A2;" d="M86.34,62.25l0.24,5.08l-0.07,3.39l6.68-0.31l0.95-1.08l2.41-5.25c0,0-2.58,0.68-5.69,0.03
	C88.02,63.52,86.35,62.25,86.34,62.25L86.34,62.25z"/>
<path style="fill:#FDCB27;" d="M86.57,67.33c0,0-1.83-0.07-3.19,0.78c-0.9,0.56-2.18,1.89-1.86,4c0.27,1.8,1.53,2.07,1.53,2.07
	s0.58,1.05,1.9,0.98c0.24,0.24,0.51,0.51,1.29,0.71s1.32,0.07,1.32,0.07s0.47,0.32,2.03,0.27c2.27-0.07,2.24-2.14,2.24-2.14
	l0.37-0.75c0,0,1.15-0.24,1.69-1.19s0.27-2.85,0.27-2.85s-2.62,0.87-5.29-0.14c-2.44-0.92-2.3-1.83-2.3-1.83L86.57,67.33z"/>
<path style="fill:#FDCB27;" d="M37.56,10.02c0,0-0.07-4.21,0.62-5.19s1.67-0.76,1.81-0.4c0.13,0.31,0.29,3.66,0.29,5.37
	c0,1.23,0.62,2.43,0.58,4.1s-0.29,3.74-0.29,3.74l-2.18,3.08l-4.12-0.75c0,0-1.85-1.51-2.7-2.99c-0.98-1.7-1.38-2.83-0.8-4.5
	c0.41-1.19,2.03-2.1,3.63-2.47s3.16,0,3.16,0L37.56,10.02z"/>
<path style="fill:#74CCF2;" d="M71.64,49.3c0,0-2.23-0.09-4.61,0.62c-1.93,0.58-2.43,1.19-2.52,1.8c-0.14,1,2.42,3.09,2.42,3.66
	s-2.14,3.04-2.99,6.79s-1.09,8.12-1.09,10.78s-0.14,3.89,0.14,4.08s1.71,0.19,1.99,0.05s-0.31-9.36,0.9-14.25
	c1.14-4.61,3.18-6.89,3.13-7.46s-2.75-3.13-2.56-3.61s2.47-1,3.89-1.09s2.99-0.09,2.99-0.09l-1.71-1.28L71.64,49.3z"/>
<polygon style="fill:#FFCA26;" points="58.1,39.66 58.2,50.63 68.6,41.18 58.48,37.95 "/>
<path style="fill:#74CCF2;" d="M40.72,66.06c-0.18-0.78,1.86-7.26,5.76-14.28s7.98-10.62,7.98-10.62l2.82,1.5l-3.84,21.12l-1.86,0.6
	c0,0-0.48,1.92-0.84,3.3c-0.23,0.86-0.42,1.98-0.42,1.98l-1.02,0.96c0,0-3.12-1.14-4.8-2.04S40.9,66.84,40.72,66.06z"/>
<path style="fill:#15A595;" d="M70.94,42.76l-9.08,3.84L55.1,63.79l2.73,2.96c0,0,0.93,0.19,1.2-0.23s1.99-8.94,3.84-12.97
	c1.85-4.03,3.24-6.9,3.71-6.95s2.36,1.02,3.71,2.13s2.46,2.32,2.96,2.32s0.83-0.37,0.83-0.79c0-0.42-3.15-7.5-3.15-7.5L70.94,42.76z
	"/>
<path style="fill:#E59700;" d="M63.53,35.26l-4.96,2.22c0,0,0.97,2.69,3.98,3.66s5.74,0.56,5.74,0.56l2.96-3.47l0.05-2.18
	L63.53,35.26L63.53,35.26z"/>
<path style="fill:#15A595;" d="M55.42,39.29l5.1-3.89l0.93,0.23c0,0-1.51,4.73-1.85,7.37c-0.32,2.5-0.45,6.04-0.45,6.04l-3.25-1.41
	l0.28-4.72c0,0-1.34-0.79-2.96-0.79s-2.59-0.05-2.59-0.05s-0.19-0.83,0.46-1.34s4.35-1.44,4.35-1.44H55.42z"/>
<path style="fill:#04BFA3;" d="M60.52,35.4c0,0-2.73,0.56-5.6,2.22c-2.87,1.67-3.84,3.1-3.84,3.1s5.42-0.28,5.33,0.69
	s-2.22,4.35-4.08,11.58c-1.85,7.23-1.1,12.83-1.1,12.83s1.2,0.65,2.86,0.79s3.75,0.14,3.75,0.14s1.71-7.74,4.31-13.94
	c2.59-6.21,3.66-7.64,4.63-7.74s2.49,1.33,4.11,2.61c1.28,1.02,2.89,2.85,3.21,2.58c0.25-0.21,0.07-5.26-0.09-8.2
	c-0.14-2.5-0.17-3.57-0.87-4.44c-0.18-0.23-1.38-0.67-1.82-0.14c-0.65,0.79-2.92,2.73-6.62,5.79c-2.64,2.18-5.19,5.1-6.35,4.86
	s0.05-5.51,0.46-7.55S60.52,35.39,60.52,35.4L60.52,35.4z"/>
<path style="fill:#FFCA26;" d="M76.26,30.95c0,0,3.11-0.05,3.63-3.25c0.54-3.38-1.89-3.87-1.89-3.87L76.26,30.95z"/>
<path style="fill:#FFCA26;" d="M55,24.99c0,0-3.1-0.33-2.02,3.48c0.93,3.32,4.11,2.95,4.11,2.95l-2.08-6.44L55,24.99z"/>
<path style="fill:#62453B;" d="M77.25,13.62c-1.96-4.39-5.78-6.22-11.49-5.95c-2.1,0.1-4.63,0.69-5.53,0.69s-2.24-0.07-2.96-0.8
	c-0.63-0.63-1.15-1.42-1.62-1.52c-0.82-0.18-3.57,1.87-3.35,6.39c0.15,3.08,1.26,4.56,1.88,5.15c-0.57,4.81,1.16,10.07,1.16,10.07
	l11.59,5.77l10.55-6.79c0,0,2.14-7.74-0.22-13.04L77.25,13.62z"/>
<path style="fill:#FFCA26;" d="M57.39,18.2c-0.5,0.33-0.53,4.64-0.59,6.52c-0.07,2.19-0.47,2.5-1,2.7
	c-0.44,0.17-0.62-0.26-0.62-0.26s0.82,2.96,2.01,5.12c1.64,2.96,4.84,5.96,9.66,5.84c4.01-0.1,6.27-2.29,7.75-4.17
	c2.2-2.8,2.87-7.29,2.87-7.29s-0.3,0.14-0.6,0c-0.44-0.2-0.64-0.95-0.82-2.43c-0.27-2.22-0.71-6.3-1.29-6.68s-3.4,0.95-8.65,1.15
	C61.94,18.86,57.88,17.87,57.39,18.2z"/>
<g>
	<path style="fill:#E59700;" d="M66.62,28.64c-1.01,0.05-1.4-0.29-1.75,0.08c-0.32,0.34-0.01,0.81,0.54,1.22
		c0.76,0.56,1.9,0.51,2.48-0.04c0.58-0.54,0.82-0.99,0.43-1.31s-0.67,0-1.71,0.04L66.62,28.64z"/>
	<g>
		<path style="fill:#6D4C3F;" d="M58.31,22.58c0.27,0.42,1.08-0.44,2.5-0.51c1.16-0.06,2.25,0.9,2.47,0.14
			c0.26-0.9-0.77-1.42-2.48-1.3S57.95,22.01,58.31,22.58z"/>
		<path style="fill:#785446;" d="M69.46,22.25c0.59,0.15,1.25-0.46,2.45-0.41c1.12,0.05,1.99,0.68,2.31,0.31s-0.31-1.39-2.16-1.53
			c-1.66-0.12-2.89,0.52-3,0.89S69.22,22.19,69.46,22.25z"/>
	</g>
	<g>
		<path style="fill:#3F4040;" d="M60.89,23.73c-1.36,0.01-1.85,1.2-1.75,2.03s0.75,1.6,1.94,1.55s1.74-0.81,1.72-1.8
			s-0.65-1.79-1.91-1.77V23.73z"/>
		<path style="fill:#3F4040;" d="M71.75,23.42c-1.01-0.08-1.93,0.66-1.86,1.87c0.08,1.35,1.28,1.75,1.93,1.73
			c0.93-0.02,1.66-0.73,1.66-1.72C73.48,24.19,72.89,23.51,71.75,23.42z"/>
	</g>
</g>
<path style="fill:#785446;" d="M66.84,32.14c-1.69,0.14-2.9-0.77-3.24-0.02s1.01,1.91,3.37,1.76c2.59-0.16,3.49-1.26,3.11-2.01
	C69.7,31.13,68.64,31.99,66.84,32.14L66.84,32.14z"/>
<path style="fill:#04BFA3;" d="M33.13,26.09c0,0-0.29-6.82-0.07-7s1.38,0.18,3.95-0.22c1.69-0.26,3.3-1.34,3.7-1.27
	s2.68,5.51,2.87,6.31c0.13,0.59-1.43,2.33-5.08,2.94C34.37,27.54,33.13,26.45,33.13,26.09z"/>
<g>
	<path style="fill:#F3AE07;" d="M40.43,13.31c-0.04-0.09-1.05-1.88-3.33-2.16c-1.79-0.22-2.31,0.8-2.43,1.36
		c-0.12,0.58,0.33,1.29,0.9,1.64c-0.2,0.21-0.46,0.43-0.71,0.47c-0.09,0.01-0.32,0.06-0.63-0.42c-0.48-0.73-0.6-1.76-0.59-2.19
		c0-0.27-0.21-0.5-0.48-0.51h-0.01c-0.27,0-0.48,0.21-0.49,0.48c0,0.08-0.04,1.78,0.78,2.87c-0.02,0.09-0.07,0.19-0.16,0.25
		c-0.11,0.07-0.52,0.14-1.03-0.38c-0.54-0.54-0.35-1.38-0.35-1.38c-0.02-0.27-0.23-0.5-0.52-0.46c-0.27,0.02-0.48,0.25-0.46,0.52
		c0,0.05-0.17,1.21,0.64,2.02c0.51,0.51,1.06,0.72,1.52,0.72c0.28,0,0.53-0.07,0.73-0.2c0.2-0.12,0.32-0.29,0.42-0.46
		c0.18,0.08,0.47,0.15,0.91,0.1c0.51-0.07,0.81-0.4,1.1-0.7c-0.08,0.2-0.15,0.4-0.19,0.57c-0.1,0.45-0.13,1.19-0.13,1.22
		c-0.01,0.27,0.2,0.5,0.47,0.51h0.02c0.26,0,0.48-0.21,0.49-0.47c0-0.19,0.07-0.74,0.11-1.05c0.1-0.84,0.6-1.24,0.58-1.36
		s-1.93-0.75-1.95-1.47c-0.01-0.35,0.16-0.85,1.45-0.69c1.63,0.2,2.43,1.54,2.46,1.61c0.12,0.24,0.41,0.35,0.66,0.22
		C40.45,13.85,40.56,13.56,40.43,13.31L40.43,13.31z"/>
	<path style="fill:#F3AE07;" d="M83.13,74.28c0,0-0.95-1.02-0.83-2.17c0.1-1.02,0.59-1.36,0.79-1.56c0.22-0.22,0.58-0.33,0.89-0.1
		s0.2,0.62-0.02,0.92c-0.15,0.21-0.56,0.57-0.74,1.29c-0.25,0.94-0.09,1.63-0.09,1.63L83.13,74.28z"/>
	<path style="fill:#F3AE07;" d="M85.43,75.56c0,0-1.03-0.61-1.12-1.71c-0.1-1.17,0.68-1.77,0.84-2.01s0.71-0.34,0.95-0.03
		s0,0.61-0.16,0.85c-0.15,0.22-0.62,0.5-0.72,1.19C85.13,74.5,85.43,75.56,85.43,75.56L85.43,75.56z"/>
	<path style="fill:#F3AE07;" d="M86.66,74.42c0.02-0.88,0.44-1.22,0.68-1.39c0.14-0.1,0.58-0.27,0.81,0.03s0.11,0.65-0.07,0.88
		c-0.64,0.81-0.4,1.55-0.44,2.02c-0.54-0.24-1.01-0.73-0.99-1.55L86.66,74.42z"/>
	<path style="fill:#F3AE07;" d="M91.73,74.28c0,0-0.64,0.31-1.12,0.14s-0.98-1.05-0.78-1.49s0.54-0.31,1.22-0.17s1.05-0.24,1.22,0.2
		S92.03,74.11,91.73,74.28z"/>
</g>
</svg>
