<?xml version="1.0" encoding="utf-8"?>
<!-- Generator: Adobe Illustrator 26.3.1, SVG Export Plug-In . SVG Version: 6.00 Build 0)  -->
<svg version="1.1" id="a" xmlns="http://www.w3.org/2000/svg" xmlns:xlink="http://www.w3.org/1999/xlink" x="0px" y="0px"
	 viewBox="0 0 128 128" style="enable-background:new 0 0 128 128;" xml:space="preserve">
<path style="fill:#EA8D04;" d="M55.45,65.56L6.26,76.69c0,0,7.19,42.39,57.09,43.8c45.14,1.27,58.56-34.89,59.34-49.05
	c1.3-23.6-5.92-34.46-5.92-34.46L55.45,65.56L55.45,65.56z"/>
<radialGradient id="SVGID_1_" cx="63.1606" cy="68.469" r="57.0815" gradientTransform="matrix(1 0 0 -1 0 130)" gradientUnits="userSpaceOnUse">
	<stop  offset="0.5" style="stop-color:#FCDF31"/>
	<stop  offset="0.65" style="stop-color:#FAD42F"/>
	<stop  offset="0.88" style="stop-color:#F6BD2B"/>
</radialGradient>
<path style="fill:url(#SVGID_1_);" d="M63.16,6.12c-29.35,0-59.44,21.63-58.69,59.25c0.31,15.75,8.2,27.67,17.49,35.93
	c12.45,11.07,27.86,15.18,41.01,15.61c31.79,1.04,58.12-23.32,58.88-56.05C122.59,28.49,95.89,6.12,63.16,6.12z"/>
<path style="fill:#412C0C;" d="M49.62,37.36c5.84-4.54,6.65-10.99,4.05-12.05s-4.25,4.32-7.62,7.62
	c-4.92,4.82-11.96,3.86-11.38,7.04s9.74,1.45,14.95-2.6V37.36z"/>
<path style="fill:#412C0C;" d="M71.5,25.59c-2.44,1.55,0.59,6.99,5,11c5.17,4.69,14.59,5.2,14.47,1.73
	c-0.1-2.8-4.15-0.58-11.09-6.36C76.15,28.85,74.38,23.76,71.5,25.59L71.5,25.59z"/>
<path style="fill:#412C0C;" d="M71.6,44.11c-2.98,1.02-2.86,9.84,7.47,14.32c6.13,2.66,12.97,1.31,15.38-1.11
	c1.2-1.2,1.35-2.8,0.87-3.86c-0.66-1.46-2.26-1.32-4.05-0.77c-2.11,0.65-6.1,0.84-9.45-0.67c-3.62-1.64-5.25-4.86-6.75-6.75
	C74.03,43.95,72.98,43.64,71.6,44.11z"/>
<path style="fill:#412C0C;" d="M54.24,43.82c-4.53-0.97-3.09,5.59-10.41,8.39c-6.27,2.39-10.72-0.41-12.25,1.35
	c-2.51,2.89,4.86,9.39,15.23,5.59C57.45,55.25,58.13,44.65,54.24,43.82L54.24,43.82z"/>
<path style="fill:#412C0C;" d="M63.69,77.76c-5.97,0.29-12.15,5.59-12.25,12.25c-0.08,5.52,4.34,8.39,13.02,8.39
	s12.51-3.09,12.25-9.26C76.42,82.39,69.57,77.47,63.69,77.76z"/>
<path style="fill:#96CBE9;" d="M87.22,90.2c0,0-8.23,1.75-8.96,1.89s-0.95,0.87-0.44,1.64s9.29,10.06,9.69,10.53
	s0.04,0.66-0.29,1.35c-0.18,0.39-1.81,3.64-1.51,7.2c0.23,2.77,1.55,5.9,5.77,7.68c10.9,4.61,14.92-4.23,14.97-4.75
	s0.21-0.73,0.78-0.73s10.49,1.59,14.46-5.58c3.43-6.21,1.32-11.88-0.69-14.01c-2.01-2.12-4.85-3.32-4.85-3.32s3.4-9.25-3.53-12.64
	c-9.09-4.44-13.14,4.13-13.14,4.13s-4.15-3.61-8.84-1.03C86.56,84.8,87.22,90.2,87.22,90.2L87.22,90.2z"/>
<path style="fill:#FFFFFF;" d="M83.36,94.73c-0.14,0.73,8.3,8.36,8.3,9.61s-3.97,4.26-1.84,9.58c1.5,3.74,6.99,5.01,10.95,3.07
	c2.39-1.18,3.46-3.53,3.24-4.45c-0.16-0.66-0.29-1.24,0.11-1.49c0.52-0.33,0.88-0.13,1.75,0.26s12.08,2.14,13.55-6.41
	c1.2-6.96-4.3-10.87-9-10.71c-1.88,0.06-2.62,0.36-3.47,1.7c-0.64,1.02-0.36,2.52-0.65,3.03c-0.48,0.87-1.24,1.06-2.03,0.54
	c-0.65-0.43-0.81-2.41-0.63-3.46c0.39-2.33,1.5-3.85,3.82-4.54c2.86-0.85,4.89,0.21,5.2-0.1s2.61-8.46-4.36-9.02
	c-5.05-0.4-6.31,5.44-7.58,5.68c-0.64,0.12-1.34-1.44-3.1-2.24s-3.58-1.12-5.6,1.04c-2.76,2.95-0.28,6.17,0.39,7.13
	s0.8,1.72,0.47,2.08c-0.36,0.4-1.27,0.06-2.22-0.58s-1.82-1.3-1.82-1.3s-5.39,0.02-5.5,0.58L83.36,94.73z"/>
</svg>
