<?xml version="1.0" encoding="utf-8"?>
<!-- Generator: Adobe Illustrator 26.3.1, SVG Export Plug-In . SVG Version: 6.00 Build 0)  -->
<svg version="1.1" id="Layer_1" xmlns="http://www.w3.org/2000/svg" xmlns:xlink="http://www.w3.org/1999/xlink" x="0px" y="0px"
	 viewBox="0 0 128 128" style="enable-background:new 0 0 128 128;" xml:space="preserve">
<radialGradient id="face_00000003076793980022243030000014261271687353967245_" cx="64" cy="3168.8999" r="56.9597" gradientTransform="matrix(1 0 0 1 0 -3106)" gradientUnits="userSpaceOnUse">
	<stop  offset="0.5" style="stop-color:#FDE030"/>
	<stop  offset="0.9188" style="stop-color:#F7C02B"/>
	<stop  offset="1" style="stop-color:#F4A223"/>
</radialGradient>
<path id="face" style="fill:url(#face_00000003076793980022243030000014261271687353967245_);" d="M64,118.8
	c-27.9,0-58-17.5-58-55.9S36.1,7,64,7c15.5,0,29.8,5.1,40.4,14.4C115.9,31.6,122,46,122,62.9s-6.1,31.2-17.6,41.4
	C93.8,113.6,79.4,118.8,64,118.8z"/>
<path style="fill:#EB8F00;" d="M111.89,29.67c5.33,8.6,8.11,18.84,8.11,30.23c0,16.9-6.1,31.2-17.6,41.4
	c-10.6,9.3-25,14.5-40.4,14.5c-18.06,0-37.04-7.35-48.18-22.94C24.58,110.52,44.81,118.8,64,118.8c15.4,0,29.8-5.2,40.4-14.5
	C115.9,94.1,122,79.8,122,62.9C122,50.16,118.53,38.84,111.89,29.67z"/>
<g>
	<path id="left-eyebrow" style="fill:#422B0D;" d="M24.09,52.41c-0.52,0.09-1.06,0.01-1.52-0.21c-0.91-0.44-1.6-1.51-1.08-2.91
		c1.91-4.94,5.86-9.08,10.84-11.38c1.85-0.86,3.79-1.43,5.78-1.7c1.49-0.17,2.36,0.74,2.57,1.71c0.23,1.08-0.26,2.4-1.66,2.86
		l-0.12,0.04c-5.39,1.86-10.2,5.67-13.18,10.44C25.31,51.94,24.71,52.3,24.09,52.41z"/>
	<path id="left-eyebrow-2" style="fill:#422B0D;" d="M103.62,51.27c-2.98-4.77-7.79-8.58-13.18-10.44l-0.12-0.04
		c-1.4-0.45-1.9-1.78-1.66-2.86c0.21-0.98,1.09-1.88,2.57-1.71c1.98,0.26,3.93,0.84,5.78,1.7c4.98,2.3,8.93,6.44,10.84,11.38
		c0.52,1.4-0.17,2.47-1.08,2.91c-0.45,0.22-0.99,0.3-1.52,0.21C104.63,52.3,104.03,51.94,103.62,51.27z"/>
</g>
<g>
	<path style="fill:#29B6F6;" d="M110.14,111c0-3.07-5.55-5.62-12.52-5.78l-0.15-47.55c-0.21-0.16-7.98-4.63-8.07-4.62
		c-0.07-0.01-6.84,1.02-7.12,1.19l-2.46,56.25c-4.53,1.37-9.49,3.67-9.49,6.24c0,4.19,7.83,7.6,17.49,7.6
		c9.66,0,17.49-3.39,17.49-7.58c0-0.42-0.1-0.82-0.25-1.22C108.15,114.47,110.14,112.84,110.14,111z"/>
	<path style="fill:#81D4FA;" d="M84.78,106.87c0,4.21-2.22,5.73-5.24,6.94c-3.67,1.47-3.13,4.21-1.58,5.24s3.95,1.94,5.96,0.93
		c0.9-0.45,0.59-1.19-0.03-1.86c-0.68-0.73-0.34-1.91,0.63-2.13l0.86-0.19c2.18-0.48,3.65-1.99,3.65-4.68s0.39-60.63,0.39-60.63
		l-3.29-0.27C86.12,50.22,84.78,102.65,84.78,106.87z"/>
	<path style="fill:#422B0D;" d="M97.23,59.43c-2.25-2.14-5.41-3.89-8.8-3.8h0.11c-3.44-0.21-6.95,1.87-9.13,4
		c-2.27,2.14-7.3-0.14-5.76-3.1c0.77-2.03,2.95-4.17,5.16-5.6c7.73-5.09,20.08-2.64,23.96,5.41
		C104.26,59.16,99.68,61.81,97.23,59.43C97.23,59.43,97.23,59.43,97.23,59.43z"/>
</g>
<g>
	<path style="fill:#29B6F6;" d="M48.66,110.49l-1.45-56.13c-0.49-0.22-4.8-0.48-5.6-0.84c-0.8-0.33-3.5-0.42-3.69-0.39
		c-0.4,0.1-5.86,4.29-5.89,4.32l-1.16,47.77c-6.98,0.16-12.52,2.69-12.52,5.76c0,1.84,1.99,3.49,5.08,4.54
		c-0.15,0.4-0.25,0.81-0.25,1.23c0,4.19,7.83,7.59,17.49,7.59s17.49-3.42,17.49-7.61C58.16,114.15,53.19,111.86,48.66,110.49z"/>
	<path style="fill:#81D4FA;" d="M36.03,54.14l-0.75,50.26c-0.05,1.61-1.28,2.67-3,2.8c-2.08,0.16-4.93,0.15-7.27,1.6
		c-1.26,0.78-1.78,2.77-0.63,3.88c1.26,1.21,4.56,0.16,6.21-0.01c0.72-0.08,1.67,0,1.86,0.7c0.11,0.4-0.13,0.83-0.46,1.07
		s-0.74,0.35-1.14,0.47c-0.66,0.19-1.32,0.42-1.84,0.87s-0.84,1.17-0.66,1.83c0.24,0.85,1.18,1.26,2.01,1.55
		c1.46,0.53,2.95,1.06,4.5,1.13c0.09-1.1-1.62-1.86-1.28-2.91c0.12-0.37,0.47-0.61,0.82-0.78c0.94-0.44,2.01-0.53,3.02-0.77
		c1.66-0.39,4.66-1.23,3.88-3.51c-0.26-0.75-0.82-1.34-1.24-2.02c-1.33-2.13-1.75-4.61-1.72-7.7c0.03-2.35,0.24-49.6,0.24-49.6
		S36.13,54.02,36.03,54.14L36.03,54.14z"/>
</g>
<path style="fill:#422B0D;" d="M50.91,59.43c-2.25-2.14-5.41-3.89-8.8-3.8h0.11c-3.44-0.21-6.95,1.87-9.13,4
	c-2.27,2.14-7.3-0.14-5.76-3.1c0.77-2.03,2.95-4.17,5.16-5.6c7.73-5.09,20.08-2.64,23.96,5.41C57.93,59.16,53.36,61.81,50.91,59.43
	L50.91,59.43z"/>
<g>
	<g id="mouth">
		<path style="fill:#FFFFFF;" d="M64.51,85.6c3.92,0,7.73-0.22,11.37-0.63C75.55,78.66,70.3,73.6,63.91,73.6
			c-6.34,0-11.56,4.99-11.96,11.23C55.96,85.33,60.17,85.6,64.51,85.6z"/>
		<path style="fill:#422B0D;" d="M51.95,84.83c-0.02,0.26-0.04,0.51-0.04,0.77v7.8c0,6.6,5.4,12,12,12s12-5.4,12-12v-7.8
			c0-0.21-0.02-0.42-0.03-0.63c-3.64,0.41-7.45,0.63-11.37,0.63C60.17,85.6,55.96,85.33,51.95,84.83z"/>
	</g>
	<path style="fill:#EB8F00;" d="M75.91,85.6c-0.68-3.13-2.19-5.79-4.37-7.64c-2.17-1.84-4.88-2.87-7.63-2.86
		c-2.75-0.01-5.46,1.02-7.63,2.86c-2.17,1.86-3.69,4.51-4.37,7.64c-0.6-3.15,0.41-6.72,2.71-9.29c2.24-2.62,5.75-4.24,9.29-4.21
		c3.54-0.02,7.05,1.59,9.29,4.21c1.14,1.29,1.97,2.83,2.45,4.43C76.11,82.35,76.19,84.03,75.91,85.6z"/>
</g>
</svg>
