<?xml version="1.0" encoding="utf-8"?>
<!-- Generator: Adobe Illustrator 26.3.1, SVG Export Plug-In . SVG Version: 6.00 Build 0)  -->
<svg version="1.1" id="a" xmlns="http://www.w3.org/2000/svg" xmlns:xlink="http://www.w3.org/1999/xlink" x="0px" y="0px"
	 viewBox="0 0 128 128" style="enable-background:new 0 0 128 128;" xml:space="preserve">
<path style="fill:#232020;" d="M99.24,47.84C98.99,17.8,82.6,5.13,64.48,4.14C46.35,3.15,23.89,15.75,25,53.05
	c0.06,2.09-0.53,29.36,0.11,39.57c0.39,6.28,16.27,3.83,16.27,3.83l58.39-5.74C99.77,90.71,99.25,49.23,99.24,47.84z"/>
<path style="fill:#492C25;" d="M102.47,64.72l-7.36,11.72l3.8,1.78c0,0,3.94,0.09,7.69-3.42c4.49-4.21,4.48-6.79,5.47-7.87
	s4.43-3.89,5.6-5.58s1.31-2.92,1.19-3.97c-0.12-1.1-0.49-1.05-0.49-1.05s1.81-1.51,2.18-2.73c0.44-1.45-0.02-2.12-0.02-2.12h-2.13
	c0,0,0.53-1.96-0.31-2.59s-10.68,5.97-10.68,5.97l-4.93,9.86H102.47z"/>
<path style="fill:#70534A;" d="M86,72.34l5.06-4.84c0,0,6.26-6.23,12.07-10.85s12.7-7.7,13.42-7.95c0.34-0.12,0.91-0.17,1.32,0
	s0.53,0.64,0.53,0.64s-5.09,3.25-6.68,4.35s-3.02,2.2-3.73,2.8s-0.66,1.1-0.22,1.54s1.15-0.27,1.92-0.88s2.62-2.02,5.43-3.9
	c3.05-2.03,4.23-2.74,5.16-2.09s-0.88,1.92-1.98,2.74s-5.27,3.73-6.48,4.67s-2.8,1.7-1.98,2.63c0.56,0.64,1.95-0.75,3.26-1.72
	c2-1.48,4.19-3.32,5.22-3.2c0.48,0.06,0.31,0.93,0,1.45c-0.66,1.08-2.05,2.41-2.76,3.05c-1.04,0.93-3.97,3.39-5.18,4.71
	s-1.07,3.19-5.43,6.7s-8.67,3.9-8.67,3.9l-10.3-3.75H86z"/>
<path style="fill:#70534A;" d="M69.59,21.64c-0.48,0-6,6.8-15.93,11.88c-11.25,5.75-17.04,6.31-17.04,6.31s-1.85,10.55,0.96,22.44
	c2.03,8.6,9.44,21.83,25.71,22c17.58,0.19,23.57-14.72,25.03-22.82c1.84-10.22,0.39-23.14,0.39-23.14s-7.19-3.34-11.7-8.05
	C72.5,25.54,69.6,21.64,69.59,21.64L69.59,21.64z"/>
<path style="fill:#4A2F27;" d="M63.33,60.2c-2.76,0.07-3.81-0.86-4.78,0.14c-0.89,0.92-0.08,2.21,1.42,3.35
	c2.04,1.56,5.17,1.48,6.78,0.02c1.6-1.45,2.28-2.67,1.24-3.55s-1.84-0.04-4.66,0.03L63.33,60.2z"/>
<g>
	<path style="fill:#1A1717;" d="M41.12,43.08c0.76,1.14,3.16-0.61,7.03-0.72c3.77-0.11,5.97,1.67,6.55-0.4
		c0.69-2.46-1.94-3.42-6.63-3.04C43.27,39.31,40.11,41.56,41.12,43.08L41.12,43.08z"/>
	<path style="fill:#1A1717;" d="M71.36,42.39c1.59,0.5,3.12-0.2,5.7-0.06c2.73,0.16,6.04,1.55,6.96,0.58s-1.28-3.43-6.28-4.08
		c-4.52-0.59-6.85,0.52-7.21,1.5S70.72,42.18,71.36,42.39L71.36,42.39z"/>
</g>
<g>
	<path style="fill:#1A1717;" d="M48.36,45.78c-3.7-0.18-5.25,2.98-5.1,5.25s1.79,4.49,5.05,4.54c3.1,0.05,4.88-1.94,4.97-4.65
		S51.78,45.94,48.36,45.78z"/>
	<path style="fill:#1A1717;" d="M77.38,45.42c-2.75-0.39-5.36,1.48-5.36,4.8c0,3.71,3.21,4.98,4.98,5.04
		c2.54,0.08,4.66-1.73,4.8-4.43c0.16-3.04-1.33-4.97-4.41-5.4L77.38,45.42z"/>
</g>
<path style="fill:#1A1717;" d="M63.3,68.6c-4.19,0.07-8.53,0.3-8.53,2.47s4.41,2.39,8.75,2.47c4.34,0.07,8.32-0.82,8.38-2.54
	c0.07-2.32-4.79-2.46-8.6-2.39L63.3,68.6z"/>
<path style="fill:#351BA4;" d="M32.89,83.53c0,0-2.49-0.19-6.13,3.9c-3.81,4.28-4.02,11.51-3.91,17.08s3.58,14.89,3.58,14.89
	l4.82,3.69c0,0,8.22,0.92,31.1,0.92s29.02-0.15,34.26-1.38c5.24-1.23,9.06-14.04,9.06-14.04s0.3-13.36-5.27-20.16
	c-5.57-6.79-20.5-7.8-20.5-7.8S32.89,83.53,32.89,83.53z"/>
<path style="fill:#583EE2;" d="M86.22,77.62L74.01,89.98l14.52,0.15c0,0,10.8-5.21,10.8-9.83c0-3.59-2.16-4.91-2.16-4.91
	L86.22,77.62L86.22,77.62z"/>
<path style="fill:#7669F7;" d="M62.03,86.11l2.04-6.68c0,0,12.4-5.97,14.56-7.24s5.96-3.57,8.34-4.39c2.38-0.82,4.02-1.27,4.69-0.22
	s2.31,3.5,3.42,4.91c1.12,1.41,2.08,2.9,2.08,2.9s-2.46,1.34-4.02,2.38s-4.09,4.09-8.04,6.33c-2.64,1.5-7.67,3.87-7.67,3.87
	L62.03,86.11L62.03,86.11z"/>
<path style="fill:#4B0FCE;" d="M33.66,117.38l-11.17-10.76c0,0,0.99-7.05,6.24-11.97c6.02-5.65,16-7.14,16-7.14l17.23-7.12
	l2.13-0.95c0,0,7.8,4.85,14.94,7.57s12.58,3.24,18.11,6.97c5.53,3.72,8.33,10.36,8.52,14.62c0.24,5.3-0.92,7.95-0.92,7.95
	L64.2,105.89c0,0-4.78,4.06-5.73,4.81c-2.01,1.58-4.79,3.47-4.79,3.47l-20.02,3.22L33.66,117.38z"/>
<path style="fill:#583EE2;" d="M35.87,95.35c-0.6,0-5.13,2.31-9.05,6.24c-3.92,3.92-4.33,5.03-4.33,5.03s-2.01,11.07,3.22,14.69
	s13.38,1.31,18.81-1.41s9.15-5.73,9.15-5.73s-5.43-3.32-10.46-8.45C38.76,101.18,35.87,95.36,35.87,95.35L35.87,95.35z"/>
<path style="fill:#492C25;" d="M30.8,63.46l0.77,15.26l-3.13,0.12c0,0-3.26-0.52-7.74-5.13c-2.55-2.63-2.31-5.25-3.58-6.19
	c-2.41-1.79-7.4-6.13-8.28-7.42c-1.5-2.22-0.6-3.07-0.6-3.07l1.47-0.72c0,0-1.35-0.85-1.95-1.69s-0.48-1.8-0.48-1.8l3.13-0.78
	c0,0-0.37-0.57-0.42-1.32s0.24-1.2,0.24-1.2l4.33,1.32C14.56,50.84,30.8,63.46,30.8,63.46z"/>
<path style="fill:#70534A;" d="M37.4,67.12c0,0-3.51-3.04-7.08-6.23c-2.46-2.2-5.29-4.27-6.25-4.99s-4.05-3.24-7.86-5.24
	c-1.89-0.99-3.93-1.93-4.65-1.93s-1.26,0.66-1.32,0.78s3.49,2.22,5.53,3.49s5.11,3.49,5.53,3.91s0.42,0.96,0.06,1.26
	s-1.14,0.12-1.68-0.42s-3.06-2.53-5.35-3.97c-2.58-1.62-3.97-2.82-5.77-2.4c-1.17,0.27-1.26,1.44-1.26,1.44s2.7,1.26,4.69,2.7
	s4.87,3.49,5.53,3.91s1.24,1.17,0.9,1.56c-0.42,0.48-1.38-0.06-1.98-0.48s-2.76-2.1-4.03-3.01s-2.4-1.56-3.25-1.2
	c-0.77,0.33-0.9,0.72-0.9,0.72s2.92,3.08,5.53,5.23c3.37,2.76,4.45,3.31,5.05,3.85s1.12,4.1,4.39,6.97c4.09,3.6,7.63,4.45,7.63,4.45
	l6.55-10.4H37.4z"/>
<path style="fill:#583EE2;" d="M59.85,85.93L30.42,75.31c0,0-1.31,1.62-1.82,2.93s-0.2,2.22,1.72,3.74s15.07,13.45,23.97,19.62
	s17.08,12.14,25.08,17.09c9.81,6.07,20.73,5.27,23.97,0.81c2.72-3.75,2.47-10.27,1.58-12.13c-3.3-6.9-11.29-11.43-11.29-11.43
	L59.85,85.93z"/>
<path style="fill:#7669F7;" d="M98.72,108.71c-2.34,1.72-14.81,3.72-31.8-7.1C50.1,90.9,30.41,75.32,30.41,75.32
	s2.22-3.34,3.84-5.26c1.62-1.92,2.63-3.54,3.44-3.74S61.15,79.77,66.11,82.5s13.85,6.88,19.62,9.3c5.76,2.43,9.51,4.75,11.23,8.29
	S98.72,108.7,98.72,108.71L98.72,108.71z"/>
</svg>
