<?xml version="1.0" encoding="utf-8"?>
<!-- Generator: Adobe Illustrator 26.3.1, SVG Export Plug-In . SVG Version: 6.00 Build 0)  -->
<svg version="1.1" id="a" xmlns="http://www.w3.org/2000/svg" xmlns:xlink="http://www.w3.org/1999/xlink" x="0px" y="0px"
	 viewBox="0 0 128 128" style="enable-background:new 0 0 128 128;" xml:space="preserve">
<path style="fill:#AB872F;" d="M82.85,13.15c0,0-2.28-7.4-14.38-8.81c-17.68-2.05-20.61,10.8-26.97,9.91
	c-6.18-0.87-4.1-5.87-5.47-6.23s-5.34,1.99-5.98,7.5c-0.26,2.23,0.51,4.45,0.51,4.45s-5.79,1.82-7.76,7.63
	c-3.05,9.03,2.42,13.74,2.42,15.77s-6.49,5.85-1.56,16.4c3.34,7.15,5.32,4.85,5.71,8.38c0.23,2.14-1.8,2.21-1.96,3.73
	c-0.08,0.75,2.14,2.49,4.18,3.07c3.26,0.94,9.49,1.5,9.49,1.5s-2.04,1.46,2.83,2.29c6.33,1.07,10.2-1.85,10.2-1.85l9.64-0.55
	c0,0,8.91,1.85,18.71,1.92s13.73-1.49,17.2-4.92c2.7-2.68,3.32-5.37,2.78-6.22c-0.54-0.86-2.61,0.04-2.18-3.78
	c0.66-5.95,2.98-6.4,2.29-14.25c-0.49-5.59-3.82-10.18-3.82-10.18s3.04-11.83-2.35-18.49c-7.06-8.73-13.54-7.29-13.54-7.29
	L82.85,13.15z"/>
<path style="fill:#A87254;" d="M102.26,64.99l-7.32,11.65l3.78,1.77c0,0,3.92,0.09,7.65-3.4c4.46-4.19,4.46-6.76,5.44-7.83
	s4.4-3.87,5.57-5.55s1.3-2.9,1.19-3.95c-0.12-1.09-0.49-1.05-0.49-1.05s1.8-1.5,2.17-2.71c0.44-1.45-0.02-2.1-0.02-2.1h-2.12
	c0,0,0.52-1.95-0.3-2.58s-10.62,5.94-10.62,5.94l-4.91,9.81H102.26z"/>
<path style="fill:#E0BB95;" d="M85.89,72.57l5.04-4.81c0,0,6.23-6.2,12-10.79c5.78-4.59,12.63-7.66,13.35-7.91
	c0.34-0.12,0.9-0.17,1.31,0s0.53,0.64,0.53,0.64s-5.06,3.23-6.65,4.32s-3,2.18-3.71,2.78s-0.66,1.09-0.22,1.53s1.15-0.27,1.91-0.87
	s2.6-2.01,5.41-3.88c3.04-2.02,4.2-2.73,5.13-2.07s-0.87,1.91-1.97,2.73s-5.24,3.71-6.44,4.64s-2.78,1.69-1.97,2.62
	c0.56,0.64,1.94-0.74,3.25-1.71c1.99-1.47,4.17-3.31,5.2-3.18c0.48,0.06,0.31,0.93,0,1.44c-0.65,1.07-2.04,2.4-2.74,3.03
	c-1.04,0.93-3.95,3.37-5.15,4.68s-1.06,3.18-5.41,6.66s-8.63,3.88-8.63,3.88l-10.25-3.73L85.89,72.57z"/>
<g>
	<path style="fill:#DBA689;" d="M32.05,49.67c0,0-5.57-0.27-3.5,8.91c2.1,9.27,10.18,8.79,10.18,8.79l-4.85-7.02
		c0,0-0.9-2.65-1.29-5.47s-0.54-5.22-0.54-5.22V49.67z"/>
	<path style="fill:#DBA689;" d="M93.63,50.08c1.01-0.39,5.64,2.53,4.2,8.96c-1.13,5.03-6.52,9.83-7.95,9.81
		c-1.42-0.01-4.06-5.83-4.06-5.83s5.62-2.28,6.63-3.39c1.01-1.11,1.17-9.55,1.17-9.55L93.63,50.08z"/>
</g>
<path style="fill:#E0BB95;" d="M37.31,39.93c-0.93,0.95-0.82,19.32-1.75,19.96s-1.67,0.47-1.67,0.47s5.59,22.83,29.03,24.02
	c24.3,1.24,29.54-24.74,29.54-24.74s-1.95,0.62-2.24-0.98s1.43-15.93-4.35-22.65c-4.33-5.03-10.05-4.9-10.05-4.9
	s-2.88-5.18-9.96-4.87c-9.58,0.42-13.09,5.83-19.6,9.78c-5.01,3.04-8.95,3.92-8.95,3.92L37.31,39.93z"/>
<path style="fill:#AD3900;" d="M33.05,83.7c0,0-2.48-0.19-6.09,3.88c-3.79,4.26-4,11.45-3.89,16.99s3.56,14.81,3.56,14.81l4.79,3.67
	c0,0,13.31,0.95,31.23,0.95s28.58-0.19,33.79-1.41s9.01-13.96,9.01-13.96s0.3-13.29-5.24-20.05s-20.39-7.76-20.39-7.76L33.06,83.7
	L33.05,83.7z"/>
<path style="fill:#F06E00;" d="M86.11,77.83L73.96,90.12l14.44,0.15c0,0,10.74-5.18,10.74-9.78c0-3.57-2.15-4.89-2.15-4.89
	L86.1,77.82L86.11,77.83z"/>
<path style="fill:#FF8E00;" d="M62.04,86.27l2.03-6.65c0,0,12.34-5.94,14.49-7.2s5.93-3.56,8.3-4.37c2.37-0.81,4-1.26,4.67-0.22
	s2.3,3.48,3.41,4.89s2.07,2.89,2.07,2.89s-2.44,1.33-4,2.37s-4.07,4.07-8,6.3c-2.63,1.49-7.63,3.85-7.63,3.85l-15.33-1.85
	L62.04,86.27z"/>
<path style="fill:#DA4C00;" d="M33.81,117.38L22.7,106.67c0,0,0.99-7.01,6.2-11.91c5.98-5.62,15.91-7.11,15.91-7.11l17.14-7.08
	l2.12-0.95c0,0,7.76,4.83,14.87,7.53s12.51,3.23,18.02,6.93c5.5,3.7,8.29,10.31,8.48,14.55c0.24,5.27-0.91,7.91-0.91,7.91
	L64.2,105.93c0,0-4.75,4.04-5.7,4.79c-2,1.58-4.77,3.45-4.77,3.45l-19.92,3.2L33.81,117.38z"/>
<path style="fill:#C48E6A;" d="M63.17,59.66c-2.69,0.07-3.71-0.84-4.65,0.14c-0.87,0.89-0.08,2.15,1.38,3.27
	c1.98,1.52,5.03,1.44,6.6,0.02c1.56-1.41,2.22-2.6,1.21-3.46S65.92,59.59,63.17,59.66z"/>
<g>
	<path style="fill:#9B782C;" d="M41.89,42.66c0.74,1.11,3.07-0.59,6.84-0.7c3.67-0.11,5.81,1.63,6.38-0.39
		c0.67-2.39-1.89-3.33-6.46-2.96C43.98,38.99,40.9,41.18,41.89,42.66z"/>
	<path style="fill:#9B782C;" d="M71.33,41.98c1.55,0.48,3.04-0.2,5.55-0.05c2.66,0.15,5.88,1.51,6.77,0.57s-1.25-3.34-6.12-3.97
		c-4.4-0.58-6.67,0.5-7.02,1.46S70.69,41.79,71.33,41.98L71.33,41.98z"/>
</g>
<g>
	<path style="fill:#3F4040;" d="M48.94,45.28c-3.6-0.17-5.11,2.9-4.96,5.12c0.14,2.21,1.74,4.37,4.92,4.42
		c3.02,0.05,4.75-1.89,4.84-4.53s-1.46-4.85-4.79-5.01H48.94z"/>
	<path style="fill:#3F4040;" d="M77.19,44.93c-2.68-0.38-5.22,1.44-5.22,4.68c0,3.61,3.12,4.84,4.85,4.9
		c2.48,0.08,4.53-1.68,4.67-4.32C81.64,47.23,80.2,45.35,77.19,44.93z"/>
</g>
<path style="fill:#F06E00;" d="M36.02,95.46c-0.6,0-5.1,2.3-9.01,6.2s-4.3,5-4.3,5s-2,11.01,3.2,14.61s13.31,1.3,18.71-1.4
	s9.11-5.7,9.11-5.7s-5.4-3.3-10.41-8.41c-4.43-4.52-7.31-10.31-7.31-10.31L36.02,95.46z"/>
<path style="fill:#785446;" d="M63.82,67.84c-4.08,0.07-8.3,0.29-8.3,2.4s4.3,2.33,8.52,2.4s8.1-0.8,8.16-2.48
	c0.07-2.26-4.66-2.4-8.37-2.33L63.82,67.84z"/>
<path style="fill:#A87254;" d="M30.97,63.73l0.76,15.18l-3.11,0.12c0,0-3.25-0.52-7.7-5.11c-2.54-2.62-2.3-5.23-3.56-6.16
	c-2.4-1.78-7.37-6.1-8.23-7.38c-1.49-2.21-0.6-3.05-0.6-3.05l1.46-0.71c0,0-1.34-0.84-1.94-1.68s-0.48-1.79-0.48-1.79l3.11-0.78
	c0,0-0.37-0.57-0.42-1.32s0.24-1.2,0.24-1.2l4.3,1.32l16.16,12.56L30.97,63.73z"/>
<path style="fill:#E0BB95;" d="M37.53,67.38c0,0-3.49-3.02-7.04-6.2c-2.45-2.19-5.27-4.24-6.22-4.96s-4.03-3.22-7.82-5.21
	c-1.88-0.99-3.91-1.92-4.63-1.92s-1.26,0.66-1.32,0.78s3.47,2.21,5.5,3.47s5.08,3.47,5.5,3.89s0.42,0.96,0.06,1.26
	s-1.14,0.12-1.67-0.42s-3.04-2.52-5.32-3.95c-2.57-1.61-3.95-2.81-5.74-2.39C7.67,52,7.57,53.16,7.57,53.16s2.69,1.26,4.66,2.69
	s4.84,3.47,5.5,3.89s1.24,1.17,0.9,1.55c-0.42,0.48-1.38-0.06-1.97-0.48s-2.75-2.09-4.01-2.99s-2.39-1.55-3.23-1.2
	c-0.76,0.33-0.9,0.72-0.9,0.72s2.9,3.07,5.5,5.2c3.35,2.75,4.42,3.29,5.02,3.83s1.12,4.08,4.36,6.94c4.07,3.58,7.59,4.42,7.59,4.42
	l6.52-10.34L37.53,67.38z"/>
<path style="fill:#F06E00;" d="M59.87,86.09L30.59,75.53c0,0-1.31,1.61-1.81,2.92s-0.2,2.21,1.71,3.72s14.99,13.38,23.84,19.52
	c8.85,6.14,16.99,12.08,24.95,17c9.76,6.04,20.62,5.25,23.84,0.8c2.71-3.73,2.46-10.21,1.57-12.07
	c-3.29-6.86-11.23-11.37-11.23-11.37l-33.6-9.96L59.87,86.09z"/>
<path style="fill:#FF8E00;" d="M98.54,108.75c-2.33,1.71-14.73,3.7-31.63-7.06C50.18,91.03,30.59,75.53,30.59,75.53
	s2.21-3.32,3.82-5.23s2.62-3.52,3.42-3.72s23.34,13.38,28.27,16.1s13.78,6.84,19.52,9.26c5.73,2.41,9.46,4.73,11.17,8.25
	S98.54,108.76,98.54,108.75L98.54,108.75z"/>
</svg>
