<?xml version="1.0" encoding="utf-8"?>
<!-- Generator: Adobe Illustrator 26.3.1, SVG Export Plug-In . SVG Version: 6.00 Build 0)  -->
<svg version="1.1" id="a" xmlns="http://www.w3.org/2000/svg" xmlns:xlink="http://www.w3.org/1999/xlink" x="0px" y="0px"
	 viewBox="0 0 128 128" style="enable-background:new 0 0 128 128;" xml:space="preserve">
<g>
	<g>
		<path style="fill:#E39503;" d="M89.82,68.55c0,0,8.34,0.08,9.95-8.47c1.69-9.02-4.8-10.49-4.8-10.49L89.82,68.55L89.82,68.55z"/>
		<path style="fill:#E39503;" d="M33.69,51.16c0,0-8.27-1.1-5.66,9.2c2.27,8.95,10.8,8.19,10.8,8.19l-5.15-17.39L33.69,51.16z"/>
	</g>
	<path style="fill:#62453B;" d="M61.84,67.44L33.61,57.37c0,0-5.85-19.39-0.09-34.04C38.1,11.69,48.33,4.45,62.66,4.12
		c15.31-0.35,25.98,6.18,30.93,18.07c5.98,14.35-0.29,34.96-0.29,34.96l-31.45,10.3L61.84,67.44z"/>
	<path style="fill:#FFCA26;" d="M40.19,33.11c-1.35,0.86-1.25,12.45-2.03,17.42c-0.82,5.26-4.44,6.73-4.44,6.73s1.94,7.7,4.99,13.56
		c4.19,8.06,12.58,16.3,25.49,16.31c10.75,0,16.95-5.71,21.05-10.65c6.09-7.34,8.18-19.35,8.18-19.35s-2.14-1.69-3.64-6.61
		c-1.76-5.74-1.47-16.94-3.01-18s-10.03-0.38-24.12-0.19c-11.18,0.15-21.13-0.1-22.48,0.77L40.19,33.11z"/>
	<path style="fill:#E59700;" d="M64,62.32c-2.72,0.07-3.74-0.84-4.7,0.14c-0.87,0.9-0.08,2.17,1.39,3.3c2,1.53,5.08,1.46,6.67,0.02
		c1.57-1.43,2.25-2.63,1.22-3.49S66.77,62.25,64,62.32L64,62.32z"/>
	<g>
		<path style="fill:#6D4C3F;" d="M42.91,45.32c0.74,1.12,3.1-0.6,6.91-0.71c3.71-0.11,5.87,1.65,6.44-0.39
			c0.68-2.42-1.91-3.36-6.52-2.99C45.02,41.61,41.91,43.82,42.91,45.32z"/>
		<path style="fill:#6D4C3F;" d="M72.64,44.64c1.56,0.49,3.07-0.2,5.6-0.05c2.69,0.15,5.94,1.52,6.84,0.57s-1.26-3.37-6.18-4.01
			c-4.44-0.58-6.73,0.51-7.09,1.48s0.19,1.82,0.83,2.02V44.64z"/>
	</g>
	<g>
		<path style="fill:#3F4040;" d="M50.06,47.98c-3.64-0.18-5.16,2.93-5.01,5.17s1.76,4.41,4.97,4.46c3.05,0.05,4.8-1.91,4.89-4.57
			S53.44,48.14,50.06,47.98L50.06,47.98z"/>
		<path style="fill:#3F4040;" d="M78.59,47.62c-2.71-0.38-5.27,1.46-5.27,4.72c0,3.64,3.15,4.89,4.9,4.95
			c2.5,0.08,4.58-1.7,4.72-4.36c0.15-2.99-1.31-4.89-4.34-5.31H78.59z"/>
	</g>
	<path style="fill:#785446;" d="M63.96,70.4c-4.12,0.07-8.38,0.29-8.38,2.43s4.34,2.35,8.6,2.43s8.18-0.81,8.24-2.5
		c0.07-2.28-4.71-2.42-8.46-2.35V70.4z"/>
	<g>
		<path style="fill:#B95F1A;" d="M102.26,64.99l-7.32,11.65l3.78,1.77c0,0,3.92,0.09,7.65-3.4c4.46-4.19,4.46-6.76,5.44-7.83
			s4.4-3.87,5.57-5.55s1.3-2.9,1.19-3.95s-0.49-1.05-0.49-1.05s1.8-1.5,2.17-2.71c0.44-1.45-0.02-2.1-0.02-2.1h-2.12
			c0,0,0.52-1.95-0.3-2.58s-10.62,5.94-10.62,5.94l-4.91,9.81H102.26z"/>
		<path style="fill:#FFCA26;" d="M85.89,72.57l5.04-4.81c0,0,6.23-6.2,12-10.79c5.78-4.59,12.63-7.66,13.35-7.91
			c0.34-0.12,0.9-0.17,1.31,0s0.53,0.64,0.53,0.64s-5.06,3.23-6.65,4.32s-3,2.18-3.71,2.78s-0.66,1.09-0.22,1.53
			s1.15-0.27,1.91-0.87s2.6-2.01,5.41-3.88c3.04-2.02,4.2-2.73,5.13-2.07s-0.87,1.91-1.97,2.73s-5.24,3.71-6.44,4.64
			s-2.78,1.69-1.97,2.62c0.56,0.64,1.94-0.74,3.25-1.71c1.99-1.47,4.17-3.31,5.2-3.18c0.48,0.06,0.31,0.93,0,1.44
			c-0.65,1.07-2.04,2.4-2.74,3.03c-1.04,0.93-3.95,3.37-5.15,4.68s-1.06,3.18-5.41,6.66c-4.42,3.55-8.63,3.88-8.63,3.88l-10.25-3.73
			L85.89,72.57z"/>
		<path style="fill:#007A71;" d="M33.05,83.7c0,0-2.48-0.19-6.09,3.88c-3.79,4.26-4,11.45-3.89,16.99s3.56,14.81,3.56,14.81
			l4.79,3.67c0,0,13.31,0.95,31.23,0.95s28.58-0.19,33.79-1.41s9.01-13.96,9.01-13.96s0.3-13.29-5.24-20.05s-20.39-7.76-20.39-7.76
			L33.06,83.7L33.05,83.7z"/>
		<path style="fill:#00BDA3;" d="M86.11,77.83L73.96,90.12l14.44,0.15c0,0,10.74-5.18,10.74-9.78c0-3.57-2.15-4.89-2.15-4.89
			L86.1,77.82L86.11,77.83z"/>
		<path style="fill:#24E2B5;" d="M62.04,86.27l2.03-6.65c0,0,12.34-5.94,14.49-7.2s5.93-3.56,8.3-4.37c2.37-0.81,4-1.26,4.67-0.22
			s2.3,3.48,3.41,4.89s2.07,2.89,2.07,2.89s-2.44,1.33-4,2.37s-4.07,4.07-8,6.3c-2.63,1.49-7.63,3.85-7.63,3.85l-15.33-1.85
			L62.04,86.27z"/>
		<path style="fill:#06927F;" d="M33.81,117.38L22.7,106.67c0,0,0.99-7.01,6.2-11.91c5.98-5.62,15.91-7.11,15.91-7.11l17.14-7.08
			l2.12-0.95c0,0,7.76,4.83,14.87,7.53s12.51,3.23,18.02,6.93s8.29,10.31,8.48,14.55c0.24,5.27-0.91,7.91-0.91,7.91L64.2,105.93
			c0,0-4.75,4.04-5.7,4.79c-2,1.58-4.77,3.45-4.77,3.45l-19.92,3.2L33.81,117.38z"/>
		<path style="fill:#00BDA3;" d="M36.02,95.46c-0.6,0-5.1,2.3-9.01,6.2s-4.3,5-4.3,5s-2,11.01,3.2,14.61s13.31,1.3,18.71-1.4
			c5.4-2.7,9.11-5.7,9.11-5.7s-5.4-3.3-10.41-8.41c-4.43-4.52-7.31-10.31-7.31-10.31L36.02,95.46z"/>
		<path style="fill:#B95F1A;" d="M30.97,63.73l0.76,15.18l-3.11,0.12c0,0-3.25-0.52-7.7-5.11c-2.54-2.62-2.3-5.23-3.56-6.16
			c-2.4-1.78-7.37-6.1-8.23-7.38c-1.49-2.21-0.6-3.05-0.6-3.05l1.46-0.71c0,0-1.34-0.84-1.94-1.68s-0.48-1.79-0.48-1.79l3.11-0.78
			c0,0-0.37-0.57-0.42-1.32s0.24-1.2,0.24-1.2l4.3,1.32l16.16,12.56L30.97,63.73z"/>
		<path style="fill:#FFCA26;" d="M37.53,67.38c0,0-3.49-3.02-7.04-6.2c-2.45-2.19-5.27-4.24-6.22-4.96s-4.03-3.22-7.82-5.21
			c-1.88-0.99-3.91-1.92-4.63-1.92s-1.26,0.66-1.32,0.78s3.47,2.21,5.5,3.47s5.08,3.47,5.5,3.89s0.42,0.96,0.06,1.26
			s-1.14,0.12-1.67-0.42s-3.04-2.52-5.32-3.95c-2.57-1.61-3.95-2.81-5.74-2.39C7.67,52,7.57,53.16,7.57,53.16s2.69,1.26,4.66,2.69
			s4.84,3.47,5.5,3.89s1.24,1.17,0.9,1.55c-0.42,0.48-1.38-0.06-1.97-0.48s-2.75-2.09-4.01-2.99s-2.39-1.55-3.23-1.2
			c-0.76,0.33-0.9,0.72-0.9,0.72s2.9,3.07,5.5,5.2c3.35,2.75,4.42,3.29,5.02,3.83s1.12,4.08,4.36,6.94
			c4.07,3.58,7.59,4.42,7.59,4.42l6.52-10.34L37.53,67.38z"/>
		<path style="fill:#00BDA3;" d="M59.87,86.09L30.59,75.53c0,0-1.31,1.61-1.81,2.92s-0.2,2.21,1.71,3.72s14.99,13.38,23.84,19.52
			c8.85,6.14,16.99,12.08,24.95,17c9.76,6.04,20.62,5.25,23.84,0.8c2.71-3.73,2.46-10.21,1.57-12.07
			c-3.29-6.86-11.23-11.37-11.23-11.37l-33.6-9.96L59.87,86.09z"/>
		<path style="fill:#24E2B5;" d="M98.54,108.75c-2.33,1.71-14.73,3.7-31.63-7.06C50.18,91.03,30.59,75.53,30.59,75.53
			s2.21-3.32,3.82-5.23s2.62-3.52,3.42-3.72s23.34,13.38,28.27,16.1s13.78,6.84,19.52,9.26c5.73,2.41,9.46,4.73,11.17,8.25
			S98.54,108.76,98.54,108.75L98.54,108.75z"/>
	</g>
</g>
</svg>
