<?xml version="1.0" encoding="utf-8"?>
<!-- Generator: Adobe Illustrator 26.3.1, SVG Export Plug-In . SVG Version: 6.00 Build 0)  -->
<svg version="1.1" id="a" xmlns="http://www.w3.org/2000/svg" xmlns:xlink="http://www.w3.org/1999/xlink" x="0px" y="0px"
	 viewBox="0 0 128 128" style="enable-background:new 0 0 128 128;" xml:space="preserve">
<path style="fill:#B9A074;" d="M49.11,50.19c0-1.63,0.05-3.35,0.17-4.68c0.24-2.6,1.31-4.1,3.94-4.09c2.03,0,24.76,0.03,26.55,0
	c2.52-0.04,3.22,2.38,3.37,3.55s0.57,5.5,0.41,5.5C82.95,50.47,49.02,50.15,49.11,50.19L49.11,50.19z"/>
<path style="fill:#F4DAAD;" d="M42.54,48.93c0,0-1.17-2.26-2-2.76s-20.79-1.97-26.3,6.48S7.5,76.5,6.99,83.29S6.48,94.56,6.48,94.56
	l67.49,2.94l46.72-2.69c0,0-0.44-20.95-0.55-26.45c-0.11-5.51-0.25-14.65-2.89-16.95s-4.25-1.79-8.84-1.92s-65.86-0.56-65.86-0.56
	H42.54z"/>
<path style="fill:#FFB803;" d="M6.49,94.03l114.29,0.43c0,0,0.4,15.15,0.4,16.56s-0.4,3.03-2.39,3.14s-91.68,0.76-91.68,0.76
	l-20.17-0.97c0,0-2.33-0.87-2.88-2.81s0.67-12.12,0.67-12.12l1.77-4.98L6.49,94.03z"/>
<path style="fill:#FF6110;" d="M4.31,102.59C4,105,3.62,110.46,4.05,111.73c0.55,1.64,2.88,2.37,2.88,2.37l20.17,0.82
	c0,0,89.7-0.55,91.68-0.64c1.99-0.09,2.39-1.46,2.39-2.65c0-0.69-0.13-5.24-0.24-8.96C120.93,102.67,4.31,102.59,4.31,102.59z"/>
<path style="fill:#464C4F;" d="M3.91,107.44c0,1.06-0.12,3.33-0.06,3.81c0.32,2.71,3.33,2.9,3.33,2.9l19.93,0.77
	c0,0,89.71-0.38,91.69-0.52c1.99-0.15,2.38-1.33,2.38-3.22c0-0.31-0.04-2.61-0.05-3.74H3.91z"/>
<path style="fill:#F1EDEC;" d="M4,105.82c0,0,3.08,0.27,3.62-0.6c1.02-1.66,1.81-10.07,1.01-10.94c-0.52-0.56-2.3-0.32-2.3-0.32
	s-1.45,3.02-1.95,6.08c-0.54,3.28-0.37,5.77-0.37,5.77L4,105.82z"/>
<path style="fill:#84765F;" d="M35.2,114.9c0,0,0.5-5.53-1.57-9.59s-6.99-6.98-12.12-7.05c-9.24-0.12-12.83,6.7-13.5,10.38
	c-0.58,3.18-0.18,5.54-0.18,5.54s3.46,0.13,6.85,0.35c2.3,0.15,4.06,0.43,6.66,0.43C30.08,114.96,35.2,114.9,35.2,114.9z"/>
<path style="fill:#84765F;" d="M83,114.66c0,0-0.33-5.26,1.23-8.42c2.17-4.37,6.32-7.84,12.7-7.84s10.54,3.59,12.03,6.22
	c2.56,4.52,2.15,9.88,2.15,9.88S83,114.66,83,114.66z"/>
<path style="fill:#4E433D;" d="M9.65,112.84c0.07,4.52,3.68,11.03,11.53,11.08s11.93-5.96,11.68-12.13s-5.12-10.68-12.13-10.49
	C14.17,101.49,9.55,106.57,9.65,112.84L9.65,112.84z"/>
<path style="fill:#B2B1B2;" d="M15.12,112.46c0.04,2.38,1.98,5.82,6.19,5.84s6.26-2.96,6.13-6.21s-2.83-5.76-6.37-5.71
	C17.55,106.43,15.06,109.16,15.12,112.46z"/>
<path style="fill:#4E433D;" d="M85.67,112.92c0.07,4.49,3.6,10.95,11.28,11s11.67-5.92,11.43-12.03
	c-0.25-6.22-5.01-10.6-11.87-10.41C90.09,101.66,85.57,106.71,85.67,112.92z"/>
<path style="fill:#B2B1B2;" d="M91.07,112.83c0.04,2.38,1.98,5.82,6.19,5.84s6.26-2.96,6.13-6.21c-0.14-3.3-2.83-5.76-6.37-5.71
	S91.01,109.53,91.07,112.83z"/>
<path style="fill:#454C52;" d="M54.78,88.74c0,0,56.12,0.12,57.82,0s3.93-2.84,4.03-6.75s-0.42-20.37-0.64-22.26
	s-1.26-5.69-6.48-5.68c-4.14,0-84.94-0.47-87.07-0.47s-5.31,1.26-6.73,4.69s-4.02,9.74-4.64,16.85s-0.59,10.27-0.12,12.17
	s0.95,4.03,5.33,4.03h20.49l0.25,23.51l17.74-0.07v-26L54.78,88.74z"/>
<path style="fill:#8E7F66;" d="M117.29,95.5L117.29,95.5l-6.78-0.04c-0.68,0-1.24-0.56-1.23-1.25c0-0.68,0.56-1.23,1.24-1.23l0,0
	l6.78,0.04c0.68,0,1.24,0.56,1.23,1.25C118.53,94.95,117.97,95.5,117.29,95.5z"/>
<path style="fill:#8E7F66;" d="M117.21,99.96L117.21,99.96l-6.78-0.04c-0.68,0-1.24-0.56-1.23-1.25c0-0.68,0.56-1.23,1.24-1.23l0,0
	l6.78,0.04c0.68,0,1.24,0.56,1.23,1.25C118.45,99.41,117.89,99.96,117.21,99.96z"/>
<path style="fill:#8E7F66;" d="M117.16,104.45L117.16,104.45l-6.78-0.04c-0.68,0-1.24-0.56-1.23-1.25c0-0.68,0.56-1.23,1.24-1.23
	l0,0l6.78,0.04c0.68,0,1.24,0.56,1.23,1.25C118.4,103.9,117.84,104.45,117.16,104.45z"/>
<path style="fill:#AFE3FB;" d="M36.5,59.51c0,0-14.88,0-16.08,0.09s-2.36,1.55-3.4,5.14c-1.09,3.77-3.03,9.94-2.57,18.85
	c0.09,1.65,1.65,2.11,2.94,2.11h19.2L36.5,59.5L36.5,59.51z"/>
<path style="fill:#858585;" d="M20.33,78.16l-0.28,11.57c0,0,4.87,0.92,5.7-0.37s0.83-9.36,0.18-10.38c-1.29-2.02-5.6-0.83-5.6-0.83
	V78.16z"/>
<path style="fill:#AFE3FB;" d="M39.99,61.23h11.76v45.87H40.08C40.08,107.1,39.99,60.86,39.99,61.23z"/>
<polygon style="fill:#AFE3FB;" points="55.42,82.75 55.42,59.7 83.05,59.7 83.05,82.66 "/>
<path style="fill:#AFE3FB;" d="M86.6,59.79v22.78h22.73c2.31,0,3.14-1.54,3.39-4.29c0.25-2.76-0.04-13.18-0.26-15.09
	c-0.25-2.11-1.47-3.17-3.64-3.28C106.55,59.8,86.68,59.7,86.6,59.79z"/>
<path style="fill:#FF2A23;" d="M119.89,94.05c0.06-0.49,3.02-0.85,3.64,0.51s0.75,10.43-0.18,10.83s-3.35,0.09-3.35,0.09
	s-0.18-10.88-0.12-11.43H119.89z"/>
<polygon style="fill:#96C8EC;" points="27.27,85.71 31.19,70.2 36.55,70.23 36.6,85.71 "/>
<path style="fill:#96C8EC;" d="M107.9,77.36H86.6v5.21h22.73c2.31,0,3.14-1.54,3.39-4.29c0.18-1.97,0.08-7.87-0.07-11.77
	C112.65,66.51,107.9,77.36,107.9,77.36z"/>
<polygon style="fill:#96C8EC;" points="55.42,77.36 55.42,82.75 83.05,82.66 83.05,77.36 "/>
</svg>
