<?xml version="1.0" encoding="utf-8"?>
<!-- Generator: Adobe Illustrator 26.3.1, SVG Export Plug-In . SVG Version: 6.00 Build 0)  -->
<svg version="1.1" id="a" xmlns="http://www.w3.org/2000/svg" xmlns:xlink="http://www.w3.org/1999/xlink" x="0px" y="0px"
	 viewBox="0 0 128 128" style="enable-background:new 0 0 128 128;" xml:space="preserve">
<path style="fill:#4E433D;" d="M105.66,102.2l-14.63-2.02c0,0-0.09,18.68-0.18,20.43s0.92,3.02,2.39,3.13c2.58,0.18,7.45,0.09,9.2,0
	s2.94-1.29,3.04-2.94s0-11.59,0-11.59S105.66,102.2,105.66,102.2z"/>
<path style="fill:#4E433D;" d="M37.75,102.2l-14.63-2.02c0,0-0.09,18.68-0.18,20.43s0.92,3.02,2.39,3.13c2.58,0.18,7.45,0.09,9.2,0
	s2.94-1.29,3.04-2.94s0-11.59,0-11.59S37.75,102.2,37.75,102.2z"/>
<path style="fill:#B9A074;" d="M25.79,20.23c0,0,0.95-3.18,2.76-6.22c1.4-2.35,2.63-4.42,5.97-4.89C37.35,8.72,47,8.87,63.28,8.75
	C78.94,8.62,88.37,8.78,90.4,8.88c4.66,0.24,5.73,2.27,7.41,5.02s2.15,7.05,2.15,7.05L25.8,20.23
	C25.8,20.23,25.79,20.23,25.79,20.23z"/>
<path style="fill:#97886E;" d="M61.98,13.78c-10.53,0-28.64,1.18-34.16,1.55c-1.33,2.57-2.04,4.89-2.04,4.89l74.16,0.71
	c0,0-0.34-3.33-1.62-6.06c-8.64-0.37-26.96-1.11-36.34-1.11C61.97,13.76,61.98,13.78,61.98,13.78z"/>
<path style="fill:#464C50;" d="M16.63,33.69c0,0-4.14-1.6-7.67,0.74s-2.85,6.8-2.85,6.8s-4.2-0.37-4.08,3.47
	c0.05,1.72-0.14,8.77,0,11.18c0.12,1.96,1.3,3.7,4.82,3.65c4.01-0.06,4.68-1.44,4.76-2.97s0.17-12.27,0.17-13.2
	c0-1.45-0.23-3.36,1.45-3.92c1.48-0.5,2.97,0.5,2.97,0.5l0.43-6.24C16.64,33.7,16.63,33.69,16.63,33.69z"/>
<path style="fill:#464C50;" d="M111.69,73.8c0,0,2.16,0.81,3.89,0.31c2.2-0.63,1.33-5.5,1.31-7.11c-0.03-4.16-0.27-9.33-0.27-9.77
	c0-1.98,0.78-3.04,2.22-3.22s3.94-0.17,5.13-0.12c1.73,0.06,2.12,1.6,2.1,4.01c-0.04,4.55,0.06,10.91,0,11.37
	c-0.08,0.68-0.52,2.07-1.62,2.23c-1.17,0.18-1.9,0.3-1.9,0.3s-0.14,4.37-2.78,6.49s-7.54,1.6-7.54,1.6s-0.48-6.29-0.56-6.11
	C111.67,73.79,111.69,73.8,111.69,73.8z"/>
<path style="fill:#F4DAAD;" d="M19.65,92.76l-5.04-12.09l-0.41-4.4c0,0,0.29-42.42,1.03-51.7c0.31-3.96,2.96-4.36,5.31-4.72
	c3.83-0.59,21.22-2.21,40.82-2.36c19.6-0.14,41.27,1.18,46.13,2.06s4.42,4.42,4.86,7.51s1.18,20.17,1.18,29.16
	s0.29,19.74,0.29,19.74l-2.95,13.55l-41.71,6.19l-49.52-2.95C19.64,92.76,19.65,92.76,19.65,92.76z"/>
<path style="fill:#FFB803;" d="M14.18,76.27l-0.14,25.86l1.76,9.87l95.26-0.11l2.74-11.3V75.97c0,0-5.29,5.14-10.78,6.24
	s-24.11,0.42-41.65,0.71c-17.34,0.28-35.53,0.88-40.22-0.86c-6.99-2.6-6.97-5.8-6.97-5.8L14.18,76.27L14.18,76.27z"/>
<path style="fill:#FF6110;" d="M61.63,93.92c-23.34,0-38.81-1.17-47.53-2.11l-0.06,10.32l1.76,9.87l95.26-0.11l2.74-11.3v-9.03
	C103.62,92.55,85.13,93.92,61.63,93.92z"/>
<path style="fill:#97886E;" d="M21.49,31.8l85.74-0.64c0,0-0.29-8.04-7.63-9.06s-63.12-0.89-71.62,0.77
	C20.62,24.3,21.49,31.8,21.49,31.8z"/>
<path style="fill:#84765F;" d="M17.01,92.48c-0.48,3.59,1.54,6.58,10.43,7.13s18.01,0.36,37.77,0.69s33.67,0.23,38.97-0.26
	c5.93-0.55,8.75-4.59,8.32-8s-5.91-3.78-10.53-3.29c-5.27,0.55-23.45,1.32-36.29,1.3c-19.47-0.03-31-1.3-33.95-1.41
	c-1.23-0.04-5.11-0.25-7.46-0.39c-3.32-0.21-6.72,0.37-7.24,4.23C17.02,92.49,17.01,92.48,17.01,92.48z"/>
<path style="fill:#474C4F;" d="M14.04,102.14c0,0,0.1,8.22,0.22,9.77c0.22,2.86,1.64,4.82,6.91,5.05s30.62,0,44.89,0.11
	s39.29-0.33,42.58-0.43s4.51-2.52,4.72-5.05c0.23-2.78,0.43-10.97,0.43-10.97s-6.26,3.4-12.07,3.62
	c-5.81,0.22-75.41,0.28-78.25,0.12c-6.03-0.33-9.44-2.21-9.44-2.21S14.04,102.14,14.04,102.14z"/>
<path style="fill:#5E6367;" d="M19.86,106.41c-1.31-0.22-2.64-1.43-3.62-0.55c-1.11,0.98-0.43,3.4,2.41,3.72s9.88,0.66,19.53,0.55
	c9.66-0.11,46.1-0.33,54.22-0.22s13.39-0.33,15.15-0.98s4.07-3.29,3.62-4.27s-2.96,0.77-4.61,1.1s-8.89,0.77-16.36,0.66
	c-7.46-0.11-54.77,0.22-60.04,0.22s-8.45,0.09-10.31-0.22C19.85,106.42,19.86,106.41,19.86,106.41z"/>
<path style="fill:#464C52;" d="M21.21,36.98c-1.72,0.17-2.79,0.46-3.25,2.89s-0.72,12.61-0.99,18.46s-0.27,11.98,0,14.23
	s2.16,3.51,5.68,3.79c3.52,0.27,20.72,0.72,30.82,0.72s52-0.9,54.52-1.17s3.06-2.16,3.25-4.06c0.18-1.89,0-7.75-0.36-15.94
	s-1.09-16.66-1.26-18.01s-1.62-1.53-3.06-1.53s-31.18,0-43.25,0.27S23.1,36.79,21.21,36.98z"/>
<path style="fill:#96C8ED;" d="M21.02,44.27c-0.3,1.62-0.72,6.3-0.81,11.43s-0.36,13.33-0.18,14.76s1.71,2.07,3.6,2.07
	s20.28,0.27,36.85,0.46c13.16,0.14,42.53-0.54,44.96-0.81c1.66-0.19,2.26-1.53,2.26-3.06s-0.27-9.99-0.36-14.41
	c-0.09-4.41-0.81-9.82-1.09-11.79s-1.71-2.16-3.25-2.26s-24.51,0.25-40.19,0.36c-12.53,0.09-32.44,0.46-38.11,0.72
	c-3.25,0.16-3.42,1.08-3.69,2.52C21.01,44.27,21.02,44.27,21.02,44.27z"/>
<path style="fill:#AFE3FB;" d="M24.99,66.79l23.34-0.09l0.11-25.48c0,0-5.18,0.03-12.79,0.22c-5.97,0.14-10.94,0.33-10.94,0.33
	l0.27,25.04C24.99,66.8,24.99,66.79,24.99,66.79z"/>
<path style="fill:#AFE3FB;" d="M51.61,41.13l-0.04,25.66h23.52l0.09-25.84c0,0-6.05-0.01-11.64,0.05
	C57.07,41.08,51.61,41.13,51.61,41.13z"/>
<path style="fill:#AFE3FB;" d="M78.91,40.89l0.05,21.03c0,0,1.18-0.6,2.16-0.81c1.71-0.36,3.95-0.35,3.95-0.35s0.1-4.86,0.1-6.31
	s1.09-2.34,2.26-2.43s4.86-0.09,5.86,0s1.62,1.26,1.71,2.26s0.36,6.49,0.36,6.49l5.59-0.09l-0.11-19.99c0,0-6.94,0-11.17,0.05
	S78.91,40.9,78.91,40.9S78.91,40.89,78.91,40.89z"/>
<path style="fill:none;stroke:#FFB803;stroke-width:2.545;stroke-miterlimit:10;" d="M38.11,94.72c0,0,13.61,0.4,27.37,0.4
	s24.04-0.52,24.04-0.52"/>
<path style="fill:#F1EDEC;" d="M88.37,98.34c0.04,1.2,0.18,2.24,3.36,2.33s11.31,0.22,12.92-1.04s2.77-3.43,3.37-5.76
	s1.54-4.63-0.49-5.23c-1.47-0.43-6.89,0.04-10.08,0.3s-8.78,0-9.12,1.82c-0.27,1.43,0,6.25,0.04,7.58
	C88.38,98.33,88.37,98.34,88.37,98.34z"/>
<path style="fill:#F1EDEC;" d="M20.74,88.53c-1.34,0.99-0.34,4.08,0.58,6.53c0.78,2.07,1.55,4.31,3.62,4.4s12.16,1.12,13.79,0.52
	s1.87-1.99,1.99-4.06c0.18-3.1,0.26-5.23-0.79-6.28c-0.77-0.77-3.76-0.99-8.41-1.28c-5.51-0.34-9.48-0.78-10.77,0.18
	C20.75,88.53,20.74,88.53,20.74,88.53z"/>
</svg>
