<?xml version="1.0" encoding="utf-8"?>
<!-- Generator: Adobe Illustrator 26.3.1, SVG Export Plug-In . SVG Version: 6.00 Build 0)  -->
<svg version="1.1" id="Layer_2_00000017502560890842227210000010965716107303433902_"
	 xmlns="http://www.w3.org/2000/svg" xmlns:xlink="http://www.w3.org/1999/xlink" x="0px" y="0px" viewBox="0 0 128 128"
	 style="enable-background:new 0 0 128 128;" xml:space="preserve">
<path style="fill:#FDD835;" d="M92.5,66H42.3l-7.8,5.8v35.8c0.1,8.5,8.5,12.1,9.9,12.7h46.1c1.3-0.6,9.7-4.2,9.7-12.7V71.8
	C100.3,71.8,92.5,66,92.5,66z"/>
<path style="fill:#BF8400;" d="M44.1,120.1c0,0,4.4,3.4,11.1,3.4h24.3c6.7,0,11.1-3.4,11.1-3.4H44.1z"/>
<path style="fill:#E0E0E0;" d="M100.3,83c0,0,0-10.3,0-11.3c0-2.1-6.9-5.8-8.7-5.8H43.2c-1.8,0-8.7,3.9-8.7,6s0,11.1,0,11.1
	S100.3,83,100.3,83z"/>
<path style="fill:#607D8B;" d="M55.7,58.7h23.5c1.6,0,2.9,1.3,2.9,2.9v0.1c0,1.6-1.3,2.9-2.9,2.9H55.7c-1.6,0-2.9-1.3-2.9-2.9v-0.1
	C52.8,60,54.1,58.7,55.7,58.7z"/>
<path style="fill:#82AEC0;" d="M48.6,62.4h37c4.1,0,6.6,3.4,6.6,3.4H42.5C42.5,65.8,44.8,62.4,48.6,62.4z"/>
<g>
	<path style="fill:#FDD835;" d="M76.2,121H59.7c-1.9,0-3.4-1.5-3.4-3.4V77.3c0-1.9,1.5-3.4,3.4-3.4h15.8c2.2,0,4,1.8,4,4v39.9
		c0,1.8-1.5,3.3-3.3,3.3V121z"/>
	<path style="fill:#BF8400;" d="M76.2,122H59.7c-2.5,0-4.4-2-4.4-4.4V77.3c0-2.5,2-4.4,4.4-4.4h15.8c2.7,0,5,2.2,5,5v39.9
		c0,2.4-1.9,4.3-4.3,4.3V122z M59.7,74.8c-1.3,0-2.4,1.1-2.4,2.4v40.3c0,1.3,1.1,2.4,2.4,2.4h16.5c1.3,0,2.3-1,2.3-2.3V77.7
		c0-1.6-1.3-3-3-3H59.7V74.8z"/>
</g>
<g>
	<polygon style="fill:#9E9E9E;" points="4,4.7 4,8.7 124,34.9 124,30.8 	"/>
	<path style="fill:#607D8B;" d="M92.2,15.5L34.1,4c-1.1-0.2-2.2,0.6-2.3,1.7c-0.1,2.5-1.1,6,4.9,7.2s14,3.4,14,3.4
		c3.4,0.7,5.8,3.6,6,7s0.9,2.1,2,2.4l4.1,0.8c1.1,0.2,2.3-0.3,2.8-1.4c1.5-3,4.8-4.7,8.3-4c0,0,7.4,1,14.2,2.4s8,1.4,8,1.4
		s1.6-8-3.9-9.3V15.5z"/>
	<circle style="fill:#37474F;" cx="50.5" cy="13.4" r="5.3"/>
	<circle style="fill:#37474F;" cx="38.9" cy="11" r="5.3"/>
	<circle style="fill:#37474F;" cx="87.1" cy="20.8" r="5.3"/>
	<circle style="fill:#37474F;" cx="75.5" cy="18.5" r="5.3"/>
	<circle style="fill:#82AEC0;" cx="50.1" cy="15.7" r="5.3"/>
	<circle style="fill:#82AEC0;" cx="38.5" cy="13.3" r="5.3"/>
	<circle style="fill:#82AEC0;" cx="87" cy="23.2" r="5.3"/>
	<circle style="fill:#82AEC0;" cx="75.4" cy="20.8" r="5.3"/>
	<path style="fill:none;stroke:#94D1E0;stroke-width:2;stroke-miterlimit:10;" d="M35.1,12.3c0.2-0.7,0.8-1.4,1.4-1.8
		s1.5-0.6,2.3-0.4"/>
	<path style="fill:none;stroke:#94D1E0;stroke-width:2;stroke-miterlimit:10;" d="M46.7,14.5c0.8-1.2,2.3-2,3.8-1.9"/>
	<path style="fill:none;stroke:#94D1E0;stroke-width:2;stroke-miterlimit:10;" d="M72,19.1c0.6-1.5,2.2-2.4,3.7-2.2"/>
	<path style="fill:none;stroke:#94D1E0;stroke-width:2;stroke-miterlimit:10;" d="M83.9,21.5c0.7-1.4,2.5-2.2,4-1.7"/>
</g>
<path style="fill:#FFFFFF;" d="M41.5,68.8c1.5-2.2,3.5-2,4.7-2h11.1c0.6,0,0.9,1.1,0.5,1.8v0.2c-1.1,1.5-2.5,2.3-3.9,2.3l-9.3-0.3
	c-0.4,0-4.5,0.3-3-1.9L41.5,68.8z"/>
<path style="fill:#607D8B;" d="M69.8,60.9c-3.5,0-8.8-1.5-11.9-6.8c-2.4-4-4-8.5-3.1-16.1s4.6-15.8,4.1-22.7h7
	c-0.2,11.2-3.7,17.7-4.2,24.8s1.8,12.2,9.5,15.3s3.3,3.7,3.3,3.7l-4.7,1.7V60.9z"/>
<path style="fill:#37474F;" d="M62.7,58.8h11.9c0,0-0.5-2.2-5.5-2.8S62.7,58.8,62.7,58.8z"/>
<path style="fill:#37474F;" d="M82.7,104.6V79.9c0-1.6,1.3-2.9,2.9-2.9h14.7l-0.2,30.4H85.5c-1.6,0-2.9-1.3-2.9-2.9L82.7,104.6z"/>
<path style="fill:#BAE2FD;" d="M84.3,102.6V81.8c0-1.2,1-2.1,2.1-2.1h13.8l-0.1,25.1H86.5c-1.2,0-2.1-1-2.1-2.1L84.3,102.6z"/>
<path style="fill:#37474F;" d="M52.1,104.6V79.9c0-1.6-1.3-2.9-2.9-2.9H34.5l0.2,30.4h14.6c1.6,0,2.9-1.3,2.9-2.9L52.1,104.6z"/>
<path style="fill:#BAE2FD;" d="M50.4,102.6V81.8c0-1.2-1-2.1-2.1-2.1H34.5l0.1,25.1h13.6c1.2,0,2.1-1,2.1-2.1L50.4,102.6z"/>
<path style="fill:#37474F;" d="M61.6,77h11.8c1.49,0,2.7,1.21,2.7,2.7v24.9c0,1.49-1.21,2.7-2.7,2.7H61.6c-1.49,0-2.7-1.21-2.7-2.7
	V79.7C58.9,78.21,60.11,77,61.6,77z"/>
<path style="fill:#BAE2FD;" d="M62.7,79.6h9.7c1.1,0,2,0.9,2,2v21.1c0,1.1-0.9,2-2,2h-9.7c-1.1,0-2-0.9-2-2V81.6
	C60.7,80.5,61.6,79.6,62.7,79.6z"/>
</svg>
