<?xml version="1.0" encoding="utf-8"?>
<!-- Generator: Adobe Illustrator 26.3.1, SVG Export Plug-In . SVG Version: 6.00 Build 0)  -->
<svg version="1.1" id="Layer_2_00000145042005870854860780000009514252905398169995_"
	 xmlns="http://www.w3.org/2000/svg" xmlns:xlink="http://www.w3.org/1999/xlink" x="0px" y="0px" viewBox="0 0 128 128"
	 style="enable-background:new 0 0 128 128;" xml:space="preserve">
<g>
	<path style="fill:#607D8B;" d="M77.1,58.9H47.7c0,0,10-8,10-40.5h9.6C67.3,49.4,77.1,58.9,77.1,58.9z"/>
	<path style="fill:#607D8B;" d="M39.5,58.5h46c1.6,0,2.9,1.3,2.9,2.9v0.1c0,1.6-1.3,2.9-2.9,2.9h-46c-1.6,0-2.9-1.3-2.9-2.9v-0.1
		C36.6,59.8,37.9,58.5,39.5,58.5z"/>
	<path style="fill:#37474F;" d="M62.8,55.2c-4.4,0-8.4-0.5-11.5-1.3c-1.4,2.6-2.6,4-3.2,4.6h28.6c-0.5-0.6-1.6-2.1-2.9-4.5
		C70.8,54.8,66.9,55.2,62.8,55.2z"/>
	<polygon style="fill:#9E9E9E;" points="124,34.6 4,8.5 4,4.4 124,30.6 	"/>
	<path style="fill:#607D8B;" d="M92.9,15.5L34.9,4c-1.1-0.2-2.2,0.6-2.3,1.7c-0.1,2.5-1.1,6,4.9,7.2s14,3.4,14,3.4
		c3.4,0.7,5.8,3.6,6,7s0.9,2.1,2,2.4l4.1,0.8c1.1,0.2,2.3-0.3,2.8-1.4c1.5-3,4.8-4.7,8.3-4c0,0,7.4,1,14.2,2.4s8,1.4,8,1.4
		s1.6-8-3.9-9.3L92.9,15.5z"/>
	<circle style="fill:#37474F;" cx="51.3" cy="13.4" r="5.3"/>
	<circle style="fill:#37474F;" cx="39.7" cy="11.1" r="5.3"/>
	<circle style="fill:#37474F;" cx="87.9" cy="20.9" r="5.3"/>
	<circle style="fill:#37474F;" cx="76.3" cy="18.5" r="5.3"/>
	<circle style="fill:#82AEC0;" cx="50.8" cy="15.7" r="5.3"/>
	<circle style="fill:#82AEC0;" cx="39.2" cy="13.4" r="5.3"/>
	<circle style="fill:#82AEC0;" cx="87.7" cy="23.3" r="5.3"/>
	<circle style="fill:#82AEC0;" cx="76.1" cy="20.9" r="5.3"/>
	<path style="fill:none;stroke:#94D1E0;stroke-width:2;stroke-miterlimit:10;" d="M35.9,12.4c0.2-0.7,0.8-1.4,1.4-1.8
		s1.5-0.6,2.3-0.4"/>
	<path style="fill:none;stroke:#94D1E0;stroke-width:2;stroke-miterlimit:10;" d="M47.5,14.5c0.8-1.2,2.3-2,3.8-1.9"/>
	<path style="fill:none;stroke:#94D1E0;stroke-width:2;stroke-miterlimit:10;" d="M72.8,19.1c0.6-1.5,2.2-2.4,3.7-2.2"/>
	<path style="fill:none;stroke:#94D1E0;stroke-width:2;stroke-miterlimit:10;" d="M84.6,21.6c0.7-1.4,2.5-2.2,4-1.7"/>
</g>
<path style="fill:#82AEC0;" d="M29.2,62.2h65.4c7.2,0,11.7,3.4,11.7,3.4H18.5C18.5,65.6,22.5,62.2,29.2,62.2z"/>
<g>
	<line style="fill:none;" x1="62.4" y1="123.3" x2="62.4" y2="119.9"/>
	<path style="fill:#C62828;" d="M108,119.9H62.4v3.4H98C104.8,123.3,108,119.9,108,119.9z"/>
	<path style="fill:#F4511E;" d="M108.5,65.7H16.3l-7.8,5.8v35.8c0.1,7.5,8.3,12.6,8.3,12.6H108c0,0,8.2-5.2,8.2-12.6V71.5
		C116.3,71.5,108.5,65.7,108.5,65.7z"/>
	<path style="fill:#C62828;" d="M16.8,119.9h45.6v3.4c-15.8,0-32,0-35.6,0C20,123.3,16.8,119.9,16.8,119.9z"/>
	<path style="fill:#E0E0E0;" d="M116.3,82.8c0,0,0-10.3,0-11.3c0-2.1-6.9-5.8-8.7-5.8H17.3c-1.8,0-8.7,3.7-8.7,5.8s0,11.3,0,11.3
		h22.1c0,0,6.2,9.2,31.6,9.2s32-9.2,32-9.2H116.3z"/>
	<path style="fill:#37474F;" d="M93.9,104.5V79.8c0-1.6,1.3-2.9,2.9-2.9h19.5l-0.2,30.4H96.8c-1.6,0-2.9-1.3-2.9-2.9V104.5z"/>
	<path style="fill:#BAE2FD;" d="M95.6,102.4V81.6c0-1.2,1-2.1,2.1-2.1h18.6l-0.1,25.1H97.8c-1.2,0-2.1-1-2.1-2.1L95.6,102.4z"/>
	<g>
		<path style="fill:#F4511E;" d="M64.2,73.7h18.2c1.9,0,3.4,1.5,3.4,3.4v40.3c0,1.9-1.5,3.4-3.4,3.4H64c-0.8,0-1.5-0.7-1.5-1.5v-44
			c0-0.9,0.8-1.7,1.7-1.7L64.2,73.7z"/>
		<path style="fill:#C62828;" d="M82.4,121.9H64c-1.4,0-2.5-1.1-2.5-2.5v-44c0-1.5,1.2-2.7,2.7-2.7h18.2c2.5,0,4.4,2,4.4,4.4v40.3
			c0,2.5-2,4.4-4.4,4.4L82.4,121.9z M64.2,74.7c-0.4,0-0.7,0.3-0.7,0.7v44c0,0.3,0.2,0.5,0.5,0.5h18.4c1.3,0,2.4-1.1,2.4-2.4V77.2
			c0-1.3-1.1-2.4-2.4-2.4H64.2V74.7z"/>
	</g>
	<path style="fill:#37474F;" d="M68.3,76.9h11.8c1.49,0,2.7,1.21,2.7,2.7v24.9c0,1.49-1.21,2.7-2.7,2.7H68.3
		c-1.49,0-2.7-1.21-2.7-2.7V79.6C65.6,78.11,66.81,76.9,68.3,76.9z"/>
	<path style="fill:#BAE2FD;" d="M69.4,79.5h9.7c1.1,0,2,0.9,2,2v21.1c0,1.1-0.9,2-2,2h-9.7c-1.1,0-2-0.9-2-2V81.5
		C67.4,80.4,68.3,79.5,69.4,79.5z"/>
	<g>
		<path style="fill:#F4511E;" d="M61,120.8H42.6c-1.9,0-3.4-1.5-3.4-3.4V77.1c0-1.9,1.5-3.4,3.4-3.4h18.2c0.9,0,1.7,0.8,1.7,1.7v44
			c0,0.8-0.7,1.5-1.5,1.5V120.8z"/>
		<path style="fill:#C62828;" d="M61,121.9H42.6c-2.5,0-4.4-2-4.4-4.4V77.2c0-2.5,2-4.4,4.4-4.4h18.2c1.5,0,2.7,1.2,2.7,2.7v44
			c0,1.4-1.1,2.5-2.5,2.5V121.9z M42.5,74.7c-1.3,0-2.4,1.1-2.4,2.4v40.3c0,1.3,1.1,2.4,2.4,2.4h18.4c0.3,0,0.5-0.2,0.5-0.5v-44
			c0-0.4-0.3-0.7-0.7-0.7H42.5V74.7z"/>
	</g>
	<path style="fill:#FAFAFA;" d="M15.9,68.6c2.2-2.2,5.1-2,6.9-2h16.4c0.9,0,1.4,1.1,0.7,1.8l-0.2,0.2c-1.5,1.5-3.5,2.3-5.6,2.3
		l-13.8-0.3c-0.6,0-6.7,0.3-4.5-1.9L15.9,68.6z"/>
	<path style="fill:#37474F;" d="M30.9,104.5V79.8c0-1.6-1.3-2.9-2.9-2.9H8.5l0.2,30.4H28c1.6,0,2.9-1.3,2.9-2.9V104.5z"/>
	<path style="fill:#BAE2FD;" d="M29.2,102.4V81.6c0-1.2-1-2.1-2.1-2.1H8.5l0.1,25.1H27c1.2,0,2.1-1,2.1-2.1L29.2,102.4z"/>
	<path style="fill:#37474F;" d="M56.5,107.2H44.7c-1.49,0-2.7-1.21-2.7-2.7V79.6c0-1.49,1.21-2.7,2.7-2.7h11.8
		c1.49,0,2.7,1.21,2.7,2.7v24.9C59.2,105.99,57.99,107.2,56.5,107.2z"/>
	<path style="fill:#BAE2FD;" d="M45.8,79.5h9.7c1.1,0,2,0.9,2,2v21.1c0,1.1-0.9,2-2,2h-9.7c-1.1,0-2-0.9-2-2V81.5
		C43.8,80.4,44.7,79.5,45.8,79.5z"/>
</g>
</svg>
