<?xml version="1.0" encoding="utf-8"?>
<!-- Generator: Adobe Illustrator 26.3.1, SVG Export Plug-In . SVG Version: 6.00 Build 0)  -->
<svg version="1.1" id="a" xmlns="http://www.w3.org/2000/svg" xmlns:xlink="http://www.w3.org/1999/xlink" x="0px" y="0px"
	 viewBox="0 0 128 128" style="enable-background:new 0 0 128 128;" xml:space="preserve">
<path style="fill:#DBA689;" d="M28.59,24.18l-6.13,1.31c0,0,0.38,0.66,0.68,1.31s0.78,1.17,0.55,2.3s11.41,8.28,11.41,8.28
	s1.4-0.06,2.21,0.22s2.15,1.18,2.15,1.18l2.88-6.69l1.11-11.28L28.59,24.18L28.59,24.18z"/>
<path style="fill:#AB872F;" d="M38.28,21.66l-4.49,2.35l2.1,3.04c0,0,0.09-1.23,0.69-2.1c0.48-0.71,1.35-1.09,2.32-0.94
	s1.31,1.06,1.34,1.77c0.08,1.87-0.97,2.72-0.97,2.72l-0.15,2.35c0,0,0.16,1.24,1.2,1.48c1.23,0.29,2.03-0.25,2.03-0.25l10.25-5.8
	c0,0,0.47-0.76-0.11-1.16s-1.55-0.13-2.21-0.54c-1.63-1.01-2.28-3.69-3.59-4.49s-8.4,1.56-8.4,1.56L38.28,21.66z"/>
<path style="fill:#C48E6A;" d="M61.49,58.25l-6.06-2.16c0,0-4.96,2.99-4.51,6.84c0.45,3.84,3.97,9.04,5.13,10.83
	s6.86,10.57,6.86,10.57l5.19-2.11l0.77-14.1L61.49,58.25L61.49,58.25z"/>
<path style="fill:#C48E6A;" d="M26.99,56.03c0,0,5.76-3.04,7.98-3.94c3.15-1.28,5.32-1.48,5.32-1.48l1.08,9.65
	C41.37,60.26,26.99,56.03,26.99,56.03z"/>
<path style="fill:#E0BB95;" d="M34.34,25.9c0,0-3.24,1.3-5.56,2.06c-1.18,0.39-5.09,1.13-5.09,1.13s-0.36,0.86-0.79,1.47
	c-0.48,0.68-0.88,0.97-0.93,1.61c-0.05,0.64,0.27,0.96,0.92,1.25s1.44,0.46,1.81,0.75s0.94,1.69,1.41,2.45s1.47,3.07,3.8,3.04
	s4.07-1.18,5.42-2.12s1.9-2.15,1.9-2.15v-4.42L34.34,25.9z"/>
<path style="fill:#858585;" d="M66.94,81.39l-4.35,2.71c0,0,0.9,1.52,1.21,2.04s1.14,2.15,1.14,2.15l1.17,2.26l-0.83,1.73l0.06,2.24
	l2.95,2.63l2.82-5.9l-4.17-9.85L66.94,81.39z"/>
<path style="fill:#F77300;" d="M67.33,88.05l-2.43,0.22c0,0,0.29,1.27,0.37,2.22s0,2.13,0,2.13l3.91-0.28L67.33,88.05L67.33,88.05z"
	/>
<path style="fill:#9A9A9A;" d="M106.6,102.68c0.96-2.54,0.91-6.21-2.57-7.7s-6.58,0.38-7.56,2.19c-0.98,1.82-1.5,6.31,2.04,8.16
	S105.55,105.48,106.6,102.68z"/>
<path style="fill:#606265;" d="M100.62,123.32c-12.85,0-23.31-10.44-23.31-23.28s10.46-23.27,23.31-23.27s23.31,10.44,23.31,23.27
	S113.47,123.32,100.62,123.32z M100.62,81.09c-10.47,0-18.99,8.5-18.99,18.95s8.52,18.95,18.99,18.95s18.99-8.5,18.99-18.95
	S111.09,81.09,100.62,81.09z"/>
<path style="fill:#606265;" d="M27.46,124.31c-12.9,0-23.4-10.51-23.4-23.43s10.5-23.43,23.4-23.43s23.4,10.51,23.4,23.43
	S40.36,124.31,27.46,124.31z M27.46,81.78c-10.51,0-19.06,8.57-19.06,19.1s8.55,19.1,19.06,19.1s19.06-8.57,19.06-19.1
	S37.97,81.78,27.46,81.78z"/>
<path style="fill:#9A9A9A;" d="M25.25,104.66c2.37,1.42,5.3,0.57,6.53-1.8s0.73-4.91-1.72-6.35s-5.04-0.37-6.23,1.71
	C22.75,100.09,22.74,103.15,25.25,104.66z"/>
<path style="fill:#B0B0B0;" d="M102.12,94.07c-1.23-1.89-16.08-23.31-16.08-23.31l3.69-10.32c0,0,3.5-1.14,3.5-3.41
	S88.31,54,88.31,54l-7.1,17.42c0,0-12.78-1.04-21.02-1.99s-13.63-1.42-14.68-1.8s-0.54-1.19-0.16-2.8s1.77-4.96,1.77-4.96
	l-4.45-1.61c0,0-15.24,37.49-15.81,39.01s-1.89,4.17,0,5.11c1.61,0.8,2.94-0.66,3.98-3.22c1.04-2.56,9.94-22.82,9.94-22.82
	l23.29,24.24l13.82,3.31c0,0,17.31-0.1,19.67-0.1s4.44-0.66,5.61-2.73c1.46-2.59,0.17-5.11-1.06-7L102.12,94.07z M66.72,94.62
	L44.94,71.61l33.04,3.03l-6.82,21.11l-4.45-1.14L66.72,94.62z M97.61,99.75c-1.04,0.09-19.53,0.17-19.53,0.17l-2.84-1.04
	c0,0,8.62-23.77,8.81-23.77c0,0,14.6,20.3,15.23,21.55c0.34,0.67,0.4,1.5,0.04,2.09S98.14,99.7,97.61,99.75z"/>
<path style="fill:#5F6366;" d="M34.34,56.57c0,0-2.42-0.97-5.81-1.01c-2.83-0.03-4.8,0.76-5.26,0.56c-0.96-0.43-2.68-1.52-3.74-1.82
	c-0.97-0.28-2.53,1.26-2.17,2.38c0.25,0.77,2.02,2.63,2.02,3.08s-2.58,6.17,0.35,10.92s10.82,4.6,11.52,4.55s1.68-1.53,1.87-2.53
	c0.2-1.06,0.2-2.17-0.3-2.48s-2.68,0.1-5.15-0.81c-1.8-0.66-1.92-1.62-1.92-1.62S34.34,56.57,34.34,56.57z"/>
<path style="fill:#5E6367;" d="M63.15,106.23c0,0-2.94-3.98-0.52-8.18c2.42-4.2,6.57-3.67,6.57-3.67l2.09,9.37
	C71.29,103.75,63.15,106.23,63.15,106.23z"/>
<path style="fill:#5E6367;" d="M68.75,113.24c0.54,0.5,7.81-0.73,8.09-1.56c0.26-0.74-0.03-2.92-0.54-3.24
	c-0.95-0.6-7.44,1.07-7.87,1.94C68.18,110.89,68.33,112.86,68.75,113.24z"/>
<path style="fill:#5E6268;" d="M47.49,40.49l2.77,7.34c0,0,3.48,0.82,6.14,1.63c2.66,0.82,6.31,2.06,6.25,2.44s-0.98,0.66-3.47,1.92
	c-1.61,0.81-3.89,2.26-3.89,2.26s4.04,5.12,6,7.67s5.44,6.2,5.44,6.2l18.65-25.23l-3.57-7.39l-2.62-1.8l-31.71,4.95L47.49,40.49z"/>
<path style="fill:#858585;" d="M41.47,31.79c-2.44,3.32-2.86,7.38-2.92,9.61s0.06,5.31,0.06,5.31l7.98,2.12l3.63-0.36
	c0,0,0.26-2.19,0.5-3.43S62.6,43.6,62.6,43.6l12.23,1.97c0,0,1.97-2.57,3.06-5.51c0.83-2.25,1.31-4.52,1.31-4.52
	s-5.71-4.67-12.63-6.75c-5.79-1.74-11.76-3.43-16.71-2.12C45.58,27.8,42.84,29.94,41.47,31.79L41.47,31.79z"/>
<path style="fill:#2F2F2F;" d="M32.92,24.38c0,0,0.93,1.67,1.62,3.05s2.23,4.02,2.23,4.02s-0.51,5.65-0.49,6.05
	c0.04,0.65,1.5,0.69,1.58,0.04c0.06-0.44,0.49-5.81,0.49-5.81s1.67-1.65,3.45-4.51c2.15-3.45,2.27-5.44,2.27-5.44l-1.54,0.49
	c0,0-1.18,3.05-2.11,4.59s-2.64,3.13-2.64,3.13s-0.9-1.79-1.65-3.28s-1.73-3.44-1.73-3.44l-1.49,1.12L32.92,24.38z"/>
<path style="fill:#B0B0B0;" d="M23.9,24.29l-3.24-1.54c0,0-1.69-3.08-0.48-7.3s4.88-9.31,11.99-11.08C41.4,2.06,49.59,6.4,49.59,6.4
	l-3.88,10.76L23.9,24.29L23.9,24.29z"/>
<path style="fill:#DFDFDF;" d="M23.07,23.09c0,0-1.43-2.73-0.6-6.15s3.34-7.4,8.09-9.26c9.64-3.77,15.21-0.33,15.47,0.19
	s-0.05,2.4,0.13,2.54c0.65,0.51,3.12,1.71,3.12,1.71l-0.04,1.43l-15.18,7.79l-11,1.74L23.07,23.09z"/>
<path style="fill:#5E6367;" d="M30.75,7.36c-1.78,0.83-3.77,2.39-2.86,3.53c0.84,1.05,1.96-0.71,3.87-1.56s3.66-1.22,3.32-2.31
	S32.01,6.77,30.75,7.36z"/>
<path style="fill:#5E6367;" d="M38.52,6.9c0.2,1.25,1.51,0.8,3.66,1.05c2.15,0.25,4.29,1.18,4.5,0.13s-2.52-1.93-3.99-2.14
	S38.32,5.6,38.52,6.9L38.52,6.9z"/>
<path style="fill:#5E6367;" d="M32.72,11.52c-2.86,1.43-6.22,4.92-5.21,6.01s4.04-1.85,7.48-3.32c4.12-1.77,7.73-1.47,7.69-2.98
	S37.01,9.38,32.72,11.52z"/>
<path style="fill:#5E6367;" d="M25.31,12.8c-1.17-0.38-2.33,1.62-2.95,3.58s-0.77,4.49,0.41,4.48s1.08-2.11,1.68-3.86
	S26.68,13.24,25.31,12.8z"/>
<g>
	<path style="fill:#E0E0E0;" d="M109.38,115.39c-0.27,0-0.54-0.14-0.69-0.39l-4.31-7.19c-0.23-0.38-0.1-0.87,0.28-1.1
		c0.38-0.23,0.87-0.1,1.1,0.28l4.31,7.19c0.23,0.38,0.1,0.87-0.28,1.1C109.66,115.36,109.52,115.39,109.38,115.39z"/>
	<path style="fill:#E0E0E0;" d="M114.95,110.76c-0.17,0-0.35-0.05-0.49-0.17l-7.04-5.46c-0.35-0.27-0.41-0.78-0.14-1.12
		c0.27-0.35,0.78-0.41,1.12-0.14l7.04,5.46c0.35,0.27,0.41,0.78,0.14,1.12C115.42,110.65,115.19,110.76,114.95,110.76z"/>
	<path style="fill:#E0E0E0;" d="M117.67,103.79c-0.07,0-0.14,0-0.22-0.03l-8.32-2.34c-0.43-0.12-0.67-0.56-0.55-0.99
		c0.12-0.43,0.56-0.68,0.99-0.55l8.32,2.34c0.43,0.12,0.67,0.56,0.55,0.99C118.34,103.56,118.02,103.79,117.67,103.79z"/>
	<path style="fill:#E0E0E0;" d="M94.54,98.81c-0.08,0-0.15-0.01-0.23-0.03L83.65,95.6c-0.42-0.13-0.67-0.57-0.54-1
		c0.13-0.42,0.57-0.66,1-0.54l10.66,3.18c0.42,0.13,0.67,0.57,0.54,1C95.21,98.59,94.89,98.81,94.54,98.81z"/>
	<path style="fill:#E0E0E0;" d="M96.05,96.02c-0.21,0-0.41-0.08-0.57-0.24l-7.54-7.89c-0.31-0.31-0.31-0.82,0-1.13s0.82-0.31,1.13,0
		l7.54,7.89c0.31,0.31,0.31,0.82,0,1.13C96.45,95.94,96.25,96.01,96.05,96.02L96.05,96.02z"/>
</g>
<g>
	<path style="fill:#E0E0E0;" d="M21.57,99.85c-0.12,0-0.25-0.03-0.37-0.09l-10.29-5.29c-0.39-0.2-0.55-0.69-0.35-1.08
		s0.69-0.55,1.08-0.35l10.29,5.29c0.39,0.2,0.55,0.69,0.35,1.08C22.14,99.69,21.86,99.85,21.57,99.85z"/>
	<path style="fill:#E0E0E0;" d="M23.46,97.36c-0.19,0-0.37-0.06-0.52-0.19l-8.77-7.56c-0.34-0.29-0.37-0.8-0.08-1.13
		c0.29-0.34,0.79-0.37,1.13-0.08l8.77,7.56c0.34,0.29,0.37,0.8,0.08,1.13C23.91,97.27,23.69,97.37,23.46,97.36L23.46,97.36z"/>
	<path style="fill:#E0E0E0;" d="M25.51,95.62c-0.27,0-0.54-0.14-0.69-0.4l-5.6-9.53c-0.22-0.38-0.1-0.87,0.28-1.1
		c0.38-0.23,0.87-0.1,1.1,0.28l5.6,9.53c0.22,0.38,0.1,0.87-0.28,1.1c-0.13,0.08-0.27,0.11-0.41,0.11V95.62z"/>
	<path style="fill:#E0E0E0;" d="M15.82,114.98c-0.18,0-0.37-0.06-0.52-0.19c-0.34-0.29-0.38-0.79-0.09-1.13l7.41-8.7
		c0.29-0.34,0.79-0.38,1.13-0.09c0.34,0.29,0.38,0.79,0.09,1.13l-7.41,8.7C16.27,114.89,16.05,114.98,15.82,114.98z"/>
	<path style="fill:#E0E0E0;" d="M37.83,115.96c-0.23,0-0.46-0.1-0.62-0.29l-7.11-8.62c-0.28-0.34-0.23-0.85,0.11-1.13
		s0.85-0.23,1.13,0.11l7.11,8.62c0.28,0.34,0.23,0.85-0.11,1.13C38.19,115.9,38.01,115.96,37.83,115.96z"/>
	<path style="fill:#E0E0E0;" d="M41.99,111.88c-0.17,0-0.34-0.05-0.49-0.17l-9.08-6.96c-0.35-0.27-0.42-0.77-0.15-1.12
		c0.27-0.35,0.77-0.42,1.12-0.15l9.08,6.96c0.35,0.27,0.42,0.77,0.15,1.12c-0.16,0.21-0.4,0.31-0.64,0.31L41.99,111.88z"/>
	<path style="fill:#E0E0E0;" d="M44.79,106.59c-0.1,0-0.2-0.02-0.3-0.06l-10.51-4.24c-0.41-0.17-0.61-0.63-0.44-1.04
		c0.17-0.41,0.63-0.61,1.04-0.44l10.51,4.24c0.41,0.17,0.61,0.63,0.44,1.04C45.4,106.4,45.1,106.59,44.79,106.59z"/>
</g>
<path style="fill:#C48E6A;" d="M72.83,89.44l3.94,6.82l1.5-3.6c0,0,0.55-5.23,0.42-7.81s-0.44-5.47-0.35-6.17s1.58-3.54,1.58-3.54
	l-3.59-3.55L72.83,89.44L72.83,89.44z"/>
<path style="fill:#C48E6A;" d="M27.66,61.99l-8.8-1.09c0,0-1.2,0.59-1.3,1.19s-0.61,2.35,0.32,5.21c0.3,0.93,1.08,2.55,1.55,2.75
	c1.98,0.81,6.41-0.85,6.73-1.21c0.53-0.6,0.86-1.42,0.86-1.42s13-2.9,16.21-3.89c3.2-0.99,4.02-2.09,4.61-3.13
	c0.84-1.48,1.11-4.44,1.11-4.44l-1.92-2.88l-19.36,8.9L27.66,61.99z"/>
<path style="fill:#E0BB95;" d="M79.13,69.55l-13.17,3.17c0,0-0.14,0.99-0.25,3.39c-0.17,3.63,0.55,7.71,0.87,10.01
	c0.39,2.75,1.44,8.21,1.44,8.21l4.69,1.32l3.32-2.19c0,0-0.09-6.17-0.31-9.79c-0.23-3.76-0.22-5.68,0.13-6.6
	c0.54-1.43,1.53-3.02,1.53-3.02S79.13,69.55,79.13,69.55z"/>
<path style="fill:#E0BB95;" d="M44.9,48.43l-6.25,1.97c0,0,0,1.95,0,2.42v1.44c0,0-2.45,1.01-4.7,1.9s-7.31,3.5-8.04,3.65
	c-0.53,0.11-1.05-0.78-1.75-0.85s-5.09,1.44-5.29,1.94s-0.42,2.78-0.18,3.66c0.34,1.22,1.05,2.71,1.97,3.13
	c0.46,0.21,2.56-0.34,2.87-0.57s1.75-1.75,1.98-1.94s7.69-1.75,13.64-3.61c4.08-1.28,6.16-2,7.58-2.91c1.2-0.78,1.9-1.67,2.22-2.68
	c0.2-0.64,0.66-4.35,0.66-4.35l-4.7-3.19L44.9,48.43z"/>
<path style="fill:#858585;" d="M70.87,100.72l-2.47-2.68l-0.39-3.72c0,0,1.37,0.27,3.95,0.03c3.12-0.29,6.3-1.69,6.3-1.69
	l-0.03,3.57l-7.37,4.49L70.87,100.72z"/>
<path style="fill:#858585;" d="M68.32,55.58c-0.25,0.37-1.12,7.17-1.5,9.6c-0.37,2.43-0.87,7.54-0.87,7.54s4.67,0.81,7.6,1.43
	s6.36,1,6.36,1s7.35-11.28,8.91-17.7s1.77-8.87-0.25-13.09c-1.61-3.36-6.78-7.06-6.78-7.06s-0.37,5.64-4.36,10.62
	C73.43,52.9,68.32,55.58,68.32,55.58z"/>
<g>
	<path style="fill:#F77300;" d="M72.8,104.26l-4.1-0.43l-0.1-2.46l-0.2-3.32c0,0,2.94,0.39,5.32-0.06s4.52-1.75,4.52-1.75v6.12
		l-5.44,1.91V104.26z"/>
	<path style="fill:#F77300;" d="M51.52,40.17c-0.21,0.14-0.81,4.89-0.81,4.89s5.65,0.91,10.23,2.24s8.42,3.75,8.72,3.75
		c0.95,0,5.29-5.15,5.18-5.48c-0.49-1.55-7.76-3.61-12.69-4.62C56.89,39.87,52,39.86,51.52,40.17L51.52,40.17z"/>
	<path style="fill:#F77300;" d="M76.34,49.2c0,0,1.6,2.01,1.17,5.85s-1.55,7.74-2.8,11.06s-2.57,7.76-2.57,7.76l2.88,0.57
		c0,0,3.01-8.78,4.11-12.56s1.67-9.44,1.19-11.98s-1.57-3.81-1.57-3.81s-1.03,1.51-1.32,1.84S76.34,49.21,76.34,49.2L76.34,49.2z"/>
	<path style="fill:#F77300;" d="M38.61,46.71v3.96c0,0,3.29-0.45,5.87-0.15s5.17,1.77,5.17,1.77l0.58-3.87c0,0-1.43-1.59-5.71-1.92
		c-3.99-0.31-5.91,0.22-5.91,0.22L38.61,46.71z"/>
</g>
<path style="fill:#868686;" d="M71.36,104.51l-10.38,5.3c0,0,0.06,0.92,0.95,1.33s1.71,0.35,2.82,0.06s5.71-1.4,7.65-1.9
	s3.26-1,4.22-1.43c0.86-0.38,1.47-1.22,1.62-1.9c0.13-0.6,0.13-1.3,0.13-1.3S71.36,104.51,71.36,104.51z"/>
<path style="fill:#E0E0E0;" d="M68.6,101.37c-0.29-0.1-4.06,3.3-5.01,4.06s-1.96,1.55-2.41,2.29c-0.6,0.98-0.19,2.09-0.19,2.09
	s2.02,0.1,8.32-1.81c7.97-2.41,9.08-3.33,9.08-3.33s-0.03-2.13-0.13-2.32s-1.81,0.89-5.43,0.48c-2.66-0.3-4.22-1.46-4.22-1.46H68.6z
	"/>
<path style="fill:#2F2F2F;" d="M20.66,22.74c0,0,8.99-1.22,15.55-4.03s12.77-6.33,12.77-6.54s-2.86-1.36-2.86-1.82
	s3.03-3.99,3.45-3.95s1.18,0.59,1.09,0.97s-1.81,2.44-1.81,2.44s2.05,1.58,2.14,1.99c0.19,0.91-3.02,4.02-2.98,4.78
	s0.81,2.65,0.63,3.53c-0.19,0.93-5.58,2.38-12.65,4.03C28.86,25.8,22,25.59,22,25.59s-0.43-0.48-0.8-1.27
	c-0.35-0.75-0.55-1.57-0.55-1.57L20.66,22.74z"/>
<path style="fill:#785446;" d="M25.6,35.76c0,0,1.13-0.63,1.84-1.13s1.39-1.01,1.86-0.45s-0.38,1.68-1.04,2.2s-1.45,1.07-1.7,0.98
	C25.77,37.06,25.59,35.77,25.6,35.76L25.6,35.76z"/>
<path style="fill:#3F4040;" d="M27.7,26.23c-0.78,0.42-0.6,1.5-0.21,2.22c0.42,0.78,1.09,1.18,1.79,0.85
	c0.78-0.37,0.54-1.6,0.17-2.27S28.36,25.87,27.7,26.23z"/>
</svg>
