<?xml version="1.0" encoding="utf-8"?>
<!-- Generator: Adobe Illustrator 26.3.1, SVG Export Plug-In . SVG Version: 6.00 Build 0)  -->
<svg version="1.1" id="a" xmlns="http://www.w3.org/2000/svg" xmlns:xlink="http://www.w3.org/1999/xlink" x="0px" y="0px"
	 viewBox="0 0 128 128" style="enable-background:new 0 0 128 128;" xml:space="preserve">
<path style="fill:#C0C0C0;" d="M123.96,22.25v93.12c0,1.93-0.64,3.72-1.71,5.16c-1.57,2.11-4.09,3.47-6.92,3.47H12.67
	c-3.15,0-5.9-1.69-7.41-4.2c-0.77-1.29-1.22-2.81-1.22-4.42V55.63l12.12-4.69l5.64-8.84c0,0,3.19-0.15,7.2,0.97
	s12.18,4.75,13.15,5.12s19.09,2.75,19.09,2.75l24.52-9.72l12.47-30.75c0,0,1.56-0.86,4.51-0.37s6.93,2.99,6.93,2.99
	s4.91,1.99,8.54,4.48c4.28,2.93,5.76,4.69,5.76,4.69L123.96,22.25z"/>
<path style="fill:#DCDCDC;" d="M98.23,10.46c0,0,9.12,19.99,9.66,22.58s1.09,5.18,1.5,6.41s4.91,15.4,4.36,16.36
	s-9.13,2.18-10.77,3.14s-8.86,12.95-9.81,14.04s-4.77,6.54-4.77,6.54L77.36,81.3L62.77,66.85l-1.53-15.91c0,0,5.35-3.72,7.8-5.63
	s9.41-19.36,11.18-21.4S89.76,14.64,92.35,13S98.23,10.46,98.23,10.46z"/>
<path style="fill:#DCDCDC;" d="M4.04,115.37V55.62c0,0,6.52-6.23,8.7-8.28s5.32-5.18,6.54-5.18s2.51-0.07,2.51-0.07
	s2.8,11.93,3.89,16.02s2.86,7.63,2.86,7.63s0,1.64,0.55,2.45s17.45,25.63,17.45,25.63s-12.68,7.77-14.72,8.72
	s-14.04,7.77-16.49,7.91s-9.91,1.78-11.29,4.91V115.37z"/>
<path style="fill:#899394;" d="M122.25,120.53c-1.57,2.11-4.09,3.47-6.92,3.47H12.67c-3.15,0-5.9-1.69-7.41-4.2
	c0,0,13.35,0.11,16.94-0.05s13.48,0.48,17,0.4s19.23-0.72,22.18-0.96s3.51-0.16,5.03-0.4c1.52-0.24,6.86-3.19,8.94-3.27
	s14.44,1.2,22.02,1.91c7.58,0.72,16.04,1.76,17.87,1.84c1.84,0.08,3.67-0.19,4.23-0.19s2.78,1.46,2.78,1.46L122.25,120.53z"/>
<path style="fill:#5F6467;" d="M68.2,93.29c0,0,0.52,0.98-0.23,1.49s-2.12,1.32-2.12,1.32l-3.91,2.58c0,0-1.49,0.54-0.63,2.41
	c0.63,1.38,4.82,0.57,5.92,0.46s4.42-0.8,4.42-0.8l5.57-0.92l2.07-13.04l-10.45,0.92l-0.63,5.57L68.2,93.29z"/>
<path style="fill:#858585;" d="M98.22,117.36c-11.09,0-20.11-9.26-20.11-20.63S87.13,76.1,98.22,76.1s20.11,9.25,20.11,20.63
	S109.31,117.36,98.22,117.36z M98.22,79.93c-9.03,0-16.14,7.29-16.14,16.56s7.11,17.04,16.14,17.04s16.38-7.54,16.38-16.8
	S107.25,79.93,98.22,79.93z"/>
<path style="fill:#464C4F;" d="M98.33,119.04c-12.21,0-22.14-10-22.14-22.29s8.89-22.3,22.14-22.29c12.21,0,22.14,10,22.14,22.29
	S110.54,119.04,98.33,119.04z M98.21,77.85c-10.54,0-18.33,7.4-18.33,18.02s7.79,19.87,18.33,19.87s18.71-8.27,18.71-18.89
	s-8.17-18.99-18.71-18.99V77.85z"/>
<path style="fill:#9E9FA1;" d="M98.26,90.39c4.04-0.15,6.06,3.06,5.97,6.16c-0.09,2.81-2.32,5.85-5.72,5.77
	c-4.24-0.1-6.26-3.94-5.92-6.51C92.94,93.25,94.16,90.54,98.26,90.39z"/>
<polygon style="fill:#454B4E;" points="83.17,96.16 77.6,96.6 77.65,99.81 82.04,100.79 "/>
<path style="fill:#5E6367;" d="M91.21,99.02l3.9-0.25c0,0,1.23,1.38,3.55,1.33c1.82-0.04,3.65-1.92,3.6-4.19s-1.87-3.6-3.94-3.65
	s-3.16,1.38-3.16,1.38l-3.2-1.08l-2.02,5.77l1.28,0.69L91.21,99.02z"/>
<polygon style="fill:#F0A007;" points="70.93,80.53 63.61,79.44 67.62,91.62 74.37,89.07 73.52,82.88 "/>
<path style="fill:#5F6467;" d="M69.01,63.71l-4.34,0.52c0,0-3.03,3.64-3.07,7.32s1.74,6.63,1.74,6.63l8.9,0.4l-0.77-11.73
	l-2.45-3.15L69.01,63.71z"/>
<path style="fill:#F1A106;" d="M44.16,53.1l-8.87,2.97l-1.79,4.66c0,0,1.08,1.9,1.64,2.05s3.38-1.44,3.38-1.44l5.95-2.31l5.38-5.74
	l-1.79-2.51L44.16,53.1L44.16,53.1z"/>
<path style="fill:#FFCA26;" d="M48.31,49.87l-5.02-1.23c0,0-4,4.77-4.41,5.02s-3.18,0.41-3.69,1.03s-2.15,4.61-2.15,5.02
	s0.46,1.03,0.46,1.03s3.23-4,4-4.46c0.38-0.23,1.72-0.2,3.13,0.21s3.15,0.85,3.38,0.72c0.46-0.26,4.82-5.07,4.82-5.07l-0.51-2.26
	L48.31,49.87z"/>
<path style="fill:#2F2F2F;" d="M47.18,44.08c0,0-3.9,4.25-3.9,4.56s5.95,5.07,6.31,5.18s4.46-4.41,4.46-4.41L47.18,44.08z"/>
<path style="fill:#464C4F;" d="M37.24,68.02c0,0-2.31-2.05-1.54-5.38s3.62-4.24,5.59-4.15c2.26,0.1,4.77,0.46,4.51,2.92
	s-2.1,1.64-2.46,1.64s-2.06-0.37-2.51,1.64c-0.51,2.26,2.99,3.93,2.99,3.93l-5.15,2.63L37.24,68.02L37.24,68.02z"/>
<path style="fill:#858585;" d="M29.39,120.32c-11.09,0-20.11-9.08-20.11-20.23s9.02-20.23,20.11-20.23s20.11,9.07,20.11,20.23
	S40.48,120.32,29.39,120.32z M29.39,83.62c-9.03,0-16.14,7.15-16.14,16.23s7.11,16.71,16.14,16.71s16.38-7.39,16.38-16.47
	S38.42,83.62,29.39,83.62z"/>
<path style="fill:#464C4F;" d="M29.5,121.98c-12.21,0-22.14-9.81-22.14-21.86s8.89-21.86,22.14-21.86
	c12.21,0,22.14,9.81,22.14,21.86S41.71,121.98,29.5,121.98z M29.38,81.59c-10.54,0-18.33,7.25-18.33,17.66s7.79,19.48,18.33,19.48
	s18.71-8.11,18.71-18.52S39.92,81.59,29.38,81.59z"/>
<path style="fill:#464C4F;" d="M28.98,98.96c0,0-0.72,1.97,0.65,2.47c1.47,0.54,2.2-1.52,2.2-1.52l8.25-24.35c0,0,0.8,0.41,1.1,0.76
	s20.57,21.91,21.4,22.57s1.6,0.95,3.44,0.95s5.76-0.3,5.76-0.3l4.16-12.29l3.16,1.3l2.04-7.24L46.42,68.97l-2.6-0.36l1.37,4.57
	c0,0,26.13,9.6,26.63,9.83s0.85,0.73,0.56,1.47S68.26,95.6,68.26,95.6l-4.12-0.06L41.78,71.37l-4.91,1.58l-7.9,26L28.98,98.96z"/>
<path style="fill:#858585;" d="M74.61,93.96c-2.45-0.28-5.58,0.97-5.64,4.97c-0.04,3.22,2.37,4.92,5.1,4.92c3.09,0,5-1.48,5.06-5.19
	C79.17,95.93,76.98,94.23,74.61,93.96z"/>
<path style="fill:#474D51;" d="M84.07,101.08c-0.13,0.42,1.12,2.2,1.49,2.24s6.61-3.82,6.68-4.21s-0.82-2.38-1.3-2.38
	S84.24,100.55,84.07,101.08L84.07,101.08z"/>
<path style="fill:#F0A007;" d="M77.08,76.5l5.5-1.91c0,0,1.97,3.32,2.94,5.11c0.97,1.78,3.42,6.25,3.42,6.25l-1.82,2.9L77.08,76.5z"
	/>
<path style="fill:#FFCA26;" d="M73.33,76.46l-0.47,3.79l8.01,11.23l6.17-3.83c0,0-3.2-5.32-4.16-6.99s-3.27-5.5-3.27-5.5
	S73.33,76.46,73.33,76.46z"/>
<polygon style="fill:#5E6367;" points="80.88,91.48 88.95,85.94 90.81,89.15 92.35,91.8 83.11,94.38 "/>
<path style="fill:#2F2F2F;" d="M83.25,64.6l-14.71-1.07l0.74,4.19c0,0-1.54,2-1.21,3.8s1.33,4.06,2.4,5.59s1.86,3.13,2.4,3.13
	s4.59-2.73,6.06-3.66s3.6-1.71,3.66-2s-0.67-1.67-0.67-2.01s1.8-2.65,1.8-2.65l-0.47-5.33L83.25,64.6z"/>
<path style="fill:#DE4E00;" d="M73.52,51c0,0-3.78,5.36-5.62,7.91s-4.09,5.33-4,5.68s3.12,1.96,4,2.49s1.38,0.65,1.38,0.65
	l1.47-2.35l8.14-1.29l1.67,6.06c0,0,2.28,1.14,3.6,1.41s2.37-0.44,3.16-1.67s8.26-13.44,10.02-18.98c1.19-3.76,1.32-5.62,0.79-7.56
	c-0.53-1.93-1.34-3.01-1.34-3.01l-13.42-0.95l-9.84,11.6L73.52,51z"/>
<path style="fill:#5E6367;" d="M59.44,45.58c0,0,4.84,1.63,8.99,3.31S77,52.78,77,52.78s4.26-4.84,4.68-5.31
	S64.59,35.43,64.59,35.43S59.44,45.58,59.44,45.58z"/>
<path style="fill:#F77300;" d="M64.12,39.48c0,0,2.58,0.26,6.26,1.89s6.63,3,8.36,4.1s2.94,2,2.94,2s2.96-3.48,3.45-3.95
	s-1.3-5.62-1.3-5.62l-15.78-5.1l-3.94,6.68H64.12z"/>
<path style="fill:#F09E00;" d="M44.55,19.94l-4.62,1.56c0,0-0.05,0.73,0.18,1.53c0.17,0.59,0.51,1.34,0.32,2.31s9.82,7.13,9.82,7.13
	s1.2-0.05,1.9,0.19S54,33.68,54,33.68l4.19-5.73l-0.75-9.73L44.55,19.94L44.55,19.94z"/>
<path style="fill:#FFCA26;" d="M49.67,22.81c0,0-2.87,0.89-4.87,1.55c-1.01,0.34-4.38,0.97-4.38,0.97s-0.31,0.74-0.68,1.27
	c-0.42,0.58-0.76,0.83-0.8,1.39s0.23,0.82,0.79,1.07s1.24,0.39,1.55,0.64s0.81,1.45,1.21,2.11s1.26,2.64,3.27,2.62
	c2.05-0.02,3.5-1.01,4.66-1.83s1.63-1.85,1.63-1.85v-3.81l-2.41-4.14L49.67,22.81z"/>
<path style="fill:#62453B;" d="M52.97,18.94l-4.32,0.83l2.26,3.81c0,0,0.08-1.05,0.59-1.81c0.42-0.61,1.16-0.93,1.99-0.81
	s1.13,0.91,1.15,1.53c0.07,1.61-0.83,2.34-0.83,2.34l-0.13,2.02c0,0,0.14,1.07,1.03,1.28c1.06,0.25,1.75-0.22,1.75-0.22l8.77-4.06
	c0,0,1.21-1.05-0.04-1.92c-0.5-0.34-1.38-0.23-1.95-0.58c-1.4-0.87-1.91-3.07-3.04-3.75S52.97,18.94,52.97,18.94z"/>
<path style="fill:#2F2F2F;" d="M48.07,20.52c0,0,1.09,2.19,1.68,3.38s1.92,3.46,1.92,3.46s-0.44,4.86-0.42,5.21
	c0.03,0.56,1.29,0.59,1.36,0.03c0.05-0.38,0.42-5,0.42-5s1.44-1.42,2.97-3.88c1.85-2.97,2.46-4.68,2.46-4.68l-1.84,0.42
	c0,0-1.23,2.59-2.03,3.92s-2.06,2.72-2.06,2.72s-0.77-1.54-1.42-2.82s-1.49-2.96-1.49-2.96l-1.57,0.2L48.07,20.52z"/>
<path style="fill:#563C31;" d="M42.06,31.08c0,0,0.98-0.55,1.59-0.97s1.2-0.87,1.6-0.39s-0.32,1.44-0.89,1.89
	c-0.57,0.45-1.27,0.97-1.46,0.84C42.2,31.98,42.06,31.08,42.06,31.08z"/>
<path style="fill:#2F2F2F;" d="M36.03,18.58c0,0,0.51,1.88,1.42,2.84s3.76,0.81,3.76,0.81l5.94-1.17c0,0,4.57-0.46,6.75-0.46
	s7.92,0.61,8.48,0.3s1.32-1.57,1.32-2.29v-1.68l-2.95-5.38l-4.42-5.74l-11.68,0.2c0,0-0.87,0.49-1.98,1.27
	c-1.02,0.71-1.42,1.32-1.42,1.32l-5.23,9.95L36.03,18.58z"/>
<path style="fill:#5F6467;" d="M48.93,9.84l2.69,3.96l-2.03,1.07c0,0,1.02,1.93,1.32,1.98s8.48-4.32,8.48-4.32s1.02,1.17,2.18,2.49
	c1.08,1.22,2.13,1.93,2.13,1.93s-0.5-4.74-2.34-7.26c-1.88-2.59-3.3-3.45-3.3-3.45l-1.73-0.41l-0.15,0.61c0,0,2.29,3.5,2.18,3.76
	c-0.05,0.13-1.18,0.71-2.34,1.27c-1.07,0.52-2.16,1.04-2.34,1.02c-0.36-0.05-2.74-4.11-2.74-4.11l-2.03,1.47L48.93,9.84z"/>
<path style="fill:#5F6467;" d="M38.57,12.89l-8.02,5.43c0,0,0.25,0.48,0.81,0.51c1.88,0.1,4.47,0.03,8.58-0.05
	c8.23-0.15,8.84-0.05,8.89-0.46s-4.67-6.5-4.67-6.5S38.57,12.89,38.57,12.89z"/>
<path style="fill:#626667;" d="M39.69,22.49c-0.05,0.61-0.02,1.98,0.66,3.05c0.1,0.16,0.59,0,1.07,0.46
	c1.56,1.49,2.44,1.78,3.15,1.68s1.98-1.37,2.89-2.74s0.86-2.34,0.46-3.1s-0.96-1.02-2.39-0.91S39.76,21.67,39.69,22.49L39.69,22.49z
	"/>
<path style="fill:#9E9FA1;" d="M26.94,104.97c3.18,2.23,6.71,0.99,8.19-1.81c1.48-2.8,0.51-6.12-2.42-7.82s-6.04-0.44-7.47,2.02
	C23.95,99.57,24.08,102.96,26.94,104.97z"/>
<path style="fill:#9FA0A2;" d="M25.29,99.57c-0.11,0-0.23-0.03-0.33-0.08l-9.82-5.06c-0.36-0.18-0.5-0.62-0.31-0.98
	c0.18-0.35,0.62-0.5,0.98-0.31l9.82,5.06c0.36,0.18,0.5,0.62,0.31,0.98c-0.13,0.25-0.38,0.39-0.64,0.39H25.29z"/>
<path style="fill:#9FA0A2;" d="M25.97,97.32c-0.18,0-0.35-0.06-0.49-0.2l-7.41-6.92c-0.29-0.27-0.31-0.73-0.03-1.02
	c0.27-0.29,0.73-0.31,1.02-0.04l7.41,6.92c0.29,0.27,0.31,0.73,0.03,1.02C26.36,97.23,26.16,97.31,25.97,97.32L25.97,97.32z"/>
<path style="fill:#9FA0A2;" d="M27.82,95.89c-0.26,0-0.5-0.14-0.64-0.38l-5.04-9.23c-0.19-0.35-0.06-0.79,0.29-0.98
	s0.79-0.06,0.98,0.29l5.04,9.23c0.19,0.35,0.06,0.79-0.29,0.98c-0.11,0.06-0.23,0.09-0.35,0.09L27.82,95.89z"/>
<path style="fill:#9FA0A2;" d="M19,111.77c-0.19,0-0.37-0.07-0.51-0.21c-0.28-0.28-0.28-0.74,0-1.02l7.09-7.1
	c0.28-0.28,0.74-0.28,1.02,0s0.28,0.74,0,1.02l-7.09,7.1C19.37,111.7,19.18,111.77,19,111.77z"/>
<path style="fill:#9FA0A2;" d="M38.25,113.22c-0.22,0-0.44-0.1-0.58-0.29l-5.75-7.82c-0.24-0.32-0.17-0.78,0.15-1.01
	c0.32-0.24,0.78-0.17,1.01,0.15l5.75,7.82c0.24,0.32,0.17,0.78-0.15,1.01C38.55,113.18,38.4,113.22,38.25,113.22z"/>
<path style="fill:#9FA0A2;" d="M42.16,109c-0.14,0-0.29-0.04-0.41-0.13l-7.38-5.09c-0.33-0.23-0.41-0.68-0.19-1.01
	c0.23-0.33,0.68-0.41,1.01-0.19l7.38,5.09c0.33,0.23,0.41,0.68,0.19,1.01c-0.14,0.2-0.37,0.31-0.6,0.31V109z"/>
<path style="fill:#9FA0A2;" d="M44.54,102.62c0,0-0.07,0-0.1,0l-9.86-1.41c-0.4-0.06-0.67-0.42-0.61-0.82
	c0.06-0.39,0.42-0.67,0.82-0.61l9.86,1.41c0.4,0.06,0.67,0.42,0.61,0.82c-0.05,0.36-0.36,0.62-0.72,0.62V102.62z"/>
<path style="fill:#5E6367;" d="M32.36,84.78c-0.56,0.13-4.52,12.93-4.33,13.74s4.46,2.26,4.89,1.95s4.46-13.41,4.46-13.81
	C37.38,85.91,33.68,84.46,32.36,84.78z"/>
<path style="fill:#E0E0E0;" d="M41.21,22.94c0,0.69,0.71,1.83,1.37,2.44s1.37,1.02,1.93,0.71c0.36-0.2,1.53-1.41,1.93-2.44
	c0.21-0.55,0.08-1.15-0.1-1.47c-0.16-0.28-1.28-0.2-2.44,0c-1.32,0.22-2.69,0.6-2.69,0.77L41.21,22.94z"/>
<path style="fill:#858585;" d="M30.55,18.32c-0.38-0.88,2.48-3.54,6.86-6.86c2.74-2.08,3.86-2.84,3.86-2.84s2.49-0.25,2.79,0
	s2.08,2.59,2.08,2.84s-4.98,3.1-8.12,4.42s-7.16,3.15-7.46,2.44H30.55z"/>
<path style="fill:#858585;" d="M44.67,6.03l3.45,4.67c0,0,3.76-1.93,5.99-2.89s3.96-1.57,3.96-1.57s-1.57-2.17-6.5-2.23
	C47.46,3.96,44.66,6.04,44.67,6.03L44.67,6.03z"/>
<path style="fill:#858585;" d="M46.6,44.27c-0.25-0.58,6.45-9.12,7-10.7s2.95-5.92,4.22-7.19s3.18-2.51,6.03-2.3
	s9.85,3.15,13.24,4.53c3.39,1.38,13.34,6.03,16.2,8.15s3.49,3.6,3.49,3.6s-5.29,0.12-7.2,0.64c-2.75,0.74-4.45,2.54-4.45,2.54
	s-1.25-1.36-3.6-2.65c-4.92-2.68-11.42-5.76-11.9-5.76s-5.52,5.18-6.57,6.34s-7.2,9.47-7.94,9.57S46.9,44.99,46.6,44.27L46.6,44.27z
	"/>
<path style="fill:#F77300;" d="M70.74,65.38c0,0,6.76-11.49,7.17-11.95s5.8-6.15,6.81-6.81s5.53-1.89,6.26-1.68s0.81,4.17,0.1,6.1
	S80.45,70.06,80.45,70.06s-4.32-1.58-6.76-3C72.43,66.33,70.74,65.38,70.74,65.38z"/>
<path style="fill:#2F2F2F;" d="M82.74,94.49c0.05-0.68,3.35-1.38,5.43-2c2.36-0.71,4.13-0.82,4.13-0.82s1.56,2.38,1.41,3.16
	s-3.79,2.97-5.88,4.46s-7.1,4.12-8.74,4.39c-1.12,0.19-1.38-1.56-0.45-2.94s3.64-4.46,4.02-4.91S82.7,94.97,82.74,94.49L82.74,94.49
	z"/>
<path style="fill:#858585;" d="M72.77,85.8c-0.05-0.29-2.62-1.28-3.31-1.24s-3.14,7.55-3,8.14s2.86,1.45,3.31,1.24
	S72.84,86.18,72.77,85.8z"/>
<path style="fill:#5E6367;" d="M37.14,67.52c-0.44,0.19-1.03,0.89-1.42,2.85c-0.33,1.64,0.51,2.61,0.68,2.75s4.37,0.88,5.05,0.98
	s20.17,21.46,20.48,21.52s4.81,0.19,4.91-0.03S46.12,73.17,45.9,72.88c-0.34-0.44-0.4-0.93-0.09-1.34s1.06-0.22,1.6-0.07
	s6.98,2.23,7.55,2.41c1.79,0.56,4.29,1.31,4.46,0.77c0.42-1.31-5.53-3.04-5.53-3.04s-7.28-2.59-9.41-3.33s-6.25-1.22-7.35-0.75
	L37.14,67.52z"/>
<path style="fill:#9FA0A2;" d="M102.24,112.08c-0.33,0-0.62-0.22-0.7-0.55l-1.9-7.78c-0.1-0.39,0.14-0.78,0.53-0.88
	c0.39-0.09,0.78,0.14,0.88,0.53l1.9,7.78c0.1,0.39-0.14,0.78-0.53,0.88c-0.06,0.01-0.12,0.02-0.17,0.02L102.24,112.08z"/>
<path style="fill:#9FA0A2;" d="M108.12,108.47c-0.21,0-0.42-0.09-0.56-0.26l-4.78-5.82c-0.25-0.31-0.21-0.77,0.1-1.02
	s0.77-0.21,1.02,0.1l4.78,5.82c0.25,0.31,0.21,0.77-0.1,1.02C108.44,108.42,108.28,108.47,108.12,108.47z"/>
<path style="fill:#9FA0A2;" d="M111.97,103.48c-0.12,0-0.23-0.03-0.34-0.09l-6.17-3.35c-0.35-0.19-0.48-0.63-0.29-0.98
	c0.19-0.35,0.63-0.48,0.98-0.29l6.17,3.35c0.35,0.19,0.48,0.63,0.29,0.98C112.48,103.34,112.23,103.48,111.97,103.48z"/>
<path style="fill:#9FA0A2;" d="M95.27,90.69c-0.25,0-0.5-0.13-0.63-0.37l-4.18-7.46c-0.2-0.35-0.07-0.79,0.28-0.99
	s0.79-0.07,0.99,0.28l4.18,7.46c0.2,0.35,0.07,0.79-0.28,0.99c-0.11,0.06-0.23,0.09-0.35,0.09L95.27,90.69z"/>
</svg>
