<?xml version="1.0" encoding="utf-8"?>
<!-- Generator: Adobe Illustrator 26.3.1, SVG Export Plug-In . SVG Version: 6.00 Build 0)  -->
<svg version="1.1" id="a" xmlns="http://www.w3.org/2000/svg" xmlns:xlink="http://www.w3.org/1999/xlink" x="0px" y="0px"
	 viewBox="0 0 128 128" style="enable-background:new 0 0 128 128;" xml:space="preserve">
<path style="fill:#DBA689;" d="M28.68,24.28l-6.12,1.3c0,0,0.38,0.66,0.68,1.3s0.78,1.17,0.55,2.29s11.39,8.26,11.39,8.26
	s1.39-0.06,2.2,0.22s2.14,1.18,2.14,1.18l2.87-6.67l1.11-11.25l-14.83,3.35L28.68,24.28z"/>
<path style="fill:#AB872F;" d="M38.34,21.76l-4.48,2.35l2.1,3.04c0,0,0.09-1.22,0.69-2.1c0.48-0.71,1.35-1.08,2.31-0.94
	s1.31,1.06,1.34,1.77c0.08,1.86-0.97,2.72-0.97,2.72l-0.15,2.34c0,0,0.16,1.24,1.19,1.48c1.23,0.29,2.02-0.25,2.02-0.25l4.05-3.33
	c0,0,2.38-6.99,0.29-8.63C45.53,19.27,38.35,21.76,38.34,21.76L38.34,21.76z"/>
<path style="fill:#C48E6A;" d="M61.5,58.26l-6.04-2.15c0,0-4.95,2.99-4.5,6.82c0.45,3.84,3.96,9.01,5.11,10.8s6.84,10.55,6.84,10.55
	l5.18-2.11l0.77-14.06l-7.35-9.84L61.5,58.26z"/>
<path style="fill:#C48E6A;" d="M27.07,56.05c0,0,5.74-3.03,7.96-3.93c3.14-1.28,5.31-1.47,5.31-1.47l1.08,9.63l-14.34-4.22
	L27.07,56.05z"/>
<path style="fill:#E0BB95;" d="M34.41,25.99c0,0-3.23,1.29-5.55,2.06c-1.17,0.39-5.08,1.13-5.08,1.13s-0.36,0.86-0.79,1.47
	c-0.48,0.68-0.88,0.97-0.92,1.61c-0.04,0.64,0.27,0.95,0.92,1.24s1.44,0.46,1.8,0.75s0.94,1.68,1.41,2.44s1.46,3.06,3.79,3.04
	c2.38-0.03,4.06-1.17,5.41-2.12s1.89-2.14,1.89-2.14v-4.41L34.41,26L34.41,25.99z"/>
<path style="fill:#858585;" d="M66.93,81.35l-4.34,2.71c0,0,0.9,1.52,1.21,2.03c0.31,0.51,1.13,2.14,1.13,2.14l1.17,2.25l-0.83,1.73
	l0.06,2.24l2.94,2.62l2.81-5.88l-4.16-9.83L66.93,81.35z"/>
<path style="fill:#00BDA3;" d="M67.32,87.99l-2.42,0.22c0,0,0.29,1.27,0.37,2.21s0,2.13,0,2.13l3.91-0.28l-1.85-4.28H67.32z"/>
<path style="fill:#9A9A9A;" d="M106.5,102.59c0.96-2.53,0.9-6.2-2.56-7.69s-6.56,0.38-7.55,2.19c-0.98,1.81-1.5,6.3,2.03,8.14
	s7.02,0.15,8.08-2.65V102.59z"/>
<path style="fill:#606265;" d="M100.54,123.18c-12.82,0-23.26-10.42-23.26-23.22s10.43-23.22,23.26-23.22s23.26,10.42,23.26,23.22
	S113.37,123.18,100.54,123.18z M100.54,81.05c-10.44,0-18.94,8.48-18.94,18.9s8.5,18.91,18.94,18.91s18.94-8.48,18.94-18.91
	S110.98,81.05,100.54,81.05z"/>
<path style="fill:#606265;" d="M27.55,124.17c-12.87,0-23.34-10.49-23.34-23.38s10.47-23.38,23.34-23.38s23.34,10.49,23.34,23.38
	S40.42,124.17,27.55,124.17z M27.55,81.74c-10.49,0-19.02,8.55-19.02,19.05s8.53,19.05,19.02,19.05s19.02-8.55,19.02-19.05
	S38.04,81.74,27.55,81.74z"/>
<path style="fill:#9A9A9A;" d="M25.34,104.56c2.36,1.42,5.29,0.57,6.52-1.79s0.72-4.9-1.72-6.33s-5.03-0.37-6.22,1.7
	C22.85,100.01,22.84,103.06,25.34,104.56z"/>
<path style="fill:#B0B0B0;" d="M102.03,94c-1.23-1.89-16.04-23.26-16.04-23.26l3.68-10.3c0,0,3.5-1.13,3.5-3.4s-4.91-3.02-4.91-3.02
	L81.18,71.4c0,0-12.75-1.04-20.97-1.98S46.61,68,45.57,67.63s-0.54-1.19-0.16-2.8s1.77-4.95,1.77-4.95l-4.44-1.61
	c0,0-15.21,37.41-15.77,38.92s-1.89,4.16,0,5.1c1.6,0.8,2.93-0.66,3.97-3.21c1.04-2.55,9.92-22.76,9.92-22.76L64.1,100.5l13.79,3.31
	c0,0,17.26-0.1,19.63-0.1s4.43-0.66,5.6-2.72c1.46-2.58,0.17-5.1-1.05-6.98L102.03,94z M66.72,94.55L44.99,71.6l32.97,3.02
	l-6.8,21.06L66.72,94.55z M97.53,99.67c-1.04,0.09-19.48,0.17-19.48,0.17l-2.83-1.04c0,0,8.6-23.71,8.78-23.71
	c0,0,14.57,20.25,15.19,21.5c0.34,0.67,0.4,1.5,0.04,2.08S98.05,99.62,97.53,99.67L97.53,99.67z"/>
<path style="fill:#5F6366;" d="M34.41,56.58c0,0-2.41-0.97-5.8-1.01c-2.82-0.03-4.79,0.76-5.24,0.55c-0.96-0.43-2.67-1.51-3.73-1.82
	c-0.97-0.28-2.52,1.26-2.17,2.37c0.25,0.77,2.02,2.62,2.02,3.08s-2.57,6.15,0.35,10.89s10.79,4.59,11.5,4.54s1.68-1.53,1.87-2.52
	c0.2-1.06,0.2-2.17-0.3-2.47s-2.67,0.1-5.14-0.81c-1.8-0.66-1.92-1.61-1.92-1.61l8.57-11.19L34.41,56.58z"/>
<path style="fill:#5E6367;" d="M63.15,106.13c0,0-2.94-3.97-0.52-8.16c2.42-4.19,6.55-3.66,6.55-3.66l2.09,9.35l-8.12,2.48
	L63.15,106.13z"/>
<path style="fill:#5E6367;" d="M68.74,113.12c0.54,0.49,7.79-0.73,8.07-1.55c0.25-0.74-0.03-2.91-0.54-3.23
	c-0.95-0.59-7.42,1.07-7.85,1.93C68.17,110.78,68.33,112.74,68.74,113.12z"/>
<path style="fill:#C48E6A;" d="M72.81,89.38l3.93,6.81l1.5-3.59c0,0,0.55-5.22,0.42-7.8s-0.44-5.45-0.35-6.15s1.57-3.53,1.57-3.53
	l-3.58-3.54C76.3,71.58,72.81,89.38,72.81,89.38z"/>
<path style="fill:#C48E6A;" d="M27.74,62l-8.78-1.08c0,0-1.2,0.59-1.3,1.19s-0.6,2.34,0.32,5.2c0.3,0.93,1.08,2.55,1.55,2.74
	c1.97,0.81,6.4-0.85,6.71-1.2c0.53-0.6,0.86-1.41,0.86-1.41s12.97-2.9,16.17-3.88c3.2-0.98,4.01-2.09,4.6-3.13
	c0.84-1.47,1.11-4.43,1.11-4.43l-1.92-2.88L27.74,62L27.74,62z"/>
<path style="fill:#E0BB95;" d="M79.09,69.54L65.95,72.7c0,0-0.13,0.98-0.25,3.38c-0.17,3.62,0.54,7.69,0.87,9.99
	c0.39,2.75,1.43,8.19,1.43,8.19l4.67,1.32l3.32-2.18c0,0-0.09-6.15-0.31-9.77s-0.22-5.67,0.13-6.59c0.54-1.42,1.53-3.01,1.53-3.01
	l1.74-4.49L79.09,69.54z"/>
<path style="fill:#E0BB95;" d="M44.94,48.47l-6.23,1.97c0,0,0,1.95,0,2.42v1.43c0,0-2.44,1.01-4.69,1.9s-7.29,3.49-8.03,3.64
	c-0.53,0.11-1.05-0.78-1.74-0.85s-5.08,1.43-5.27,1.94s-0.42,2.77-0.18,3.65c0.34,1.22,1.05,2.7,1.97,3.13
	c0.46,0.21,2.55-0.34,2.86-0.57s1.74-1.74,1.98-1.94s7.68-1.74,13.61-3.61c4.08-1.28,6.15-2,7.56-2.91c1.2-0.78,1.9-1.67,2.21-2.68
	c0.2-0.63,0.66-4.34,0.66-4.34l-4.69-3.18L44.94,48.47z"/>
<path style="fill:#5E6268;" d="M47.53,40.55l2.77,7.32c0,0,3.47,0.81,6.13,1.63s6.29,2.06,6.24,2.44s-0.98,0.66-3.47,1.92
	c-1.6,0.81-3.88,2.26-3.88,2.26s4.04,5.11,5.99,7.66s5.42,6.18,5.42,6.18l18.61-25.17l-3.56-7.37l-2.61-1.79l-31.63,4.93
	L47.53,40.55z"/>
<path style="fill:#858585;" d="M68.31,55.6c-0.25,0.37-1.12,7.15-1.49,9.58c-0.37,2.43-0.87,7.52-0.87,7.52s4.66,0.81,7.59,1.43
	s6.34,0.99,6.34,0.99s7.34-11.25,8.89-17.66c1.55-6.4,1.77-8.85-0.25-13.06c-1.61-3.35-6.77-7.04-6.77-7.04s-0.37,5.62-4.35,10.59
	s-9.09,7.64-9.09,7.64V55.6z"/>
<path style="fill:#858585;" d="M41.53,31.87c-2.44,3.32-2.86,7.36-2.91,9.59s0.06,5.3,0.06,5.3l7.96,2.11l3.62-0.36
	c0,0,0.26-2.19,0.5-3.42s11.85-1.44,11.85-1.44l12.21,1.97c0,0,1.97-2.57,3.06-5.5c0.83-2.24,1.3-4.51,1.3-4.51
	s-5.69-4.66-12.6-6.73c-5.77-1.74-11.73-3.42-16.67-2.12c-4.27,1.13-7.01,3.26-8.36,5.11L41.53,31.87z"/>
<path style="fill:#2F2F2F;" d="M32.99,24.47c0,0,0.93,1.66,1.62,3.04s2.23,4.01,2.23,4.01s-0.51,5.63-0.49,6.04
	c0.04,0.65,1.5,0.69,1.58,0.04c0.06-0.44,0.49-5.79,0.49-5.79s1.67-1.65,3.44-4.5c2.15-3.44,2.27-5.43,2.27-5.43l-1.54,0.49
	c0,0-1.18,3.04-2.11,4.58s-2.63,3.12-2.63,3.12s-0.89-1.79-1.65-3.27s-1.73-3.44-1.73-3.44l-1.49,1.12L32.99,24.47z"/>
<path style="fill:#B0B0B0;" d="M24,24.38l-3.23-1.54c0,0-1.68-3.08-0.48-7.28S25.16,6.28,32.25,4.5c9.21-2.3,17.38,2.02,17.38,2.02
	l-3.87,10.73l-21.75,7.12L24,24.38z"/>
<path style="fill:#DFDFDF;" d="M23.17,23.19c0,0-1.43-2.72-0.6-6.14s3.33-7.39,8.07-9.24C40.26,4.05,45.82,7.49,46.08,8
	s-0.05,2.39,0.13,2.53c0.65,0.51,3.11,1.71,3.11,1.71l-0.04,1.43l-15.14,7.78C34.14,21.45,23.17,23.19,23.17,23.19z"/>
<path style="fill:#5E6367;" d="M30.82,7.49c-1.77,0.83-3.76,2.39-2.85,3.52c0.84,1.05,1.95-0.7,3.86-1.55s3.65-1.22,3.31-2.31
	S32.08,6.9,30.82,7.49z"/>
<path style="fill:#5E6367;" d="M38.58,7.03c0.2,1.24,1.51,0.8,3.65,1.05c2.14,0.25,4.28,1.17,4.49,0.13s-2.52-1.93-3.98-2.14
	S38.38,5.73,38.58,7.03L38.58,7.03z"/>
<path style="fill:#5E6367;" d="M32.8,11.64c-2.85,1.43-6.21,4.91-5.2,6s4.04-1.84,7.46-3.31c4.11-1.76,7.72-1.47,7.67-2.98
	s-5.66-1.85-9.94,0.29H32.8z"/>
<path style="fill:#5E6367;" d="M25.41,12.92c-1.16-0.38-2.32,1.62-2.95,3.57s-0.76,4.48,0.41,4.47s1.08-2.11,1.67-3.85
	s2.22-3.75,0.86-4.19L25.41,12.92z"/>
<path style="fill:#2F2F2F;" d="M20.76,22.84c0,0,8.97-1.22,15.51-4.03s12.74-6.31,12.74-6.52s-2.85-1.36-2.85-1.82
	s3.02-3.98,3.44-3.94s1.17,0.59,1.09,0.96s-1.8,2.43-1.8,2.43s2.04,1.57,2.13,1.98c0.19,0.91-3.01,4.01-2.97,4.77
	s0.81,2.64,0.63,3.52c-0.19,0.93-5.57,2.38-12.62,4.03S22.1,25.67,22.1,25.67s-0.43-0.48-0.79-1.26
	C20.97,23.67,20.76,22.84,20.76,22.84z"/>
<g>
	<path style="fill:#E0E0E0;" d="M109.27,115.27c-0.27,0-0.54-0.14-0.69-0.39l-4.3-7.17c-0.23-0.38-0.1-0.87,0.27-1.1
		c0.37-0.23,0.87-0.1,1.1,0.27l4.3,7.17c0.23,0.38,0.1,0.87-0.27,1.1c-0.13,0.08-0.27,0.11-0.41,0.11L109.27,115.27z"/>
	<path style="fill:#E0E0E0;" d="M114.83,110.65c-0.17,0-0.35-0.05-0.49-0.17l-7.02-5.45c-0.35-0.27-0.41-0.77-0.14-1.12
		c0.27-0.35,0.77-0.41,1.12-0.14l7.02,5.45c0.35,0.27,0.41,0.77,0.14,1.12C115.3,110.54,115.07,110.65,114.83,110.65z"/>
	<path style="fill:#E0E0E0;" d="M117.54,103.69c-0.07,0-0.14,0-0.22-0.03l-8.3-2.34c-0.42-0.12-0.67-0.56-0.55-0.99
		c0.12-0.42,0.55-0.67,0.99-0.55l8.3,2.34c0.42,0.12,0.67,0.56,0.55,0.99C118.21,103.46,117.89,103.69,117.54,103.69z"/>
	<path style="fill:#E0E0E0;" d="M94.46,98.73c-0.07,0-0.15-0.01-0.23-0.03l-10.64-3.17c-0.42-0.13-0.66-0.57-0.54-1
		c0.12-0.42,0.57-0.66,1-0.54l10.64,3.17c0.42,0.13,0.66,0.57,0.54,1C95.13,98.51,94.81,98.73,94.46,98.73z"/>
	<path style="fill:#E0E0E0;" d="M95.97,95.94c-0.21,0-0.41-0.08-0.57-0.24l-7.52-7.87c-0.31-0.31-0.31-0.82,0-1.13s0.82-0.31,1.13,0
		l7.52,7.87c0.31,0.31,0.31,0.82,0,1.13C96.37,95.85,96.17,95.93,95.97,95.94L95.97,95.94z"/>
</g>
<g>
	<path style="fill:#E0E0E0;" d="M21.67,99.77c-0.12,0-0.25-0.03-0.37-0.09L11.04,94.4c-0.39-0.2-0.55-0.68-0.34-1.08
		c0.2-0.39,0.69-0.55,1.08-0.35l10.26,5.28c0.39,0.2,0.55,0.68,0.34,1.08C22.24,99.61,21.96,99.76,21.67,99.77L21.67,99.77z"/>
	<path style="fill:#E0E0E0;" d="M23.56,97.28c-0.19,0-0.37-0.06-0.52-0.19l-8.75-7.55c-0.33-0.29-0.37-0.79-0.08-1.13
		s0.79-0.37,1.13-0.08l8.75,7.55c0.33,0.29,0.37,0.79,0.08,1.13C24.01,97.19,23.79,97.29,23.56,97.28L23.56,97.28z"/>
	<path style="fill:#E0E0E0;" d="M25.6,95.54c-0.27,0-0.54-0.14-0.69-0.4l-5.58-9.51c-0.22-0.38-0.1-0.87,0.28-1.09
		c0.38-0.22,0.87-0.1,1.1,0.28l5.58,9.51c0.22,0.38,0.1,0.87-0.28,1.09c-0.13,0.07-0.27,0.11-0.4,0.11L25.6,95.54z"/>
	<path style="fill:#E0E0E0;" d="M15.94,114.86c-0.18,0-0.37-0.06-0.52-0.19c-0.34-0.29-0.38-0.79-0.09-1.13l7.39-8.68
		c0.29-0.34,0.79-0.38,1.13-0.09c0.34,0.29,0.38,0.79,0.09,1.13l-7.39,8.68C16.39,114.77,16.17,114.86,15.94,114.86z"/>
	<path style="fill:#E0E0E0;" d="M37.9,115.84c-0.23,0-0.46-0.1-0.62-0.29l-7.09-8.6c-0.28-0.34-0.23-0.85,0.11-1.13
		s0.85-0.23,1.13,0.11l7.09,8.6c0.28,0.34,0.23,0.85-0.11,1.13C38.26,115.78,38.08,115.84,37.9,115.84z"/>
	<path style="fill:#E0E0E0;" d="M42.04,111.77c-0.17,0-0.34-0.05-0.49-0.17l-9.05-6.94c-0.35-0.27-0.42-0.77-0.15-1.12
		c0.27-0.35,0.77-0.42,1.12-0.15l9.05,6.94c0.35,0.27,0.42,0.77,0.15,1.12c-0.16,0.2-0.4,0.31-0.64,0.31L42.04,111.77z"/>
	<path style="fill:#E0E0E0;" d="M44.84,106.49c-0.1,0-0.2-0.02-0.3-0.06l-10.49-4.23c-0.41-0.17-0.61-0.63-0.44-1.04
		c0.17-0.41,0.63-0.6,1.04-0.44l10.49,4.23c0.41,0.17,0.61,0.63,0.44,1.04C45.45,106.3,45.15,106.49,44.84,106.49z"/>
</g>
<path style="fill:#785446;" d="M25.69,35.83c0,0,1.13-0.63,1.84-1.13s1.39-1.01,1.86-0.45s-0.38,1.67-1.04,2.19
	s-1.45,1.07-1.69,0.97c-0.79-0.3-0.97-1.59-0.97-1.59L25.69,35.83z"/>
<path style="fill:#3F4040;" d="M27.79,26.32c-0.78,0.42-0.6,1.5-0.21,2.21c0.42,0.78,1.08,1.18,1.79,0.85
	c0.78-0.37,0.54-1.6,0.16-2.26S28.45,25.96,27.79,26.32z"/>
<path style="fill:#858585;" d="M70.85,100.64l-2.46-2.67L68,94.26c0,0,1.36,0.27,3.94,0.03c3.11-0.29,6.29-1.69,6.29-1.69
	l-0.03,3.56C78.2,96.16,70.85,100.64,70.85,100.64z"/>
<path style="fill:#868686;" d="M71.34,104.41l-10.35,5.29c0,0,0.06,0.92,0.95,1.33s1.71,0.35,2.82,0.06c1.11-0.29,5.7-1.39,7.63-1.9
	s3.26-1,4.21-1.42c0.85-0.38,1.47-1.22,1.61-1.9c0.13-0.6,0.13-1.3,0.13-1.3S71.34,104.41,71.34,104.41z"/>
<g>
	<path style="fill:#00BDA3;" d="M72.78,104.17l-4.09-0.43l-0.1-2.45l-0.2-3.31c0,0,2.94,0.39,5.31-0.06s4.51-1.75,4.51-1.75v6.1
		l-5.43,1.91L72.78,104.17z"/>
	<path style="fill:#00BDA3;" d="M51.55,40.23c-0.21,0.13-0.81,4.88-0.81,4.88s5.64,0.9,10.2,2.24c4.56,1.33,8.4,3.75,8.7,3.75
		c0.95,0,5.27-5.13,5.17-5.47c-0.49-1.55-7.74-3.6-12.66-4.61C56.9,39.94,52.03,39.93,51.55,40.23z"/>
	<path style="fill:#00BDA3;" d="M76.31,49.24c0,0,1.6,2,1.17,5.83s-1.54,7.72-2.79,11.03s-2.57,7.74-2.57,7.74l2.87,0.57
		c0,0,3-8.76,4.1-12.53s1.67-9.41,1.18-11.96s-1.56-3.8-1.56-3.8s-1.02,1.51-1.32,1.83s-1.09,1.28-1.09,1.28L76.31,49.24z"/>
	<path style="fill:#00BDA3;" d="M38.67,46.75v3.95c0,0,3.28-0.44,5.86-0.15s5.16,1.76,5.16,1.76l0.58-3.86c0,0-1.42-1.59-5.7-1.92
		C40.58,46.22,38.67,46.75,38.67,46.75z"/>
</g>
<path style="fill:#E0E0E0;" d="M68.59,101.28c-0.28-0.09-4.05,3.29-5,4.05s-1.95,1.54-2.41,2.28c-0.6,0.98-0.19,2.09-0.19,2.09
	s2.02,0.1,8.3-1.8c7.95-2.41,9.06-3.32,9.06-3.32s-0.03-2.12-0.13-2.31s-1.8,0.89-5.41,0.47c-2.65-0.3-4.21-1.46-4.21-1.46H68.59z"
	/>
</svg>
