<?xml version="1.0" encoding="utf-8"?>
<!-- Generator: Adobe Illustrator 26.3.1, SVG Export Plug-In . SVG Version: 6.00 Build 0)  -->
<svg version="1.1" id="a" xmlns="http://www.w3.org/2000/svg" xmlns:xlink="http://www.w3.org/1999/xlink" x="0px" y="0px"
	 viewBox="0 0 128 128" style="enable-background:new 0 0 128 128;" xml:space="preserve">
<path style="fill:#C0C0C0;" d="M124.04,22.2v93.24c0,1.94-0.64,3.72-1.71,5.17c-1.58,2.11-4.09,3.47-6.92,3.47H12.6
	c-3.15,0-5.91-1.69-7.42-4.21c-0.78-1.3-1.22-2.81-1.22-4.43V55.61l12.13-4.7l5.65-8.85c0,0,3.2-0.15,7.21,0.97
	s12.2,4.76,13.16,5.13s19.11,2.75,19.11,2.75l24.55-9.74l12.49-30.8c0,0,1.56-0.86,4.51-0.37s6.94,3,6.94,3s4.91,1.99,8.55,4.49
	c4.28,2.94,5.76,4.7,5.76,4.7L124.04,22.2z"/>
<path style="fill:#DCDCDC;" d="M98.28,10.38c0,0,9.13,20.02,9.68,22.61s1.09,5.19,1.5,6.42s4.91,15.42,4.37,16.38
	s-9.15,2.18-10.78,3.14s-8.87,12.97-9.83,14.06s-4.78,6.55-4.78,6.55l-11.06,1.77L62.77,66.84l-1.54-15.93c0,0,5.36-3.73,7.81-5.64
	s9.42-19.38,11.19-21.43s9.55-9.28,12.15-10.92s5.88-2.54,5.88-2.54L98.28,10.38z"/>
<path style="fill:#DCDCDC;" d="M3.96,115.44V55.61c0,0,6.53-6.24,8.72-8.29s5.32-5.19,6.55-5.19s2.52-0.07,2.52-0.07
	s2.81,11.95,3.9,16.04s2.87,7.64,2.87,7.64s0,1.64,0.55,2.46s17.47,25.66,17.47,25.66s-12.69,7.78-14.74,8.74
	s-14.06,7.78-16.52,7.92s-9.92,1.78-11.31,4.92L3.96,115.44z"/>
<path style="fill:#899394;" d="M122.32,120.6c-1.58,2.11-4.09,3.47-6.92,3.47H12.6c-3.15,0-5.91-1.69-7.42-4.21
	c0,0,13.37,0.11,16.96-0.05s13.5,0.48,17.02,0.4s19.25-0.72,22.21-0.96c2.96-0.24,3.52-0.16,5.03-0.4c1.52-0.24,6.87-3.2,8.95-3.28
	s14.46,1.2,22.05,1.92s16.06,1.76,17.9,1.84c1.84,0.08,3.67-0.19,4.23-0.19S122.32,120.6,122.32,120.6z"/>
<path style="fill:#5F6467;" d="M68.21,93.33c0,0,0.52,0.98-0.23,1.5s-2.13,1.32-2.13,1.32l-3.91,2.59c0,0-1.49,0.54-0.63,2.42
	c0.63,1.38,4.83,0.58,5.92,0.46s4.43-0.81,4.43-0.81l5.58-0.92l2.07-13.05l-10.47,0.92L68.21,93.33L68.21,93.33z"/>
<path style="fill:#858585;" d="M98.26,117.43c-11.1,0-20.13-9.27-20.13-20.66s9.03-20.66,20.13-20.66s20.13,9.27,20.13,20.66
	S109.36,117.43,98.26,117.43z M98.26,79.95c-9.04,0-16.16,7.3-16.16,16.58s7.12,17.06,16.16,17.06s16.4-7.55,16.4-16.82
	S107.3,79.95,98.26,79.95z"/>
<path style="fill:#464C4F;" d="M98.38,119.12c-12.23,0-22.17-10.01-22.17-22.32s8.9-22.33,22.17-22.32
	c12.23,0,22.17,10.02,22.17,22.32S110.6,119.12,98.38,119.12z M98.26,77.87c-10.56,0-18.36,7.41-18.36,18.04s7.8,19.89,18.36,19.89
	S117,107.51,117,96.88S108.82,77.87,98.26,77.87z"/>
<path style="fill:#9E9FA1;" d="M98.31,90.42c4.05-0.15,6.07,3.06,5.97,6.17c-0.09,2.81-2.32,5.86-5.73,5.78
	c-4.25-0.1-6.27-3.95-5.92-6.52S94.2,90.57,98.31,90.42z"/>
<polygon style="fill:#454B4E;" points="83.2,96.2 77.62,96.64 77.67,99.85 82.06,100.84 "/>
<path style="fill:#5E6367;" d="M91.25,99.06l3.9-0.25c0,0,1.23,1.38,3.55,1.33c1.83-0.04,3.65-1.93,3.6-4.2s-1.88-3.6-3.95-3.65
	s-3.16,1.38-3.16,1.38l-3.21-1.09l-2.02,5.78L91.25,99.06L91.25,99.06z"/>
<polygon style="fill:#F0A007;" points="70.94,80.55 63.61,79.46 67.62,91.65 74.39,89.1 73.54,82.9 "/>
<path style="fill:#5F6467;" d="M69.01,63.71l-4.35,0.52c0,0-3.04,3.65-3.08,7.33s1.74,6.64,1.74,6.64l8.91,0.41l-0.77-11.75
	L69.01,63.71L69.01,63.71z"/>
<path style="fill:#F1A106;" d="M44.13,53.09l-8.88,2.98l-1.8,4.67c0,0,1.08,1.9,1.64,2.05s3.39-1.44,3.39-1.44l5.95-2.31l5.39-5.75
	l-1.8-2.52l-3.9,2.31L44.13,53.09z"/>
<path style="fill:#FFCA26;" d="M48.29,49.85l-5.03-1.23c0,0-4,4.77-4.41,5.03s-3.18,0.41-3.7,1.03s-2.16,4.62-2.16,5.03
	s0.46,1.03,0.46,1.03s3.23-4,4-4.47c0.38-0.23,1.72-0.2,3.13,0.21s3.15,0.85,3.39,0.72c0.46-0.26,4.82-5.08,4.82-5.08L48.29,49.85
	L48.29,49.85z"/>
<path style="fill:#2F2F2F;" d="M47.16,44.05c0,0-3.9,4.26-3.9,4.57s5.95,5.08,6.31,5.18s4.47-4.41,4.47-4.41L47.16,44.05z"/>
<path style="fill:#464C4F;" d="M37.2,68.02c0,0-2.31-2.05-1.54-5.39s3.62-4.25,5.59-4.16c2.26,0.1,4.77,0.46,4.52,2.93
	s-2.1,1.64-2.46,1.64s-2.06-0.37-2.52,1.64c-0.51,2.26,3,3.93,3,3.93l-5.15,2.64L37.2,68.02z"/>
<path style="fill:#858585;" d="M29.34,120.4c-11.1,0-20.13-9.09-20.13-20.26s9.03-20.26,20.13-20.26s20.13,9.09,20.13,20.26
	S40.44,120.4,29.34,120.4z M29.34,83.65c-9.04,0-16.16,7.16-16.16,16.26s7.12,16.73,16.16,16.73s16.4-7.4,16.4-16.49
	s-7.36-16.49-16.4-16.49L29.34,83.65z"/>
<path style="fill:#464C4F;" d="M29.45,122.06c-12.23,0-22.17-9.82-22.17-21.89s8.9-21.89,22.17-21.89
	c12.23,0,22.17,9.82,22.17,21.89S41.67,122.06,29.45,122.06z M29.33,81.61c-10.56,0-18.36,7.26-18.36,17.69s7.8,19.5,18.36,19.5
	s18.74-8.12,18.74-18.55S39.89,81.61,29.33,81.61z"/>
<path style="fill:#464C4F;" d="M28.93,99.01c0,0-0.72,1.97,0.65,2.47c1.47,0.54,2.21-1.53,2.21-1.53l8.26-24.38
	c0,0,0.8,0.41,1.1,0.76s20.6,21.94,21.43,22.6s1.61,0.95,3.45,0.95s5.77-0.3,5.77-0.3l4.16-12.31l3.17,1.31l2.04-7.25L46.4,68.97
	l-2.6-0.36l1.38,4.58c0,0,26.16,9.62,26.67,9.84s0.85,0.74,0.57,1.47s-4.13,11.14-4.13,11.14l-4.13-0.06l-22.39-24.2l-4.92,1.58
	L28.93,99.01L28.93,99.01z"/>
<path style="fill:#858585;" d="M74.62,94c-2.45-0.28-5.59,0.97-5.65,4.97c-0.04,3.23,2.37,4.93,5.11,4.93c3.09,0,5-1.48,5.06-5.2
	c0.04-2.73-2.15-4.44-4.53-4.7L74.62,94z"/>
<path style="fill:#474D51;" d="M84.1,101.13c-0.13,0.42,1.12,2.2,1.49,2.25s6.62-3.83,6.69-4.22s-0.82-2.38-1.31-2.38
	S84.26,100.61,84.1,101.13z"/>
<path style="fill:#F0A007;" d="M77.1,76.51l5.51-1.91c0,0,1.98,3.33,2.95,5.11c0.97,1.79,3.43,6.26,3.43,6.26l-1.82,2.9L77.12,76.51
	H77.1z"/>
<path style="fill:#FFCA26;" d="M73.34,76.48l-0.47,3.79l8.02,11.25l6.18-3.84c0,0-3.2-5.32-4.17-7s-3.28-5.51-3.28-5.51L73.34,76.48
	L73.34,76.48z"/>
<polygon style="fill:#5E6367;" points="80.9,91.52 88.98,85.97 90.85,89.19 92.39,91.84 83.13,94.42 "/>
<path style="fill:#2F2F2F;" d="M83.27,64.6l-14.73-1.07l0.74,4.2c0,0-1.54,2-1.21,3.8s1.33,4.07,2.4,5.6s1.87,3.13,2.4,3.13
	s4.6-2.73,6.07-3.67s3.6-1.71,3.67-2s-0.67-1.68-0.67-2.01s1.81-2.66,1.81-2.66l-0.47-5.33L83.27,64.6z"/>
<path style="fill:#4B0FCE;" d="M73.53,50.99c0,0-3.78,5.37-5.63,7.92s-4.09,5.34-4.01,5.69s3.13,1.96,4.01,2.49s1.38,0.65,1.38,0.65
	l1.47-2.35l8.15-1.29l1.67,6.07c0,0,2.29,1.14,3.61,1.41s2.38-0.44,3.17-1.67s8.27-13.46,10.03-19.01c1.2-3.77,1.32-5.63,0.79-7.57
	s-1.34-3.01-1.34-3.01l-13.44-0.95l-9.85,11.61L73.53,50.99z"/>
<path style="fill:#5E6367;" d="M59.43,45.56c0,0,4.84,1.63,9,3.32s8.58,3.9,8.58,3.9s4.27-4.84,4.69-5.32S64.59,35.4,64.59,35.4
	S59.43,45.56,59.43,45.56z"/>
<path style="fill:#583EE2;" d="M64.12,39.45c0,0,2.58,0.26,6.27,1.9s6.64,3,8.37,4.11s2.95,2,2.95,2s2.97-3.48,3.46-3.95
	s-1.3-5.63-1.3-5.63l-15.8-5.11L64.12,39.45L64.12,39.45z"/>
<path style="fill:#F09E00;" d="M44.61,21.05l-4.76,0.42c0,0,0,0.62,0.28,1.67c0.16,0.59,0.46,1.17,0.26,2.14s9.83,7.14,9.83,7.14
	s1.2-0.05,1.9,0.19s1.85,1.02,1.85,1.02l3.64-5.8l-0.2-9.67l-12.81,2.9L44.61,21.05z"/>
<path style="fill:#FFCA26;" d="M49.65,22.76c0,0-2.87,0.89-4.87,1.55c-1.01,0.34-4.39,0.98-4.39,0.98s-0.31,0.74-0.68,1.27
	c-0.42,0.58-0.76,0.84-0.8,1.39s0.23,0.82,0.79,1.07s1.24,0.39,1.56,0.64s0.81,1.45,1.22,2.11c0.41,0.66,1.26,2.65,3.28,2.62
	s3.5-1.01,4.67-1.83s1.64-1.85,1.64-1.85V26.9l-2.41-4.15L49.65,22.76z"/>
<path style="fill:#62453B;" d="M52.96,18.88l-4.32,0.83l2.27,3.82c0,0,0.08-1.06,0.59-1.81c0.42-0.62,1.16-0.94,2-0.81
	s1.13,0.91,1.15,1.53c0.07,1.61-0.83,2.34-0.83,2.34l-0.13,2.02c0,0,0.14,1.07,1.03,1.28c1.06,0.25,1.75-0.22,1.75-0.22l4.04-3.01
	c0,0,2.11-5.56-0.29-7.32c-1.06-0.78-7.24,1.34-7.24,1.34L52.96,18.88z"/>
<path style="fill:#62453B;" d="M65.26,13.51c4.95-0.79,7.44,3.62,9.93,4.71c4.27,1.87,7.49,0.71,7.76,1.95
	c0.39,1.81-8.01,7.36-12.98,6.07c-2.97-0.77-3.05-2.77-5.04-3.47c-1.56-0.54-5.32,0.25-5.32,0.25s0.2-3.37,0.6-4.73
	C60.81,16.24,62.86,13.89,65.26,13.51z"/>
<path style="fill:#2F2F2F;" d="M48.05,20.46c0,0,1.09,2.2,1.69,3.39s1.92,3.46,1.92,3.46s-0.44,4.86-0.42,5.21
	c0.03,0.56,1.29,0.59,1.36,0.03c0.05-0.38,0.42-5,0.42-5s1.44-1.42,2.97-3.88c1.85-2.97,2.47-4.69,2.47-4.69l-1.84,0.42
	c0,0-1.23,2.59-2.03,3.92s-2.06,2.73-2.06,2.73s-0.77-1.54-1.42-2.83s-1.49-2.97-1.49-2.97l-1.57,0.2V20.46z"/>
<path style="fill:#563C31;" d="M42.03,31.03c0,0,0.98-0.55,1.59-0.97s1.2-0.87,1.61-0.39s-0.33,1.44-0.89,1.89
	c-0.56,0.45-1.28,0.97-1.46,0.84c-0.7-0.47-0.84-1.37-0.84-1.37H42.03z"/>
<path style="fill:#2F2F2F;" d="M36,18.52c0,0,0.51,1.88,1.42,2.85s3.76,0.81,3.76,0.81l5.95-1.17c0,0,4.58-0.46,6.76-0.46
	s7.93,0.61,8.49,0.31s1.32-1.58,1.32-2.29v-1.68l-2.95-5.39l-4.42-5.75l-11.7,0.2c0,0-0.87,0.49-1.98,1.27
	c-1.02,0.71-1.42,1.32-1.42,1.32l-5.24,9.97L36,18.52z"/>
<path style="fill:#5F6467;" d="M48.91,9.77l2.69,3.97l-2.03,1.07c0,0,1.02,1.93,1.32,1.98s8.49-4.32,8.49-4.32s1.02,1.17,2.19,2.49
	c1.08,1.22,2.14,1.93,2.14,1.93s-0.51-4.74-2.34-7.27c-1.88-2.59-3.31-3.46-3.31-3.46l-1.73-0.41l-0.15,0.61
	c0,0,2.29,3.51,2.19,3.76c-0.05,0.13-1.18,0.71-2.34,1.27c-1.07,0.52-2.17,1.04-2.34,1.02c-0.36-0.05-2.75-4.12-2.75-4.12
	L48.91,9.77L48.91,9.77z"/>
<path style="fill:#5F6467;" d="M38.54,12.82l-8.03,5.44c0,0,0.25,0.48,0.81,0.51c1.88,0.1,4.47,0.03,8.59-0.05
	c8.24-0.15,8.85-0.05,8.9-0.46s-4.68-6.51-4.68-6.51S38.54,12.82,38.54,12.82z"/>
<path style="fill:#626667;" d="M39.66,22.43c-0.05,0.61-0.02,1.99,0.66,3.05c0.1,0.16,0.59,0,1.07,0.46
	c1.56,1.5,2.44,1.78,3.15,1.68s1.98-1.37,2.9-2.75s0.86-2.34,0.46-3.1s-0.97-1.02-2.39-0.92S39.73,21.59,39.66,22.43z"/>
<path style="fill:#9E9FA1;" d="M26.89,105.03c3.18,2.23,6.72,0.99,8.2-1.81c1.48-2.8,0.51-6.13-2.42-7.83s-6.04-0.44-7.48,2.02
	C23.9,99.63,24.03,103.02,26.89,105.03z"/>
<path style="fill:#9FA0A2;" d="M25.24,99.62c-0.11,0-0.23-0.03-0.33-0.08l-9.83-5.07c-0.36-0.18-0.5-0.62-0.31-0.98
	c0.18-0.36,0.62-0.5,0.98-0.31l9.83,5.07c0.36,0.18,0.5,0.62,0.31,0.98C25.76,99.48,25.51,99.62,25.24,99.62z"/>
<path style="fill:#9FA0A2;" d="M25.92,97.36c-0.18,0-0.36-0.06-0.5-0.2L18,90.23c-0.29-0.27-0.31-0.73-0.03-1.02
	c0.27-0.29,0.73-0.31,1.03-0.04l7.42,6.93c0.29,0.27,0.31,0.73,0.03,1.02C26.31,97.27,26.11,97.35,25.92,97.36L25.92,97.36z"/>
<path style="fill:#9FA0A2;" d="M27.77,95.93c-0.26,0-0.51-0.14-0.64-0.38l-5.05-9.24c-0.19-0.35-0.06-0.79,0.29-0.98
	s0.79-0.06,0.98,0.29l5.05,9.24c0.19,0.35,0.06,0.79-0.29,0.98c-0.11,0.06-0.23,0.09-0.35,0.09H27.77z"/>
<path style="fill:#9FA0A2;" d="M18.94,111.83c-0.19,0-0.37-0.07-0.51-0.21c-0.28-0.28-0.28-0.74,0-1.03l7.1-7.11
	c0.28-0.28,0.74-0.28,1.03,0c0.28,0.28,0.28,0.74,0,1.03l-7.1,7.11c-0.14,0.14-0.33,0.21-0.51,0.21H18.94z"/>
<path style="fill:#9FA0A2;" d="M38.22,113.29c-0.22,0-0.44-0.1-0.58-0.3l-5.76-7.83c-0.24-0.32-0.17-0.78,0.15-1.01
	c0.32-0.24,0.78-0.17,1.01,0.15l5.76,7.83c0.24,0.32,0.17,0.78-0.15,1.01c-0.13,0.1-0.28,0.14-0.43,0.14L38.22,113.29z"/>
<path style="fill:#9FA0A2;" d="M42.13,109.06c-0.14,0-0.29-0.04-0.41-0.13l-7.39-5.09c-0.33-0.23-0.41-0.68-0.19-1.01
	c0.23-0.33,0.68-0.41,1.01-0.19l7.39,5.09c0.33,0.23,0.41,0.68,0.19,1.01c-0.14,0.2-0.37,0.31-0.6,0.31V109.06z"/>
<path style="fill:#9FA0A2;" d="M44.51,102.67c0,0-0.07,0-0.1,0l-9.88-1.41c-0.4-0.06-0.67-0.42-0.62-0.82
	c0.06-0.4,0.43-0.67,0.82-0.62l9.88,1.41c0.4,0.06,0.67,0.42,0.62,0.82C45.18,102.41,44.87,102.67,44.51,102.67z"/>
<path style="fill:#5E6367;" d="M32.32,84.81c-0.56,0.13-4.52,12.95-4.34,13.76s4.46,2.26,4.9,1.95s4.46-13.43,4.46-13.82
	C37.34,85.95,33.63,84.5,32.32,84.81L32.32,84.81z"/>
<path style="fill:#E0E0E0;" d="M41.18,22.89c0,0.69,0.71,1.83,1.37,2.44s1.37,1.02,1.93,0.71c0.36-0.2,1.53-1.41,1.93-2.44
	c0.21-0.55,0.08-1.16-0.1-1.47c-0.16-0.28-1.28-0.2-2.44,0c-1.33,0.22-2.69,0.6-2.69,0.77L41.18,22.89z"/>
<path style="fill:#858585;" d="M30.51,18.26c-0.38-0.88,2.49-3.54,6.86-6.86c2.75-2.08,3.86-2.85,3.86-2.85s2.49-0.25,2.8,0
	s2.08,2.59,2.08,2.85s-4.98,3.1-8.14,4.42C34.82,17.14,30.8,18.97,30.51,18.26L30.51,18.26z"/>
<path style="fill:#858585;" d="M44.64,5.96l3.46,4.68c0,0,3.76-1.93,6-2.9s3.97-1.58,3.97-1.58s-1.58-2.18-6.51-2.24
	c-4.12-0.05-6.92,2.03-6.92,2.03V5.96z"/>
<path style="fill:#858585;" d="M46.58,44.24c-0.25-0.58,6.46-9.13,7.01-10.72s2.95-5.93,4.23-7.2s3.18-2.52,6.04-2.31
	c2.86,0.21,9.86,3.15,13.25,4.53c3.39,1.38,13.36,6.04,16.22,8.16s3.5,3.6,3.5,3.6s-5.3,0.12-7.21,0.64
	c-2.76,0.74-4.45,2.54-4.45,2.54s-1.25-1.37-3.6-2.65c-4.92-2.68-11.44-5.77-11.91-5.77s-5.53,5.19-6.58,6.35s-7.21,9.48-7.95,9.58
	s-8.23-6.05-8.54-6.77L46.58,44.24z"/>
<path style="fill:#583EE2;" d="M70.75,65.38c0,0,6.77-11.51,7.18-11.97s5.81-6.16,6.82-6.82s5.54-1.89,6.26-1.68s0.81,4.18,0.1,6.11
	S80.47,70.06,80.47,70.06s-4.33-1.58-6.77-3C72.44,66.33,70.75,65.38,70.75,65.38z"/>
<path style="fill:#2F2F2F;" d="M82.76,94.53c0.05-0.68,3.36-1.38,5.43-2c2.36-0.71,4.13-0.82,4.13-0.82s1.56,2.38,1.41,3.16
	s-3.8,2.98-5.88,4.47s-7.11,4.12-8.75,4.39c-1.12,0.19-1.38-1.56-0.45-2.94s3.65-4.47,4.02-4.92S82.71,95.01,82.76,94.53
	L82.76,94.53z"/>
<path style="fill:#858585;" d="M72.78,85.83c-0.05-0.29-2.62-1.28-3.31-1.24s-3.14,7.56-3,8.15s2.87,1.45,3.31,1.24
	S72.85,86.21,72.78,85.83z"/>
<path style="fill:#5E6367;" d="M37.1,67.53c-0.44,0.19-1.03,0.89-1.43,2.85c-0.33,1.64,0.51,2.61,0.68,2.75s4.38,0.88,5.06,0.98
	s20.2,21.49,20.51,21.55s4.82,0.19,4.92-0.03S46.09,73.18,45.87,72.89c-0.34-0.44-0.4-0.93-0.09-1.34s1.07-0.22,1.6-0.07
	s6.99,2.23,7.56,2.41c1.8,0.56,4.3,1.31,4.47,0.77c0.42-1.32-5.53-3.05-5.53-3.05s-7.29-2.59-9.42-3.34S38.21,67.05,37.1,67.53
	L37.1,67.53z"/>
<path style="fill:#9FA0A2;" d="M102.29,112.15c-0.33,0-0.62-0.22-0.7-0.55l-1.9-7.79c-0.1-0.39,0.14-0.78,0.53-0.88
	c0.39-0.09,0.78,0.14,0.88,0.53l1.9,7.79c0.1,0.39-0.14,0.78-0.53,0.88c-0.06,0.01-0.12,0.02-0.17,0.02L102.29,112.15z"/>
<path style="fill:#9FA0A2;" d="M108.18,108.53c-0.21,0-0.42-0.09-0.56-0.26l-4.79-5.83c-0.25-0.31-0.21-0.77,0.1-1.02
	s0.77-0.21,1.02,0.1l4.79,5.83c0.25,0.31,0.21,0.77-0.1,1.02C108.5,108.48,108.34,108.53,108.18,108.53z"/>
<path style="fill:#9FA0A2;" d="M112.03,103.54c-0.12,0-0.23-0.03-0.34-0.09l-6.18-3.35c-0.35-0.19-0.48-0.63-0.29-0.98
	c0.19-0.35,0.63-0.48,0.98-0.29l6.18,3.35c0.35,0.19,0.48,0.63,0.29,0.98C112.54,103.4,112.29,103.54,112.03,103.54z"/>
<path style="fill:#9FA0A2;" d="M95.32,90.73c-0.25,0-0.5-0.13-0.63-0.37l-4.19-7.47c-0.2-0.35-0.07-0.79,0.28-0.99
	s0.79-0.07,0.99,0.28l4.19,7.47c0.2,0.35,0.07,0.79-0.28,0.99c-0.11,0.06-0.23,0.09-0.35,0.09L95.32,90.73z"/>
</svg>
