<?xml version="1.0" encoding="utf-8"?>
<!-- Generator: Adobe Illustrator 26.3.1, SVG Export Plug-In . SVG Version: 6.00 Build 0)  -->
<svg version="1.1" id="a" xmlns="http://www.w3.org/2000/svg" xmlns:xlink="http://www.w3.org/1999/xlink" x="0px" y="0px"
	 viewBox="0 0 128 128" style="enable-background:new 0 0 128 128;" xml:space="preserve">
<g>
	<path style="fill:#C0C0C0;" d="M123.87,22.32v92.98c0,1.93-0.64,3.71-1.71,5.15c-1.57,2.1-4.08,3.46-6.91,3.46H12.75
		c-3.14,0-5.89-1.68-7.4-4.2c-0.77-1.29-1.22-2.8-1.22-4.42V55.63l12.1-4.69l5.64-8.82c0,0,3.19-0.15,7.19,0.96
		s12.16,4.75,13.13,5.12s19.06,2.74,19.06,2.74l24.48-9.71l12.45-30.71c0,0,1.56-0.86,4.5-0.37s6.92,2.99,6.92,2.99
		s4.9,1.99,8.52,4.47c4.27,2.93,5.75,4.69,5.75,4.69L123.87,22.32z"/>
	<path style="fill:#DCDCDC;" d="M98.18,10.54c0,0,9.1,19.96,9.65,22.55s1.09,5.17,1.5,6.4s4.9,15.38,4.36,16.33
		s-9.12,2.18-10.75,3.13s-8.85,12.93-9.8,14.02s-4.76,6.53-4.76,6.53l-11.02,1.77L62.8,66.84l-1.53-15.88c0,0,5.34-3.72,7.79-5.62
		s9.39-19.33,11.16-21.37s9.53-9.26,12.11-10.89s5.87-2.54,5.87-2.54L98.18,10.54z"/>
	<path style="fill:#DCDCDC;" d="M4.13,115.29V55.63c0,0,6.51-6.22,8.69-8.27s5.31-5.17,6.53-5.17s2.51-0.07,2.51-0.07
		s2.8,11.91,3.89,16s2.86,7.62,2.86,7.62s0,1.63,0.54,2.45s17.42,25.59,17.42,25.59s-12.66,7.76-14.7,8.71s-14.02,7.76-16.47,7.89
		c-2.45,0.14-9.9,1.77-11.28,4.9L4.13,115.29z"/>
	<path style="fill:#899394;" d="M122.16,120.44c-1.57,2.1-4.08,3.46-6.91,3.46H12.75c-3.14,0-5.89-1.68-7.4-4.2
		c0,0,13.33,0.11,16.92-0.05s13.46,0.48,16.97,0.4s19.2-0.72,22.15-0.96c2.95-0.24,3.51-0.16,5.02-0.4
		c1.51-0.24,6.85-3.19,8.92-3.27c2.07-0.08,14.42,1.2,21.99,1.91s16.01,1.75,17.85,1.83c1.83,0.08,3.66-0.19,4.22-0.19
		s2.78,1.45,2.78,1.45L122.16,120.44z"/>
</g>
<polygon style="fill:#99674F;" points="70.92,80.51 63.61,79.42 67.61,91.57 74.36,89.03 73.51,82.85 "/>
<path style="fill:#99674F;" d="M44.66,21.17l-4.9,0.39c0,0,0.12,1.09,0.38,1.65s0.5,1.21,0.31,2.18s9.81,7.12,9.81,7.12
	s1.2-0.05,1.9,0.19S54,33.72,54,33.72l3.99-5.82l-0.56-9.61L44.66,21.17L44.66,21.17z"/>
<path style="fill:#BA8D68;" d="M49.69,22.87c0,0-2.87,0.89-4.86,1.55c-1.01,0.34-4.37,0.97-4.37,0.97s-0.31,0.74-0.68,1.26
	c-0.41,0.58-0.76,0.83-0.8,1.38s0.23,0.82,0.79,1.07s1.24,0.39,1.55,0.64s0.81,1.45,1.21,2.1s1.26,2.64,3.27,2.61
	c2.05-0.02,3.49-1.01,4.65-1.82s1.63-1.84,1.63-1.84v-3.8l-2.4-4.13L49.69,22.87z"/>
<path style="fill:#5F6467;" d="M68.2,93.25c0,0,0.52,0.97-0.23,1.49s-2.12,1.32-2.12,1.32l-3.9,2.58c0,0-1.49,0.54-0.63,2.41
	c0.63,1.38,4.82,0.57,5.91,0.46s4.42-0.8,4.42-0.8l5.56-0.92l2.06-13.02l-10.44,0.92L68.2,93.25L68.2,93.25z"/>
<path style="fill:#858585;" d="M98.17,117.28c-11.07,0-20.08-9.24-20.08-20.6s9.01-20.6,20.08-20.6s20.08,9.24,20.08,20.6
	S109.24,117.28,98.17,117.28z M98.17,79.9c-9.02,0-16.12,7.28-16.12,16.53s7.1,17.02,16.12,17.02s16.35-7.53,16.35-16.77
	S107.18,79.91,98.17,79.9L98.17,79.9z"/>
<path style="fill:#464C4F;" d="M98.28,118.96c-12.19,0-22.11-9.99-22.11-22.26s8.88-22.26,22.11-22.26
	c12.19,0,22.11,9.99,22.11,22.26S110.47,118.96,98.28,118.96z M98.16,77.83c-10.53,0-18.31,7.39-18.31,17.99s7.78,19.84,18.31,19.84
	s18.69-8.26,18.69-18.86s-8.16-18.96-18.69-18.96V77.83z"/>
<path style="fill:#9E9FA1;" d="M98.21,90.35c4.04-0.15,6.06,3.05,5.96,6.15c-0.09,2.81-2.31,5.84-5.71,5.76
	c-4.23-0.1-6.25-3.94-5.91-6.5C92.89,93.2,94.11,90.49,98.21,90.35L98.21,90.35z"/>
<polygon style="fill:#454B4E;" points="83.14,96.11 77.58,96.55 77.63,99.75 82.01,100.74 "/>
<path style="fill:#5E6367;" d="M91.17,98.96l3.89-0.25c0,0,1.23,1.38,3.54,1.33c1.82-0.04,3.64-1.92,3.59-4.18s-1.87-3.59-3.94-3.64
	S95.1,93.6,95.1,93.6l-3.2-1.08l-2.02,5.76l1.28,0.69L91.17,98.96z"/>
<path style="fill:#5F6467;" d="M69,63.71l-4.33,0.52c0,0-3.03,3.64-3.07,7.31c-0.04,3.55,1.74,6.62,1.74,6.62l8.89,0.4l-0.77-11.71
	l-2.45-3.14H69z"/>
<path style="fill:#99674F;" d="M44.19,53.12l-8.85,2.97l-1.79,4.66c0,0,1.07,1.89,1.64,2.05s3.38-1.43,3.38-1.43l5.94-2.3l5.37-5.73
	l-1.79-2.51l-3.89,2.3L44.19,53.12z"/>
<path style="fill:#464C4F;" d="M37.28,68.01c0,0-2.3-2.05-1.54-5.37s3.61-4.24,5.58-4.15c2.25,0.1,4.76,0.46,4.5,2.92
	s-2.1,1.64-2.46,1.64s-2.05-0.37-2.51,1.64c-0.51,2.25,2.99,3.92,2.99,3.92l-5.14,2.63L37.28,68.01L37.28,68.01z"/>
<path style="fill:#858585;" d="M29.44,120.24c-11.07,0-20.08-9.06-20.08-20.2s9.01-20.2,20.08-20.2s20.08,9.06,20.08,20.2
	S40.51,120.24,29.44,120.24z M29.44,83.59c-9.02,0-16.12,7.14-16.12,16.21s7.1,16.68,16.12,16.68s16.35-7.38,16.35-16.45
	S38.45,83.58,29.44,83.59L29.44,83.59z"/>
<path style="fill:#464C4F;" d="M29.55,121.89c-12.19,0-22.11-9.79-22.11-21.83s8.88-21.83,22.11-21.83
	c12.19,0,22.11,9.79,22.11,21.83S41.74,121.89,29.55,121.89z M29.43,81.56c-10.53,0-18.31,7.24-18.31,17.64s7.78,19.45,18.31,19.45
	s18.69-8.1,18.69-18.5S39.96,81.56,29.43,81.56z"/>
<path style="fill:#464C4F;" d="M29.03,98.91c0,0-0.72,1.97,0.65,2.47c1.47,0.54,2.2-1.52,2.2-1.52l8.24-24.31
	c0,0,0.79,0.41,1.1,0.76s20.54,21.88,21.37,22.53s1.6,0.95,3.44,0.95s5.75-0.3,5.75-0.3l4.15-12.27l3.16,1.3l2.03-7.22L46.45,68.98
	l-2.6-0.36l1.37,4.56c0,0,26.09,9.59,26.59,9.81s0.85,0.73,0.56,1.47s-4.12,11.11-4.12,11.11l-4.12-0.06L41.8,71.38l-4.91,1.58
	L29,98.92L29.03,98.91z"/>
<path style="fill:#858585;" d="M74.59,93.91c-2.45-0.28-5.57,0.97-5.63,4.96c-0.04,3.22,2.37,4.91,5.09,4.91
	c3.08,0,4.99-1.47,5.05-5.18C79.14,95.87,76.96,94.18,74.59,93.91z"/>
<path style="fill:#474D51;" d="M84.04,101.02c-0.13,0.42,1.12,2.19,1.49,2.24s6.6-3.82,6.67-4.2s-0.82-2.38-1.3-2.38
	S84.21,100.5,84.04,101.02L84.04,101.02z"/>
<path style="fill:#99674F;" d="M77.06,76.48l5.49-1.91c0,0,1.97,3.32,2.94,5.1s3.42,6.24,3.42,6.24l-1.82,2.9L77.06,76.48
	L77.06,76.48z"/>
<path style="fill:#BA8D68;" d="M48.33,49.89l-5.02-1.23c0,0-3.99,4.76-4.4,5.02s-3.17,0.41-3.69,1.02s-2.15,4.61-2.15,5.02
	s0.46,1.02,0.46,1.02s3.22-3.99,3.99-4.45c0.38-0.23,1.71-0.2,3.12,0.2s3.15,0.85,3.38,0.72c0.46-0.26,4.81-5.07,4.81-5.07
	L48.33,49.89L48.33,49.89z"/>
<path style="fill:#BA8D68;" d="M73.31,76.44l-0.46,3.78l8,11.22l6.16-3.82c0,0-3.19-5.31-4.16-6.98s-3.27-5.5-3.27-5.5L73.31,76.44z
	"/>
<polygon style="fill:#5E6367;" points="80.85,91.44 88.91,85.91 90.77,89.12 92.31,91.76 83.08,94.34 "/>
<path style="fill:#2F2F2F;" d="M83.22,64.6l-14.69-1.06l0.74,4.19c0,0-1.54,2-1.2,3.79s1.33,4.06,2.39,5.58
	c1.06,1.53,1.86,3.12,2.39,3.12s4.59-2.73,6.05-3.66s3.59-1.7,3.66-1.99s-0.67-1.67-0.67-2s1.8-2.65,1.8-2.65S83.22,64.6,83.22,64.6
	z"/>
<path style="fill:#06927F;" d="M73.51,51.02c0,0-3.77,5.35-5.62,7.9s-4.08,5.32-3.99,5.67s3.12,1.96,3.99,2.49s1.38,0.65,1.38,0.65
	l1.46-2.34l8.13-1.28l1.67,6.05c0,0,2.28,1.14,3.6,1.4s2.37-0.44,3.16-1.67s8.25-13.42,10-18.95c1.19-3.76,1.32-5.62,0.79-7.55
	s-1.34-3-1.34-3l-13.4-0.94l-9.83,11.58L73.51,51.02z"/>
<path style="fill:#5E6367;" d="M59.45,45.61c0,0,4.83,1.63,8.98,3.31s8.56,3.89,8.56,3.89s4.25-4.83,4.67-5.3
	S64.59,35.49,64.59,35.49l-5.15,10.13L59.45,45.61z"/>
<path style="fill:#00BDA3;" d="M64.12,39.52c0,0,2.57,0.26,6.25,1.89s6.62,2.99,8.35,4.1s2.94,2,2.94,2s2.96-3.47,3.45-3.94
	s-1.3-5.61-1.3-5.61l-15.75-5.09l-3.94,6.67L64.12,39.52z"/>
<path style="fill:#543930;" d="M52.99,19.01l-4.31,0.83l2.26,3.81c0,0,0.08-1.05,0.59-1.8c0.42-0.61,1.16-0.93,1.99-0.81
	s1.13,0.91,1.15,1.52c0.07,1.61-0.83,2.34-0.83,2.34l-0.13,2.02c0,0,0.14,1.07,1.03,1.28c1.06,0.25,1.74-0.22,1.74-0.22l3.89-3.17
	c0,0,1.5-5.85-0.15-7.13c-1.04-0.8-7.22,1.34-7.22,1.34L52.99,19.01z"/>
<path style="fill:#2F2F2F;" d="M48.09,20.58c0,0,1.09,2.19,1.68,3.38s1.92,3.45,1.92,3.45s-0.44,4.85-0.42,5.2
	c0.03,0.56,1.29,0.59,1.36,0.03c0.05-0.38,0.42-4.99,0.42-4.99s1.44-1.42,2.97-3.87c1.85-2.97,2.46-4.68,2.46-4.68l-1.83,0.42
	c0,0-1.22,2.58-2.03,3.91s-2.06,2.72-2.06,2.72s-0.77-1.54-1.42-2.82c-0.65-1.28-1.49-2.96-1.49-2.96l-1.57,0.2L48.09,20.58z"/>
<path style="fill:#49352E;" d="M42.09,31.12c0,0,0.97-0.54,1.58-0.97s1.2-0.87,1.6-0.39s-0.32,1.44-0.89,1.89
	c-0.57,0.45-1.27,0.96-1.46,0.84C42.22,32.02,42.08,31.12,42.09,31.12L42.09,31.12z"/>
<path style="fill:#2F2F2F;" d="M36.08,18.65c0,0,0.51,1.88,1.42,2.84s3.75,0.81,3.75,0.81l5.93-1.17c0,0,4.56-0.46,6.74-0.46
	s7.91,0.61,8.47,0.3s1.32-1.57,1.32-2.28v-1.67l-2.94-5.37l-4.41-5.73L44.7,6.12c0,0-0.87,0.49-1.98,1.27
	C41.71,8.1,41.3,8.71,41.3,8.71S36.08,18.65,36.08,18.65z"/>
<path style="fill:#5F6467;" d="M48.96,9.92l2.69,3.95l-2.03,1.06c0,0,1.01,1.93,1.32,1.98s8.47-4.31,8.47-4.31s1.01,1.17,2.18,2.48
	c1.08,1.22,2.13,1.93,2.13,1.93s-0.5-4.73-2.33-7.25s-3.3-3.45-3.3-3.45L56.37,5.9l-0.15,0.61c0,0,2.28,3.5,2.18,3.75
	c-0.05,0.13-1.18,0.71-2.33,1.27c-1.07,0.52-2.16,1.04-2.33,1.01C53.39,12.49,51,8.43,51,8.43L48.97,9.9L48.96,9.92z"/>
<path style="fill:#5F6467;" d="M38.61,12.97L30.6,18.4c0,0,0.25,0.48,0.81,0.51c1.88,0.1,4.46,0.03,8.57-0.05
	c8.21-0.15,8.82-0.05,8.87-0.46s-4.66-6.49-4.66-6.49S38.61,12.97,38.61,12.97z"/>
<path style="fill:#626667;" d="M39.73,22.55c-0.05,0.61-0.02,1.98,0.66,3.04c0.1,0.16,0.59,0,1.06,0.46
	c1.56,1.49,2.43,1.77,3.14,1.67s1.98-1.37,2.89-2.74s0.86-2.33,0.46-3.09s-0.96-1.01-2.38-0.91S39.8,21.72,39.73,22.55z"/>
<path style="fill:#9E9FA1;" d="M27,104.91c3.17,2.22,6.7,0.99,8.17-1.8c1.47-2.79,0.51-6.11-2.42-7.8s-6.03-0.43-7.45,2.01
	C24.01,99.53,24.14,102.91,27,104.91z"/>
<path style="fill:#9FA0A2;" d="M25.35,99.52c-0.11,0-0.23-0.03-0.33-0.08l-9.8-5.05c-0.36-0.18-0.49-0.62-0.31-0.97
	c0.18-0.35,0.62-0.5,0.97-0.31l9.8,5.05c0.36,0.18,0.49,0.62,0.31,0.97C25.86,99.38,25.61,99.52,25.35,99.52z"/>
<path style="fill:#9FA0A2;" d="M26.02,97.27c-0.18,0-0.35-0.06-0.49-0.19l-7.4-6.91c-0.29-0.27-0.31-0.73-0.03-1.02
	c0.27-0.29,0.73-0.31,1.02-0.04l7.4,6.91c0.29,0.27,0.31,0.73,0.03,1.02C26.41,97.19,26.21,97.27,26.02,97.27z"/>
<path style="fill:#9FA0A2;" d="M27.88,95.84c-0.26,0-0.5-0.14-0.64-0.38l-5.03-9.22c-0.19-0.35-0.06-0.79,0.29-0.98
	s0.79-0.06,0.98,0.29l5.03,9.22c0.19,0.35,0.06,0.79-0.29,0.98c-0.11,0.06-0.23,0.09-0.35,0.09H27.88z"/>
<path style="fill:#9FA0A2;" d="M19.07,111.69c-0.18,0-0.37-0.07-0.51-0.21c-0.28-0.28-0.28-0.74,0-1.02l7.08-7.08
	c0.28-0.28,0.74-0.28,1.02,0s0.28,0.74,0,1.02l-7.08,7.08C19.44,111.62,19.25,111.69,19.07,111.69z"/>
<path style="fill:#9FA0A2;" d="M38.29,113.15c-0.22,0-0.44-0.1-0.58-0.29l-5.74-7.81c-0.24-0.32-0.17-0.78,0.15-1.01
	c0.32-0.24,0.77-0.17,1.01,0.15l5.74,7.81c0.24,0.32,0.17,0.78-0.15,1.01C38.59,113.1,38.44,113.15,38.29,113.15z"/>
<path style="fill:#9FA0A2;" d="M42.19,108.94c-0.14,0-0.28-0.04-0.41-0.13l-7.37-5.08c-0.33-0.23-0.41-0.68-0.18-1.01
	s0.68-0.41,1.01-0.18l7.37,5.08c0.33,0.23,0.41,0.68,0.18,1.01C42.65,108.83,42.42,108.94,42.19,108.94z"/>
<path style="fill:#9FA0A2;" d="M44.57,102.56c0,0-0.07,0-0.1,0l-9.85-1.41c-0.4-0.06-0.67-0.42-0.61-0.82
	c0.06-0.39,0.42-0.66,0.82-0.61l9.85,1.41c0.4,0.06,0.67,0.42,0.61,0.82c-0.05,0.36-0.36,0.62-0.71,0.62L44.57,102.56z"/>
<path style="fill:#5E6367;" d="M32.41,84.75c-0.56,0.13-4.51,12.91-4.32,13.72s4.45,2.26,4.89,1.94s4.45-13.39,4.45-13.79
	C37.43,85.87,33.73,84.43,32.41,84.75L32.41,84.75z"/>
<path style="fill:#E0E0E0;" d="M41.25,23.01c0,0.69,0.71,1.83,1.37,2.43s1.37,1.01,1.93,0.71c0.36-0.2,1.53-1.41,1.93-2.43
	c0.21-0.55,0.08-1.15-0.1-1.47c-0.16-0.28-1.28-0.2-2.44,0c-1.32,0.22-2.69,0.6-2.69,0.77L41.25,23.01z"/>
<path style="fill:#858585;" d="M30.6,18.39c-0.38-0.88,2.48-3.53,6.85-6.85C40.19,9.46,41.3,8.7,41.3,8.7s2.48-0.25,2.79,0
	s2.08,2.59,2.08,2.84s-4.97,3.09-8.11,4.41s-7.15,3.14-7.45,2.43L30.6,18.39z"/>
<path style="fill:#858585;" d="M44.7,6.12l3.45,4.66c0,0,3.75-1.93,5.98-2.89s3.95-1.57,3.95-1.57s-1.57-2.17-6.49-2.23
	C47.48,4.04,44.69,6.12,44.7,6.12L44.7,6.12z"/>
<path style="fill:#00BDA3;" d="M70.73,65.38c0,0,6.75-11.48,7.16-11.93s5.79-6.14,6.8-6.8s5.52-1.88,6.25-1.68s0.81,4.16,0.1,6.09
	S80.43,70.05,80.43,70.05s-4.32-1.57-6.75-3c-1.26-0.73-2.95-1.68-2.95-1.68V65.38z"/>
<path style="fill:#2F2F2F;" d="M82.71,94.44c0.05-0.68,3.35-1.38,5.42-2c2.36-0.71,4.12-0.82,4.12-0.82s1.56,2.38,1.41,3.16
	s-3.79,2.97-5.87,4.46s-7.09,4.11-8.73,4.38c-1.11,0.19-1.37-1.56-0.45-2.93s3.64-4.46,4.01-4.9s0.04-0.86,0.08-1.34L82.71,94.44z"
	/>
<path style="fill:#858585;" d="M72.75,85.77c-0.05-0.29-2.62-1.27-3.3-1.24s-3.13,7.54-2.99,8.12s2.86,1.45,3.3,1.24
	S72.82,86.14,72.75,85.77z"/>
<path style="fill:#5E6367;" d="M37.18,67.52c-0.44,0.19-1.03,0.89-1.42,2.84c-0.33,1.64,0.51,2.61,0.68,2.74s4.37,0.88,5.04,0.98
	s20.14,21.43,20.45,21.49s4.8,0.19,4.9-0.03S46.14,73.15,45.92,72.86c-0.34-0.44-0.4-0.93-0.09-1.34s1.06-0.22,1.6-0.07
	s6.97,2.22,7.54,2.4c1.79,0.56,4.28,1.31,4.46,0.77c0.42-1.31-5.52-3.04-5.52-3.04s-7.27-2.59-9.39-3.33s-6.24-1.22-7.34-0.75V67.52
	z"/>
<path style="fill:#9FA0A2;" d="M102.18,112.01c-0.32,0-0.62-0.22-0.7-0.55l-1.9-7.77c-0.09-0.39,0.14-0.78,0.53-0.87
	c0.39-0.09,0.78,0.14,0.87,0.53l1.9,7.77c0.09,0.39-0.14,0.78-0.53,0.87C102.29,112,102.23,112.01,102.18,112.01z"/>
<path style="fill:#9FA0A2;" d="M108.05,108.4c-0.21,0-0.42-0.09-0.56-0.26l-4.77-5.81c-0.25-0.31-0.21-0.76,0.1-1.02
	c0.31-0.25,0.76-0.21,1.02,0.1l4.77,5.81c0.25,0.31,0.21,0.76-0.1,1.02C108.37,108.35,108.21,108.4,108.05,108.4z"/>
<path style="fill:#9FA0A2;" d="M111.89,103.43c-0.12,0-0.23-0.03-0.34-0.09l-6.16-3.34c-0.35-0.19-0.48-0.63-0.29-0.98
	c0.19-0.35,0.63-0.48,0.98-0.29l6.16,3.34c0.35,0.19,0.48,0.63,0.29,0.98C112.4,103.29,112.15,103.43,111.89,103.43z"/>
<path style="fill:#9FA0A2;" d="M95.23,90.65c-0.25,0-0.5-0.13-0.63-0.37l-4.18-7.45c-0.19-0.35-0.07-0.79,0.28-0.98
	c0.35-0.2,0.79-0.07,0.98,0.28l4.18,7.45c0.19,0.35,0.07,0.79-0.28,0.98C95.47,90.62,95.35,90.65,95.23,90.65z"/>
<path style="fill:#2F2F2F;" d="M47.21,44.11c0,0-3.89,4.25-3.89,4.56s5.94,5.07,6.3,5.17s4.45-4.4,4.45-4.4l-6.86-5.32V44.11z"/>
<path style="fill:#858585;" d="M46.63,44.3c-0.25-0.58,6.44-9.11,6.99-10.69s2.95-5.91,4.21-7.18s3.17-2.51,6.03-2.3
	s9.83,3.14,13.22,4.52c3.38,1.37,13.32,6.03,16.17,8.14s3.49,3.59,3.49,3.59s-5.28,0.12-7.19,0.63c-2.75,0.74-4.44,2.54-4.44,2.54
	s-1.24-1.36-3.59-2.64c-4.91-2.68-11.41-5.75-11.88-5.75s-5.51,5.17-6.56,6.33s-7.19,9.45-7.93,9.56S46.94,45.01,46.63,44.3
	L46.63,44.3z"/>
</svg>
