<?xml version="1.0" encoding="utf-8"?>
<!-- Generator: Adobe Illustrator 26.3.1, SVG Export Plug-In . SVG Version: 6.00 Build 0)  -->
<svg version="1.1" id="a" xmlns="http://www.w3.org/2000/svg" xmlns:xlink="http://www.w3.org/1999/xlink" x="0px" y="0px"
	 viewBox="0 0 128 128" style="enable-background:new 0 0 128 128;" xml:space="preserve">
<path style="fill:#5E5E5E;" d="M24.05,78.61l-15.9,6.45c0,0,6.17,19.86,23.83,30.49c13.23,7.96,35.27,12.5,57.23,3.7
	c21.44-8.59,31.12-26.82,33.44-42.05c4.71-30.97-9.38-47.14-9.38-47.14l-10,26.95l-14.06,45.27l-32.92,9.77L24.06,78.61H24.05z"/>
<path style="fill:#464646;" d="M63.83,120.79c-11.86,0-26.38-3.46-38.06-12.86C12.95,97.63,4.95,84.55,4.34,66.78
	C3.7,48.23,9.95,32.17,23.89,19.28c8.04-7.43,23.4-16.01,42.01-15.09c14.99,0.75,30.17,3.73,45.61,23.32
	c17.9,22.71,9.26,59.5-2.57,73.56c-9.42,11.19-25.54,19.72-45.09,19.72L63.83,120.79z M65.27,28.63c-9.6,0-18.5,4.24-23.27,8.64
	c-8.22,7.59-12.53,17.78-12.16,28.69c0.36,10.43,5.03,20.24,12.48,26.23c18.74,15.06,40.72,4.31,48.33-4.79
	c6.92-8.27,13.77-30.57-0.83-47.07l0,0c-6.45-7.29-14.17-11.21-22.94-11.65c-0.54-0.03-1.08-0.04-1.61-0.04L65.27,28.63z"/>
<path style="fill:#2F2F2F;" d="M27.64,73.29l27.51,21.48l23.57-1.41l16.27-17.3l4.14-25.76c0,0,6.98,13.45,2.73,28.28
	c-2.75,9.59-10.95,21.38-25.84,25.93c-14.7,4.49-28.7,0.99-38.58-8.9C28.39,86.54,27.64,73.29,27.64,73.29z"/>
<path style="fill:#676C70;" d="M63.34,101.9c-7.34,0-15.09-2.29-22.33-8.11c-7.94-6.38-12.91-16.77-13.29-27.77
	c-0.4-11.49,4.14-22.21,12.77-30.19c4.98-4.6,14.91-9.76,26.44-9.19c9.28,0.47,17.75,4.74,24.49,12.36l0,0
	c15.42,17.42,8.17,40.98,0.86,49.72c-5.81,6.95-16.83,13.2-28.94,13.2L63.34,101.9z M65.02,36.16c-7.57,0-14.6,3.34-18.36,6.82
	c-6.48,5.99-9.89,14.03-9.59,22.63c0.28,8.23,3.96,15.97,9.85,20.69c14.78,11.88,32.13,3.4,38.14-3.78
	c5.46-6.53,10.86-24.12-0.66-37.14l0,0c-5.09-5.75-11.18-8.84-18.1-9.19c-0.43-0.02-0.85-0.03-1.27-0.03L65.02,36.16z"/>
<polygon style="fill:#858585;" points="32.42,78.07 54.02,71.91 52.41,66.82 29.38,70.93 "/>
<polygon style="fill:#858585;" points="67.86,77.25 67.59,99.67 61.43,99.31 63.21,77.26 "/>
<polygon style="fill:#858585;" points="73.66,74.05 90.71,87.89 93.48,84.23 74.82,69.41 "/>
<polygon style="fill:#858585;" points="73.17,58.34 76.74,60.75 94.86,49.24 90.94,42.27 "/>
<polygon style="fill:#858585;" points="50.18,32.45 41.62,37.18 54.02,54.41 60.09,50.39 "/>
<polygon style="fill:#B0B0B0;" points="45.18,33.26 57.69,52.51 64.38,49.68 59.91,28.08 "/>
<polygon style="fill:#B0B0B0;" points="29.29,61.11 30.81,74.59 50.99,69.41 50.81,61.67 "/>
<polygon style="fill:#B0B0B0;" points="57.23,76.46 50.97,96.14 51.79,98.51 63.75,100.29 64.64,78.07 "/>
<polygon style="fill:#B0B0B0;" points="75.62,71.28 92.85,84.76 98.3,71.73 77.23,65.48 "/>
<polygon style="fill:#B0B0B0;" points="75.62,57.54 94.55,45.13 85.18,35.39 71.09,53.45 "/>
<path style="fill:#B0B0B0;" d="M63.32,102.88c-7.53,0-15.48-2.35-22.91-8.32c-8.15-6.55-13.25-17.2-13.64-28.49
	c-0.41-11.79,4.25-22.79,13.1-30.97c5.11-4.72,15.3-10.01,27.12-9.43c9.52,0.48,18.21,4.86,25.13,12.68l0,0
	c15.81,17.87,8.38,42.04,0.88,51c-5.96,7.13-17.26,13.54-29.69,13.54L63.32,102.88z M65.23,29.83c-9.28,0-17.88,4.1-22.49,8.35
	c-7.94,7.34-12.12,17.19-11.75,27.73c0.35,10.08,4.86,19.56,12.06,25.35c18.11,14.55,39.37,4.16,46.72-4.63
	c6.68-8,13.31-29.55-0.81-45.5l0,0c-6.23-7.05-13.7-10.83-22.18-11.26C66.26,29.84,65.74,29.83,65.23,29.83L65.23,29.83z"/>
<path style="fill:#B0B0B0;" d="M57.25,51.52c-6.8,2.74-9.5,13.2-5.79,20.31c3.7,7.1,14,9.75,20.31,5.38
	c6.91-4.77,8.53-14.12,4.88-20.21C73.14,51.14,64.8,48.47,57.25,51.52z"/>
<path style="fill:#464C4F;" d="M63.71,60.01c-2.9,0.13-4.53,1.91-4.47,4.47c0.06,2.38,2.03,4.23,4.52,4.23s4.29-1.8,4.35-4.29
	S66.31,59.9,63.71,60.01L63.71,60.01z"/>
<path style="fill:#5E6367;" d="M65.94,53.75c-1.53,0-2.76,1.23-2.7,2.7s1.45,2.64,2.67,2.64s2.73-1.1,2.73-2.51s-1.04-2.82-2.7-2.82
	L65.94,53.75z"/>
<path style="fill:#5E6367;" d="M72.17,61.29c-1.68,0-2.61,1.57-2.55,2.73s1.04,2.61,2.67,2.55s2.55-1.45,2.61-2.73
	S73.68,61.29,72.17,61.29z"/>
<path style="fill:#5E6367;" d="M68.4,69.99c-1.74-0.06-2.74,1.28-2.78,2.67c-0.06,1.8,1.62,2.73,2.84,2.73s2.61-0.87,2.61-2.44
	S70.2,70.05,68.4,69.99z"/>
<path style="fill:#5E6367;" d="M57.67,68.13c-1.62,0.06-2.49,1.39-2.44,2.78c0.05,1.22,0.99,2.61,2.61,2.61s2.61-1.28,2.61-2.78
	S59.23,68.07,57.67,68.13z"/>
<path style="fill:#5E6367;" d="M56.46,57.46c-1.74,0.06-2.62,1.39-2.67,2.73c-0.06,1.62,1.33,2.84,2.78,2.84s2.67-1.16,2.67-2.67
	S58.43,57.39,56.46,57.46z"/>
<path style="fill:#E0E0E0;" d="M51.11,71.57c-0.07-0.12-6.3-11.67,4.43-19.36c11.12-7.97,19.45,2.29,19.54,2.4
	c0.34,0.42,0.63,1.19,0.21,1.53s-1.03,0.28-1.38-0.14c-0.3-0.37-7.62-9.09-17.23-2.2c-9.33,6.69-3.97,17.19-3.73,17.64
	c0.25,0.48,0.11,1.19-0.41,1.32C51.71,72.96,51.29,71.91,51.11,71.57z"/>
<path style="fill:#E0E0E0;" d="M57.17,52.66c-0.32,0-0.64-0.16-0.83-0.45L45.51,35.17c-0.29-0.46-0.16-1.06,0.3-1.35
	c0.46-0.29,1.06-0.16,1.35,0.3l10.83,17.04c0.29,0.46,0.16,1.06-0.3,1.35C57.53,52.61,57.35,52.66,57.17,52.66z"/>
<path style="fill:#E0E0E0;" d="M71.69,53.66c-0.21,0-0.42-0.07-0.6-0.21c-0.43-0.33-0.5-0.95-0.17-1.37L83.8,35.57
	c0.33-0.43,0.95-0.5,1.37-0.17c0.43,0.33,0.5,0.95,0.17,1.37L72.46,53.28C72.27,53.53,71.98,53.66,71.69,53.66z"/>
<path style="fill:#E0E0E0;" d="M49.83,62.64L49.83,62.64l-18.3-0.2c-0.54,0-0.97-0.45-0.97-0.99s0.44-0.97,0.98-0.97h0.01l18.29,0.2
	c0.54,0,0.97,0.45,0.97,0.99S50.37,62.64,49.83,62.64z"/>
<path style="fill:#E0E0E0;" d="M51.29,96.19c-0.11,0-0.21-0.02-0.32-0.05c-0.51-0.18-0.78-0.73-0.61-1.24L56.42,77
	c0.64,0.41,1.83,0.9,1.84,0.87l-6.04,17.66C52.08,95.94,51.7,96.19,51.29,96.19z"/>
<path style="fill:#FFFFFF;" d="M83.85,94.21c-0.31,0-0.61-0.15-0.8-0.42c-0.31-0.44-0.2-1.05,0.24-1.36
	c0.05-0.03,4.66-3.13,7.58-7.2c2.82-3.94,4.96-9.41,4.98-9.46c0.2-0.5,0.77-0.74,1.27-0.55c0.5,0.2,0.75,0.77,0.55,1.27
	c-0.09,0.22-2.14,5.66-5.27,9.95c-3.12,4.28-7.79,7.45-7.99,7.59C84.24,94.15,84.04,94.21,83.85,94.21z"/>
<path style="fill:#FFFFFF;" d="M29.33,75.1c-0.4,0-0.77-0.24-0.92-0.63c-0.08-0.2-7.51-20.65,9.23-37.5
	c17.11-17.22,37.1-9.63,37.3-9.55c0.5,0.2,0.75,0.77,0.55,1.27s-0.76,0.75-1.27,0.55c-0.05-0.02-4.81-1.84-11.5-1.63
	c-8.94,0.29-16.91,3.91-23.7,10.73c-15.86,15.96-8.86,35.23-8.79,35.43c0.19,0.51-0.07,1.07-0.57,1.26
	C29.55,75.07,29.43,75.09,29.33,75.1L29.33,75.1z"/>
<path style="fill:#707070;" d="M41.31,24.43C20.69,36,14.28,60.05,21.45,80.93c1.78,5.18,2.18,8.97-1.28,10.76s-7.08-2.98-8.07-5.38
	C2.88,63.89,8.24,30.05,38.62,13.92c29.21-15.5,62.4,0.49,71.41,21.32c2.49,5.74,0.31,8.33-1.19,9.05
	c-4.76,2.27-6.65-3.41-7.96-5.39C85.58,15.74,60.71,13.56,41.31,24.43L41.31,24.43z"/>
<path style="fill:#707070;" d="M109.16,48.63c-3.8,1.11-4.95,5.69-3.48,9.7c1.47,4.02,4.62,4.55,7.23,3.61s3.81-3.48,3.21-7.7
	S112.37,47.68,109.16,48.63L109.16,48.63z"/>
</svg>
