<?xml version="1.0" encoding="utf-8"?>
<!-- Generator: Adobe Illustrator 26.3.1, SVG Export Plug-In . SVG Version: 6.00 Build 0)  -->
<svg version="1.1" id="a" xmlns="http://www.w3.org/2000/svg" xmlns:xlink="http://www.w3.org/1999/xlink" x="0px" y="0px"
	 viewBox="0 0 128 128" style="enable-background:new 0 0 128 128;" xml:space="preserve">
<path style="fill:#858585;" d="M67.08,121.59c-14.92,0-31.12-0.21-36.37-1.21c-5.03-0.96-20.34-3.87-21.74-20.41
	C8.02,88.76,7.64,76.8,7.64,58.69v-0.03c0.01-0.93,0.3-22.81,1.34-32.4C9.65,20.08,13.09,9.5,28.65,8.15
	C39.3,7.22,50.34,7.29,60.09,7.36c2.3,0.01,4.52,0.03,6.63,0.03c2.33,0,5.22-0.12,8.56-0.27c5.74-0.25,12.24-0.52,18.6-0.3
	c7.74,0.28,15.03,2.98,19.01,7.06c4.39,4.49,6.65,11.65,6.71,21.29c0.04,6.65,0.27,13.84,0.45,19.62c0.11,3.52,0.2,6.63,0.24,8.99
	c0.19,11.39-0.66,28.84-1.53,36.27c-0.9,7.77-3.13,16.08-12.85,18.79c-9.07,2.53-22,2.73-25.75,2.73h-2.94
	c-3.2,0.03-6.64,0.04-10.14,0.04L67.08,121.59z M11.73,58.7c0,17.98,0.38,29.84,1.32,40.93c1.01,11.91,10.37,15.19,18.42,16.73
	c6.85,1.3,36.12,1.16,45.73,1.11h2.96c7.45-0.01,17.83-0.69,24.65-2.59c6.95-1.94,8.98-7.53,9.88-15.32
	c0.85-7.3,1.69-24.49,1.5-35.72c-0.04-2.35-0.13-5.44-0.24-8.93c-0.18-5.8-0.4-13.02-0.45-19.72c-0.06-8.53-1.92-14.74-5.55-18.45
	c-3.23-3.3-9.6-5.59-16.23-5.83c-6.2-0.22-12.62,0.06-18.28,0.3c-3.39,0.15-6.32,0.27-8.74,0.27c-2.12,0-4.35-0.01-6.66-0.03
	c-9.65-0.06-20.6-0.13-31.06,0.78c-12,1.04-15.3,8.45-15.95,14.47C12.02,36.01,11.72,58.05,11.73,58.7L11.73,58.7z"/>
<path style="fill:#5F6468;" d="M120.04,54.78c-0.04-1.26-0.08-2.6-0.12-3.98l-2.25-0.07c0,0,0.36-17.05-1.4-26.05
	c-2.26-11.58-13.72-14.54-18.84-15.47S80.8,8.86,80.8,8.86L80.73,6.9c-1.87,0.07-3.72,0.14-5.47,0.21
	c-3.34,0.14-6.23,0.27-8.56,0.27c-2.11,0-4.33-0.01-6.63-0.03c-3.19-0.02-6.52-0.04-9.93-0.02l0.08,2.12c0,0-18.14,0.35-22.68,0.93
	s-8.14,1.98-11.28,4.88c-3.74,3.47-4.71,8.87-5.12,11.63c-0.66,4.5-1.16,24.07-1.16,24.07l-2.21,0.09c-0.1,4.22-0.14,7.28-0.14,7.61
	v0.03c0,8.95,0.09,16.39,0.3,22.99l2.05,0.1c0,0-0.23,8.72,1.16,19.07c1.4,10.35,9.74,14.89,13.93,16.17s16.19,2.43,16.19,2.43
	l0.05,1.78c7.25,0.28,16.73,0.36,25.76,0.36c3.5,0,6.94-0.01,10.14-0.03h2.94c1.18-0.01,3.26-0.03,5.84-0.14l0.05-2.21
	c0,0,15.23-0.81,21.51-3.6c6.28-2.79,7.44-7.68,8.49-11.86c1.05-4.19,1.63-20.82,1.63-20.82l2.26-0.07
	c0.28-6.57,0.44-13.55,0.35-19.1C120.24,61.4,120.14,58.29,120.04,54.78L120.04,54.78z M114.69,99.56
	c-0.9,7.79-2.93,13.38-9.88,15.32c-6.81,1.9-17.2,2.58-24.65,2.58H77.2c-9.61,0.06-38.88,0.2-45.73-1.1
	c-8.05-1.53-17.42-4.82-18.42-16.73c-0.94-11.08-1.32-22.94-1.32-40.93c0-0.65,0.31-22.69,1.31-32c0.65-6.03,3.95-13.43,15.95-14.47
	c10.46-0.91,21.4-0.84,31.06-0.78c2.31,0.01,4.54,0.03,6.66,0.03c2.42,0,5.35-0.13,8.74-0.27c5.66-0.24,12.08-0.52,18.28-0.3
	c6.63,0.24,13,2.52,16.23,5.83c3.62,3.71,5.49,9.92,5.55,18.45c0.04,6.7,0.27,13.92,0.45,19.72c0.11,3.5,0.2,6.58,0.24,8.93
	c0.19,11.23-0.65,28.43-1.5,35.72L114.69,99.56z"/>
<path style="fill:#DE2B01;" d="M33.66,48.25l0.85,10.31l7.75-1.19c0,0,2.3-7.07,7.24-10.99s9.02-4.81,15.75-4.64
	s12.87,1.83,17.04,6.86s4.94,8.94,4.94,8.94l15.25,2.3L94.05,33.1L73.1,22.79l-24.02,1.96L33.66,48.26L33.66,48.25z"/>
<path style="fill:#DE2B01;" d="M31.18,64.5l-19.25,7.45c0,0,1.08,20.35,16.24,33.38c14.1,12.13,24.57,14.16,36.28,14.05
	c11.7-0.12,27.68-2.61,41.02-17.58c13.33-14.95,11.7-31.09,11.7-31.09l-28.85-1.27c0,0-1.57,9.1-7.02,13.62S73.1,88,73.1,88
	l-9.23,5.07l-6.58-4.91c0,0-5.91-2.41-10.43-7.28c-4.52-4.87-5.05-10.27-5.05-10.27l-10.62-6.12L31.18,64.5z"/>
<path style="fill:#FF3D00;" d="M65.21,11.8c-8.95-0.08-25.87,2.81-37.85,15.57S11.89,51.99,12.28,63.86s26.37-8.17,26.37-8.17
	s1.62-5.76,5.83-10.58s9.15-5.76,9.73-6.35s-0.58-9.54,0.19-13.72s22.14-0.8,22.14-0.8s0.27,13.96,0.22,14.84
	c-0.03,0.55,5.61,2.59,9.65,7.86c4.41,5.74,5.35,11,5.35,11l25.49-1.26c0,0-0.82-16.1-14.89-30.16
	c-14.6-14.6-31.75-14.65-37.17-14.69L65.21,11.8z"/>
<path style="fill:#9D9D9D;" d="M18.53,57.67l-4.01-3.41c0,0-2.35,0.68-3.5,0.68s-2.9-0.09-3.88,0s-1.58,0.3-1.49,2.3
	S5.91,69.1,6.03,70.42s1.15,2.35,2.35,2.35s6.78-0.51,6.78-0.51S18.53,57.67,18.53,57.67z"/>
<path style="fill:#9D9D9D;" d="M30.56,63.81l10.11-7.68c0,0,2.77,0.73,2.77,1.83s-0.55,2.94-0.55,6.36s0.34,5.97,0.38,6.87
	c0.09,1.83-3.11,1.58-3.11,1.58S30.56,63.81,30.56,63.81z"/>
<path style="fill:#B0B0B0;" d="M57.22,113.5l-2.06,2.08c0,0,0.76,7.06,2.07,7.69c1.39,0.66,4.84,0.19,7.87,0.27s6.02,0.6,7.25,0
	s1.39-2.43,1.55-3.78s0.61-4.44,0.61-4.44L57.2,113.5H57.22z"/>
<path style="fill:#B0B0B0;" d="M60.21,96.65l-4.07-5.94c0,0,0.45-3.03,1.21-3.14c1.59-0.24,3.69,0.83,7.84,0.83
	c3.43,0,7.19-0.82,7.8-0.6c1,0.37,1.41,3.17,1.41,3.17L60.21,96.65L60.21,96.65z"/>
<path style="fill:#9D9D9D;" d="M106.69,59.44l5.96-5.05l2.9,0.32c0.97,0.11,1.72,0.27,1.72,0.27s2.95,0.03,3.6,0.64
	c1.13,1.07,0.97,5.42,0.86,9.13c-0.08,2.63-0.05,8.86-0.05,9.39s-0.54,1.66-1.5,1.56s-3.27-1.13-3.27-1.13s-1.56-0.91-3.33-1.4
	s-6.87-13.74-6.87-13.74L106.69,59.44z"/>
<path style="fill:#9D9D9D;" d="M95.58,59.44l-6.82-3.01c0,0-2.04,1.13-2.42,1.77s0.21,4.23,0.21,7.84s-0.59,6.98,0.05,7.14
	s2.52-0.32,2.52-0.32l8.43-8.27l-1.99-5.15L95.58,59.44z"/>
<path style="fill:#9D9D9D;" d="M57.3,39.66c0,0,0.57,1.15,0.8,2.12s0.29,2.02,2.12,1.96s3.01-0.44,5.53-0.44s5.1,0.48,6.07,0.42
	s1.03-1.5,1.32-2.24s0.61-1.71,0.61-1.71l-8.83-4.18C64.92,35.59,57.3,39.66,57.3,39.66z"/>
<path style="fill:#9D9D9D;" d="M56.84,17.93l-1.86-2.94c0,0,0.37-2.5,0.31-3.65s-0.43-3.15-0.46-4.24
	c-0.06-2.01,1.26-2.69,2.35-2.69s5.1-0.17,8.71-0.11s6.36-0.17,7.85-0.17s2.52,0.69,2.52,2.29s-0.11,5.33-0.11,5.33l-0.02,3.1
	l-19.3,3.09L56.84,17.93z"/>
<path style="fill:#FF9270;" d="M33.3,26.1c-7.59,6.45-11.32,15.27-8.04,17.21c3.28,1.94,5.41-6.88,11.72-12.12
	c7.9-6.56,15.47-7.97,13.66-11.32S38.18,21.95,33.3,26.1L33.3,26.1z"/>
<path style="fill:#E0E0E0;" d="M54.98,14.99c0,0,4.63-1.29,10.4-1.24s10.75,1.1,10.75,1.1s0.67,6.97,0.31,12.72
	c-0.46,7.4-2.69,12.21-2.69,12.21s-4.47-1.15-8.43-1.03s-8.03,0.92-8.03,0.92s-2.35-5.22-2.69-12.61
	C54.27,20.01,54.98,15,54.98,14.99L54.98,14.99z"/>
<path style="fill:#E0E0E0;" d="M88.76,56.43c0,0,0.98-2.05,10.31-2.79c10.15-0.81,13.58,0.75,13.58,0.75s1.23,4.72,1.18,9.77
	s-0.27,9.02-0.27,9.02s-7.68-1.83-13.96-1.4s-10.47,1.07-10.47,1.07s1.4-4.46,1.29-8.59S88.76,56.42,88.76,56.43L88.76,56.43z"/>
<path style="fill:#E0E0E0;" d="M56.14,90.71c0,0,3.69,1.1,8.94,1.17c5.25,0.06,9.33-0.91,9.33-0.91s0.58,7.25,0.71,13.21
	s-0.58,11.14-0.58,11.14s-4.79,1.17-9.39,1.04s-9.97-0.78-9.97-0.78s-1.42-6.09-1.04-13.73C54.46,95.64,56.15,90.71,56.14,90.71
	L56.14,90.71z"/>
<path style="fill:#E0E0E0;" d="M14.52,54.25c0,0,5.38-1.88,12.93-1.41s13.23,3.29,13.23,3.29s-1.37,3.11-1.28,7.81
	s0.77,8.83,0.77,8.83s-9-0.64-13.57-0.64s-11.43,0.13-11.43,0.13s-1.07-5.5-1.19-9.98c-0.12-4.05,0.55-8.02,0.55-8.02L14.52,54.25z"
	/>
<path style="fill:#FF3D00;" d="M16.59,75.27c0,0,5.34-0.76,12.5-0.38c7.15,0.38,10.49,0.86,10.49,0.86s1.81,4.2,6.49,8.78
	c4.67,4.58,9.44,6.01,9.44,6.01s-2.15,3.66-3.01,11.1s-0.43,10.26-0.43,10.26s-16.05-2.49-25.94-14.98
	C17.47,85.99,16.59,75.27,16.59,75.27z"/>
<path style="fill:#FF3D00;" d="M90.13,75.46c0,0-2.58,6.3-6.58,10.21c-4.01,3.91-9.15,5.3-9.15,5.3s2.11,8,2.49,12.29
	s0.46,9.02,0.46,9.02s15.49-3.56,24.9-13.45c11.26-11.83,11.8-22.02,11.8-22.02s-3.7-2.3-12-2.68S90.13,75.47,90.13,75.46
	L90.13,75.46z"/>
</svg>
