<?xml version="1.0" encoding="utf-8"?>
<!-- Generator: Adobe Illustrator 26.3.1, SVG Export Plug-In . SVG Version: 6.00 Build 0)  -->
<svg version="1.1" id="Layer_1" xmlns="http://www.w3.org/2000/svg" xmlns:xlink="http://www.w3.org/1999/xlink" x="0px" y="0px"
	 viewBox="0 0 128 128" style="enable-background:new 0 0 128 128;" xml:space="preserve">
<g id="nauseated-face">
	
		<radialGradient id="SVGID_1_" cx="64" cy="3168.8999" r="56.9597" gradientTransform="matrix(1 0 0 1 0 -3106)" gradientUnits="userSpaceOnUse">
		<stop  offset="0" style="stop-color:#FDE030"/>
		<stop  offset="0.1899" style="stop-color:#F0DD36"/>
		<stop  offset="0.5342" style="stop-color:#D0D648"/>
		<stop  offset="0.991" style="stop-color:#9DCC64"/>
		<stop  offset="1" style="stop-color:#9CCC65"/>
	</radialGradient>
	<path style="fill:url(#SVGID_1_);" d="M64,118.8c-27.9,0-58-17.5-58-55.9S36.1,7,64,7c15.5,0,29.8,5.1,40.4,14.4
		C115.9,31.6,122,46,122,62.9s-6.1,31.2-17.6,41.4C93.8,113.6,79.4,118.8,64,118.8z"/>
</g>
<path style="fill:#789E46;" d="M111.89,29.67c5.33,8.6,8.11,18.84,8.11,30.23c0,16.9-6.1,31.2-17.6,41.4
	c-10.6,9.3-25,14.5-40.4,14.5c-18.06,0-37.04-7.35-48.18-22.94C24.58,110.52,44.81,118.8,64,118.8c15.4,0,29.8-5.2,40.4-14.5
	C115.9,94.1,122,79.8,122,62.9C122,50.16,118.53,38.84,111.89,29.67z"/>
<g id="nauseated-face-2">
	<g id="blush" style="opacity:0.6;">
		
			<radialGradient id="SVGID_00000104707659901135930060000009537211145974725531_" cx="345.2334" cy="-1240.4" r="15.8" gradientTransform="matrix(0.9 0 0 -0.8 -215.3 -909.8)" gradientUnits="userSpaceOnUse">
			<stop  offset="0" style="stop-color:#ED7770"/>
			<stop  offset="0" style="stop-color:#ED7770"/>
			<stop  offset="0.2" style="stop-color:#ED7770;stop-opacity:0.9"/>
			<stop  offset="0.3" style="stop-color:#ED7770;stop-opacity:0.7"/>
			<stop  offset="0.5" style="stop-color:#ED7770;stop-opacity:0.6"/>
			<stop  offset="0.7" style="stop-color:#ED7770;stop-opacity:0.3"/>
			<stop  offset="0.9" style="stop-color:#ED7770;stop-opacity:0"/>
		</radialGradient>
		<ellipse style="fill:url(#SVGID_00000104707659901135930060000009537211145974725531_);" cx="94" cy="81.3" rx="13" ry="11.9"/>
	</g>
	<g id="blush-2" style="opacity:0.6;">
		
			<radialGradient id="SVGID_00000079483636596450961120000001521441320240082071_" cx="277.9334" cy="-1242.2" r="15.8" gradientTransform="matrix(0.9 0 0 -0.8 -215.3 -909.2)" gradientUnits="userSpaceOnUse">
			<stop  offset="0" style="stop-color:#ED7770"/>
			<stop  offset="0" style="stop-color:#ED7770"/>
			<stop  offset="0.2" style="stop-color:#ED7770;stop-opacity:0.9"/>
			<stop  offset="0.3" style="stop-color:#ED7770;stop-opacity:0.7"/>
			<stop  offset="0.5" style="stop-color:#ED7770;stop-opacity:0.6"/>
			<stop  offset="0.7" style="stop-color:#ED7770;stop-opacity:0.3"/>
			<stop  offset="0.9" style="stop-color:#ED7770;stop-opacity:0"/>
		</radialGradient>
		<ellipse style="fill:url(#SVGID_00000079483636596450961120000001521441320240082071_);" cx="34" cy="83.3" rx="13" ry="11.9"/>
	</g>
	<path style="fill:none;stroke:#35220B;stroke-width:5.3;stroke-linecap:round;stroke-linejoin:round;" d="M41.1,72.3
		c2.6,2,5.7,4.9,6.8,7.6c0.9,2.2,1.1,4.5,0.6,6.8"/>
	<path style="fill:none;stroke:#35220B;stroke-width:5.3;stroke-linecap:round;stroke-linejoin:round;" d="M86.9,71.6
		c-2.4,1.1-8.7,6.9-6.2,14.8"/>
	<path style="fill:none;stroke:#35220B;stroke-width:5.3;stroke-linecap:round;stroke-linejoin:round;" d="M47.9,79.4
		c0,0,3.7-4.8,16.2-5c11.3-0.2,16,3.4,16,3.4"/>
</g>
<path style="fill:#422B0D;" d="M28.7,43.2c-2,0.9-1.4,4,1,3.6c5.2-1.2,9.7-4.3,12.6-8.8c1.1-1.6,2-3.4,2.5-5.3c0.4-0.9-0.1-2-1-2.4
	s-2,0.1-2.4,1l0,0c-2.8,5.3-7.2,9.4-12.6,11.8L28.7,43.2z"/>
<path style="fill:#422B0D;" d="M86.4,31.7c-0.4-0.9-1.4-1.4-2.4-1c-0.9,0.4-1.4,1.4-1,2.4c0.5,1.9,1.4,3.7,2.5,5.3
	c2.9,4.4,7.4,7.5,12.6,8.7c2.5,0.5,3-2.7,1-3.6c-5.5-2.3-9.9-6.5-12.7-11.7l0,0"/>
<g>
	<path style="fill:#3F2C13;" d="M46.8,43.1L46.8,43.1c-4.2,0-8,3.5-8,9.4s3.8,9.4,8,9.4l0,0c4.2,0,8-3.5,8-9.4S51,43.1,46.8,43.1z"
		/>
	<g id="peepers">
		<path style="fill:#83622F;" d="M46.4,47L46.4,47c-1-0.7-2.6-0.5-3.6,1s-0.7,3,0.4,3.7l0,0c1,0.7,2.6,0.5,3.6-1
			C47.8,49.3,47.5,47.7,46.4,47z"/>
	</g>
	<path style="fill:#3F2C13;" d="M82.2,43.1L82.2,43.1c-4.2,0-8,3.5-8,9.4s3.8,9.4,8,9.4l0,0c4.2,0,8-3.5,8-9.4S86.4,43.1,82.2,43.1z
		"/>
	<g id="peepers-2">
		<path style="fill:#83622F;" d="M81.8,47L81.8,47c-1-0.7-2.6-0.5-3.6,1s-0.7,3,0.4,3.7l0,0c1,0.7,2.6,0.5,3.6-1S82.9,47.7,81.8,47z
			"/>
	</g>
</g>
</svg>
