<?xml version="1.0" encoding="utf-8"?>
<!-- Generator: Adobe Illustrator 26.3.1, SVG Export Plug-In . SVG Version: 6.00 Build 0)  -->
<svg version="1.1" id="a" xmlns="http://www.w3.org/2000/svg" xmlns:xlink="http://www.w3.org/1999/xlink" x="0px" y="0px"
	 viewBox="0 0 128 128" style="enable-background:new 0 0 128 128;" xml:space="preserve">
<path style="fill:#5E6367;" d="M9.15,100.12l-3.59-1.33c0,0-0.55-0.19-1.29,0.58s-0.23,2.42,1.21,4.17s5,4.45,6.2,5.34
	c1.64,1.21,4.66,3.97,5.93,4.29c0.94,0.23,1.52,0.19,1.91-0.23s0.62-1.21,0.62-1.21l-7.6-8.93l-3.39-2.69L9.15,100.12z"/>
<path style="fill:#9A9A9A;" d="M8.8,99.02l-2.34-0.47l-0.9,0.23c0,0-0.23,1.83,2.46,4.29s5.69,3.04,7.68,4.6
	c2,1.57,4.44,4.05,4.44,4.05l1.56-1.91l-3.16-5.22L8.8,99.02L8.8,99.02z"/>
<path style="fill:#CECECE;" d="M20.1,98.36l-4.49,1.03l-1.51,2.05c0,0-3-2.14-3.66-2.5s-1.87-0.55-2.77-0.55s-1.21,0.16-1.21,0.16
	s0.62,2.18,2.53,3.94s3.66,2.14,6.55,3.08c2.88,0.94,6.16,4.25,6.16,4.25l3.39-4.05L20.1,98.36z"/>
<path style="fill:#5E6367;" d="M12.38,101.87c1.05,0.94,1.83,1.79,2.57,1.72s-0.16-2.22-0.43-2.69s-1.25-0.9-1.72-1.13
	s-1.99-1.13-2.38-0.82s1.17,2.23,1.95,2.92H12.38z"/>
<path style="fill:#B0B0B0;" d="M91.83,95.12l-4.29,5.42c0,0,4.03,3.69,7.32,6.27c3.3,2.57,6.49,4.84,7.57,5.66s2.68,2.42,2.68,2.42
	l7.62-4.48l0.31-3.66c0,0-4.63-6.23-7.62-9.89c-2.99-3.66-6.57-7.34-6.57-7.34l-7.02,5.59V95.12z"/>
<path style="fill:#868686;" d="M9.68,8.09l-1.37-0.1c0,0-0.5,0.8-0.74,2.53c-0.18,1.25-2.35,7.23-0.41,15.54
	c1.99,8.57,8.11,13.01,8.11,13.01l1.91-2.43c0,0-5.05-3.9-6.96-10c-1.03-3.27-1.31-6.22-1.35-8.57c-0.07-3.53,0.59-5.87,0.87-6.58
	c0.46-1.19,1.29-2.53,1.24-3.25S9.69,8.09,9.68,8.09L9.68,8.09z"/>
<path style="fill:#B0B0B0;" d="M31.59,62.07c0,0,1.06,0.84,2.47,0.79c1.78-0.06,3.88-2.12,6.09-3.97s3.97-3.44,3.97-3.44l-2.91-9.8
	L30,56.16C30,56.16,31.59,62.07,31.59,62.07z"/>
<path style="fill:#858585;" d="M17.07,47.03c0,0,0.33,1.47,0.02,1.49c-0.5,0.04-3.01-1.55-2.91-4.44s1.29-5.63,3.3-6.97
	s3.99-1.31,5.9-1.1c0.89,0.1,1.83,0.62,2.48,1.25c0.52,0.49,0.89,1.11,0.83,1.52c-0.1,0.66-1.58,0.81-1.58,0.81l-8.06,7.44
	L17.07,47.03z"/>
<path style="fill:#B0B0B0;" d="M15.78,37.27c-1.97,1.75-2.79,4.75-2.43,6.76s1.82,3.24,2.36,3.67c-0.11-0.48-0.66-1.75-0.5-3.36
	c0.17-1.71,0.79-3.72,2.26-5.18c1.34-1.34,3.18-2.02,4.64-2.17c2.47-0.25,3.55,0.39,3.99,0.51c0.04-0.11-1.86-2.29-4.62-2.39
	C19,35.02,17.18,36.03,15.78,37.27z"/>
<path style="fill:#EE594A;" d="M10.23,6.98C9.04,6.83,8.5,7.43,8.14,8.36s-0.19,1.9,0.67,2.11c0.99,0.24,1.6-0.64,2-1.54
	c0.37-0.84,0.4-1.82-0.57-1.94L10.23,6.98z"/>
<path style="fill:#B0B0B0;" d="M69.64,46.19l2.98,6.82l1.99-0.26c0,0,1.87,0.66,6.77,3.94c1.93,1.29,5.58,4.51,8.65,6.72
	s5.55,4.26,5.55,4.26s0.77,0.65,1.2,1.09c0.86,0.86,3.85,6.32,5.28,6.64c1.29,0.28,1.42-1.08,1.42-1.08l-0.98-4.17
	c0,0,1.91,2.75,3.04,4.22s1.82,2.65,2.99,2.5c1.18-0.15,1.55-1.89,1.55-2.58s-0.52-2.92-1.75-4.83S80.25,47.51,80.25,47.51
	l-10.02-4.03l-0.6,2.72L69.64,46.19z"/>
<path style="fill:#B0B0B0;" d="M26.58,83.59l-1.9-0.47l-9.07,16.26c0,0,1.52,2.68,4.19,4.64s4.55,2.32,4.82,2.32
	s5.27-5.27,7.68-7.85c2.41-2.59,4.53-5.59,4.53-5.59l0.62-1.73c0,0,5.26-2.2,9.45-3.94s8.18-3.47,8.18-3.47l-4.7-8.3l-23.79,8.12
	L26.58,83.59z"/>
<polygon style="fill:#B0B0B0;" points="67.4,80.14 66.68,85.13 71.08,88.26 80.94,83.44 75.65,70.15 "/>
<path style="fill:#CECECE;" d="M25.43,82.4c0,0,0.29-1.76,1.76-3.56s4.85-2.98,6.86-3.92s4.25-2.22,7.67-3.74
	c3.43-1.52,5.31-2.06,5.31-2.06l1.47-0.85c0,0-4.04-7.72-5.03-10.99s-2.92-9.57-2.92-9.57s-4.29,7.14-5.47,9.11
	s-3.51,5.25-3.51,5.25S28,59.76,24.6,55.24s-3.93-4.98-4.32-5.37s-3.06-2.05-3.23-2.84s-0.03-2.26,0.16-3.02s1.09-2.37,1.09-2.37
	l3.35-2.55c0,0,0.83-1.39,2.21-1.06s3.79,3.03,4.09,4.43c0.32,1.51,0.23,2.88,0.23,2.88s1.76,1.42,2.61,2.09s1.9,1.57,1.9,1.57
	s2.99-3.09,5.89-5.55s7.93-5.13,7.93-5.13l5.05-4.86l2.04-10.94l14.53,0.06c0,0,0.57,4.8-1.24,7.79s-2.81,3.43-2.81,4.1
	s0.21,0.8,0.61,0.98s1.69-0.05,3.87,0.43c3.14,0.7,6.39,3.5,7.42,4.4s9.58,6.27,12.76,8.69c3.17,2.41,12.22,10.66,12.22,10.66
	s4.53,3.82,6.67,6.72s2.6,7.72,2.43,7.97c-0.4,0.59-1.24-1.91-2.07-3.24c-0.65-1.04-1.68-2.66-2.02-2.04s1.41,2.67,2,3.86
	c0.49,1,1.45,2.69,0.91,2.93c-0.93,0.42-4.36-5.42-5.05-5.07s-0.14,2.8-0.38,3.54c-0.34,1.05-1.56-0.51-2.31-1.68
	s-2.18-4.05-3.7-5.5s-6.37-5.6-10.37-8.98s-13.1-9.86-14-10.62s-3-2.06-3-2.06l1.34,5.92l3.16,1.91c0,0,1.25,6.02,1.6,8.08
	s1.03,5.72,1.03,5.72l1.31,1.1c0,0,5.91,5.08,10.65,9.99s8.1,9.9,8.1,9.9l-3.52,5.74l-7.79,5.33c0,0-6.61-5-8.52-6.41
	c-1.91-1.41-6.39-4.49-6.39-4.49s1.73-7.08,2.14-9.74c0.42-2.66,1.58-8.32,1.58-8.32l-6.66,9.4l-2.13,4.97c0,0-0.59,0.7-3.61,0.48
	s-5.45-1.66-5.45-1.66l-5.82-7.32c0,0-4.93,5.5-6.96,7.69s-7.36,7.2-7.36,7.2l-7.44-4.93l-3.95-3.62L25.43,82.4z"/>
<path style="fill:#858585;" d="M24.68,83.12c0.14,0.79,2.34,2.77,5.78,5.5c3.44,2.74,6.21,4.51,6.36,4.28s0.94-0.94,0.94-1.48
	s-4.16-3.24-6.04-4.72s-5.84-5.13-6.16-4.97s-1.01,0.71-0.89,1.39L24.68,83.12z"/>
<path style="fill:#858585;" d="M40.57,47.71c-0.89,0.04-0.38,2.69,0.19,4.84s1.38,3.84,1.5,4c0.27,0.35,0.96-0.08,1-0.38
	s-0.92-3.21-1.27-4.42C41.34,49.48,41.41,47.68,40.57,47.71z"/>
<path style="fill:#9A9A9A;" d="M17.35,43.64c0,0-0.07-1.42,1.15-3c0.96-1.24,2.03-1.65,3.17-1.56c2.35,0.17,2.77,2.75,2.77,2.75
	s0.95,0.3,1.35,1.46s0.43,2.54-0.55,3.92s-2.03,1.52-2.75,0.99c-1-0.74-0.58-2.47,0.35-3.34c0.78-0.74,1.39-0.43,1.61-0.96
	c0.1-0.25-0.58-0.89-1.65-0.78c-2.52,0.26-3.1,2.76-3.21,2.61c-0.18-0.24-0.55-1.63,0.61-2.78c1.27-1.26,2.78-0.74,2.78-1.17
	s-0.79-1.4-2.26-1.09c-2.09,0.44-3.36,2.95-3.36,2.95L17.35,43.64z"/>
<path style="fill:#868686;" d="M28.14,52.9c0.96,0.22,2.61-1.35,2.56-2.22c-0.02-0.43-4.04-4.52-4.56-5.13
	c-0.34-0.4-1.65-0.52-2.39,0.17c-0.67,0.63-0.83,1.96-0.48,2.35c0.39,0.43,4.47,4.73,4.86,4.82L28.14,52.9z"/>
<path style="fill:#464C4F;" d="M49.63,10.81c0,0-2.3-0.45-5.01,1c-2.96,1.59-6.39,5.13-6.82,11.63
	c-0.92,13.83,10.23,15.24,10.23,15.24l4.48-11.83L49.63,10.81L49.63,10.81z"/>
<path style="fill:#5E6367;" d="M53.44,20.57l14.44-0.2c0,0-0.74-6.22-5.08-9.09S52.04,9.34,52.04,9.34S53.44,20.57,53.44,20.57z"/>
<path style="fill:#9A9A9A;" d="M54.44,19.7l13.37-0.07c0,0,0.33,1.74,0.33,2.94s-0.07,2.34-0.07,2.34H53.16L54.44,19.7L54.44,19.7z"
	/>
<path style="fill:#868686;" d="M48.62,10.61c0,0,0.07-1,1.94-1.54c1.42-0.41,2.27,0,2.27,0s2.54,7.98,1.94,17.25
	c-0.6,9.29-3.54,14.47-6.89,14.58c-2.14,0.07-3.14-0.8-3.41-2.01c-0.1-0.46,0.07-1,0.47-1.07s2.14-0.2,2.94-2.07
	s2.14-6.55,2.01-13.44S48.62,10.61,48.62,10.61z"/>
<path style="fill:#9A9A9A;" d="M95.13,67.29c0.2-0.47,2.05-3.6,3.25-5s2.6-2.67,2.6-2.67s0.47,0.05,0.93,0.44
	c0.41,0.34,0.55,0.86,0.55,0.86s-1.82,1.56-3.02,3.16s-2.92,4.41-2.92,4.41s-0.62-0.09-1.01-0.48c-0.34-0.34-0.38-0.74-0.38-0.74
	L95.13,67.29z"/>
<path style="fill:#858585;" d="M85.99,99.16c0,0-0.18,0.6,0.36,1.01s1.19,0.36,1.19,0.36s3.99-3.33,6.13-5.42
	c2.14-2.08,5.18-5.6,5.18-5.6s-0.08-0.62-0.66-1.07c-0.43-0.33-0.88-0.36-0.88-0.36s-3.48,3.91-5.42,5.71
	C89.27,96.23,86,99.15,86,99.15L85.99,99.16z"/>
<path style="fill:#858585;" d="M65.65,84.7c0,0,1.12-7.01,4.06-11.43c2.71-4.06,4.66-5.64,5.96-6.23s2.17-0.43,2.82,0.22
	s-0.84,1.94-1.22,2.32s-2.94,2.26-5.21,5.45c-2.4,3.37-4.93,10.11-4.98,10.38S65.87,85.3,65.65,84.7L65.65,84.7z"/>
<path style="fill:#858585;" d="M46.68,69.23c0.05-0.14,0.54-0.54,0.98-0.71s0.85-0.27,0.85-0.27s1.8,4.3,3.7,7.77
	c2.3,4.2,5.15,7.42,5.09,7.59s-1.84,0.38-2.22,0.16s-3.76-5.19-4.88-7.21C48.57,73.63,46.68,69.23,46.68,69.23z"/>
<path style="fill:#E0E0E0;" d="M46.28,48.78c0,0-3.11-5.22-3.11-5.66s-0.44-1.93,0.19-2.3s1.87,0.44,3.54,0.68s3.73,1,3.73,1
	l8.77-5.04c0,0,2.24-1.62,2.92-2.11s1.55-0.87,2.11-0.37c0.56,0.5,0.37,1.93,0.37,1.93s2.2-0.3,3.76,0.26s3.46,1.86,3.46,1.86
	l-1.68,9.45l2.61,5.87c0,0,1.19,6.08,1.31,7.82s0.56,3.3,0.25,3.79s-5.66,0.93-8.64,7.4c-2.99,6.47-1.87,10.26-2.11,10.57
	s-2.09,0.86-3.48-0.75c-1.62-1.87-4.17-6.03-5.41-9.39s-6.28-17.47-6.28-17.47l-2.3-7.52L46.28,48.78z"/>
<path style="fill:#FFFFFF;" d="M42.94,45.92c0,0,1.13,7.24,2.17,9.46s3.3,5.17,3.3,5.17s1.18,3.84,2.17,5.71s4.09,8.57,4.68,8.57
	s-2.17-9.01-2.71-11.82c-0.54-2.81-1.63-10.98-1.63-10.98l-7.44-6.85C43.48,45.18,42.94,45.92,42.94,45.92z"/>
<path style="fill:#868686;" d="M43.18,43.12c-0.53-0.06-0.68,1.56,0.21,3.69c1.19,2.86,3.96,6.38,7.49,6.21
	c6.16-0.3,13.15-9.75,14.58-12.41c1.07-2,1.28-3.5,0.94-4.19s-1.23-0.84-1.67-0.44s-1.89,3.23-5.42,6.55s-7.83,6.5-10,6.35
	s-5.59-5.7-6.12-5.76L43.18,43.12z"/>
<path style="fill:#868686;" d="M71.36,46.22c-0.08,3.33,2.67,6,3.13,6.34s0.87,3.07-1.4,2.6s-5.27-3.6-4.67-10
	c0.56-6.02,3.87-7.74,5-6.67s-1.93,2.47-2.07,7.74L71.36,46.22z"/>
<path style="fill:#FFFFFF;" d="M44.58,41.89c-0.08,1.14,2.75,5.54,4.95,5.59s6.39-3.98,7.87-5.5s3.68-3.68,3.09-4.4
	c-0.72-0.88-7.28,3.17-11.17,3.77C46.85,41.73,44.65,41.01,44.58,41.89L44.58,41.89z"/>
<path style="fill:#9A9A9A;" d="M105.11,114.89c0,0,0.77,1.7,1.08,2.42s0.79,1.65,0.79,1.65l13.27,0.64l3.24-2.19
	c0,0-0.23-1-0.74-1.52s-2.66-0.65-2.66-0.65l-14.98-0.36V114.89z"/>
<path style="fill:#5F6468;" d="M113.97,119.26c-3.68-0.04-7.4-1.11-7.4-1.11s-0.21,1.07,0.38,1.56c1.01,0.83,3,1.4,7.32,1.4
	s7.12-0.55,8.29-1.34c1.27-0.86,1.5-2.1,0.93-2.37c-0.53,0.34-2.21,1.92-9.52,1.85V119.26z"/>
<path style="fill:#CECECE;" d="M104.54,114.32c0,0,3.55-2.63,5.2-4.12s3.3-3.45,3.3-3.45s2.53,3.5,3.35,4.43
	c0.57,0.64,1.8,1.4,3.12,1.93c2.16,0.88,3.24,2.57,3.45,3.03c0.03,0.07-4.9,1.23-8.21,1.01c-5.74-0.38-9.63-2.27-9.63-2.27
	l-0.57-0.57L104.54,114.32z"/>
<path style="fill:#5E6367;" d="M111.35,109.34c-0.58,0.74-0.89,3.43,0.4,4.57s4.12,1.13,5.77,0.57s1.16-1.6-0.08-2.42
	s-2.99-2.28-3.73-2.83c-0.89-0.66-1.79-0.6-2.35,0.12L111.35,109.34z"/>
</svg>
