<?xml version="1.0" encoding="utf-8"?>
<!-- Generator: Adobe Illustrator 26.3.1, SVG Export Plug-In . SVG Version: 6.00 Build 0)  -->
<svg version="1.1" id="a" xmlns="http://www.w3.org/2000/svg" xmlns:xlink="http://www.w3.org/1999/xlink" x="0px" y="0px"
	 viewBox="0 0 128 128" style="enable-background:new 0 0 128 128;" xml:space="preserve">
<path style="fill:#3C2C23;" d="M41.26,75.24c0,0-5.55-1.35-8.42-7.91c-2.86-6.56-3.22-17.54-0.34-32.82
	c2.86-15.15,9.96-25.99,23.42-29.52C69.39,1.46,81.56,6.45,86.7,17.01c7.61,15.63,6.9,25.75,5.22,36.36
	c-1.68,10.6-6.98,16.82-6.98,16.82l-43.68,5.06L41.26,75.24z"/>
<path style="fill:#232020;" d="M44.7,72.82c0,0-4.14-3.55-4.49-9.34s1.89-11.23,1.89-11.23l19.44-14.21l22.75-2.57
	c0,0,3.9,10.16,3.19,16.9S85,63.72,85,63.72l-13.24,6.03C71.76,69.75,44.7,72.82,44.7,72.82z"/>
<path style="fill:#4B0FCE;" d="M88.67,64.33c0,0-4.92-2.63-7.99-3.5s-25.51,2.92-25.51,2.92s-2.54,1.22-5.47,2.93
	s-6.63,4.53-6.63,4.53L29.09,88.64l-9.06,16.88l12.76,4.8c0,0,5.27-6.91,7.56-10.07s5.33-8.18,5.33-8.18s0.77,2.54,1.13,3.69
	s1.47,4.69,1.47,4.69l53.82-8.11L88.66,64.33H88.67z"/>
<path style="fill:#583EE2;" d="M25.83,120.43c0,0-9.12-3.37-9.8-10.13c-0.55-5.49,0.84-11.25,5.25-17.97s10.91-12.32,15.37-16.25
	c3.85-3.39,6.42-4.86,6.42-4.86s4.52-0.43,9.99,0.73s9.25,3.47,9.25,3.47l15.45,5.89l7.67-10.72c0,0,1.37-1.68,2.21-3.26
	s1.02-2.98,1.02-2.98s7.14,2.71,12.97,10.76s7.77,15.69,7.77,15.69s2.36,8.05,2.64,14.58c0.18,4.16-0.52,6.38-0.52,6.38L52.07,92.61
	c0,0-1.49-2.14-2.32-3.88s-1.52-4.66-3.08-4.47s-3.15,4.45-7.51,9.44c-5.59,6.4-6.56,7.14-7.83,7.06c-1.09-0.06-1.86-1.41-3.27-2.05
	s-3.21-0.51-3.21,0.51s1.99,0.45,3.53,1.67s3.27,3.48,3.79,5.07c1.09,3.34,0.9,6.29,0.9,6.29l-7.24,8.21L25.83,120.43z"/>
<path style="fill:#A56C43;" d="M65.6,89.98c0,0-2.08-5.41-2.94-8.95c-0.46-1.88-1.08-6.13-1.08-6.13l23.87-4.34
	c0,0,2.07,2.33,3.73,5.28s2.74,5.77,2.74,5.77l-8.79,12.32l-17.52-3.95L65.6,89.98z"/>
<path style="fill:#875334;" d="M60.85,65.47c0,0,0.07,3.39,0.14,4.83s0.58,4.61,0.58,4.61s5.77,2.59,12.61,0.86
	s11.26-5.21,11.26-5.21s-2.11-2.21-3.69-3.3s-3.03-2.16-3.03-2.16v-3.96l-17.87,4.32V65.47z"/>
<path style="fill:#875334;" d="M42.1,52.26c0,0,0.51,2.1,2.75,3.41c1.55,0.91,3.95,0.74,3.95,0.74l-1.18-9.99l-2.16-0.62
	c0,0-1.08,1.77-1.93,3.39S42.09,52.26,42.1,52.26L42.1,52.26z"/>
<path style="fill:#A56C43;" d="M45.47,45.8c0,0,0.23,8.4,6.24,14.64s12.41,8.71,20.11,6.55c7.71-2.16,13.41-9.63,13.72-18.88
	c0.31-9.25-1.24-12.64-1.24-12.64s-6.18-2.79-11.88-7.34s-7.84-8.15-7.84-8.15s-0.08,3.47-3.78,7.63
	c-3.7,4.16-8.65,9.23-10.63,11.63C47.24,42.78,45.47,45.79,45.47,45.8L45.47,45.8z"/>
<path style="fill:#3C2C23;" d="M69.49,35.63c0.36,1.18,1.52,0.73,4.84,0.06c3.32-0.68,5.07-0.79,4.9-1.92c-0.18-1.23-2.42-1-5.3-0.9
	C70.49,32.98,69.09,34.33,69.49,35.63L69.49,35.63z"/>
<path style="fill:#3C2C23;" d="M48.31,42.14c0.62,1.24,3.38-0.73,5.01-1.41s4.84-1.3,4.68-2.65s-3.32-0.96-5.58-0.06
	c-1.79,0.71-2.25,1.14-2.25,1.14l-0.91,1.07l-0.84,1.1c0,0-0.3,0.4-0.11,0.79L48.31,42.14z"/>
<path style="fill:#42312C;" d="M50.73,47.12c-0.22,1.06,1.86,2.82,5.3,2.31s5.52-3.04,4.73-4.22s-2.31,0.56-5.18,1.13
	c-2.44,0.48-4.62-0.28-4.84,0.79L50.73,47.12z"/>
<path style="fill:#42312C;" d="M70.73,42.73c-0.62,1.49,2.08,2.65,5.24,2.08s5.9-3.52,4.22-4.68c-0.73-0.51-1.92,0.84-4.56,1.58
	c-2.29,0.63-4.34-0.34-4.9,1.01V42.73z"/>
<path style="fill:#875334;" d="M63.9,52.46c0.31,1.2,3.39,2.12,4.8,1.78c1.98-0.48,3.6-3.19,2.81-3.91
	c-0.97-0.88-2.85,1.08-3.46,1.17C66.82,51.67,63.53,51.02,63.9,52.46z"/>
<path style="fill:#473530;" d="M63.42,58.52c0.43,1.17,3.74,1.54,6.03,1.2c2.3-0.34,6.37-3.32,5.04-4.42
	c-1.16-0.95-3.02,1.03-5.11,1.47c-1.05,0.22-2.45,0.35-3.7,0.48c-0.67,0.07-1.34,0-1.78,0.24C63.52,57.69,63.28,58.14,63.42,58.52z"
	/>
<path style="fill:#FDFEFA;" d="M82.08,91.17c0,0,0-0.45,0.12-1.17c0.41-2.69,2.26-9.2,10.52-10.86c5.52-1.11,10.18,1.61,12.89,4.6
	c2.78,3.06,3.53,6.42,3.53,6.42l-23.37,12.35C85.77,102.51,82.08,91.17,82.08,91.17z"/>
<path style="fill:#DFD7C5;" d="M82.24,89.53c0,0,0.09,1.08,2.52,2.87c1.59,1.18,3.72,1.52,3.72,1.52l-2.5,8.04l-3.89-10.78
	c0,0,0-0.38,0.05-0.62c0.09-0.48,0.11-1.03,0.11-1.03H82.24z"/>
<path style="fill:#C6E1A5;" d="M87.43,100.16c0,0-2.6-10.48,6.04-15.4c6.58-3.74,12.46-0.64,12.46-0.64
	c1.71,0.96,4.71,5.51,4.97,10.96s-2.57,8.34-2.57,8.34l-20.91-3.26L87.43,100.16z"/>
<path style="fill:#A1C07D;" d="M87.23,94.15c0,0,5.67,5.7,13.44,5.83c8.99,0.15,10.15-5.85,10.15-5.85s0.97,5.67-3.04,10.93
	c-1.31,1.72-20.97,2.32-20.97,2.32s-0.4-3.5-0.18-6c0.12-1.35,0.23-3.58,0.36-5.13c0.11-1.33,0.23-2.09,0.23-2.09L87.23,94.15z"/>
<path style="fill:#9A9A9A;" d="M90.59,105.49c0.07-1.52-5.22-11.46-8.78-14.66c-2.33-2.09-5.08-2.61-6.02-2.76
	c-0.5-0.08-10.39,4.92-19.08,12.7c-7.62,6.82-14.22,16.54-14.22,16.54l8.49,6.1l35.77-11.61c0,0,3.77-4.79,3.85-6.31H90.59z"/>
<path style="fill:#C7C7C7;" d="M82.39,95.04L55.9,116.16c0,0-1.96,2.98-2.83,4.28s-1.6,3.12-1.6,3.12s12.19-0.87,17.92-2.68
	s8.71-3.99,8.71-3.99l9.8-11.68c0,0-1.89-5.51-5.51-10.16V95.04z"/>
<path style="fill:#E0E0E0;" d="M77.75,90.18c-0.49-0.13-4.79,3.63-8.49,7.98c-3.5,4.12-3.56,5.73-3.56,5.73l9.65,2.32
	c0,0,2.54-2.03,4.57-5.22s2.9-4.86,2.47-5.95S79.41,90.61,77.75,90.18z"/>
<path style="fill:#E0E0E0;" d="M75.79,88.07c0,0-5.88-1.09-10.59,0.22c-4.72,1.31-6.17,2.68-6.17,2.68s-10.19,1.4-16.4,5.22
	c-10.59,6.53-9.58,15.02-9.58,15.02l3.08,1.55l8.96-2.49l3.12-2.83l10.88-1.38l4.93-6.46c0,0,2.1-3.19,5.22-5.95
	s6.53-5.59,6.53-5.59L75.79,88.07z"/>
<path style="fill:#C7C7C7;" d="M35.35,116.28l11.82,4.68c0,0,3.07-4.45,4.37-5.75s4.45-4.53,4.45-4.53l-9.67-1.92
	c0,0-4.83,2.92-6.52,3.68C38.11,113.21,35.35,116.28,35.35,116.28z"/>
<path style="fill:#63351E;" d="M32.46,123.29c3.97,1.04,10.11,0.83,13.3,0.83s4.99,0.02,5.54-0.32s0.54-1.3-0.16-1.99
	s-7.18-2.67-8.15-3.02s-4.92-1.32-4.71-2.49s1.49-1.22,3.15-1.85s3.22-1.48,3.63-2.52s0.28-1.87-0.83-2.01s-14.34,3.6-15.93,4.43
	s-3.54,3.19-3.53,3.95C24.77,119.61,24.56,121.21,32.46,123.29z"/>
<path style="fill:#A56C43;" d="M29.05,111.96c-4.53,2.73-4.27,6.35-4.27,6.35s4.32,2.71,10.51,3.54s16.32,0.76,16.32,0.76
	s-0.46-2.15-3.33-2.88c-2.63-0.67-6.42-1.16-8.6-1.8s-3.79-1.76-3.7-2.91c0.11-1.4,2.31-1.85,3.56-1.99s3.42-0.55,4.21-1.66
	s0.49-1.43,0.49-1.43s-6.32-0.14-9.51,0.41s-4.26,0.76-5.68,1.62L29.05,111.96z"/>
<path style="fill:#C7C7C7;" d="M65.19,105.05l-0.51-4.21l-7.62-3.41c0,0-1.6,0.51-1.38,2.47c0.22,1.96,2.9,3.56,2.9,3.56l2.43,0.59
	l-3.1,0.64l-9.35-2.17c0,0-2.32,0-2.32,1.81c0,1.03,1.74,2.18,1.74,2.18l13.5,3.48l0.78-5.64L65.19,105.05L65.19,105.05z"/>
<path style="fill:#63351E;" d="M73.31,117.19l-2.38,0.89c0,0-2.37,0.02-6.12-0.07c-3.66-0.08-6.31-0.38-10.99-1.41
	c-2.52-0.55-5.27-2.19-5.14-2.82s0.48-0.92,1.34-0.85s1.33,0.25,1.34-0.1c0.01-0.4-3.68-1.33-4.93-2.24
	c-1.16-0.85-1.01-1.53-1.01-1.78c0-0.55,0.84-0.84,0.84-0.84s-0.65-0.48-0.49-1.37c0.04-0.22,0.32-0.62,0.65-0.72
	c1.55-0.51,5.58,0.43,5.86,0.46c0.4,0.04,0.48-0.36,0.07-0.53c-0.38-0.16-2.21-0.84-3.36-1.37s-2.17-1.17-1.98-2.2
	c0.03-0.17,0.11-0.81,0.7-0.76c2.58,0.22,9.37,2.68,9.37,2.68s3.09-0.42,3.21-0.99s-2.64-2.42-3.1-3.57s-0.63-1.68-0.38-2.41
	c0.31-0.92,1.18-1.03,1.18-1.03l9.05,7.35l9.29,6.65C76.33,110.16,73.31,117.19,73.31,117.19z"/>
<path style="fill:#A56C43;" d="M73.31,104.84c0,0-2.28-2-5.93-3.76c-3.65-1.77-6.48-3.24-7.83-4s-1.57-1.19-1.9-0.68
	s0.26,2.27,1.49,3.39s2.77,2.47,2.47,3.24s-4.53-0.18-7.36-0.65c-2.83-0.47-6.48-1.53-7.01-0.71s0.73,1.39,1.61,1.74
	s4.5,1.64,5.74,2.15c1.51,0.61,3.63,1.16,3.53,1.77c-0.07,0.41-3.3-0.39-5-0.77c-0.69-0.15-2.63-0.77-4.33-0.96
	c-1.27-0.14-2.43-0.02-2.8,0.6c-0.62,1.04,4.36,2.24,5.72,2.59c1.35,0.35,5.96,1.23,5.95,1.82c-0.03,1.04-6.62-0.91-7.85-1.26
	s-3.55-1.37-3.55-1.37s-1.04,0.14-0.79,1.07s3,1.72,4.83,2.37s6.94,1.65,7.01,2.02c0.16,0.87-3.65,0.35-4.47,0.12
	s-2.88-0.63-2.88-0.63s-0.62-0.14-1.03,0.3c-0.23,0.25-0.25,0.56-0.25,0.56s5.23,1.51,8.63,1.97c8.57,1.15,16.32-0.35,16.32-0.35
	l2.29-6.63C75.92,108.78,73.31,104.84,73.31,104.84z"/>
<path style="fill:#583EE2;" d="M111.65,111.2c0,0,1.8-7.23-9.97-7.94c-9.46-0.58-12.42,2.24-17.69,2.31s-10.69-0.72-10.69-0.72
	s0.18,1.49-0.04,3.96c-0.19,2.14-0.58,3.36-0.58,3.36l16.22,7.7l18.61-2.63C107.51,117.24,111.03,113.66,111.65,111.2z"/>
<path style="fill:#4B0FCE;" d="M94.25,123.04c-9.46,0.22-15.96-3.03-18.27-3.9s-5.07-1.03-5.07-1.03s0.4-1.13,0.92-2.77
	c0.41-1.29,0.86-3.18,0.86-3.18s3.72-0.09,6.82,0.7s6.57,3.61,15.38,3.39s16.76-5.06,16.76-5.06s-1.34,7.71-6.9,9.95
	C99.19,123.38,94.25,123.04,94.25,123.04z"/>
</svg>
