<?xml version="1.0" encoding="utf-8"?>
<!-- Generator: Adobe Illustrator 26.3.1, SVG Export Plug-In . SVG Version: 6.00 Build 0)  -->
<svg version="1.1" id="a" xmlns="http://www.w3.org/2000/svg" xmlns:xlink="http://www.w3.org/1999/xlink" x="0px" y="0px"
	 viewBox="0 0 128 128" style="enable-background:new 0 0 128 128;" xml:space="preserve">
<path style="fill:#EB2901;" d="M22.82,33.46c0,0-1.37-7.67,2.03-13.12C29.06,13.57,41.59,2.6,66.46,3.79
	c26.15,1.25,35.1,15.47,36.7,21.23c1.6,5.76,0.75,10.03,0.75,10.03l-38.33,19.1L22.82,33.46L22.82,33.46z"/>
<path style="fill:#A42714;" d="M104.72,70.26c0,0,9.34-1.35,10.45-10.51c0.96-7.86-3.8-11.63-3.8-11.63s3.5-4.71-0.31-11.04
	c-3.37-5.59-7.03-4.83-7.03-4.83s-2.47,4.1-5.35-0.17c-2.01-2.98-5-11.68-5-11.68l-12.8,0.75l-13.3-8.41l-14.37,8.91l-15.5-1.88
	l-5.27,5.08l-4.33,9.03c0,0-5.93-4.16-11.91,2.72c-5.7,6.56,0.17,12.77,0.17,12.77s-5.17,3.11-3.81,11.28
	c1.57,9.42,10.89,11.68,10.89,11.68l81.24-2.07H104.72z"/>
<path style="fill:#EB2901;" d="M64.16,87.56c-9.19,0.97-26.49,1.91-37.43,11.8c-10.94,9.88-15.37,20.9-13.31,23.17
	s96.19,0.86,98.72,0.86s4.75-1.3,2.69-5.51s-9.81-17.06-19.64-23.7S64.15,87.57,64.16,87.56L64.16,87.56z"/>
<polygon style="fill:#C48E6A;" points="54.1,92.72 53.61,103.25 64.16,106.57 74.83,105.36 74.67,93.37 "/>
<path style="fill:#F4EEED;" d="M74.25,94.85c0,0-1.52,3.1-5.1,7.01c-2.03,2.21-4.99,4.71-4.99,4.71s3.5,5.1,9.78,8.7
	c8.79,5.04,19.28-1.4,17.98-11.51C90.63,93.7,83.26,86,83.26,86l-9.02,8.85L74.25,94.85z"/>
<path style="fill:#F4EEED;" d="M42.85,89.65c0,0-12.2,15.46-2.93,24.24s24.24-7.32,24.24-7.32s-4.39-3.58-7.48-7.81
	c-2.45-3.35-4.23-6.83-4.23-6.83L42.85,89.65z"/>
<path style="fill:#C48E6A;" d="M93.85,78.63c0,0,8.7,0.93,10.82-7.53c2.24-8.96-5.04-9.49-5.04-9.49S93.85,78.63,93.85,78.63z"/>
<path style="fill:#C48E6A;" d="M29.36,60.28c0,0-10.68-0.27-6.71,11.09c2.98,8.52,10.68,6.98,10.68,6.98l-3.97-18.08L29.36,60.28z"
	/>
<path style="fill:#E0BB95;" d="M27.41,62.65c0,0,4.14,35.37,37.15,34.78c33.01-0.59,35.08-35.82,35.08-35.82l-10.8-27.23l-52.4,1.04
	C36.44,35.42,27.41,62.65,27.41,62.65z"/>
<path style="fill:#C48E6A;" d="M63.44,70.23c-2.94,0.06-4.05-0.94-5.09,0.12c-0.96,0.97-0.1,2.35,1.49,3.58
	c2.16,1.67,5.5,1.62,7.23,0.07c1.72-1.53,2.45-2.83,1.35-3.77S66.46,70.17,63.44,70.23L63.44,70.23z"/>
<g>
	<path style="fill:#4C4035;" d="M47.11,56.17c-3.85-0.06-5.35,3.28-5.12,5.63c0.23,2.36,2.01,4.6,5.4,4.54s5-2.18,5-5
		S50.67,56.22,47.11,56.17L47.11,56.17z"/>
	<path style="fill:#4C4035;" d="M80.51,56.08c-2.87-0.31-5.52,1.72-5.4,5.17c0.13,3.85,3.5,5.06,5.35,5.06
		c2.64,0,4.78-1.95,4.83-4.77c0.06-3.16-1.55-5.12-4.77-5.46L80.51,56.08z"/>
</g>
<path style="fill:#4C4035;" d="M63.3,79.99c-3.1,0.08-6.29-1.09-7.46-1.84s-2.58-0.79-3.35,0.17c-0.88,1.08-0.25,3.02,1.34,4.36
	c1.59,1.34,5.35,3.29,9.47,3.19c6.62-0.17,9.14-2.59,10.31-3.68s1.41-2.48,0.65-3.57s-2.33-0.71-3.59,0.04s-4.02,1.26-7.38,1.34
	L63.3,79.99z"/>
<path style="fill:#969696;" d="M38.93,54.37c1.16,1.16,3.23-1.7,7.67-1.52s4.99,2.01,6.33,1.89s2.35-2.07,1.28-3.65
	c-1.4-2.07-5.05-2.8-7.67-2.74c-2.62,0.06-4.99,1.1-6.57,2.68c-1.22,1.22-1.77,2.62-1.03,3.35L38.93,54.37z"/>
<path style="fill:#969696;" d="M73.11,54.62c-0.93-0.05-1.89-1.7-1.16-3.04s4.08-3.27,8.03-3.23c4.91,0.05,6.88,2.98,7.3,3.77
	c0.79,1.46,0.12,2.56-0.91,2.25s-4.14-1.42-6.57-1.46c-3.47-0.06-5.54,1.77-6.7,1.7L73.11,54.62z"/>
<g>
	<path style="fill:#C48E6A;" d="M86.89,61.19c-0.31,1.09,0.85,1.64,2.01,1.83s1.95,0.18,2.25-0.67s-0.79-1.46-1.77-1.64
		s-2.25-0.37-2.5,0.49L86.89,61.19z"/>
	<path style="fill:#C48E6A;" d="M40.38,61.93c0.32,1.14-1.03,1.52-1.89,1.77s-1.95,0.55-2.31-0.18s0.37-1.77,1.7-2.13
		S40.07,60.84,40.38,61.93L40.38,61.93z"/>
	<path style="fill:#C48E6A;" d="M55.32,70.91c-0.51-0.55-2.28,1.01-3.72,2.76s-3.33,3.66-2.28,4.56c0.8,0.69,3.66-3.08,4.46-4.03
		S56.06,71.71,55.32,70.91z"/>
	<path style="fill:#C48E6A;" d="M72.3,70.64c-0.74,0.45,0.53,2.49,2.18,4.83c1.42,2.02,2.55,4.03,3.56,3.5s-0.8-3.18-2.07-4.88
		S73.26,70.06,72.3,70.64L72.3,70.64z"/>
</g>
<path style="fill:#858585;" d="M98.42,65.37H98.4l-27.38,0.69c-0.7-0.54-3-1.99-7.4-1.99s-6.37,1.31-7.04,1.81L27.55,65.7l0,0
	c-0.37,0-0.68,0.3-0.68,0.68s0.3,0.68,0.67,0.68l13.4,0.08c0.38,1.38,1.97,5.28,7.71,5.36c0.07,0,0.13,0,0.19,0
	c6.37,0,7.87-3.95,8.2-5.26h0.04l0.2-0.18c0.02-0.02,1.82-1.63,6.33-1.63c4.05,0,6.07,1.33,6.56,1.7c0.34,1.11,2.09,5.55,8.48,5.55
	c5.59,0,7.17-4.23,7.54-5.65l12.22-0.31c0.37,0,0.67-0.32,0.66-0.7c0-0.37-0.31-0.66-0.68-0.66L98.42,65.37z M48.86,71.15
	c-0.06,0-0.12,0-0.18,0c-4.44-0.06-5.88-2.7-6.31-3.99l13.29,0.08C55.29,68.44,53.9,71.15,48.86,71.15z M78.67,71.33
	c-4.63,0-6.36-2.57-6.95-3.92l13.08-0.33C84.37,68.44,82.95,71.33,78.67,71.33z"/>
<path style="fill:#B0B0B0;" d="M21.91,48.86l-2.54,7.4c0,0,0,4.04,4.05,7c1.72,1.26,3.31,1.43,3.31,1.43s0.22,7.98,2.75,7.88
	s1.63-8.14,1.63-8.14s2.91-0.84,4.39-5.28c1.08-3.23,3.38-17.14,13.5-18.61s13.18,4.11,14.44,4.11c1.26,0,7.38-7.49,15.18-4.43
	s11.17,11.6,12.23,18.03s5.06,6.22,5.06,6.22s-1.48,6.11,0.84,6.85s5.06-8.86,5.06-8.86l-1.27-12.86l-0.74-3.16L86.2,30.42
	l-45.75,3.27l-9.91,7.49l-0.53,2.21c0,0-2.27-0.8-4.99,0.27c-1.99,0.78-3.57,2.24-3.57,2.24l0.44,2.97L21.91,48.86z"/>
<path style="fill:#E0E0E0;" d="M63.44,40.63c0,0-7.43-5.92-15.18-3.9S37.3,44.85,34.98,52.75s-7.91,8.43-10.65,7.7
	c-1.43-0.38-6.22-1.9-5.48-8.96s6.33-7.59,8.33-6.43s2,4.32,1.05,5.27s-0.96,2.22-0.32,2.85c0.94,0.91,2.64,0.21,3.58-1.69
	s1.69-4.53,0.63-6.96s-1.58-3.37-1.58-3.37s3.58-11.62,14.97-14.44c11.49-2.85,17.69,3.5,17.69,3.5s8.87-6.26,18.26-3.81
	C97.27,30.52,99.8,46.44,99.8,46.44s-3.06,1.16-3.58,3.58s1.24,5.67,2.95,4.85c2.21-1.05-1.37-3.37,0.42-4.74s6.75-1.79,8.33,3.58
	c1.58,5.38-3.37,9.28-6.85,9.07c-3.48-0.21-6.33-2.64-7.59-6.22c-1.27-3.58-1.58-15.6-11.28-19.71s-18.77,3.8-18.77,3.8L63.44,40.63
	z"/>
<path style="fill:#F4EEED;" d="M58.62,123.85c0,0,0.37-6.98,6.51-6.76s6.15,6.69,6.15,6.69s-2.62,0.52-6.42,0.52
	C62.18,124.3,58.62,123.85,58.62,123.85z"/>
<path style="fill:#F4EEED;" d="M16.58,54.72c-1.48-0.24-2.39,2.72-1.83,6.06s2.29,5.6,3.73,4.5c1.17-0.89-0.83-2-1-4.89
	s1.17-5.34-0.89-5.67H16.58z"/>
<path style="fill:#F4EEED;" d="M18.09,46.85c-2.13,0.04-2.34-5.95,0.78-8.78c3.11-2.84,8.12-2.39,9.84-5.39s0.02-11.64,6.39-14.57
	c7.62-3.5,12.57,2.22,17.07,2.11c3.95-0.1,8.23-9.62,15.73-9.06c7.51,0.56,8.51,6.67,12.84,8.12c4.34,1.45,9.02-3.7,14.46,0.89
	c5,4.23,1.72,10.9,4.89,14.29c2.23,2.39,5-0.36,7.78,3c2.95,3.56,2.78,8.45,2,9.62s-2.39,0.44-2.45-0.5s0.89-3.5-1.67-6.28
	s-4.89-0.4-8.45-4.17c-3.78-4-1.45-10.79-4.5-13.34c-3.06-2.56-8.28,0.62-12.45-0.33c-5.62-1.28-7.78-7.39-12.57-7.51
	c-6.17-0.14-9.22,7.95-14.9,8.62c-6.67,0.78-9.9-5-15.73-1c-5.27,3.61-3,9.84-5.73,13.23s-7.84,1.89-10.45,4.78
	S20.86,46.81,18.09,46.85L18.09,46.85z"/>
<path style="fill:#F4EEED;" d="M109.83,58.36c-0.35,2.69-1.22,4.34-1.95,5.5c-0.66,1.07,0.44,2.78,2.22,1.33
	c1.22-0.99,2.78-2.95,3.06-6.17c0.32-3.72-0.78-6.06-1.5-7.06c-0.93-1.29-2.22-0.61-2,1.28C109.84,54.76,110.1,56.19,109.83,58.36z"
	/>
</svg>
