<?xml version="1.0" encoding="utf-8"?>
<!-- Generator: Adobe Illustrator 26.3.1, SVG Export Plug-In . SVG Version: 6.00 Build 0)  -->
<svg version="1.1" id="a" xmlns="http://www.w3.org/2000/svg" xmlns:xlink="http://www.w3.org/1999/xlink" x="0px" y="0px"
	 viewBox="0 0 128 128" style="enable-background:new 0 0 128 128;" xml:space="preserve">
<path style="fill:#62453B;" d="M41.21,75.56c0,0-5.57-1.35-8.44-7.93s-3.23-17.58-0.34-32.9C35.3,19.54,42.41,8.68,55.91,5.14
	s25.7,1.46,30.85,12.04c7.63,15.66,6.92,25.82,5.23,36.44c-1.69,10.63-7,16.86-7,16.86L41.21,75.56L41.21,75.56z"/>
<path style="fill:#513730;" d="M44.66,72.55c0,0-4.15-3.55-4.5-9.36s1.9-11.25,1.9-11.25L61.55,37.7l22.81-2.58
	c0,0,3.91,10.19,3.2,16.94c-0.71,6.75-2.49,11.37-2.49,11.37L71.8,69.47l-27.13,3.08H44.66z"/>
<path style="fill:#4B0FCE;" d="M88.73,64.04c0,0-4.94-2.63-8.01-3.51s-25.57,2.93-25.57,2.93s-2.55,1.22-5.48,2.93
	s-6.64,4.54-6.64,4.54L29.01,88.4l-9.08,16.92l12.79,4.81c0,0,5.28-6.92,7.58-10.09s5.34-8.2,5.34-8.2s0.78,2.55,1.13,3.7
	s1.47,4.7,1.47,4.7l53.95-8.13L88.72,64.04L88.73,64.04z"/>
<path style="fill:#583EE2;" d="M25.74,120.27c0,0-9.14-3.38-9.82-10.16c-0.55-5.5,0.84-11.27,5.26-18.02
	c4.43-6.74,10.93-12.35,15.41-16.29c3.86-3.4,6.44-4.87,6.44-4.87s4.53-0.43,10.01,0.73s9.27,3.48,9.27,3.48l15.49,5.9l7.69-10.75
	c0,0,1.37-1.69,2.21-3.27c0.84-1.58,1.02-2.98,1.02-2.98s7.16,2.72,13,10.79c5.85,8.07,7.79,15.73,7.79,15.73s2.37,8.07,2.64,14.61
	c0.18,4.17-0.52,6.4-0.52,6.4l-59.6-19.2c0,0-1.49-2.14-2.32-3.89c-0.83-1.75-1.52-4.67-3.08-4.48c-1.56,0.18-3.16,4.46-7.53,9.46
	c-5.6,6.41-6.58,7.15-7.85,7.08c-1.09-0.06-1.87-1.42-3.28-2.06c-1.48-0.67-3.22-0.51-3.22,0.51s1.99,0.45,3.54,1.67
	s3.28,3.49,3.8,5.08c1.09,3.35,0.9,6.31,0.9,6.31l-7.26,8.23L25.74,120.27z"/>
<path style="fill:#FFCA26;" d="M65.6,89.75c0,0-2.08-5.43-2.95-8.97c-0.46-1.89-1.08-6.14-1.08-6.14l23.93-4.35
	c0,0,2.08,2.33,3.74,5.29c1.66,2.96,2.75,5.78,2.75,5.78l-8.81,12.35l-17.57-3.96H65.6z"/>
<path style="fill:#E59502;" d="M60.84,65.18c0,0,0.07,3.4,0.14,4.84s0.58,4.62,0.58,4.62s5.78,2.6,12.64,0.87
	c6.86-1.73,11.28-5.22,11.28-5.22s-2.11-2.22-3.7-3.3s-3.03-2.17-3.03-2.17v-3.97L60.84,65.18L60.84,65.18z"/>
<path style="fill:#E59502;" d="M42.05,51.93c0,0,0.52,2.1,2.76,3.41c1.55,0.91,4.03,0.78,4.03,0.78L47.6,46.07l-2.16-0.62
	c0,0-1.08,1.78-1.93,3.4s-1.44,3.07-1.44,3.07L42.05,51.93z"/>
<path style="fill:#FFCA26;" d="M45.42,45.46c0,0,0.23,8.42,6.26,14.67c6.02,6.26,12.43,8.73,20.16,6.57
	c7.72-2.16,13.44-9.65,13.75-18.92s-1.24-12.67-1.24-12.67s-6.19-2.8-11.91-7.36c-5.72-4.56-7.86-8.17-7.86-8.17
	s-0.08,3.48-3.78,7.65c-3.71,4.17-8.67,9.25-10.66,11.66c-2.93,3.55-4.71,6.57-4.71,6.57H45.42z"/>
<path style="fill:#6D4C3F;" d="M69.5,35.26c0.36,1.18,1.52,0.73,4.86,0.06c3.33-0.68,5.08-0.79,4.91-1.92
	c-0.18-1.23-2.43-1-5.31-0.9c-3.44,0.11-4.86,1.47-4.46,2.77L69.5,35.26z"/>
<path style="fill:#6D4C3F;" d="M48.27,41.85c0.62,1.24,3.39-0.73,5.03-1.41s4.86-1.3,4.69-2.65s-3.33-0.96-5.59-0.06
	c-1.79,0.72-2.26,1.15-2.26,1.15l-0.78,0.92l-0.97,1.27C48.39,41.07,48.08,41.48,48.27,41.85L48.27,41.85z"/>
<path style="fill:#3F4040;" d="M50.7,46.78c-0.22,1.06,1.86,2.82,5.31,2.32s5.53-3.05,4.74-4.23s-2.32,0.56-5.19,1.13
	c-2.44,0.48-4.63-0.28-4.86,0.79V46.78z"/>
<path style="fill:#3F4040;" d="M70.74,42.38c-0.62,1.49,2.09,2.65,5.25,2.09s5.91-3.53,4.23-4.69c-0.73-0.51-1.92,0.85-4.57,1.58
	C73.35,42,71.3,41.02,70.74,42.38z"/>
<path style="fill:#E59802;" d="M63.9,52.13c0.31,1.2,3.4,2.13,4.81,1.79c1.98-0.48,3.61-3.19,2.82-3.92
	c-0.97-0.88-2.86,1.08-3.47,1.17C66.82,51.34,63.53,50.69,63.9,52.13z"/>
<path style="fill:#785446;" d="M63.42,58.21c0.43,1.17,3.74,1.55,6.05,1.2c2.3-0.34,6.39-3.33,5.05-4.43
	c-1.17-0.96-3.02,1.03-5.12,1.48c-1.05,0.22-2.46,0.35-3.71,0.48c-0.67,0.07-1.35,0-1.79,0.24C63.52,57.38,63.28,57.83,63.42,58.21z
	"/>
<path style="fill:#FDFEFA;" d="M82.13,90.94c0,0,0-0.45,0.12-1.18c0.41-2.7,2.27-9.22,10.55-10.88c5.53-1.11,10.2,1.61,12.92,4.61
	c2.78,3.07,3.54,6.43,3.54,6.43L85.84,102.3l-3.7-11.36H82.13z"/>
<path style="fill:#DFD7C5;" d="M82.28,89.3c0,0,0.09,1.08,2.52,2.87c1.6,1.18,3.73,1.52,3.73,1.52l-2.51,8.06l-3.9-10.81
	c0,0,0-0.38,0.05-0.62c0.09-0.48,0.11-1.03,0.11-1.03V89.3z"/>
<path style="fill:#C6E1A5;" d="M87.49,99.95c0,0-2.61-10.5,6.06-15.44c6.59-3.75,12.49-0.64,12.49-0.64
	c1.72,0.96,4.72,5.52,4.99,10.99s-2.57,8.36-2.57,8.36L87.49,99.95L87.49,99.95z"/>
<path style="fill:#A1C07D;" d="M87.29,93.92c0,0,5.68,5.71,13.48,5.84c9.01,0.15,10.17-5.86,10.17-5.86s0.97,5.68-3.05,10.96
	c-1.31,1.73-21.02,2.33-21.02,2.33s-0.41-3.51-0.18-6.02c0.12-1.35,0.23-3.59,0.37-5.15C87.17,94.69,87.3,93.92,87.29,93.92
	L87.29,93.92z"/>
<path style="fill:#9A9A9A;" d="M90.65,105.29c0.07-1.53-5.24-11.49-8.8-14.69c-2.33-2.09-5.09-2.62-6.04-2.76
	c-0.5-0.08-10.41,4.93-19.13,12.73c-7.64,6.84-14.26,16.58-14.26,16.58l8.51,6.11l35.86-11.64c0,0,3.78-4.8,3.85-6.33L90.65,105.29z
	"/>
<path style="fill:#C7C7C7;" d="M82.44,94.82l-26.55,21.17c0,0-1.96,2.98-2.84,4.29s-1.6,3.13-1.6,3.13s12.22-0.87,17.97-2.69
	s8.73-4,8.73-4l9.82-11.71C87.97,105.01,86.08,99.48,82.44,94.82L82.44,94.82z"/>
<path style="fill:#E0E0E0;" d="M77.78,89.95c-0.49-0.13-4.8,3.64-8.51,8c-3.51,4.13-3.56,5.75-3.56,5.75l9.67,2.33
	c0,0,2.55-2.04,4.58-5.24c2.04-3.2,2.91-4.87,2.47-5.96s-2.98-4.44-4.66-4.87L77.78,89.95z"/>
<path style="fill:#E0E0E0;" d="M75.82,87.84c0,0-5.89-1.09-10.62,0.22s-6.18,2.69-6.18,2.69s-10.22,1.4-16.44,5.24
	c-10.62,6.55-9.6,15.06-9.6,15.06l3.09,1.55l8.98-2.49l3.13-2.84l10.91-1.38l4.95-6.47c0,0,2.11-3.2,5.24-5.96s6.55-5.6,6.55-5.6
	L75.82,87.84z"/>
<path style="fill:#C7C7C7;" d="M35.28,116.11l11.84,4.69c0,0,3.08-4.46,4.38-5.77s4.46-4.54,4.46-4.54l-9.69-1.92
	c0,0-4.85,2.92-6.54,3.69S35.27,116.11,35.28,116.11L35.28,116.11z"/>
<path style="fill:#E59502;" d="M32.39,123.14c3.98,1.05,10.14,0.83,13.33,0.83s5,0.02,5.55-0.32s0.54-1.3-0.16-2
	s-7.2-2.68-8.17-3.02s-4.93-1.32-4.72-2.5s1.49-1.23,3.16-1.85s3.23-1.48,3.64-2.52s0.28-1.87-0.83-2.01s-14.37,3.61-15.97,4.44
	s-3.54,3.19-3.54,3.96c0,1.31-0.21,2.92,7.71,5L32.39,123.14z"/>
<path style="fill:#FFCA26;" d="M28.96,111.78c-4.54,2.73-4.28,6.37-4.28,6.37s4.33,2.72,10.54,3.55s16.36,0.76,16.36,0.76
	s-0.46-2.16-3.34-2.89c-2.64-0.67-6.44-1.16-8.62-1.81c-2.18-0.65-3.8-1.76-3.71-2.92c0.11-1.4,2.32-1.85,3.57-1.99
	s3.43-0.56,4.22-1.67s0.49-1.43,0.49-1.43s-6.33-0.14-9.53,0.41C31.46,110.72,30.39,110.92,28.96,111.78L28.96,111.78z"/>
<path style="fill:#C7C7C7;" d="M65.2,104.86l-0.51-4.22l-7.64-3.42c0,0-1.6,0.51-1.38,2.47c0.22,1.96,2.91,3.56,2.91,3.56l2.44,0.59
	l-3.11,0.64l-9.37-2.17c0,0-2.33,0-2.33,1.82c0,1.03,1.75,2.18,1.75,2.18l13.53,3.49l0.78-5.65
	C62.27,104.15,65.2,104.86,65.2,104.86z"/>
<path style="fill:#E59502;" d="M73.33,117.02l-2.39,0.9c0,0-2.37,0.02-6.13-0.07c-3.66-0.08-6.32-0.38-11.02-1.41
	c-2.52-0.55-5.29-2.2-5.15-2.83s0.48-0.93,1.35-0.85s1.33,0.25,1.34-0.1c0.01-0.4-3.69-1.33-4.94-2.24
	c-1.17-0.85-1.01-1.54-1.01-1.79c0-0.55,0.84-0.84,0.84-0.84s-0.65-0.48-0.49-1.38c0.04-0.22,0.33-0.62,0.65-0.73
	c1.56-0.52,5.59,0.43,5.88,0.47c0.4,0.04,0.48-0.36,0.07-0.53c-0.38-0.16-2.22-0.84-3.37-1.37s-2.17-1.17-1.99-2.2
	c0.03-0.17,0.11-0.82,0.71-0.76c2.59,0.22,9.39,2.68,9.39,2.68s3.1-0.42,3.22-0.99s-2.64-2.43-3.11-3.58s-0.63-1.69-0.38-2.42
	c0.31-0.92,1.19-1.03,1.19-1.03l9.07,7.37l9.31,6.66L73.33,117.02L73.33,117.02z"/>
<path style="fill:#FFCA26;" d="M73.33,104.64c0,0-2.29-2-5.95-3.77c-3.66-1.77-6.49-3.25-7.85-4.01s-1.57-1.2-1.91-0.69
	s0.26,2.28,1.5,3.4s2.77,2.48,2.48,3.25s-4.54-0.18-7.38-0.65s-6.49-1.53-7.02-0.71s0.73,1.39,1.62,1.74s4.51,1.65,5.76,2.15
	c1.51,0.61,3.64,1.16,3.54,1.77c-0.07,0.42-3.3-0.39-5.02-0.77c-0.69-0.15-2.64-0.78-4.34-0.96c-1.27-0.14-2.44-0.02-2.81,0.6
	c-0.62,1.04,4.37,2.25,5.73,2.6s5.98,1.24,5.96,1.83c-0.03,1.05-6.63-0.91-7.87-1.27s-3.55-1.37-3.55-1.37s-1.04,0.14-0.79,1.07
	s3.01,1.73,4.84,2.37s6.96,1.65,7.03,2.02c0.16,0.87-3.66,0.35-4.48,0.12s-2.88-0.63-2.88-0.63s-0.62-0.14-1.03,0.3
	c-0.23,0.25-0.25,0.56-0.25,0.56s5.24,1.51,8.65,1.97c8.59,1.15,16.36-0.35,16.36-0.35l2.29-6.64l-2.61-3.95L73.33,104.64z"/>
<path style="fill:#583EE2;" d="M111.77,111.01c0,0,1.81-7.24-9.99-7.96c-9.48-0.58-12.45,2.24-17.74,2.32s-10.71-0.72-10.71-0.72
	s0.18,1.5-0.04,3.97c-0.19,2.14-0.58,3.37-0.58,3.37l16.26,7.72l18.66-2.63c0,0,3.53-3.59,4.15-6.06L111.77,111.01z"/>
<path style="fill:#4B0FCE;" d="M94.32,122.89c-9.48,0.22-16-3.04-18.32-3.91s-5.09-1.04-5.09-1.04s0.4-1.14,0.93-2.78
	c0.41-1.29,0.87-3.18,0.87-3.18s3.73-0.09,6.84,0.7c3.11,0.8,6.59,3.62,15.42,3.4s16.8-5.07,16.8-5.07s-1.34,7.73-6.92,9.97
	c-5.57,2.24-10.53,1.9-10.53,1.9L94.32,122.89z"/>
</svg>
