<?xml version="1.0" encoding="utf-8"?>
<!-- Generator: Adobe Illustrator 26.3.1, SVG Export Plug-In . SVG Version: 6.00 Build 0)  -->
<svg version="1.1" id="a" xmlns="http://www.w3.org/2000/svg" xmlns:xlink="http://www.w3.org/1999/xlink" x="0px" y="0px"
	 viewBox="0 0 128 128" style="enable-background:new 0 0 128 128;" xml:space="preserve">
<ellipse style="fill:#EDBD82;" cx="76.37" cy="38.86" rx="14.59" ry="17.71"/>
<path style="fill:#EDBD82;" d="M36.87,50.59l-9.25-3.06c0,0-1.83,2.38-1.83,5.28c0,3.43,3.13,6.09,5.5,7.97
	c2.38,1.88,14.92,9.49,14.92,9.49L51.16,96l17.14,10.64l20.28-3.17L86.04,75.1L36.87,50.59L36.87,50.59z"/>
<path style="fill:#F9DDBD;" d="M43.25,37.03l-5.27,0.4c0,0-4.48,3.85-6.23,5.6s-4.77,4.18-4.5,6.13c0.49,3.54,3.26,5.12,6.7,7.5
	s7.03,4.51,9.34,5.45c2.27,0.92,4.15-10.52,4.15-10.52s-1.54-0.57-3.1-1.2s-2.73-1.05-2.76-1.24c-0.11-0.69,2.08-2.95,5.12-7.11
	c1.56-2.15,6.24-7.26,7.19-10.76c0.59-2.18-10.62,5.76-10.62,5.76L43.25,37.03z"/>
<path style="fill:#EDBD82;" d="M37.68,30.77l-0.06,4.5l0.32,2.22c0,0,0.87,1.6,4.37,1.48s6.22-1.33,7.64-2.65s3.8-3.92,4.74-6.74
	c0.56-1.67,0.81-3.06,0.81-3.63s-6.25-2.94-6.25-2.94l-11.57,7.75L37.68,30.77z"/>
<path style="fill:#D89852;" d="M37.31,33.27l0.31,2c0,0,1.75,1.25,5.44,0.94s7.57-2.63,9.44-4.56c1.88-1.94,3.56-5.25,3-7.19
	S37.31,33.28,37.31,33.27L37.31,33.27z"/>
<path style="fill:#EDBD82;" d="M76.38,70.88l4.76,30.29l10.59-0.63c0,0,1.52-7.29,3.06-12.75c0.93-3.29,1.76-6.59,2.06-8.74
	c0.43-3.1-20.48-8.17-20.48-8.17L76.38,70.88z"/>
<path style="fill:#F9DDBD;" d="M104.53,47.43l-0.8-3.06c0,0,0.48-0.55,1.31-0.35s2.94,2.65,2.94,2.65l1.32,1.13
	c0,0,3.27,3.24,4.23,7.53c0.95,4.28,1.22,7.86,1.61,9.42s4.33,9.61,5.41,14.54s0.63,10.31,0.63,10.31l-4.53,1.8l-7.05-5.28
	l-0.39-11.9l-1.9-11.08L104.53,47.43z"/>
<path style="fill:#EDBD82;" d="M88.5,89.96c0,0,2.93-8.94,4.98-12.46c2.09-3.59,13.7-4.01,13.7-4.01s1.31,1.31,1.43,1.37
	s-1.31-6.28-1.8-7.22s-1.93-2.05-3.36-3.98s-1.56-2.61-2.36-3.48s-2.18-2.12-1.31-3.23s2.49,0.62,3.55,1.12s1.62,0.75,1.93,0.44
	s-1.12-3.36-2.12-5.66s-2.93-4.96-2.7-6.1c0.19-0.93,1.06-0.85,1.06-0.85s-0.23-0.86,0.62-1.21c0.93-0.39,1.45,0.5,1.45,0.5
	s-0.19-0.83,0.43-1.02s1.26,1.03,1.82,2.02s1.42,2.55,1.42,2.55s-0.37-1.48,0.29-1.94c0.89-0.61,1.76,1.01,1.76,1.01
	s-0.73-0.34-0.91,0.4s1.44,3.76,2,4.94s0.97,4.29,0.72,6.35s-1.84,4.91-1.91,5.71s1.02,13.87,1.41,16.43
	c0.53,3.53,2.99,7.34,5.04,8.34s5.54-0.37,5.54-0.37s-0.42,4.03-5.1,4.04c-2.24,0-6.41-1.67-10.01-3.48
	c-1.98-1-9.31-5.07-10.48-4.87c-2.13,0.37-7.1,4.67-7.1,4.67L88.5,89.96z"/>
<path style="fill:#F9DDBD;" d="M102.24,68.24c-1.78-1.76-5.14-4.91-12.69-7.79c-3.26-1.24-7.34-1.92-10.49-1.24
	c-0.66,0.14-13.99-1.4-13.99-1.4S60.86,54.9,57,53.69s-8.71-1.84-9.57-2.1c-0.48-0.15-3.72,2.08-4.73,4.04c-1.45,2.83-2,5.2-2,5.2
	s4.68,2.15,6.23,3.85c1.42,1.56,1.45,10.2,3.15,17.04c0.53,2.13,6.75,7.54,8.66,7.96c3.12,0.69,9.97-1.07,9.97-1.07
	s5.89,2.9,7.98,3.83c1.17,0.52,6.71,1.28,10.58,0.31c2.41-0.61,7.05-13.24,7.05-13.24s1.7,3.11,7.88,5.17
	c3.24,1.08,6.99,1.1,6.99,1.1s-0.56-2.56-0.53-5.27s0.12-3.82-0.03-5.66c-3.02-3.28-4.36-4.6-6.38-6.6L102.24,68.24z"/>
<path style="fill:#FFFFFF;" d="M61.26,49.99c0,0,0.69,1.68,2.38,2.28s2.77,0.3,2.77,0.3l-2.58-3.86L61.25,50L61.26,49.99z"/>
<path style="fill:#5E6367;" d="M90.39,46.92c0,0,4.61-0.69,4.85-7.28s-1.93-6.99-1.93-6.99l-2.33,2.82L90.39,46.92L90.39,46.92z"/>
<g>
	<path style="fill:#F47A00;" d="M56.34,22.43c-1.54,6.8-7.39,11.9-14.5,11.9c-8.27,0-15.46-6.19-15.18-15.43
		c0.17-5.61,3.26-10.35,7.79-12.84l21.9,16.38L56.34,22.43z"/>
	<path style="fill:#FFA726;" d="M56.34,22.44c0.25-1.12,0.47-2.59,0.47-3.76c0-8.33-6.7-14.51-14.97-14.51
		c-2.69,0-5.21,0.68-7.4,1.88c0,0-4.28,8.4,2.06,14.84c8.03,8.17,19.84,1.54,19.84,1.54V22.44z"/>
	<path style="fill:#954A06;" d="M48.04,22.42c0,0-0.3,3.64-2.93,6.6c-2.53,2.85-5.82,5.09-5.82,5.09s0.39,0.37,1.27,0.39
		s1.36-0.18,1.36-0.18s3.41-2.18,5.49-4.74c1.96-2.41,2.57-5.64,2.45-5.6C49.86,23.98,48.04,22.42,48.04,22.42z"/>
	<path style="fill:#AD5910;" d="M51.71,25.32l0.13-1.12c-0.91-1.3-2.51-3.27-4.13-4.67c-4.29-3.72-8.21-4.8-8.21-4.8
		s-0.31-2.07,1.7-5.21c2.01-3.15,5.28-4.67,5.28-4.67s-0.59-0.42-1.45-0.55s-1.45-0.05-1.45-0.05s-2.59,0.89-5.11,4.44
		c-2.17,3.05-2.01,6.4-2.01,6.4s-1.2,1.11-2.37,2.37l-0.07,1.86l1.52,0.44c1.21-1.35,2.57-2.76,2.57-2.76s2.27,0.26,6.45,3.2
		c1.19,0.83,2.3,1.98,3.29,3.16c0,0-0.05,0.32-0.12,0.65s-0.28,0.93-0.28,0.93s0.95-0.03,1.57-0.07L51.71,25.32L51.71,25.32z"/>
	<path style="fill:#954A06;" d="M51.84,24.21c1.5,2.15,2.04,3.85,2.04,3.85s-0.21,0.59-0.7,1.15s-1.05,0.85-1.05,0.85
		s-1.08-2.49-3.14-5.18c0,0,0.76-0.11,1.37-0.24s1.49-0.43,1.49-0.43H51.84z"/>
	<path style="fill:#954A06;" d="M34.09,17.45c-0.58,0.62-1,1.16-1.56,1.87c-1.44,1.84-4.36,6.81-4.36,6.81s0.1,0.6,0.48,1.24
		c0.33,0.57,1.03,1.16,1.03,1.16s2.34-4.3,3.84-6.32c0.6-0.81,1.22-1.53,2.03-2.44c0,0-0.58-0.69-0.89-1.21s-0.55-1.12-0.55-1.12
		L34.09,17.45z"/>
	<path style="fill:#954A06;" d="M32.16,21.01c0,0-3.13-2.63-2.67-8.05c0.21-2.44,1.04-3.67,1.91-4.63c1.15-1.27,2.35-1.85,2.35-1.85
		s-2.15,2.47-2.3,6.55c-0.14,3.83,2.23,6.72,2.23,6.72L32.16,21.01z"/>
	<path style="fill:#AD5910;" d="M39.32,11.32c0,0,2.6-0.45,7.98,2.89c4.85,3.01,9.04,8.27,9.04,8.27s0.27-0.69,0.35-1.24
		s0.04-1.06,0.04-1.06s-3.13-4.07-7.25-7.01c-4.41-3.14-9.02-3.86-9.02-3.86l-1.15,2L39.32,11.32z"/>
	<path style="fill:#AD5910;" d="M41.83,24.25c1.02-2.02,1.85-4.57,1.91-5.36c0.07-1.04-1.86-1.04-1.86-1.04s-0.66,3.05-2.06,5.55
		l0.64,1.14C40.46,24.54,41.83,24.25,41.83,24.25z"/>
	<path style="fill:#954A06;" d="M39.82,23.4c-0.17,0.3-0.31,0.47-0.5,0.76c-2.12,3.12-6.66,7.25-6.66,7.25s0.32,0.4,0.76,0.68
		c0.44,0.28,1.16,0.51,1.16,0.51s4.82-4.66,6.38-6.92c0.36-0.53,0.57-0.82,0.88-1.43c0,0-0.43-0.12-1.08-0.39S39.83,23.4,39.82,23.4
		L39.82,23.4z"/>
</g>
<path style="fill:#85E4FF;" d="M106.1,108.4c-3.03,2.75-9.51,3.8-8.96,6.25c0.54,2.44,7.13,2.38,12.43-1.22s5.77-8.45,3.26-9.98
	s-3.06,1.63-6.72,4.96L106.1,108.4z"/>
<path style="fill:#85E4FF;" d="M16.47,98.06c-0.79,1.04-0.14,2.47,1.8,4.05s10.51,8.77,20.94,13.1c5.54,2.3,11.1,2.88,12.16,3.17
	s11.11,4.6,16.34,5.11c16.19,1.58,20.18-2.86,21.11-3.72s1.27-2.25,0.91-2.75s-1.37-0.43-2.88-0.07s-8.92,1.3-16.41,0.22
	s-16.05-4.82-17.27-5.11s-8.21-1.07-19.58-6.41c-10.17-4.78-12.52-6.41-13.53-7.05S17.48,96.73,16.47,98.06L16.47,98.06z"/>
<path style="fill:#85E4FF;" d="M34.67,100.98c2.52,0.07,2.48-2.15,0.65-4.11c-2.5-2.68-6.36-8.1-9.3-13.62s-3.39-13.33-3.46-15.13
	c-0.1-2.87-0.71-5.75-2.44-5.75s-2.58,1.73-2.58,5.12s0.34,6.54,0.05,6.54c-0.72,0-4.18-15.06,0.22-24.43s11.02-14.27,11.82-14.77
	s0.58-1.51,0.14-1.95s-1.15-0.58-2.16-0.07s-10.55,5.43-14.84,17.08c-4.76,12.9-1.22,24.18-1.66,24.18s-1.84-5.02-3.17-4.79
	c-1.55,0.26-2.67,5.57,3.46,16.07c7.65,13.1,21.72,15.59,23.27,15.64V100.98z"/>
<g>
	<path style="fill:#0FCAFF;" d="M41.99,96.71c0.03,1.96-1.48,1.43-1.31,3.31c0.03,0.34,0.26,1.09,1.08,1.87
		c3.7,3.52,15.39,10.33,33.77,10.91c22.45,0.71,29.12-9.77,29.76-12.02c0.87-3.07,0.25-4.9,0.25-4.9l-11.66,5.83L77.5,99.1
		l-6.64,4.87l-13.56-2.26L45.79,91.26l-7.56-2.05c0,0-1.12-0.36-1.23,0.7c-0.22,2.2,4.95,4.83,4.98,6.79L41.99,96.71z"/>
	<path style="fill:#85E4FF;" d="M37.02,89.95c-0.02-1.1,0.85-3.45,4.87-3.25c5.51,0.28,9.11,3.95,12,6.57
		c2.9,2.61,6.9,6.3,11.23,6.99c3.53,0.56,5.6-1.58,4.66-4.31c-1.34-3.88-4.52-4.17-4.87-4.94c-0.61-1.35,0.28-3.19,3.53-3.25
		c3.88-0.07,6.71,1.55,11.65,5.23c5.9,4.38,6.82,4.93,9.89,5.51c3.39,0.64,8.54-0.64,8.26-2.54s-2.94-2.12-2.9-3.46
		c0.05-1.69,4.81-1.92,7.92,0.34c1.69,1.23,2.2,2.37,2.28,3.05c0.07,0.6-3.28,5.57-7.73,7.12s-8.05,1.13-11.93,0.14
		s-3.18-1.91-6.64-1.48s-4.17,3.39-5.51,4.24s-5.01,2.75-12.36,0.14c-7.34-2.61-9.53-5.93-10.8-7.56s-4.02-5.01-7.27-6.64
		s-6.28-1.91-6.28-1.91L37.02,89.95z"/>
</g>
<g>
	
		<ellipse transform="matrix(0.7071 -0.7071 0.7071 0.7071 -42.6522 62.9506)" style="fill:#EDBD82;" cx="54.66" cy="82.96" rx="2.13" ry="2.91"/>
	
		<ellipse transform="matrix(0.9991 -0.0424 0.0424 0.9991 -3.7113 3.5969)" style="fill:#EDBD82;" cx="82.94" cy="89.29" rx="2.78" ry="2.16"/>
</g>
<path style="fill:#F9DDBD;" d="M78.3,23.89C73.95,23.82,65.04,26.47,65.63,40c0.6,13.56,9.83,15.48,9.83,15.48l2.24,0.78l7.87-2.77
	l3.82-5.55l1.8-8.54l-2.1-9.59l-3.37-4.35C85.72,25.46,83.02,23.96,78.3,23.89z"/>
<g>
	<path style="fill:#3F4040;" d="M71.74,34.29c-1.61,0-2.24,1.68-2.09,2.99s1.2,2.2,2.43,2.17s2.25-1.11,2.18-2.73
		S73.22,34.29,71.74,34.29L71.74,34.29z"/>
	<path style="fill:#3F4040;" d="M84.32,34.33c-1.24,0.07-2.02,1.28-1.97,2.69c0.05,1.49,1.24,2.42,2.48,2.29
		c1.31-0.14,1.88-1.42,1.8-2.85S85.64,34.25,84.32,34.33L84.32,34.33z"/>
</g>
<path style="fill:#DBA689;" d="M76.4,41.82c-0.34,0.74,1.12,2.4,2.71,2.4s2.86-1.58,2.63-2.28s-1.2-0.31-2.59-0.31
	s-2.51-0.31-2.74,0.19H76.4z"/>
<path style="fill:#444444;" d="M73.72,46.72c-0.48,1.04,2.43,2.9,5.02,2.9s5.65-1.73,4.75-2.98c-0.5-0.7-2.16-0.04-4.64,0.04
	s-4.71-0.89-5.14,0.04L73.72,46.72z"/>
<g>
	<path style="fill:#312D2D;" d="M81.74,29.33c-0.55,0.55-0.61,1.8,0.12,2.24c0.25,0.15,1.19,0.02,2.13,0s1.99,0,2.23-0.02
		c0.77-0.04,1.36-0.25,1.4-0.64s-0.77-1.66-2.05-1.97S82.48,28.59,81.74,29.33z"/>
	<path style="fill:#312D2D;" d="M74.85,31.42c0.76-0.33,0.77-1.78,0.04-2.28c-1.21-0.83-3.79-0.62-5.06,0.23
		c-1.02,0.68-1.58,1.55-1.28,1.93s2.43,0.12,3.44,0.12S74.23,31.69,74.85,31.42z"/>
</g>
<path style="fill:#EDBD82;" d="M64.81,52.12v5.75c0,0-0.43,1.53-2.09,2.22c-1.56,0.64,2.5,2.89,5.98,7.6
	c0.54,0.69,1.73,0.74,2.44,0.51c3.48-2.98,12.07-4.99,12.73-6.11s-3.58-2.94-3.58-2.94l0.25-2.93l-6.79-0.03l-8.96-4.06L64.81,52.12
	z"/>
<path style="fill:#5E6367;" d="M64.03,49.59c0,0-4.53,2.45-9.15-2.16c-5.08-5.08-2.34-11.36-2.34-11.36l3.4-2.92
	c0,0,0.97-4.19,1.33-4.99c0.65-1.49,6.67,0.18,6.67,0.18l-2.39,10.29l2.25,8.04L64.03,49.59L64.03,49.59z"/>
<path style="fill:#858585;" d="M57.27,28.16c0,0,0.71,1.19,2.47,1.63s3.27-0.88,3.27-0.88l6.67-6.01l4.86-1.77l7.64,0.75l4.68,4.06
	l1.77,2.52l2.56,8.17c0,0,1.36,0.03,2.25-0.04c1.02-0.09,1.68-0.44,1.68-0.44S94.9,33.72,93.27,32s-3.58-2.78-3.58-2.78l-0.57-1.41
	c0,0-2.65-11.49-15.86-11.27C60.09,16.76,57.27,28.16,57.27,28.16z"/>
<path style="fill:#FFFFFF;" d="M72.25,66.96c-0.14,0-0.28-0.04-0.4-0.11c-0.37-0.22-0.49-0.7-0.26-1.07c0.01-0.02,1-1.66,1.61-3.12
	c0.37-0.87,0.68-2.12,0.92-3.25c-1.41,1.37-3.22,2.85-4.58,2.77c-0.52-0.03-0.97-0.28-1.27-0.72c-1.48-2.18,2.49-5.16,3.31-5.74
	c0.34-0.25,0.83-0.17,1.08,0.18s0.17,0.83-0.18,1.08c-1.71,1.21-3.32,3.01-2.92,3.6c1.05,0.08,3.45-2.09,5.21-4.15
	c0.23-0.26,0.6-0.34,0.91-0.2c0.32,0.14,0.5,0.48,0.45,0.82c-0.03,0.17-0.62,4.09-1.5,6.2c-0.66,1.57-1.67,3.25-1.72,3.32
	c-0.14,0.24-0.4,0.38-0.66,0.38L72.25,66.96z"/>
<path style="fill:#FFFFFF;" d="M78.8,65.62c-0.21,0-0.43-0.09-0.58-0.26c-0.07-0.07-1.61-1.83-2.16-4.14
	c-0.61-2.56-0.45-4.56-0.45-4.65c0.04-0.43,0.42-0.74,0.84-0.71c0.43,0.04,0.74,0.41,0.71,0.84c0,0.02-0.14,1.85,0.41,4.15
	c0.46,1.93,1.8,3.46,1.81,3.48c0.28,0.32,0.25,0.81-0.07,1.09c-0.15,0.13-0.33,0.19-0.51,0.19L78.8,65.62z"/>
<path style="fill:#858585;" d="M52.13,37.4c0,0,1.87,0.13,2.53,0.89s0.75,1.15,1.28,2.08s2.34,0.93,2.65-0.31s-0.13-3.53-0.71-4.68
	s-1.87-2.74-1.87-2.74s-1.31,0.58-2.26,1.59C52.34,35.73,52.12,37.41,52.13,37.4L52.13,37.4z"/>
<path style="fill:#FFFFFF;" d="M76.57,57.6c-0.42,0-0.84-0.02-1.26-0.05c-5.91-0.44-14.79-6.77-14.56-19.18
	c0.14-7.65,3.37-12.15,5.86-14.49c2.92-2.75,6.69-4.16,10.61-4.01l0,0c10.48,0.44,14.95,10.6,14.73,20.47
	c-0.12,5.6-2.09,10.4-5.54,13.54C83.72,56.33,80.34,57.6,76.57,57.6z M76.73,22.17c-3.17,0-6.32,0.97-8.7,3.22
	c-2.2,2.07-4.85,6-4.98,12.93c-0.21,11.47,7.98,16.84,12.41,17.17c3.69,0.27,7-0.82,9.56-3.14c3.02-2.75,4.75-7.03,4.86-12.05
	c0.18-8.22-2.94-17.71-12.64-18.11C77.07,22.19,76.9,22.18,76.73,22.17L76.73,22.17z"/>
</svg>
