<?xml version="1.0" encoding="utf-8"?>
<!-- Generator: Adobe Illustrator 26.3.1, SVG Export Plug-In . SVG Version: 6.00 Build 0)  -->
<svg version="1.1" id="a" xmlns="http://www.w3.org/2000/svg" xmlns:xlink="http://www.w3.org/1999/xlink" x="0px" y="0px"
	 viewBox="0 0 128 128" style="enable-background:new 0 0 128 128;" xml:space="preserve">
<path style="fill:#2F2F2F;" d="M25.23,94.08c0,0-0.88-0.09-1.85,0.55s-3.83,2.45-5.68,3.51c-1.72,0.99-5.54,2.72-5.82,5.54
	c-0.25,2.49,1.85,4.19,4.11,4.02c2.45-0.18,4.62-1.71,7.02-3.14s3.69-2.17,4.57-2.58s1.66-1.2,1.66-1.2l-4.02-6.69L25.23,94.08z"/>
<path style="fill:#007A71;" d="M52.72,88.25c0,0,0.69,0.85,1.13,1.17s1.18,0.56,1.18,0.56l3.54-3.79l-7.86,0.36l2.02,1.69
	L52.72,88.25z"/>
<path style="fill:#FFCE27;" d="M38.58,82.89l1.49-3.99c0,0,2.86-2.58,4.39-3.55s3.55-1.89,3.55-1.89L59.66,84.5l-5.08,3.26
	c0,0-1.97,1.29-3.18,1.73s-3.1,0.77-3.1,0.77l-8.83-3.67L38.58,82.89L38.58,82.89z"/>
<path style="fill:#2F2F2F;" d="M64.14,107.64c0,0-1.09-0.87-2.19-1.46s-2.73-0.73-3.65,0.09s-1.34,1.81-1.5,2.64
	c-0.23,1.14-0.96,5.38-1.32,6.88s-1.28,2.6-1.23,5.1c0.04,2.37,1.46,3.05,2.23,3.05s2.1-1.91,3.19-3.42c1.03-1.41,3.24-4.6,3.24-4.6
	l1.23-8.29V107.64z"/>
<path style="fill:#FFCE27;" d="M69.48,99.39l-0.68,7.84l5.29,6.88l5.83-2.32c0,0,1.93-2.28,2.83-4.45c0.82-1.98,1.13-6.57,1.13-6.57
	L73.26,96.4l-3.78,3.01V99.39z"/>
<path style="fill:#5E6367;" d="M62.46,116.57c0,0-1.23-2.02-0.87-4.83c0.32-2.46,1.55-3.87,2.69-5.33s2.64-3.05,3.55-3.78
	s2.23-0.87,2.23-0.27s-0.59,5.28,2.49,7.9c3.87,3.29,8.19,0.47,8.17,0.58c-0.05,0.23-1.8,3.18-8.88,4.6
	c-6.52,1.3-9.39,1.14-9.39,1.14L62.46,116.57z"/>
<path style="fill:#00BDA3;" d="M74.31,73.71L57.69,67.9l-7.15,8.62c0,0,2.39,2.63,3.46,7.18c0.86,3.67,0.41,5.81,1.03,6.29
	s2.94,0.07,5.68-1.44c2.74-1.5,5.55-3.64,6.5-3.35c0.7,0.22,0.39,3.02,0.39,3.02l4.65,12.93c0,0,2.48-1.24,5.97-1.18
	c3.74,0.06,5.52,1.76,5.86,1.56s1.8-9.49,2.21-14.69s0.34-10.91,0.34-10.91L74.31,73.71L74.31,73.71z"/>
<path style="fill:#06927F;" d="M46.68,73.76c-0.1-0.3,3.72-2.98,6.49-4.75c2.45-1.56,5.53-3.35,5.53-3.35l3.24,2.64l1.16,1.91
	c0,0-3.46,0.58-4.59,1.11c-2.05,0.96-7.96,5.24-7.96,5.24s-0.77-1.07-2.25-1.92C47.28,74.05,46.79,74.06,46.68,73.76L46.68,73.76z"
	/>
<path style="fill:#007A71;" d="M58.69,65.66l2.17-1.43l26.89,8.09c0,0-0.3,1.43-0.49,1.97s-0.64,1.63-0.64,1.63
	s-7.85,1.54-17.22-2.22C60.42,70.1,58.69,65.66,58.69,65.66z"/>
<path style="fill:#F0A007;" d="M106.66,53.2l-8.55,1.84l2.52,3.1c0,0,1.95,0.63,2.87,0.92s2.58,1.03,2.58,1.03s0.06,3.15,0.23,4.42
	s0.23,4.19,0.17,4.47s-1.93,1.06-2.79,1.92c-0.98,0.97-1.23,2.12-1.34,3.97c-0.07,1.15-0.45,3.35,0.52,3.35s1.69-0.71,1.82-1.57
	c0.07-0.46-0.09-1.33,0.58-1.47c1.15-0.23,1.13,1.01,0.4,2.24s-2.7,3.6-2.41,4.36c0.4,1.03,1.78,0.75,2.52,0.17s1.43-1.38,1.43-1.38
	s0.66,0.62,1.78,0.57c1.33-0.05,2.98-1.49,3.79-2.24s1.38-1.89,1.38-1.89l-3.44-22.43l-4.07-1.38L106.66,53.2z"/>
<path style="fill:#FFCE27;" d="M101.1,54.58c0,0,2.27,0.89,3.88,1.56c1.49,0.62,3.34,1.76,3.74,2.97s0.29,3.21,0.29,4.82
	c0,1.61,0.34,5.68,0.29,6.54s-1.15,3.04,0.29,4.47s4.42,2.12,4.59,2.06s1.03-2.52,1.09-4.65s-0.29-4.53-0.29-4.53l0.29-5.28
	c0,0,0.06-4.99-1.38-7.57c-2.34-4.2-9.18-7.11-9.18-7.11l-3.61,6.71L101.1,54.58z"/>
<ellipse style="fill:#AEAEAE;" cx="36.19" cy="15.78" rx="12.04" ry="11.73"/>
<path style="fill:#E0E0E0;" d="M43.21,10.25c0,0-0.46-1.49-3.39-2.64c-2.03-0.8-4.65-0.4-4.65-0.4l-6.6,3.27l-1.66,6.49l2.76,5.28
	c0,0,0.98,1.09,3.21,2.24s5.22,0.57,5.22,0.57l5.17-1.78l2.47-7.18l-2.53-5.86V10.25z"/>
<path style="fill:#464C4F;" d="M44.93,25.35l2.64-5.17l0.69-4.59c0,0,0.07-1.72-0.63-3.79c-0.86-2.53-2.53-3.9-2.53-3.9
	s-1.95,1.21-2.64,2.3s-1.32,2.76-1.32,2.76s3.1,1.78,3.1,2.41s-0.23,2.53-0.52,3.33s-1.55,2.18-1.89,2.53s-3.73,0-3.73,0
	s-0.98,2.53-1.09,2.87s0.69,3.62,0.69,3.62l4.13,0.92l3.1-3.27L44.93,25.35z"/>
<path style="fill:#F09E00;" d="M39.94,35.97c0,0-0.99-2.23-1.62-3.49s-0.68-2.21-1.79-3.16s-2.1-1.74-2.1-1.74s0.11-0.84,0.69-1.32
	s1.52-0.42,1.52-0.42l3.26,1.37c0,0,6.31-0.53,6.05,0.47s-0.79,2.84-0.79,2.84l-0.95,5.31L49,41.25l6.05,2.73l0.26,5.94
	c0,0-2.88,1.06-6.54,0.53c-2.09-0.3-4.08-2.27-4.82-3.79s-2.79-7.89-2.79-7.89l-1.22-2.82L39.94,35.97z"/>
<path style="fill:#FFCA26;" d="M43.34,37.29c0,0,1.27,3.83,2.76,5.97c1.28,1.83,2.73,3.05,4.68,3s4.21-0.53,4.21-0.53l-0.26-7.78
	c0,0-1.21,0.16-1.79,0.16s-1.89,0.21-1.89,0.21s-0.79-1.21-1.42-1.95s-2.37-2.73-2.37-2.73l-3.92,3.66L43.34,37.29z"/>
<path style="fill:#06927F;" d="M70.41,42.4l-12.45-0.2l-4.88,3.36c0,0,0.17,2.14,0.62,3.56s1.08,2.87,1.89,2.94s5.61-0.6,5.91-0.24
	s-0.59,3.46-1.25,6.04S59,62.2,59.44,64.05c0.44,1.84,5.08,5.3,13.62,7.66s14.6,1.95,15.7,1.05s4.33-14.6,4.33-14.6
	s5.99,3.74,6.63,3.31c0.52-1.4,0.98-2.89,0.98-2.89L89.12,45.26L70.41,42.4L70.41,42.4z"/>
<path style="fill:#00BDA3;" d="M54.08,37.72c1.15-0.14,7.41-0.72,11.8-0.72s10,0.43,14.67,1.37c4.68,0.94,9.21,2.59,14.17,4.53
	s10.36,4.96,10.36,4.96s-1.57,2.71-2.45,4.89s-1.94,5.83-1.94,5.83s-2.66-1.37-3.74-2.01s-2.23,0.22-2.66,1.58s-2.37,8.06-2.81,10
	s-1.37,4.32-2.73,4.6s-7.34-0.29-12.8-1.65c-5.47-1.37-7.98-2.52-9.21-3.38s-2.45-3.6-2.45-5.47s1.94-9.06,2.52-11.22
	s1.01-4.82-2.37-5.83s-11.37,0.36-11.37,0.36s0.07-2.58,0.43-4.67C53.78,39.26,54.08,37.73,54.08,37.72L54.08,37.72z"/>
<path style="fill:#F0A007;" d="M75.93,36.82l-0.22,3.37c0,0-0.19,1.09,0.56,2.11s2.43,1.97,4.91,1.83c4.23-0.25,4.59-2.91,4.59-2.91
	L86,38.65C86,38.65,75.93,36.82,75.93,36.82z"/>
<path style="fill:#5E6367;" d="M106,62.76c-0.14,0.45-0.16,5.26,0.21,5.68s2.94,0.63,5.21,0.63s3.9,0.56,4.31-1.1
	c0.53-2.1,0.53-4.26,0.05-5.05s-2.16-1.1-5.15-1.16C107.63,61.71,106.21,62.08,106,62.76z"/>
<path style="fill:#5E6367;" d="M38.37,33.53c-0.16,1.21,1.79,5.94,2.52,5.94s2.73-0.32,5.05-1.95s2.89-2.42,2.58-3.21
	s-2.52-4.42-3.1-4.42s-1.79,1.95-3.26,2.52c-1.47,0.57-3.72,0.56-3.79,1.1V33.53z"/>
<path style="fill:#FFCA26;" d="M36.64,25.85c0,0,0.6-0.04,1.21,0.21c0.79,0.32,2.57,0.79,3.57,0.37s2.68-1.84,4.1-4.42
	c1.18-2.14,1.79-5.31,2.26-6.21s0.95,0.84,1,1.68s-0.25,3.55-1.46,7.4c-0.58,1.84-1.68,3.86-1.68,3.86s-2.01,1.47-4.48,1.15
	c-2.41-0.31-3.94-3.79-4.52-4.05L36.64,25.85z"/>
<path style="fill:#06927F;" d="M68.57,85.13c-0.99,0.15-1.03,1.03-0.96,5.06c0.07,4.04,0.27,11.15,0.48,11.7s1.93,0,2.54-0.2
	s3.63-1.03,3.7-1.98s-1.11-7.33-2.07-9.99C71.3,87.05,70.41,84.86,68.57,85.13L68.57,85.13z"/>
<path style="fill:#DCDCDC;" d="M60.32,112.29c0.06,0.32-1.22,3.41-1.41,3.46c-0.28,0.07-3-2.05-3-2.05s0.34-1.88,0.43-2.38
	s0.45-2.31,0.45-2.31s3.37,2.45,3.53,3.27V112.29z"/>
<path style="fill:#5E6367;" d="M25.02,93.64c0,0,4.83-5.31,8.1-8.73c3.46-3.63,6.05-6,6.86-6.07s0.35,4.04,2.59,6.81
	c3.6,4.46,6.18,4.08,6.28,4.51c0.22,0.96-4.95,3.92-9.9,6.21s-10.05,4.65-10.05,4.65s-2.57-1.12-3.55-2.96
	C24.17,95.84,25.01,93.64,25.02,93.64L25.02,93.64z"/>
<path style="fill:#DCDCDC;" d="M25.33,101.33c-0.5-0.03-3.46,1.57-3.51,2.03s1.4,1.06,1.4,1.06s0.91-0.51,1.81-1.03
	s1.8-1.01,1.96-1.13c0.27-0.21-0.98-0.88-1.66-0.92L25.33,101.33z"/>
<path style="fill:#62453B;" d="M90.36,35.14l5.15-6.94c0,0,2.4-8.13,1.47-12.92c-0.93-4.78-5.82-8.6-11.87-9.18
	c-6.47-0.62-11.48,1.47-13.92,5.86c-2.94,5.3-0.88,12.82-0.88,12.82s1.01,4.76,1.29,6.21c0.28,1.45,3.24,4.22,3.24,4.22l15.51-0.08
	L90.36,35.14z"/>
<path style="fill:#EF9E01;" d="M73.84,31.45c0,0-3.69,0.35-4.57-3.22s0.9-5.68,2.81-5.49c0.63,0.06,0.64,1.98,1.25,5.63
	c0.21,1.25,0.5,3.07,0.5,3.07L73.84,31.45z"/>
<path style="fill:#FFCB29;" d="M95.42,17.78c0,0-4.86-0.94-7.84-1.16c-5.31-0.4-10.24-0.2-10.24-0.2s-0.99,7.33-1.46,8.76
	c-0.87,2.62-2.54,3.21-2.54,3.21s-0.27,2.81,0.31,4.8c0.85,2.92,5.34,8.54,11.81,8.76c5.68,0.2,8.22-5.84,8.98-8.49
	C95.85,28.59,96.13,21.48,95.42,17.78z"/>
<g>
	<path style="fill:#62453B;" d="M84.55,22.01c0.49-0.35,0.56-1.29,0.16-1.63s-3.02-0.42-3.78-0.31c-1.22,0.18-2.07,1.2-1.89,1.58
		c0.09,0.19,1.51,0.08,2.77,0.21c1.26,0.13,2.51,0.31,2.74,0.16V22.01z"/>
	<path style="fill:#62453B;" d="M93.98,22.72c0.36-0.46-0.36-1.32-1.65-1.72c-1.12-0.35-2.27-0.25-2.52,0.08
		c-0.29,0.4-0.47,1.11,0.11,1.43C90.15,22.64,93.64,23.16,93.98,22.72L93.98,22.72z"/>
</g>
<g>
	<path style="fill:#2F2F2F;" d="M81.52,24.35c0.94,0.03,1.94,0.71,1.75,2.43c-0.17,1.57-1.07,2.27-2.2,2.13s-1.69-1.15-1.6-2.37
		s0.95-2.23,2.05-2.2L81.52,24.35z"/>
	<path style="fill:#2F2F2F;" d="M91.73,25.21c0.89,0.07,1.62,0.96,1.52,2.36s-1,2.07-2,2.05s-1.78-0.92-1.62-2.26
		s0.91-2.23,2.1-2.14L91.73,25.21z"/>
</g>
<path style="fill:#E59502;" d="M86.17,33.09c-0.93-0.15-2.01-0.79-1.95-1.36s1.26-0.5,2.19-0.4s2.18,0.18,2.12,0.8
	c-0.06,0.62-1.48,1.1-2.35,0.96H86.17z"/>
<path style="fill:#62453B;" d="M85.98,35.33c1.39,0.1,3.15-0.79,3.5,0.06s-1.15,2.14-3.69,1.91c-2.78-0.25-4.16-1.71-3.73-2.55
	s2.36,0.46,3.91,0.58L85.98,35.33z"/>
<path style="fill:#464C4F;" d="M34.31,10.71c0,0,1.66-3.04,1.66-3.73s-1.03-2.87-1.03-2.87s-2.39-0.03-4.92,1.33
	c-1.73,0.93-3.69,2.48-4.83,5.15c-1.24,2.9-1.23,5.52-0.79,7.65c0.89,4.22,3.48,6.03,3.48,6.03s2.58-1.55,3.04-1.95
	s1.32-2.99,1.32-2.99l-3.27-2.53c0,0-0.16-2.43,0.34-3.67s1.78-2.47,1.78-2.47L34.31,10.71L34.31,10.71z"/>
</svg>
