<?xml version="1.0" encoding="utf-8"?>
<!-- Generator: Adobe Illustrator 26.3.1, SVG Export Plug-In . SVG Version: 6.00 Build 0)  -->
<svg version="1.1" id="a" xmlns="http://www.w3.org/2000/svg" xmlns:xlink="http://www.w3.org/1999/xlink" x="0px" y="0px"
	 viewBox="0 0 128 128" style="enable-background:new 0 0 128 128;" xml:space="preserve">
<path style="fill:#AE3A00;" d="M52.77,88.55c0,0,0.68,0.84,1.12,1.16s1.17,0.56,1.17,0.56l3.52-3.77l-7.82,0.36L52.77,88.55
	L52.77,88.55z"/>
<path style="fill:#3C2C23;" d="M92.79,36.31c0,0,4.07-0.36,6-5.38c1.62-4.22-0.39-7.31-0.39-7.31s2.29-1.42,2.33-4.8
	s-2.83-5.41-2.83-5.41s1.19-1.85,0.53-4.06s-2.72-3.34-3.34-3.07s-0.65,2.55-2.72,2.45c-3.79-0.18-5.8-5.24-12.22-4.77
	C73.92,4.42,72.29,10,72.29,10s-4.63-0.3-7.02,4.67c-1.91,3.98,0.47,7.18,0.47,7.18s-2.48,1.41-1.42,5.56
	c0.62,2.43,3.85,4.11,3.43,5.43c-0.4,1.26-1.45-0.02-1.74,0.94s1.63,2.76,3.93,3.63c2.31,0.87,5.28,0.7,5.28,0.7l17.58-1.8H92.79z"
	/>
<path style="fill:#A56C43;" d="M38.7,83.22l1.48-3.97c0,0,2.85-2.57,4.37-3.53s3.53-1.89,3.53-1.89l11.59,10.99l-5.05,3.25
	c0,0-1.97,1.28-3.17,1.72s-3.09,0.76-3.09,0.76l-8.78-3.65l-0.88-3.69L38.7,83.22z"/>
<path style="fill:#A56C43;" d="M69.45,99.64l-0.68,7.8l5.26,6.85l5.8-2.31c0,0,1.92-2.27,2.82-4.43c0.82-1.97,1.13-6.54,1.13-6.54
	l-10.57-4.35l-3.76,2.99V99.64z"/>
<path style="fill:#2F2F2F;" d="M25.41,94.35c0,0-0.87-0.09-1.84,0.55s-3.81,2.43-5.65,3.49c-1.71,0.98-5.51,2.71-5.79,5.51
	c-0.24,2.48,1.84,4.17,4.09,4c2.43-0.18,4.59-1.7,6.98-3.12s3.67-2.16,4.55-2.57s1.65-1.19,1.65-1.19l-4-6.66L25.41,94.35z"/>
<path style="fill:#2F2F2F;" d="M64.14,107.85c0,0-1.09-0.86-2.18-1.45s-2.72-0.73-3.63,0.09s-1.33,1.8-1.5,2.63
	c-0.23,1.13-0.95,5.35-1.32,6.85s-1.27,2.58-1.22,5.08c0.04,2.36,1.45,3.04,2.22,3.04s2.09-1.9,3.17-3.4
	c1.02-1.4,3.22-4.58,3.22-4.58l1.22-8.25L64.14,107.85z"/>
<path style="fill:#5E6367;" d="M62.47,116.73c0,0-1.22-2.01-0.86-4.81c0.32-2.45,1.54-3.85,2.68-5.31s2.63-3.04,3.54-3.76
	s2.22-0.86,2.22-0.27s-0.59,5.26,2.47,7.86c3.85,3.27,8.15,0.46,8.13,0.58c-0.05,0.23-1.8,3.17-8.84,4.57
	C65.32,116.89,62.47,116.72,62.47,116.73L62.47,116.73z"/>
<path style="fill:#F77300;" d="M74.26,74.08l-16.54-5.79l-7.12,8.57c0,0,2.38,2.61,3.44,7.15c0.86,3.65,0.41,5.79,1.02,6.26
	s2.93,0.07,5.65-1.43s5.52-3.63,6.47-3.34c0.7,0.21,0.39,3.01,0.39,3.01l4.63,12.87c0,0,2.47-1.23,5.94-1.18
	c3.72,0.06,5.49,1.76,5.84,1.55s1.79-9.45,2.2-14.62c0.41-5.17,0.34-10.86,0.34-10.86l-12.25-2.21L74.26,74.08z"/>
<path style="fill:#DE4E00;" d="M46.76,74.13c-0.1-0.3,3.7-2.97,6.46-4.73c2.43-1.55,5.5-3.34,5.5-3.34l3.23,2.63l1.16,1.91
	c0,0-3.44,0.57-4.57,1.1c-2.04,0.95-7.92,5.22-7.92,5.22s-0.76-1.06-2.24-1.91c-1.02-0.58-1.5-0.57-1.6-0.88H46.76z"/>
<path style="fill:#AD3900;" d="M58.72,66.07l2.16-1.42l26.76,8.05c0,0-0.29,1.42-0.49,1.96s-0.64,1.62-0.64,1.62
	s-7.81,1.53-17.14-2.21C60.43,70.49,58.71,66.07,58.72,66.07L58.72,66.07z"/>
<ellipse style="fill:#AEAEAE;" cx="36.32" cy="16.42" rx="11.98" ry="11.67"/>
<path style="fill:#E0E0E0;" d="M43.31,10.92c0,0-0.46-1.49-3.37-2.63c-2.02-0.79-4.63-0.4-4.63-0.4l-6.57,3.26l-1.66,6.46l2.74,5.26
	c0,0,0.97,1.09,3.2,2.23s5.2,0.57,5.2,0.57l5.14-1.77l2.46-7.14l-2.51-5.83V10.92z"/>
<path style="fill:#464C4F;" d="M45.02,25.95l2.63-5.14l0.69-4.57c0,0,0.07-1.71-0.63-3.77c-0.86-2.51-2.51-3.89-2.51-3.89
	s-1.94,1.2-2.63,2.29s-1.31,2.74-1.31,2.74s3.09,1.77,3.09,2.4s-0.23,2.51-0.51,3.31s-1.54,2.17-1.89,2.51s-3.71,0-3.71,0
	s-0.97,2.51-1.09,2.86s0.69,3.6,0.69,3.6l4.11,0.91l3.09-3.26L45.02,25.95z"/>
<path style="fill:#DE4E00;" d="M68.55,85.44c-0.98,0.15-1.02,1.02-0.95,5.04c0.07,4.02,0.27,11.09,0.48,11.64s1.92,0,2.53-0.2
	s3.61-1.02,3.68-1.97s-1.1-7.29-2.06-9.95S70.39,85.17,68.55,85.44z"/>
<path style="fill:#DCDCDC;" d="M60.33,112.47c0.06,0.31-1.21,3.4-1.41,3.45c-0.28,0.07-2.99-2.04-2.99-2.04s0.34-1.87,0.43-2.37
	s0.45-2.3,0.45-2.3s3.35,2.44,3.51,3.25L60.33,112.47z"/>
<path style="fill:#5E6367;" d="M25.2,93.92c0,0,4.8-5.28,8.06-8.69c3.45-3.61,6.02-5.97,6.83-6.04s0.35,4.02,2.58,6.78
	c3.58,4.44,6.15,4.06,6.25,4.49c0.22,0.96-4.93,3.9-9.85,6.18s-10,4.63-10,4.63s-2.55-1.11-3.53-2.94
	C24.36,96.12,25.2,93.93,25.2,93.92L25.2,93.92z"/>
<path style="fill:#DCDCDC;" d="M25.51,101.57c-0.49-0.03-3.45,1.57-3.49,2.02s1.4,1.05,1.4,1.05s0.91-0.51,1.8-1.03
	s1.79-1.01,1.95-1.13c0.27-0.21-0.97-0.88-1.65-0.92L25.51,101.57z"/>
<path style="fill:#875334;" d="M106.46,53.67l-8.51,1.83l2.51,3.08c0,0,1.94,0.63,2.85,0.91s2.57,1.03,2.57,1.03s0.06,3.14,0.23,4.4
	c0.17,1.26,0.23,4.17,0.17,4.45s-1.92,1.06-2.78,1.91c-0.98,0.97-1.22,2.11-1.33,3.95c-0.07,1.14-0.45,3.33,0.52,3.33
	s1.69-0.71,1.82-1.56c0.07-0.46-0.09-1.33,0.58-1.46c1.14-0.23,1.12,1.01,0.4,2.23s-2.69,3.58-2.4,4.34
	c0.4,1.03,1.77,0.74,2.51,0.17s1.43-1.37,1.43-1.37s0.66,0.61,1.77,0.57c1.32-0.05,2.97-1.48,3.77-2.23s1.37-1.88,1.37-1.88
	l-3.42-22.32L106.46,53.67L106.46,53.67z"/>
<path style="fill:#875334;" d="M40.05,36.52c0,0-0.98-2.22-1.61-3.48s-0.68-2.2-1.78-3.14s-2.09-1.73-2.09-1.73s0.11-0.84,0.68-1.31
	s1.52-0.42,1.52-0.42l3.24,1.36c0,0,6.28-0.52,6.02,0.47s-0.79,2.83-0.79,2.83l-0.94,5.29l4.76,5.39l6.02,2.72l0.26,5.91
	c0,0-2.86,1.05-6.51,0.53c-2.08-0.3-4.06-2.26-4.79-3.77s-2.77-7.85-2.77-7.85S40.05,36.52,40.05,36.52z"/>
<path style="fill:#A56C43;" d="M100.92,55.04c0,0,2.26,0.89,3.86,1.55c1.48,0.62,3.33,1.76,3.73,2.95s0.29,3.2,0.29,4.79
	c0,1.59,0.34,5.65,0.29,6.51s-1.14,3.03,0.29,4.45c1.43,1.43,4.4,2.11,4.57,2.05s1.03-2.51,1.08-4.62s-0.29-4.51-0.29-4.51
	l0.29-5.25c0,0,0.06-4.97-1.37-7.53c-2.32-4.18-9.13-7.08-9.13-7.08l-3.6,6.68L100.92,55.04z"/>
<path style="fill:#A56C43;" d="M43.44,37.83c0,0,1.27,3.81,2.75,5.94c1.27,1.83,2.72,3.04,4.66,2.98s4.19-0.52,4.19-0.52l-0.26-7.75
	c0,0-1.2,0.16-1.78,0.16s-1.88,0.21-1.88,0.21s-0.79-1.2-1.41-1.94s-2.36-2.72-2.36-2.72L43.44,37.83L43.44,37.83z"/>
<path style="fill:#A56C43;" d="M36.77,26.45c0,0,0.6-0.04,1.21,0.21c0.79,0.32,2.56,0.79,3.56,0.37s2.67-1.83,4.08-4.4
	c1.18-2.13,1.78-5.29,2.25-6.18s0.94,0.84,0.99,1.67s-0.24,3.53-1.45,7.37c-0.58,1.83-1.68,3.84-1.68,3.84s-2,1.46-4.46,1.15
	C38.87,30.17,37.34,26.71,36.77,26.45z"/>
<path style="fill:#404649;" d="M105.8,63.19c-0.14,0.45-0.16,5.23,0.21,5.65s2.93,0.63,5.18,0.63s3.88,0.55,4.29-1.1
	c0.52-2.09,0.52-4.24,0.05-5.02s-2.15-1.1-5.13-1.15C107.42,62.15,106,62.51,105.8,63.19L105.8,63.19z"/>
<path style="fill:#404649;" d="M38.5,34.09c-0.16,1.2,1.78,5.91,2.51,5.91s2.72-0.31,5.02-1.94s2.88-2.41,2.56-3.19
	s-2.51-4.4-3.09-4.4s-1.78,1.94-3.24,2.51s-3.7,0.56-3.77,1.1L38.5,34.09z"/>
<path style="fill:#DE4E00;" d="M70.38,42.92l-12.39-0.2l-4.86,3.35c0,0,0.16,2.13,0.62,3.55s1.08,2.85,1.88,2.93s5.58-0.6,5.88-0.24
	s-0.59,3.44-1.25,6.01s-1.25,4.32-0.81,6.16s5.06,5.28,13.56,7.62c8.5,2.35,14.53,1.94,15.62,1.04s4.31-14.53,4.31-14.53
	s5.96,3.73,6.6,3.3c0.51-1.39,0.97-2.87,0.97-2.87L88.98,45.79l-18.62-2.86L70.38,42.92z"/>
<path style="fill:#F77300;" d="M54.13,38.27c1.15-0.14,7.37-0.72,11.74-0.72s9.95,0.43,14.6,1.36s9.16,2.58,14.1,4.51
	s10.31,4.94,10.31,4.94s-1.56,2.7-2.43,4.87s-1.93,5.8-1.93,5.8s-2.65-1.36-3.72-2s-2.22,0.21-2.65,1.57s-2.36,8.02-2.79,9.95
	s-1.36,4.3-2.72,4.58s-7.3-0.29-12.74-1.65c-5.44-1.36-7.95-2.51-9.16-3.36s-2.43-3.58-2.43-5.44s1.93-9.02,2.51-11.17
	s1-4.8-2.36-5.8s-11.31,0.35-11.31,0.35s0.07-2.57,0.43-4.65c0.28-1.62,0.57-3.15,0.57-3.15L54.13,38.27z"/>
<path style="fill:#875334;" d="M75.39,35.42l0.24,4.78c0,0,0.07,1.02,0.81,2.04s2.18,2.2,4.64,2.4c4.56,0.37,4.57-2.9,4.57-2.9
	l0.23-2.55l-10.5-3.76L75.39,35.42z"/>
<path style="fill:#875334;" d="M74.03,32.1c0,0-3.58,0.57-4.66-2.86s0.53-5.61,2.42-5.54c0.62,0.02,0.74,1.9,1.57,5.43
	C73.64,30.34,74.04,32.1,74.03,32.1L74.03,32.1z"/>
<path style="fill:#A56C43;" d="M93.35,18.09c0,0-2.86,0.22-5.77-0.07c-2.91-0.29-6.32-1.4-6.32-1.4s-1.55,1.36-2.79,2.32
	s-2.01,1.71-2.01,1.71s-0.67,3.73-0.83,5.2c-0.23,2.19-0.66,3.98-1.43,3.97s-0.86-0.67-0.86-0.67s-0.29,3.04,0.4,4.96
	c1.01,2.8,5.72,8.24,12.06,8.06c5.56-0.16,7.9-6.71,8.49-9.34c1.08-4.85,0.54-8.6,0.54-8.6s-0.49-3.71-1.48-6.12L93.35,18.09z"/>
<g>
	<path style="fill:#3C2C23;" d="M83.93,22.21c0.46-0.37,0.46-1.3,0.06-1.61s-2.98-0.22-3.71-0.07c-1.18,0.25-1.95,1.3-1.75,1.66
		c0.1,0.18,1.48-0.01,2.72,0.03s2.48,0.15,2.68-0.02V22.21z"/>
	<path style="fill:#3C2C23;" d="M93.18,22.33c0.32-0.47-0.43-1.27-1.72-1.58c-1.12-0.27-2.24-0.11-2.46,0.24
		c-0.26,0.41-0.39,1.12,0.2,1.39C89.43,22.49,92.87,22.79,93.18,22.33z"/>
</g>
<g>
	<path style="fill:#42312C;" d="M81.1,24.69c0.92-0.03,1.94,0.57,1.86,2.27c-0.07,1.55-0.9,2.28-2.02,2.22s-1.72-1.02-1.71-2.22
		S80.02,24.72,81.1,24.69z"/>
	<path style="fill:#42312C;" d="M91.14,24.91c0.88,0.01,1.65,0.84,1.63,2.22s-0.85,2.08-1.83,2.12s-1.79-0.79-1.73-2.11
		c0.06-1.33,0.76-2.24,1.93-2.22L91.14,24.91z"/>
</g>
<path style="fill:#875334;" d="M86.19,32.95c-0.92-0.09-2.02-0.65-1.99-1.21s1.2-0.56,2.12-0.52s2.14,0.04,2.12,0.65
	s-1.38,1.17-2.24,1.08H86.19z"/>
<path style="fill:#473530;" d="M86.14,35.15c1.37,0.02,3.03-0.97,3.42-0.16s-0.99,2.16-3.49,2.09c-2.74-0.07-4.17-1.42-3.8-2.26
	s2.33,0.31,3.86,0.33L86.14,35.15z"/>
<path style="fill:#464C4F;" d="M34.45,11.38c0,0,1.66-3.03,1.66-3.71s-1.03-2.86-1.03-2.86s-2.38-0.03-4.9,1.32
	c-1.72,0.92-3.67,2.47-4.81,5.12c-1.24,2.89-1.23,5.49-0.78,7.61c0.88,4.2,3.46,6,3.46,6s2.57-1.54,3.03-1.94s1.31-2.97,1.31-2.97
	l-3.26-2.51c0,0-0.16-2.42,0.34-3.66s1.77-2.46,1.77-2.46L34.45,11.38L34.45,11.38z"/>
</svg>
