<?xml version="1.0" encoding="utf-8"?>
<!-- Generator: Adobe Illustrator 26.3.1, SVG Export Plug-In . SVG Version: 6.00 Build 0)  -->
<svg version="1.1" id="a" xmlns="http://www.w3.org/2000/svg" xmlns:xlink="http://www.w3.org/1999/xlink" x="0px" y="0px"
	 viewBox="0 0 128 128" style="enable-background:new 0 0 128 128;" xml:space="preserve">
<g>
	<path style="fill:#543930;" d="M83.29,78.39c0,0,9.06-11.02,4.96-33.84c-4.1-22.82-18.22-30.33-32.13-28.72
		c-7.44,0.86-15.33,4.84-20.18,12.67c-4.22,6.82-6.59,15.61-6.34,29.01c0.25,13.93,3.88,18.89,9.16,28.34
		c9.43-1.44,28.59,1.18,28.59,1.18l15.95-8.63L83.29,78.39z"/>
	<path style="fill:#3C2C23;" d="M39.56,46.6c0,0-3.51,5.07-3.19,15.76s5.65,14.61,5.65,14.61l12.47-4.21
		C54.49,72.77,39.56,46.6,39.56,46.6z"/>
	<path style="fill:#99674F;" d="M41.28,53.91c0,0-5.75,0.39-4.01,6.75c1.65,6.02,7.16,4.21,7.16,4.21L41.28,53.91z"/>
	<path style="fill:#4B0FCE;" d="M29.43,95.01l3.03-8.36c0,0-0.26-8.42,6.18-12.99c5.77-4.08,11.88-0.71,11.88-0.71l28.73-4.24
		c0,0,5.28-2.59,9.57,0.12c6.4,4.03,10.54,16.01,10.54,16.01l4.81,26.71c0,0-4.66,1.05-8.74-2.5c-5.99-5.2-7.78-14.71-7.78-14.71
		l-45.28,7.05c0,0-2.1,5.89-6,8.88c-3.89,2.99-8.53,1-8.53,1l1.57-16.24L29.43,95.01z"/>
	<path style="fill:#583EE2;" d="M105.52,75.48l7.33,0.26c0,0-0.07,3.45-0.22,7.64c-0.15,4.19-1.05,18.56-2.99,22.6
		c-1.94,4.04-4.19,5.62-6.28,5.62s-7.26-3.67-7.33-11.52c-0.06-6.75,2.47-15.04,2.39-17.81c-0.08-2.78-0.37-7.41-0.37-7.41
		l7.48,0.63L105.52,75.48z"/>
	<path style="fill:#4B0FCE;" d="M105.57,73.96l-5.81-0.36c0,0-1.78-0.41-1.73,1.25c0.03,1.05,2.88,4.34,7.58,4.39
		c4.71,0.05,7.22-1.89,7.22-3.5c0-1.62-2.46-2.09-2.46-2.09l-4.82,0.31L105.57,73.96z"/>
	<path style="fill:#583EE2;" d="M26.71,80.72l-10.99,0.69c0,0-0.14,1.59,1.87,8.43c2,6.84,3.67,15.34,7.05,19
		c2.37,2.57,4.28,3.38,6.28,1.59s4.42-5.74,4.14-11.47c-0.27-5.74-2.56-11.67-3.11-13.89c-0.56-2.21-1.45-6.77-1.45-6.77l-3.8,2.41
		L26.71,80.72z"/>
	<path style="fill:#4B0FCE;" d="M20.43,77.54l-3.25,2.07c0,0-1.73,0.56-1.45,1.8s5.11,2.7,7.81,2.35c4.25-0.55,6.98-5.45,6.98-5.45
		s-0.41-1.17-1.94-1.1c-1.52,0.07-4.35,0.83-4.35,0.83l-3.8-0.48L20.43,77.54z"/>
	<path style="fill:#583EE2;" d="M43.34,121.91c-1.17-1.3-1.27-21.92-1.27-29.69s-0.64-12.48,0.97-14.37c0.9-1.05,2.2-1.05,3.29-0.53
		c3.82,1.84,11.68,6.65,18.78,6.06c9.99-0.82,18.11-13.32,22.67-10.7c4.56,2.62,3.08,45.34,3.07,47.29
		c-0.02,2.66-8.01,4.04-23.65,4.04s-22.52-0.6-23.87-2.09H43.34z"/>
	<path style="fill:#99674F;" d="M99.74,73.87c-0.1-1.02-0.35-3.1-0.35-4.42s-0.15-3.1-0.05-4.01c0.1-0.91,23.67-4.39,23.72-4.08
		c0.05,0.31-1.91,4.6-5.31,7.34c-3.4,2.75-5.1,3.61-6.12,5.03c-1.02,1.42-0.82,2.01-1.12,2.4c-0.3,0.39-1.88,1.35-5.64,0.95
		s-4.98-1.63-5.13-3.2L99.74,73.87z"/>
	<path style="fill:#99674F;" d="M24.53,67.24l-7.47,4.4l-7.29-2.27c0,0,2.98,2.04,4.26,3.45s2.23,2.67,2.61,4.1
		c0.34,1.31,0.63,3.18,0.63,3.18s2.9,1.31,6.76,0.34c3.28-0.83,4.16-2.56,4.16-2.56s-0.9-2.75-0.9-5.11s-0.23-5.35-0.53-6.2
		c-0.29-0.85-2.22,0.67-2.22,0.67L24.53,67.24z"/>
	<path style="fill:#BA8D68;" d="M124.06,52.64c-0.43-0.49-0.97-0.83-1.63-0.6c-0.97-0.61-1.82-0.22-3.09,1.15
		c-1.27,1.37-4.78,4.31-7.01,6.15c-2.23,1.83-5.38,2.85-5.38,2.85l-1.42-0.25l1.12-3c0,0,0.83-4.28,0.03-4.68
		c-0.8-0.39-1.47,0.61-2.86,2.06c-0.91,0.95-3.46,3.64-3.87,4.81s-0.61,4.31-0.61,4.31c0.1-0.92,0.42,2.87,3.81,4.31
		c4.17,1.78,8.51,1.18,12.54-1.48c1.76-1.16,5.08-3.63,6.5-5.42c1.62-2.04,1.19-3.41,1.52-4.12c1.37-2.95,0.5-4.37,0.5-4.37
		s0.4-1.09-0.15-1.73L124.06,52.64z"/>
	<path style="fill:#BA8D68;" d="M18.03,62.73c0,0-0.94-0.27-2.63-1.14s-3.97-4-5.51-5.58c-1.55-1.59-2.44-3.06-4.65-2.83
		c-1.22,0.13-1.62,1.48-1.62,1.48s-0.18,0.85-0.11,1.55c0.15,1.46,0.64,2.22,0.64,2.22s-0.1,1.13,0.02,2.12
		c0.09,0.77,0.38,1.6,0.38,1.6s0.42,0.98,1.04,1.97c0.78,1.25,2.98,4.7,5.53,6.25c2.56,1.55,9.65,4.94,13.49,1.61
		c3.84-3.33,1.81-7.09,0.36-8.74c-1.44-1.65-3.8-3.51-4.91-4.37c-1.62-1.24-3.62-3.36-4.26-2.66C15.82,56.2,18.03,62.73,18.03,62.73
		z"/>
	<path style="fill:#99674F;" d="M66.01,70.69l-10.69,5.42c0,0,1.08,6.43,9.68,5.34c8-1.01,7.36-7.05,7.36-7.05L66.01,70.69z"/>
	<g>
		<path style="fill:#99674F;" d="M106.68,54.26c1.02,0.2,2.03,1.3,1.69,2.91c-0.35,1.64-1.79,3.36-1.79,4.13
			c0,0.77,1.2,0.97,1.07,2.44c-0.1,1.12-0.4,3.11-1.59,2.86c-1.18-0.25-0.1-2.61-1.47-3.46c-1.37-0.86-1.37-1.79-1.07-2.44
			c0.14-0.31,1.88-1.96,2.7-3.38c0.6-1.04,0.47-3.04,0.47-3.04L106.68,54.26z"/>
		<path style="fill:#99674F;" d="M15.82,56.2c-0.33,0-1.23,1.57,0.08,4.04c1.31,2.47,2.06,2.93,2.26,3.5
			c0.2,0.58-0.54,3.67,0.74,3.88c1.27,0.21,2.18-3.54,2.18-4.41c0-0.87-2.02-2.47-3.05-3.75c-1.03-1.27-1.94-3.25-2.22-3.25
			L15.82,56.2z"/>
	</g>
	<g>
		<path style="fill:#824E3A;" d="M114.33,60.82c0.55,0.63,3.36-1.73,5.45-4.12s2.99-3.76,3.13-4.19c0.23-0.73-0.47-0.62-0.88-0.16
			c-0.4,0.45-1.59,2.08-3.62,4.16c-2.46,2.52-4.75,3.54-4.08,4.31H114.33z"/>
		<path style="fill:#824E3A;" d="M115.91,62.54c0.56,0.66,2.73-1.13,5.27-3.84c1.06-1.13,2.19-2.68,2.78-3.74
			c0.54-1,0.44-1.54,0.22-1.59c-0.45-0.1-1.59,2.15-3.72,4.53c-2.54,2.85-5.15,3.91-4.54,4.63H115.91z"/>
		<path style="fill:#824E3A;" d="M8.57,59.01c2.47,2.66,4.18,4.13,4.86,4.32c1,0.27,0.98-0.43,0.4-0.94
			c-0.4-0.35-1.66-1.32-3.26-2.93c-1.61-1.61-3.04-3.37-4.4-4.4s-2.51-0.78-2.54-0.35c-0.03,0.42,0.7,0.2,1.77,1.07
			s1.61,1.55,3.17,3.23H8.57z"/>
		<path style="fill:#824E3A;" d="M4.11,58.53c0.11-0.4,0.87-1.03,2.73,0.54s3.59,3.63,4.36,4.28c0.78,0.66,1.69,1.49,1.44,1.98
			c-0.34,0.69-1.5-0.32-2.74-1.65s-3.25-3.35-3.88-3.88C5,58.93,3.98,58.97,4.11,58.52L4.11,58.53z"/>
		<path style="fill:#824E3A;" d="M5.67,61.49c1.31,0.47,2.44,1.95,3.38,2.99c0.69,0.76,2.68,2.47,2.05,2.93s-2.59-1.84-3.82-3.16
			c-1.23-1.32-1.62-1.68-2.39-1.89C4.15,62.15,4.71,61.14,5.67,61.49z"/>
		<path style="fill:#824E3A;" d="M117.53,64.45c0.44,0.49,2.01-0.67,4.03-2.7c0.85-0.85,1.73-2.06,2.12-2.83
			c0.39-0.77,0.24-1.13,0.06-1.17c-0.36-0.08-1.26,1.62-2.96,3.41C118.77,63.31,117.05,63.92,117.53,64.45z"/>
	</g>
	<path style="fill:#BA8D68;" d="M62.28,28.47c-0.36,0.06-3.69,5.96-10.57,11.11c-7.81,5.84-12.15,7.02-12.15,7.02
		s-0.04,8.26,3.65,16.95c2.67,6.28,10.03,15.38,22.43,13.39c13.4-2.15,16.02-14.26,16.07-20.62C81.77,48.3,79,38.66,79,38.66
		s-5.91-1.61-9.96-4.61c-4.05-3-6.76-5.59-6.76-5.59V28.47z"/>
	<path style="fill:#99674F;" d="M62.54,58.63c-2.09,0.41-3.01-0.16-3.62,0.73c-0.56,0.82,0.22,1.69,1.51,2.36
		c1.75,0.92,4.13,0.45,5.16-0.87c1.03-1.31,1.39-2.33,0.48-2.86S64.68,58.2,62.54,58.63z"/>
	<g>
		<path style="fill:#613E31;" d="M43.41,48.5c0.73,0.77,2.32-0.87,5.25-1.46c2.93-0.6,4.76,0.49,4.93-1.16
			c0.2-1.96-1.92-2.35-5.44-1.45c-3.6,0.92-5.72,3.04-4.75,4.07L43.41,48.5z"/>
		<path style="fill:#613E31;" d="M66.32,44.03c1.27,0.17,2.34-0.57,4.33-0.79c2.1-0.23,4.8,0.39,5.37-0.46s-1.42-2.44-5.31-2.29
			c-3.51,0.14-5.14,1.28-5.29,2.08c-0.15,0.8,0.38,1.38,0.91,1.45L66.32,44.03z"/>
	</g>
	<g>
		<path style="fill:#49352E;" d="M49.28,49.61c-2.84,0.34-3.61,2.95-3.2,4.67c0.4,1.72,1.95,3.18,4.43,2.8
			c2.48-0.38,3.46-2.11,3.17-4.18c-0.28-2.07-1.79-3.6-4.41-3.27L49.28,49.61z"/>
		<path style="fill:#49352E;" d="M71.3,45.56c-2.14,0.06-3.89,1.83-3.45,4.35c0.48,2.82,3.09,3.37,4.44,3.18
			c1.95-0.26,3.32-1.92,3.07-4C75.09,46.76,73.71,45.49,71.3,45.56z"/>
	</g>
	<path style="fill:#49352E;" d="M57.72,68.18c0.21,1.16,3.29,1.96,7.96,0.93c4.39-0.97,5.32-2.75,5.27-3.5
		c-0.07-1.2-4.22-0.9-6.65-0.48c-2.51,0.43-6.84,1.69-6.59,3.06H57.72z"/>
</g>
</svg>
