<?xml version="1.0" encoding="utf-8"?>
<!-- Generator: Adobe Illustrator 26.3.1, SVG Export Plug-In . SVG Version: 6.00 Build 0)  -->
<svg version="1.1" id="a" xmlns="http://www.w3.org/2000/svg" xmlns:xlink="http://www.w3.org/1999/xlink" x="0px" y="0px"
	 viewBox="0 0 128 128" style="enable-background:new 0 0 128 128;" xml:space="preserve">
<g>
	<path style="fill:#543930;" d="M73.54,17.86c0,0-2.47-6.69-12.2-6.01c-11.59,0.81-11.83,9.6-20.31,9.85
		c-4.99,0.14-4.64-3.1-5.76-3.28c-1.12-0.18-3.56,1.71-3.67,6.27c-0.06,2.93,0.93,4.3,0.93,4.3s-4.2,1.67-5.19,6.6
		c-1.72,8.51,3.28,13.66,3.28,13.66s-4.39,4.99-0.12,11.7c3.46,5.45,4.66,3.52,5.26,6.38c0.37,1.74-1.24,1.96-1.24,3.22
		c0,0.62,1.92,1.86,3.6,2.17c2.68,0.49,7.68,0.43,7.68,0.43s-1.49,1.37,2.45,1.64c5.13,0.34,7.95-2.36,7.95-2.36l7.62-1.25
		c0,0,7.25,0.77,15.05,0.01c7.8-0.76,10.8-2.36,13.26-5.46c1.92-2.41,2.17-4.68,1.68-5.32s-2.3-1.42-2.29-4.58
		c0.01-4.92,2.73-5.89,1.49-12.25c-0.88-4.53-3.85-6.51-3.85-6.51s0.93-9.66-4.21-14.36c-6.28-5.75-11.4-4.84-11.4-4.84L73.54,17.86
		z"/>
	<path style="fill:#DA4C00;" d="M29.43,95.01l3.03-8.36c0,0-0.26-8.42,6.18-12.99c5.77-4.08,11.88-0.71,11.88-0.71l28.73-4.24
		c0,0,5.28-2.59,9.57,0.12c6.4,4.03,10.54,16.01,10.54,16.01l4.81,26.71c0,0-4.66,1.05-8.74-2.5c-5.99-5.2-7.78-14.71-7.78-14.71
		l-45.28,7.05c0,0-2.1,5.89-6,8.88c-3.89,2.99-8.53,1-8.53,1l1.57-16.24L29.43,95.01z"/>
	<path style="fill:#F06E00;" d="M105.52,75.48l7.33,0.26c0,0-0.07,3.45-0.22,7.64s-1.05,18.56-2.99,22.6
		c-1.95,4.04-4.19,5.62-6.28,5.62s-7.26-3.67-7.33-11.52c-0.06-6.75,2.47-15.04,2.39-17.81c-0.08-2.78-0.37-7.41-0.37-7.41
		l7.48,0.63L105.52,75.48z"/>
	<path style="fill:#DA4C00;" d="M105.57,73.97l-5.81-0.36c0,0-1.78-0.41-1.73,1.25c0.03,1.05,2.88,4.34,7.58,4.39
		c4.71,0.05,7.22-1.89,7.22-3.5s-2.46-2.09-2.46-2.09l-4.82,0.31L105.57,73.97z"/>
	<path style="fill:#F06E00;" d="M26.71,80.72l-10.99,0.69c0,0-0.14,1.59,1.87,8.43c2,6.84,3.67,15.34,7.05,19
		c2.37,2.57,4.28,3.38,6.28,1.59s4.42-5.74,4.14-11.47c-0.27-5.74-2.56-11.67-3.11-13.89c-0.56-2.21-1.45-6.77-1.45-6.77l-3.8,2.41
		L26.71,80.72z"/>
	<path style="fill:#DA4C00;" d="M20.43,77.55l-3.25,2.07c0,0-1.73,0.56-1.45,1.8c0.27,1.24,5.11,2.7,7.81,2.35
		c4.25-0.55,6.98-5.45,6.98-5.45s-0.41-1.17-1.94-1.1s-4.35,0.83-4.35,0.83l-3.8-0.48L20.43,77.55z"/>
	<g>
		<path style="fill:#99674F;" d="M36.29,52.14c0,0-4.76,0.52-2.17,7.67c2.59,7.15,8.69,4.49,8.69,4.49l-3.97-3.78
			c0,0-0.99-2.04-1.59-4.25C36.65,54.06,36.29,52.14,36.29,52.14z"/>
		<path style="fill:#99674F;" d="M85.6,45.12c0.77-0.41,4.4,1.51,4.15,6.84s-4.39,6.86-5.53,6.99c-1.14,0.13-3.6-1.54-3.6-1.54
			s4.26-2.39,4.96-3.39c0.7-1,0.02-8.91,0.02-8.91L85.6,45.12z"/>
	</g>
	<path style="fill:#F06E00;" d="M43.34,121.91c-1.17-1.3-1.27-21.92-1.27-29.69s-0.64-12.48,0.97-14.37c0.9-1.05,2.2-1.05,3.29-0.53
		c3.82,1.84,11.68,6.65,18.78,6.06c9.99-0.82,18.11-13.32,22.67-10.7c4.56,2.62,3.08,45.34,3.07,47.29
		c-0.02,2.66-8.01,4.04-23.65,4.04s-22.52-0.6-23.87-2.09H43.34z"/>
	<path style="fill:#99674F;" d="M99.74,73.88c-0.1-1.02-0.35-3.1-0.35-4.42c0-1.32-0.15-3.1-0.05-4.01
		c0.1-0.91,23.67-4.39,23.72-4.08c0.05,0.31-1.91,4.6-5.31,7.34c-3.4,2.75-5.1,3.61-6.12,5.03s-0.82,2.01-1.12,2.4
		s-1.88,1.35-5.64,0.95c-3.76-0.4-4.98-1.63-5.13-3.2L99.74,73.88z"/>
	<path style="fill:#99674F;" d="M24.53,67.24l-7.47,4.4l-7.29-2.27c0,0,2.98,2.04,4.26,3.45s2.23,2.67,2.61,4.1
		c0.34,1.31,0.63,3.18,0.63,3.18s2.9,1.31,6.76,0.34c3.28-0.83,4.16-2.56,4.16-2.56s-0.9-2.75-0.9-5.11s-0.23-5.35-0.53-6.2
		c-0.29-0.85-2.22,0.67-2.22,0.67L24.53,67.24z"/>
	<path style="fill:#BA8D68;" d="M124.06,52.65c-0.43-0.49-0.97-0.83-1.63-0.6c-0.97-0.61-1.82-0.22-3.09,1.15
		c-1.27,1.37-4.78,4.31-7.01,6.15c-2.23,1.83-5.38,2.85-5.38,2.85l-1.42-0.25l1.12-3c0,0,0.83-4.28,0.03-4.68
		c-0.8-0.39-1.47,0.61-2.86,2.06c-0.91,0.95-3.46,3.64-3.87,4.81s-0.61,4.31-0.61,4.31c0.1-0.92,0.42,2.87,3.81,4.31
		c4.17,1.78,8.51,1.18,12.54-1.48c1.76-1.16,5.08-3.63,6.5-5.42c1.62-2.04,1.19-3.41,1.52-4.12c1.37-2.95,0.5-4.37,0.5-4.37
		s0.4-1.09-0.15-1.73L124.06,52.65z"/>
	<path style="fill:#BA8D68;" d="M18.03,62.73c0,0-0.94-0.27-2.63-1.14s-3.97-4-5.51-5.58s-2.44-3.06-4.65-2.83
		c-1.22,0.13-1.62,1.48-1.62,1.48s-0.18,0.85-0.11,1.55c0.15,1.46,0.64,2.22,0.64,2.22s-0.1,1.13,0.02,2.12
		c0.09,0.77,0.38,1.6,0.38,1.6s0.42,0.98,1.04,1.97c0.78,1.25,2.98,4.7,5.53,6.25c2.56,1.55,9.65,4.94,13.49,1.61
		c3.84-3.33,1.81-7.09,0.36-8.74c-1.44-1.65-3.8-3.51-4.91-4.37c-1.62-1.24-3.62-3.36-4.26-2.66C15.82,56.2,18.03,62.73,18.03,62.73
		z"/>
	<path style="fill:#99674F;" d="M66.01,70.7l-10.69,5.42c0,0,1.08,6.43,9.68,5.34c8-1.01,7.36-7.05,7.36-7.05L66.01,70.7z"/>
	<g>
		<path style="fill:#99674F;" d="M106.68,54.26c1.02,0.2,2.03,1.3,1.69,2.91s-1.79,3.36-1.79,4.13c0,0.77,1.2,0.97,1.07,2.44
			c-0.1,1.12-0.4,3.11-1.59,2.86c-1.18-0.25-0.1-2.61-1.47-3.46c-1.37-0.86-1.37-1.79-1.07-2.44c0.14-0.31,1.88-1.96,2.7-3.38
			c0.6-1.04,0.47-3.04,0.47-3.04L106.68,54.26z"/>
		<path style="fill:#99674F;" d="M15.82,56.21c-0.33,0-1.23,1.57,0.08,4.04c1.31,2.47,2.06,2.93,2.26,3.5s-0.54,3.67,0.74,3.88
			s2.18-3.54,2.18-4.41s-2.02-2.47-3.05-3.75c-1.03-1.27-1.94-3.25-2.22-3.25L15.82,56.21z"/>
	</g>
	<g>
		<path style="fill:#824E3A;" d="M114.33,60.82c0.55,0.63,3.36-1.73,5.45-4.12s2.99-3.76,3.13-4.19c0.23-0.73-0.47-0.62-0.88-0.16
			c-0.4,0.45-1.59,2.08-3.62,4.16c-2.46,2.52-4.75,3.54-4.08,4.31H114.33z"/>
		<path style="fill:#824E3A;" d="M115.91,62.54c0.56,0.66,2.73-1.13,5.27-3.84c1.06-1.13,2.19-2.68,2.78-3.74
			c0.54-1,0.44-1.54,0.22-1.59c-0.45-0.1-1.59,2.15-3.72,4.53c-2.54,2.85-5.15,3.91-4.54,4.63H115.91z"/>
		<path style="fill:#824E3A;" d="M8.57,59.02c2.47,2.66,4.18,4.13,4.86,4.32c1,0.27,0.98-0.43,0.4-0.94
			c-0.4-0.35-1.66-1.32-3.26-2.93c-1.61-1.61-3.04-3.37-4.4-4.4s-2.51-0.78-2.54-0.35c-0.03,0.42,0.7,0.2,1.77,1.07
			s1.61,1.55,3.17,3.23H8.57z"/>
		<path style="fill:#824E3A;" d="M4.11,58.53c0.11-0.4,0.87-1.03,2.73,0.54s3.59,3.63,4.36,4.28c0.78,0.66,1.69,1.49,1.44,1.98
			c-0.34,0.69-1.5-0.32-2.74-1.65c-1.23-1.32-3.25-3.35-3.88-3.88C5,58.93,3.98,58.97,4.11,58.52L4.11,58.53z"/>
		<path style="fill:#824E3A;" d="M5.67,61.49c1.31,0.47,2.44,1.95,3.38,2.99c0.69,0.76,2.68,2.47,2.05,2.93
			c-0.63,0.45-2.59-1.84-3.82-3.16c-1.23-1.32-1.62-1.68-2.39-1.89C4.15,62.15,4.71,61.14,5.67,61.49z"/>
		<path style="fill:#824E3A;" d="M117.53,64.46c0.44,0.49,2.01-0.67,4.03-2.7c0.85-0.85,1.73-2.06,2.12-2.83
			c0.39-0.77,0.24-1.13,0.06-1.17c-0.36-0.08-1.26,1.62-2.96,3.41C118.77,63.32,117.05,63.93,117.53,64.46z"/>
	</g>
	<path style="fill:#BA8D68;" d="M39.88,44.05c-0.65,0.86,0.92,15.33,0.24,15.93c-0.68,0.6-1.29,0.55-1.29,0.55
		s6.78,17.74,25.63,16.34s21.11-22.82,21.11-22.82s-1.49,0.7-1.89-0.56c-0.39-1.25-0.46-12.92-5.77-17.72
		c-3.97-3.6-8.53-2.92-8.53-2.92s-4.31-3.72-9.94-2.75c-7.61,1.3-8.39,5.85-13.19,9.66c-3.7,2.95-6.37,4.3-6.37,4.3V44.05z"/>
	<path style="fill:#99674F;" d="M62.57,56.88c-2.14,0.38-3.06-0.22-3.7,0.68c-0.59,0.82,0.2,1.73,1.49,2.44
		c1.77,0.97,4.2,0.55,5.28-0.79c1.07-1.32,1.46-2.35,0.55-2.91C65.27,55.75,64.76,56.49,62.57,56.88z"/>
	<g>
		<path style="fill:#613E31;" d="M43.46,46.27c0.73,0.8,2.38-0.85,5.38-1.39s4.84,0.6,5.05-1.08c0.25-2-1.92-2.43-5.52-1.59
			S42.49,45.2,43.46,46.27z"/>
		<path style="fill:#613E31;" d="M66.66,42.24c1.29,0.2,2.14-0.87,4.71-0.95c3.01-0.09,4.86,0.66,5.45-0.2
			c0.6-0.86-1.4-2.51-5.37-2.43c-3.59,0.07-5.27,1.21-5.43,2.02c-0.16,0.81,0.11,1.48,0.65,1.58V42.24z"/>
	</g>
	<g>
		<path style="fill:#49352E;" d="M49.46,47.8c-2.9,0.3-3.73,2.94-3.35,4.69c0.37,1.75,1.92,3.28,4.46,2.94s3.56-2.09,3.32-4.2
			C53.65,49.11,52.14,47.53,49.46,47.8z"/>
		<path style="fill:#49352E;" d="M71.95,43.81c-2.19,0.02-4,1.79-3.61,4.37c0.43,2.89,3.08,3.49,4.47,3.33
			c1.99-0.23,3.42-1.89,3.21-4.02c-0.23-2.38-1.62-3.71-4.07-3.69H71.95z"/>
	</g>
	<path style="fill:#49352E;" d="M57.46,66.42c0.17,1.16,3.23,2.06,7.93,1.18c4.42-0.83,5.4-2.58,5.38-3.33
		c-0.03-1.2-4.19-1.04-6.62-0.7S57.25,65.05,57.46,66.42z"/>
</g>
</svg>
