<?xml version="1.0" encoding="utf-8"?>
<!-- Generator: Adobe Illustrator 26.3.1, SVG Export Plug-In . SVG Version: 6.00 Build 0)  -->
<svg version="1.1" id="a" xmlns="http://www.w3.org/2000/svg" xmlns:xlink="http://www.w3.org/1999/xlink" x="0px" y="0px"
	 viewBox="0 0 128 128" style="enable-background:new 0 0 128 128;" xml:space="preserve">
<g>
	<path style="fill:#06927F;" d="M29.43,95.02l3.03-8.36c0,0-0.26-8.42,6.18-12.99c5.77-4.08,11.88-0.71,11.88-0.71l28.73-4.24
		c0,0,5.28-2.59,9.57,0.12c6.4,4.03,10.54,16.01,10.54,16.01l4.81,26.71c0,0-4.66,1.05-8.74-2.5c-5.99-5.2-7.78-14.71-7.78-14.71
		l-45.28,7.05c0,0-2.1,5.89-6,8.88c-3.89,2.99-8.53,1-8.53,1l1.57-16.24L29.43,95.02z"/>
	<path style="fill:#00BDA3;" d="M105.52,75.48l7.33,0.26c0,0-0.07,3.45-0.22,7.64s-1.05,18.56-2.99,22.6
		c-1.95,4.04-4.19,5.62-6.28,5.62s-7.26-3.67-7.33-11.52c-0.06-6.75,2.47-15.04,2.39-17.81c-0.08-2.78-0.37-7.41-0.37-7.41
		l7.48,0.63H105.52z"/>
	<path style="fill:#06927F;" d="M105.57,73.96l-5.81-0.36c0,0-1.78-0.41-1.73,1.25c0.03,1.05,2.88,4.34,7.58,4.39
		c4.71,0.05,7.22-1.89,7.22-3.5c0-1.62-2.46-2.09-2.46-2.09l-4.82,0.31L105.57,73.96z"/>
	<path style="fill:#00BDA3;" d="M26.71,80.73l-10.99,0.69c0,0-0.14,1.59,1.87,8.43c2,6.84,3.67,15.34,7.05,19
		c2.37,2.57,4.28,3.38,6.28,1.59s4.42-5.74,4.14-11.47c-0.28-5.74-2.56-11.67-3.11-13.89c-0.56-2.21-1.45-6.77-1.45-6.77l-3.8,2.41
		L26.71,80.73z"/>
	<path style="fill:#06927F;" d="M20.43,77.55l-3.25,2.07c0,0-1.73,0.56-1.45,1.8s5.11,2.7,7.81,2.35c4.25-0.55,6.98-5.45,6.98-5.45
		s-0.41-1.17-1.94-1.1s-4.35,0.83-4.35,0.83l-3.8-0.48L20.43,77.55z"/>
	<path style="fill:#F09E00;" d="M99.74,73.87c-0.1-1.02-0.35-3.1-0.35-4.42s-0.15-3.1-0.05-4.01c0.1-0.91,23.67-4.39,23.72-4.08
		c0.05,0.31-1.91,4.6-5.31,7.34s-5.1,3.61-6.12,5.03c-1.02,1.42-0.82,2.01-1.12,2.4c-0.3,0.39-1.88,1.35-5.64,0.95
		c-3.76-0.4-4.98-1.63-5.13-3.2L99.74,73.87z"/>
	<path style="fill:#FFCA26;" d="M124.06,52.64c-0.43-0.49-0.97-0.83-1.63-0.6c-0.97-0.61-1.82-0.22-3.09,1.15
		c-1.27,1.37-4.78,4.31-7.01,6.15c-2.23,1.83-5.38,2.85-5.38,2.85l-1.42-0.25l1.12-3c0,0,0.83-4.28,0.03-4.68
		c-0.8-0.39-1.47,0.61-2.86,2.06c-0.91,0.95-3.46,3.64-3.87,4.81c-0.4,1.17-0.61,4.31-0.61,4.31c0.1-0.92,0.42,2.87,3.81,4.31
		c4.17,1.78,8.51,1.18,12.54-1.48c1.76-1.16,5.08-3.63,6.5-5.42c1.62-2.04,1.19-3.41,1.52-4.12c1.37-2.95,0.5-4.37,0.5-4.37
		s0.4-1.09-0.15-1.73L124.06,52.64z"/>
	<path style="fill:#F09E00;" d="M24.53,67.24l-7.47,4.4l-7.29-2.27c0,0,2.98,2.04,4.26,3.45s2.23,2.67,2.61,4.1
		c0.34,1.31,0.63,3.18,0.63,3.18s2.9,1.31,6.76,0.34c3.28-0.83,4.16-2.56,4.16-2.56s-0.9-2.75-0.9-5.11s-0.23-5.35-0.53-6.2
		c-0.29-0.85-2.22,0.67-2.22,0.67L24.53,67.24z"/>
	<path style="fill:#FFCA26;" d="M18.03,62.73c0,0-0.94-0.27-2.63-1.14s-3.97-4-5.51-5.58c-1.55-1.59-2.44-3.06-4.65-2.83
		c-1.22,0.13-1.62,1.48-1.62,1.48s-0.18,0.85-0.11,1.55c0.15,1.46,0.64,2.22,0.64,2.22s-0.1,1.13,0.02,2.12
		c0.09,0.77,0.38,1.6,0.38,1.6s0.42,0.98,1.04,1.97c0.78,1.25,2.98,4.7,5.53,6.25c2.56,1.55,9.65,4.94,13.49,1.61
		c3.84-3.33,1.81-7.09,0.36-8.74s-3.8-3.51-4.91-4.37c-1.62-1.24-3.62-3.36-4.26-2.66L18.03,62.73z"/>
	<path style="fill:#E59502;" d="M66.01,70.69l-10.69,5.42c0,0,1.08,6.43,9.68,5.34c8-1.01,7.36-7.05,7.36-7.05L66.01,70.69z"/>
	<g>
		<path style="fill:#F09E00;" d="M106.68,54.26c1.02,0.2,2.03,1.3,1.69,2.91c-0.34,1.61-1.79,3.36-1.79,4.13
			c0,0.77,1.2,0.97,1.07,2.44c-0.1,1.12-0.4,3.11-1.59,2.86c-1.18-0.25-0.1-2.61-1.47-3.46c-1.37-0.86-1.37-1.79-1.07-2.44
			c0.14-0.31,1.88-1.96,2.7-3.38c0.6-1.04,0.47-3.04,0.47-3.04L106.68,54.26z"/>
		<path style="fill:#F09E00;" d="M15.82,56.21c-0.33,0-1.23,1.57,0.08,4.04c1.31,2.47,2.06,2.93,2.26,3.5s-0.54,3.67,0.74,3.88
			c1.27,0.21,2.18-3.54,2.18-4.41s-2.02-2.47-3.05-3.75c-1.03-1.27-1.94-3.25-2.22-3.25L15.82,56.21z"/>
	</g>
	<g>
		<path style="fill:#BE6716;" d="M114.33,60.81c0.55,0.63,3.36-1.73,5.45-4.12s2.99-3.76,3.13-4.19c0.23-0.73-0.47-0.62-0.88-0.16
			c-0.4,0.45-1.59,2.08-3.62,4.16c-2.46,2.52-4.75,3.54-4.08,4.31L114.33,60.81z"/>
		<path style="fill:#BE6716;" d="M115.91,62.53c0.56,0.66,2.73-1.13,5.27-3.84c1.06-1.13,2.19-2.68,2.78-3.74
			c0.54-1,0.44-1.54,0.22-1.59c-0.45-0.1-1.59,2.15-3.72,4.53c-2.54,2.85-5.15,3.91-4.54,4.63H115.91z"/>
		<path style="fill:#BB6117;" d="M8.57,59.02c2.47,2.66,4.18,4.13,4.86,4.32c1,0.27,0.98-0.43,0.4-0.94
			c-0.4-0.35-1.66-1.32-3.26-2.93c-1.61-1.61-3.04-3.37-4.4-4.4s-2.51-0.78-2.54-0.35c-0.03,0.42,0.7,0.2,1.77,1.07
			s1.61,1.55,3.17,3.23H8.57z"/>
		<path style="fill:#BB6117;" d="M4.11,58.53c0.11-0.4,0.87-1.03,2.73,0.54s3.59,3.63,4.36,4.28c0.78,0.66,1.69,1.49,1.44,1.98
			c-0.34,0.69-1.5-0.32-2.74-1.65c-1.23-1.32-3.25-3.35-3.88-3.88C5,58.93,3.98,58.97,4.11,58.52L4.11,58.53z"/>
		<path style="fill:#BB6117;" d="M5.67,61.49c1.31,0.47,2.44,1.95,3.38,2.99c0.69,0.76,2.68,2.47,2.05,2.93s-2.59-1.84-3.82-3.16
			c-1.23-1.32-1.62-1.68-2.39-1.89C4.15,62.16,4.71,61.15,5.67,61.49z"/>
		<path style="fill:#BE6716;" d="M117.53,64.46c0.44,0.49,2.01-0.67,4.03-2.7c0.85-0.85,1.73-2.06,2.12-2.83
			c0.39-0.77,0.24-1.13,0.06-1.17c-0.36-0.08-1.26,1.62-2.96,3.41C118.77,63.32,117.05,63.92,117.53,64.46z"/>
	</g>
	<path style="fill:#00BDA3;" d="M43.34,121.91c-1.17-1.3-1.27-21.91-1.27-29.69s-0.64-12.48,0.97-14.37c0.9-1.05,2.2-1.05,3.29-0.53
		c3.82,1.84,11.68,6.65,18.78,6.06c9.99-0.82,18.11-13.32,22.67-10.7c4.56,2.62,3.08,45.33,3.07,47.28
		c-0.02,2.66-8.01,4.04-23.65,4.04s-22.52-0.6-23.87-2.09H43.34z"/>
	<g>
		<path style="fill:#E39503;" d="M83.61,59.32c0,0,6.56-0.99,6.74-7.91c0.18-7.29-5.1-7.63-5.1-7.63S83.61,59.32,83.61,59.32z"/>
		<path style="fill:#E39503;" d="M36.99,52.82c0,0-6.64,0.18-3.27,7.94c2.92,6.74,9.52,5.06,9.52,5.06L37,52.81L36.99,52.82z"/>
		<path style="fill:#62453B;" d="M61.55,61.98L38.1,57.64c0,0-7.05-14.49-4.38-26.72c2.12-9.73,9.24-16.7,20.45-18.77
			c11.98-2.21,21.18,1.57,26.58,10.27c6.51,10.51,4.2,27.49,4.2,27.49l-23.4,12.07L61.55,61.98z"/>
		<path style="fill:#FFCA26;" d="M40.09,37.78c-0.95,0.85,0.59,9.94,0.62,13.94c0.03,4.23-2.64,5.85-2.64,5.85s2.49,5.8,5.64,10.02
			c4.31,5.8,11.94,11.21,22.09,9.58c8.44-1.35,12.59-6.64,15.19-11.03c3.86-6.53,3.97-16.23,3.97-16.23s-1.89-1.05-3.7-4.73
			c-2.11-4.29-3.3-13.12-4.65-13.75c-1.34-0.64-7.93,0.97-18.97,2.9c-8.76,1.54-16.6,2.6-17.55,3.44L40.09,37.78z"/>
	</g>
	<path style="fill:#E59700;" d="M62.7,57.66c-2.12,0.4-3.05-0.19-3.68,0.71c-0.58,0.82,0.21,1.72,1.51,2.41
		c1.77,0.95,4.17,0.5,5.24-0.83c1.05-1.32,1.43-2.34,0.52-2.9C65.37,56.5,64.87,57.25,62.7,57.66z"/>
	<g>
		<path style="fill:#6D4C3F;" d="M43.66,47.05c0.73,0.79,2.36-0.86,5.33-1.43c2.97-0.58,4.82,0.55,5.01-1.12
			c0.23-1.98-1.93-2.4-5.5-1.52c-3.66,0.9-5.82,3.03-4.85,4.08L43.66,47.05z"/>
		<path style="fill:#6D4C3F;" d="M66.93,42.75c1.29,0.18,2.38-0.55,4.39-0.76c2.13-0.22,4.86,0.44,5.44-0.41s-1.41-2.48-5.36-2.37
			c-3.56,0.1-5.22,1.25-5.38,2.06C65.86,42.07,66.39,42.67,66.93,42.75z"/>
	</g>
	<g>
		<path style="fill:#3F4040;" d="M49.59,48.23c-2.88,0.32-3.68,2.96-3.28,4.7c0.39,1.74,1.94,3.24,4.46,2.88s3.52-2.11,3.26-4.21
			C53.77,49.49,52.25,47.94,49.59,48.23z"/>
		<path style="fill:#3F4040;" d="M71.95,44.33c-2.17,0.04-3.96,1.81-3.54,4.37c0.46,2.86,3.1,3.44,4.47,3.27
			c1.97-0.25,3.38-1.91,3.15-4.02C75.77,45.59,74.38,44.28,71.95,44.33z"/>
	</g>
	<path style="fill:#785446;" d="M57.49,67.16c0.2,1.16,3.28,1.98,7.96,0.97c4.39-0.95,5.33-2.72,5.29-3.47
		c-0.07-1.2-4.21-0.93-6.64-0.53c-2.42,0.4-6.85,1.66-6.61,3.02V67.16z"/>
</g>
</svg>
