<?xml version="1.0" encoding="utf-8"?>
<!-- Generator: Adobe Illustrator 26.3.1, SVG Export Plug-In . SVG Version: 6.00 Build 0)  -->
<svg version="1.1" id="Layer_2_00000031168237836864836490000004970537009187346588_"
	 xmlns="http://www.w3.org/2000/svg" xmlns:xlink="http://www.w3.org/1999/xlink" x="0px" y="0px" viewBox="0 0 128 128"
	 style="enable-background:new 0 0 128 128;" xml:space="preserve">
<g>
	<path style="fill:#FC873D;" d="M44,89.9l-24.5,21.8l3.4,4.4c0,0,6.9,3,15-1.1s11.5-9.3,12.5-10.7s5.2-6.2,9.6-7.5
		c6.6-2,12.3,0,14.4,0s5.9-0.4,9.3-3.9c3.4-3.4,3.7-7.5,8.5-9.7c4.7-2.2,9-0.3,14.8-2.4c5.8-2,11.6-8,13.1-10.1
		c2.3-2.9,4.1-5.8,4.5-8c0.3-1.6-0.2-2.9-1.8-4.3s-2-1.6-2-1.6L44,89.8V89.9z"/>
	<path style="fill:#D9411C;" d="M52.4,76.6l-13.6,6.3c0,0-19,16.1-19.3,16.6s-1,1-2.6,1.4s-3.8,0.9-3.8,0.9s3.7,6,4.9,7.7
		c1.1,1.7,3.4,4.4,3.4,4.4s6.6,1.5,13.7-2.2s11-9.6,13.3-12.9s6.3-7.3,10.4-8.2c4.1-0.9,12.9,1.5,19.7-1.7s6.6-9.3,12.2-11.7
		c5.6-2.3,9.2-0.5,14-2.3c5.1-1.9,9-5.8,11.5-8.6s5.8-8.6,5.8-8.6s-3.1-2.9-7-5.5s-6.7-4.2-6.7-4.2s-8.6,7.8-10.7,9.3
		C95.4,58.8,83,59.7,83,59.7L68,73.3l-15.4,3.3L52.4,76.6z"/>
	<path style="fill:#B42F17;" d="M14.3,96.4L9,94c0,0-2-3.6-2.3-4.6s0.3-2,1.7-1.8s5.6,1.1,8.3,1.4s7.9,0.3,11.7-2.8
		c3.9-3.1,6.5-8.4,8-11.5s5.6-6.5,10-6.6s11.9,1.7,15.2,0.2c3.2-1.6,5.6-8.5,7.2-11.2s5.2-5.2,8.1-4.8c3.5,0.5,7.1,3.3,7.1,3.3
		l-6.1,4.7l-9.1,14.1c0,0-22.5,2-22.7,1.9s-10.5,10.4-11.2,11s-9.3,8.6-11,8.5c-1.7,0-9.7,0.7-9.7,0.7L14.3,96.4z"/>
	<path style="fill:#FEB896;" d="M100.9,44.8c-2.1-0.5-3.3,2.1-3.9,3.6c-0.6,1.4-1.2,3.9-3,5.9s-3.9,2.5-3.9,2.5s-11.9-4.3-16.7,1.8
		c-5.1,6.5-4.2,11.2-9.2,13.6c-8.1,4-13.2-2.2-20.8,2.1c-5.8,3.3-10.5,16.6-19.5,19.3s-15,0.1-15,0.1l2.3,4.6c0,0,3.7,0,6.1,0.1
		c1.1,0,1.6,0.3,1.8,0.4c0.5,0.3,0.3,0.8,0.3,0.8s4.2-0.5,9-3.2s10.5-9.7,11.7-11.3s3.5-4.1,4.2-3.1s-4.7,11.6-11.2,17.5
		c-5.5,5-10.3,5.8-13.3,6.3s-3.9,0.4-3.9,0.4s0.9,1.4,1.6,2.4c0.5,0.8,1.5,2.1,1.5,2.1s6.2,0.2,15-5.3c8.9-5.5,14.5-18,20.9-23.4
		c5.6-4.7,11.5-3.8,14.6-4.4s5.7-2.2,7.6-6C79,67.9,81.3,61.3,87.4,61s12.4,3.1,16.1-1.9s5.1-11,5.1-11s-4.8-2.8-7.7-3.5L100.9,44.8
		z"/>
	<path style="fill:#FC6B4A;" d="M83,63.8c1.2-0.2,3.9,2.4,4,4.2c0,1.8-0.1,2.8,0.6,3.9s2.7,2.2,2.5,3.2s-4.6,3.6-8.6,1.2
		s-3-5.3-2.9-5.8S81.6,64.1,83,63.8z"/>
	<path style="fill:#FC6B4A;" d="M73.5,56.8c0-0.5-2.5-2.1-3.8-0.2c-1.3,2-1.8,3.5-1.1,4.7s1,0.9,1.5,0.7s0.4-0.9,1.9-3
		C72.6,58.1,73.5,57.4,73.5,56.8z"/>
	<path style="fill:#FAFFFF;" d="M70.2,63.6c0,0,0.3,0.3,1.3,0.6c1.5,0.4,2.4-0.8,3.5-0.1c1.1,0.8,1.1,2.2,1.1,3.2s0.3,1.7,0.9,1.9
		s1.3,0,1.3,0s0.8-1.7,2-3.5c0.6-1,2-2.3,2-2.3s-0.2-1-1.7-1.6s-2.2,0.2-3.5-0.9s-0.5-1.6-1.4-2.8s-1-0.9-1-0.9s-1,0.7-2.3,2.5
		s-2.2,3.8-2.2,3.8L70.2,63.6z"/>
	<path style="fill:#FAFFFF;" d="M102.8,50.3c-1.3,0.2-3.5,3-2.8,5.1c0.7,2.2,4.2,2.9,4.2,2.9s1-1.5,1.5-2.6s1.2-2.4,1.2-2.4
		s-1.5-1.1-2-1.7S104,50.1,102.8,50.3z"/>
	<path style="fill:#FC6B48;" d="M107,53.3c0,0,1.5,1.2,4.8,1.6c2.6,0.3,3.9,0.6,4.5,1.6s0.1,2.4-0.6,4.1c-1,2.2-2.2,2.5-3.9,1.6
		s-3.4-2.1-4.1-2.5c-1.4-0.7-3.4-1.4-3.4-1.4s0.9-1.5,1.5-2.5S107,53.3,107,53.3z"/>
	<path style="fill:#FA6C43;" d="M42.4,69.9c-0.9-0.1-3.5,1.6-3.6,3.1s1,2.1,1.3,2.3c0.7,0.5,1.9-1,2.5-1.4s1.8-0.8,1.9-1.5
		S43.6,70.1,42.4,69.9z"/>
	<path style="fill:#FEFEFF;" d="M40.7,76.5c-0.4,0.5,0.7,2,1.5,2.6s2.7-0.1,4,1.3s0.3,3.2,0.7,4s1.2,2,2.3,2.6s1.3-0.3,2.5-1.8
		c1.3-1.5,1.6-1.5,1.6-2s-1.4-3.1-2.7-4.4c-1.3-1.4-3.3-2.9-3.8-3.6s-0.7-2.1-1.3-1.9s-1.6,0.5-2.7,1.3s-1.9,1.5-2.3,2L40.7,76.5z"
		/>
	<path style="fill:#FA6C43;" d="M53,85.4c-1.1,0.2-2.8,2.4-3,3.1s1.2,2.9,2.3,3.2s3.1-2,3.1-3S53.9,85.3,53,85.4z"/>
</g>
<g>
	<path style="fill:#FC873D;" d="M33.6,46.3L13.3,61.6l2.3,3.6c0,0,5.2,2.8,11.7,0.1c6.5-2.7,9.5-6.5,10.3-7.5s4.5-4.5,7.9-5.2
		c5.3-1.1,9.6,0.8,11.1,0.9s4.6,0,7.4-2.4c2.9-2.4,3.4-5.6,7.2-7c3.8-1.4,7,0.3,11.6-0.9s9.5-5.5,10.8-7c1.9-2.1,3.5-4.2,4-5.9
		s0-2.3-1.1-3.4S95,25.5,95,25.5L33.5,46.2L33.6,46.3z"/>
	<path style="fill:#D9411C;" d="M40.9,36.5l-11,4c0,0-15.7,11.2-16,11.6S13,52.8,11.8,53s-3,0.4-3,0.4s2.5,4.9,3.3,6.3
		s2.3,3.7,2.3,3.7s5,1.6,10.8-0.8c5.8-2.4,9.1-6.7,11.1-9.1s5.4-5.3,8.6-5.7s9.9,2,15.3,0c5.5-2,5.7-6.8,10.2-8.3s7.1,0.2,11-0.9
		s7.4-3.9,9.5-5.9s5-6.3,5-6.3s-2.2-2.4-5.1-4.7S85.9,18,85.9,18s-7.1,5.5-8.9,6.5s-11.5,1-11.5,1L53,35l-12.1,1.6V36.5z"/>
	<path style="fill:#B42F17;" d="M10.1,49.4l-3.9-2.2c0,0-1.4-2.9-1.5-3.7s0.4-1.5,1.4-1.3s4.3,1.2,6.4,1.6s6.1,0.8,9.3-1.4
		s5.5-6.1,6.9-8.4c1.9-3.3,4.7-4.7,8.2-4.5s9.1,2.1,11.7,1.1s4.9-6.2,6.3-8.2c1.9-2.7,4.4-3.7,6.6-3.2s5.3,3,5.3,3l-5,3.2l-7.9,10.3
		c0,0-17.5,0.1-17.7,0s-8.8,7.4-9.3,7.8s-7.8,6.1-9.1,5.9s-7.5,0-7.5,0H10.1z"/>
	<path style="fill:#FEB896;" d="M80.5,15c-1.6-0.5-2.7,1.4-3.2,2.5s-1.2,2.9-2.7,4.4s-3.2,1.7-3.2,1.7s-8.9-4.1-13,0.3
		c-4.4,4.7-3.9,8.4-8,9.9c-6.6,2.6-10-2.6-16.3,0.3c-4.7,2.2-9.2,12.2-16.3,13.7S6.2,47,6.2,47l1.5,3.7c0,0,2.9,0.2,4.7,0.5
		s1.2,0.3,1.4,0.5c0.4,0.3,0.2,0.6,0.2,0.6s3.3-0.1,7.2-1.9c3.8-1.8,8.8-6.9,9.8-8s3-3,3.4-2.1S30,49,24.6,53.1s-8.4,3.8-10.7,4
		s-3.1,0-3.1,0s0.6,1.1,1.1,2s1,1.7,1,1.7s4.8,0.6,12-3.1c7.2-3.7,12.4-13,17.7-16.8c4.6-3.3,9.1-2.2,11.6-2.5s4.6-1.4,6.3-4.1
		s3.9-7.7,8.7-7.5s9.4,3.2,12.6-0.4s4.6-8.2,4.6-8.2s-3.5-2.5-5.7-3.2L80.5,15z"/>
	<path style="fill:#FC6B4A;" d="M65.4,28.6c0.9,0,2.9,2.1,2.9,3.5s-0.3,2.1,0.2,3s1.9,1.9,1.7,2.7s-3.8,2.5-6.7,0.4
		c-2.9-2.1-2-4.3-1.9-4.7s2.7-4.8,3.9-4.9H65.4z"/>
	<path style="fill:#FC6B4A;" d="M58.5,22.5c0-0.4-1.8-1.8-2.9-0.4s-1.6,2.6-1.2,3.6s0.8,0.8,1.1,0.6s0.4-0.7,1.7-2.2
		S58.5,22.9,58.5,22.5z"/>
	<path style="fill:#FAFFFF;" d="M55.5,27.6c0,0,0.2,0.3,1,0.5c1.1,0.4,1.9-0.5,2.7,0.1s0.7,1.8,0.6,2.5s0.2,1.3,0.6,1.5s1,0.1,1,0.1
		s0.7-1.2,1.8-2.6s1.7-1.7,1.7-1.7s-0.1-0.8-1.2-1.3s-1.7,0-2.6-0.9s-0.3-1.3-0.9-2.2s-0.7-0.7-0.7-0.7s-0.8,0.5-1.9,1.8
		c-1,1.2-2,2.8-2,2.8L55.5,27.6z"/>
	<path style="fill:#FAFFFF;" d="M81.6,19.3c-1,0-2.9,2.1-2.5,3.8s3.1,2.5,3.1,2.5s0.9-1.1,1.3-1.9s1.1-1.8,1.1-1.8s-1.1-1-1.4-1.5
		S82.6,19.2,81.6,19.3z"/>
	<path style="fill:#FC6B48;" d="M84.6,21.9c0,0,1.1,1,3.6,1.6s3,0.7,3.3,1.5s0,1.9-0.7,3.1s-1.9,1.8-3.1,1c-1.2-0.9-2.5-1.8-3-2.2
		c-1-0.7-2.5-1.3-2.5-1.3s0.8-1.1,1.3-1.8S84.6,21.9,84.6,21.9z"/>
	<path style="fill:#FA6C43;" d="M33.6,30.7c-0.7-0.2-2.8,1-3,2.1s0.7,1.7,0.9,1.9c0.5,0.4,1.5-0.6,2-0.9s1.5-0.5,1.6-1
		s-0.6-1.9-1.4-2.1L33.6,30.7z"/>
	<path style="fill:#FEFEFF;" d="M31.8,35.7c-0.3,0.3,0.4,1.6,1,2.1s2.1,0,3,1.3s0,2.5,0.3,3.1s0.8,1.6,1.6,2.2s1-0.2,2.1-1.3
		s1.3-1.1,1.4-1.5s-0.9-2.5-1.8-3.6s-2.3-2.4-2.7-3s-0.4-1.7-0.9-1.6s-1.2,0.3-2.2,0.8s-1.6,1-1.9,1.4L31.8,35.7z"/>
	<path style="fill:#FA6C43;" d="M40.9,43.4c-0.8,0-2.3,1.7-2.5,2.2s0.8,2.3,1.6,2.6s2.6-1.4,2.6-2.1S41.7,43.4,40.9,43.4z"/>
</g>
</svg>
