<?xml version="1.0" encoding="utf-8"?>
<!-- Generator: Adobe Illustrator 26.3.1, SVG Export Plug-In . SVG Version: 6.00 Build 0)  -->
<svg version="1.1" id="a" xmlns="http://www.w3.org/2000/svg" xmlns:xlink="http://www.w3.org/1999/xlink" x="0px" y="0px"
	 viewBox="0 0 128 128" style="enable-background:new 0 0 128 128;" xml:space="preserve">
<radialGradient id="SVGID_1_" cx="-2649.4165" cy="2421.4067" r="133.28" gradientTransform="matrix(0.015 -0.9999 0.7899 0.0119 -1808.6733 -2540.0183)" gradientUnits="userSpaceOnUse">
	<stop  offset="0.86" style="stop-color:#2A81E3;stop-opacity:0"/>
	<stop  offset="0.87" style="stop-color:#2980E3;stop-opacity:0.02"/>
	<stop  offset="0.89" style="stop-color:#2980E3;stop-opacity:0.09"/>
	<stop  offset="0.91" style="stop-color:#2980E3;stop-opacity:0.2"/>
	<stop  offset="0.93" style="stop-color:#2880E3;stop-opacity:0.35"/>
	<stop  offset="0.95" style="stop-color:#2880E3;stop-opacity:0.55"/>
	<stop  offset="0.97" style="stop-color:#2780E3;stop-opacity:0.79"/>
	<stop  offset="0.99" style="stop-color:#2780E4"/>
</radialGradient>
<path style="fill:url(#SVGID_1_);" d="M63.86,4.17c-28.88,0-58.5,21.04-57.76,57.64c0.31,15.32,8.07,26.92,17.22,34.95
	c12.26,10.77,26.63,14.8,39.57,15.22c31.29,1.01,58-22.72,58.74-54.56c0.73-31.49-25.55-53.25-57.76-53.25L63.86,4.17z"/>
<g>
	<path style="fill:#0967D7;" d="M23.76,101.47c0,0-1.62,9.09-1.81,10.02c-0.38,1.92-2.08,1.86-2.57,0.66s-3.01-9.63-3.89-12.92
		s-2.41-8.81-2.41-8.81s-1.2,3.94-1.59,4.93s-0.98,1.92-1.92,1.92c-1.15,0-1.37-1.7-1.81-3.72c-0.3-1.39-1.2-6.84-1.48-12.32
		c-0.17-3.4-0.05-9.3-0.05-9.3l11.06,4.32l6.46,25.23L23.76,101.47z"/>
	<path style="fill:#0967D7;" d="M55.46,115.19c0,0,2.62,6.71,3.01,7.61c0.6,1.37,2.24,1.09,2.57-0.11c0.29-1.08,2.35-7.72,2.35-7.72
		l-7.94,0.22H55.46z"/>
	<path style="fill:#0967D7;" d="M93.44,107.99c0,0,2.19,7.39,2.46,8.43s0.93,3.34,2.46,3.17s1.81-2.35,1.97-3.5
		s1.59-11.22,1.59-13.41s-7.99,3.5-7.99,3.5S93.44,107.99,93.44,107.99z"/>
	<path style="fill:#0967D7;" d="M117.19,83.41c0,0-1.92,10.73-2.35,13.19s-1.59,6.79-1.75,7.23s-0.77,0.88-1.31,0.88
		s-1.2-0.82-1.48-1.64c-0.64-1.92-1.64-7.77-1.64-7.77l8.54-11.88L117.19,83.41z"/>
	<path style="fill:#D3F1FA;" d="M110.73,93.64c0,0,0.82,5.53,1.31,5.47s1.75-9.52,1.75-9.52l-3.07,4.05H110.73z"/>
	<path style="fill:#D3F1FA;" d="M95.52,106.78c0,0,2.08,9.03,2.63,9.03s1.86-12.21,1.86-12.21l-4.49,3.17V106.78z"/>
	<path style="fill:#D3F1FA;" d="M58.23,115.54c0,0,0.97,3.02,1.35,3.04s1.52-3.42,1.52-3.42L58.23,115.54L58.23,115.54z"/>
	<path style="fill:#D3F1FA;" d="M16.77,94.59c0,0,2.62,11.25,3.45,11.25s1.28-7.48,1.28-7.48L16.77,94.59z"/>
	<path style="fill:#D3F1FA;" d="M8.15,79.64c0,0,1.02,11.88,1.66,11.88s1.41-5.56,1.41-5.56l-3.07-6.33V79.64z"/>
	<path style="fill:#0967D7;" d="M63.42,7.67c-28.88,0-57.71,21.04-57.76,57.64c-0.04,33.34,33.71,51.29,57.4,50.53
		c37.62-1.21,59.1-25.74,59.3-57.27c0.19-31.5-26.72-50.89-58.93-50.89L63.42,7.67z"/>
	
		<radialGradient id="SVGID_00000142172211074264272130000011437206190120319878_" cx="56.7781" cy="1196.782" r="57.33" gradientTransform="matrix(1 -7.679373e-03 6.527467e-03 0.85 -0.4628 -953.9661)" gradientUnits="userSpaceOnUse">
		<stop  offset="0.65" style="stop-color:#6CD7F5"/>
		<stop  offset="0.74" style="stop-color:#68D4F4"/>
		<stop  offset="0.83" style="stop-color:#5CCDF2"/>
		<stop  offset="0.92" style="stop-color:#48C2EF"/>
		<stop  offset="1" style="stop-color:#2FB4EB"/>
	</radialGradient>
	<path style="fill:url(#SVGID_00000142172211074264272130000011437206190120319878_);" d="M63.42,4.17
		c-28.88,0-58.5,21.04-57.76,57.64c0.31,15.32,8.07,26.92,17.22,34.95c12.26,10.77,26.63,14.8,39.57,15.22
		c31.29,1.01,58-22.72,58.74-54.56c0.73-31.49-25.55-53.25-57.76-53.25L63.42,4.17z"/>
	
		<radialGradient id="SVGID_00000165916777322814926550000012749133561448121503_" cx="56.9981" cy="1703.4647" r="55.45" gradientTransform="matrix(1 -7.679373e-03 4.530830e-03 0.59 -0.3728 -934.7361)" gradientUnits="userSpaceOnUse">
		<stop  offset="0.24" style="stop-color:#A1FCFF"/>
		<stop  offset="0.62" style="stop-color:#A1FCFF;stop-opacity:0.7"/>
		<stop  offset="0.73" style="stop-color:#A1FCFF;stop-opacity:0.54"/>
		<stop  offset="0.84" style="stop-color:#CCF8FE;stop-opacity:0.33"/>
		<stop  offset="0.96" style="stop-color:#C7F7FE;stop-opacity:0.09"/>
		<stop  offset="1" style="stop-color:#C6F7FE;stop-opacity:0"/>
	</radialGradient>
	<path style="fill:url(#SVGID_00000165916777322814926550000012749133561448121503_);" d="M63.42,4.17
		c-28.88,0-58.5,21.04-57.76,57.64c0.31,15.32,8.07,26.92,17.22,34.95c12.26,10.77,26.63,14.8,39.57,15.22
		c31.29,1.01,58-22.72,58.74-54.56c0.73-31.49-25.55-53.25-57.76-53.25L63.42,4.17z"/>
	<path style="fill:#B1E3FF;" d="M64.05,91.41c0,0,3.08,1.55,3.78,3.77c0.7,2.23,1.6,4.87,1.95,5.85s0.97,1.6,1.88,1.6
		s1.32-1.39,1.53-2.02s2.3-6.89,2.99-6.82s2.02,14.83,2.51,17.82c0.49,2.99,0.77,7.03,2.44,7.03s2.09-5.15,2.37-7.31
		c0.28-2.16,1.32-9.26,2.02-11.42s1.95-4.32,2.44-4.32s1.32-0.07,1.53,1.81c0.13,1.14,0.77,2.09,2.02,1.95s1.95-2.16,2.23-4.39
		c0.26-2.06,0.56-5.15,0.56-6.75s-29.1,0-29.1,0l-1.13,3.19L64.05,91.41z"/>
	<path style="fill:#D8F3FA;" d="M89.23,89.78c0,0,1.05,5.76,1.66,5.71s1.25-6.78,1.25-6.78L89.23,89.78z"/>
	<path style="fill:#D8F3FA;" d="M68.39,90.95c0,0,0.21,2.09,0.44,2.89c0.38,1.36,1.79,3.61,2.45,3.87c0.98,0.38,1.64-2.94,1.8-5.89
		S68.39,90.95,68.39,90.95z"/>
	<path style="fill:#D8F3FA;" d="M84.21,90.51c0,0-0.19,2.31-0.44,5.45c-0.49,6.11-1.68,15.2-1.96,15.49
		c-0.95,0.95-1.2,0.22-1.47-1.04s-1.8-20.12-1.8-20.12S84.21,90.51,84.21,90.51z"/>
	<path style="fill:#B1E3FF;" d="M30.03,85.42c0,0,1.46,13.34,1.61,14.64s0.23,2.76,1.38,2.76c1.15,0,1.3-1.92,1.46-2.84
		s0.84-6.21,1.92-6.21s3.53,22.54,3.68,24.15s0.7,2.81,1.99,2.68c0.77-0.08,1.38-0.92,1.46-2.53c0.21-4.65,2.33-13.14,2.61-14.95
		c0.38-2.53,2.29-8.17,2.99-9.2c1.3-1.92,4.83-3.45,4.83-3.45l-23.92-5.06C30.04,85.41,30.03,85.42,30.03,85.42z"/>
	<path style="fill:#D8F3FA;" d="M39.66,93.98l-0.21-4.09h5.99c0,0-0.87,7.68-1.14,9.69s-1.42,9.11-2.38,9.19
		c-0.55,0.05-1.19-1.87-1.37-3.2S39.66,93.98,39.66,93.98z"/>
	<path style="fill:#D8F3FA;" d="M32.05,87.93c0,0,0.2,7.5,1.16,7.5s1.57-5.59,1.57-5.59S32.05,87.93,32.05,87.93z"/>
	<path style="fill:#FFFFFF;" d="M39.05,69.62c0,0-9.34,2.33-9.24,10.21s8.05,10.86,8.05,10.86s8.09,1,26.19,0.71
		c18.09-0.29,24.43-0.76,26.22-1.21s5.97-5.7,5.97-5.7l0.97-10.31l-5.54-4.86L39.05,69.62L39.05,69.62z"/>
	<path style="fill:#0241BC;" d="M82.14,35.85c-5.19-0.48-8.78,4.94-8.45,10.34s4.03,9.04,7.93,9.04s7.74-3.32,8-9.1
		C89.87,40.66,87.02,36.31,82.14,35.85L82.14,35.85z"/>
	<path style="fill:#0241BC;" d="M43.8,35.81c-5.39,0.34-7.5,6.08-6.79,11.3c0.63,4.61,3.91,7.93,8.58,7.67s7.37-5.18,6.96-9.88
		c-0.46-5.14-3.62-9.41-8.76-9.09L43.8,35.81z"/>
	<path style="fill:#95D3FF;" d="M43.96,38.72c-1.8-0.9-3.24,0.65-3.74,1.69s-0.75,3.64,1.05,4.23s3.29-0.75,3.74-2.24
		s0.35-2.99-1.05-3.69V38.72z"/>
	<path style="fill:#95D3FF;" d="M81.87,39.17c-1.35-0.96-3.39-0.35-4.18,1.59s-0.2,3.59,1,4.18s3.14-0.13,3.79-1.94
		c0.5-1.39,0.6-2.99-0.6-3.84L81.87,39.17z"/>
	<polygon style="fill:#B3B3B3;" points="96.72,79.11 30.83,79.4 31.33,82.87 97.02,82.57 	"/>
	<polygon style="fill:#B3B3B3;" points="65.43,91.39 62.16,91.44 62.14,69.99 65.41,69.99 	"/>
	<polygon style="fill:#B3B3B3;" points="75.52,69.89 75.66,91.16 78.97,91.04 78.88,69.5 	"/>
	<path style="fill:#B3B3B3;" d="M87.79,70.29l0.09,20.26c0,0,0.82-0.1,1.3-0.15s1.42-0.24,1.42-0.24l0.18-20.07L87.79,70.29z"/>
	<polygon style="fill:#B3B3B3;" points="48.72,70.78 48.68,91.35 51.83,91.39 52.11,69.84 	"/>
	<polygon style="fill:#B3B3B3;" points="39.15,70.99 38.94,90.8 37.78,90.7 35.99,89.71 36.28,71.19 	"/>
	<path style="fill:#0967D7;" d="M36.88,68.01c-4.36,0.79-8.46,4.46-8.72,11c-0.4,10.11,9.71,12.88,9.71,11.69s-5.89-2.08-6.14-10.4
		c-0.2-6.54,3.67-8.52,8.42-9.02c2.18-0.23,12.36-0.43,22.99-0.53c12.53-0.12,25.7-0.09,27.15,0.24c2.68,0.59,5.94,4.06,5.45,8.92
		c-0.5,4.85-5.75,10.11-5.45,10.3s8.12-2.48,8.62-10.11c0.46-7.14-2.58-12.09-8.03-12.58c-2.38-0.22-15.24-0.59-27.84-0.48
		c-11.55,0.1-22.98,0.4-26.15,0.97L36.88,68.01z"/>
	<path style="fill:#FFFFFF;" d="M42,93.67c-0.13-1.03-0.49-1.4-1.4-1.35c-0.58,0.03-0.99,0.77-0.95,1.67s0.69,9.31,0.84,10.8
		s0.12,2.34,1.06,2.24c0.87-0.09,0.61-1.52,0.65-2.89c0.12-3.7-0.16-9.98-0.22-10.47H42z"/>
	<path style="fill:#FFFFFF;" d="M78.97,93.62c0,0.44,0.28,9.56,1.05,15.34c0.24,1.8,0.69,2.93,1.03,2.93s0.37-1.62,0.49-3.65
		c0.39-6.35,0-14.34,0-14.72s0.05-1.47-1.31-1.47s-1.25,1.15-1.25,1.58L78.97,93.62z"/>
	<path style="fill:#FFFFFF;" d="M69.21,92.31c-0.88,0.36-0.22,2.56,0.22,3.27s1.2,2.45,1.85,2.13s0.6-2.24,0.44-3.16
		S70.96,91.61,69.21,92.31z"/>
</g>
</svg>
