<?xml version="1.0" encoding="utf-8"?>
<!-- Generator: Adobe Illustrator 26.3.1, SVG Export Plug-In . SVG Version: 6.00 Build 0)  -->
<svg version="1.1" id="a" xmlns="http://www.w3.org/2000/svg" xmlns:xlink="http://www.w3.org/1999/xlink" x="0px" y="0px"
	 viewBox="0 0 128 128" style="enable-background:new 0 0 128 128;" xml:space="preserve">
<path style="fill:#464C4F;" d="M26.27,17.42c0,0-2.9-2.82-5.6-4.52c-1.44-0.91-3.33-2.5-1.78-3.93s16.37-8.91,31.13,2.38
	S64.95,41.9,64.95,41.9L39,27.66L26.27,17.42L26.27,17.42z"/>
<path style="fill:#DFDFE0;" d="M56.57,35.04c0,0,2.58-2.64,3.16-3.1s2.9-2.57,2.9-2.57s0.52,1.32,0.73,2.12
	c0.2,0.75,0.44,1.95,0.44,1.95s-1.66,2.06-2.18,2.75s-2.12,2.76-2.12,2.76L56.57,35.04L56.57,35.04z"/>
<path style="fill:#DFDFE0;" d="M51.17,27.69c0,0,2.05-2.03,3.67-3.22c2.76-2.01,4.56-2.32,4.56-2.32s0.47,0.81,0.9,1.61
	c0.28,0.52,0.8,1.75,0.8,1.75s-2.52,1.89-4.3,3.09c-1.95,1.32-3.27,2.58-3.27,2.58l-2.35-3.5L51.17,27.69z"/>
<path style="fill:#DFDFE0;" d="M45.94,20.68c0,0,2.41-2.3,3.85-3.39s3.7-2.9,3.7-2.9s0.52,0.4,0.96,0.87s0.81,1.02,0.81,1.02
	s-2.2,3.02-3.64,4.51s-3.27,3.04-3.27,3.04L45.94,20.68L45.94,20.68z"/>
<path style="fill:#DFDFE0;" d="M42.61,12.7c0,0,1.19-0.94,1.72-1.67c0.89-1.2,1.34-2.5,1.34-2.5s1.09,0.48,1.91,0.99
	c0.5,0.31,1.8,1.35,1.8,1.35s-1,2.62-2.35,4.35c-1.48,1.91-2.98,3.4-2.98,3.4l-1.44-5.93L42.61,12.7z"/>
<path style="fill:#DFDFE0;" d="M31.13,16.43c0,0-2.01-4.59-3.16-6.55c-1-1.7-2.59-3.74-2.59-3.74s1.68-0.49,3.25-0.72
	c1.38-0.2,3.02-0.2,3.02-0.2l1.95,5.63l-2.47,5.57V16.43z"/>
<path style="fill:#9A9A9A;" d="M103.54,38.61l4.43,1.83c0,0,4.13,2.07,6.5,7.65s3.92,12.83,4.08,13.97s1.03,4.51,1.03,4.51
	l-2.35,3.91l-1.76-3.52c0,0-1.3-6.04-1.99-8.94s-4.51-7.49-4.51-7.49L103.54,38.61L103.54,38.61z"/>
<path style="fill:#9A9A9A;" d="M47.89,78.21c0,0,0.58,11.87,0.66,14.18s0.16,9.77,0.16,11.57s-0.41,3.75-0.48,4.27
	s-0.76,2.01-0.76,2.01l1.02,3.28l6.82-1.18l2.7-2.55c0,0,0.71-7.95,0.71-11.5s0.2-8.73,0.13-10.1s-1.57-7.22-1.57-7.22
	S47.89,78.21,47.89,78.21z"/>
<path style="fill:#9A9A9A;" d="M72.06,80.82c0,0,4.17,0.48,8.88-0.07c3.94-0.46,7.31-2.52,8.21-2.54c1.14-0.02,2.16,9.03,2.01,12.54
	s-2.85,12.23-2.85,12.23l6.44,2.55l4.49-4.1c0,0,1.63-8.66,1.63-12.32s0.15-6.42,0.15-6.42l-3.21-7.39l1.49-15.6l-29.85,7.98
	L72.06,80.82L72.06,80.82z"/>
<path style="fill:#DFDFE0;" d="M15.43,34.28l0.76-4.99c0,0,3.43-6.41,6.77-9.23s4.58-3.57,4.58-3.57l3.85-0.13l1.99-4.47l3.9-4.83
	l2.3-0.31l2.57,4.74l1.46,7.66l14.2,18.74l6.27,4.66l5.73,2.06l10.48-4.39l10.03-2.78l12.18,1.16l7.08,4.93l2.6,8.24l0.36,7.43
	l-0.48,6.31c0,0,0.27,7.78,0.64,11.89s1.25,10.05,1.25,12.18s-0.37,4.92-0.44,7.7c-0.07,2.79,0.05,6.29,0.05,6.29l-4.16,4.06
	l-6.97-0.44l-0.6-2.28c0,0,0.95-4.75,1.14-9.42s-0.91-8.04-0.91-8.04l-2.86-7.34l-1.98-9.46l1.69-10.2l-1.22,0.51
	c0,0-5.54,4.9-9.24,7.15s-10.23,2.96-11.59,3.12s-4.66-0.06-5.47,0.38s-0.37,2.93-0.37,2.93l1.25,10.86l-1.69,14.01l-1.17,15.11
	l-5.87,4.18l-5.3-3.35c0,0,1.21-2.86,1.57-4.63s-0.02-11.09-0.09-12.81s-0.66-7.01-0.95-8.62s-2.05-4.18-2.05-4.18l-7.78-6.75
	l-3.67-5.21l-2.71-13.28l-9.54-16.8l-6.38,2.57l-7.34-0.59l-3.88-10.77L15.43,34.28z"/>
<path style="fill:#9A9A9A;" d="M19.8,42.17c0,0,5.85-0.54,8.76-1.67s6.23-4.19,6.85-4.58s3.64,2.63,3.64,2.63s2.48,3.56,4.17,9.79
	s1,14.09,1,14.09l-4.79-7.52L35,45.96l-4.03-2.66l-5.66,2.61l-4.87-0.49L19.8,42.17z"/>
<path style="fill:#2F2F2F;" d="M92.72,65.1c0,0,0.13-3.57,1.85-6.16c1.72-2.58,5.06-3.23,5.06-3.23s2.51-2.76,4.92-4.27
	s7.15-2.79,7.15-2.79l0.59,4.64c0,0-5.21,4.74-7.1,6.52s-5.91,6.15-5.91,6.15s-1.05,6.64,0.25,10.94s3.33,8.35,3.73,9.98
	s0.24,4.35-0.37,4.14c-0.32-0.11-0.3-2.38-1.34-4.54c-0.68-1.41-4.31-6.83-4.95-13.14c-0.73-7.25,1.72-11.69,1.31-12.22
	c-0.21-0.27-0.43,0.07-0.43,0.07l-2.66,4.03l-2.11-0.11L92.72,65.1z"/>
<path style="fill:#2F2F2F;" d="M84.35,69.8c0,0-0.93-10.85,3.82-18.82s14.91-10.93,14.91-10.93l4.79,1.94l1.18,2.58
	c0,0-10.23,2.69-14.86,8.35c-4.4,5.37-5.74,15.2-5.74,15.2L86,70.58L84.35,69.8L84.35,69.8z"/>
<path style="fill:#2F2F2F;" d="M75.22,71.3c0,0-1.31-4.76-0.99-11.39c0.32-6.62,1.35-9.75,1.45-11.95c0.11-2.21,0.48-6.57,0.48-6.57
	l5.11-1.29c0,0-0.98,1.98-1.35,3.88c-0.27,1.38-0.16,2.69,0.27,2.69s1.67-2.75,3.18-4.85s3.12-3.28,3.12-3.28l7.11-0.43
	c0,0-6.84,5.27-10.93,12.81c-3.12,5.76-4.15,12.01-4.15,14.7s0.26,5.36,0.26,5.36l-1.61,1.8L75.2,71.3H75.22z"/>
<path style="fill:#2F2F2F;" d="M44.35,58.88c0,0,4-0.9,6.12-2.24c3.54-2.23,5.4-5.23,7.31-8.51c1.44-2.47,3.28-6.43,3.28-6.43
	l4.34,2.72c0,0-1.1,3.21-3.85,8.12c-1.32,2.35-3.72,5.7-8.62,10.1c-2.54,2.29-8.21,5.42-8.21,5.42l-0.37-3.65c0,0,5.19-2.2,4.8-3.05
	c-0.33-0.71-4.94,1.06-4.94,1.06l-0.35-2.93l0.48-0.62L44.35,58.88z"/>
<path style="fill:#2F2F2F;" d="M43.8,51.09c0,0,2.4-1.13,4.2-2.79s3.78-3.71,4.41-4.31s2.22-1.94,3.04-0.99s-0.57,2.61-1.62,4.03
	s-2.71,4.01-5.79,6.18c-2.65,1.87-3.79,2.35-3.79,2.35l-1.97-1.86C42.28,53.7,43.8,51.09,43.8,51.09z"/>
<path style="fill:#2F2F2F;" d="M41.04,42.46c0,0,3.96-3.87,6.08-5.53s5.58-4.73,5.58-4.73l3.18,4.06c0,0-4.25,3.87-6.22,5.44
	c-2.3,1.83-6.92,5.05-6.92,5.05l-1.52-1.16C41.22,45.59,41.04,42.46,41.04,42.46z"/>
<path style="fill:#2F2F2F;" d="M35.41,35.92c0,0-0.23-1.84-0.76-3.08s-1.31-2.44-1.41-5.05s0.46-4.8,1.69-4.66s1,2.45,1.34,3.99
	c0.71,3.21,1.84,4.94,2.26,6.39s0.51,5.04,0.51,5.04l-2.03-0.91L35.41,35.92z"/>
<path style="fill:#2F2F2F;" d="M19.03,40.69c0,0,2.9-2.98,5.45-2.72s2.69,2.98,2.69,2.98l-1.48,1.11c0,0-1.17,0.52-1.27,0.15
	s-0.26-0.68-0.47-0.92c-0.39-0.46-1.18,0.23-2.09,0.97s-1.71,1.42-1.71,1.42l-1.12-2.98V40.69z"/>
<path style="fill:#2F2F2F;" d="M19.89,34.16c0,0,3.49-3.16,6.66-2.55c5.19,0.99,5.93,6.59,5.93,6.59l-0.83,2.23l-2.04-0.42
	c0,0-0.05-4.52-3.97-4.89c-3.2-0.3-7.74,4.71-7.74,4.71l1.99-5.66L19.89,34.16z"/>
<path style="fill:#2F2F2F;" d="M17.69,30.01c0,0,2.68-3.2,3.07-4.58s0.11-3.19,0.11-3.19s0.85-1.03,1.71-1.83
	c1.18-1.1,2.2-1.86,2.2-1.86s0.88,3.54,0.16,6.6c-0.59,2.54-2.07,3.78-3.19,5.03c-0.96,1.08-2.12,1.9-2.12,1.9L17.68,30L17.69,30.01
	z"/>
<path style="fill:#0B0B0B;" d="M42.61,59.33l1.74-0.46c0,0,0.08,1.8,0.09,2.08c0.04,0.67,0.09,1.56,0.09,1.56
	S42.61,59.33,42.61,59.33z"/>
<path style="fill:#0B0B0B;" d="M39.33,53.27c0,0,1.16-0.46,2.38-1.04s2.1-1.14,2.1-1.14s0.17,1,0.33,2.6
	c0.05,0.55,0.13,1.85,0.13,1.85s-1.92,1.14-2.87,1.39s-2.08-3.67-2.08-3.67L39.33,53.27z"/>
<path style="fill:#0B0B0B;" d="M33.73,43.01c0,0,1.22-1.5,1.56-3.18s0.12-3.91,0.12-3.91s0.97-0.75,1.86-0.03
	c1.1,0.89,1.77,2.66,1.77,2.66s-0.03,2.63-0.55,4.43s-1.99,4.77-1.99,4.77L33.73,43.01L33.73,43.01z"/>
<path style="fill:#0B0B0B;" d="M24.59,44.43c0,0-0.03-1.18-0.18-1.87s-0.25-0.98-0.25-0.98s1.16-0.21,1.51-0.28s1.49-0.36,1.49-0.36
	s0.19,1.49,0.19,2.2s-0.03,1.1-0.03,1.1l-2.74,0.19H24.59z"/>
<path style="fill:#0B0B0B;" d="M29.49,43.34c0,0,0.13-1.55,0.13-2s0-1.33,0-1.33s0.99-0.56,1.35-0.77c0.61-0.35,1.51-1.04,1.51-1.04
	s0.16,1.04,0.15,2.49c0,0.81-0.18,2.26-0.18,2.26S29.49,43.34,29.49,43.34z"/>
<path style="fill:#2F2F2F;" d="M20.35,44.27c0,0,3.14,0.19,5.62-0.18s4.94-1.99,7.07-1.79c1.88,0.18,3.49,5.54,6.37,10.37
	s4.83,8.63,5.06,9.43s0.56,6.38,2.98,10.98s4.61,6.51,6.22,8.35s3.75,4.29,3.57,4.53c-0.41,0.55-8.71-5.73-11.32-9.3
	c-4.83-6.62-4.03-13.96-4.03-13.96s-3.55-6.48-5.16-9.61s-3.7-8.02-4.68-8.11s-2.97,1.23-6,1.61c-3.58,0.45-5.82-0.45-5.82-0.45
	l0.1-1.88L20.35,44.27z"/>
<path style="fill:#464C4F;" d="M16.19,29.3c-0.41,0.16-6.22,5.04-8.67,9.5c-1.67,3.03-1.53,6.02-0.59,8.18
	c1.22,2.79,3.52,2.69,3.52,2.69l2.99,0.83c0,0,2.84,0.1,4.9-1.52s2.55-2.64,2.55-2.64s0.44-2.06-0.34-3.82s-1.47-2.45-1.47-2.45
	s2.64-4.85,0.54-8.76C18.64,29.48,16.83,29.06,16.19,29.3z"/>
<path style="fill:#0B0B0B;" d="M28.87,25.06c-1.61,0.12-2.16,1.79-2.16,2.96c0,1.54,1.23,2.9,2.59,2.9s2.47-1.36,2.28-3.15
	C31.41,26.17,30.53,24.93,28.87,25.06L28.87,25.06z"/>
<path style="fill:#454C4F;" d="M38.19,10.05c-0.67-0.08-1.98,3.09-2.47,5s-0.37,2.72,0.12,3.27s2.69,0.65,3.27-0.06
	c1.12-1.35,0.12-8.09-0.93-8.21H38.19z"/>
<path style="fill:#0B0B0B;" d="M9.78,40.71c-0.18,0.98,1.03,1.71,1.03,1.71s-0.29,2.43,1.03,2.35c1.57-0.1,2.3-3.13,1.52-4.46
	s-3.33-0.98-3.57,0.39L9.78,40.71z"/>
<path style="fill:#0B0B0B;" d="M16.59,45.36c0,0,0.73-2.11,2.01-2.11c1.08,0,1.37,1.81,0.29,3.04s-1.91,2.25-3.04,2.99
	s-2.44,1.45-3.72,1.3s-1.96-0.86-1.57-1.01s1.89-0.83,3.18-1.62C15.36,46.97,16.58,45.36,16.59,45.36L16.59,45.36z"/>
<path style="fill:#2F2F2F;" d="M26.26,17.41c0,0,1.44-1.22,2.56-1.72s1.89-0.56,1.89-0.56s1.12-3.56,3.25-6.14S38.17,5,39.58,5.4
	s3.21,4.57,3.83,7.21s1.05,5.59,1.05,5.59s3.32,3.87,8.03,10.74c3.48,5.08,6.6,8.44,8.77,10.23s6.57,3.96,8.21,3.88
	s8.29-3.81,14.7-5.52s17.93-2.72,23.81,2.91c5.3,5.08,5.81,9.9,5.45,16.05c-0.22,3.81-1.13,9.05-1.34,9.03
	c-0.3-0.02,0.9-10.75-2.46-18.06c-1.94-4.22-4.52-7.07-11.72-8.36c-12.09-2.16-25.15,6.34-28.59,6.72
	c-2.58,0.28-9.31-3.68-11.1-5.62s-5.32-6.78-6.79-8.83c-3.2-4.46-8.53-11.6-8.82-12.27s-0.07-2.99-1.05-6.64
	c-0.76-2.88-1.87-4.93-2.84-5s-3.92,3.49-4.85,5.67c-1.49,3.51-0.75,7.09-1.27,7.61s-1.72,2.31-3.28,1.94s-3.04-5.26-3.04-5.26
	L26.26,17.41z"/>
<path style="fill:#0B0B0B;" d="M75.21,71.31c0,0,0.48,2.37,1.35,4.32c1,2.25,2.55,4.31,3.43,3.59s-0.48-2.95-0.72-4.62
	s-0.49-3.61-0.49-3.61s-0.98,0.17-1.96,0.23c-0.7,0.05-1.62,0.09-1.62,0.09L75.21,71.31z"/>
<path style="fill:#0B0B0B;" d="M84.35,69.81c0,0,0.12,2.68,0.29,4.19c0.13,1.23,0.4,4.31,1.06,4.34c1.29,0.06,1.46-2.2,1.93-4.73
	s0.84-5.49,0.84-5.49s-0.7,0.44-2.1,1.02C85.36,69.55,84.36,69.82,84.35,69.81L84.35,69.81z"/>
<path style="fill:#0B0B0B;" d="M92.73,65.1c0,0-0.24,2.1-0.24,3.32s-0.29,3.35,0.74,3.35s1.68-2.98,2.18-4.69
	c1.1-3.83,2.09-5.9,2.09-5.9s-1.4,1.12-2.53,2.02c-0.94,0.75-2.23,1.89-2.23,1.89L92.73,65.1z"/>
<path style="fill:#0B0B0B;" d="M89.48,78.46c0,0,2-0.91,3.3-1.43s3.35-1.13,4.05,0.13s-1.13,3.22-2.57,3.79s-3.88,0.68-3.88,0.68
	s-0.16-0.88-0.35-1.69S89.48,78.46,89.48,78.46z"/>
<path style="fill:#0B0B0B;" d="M90.8,84.42c0,0,0.78,0.21,2.96,0.13c1.34-0.05,2.68-0.54,3.81-0.32s2.11,2.22,0.11,3.65
	c-2.85,2.04-6.56,0.41-6.56,0.41s-0.06-1.19-0.13-2.11C90.95,85.7,90.8,84.42,90.8,84.42z"/>
<path style="fill:#0B0B0B;" d="M91.07,91.75c0,0,1.72,0.21,2.9,0.21s2.74-0.32,3.06,0.48s-0.7,2.95-3.33,2.95s-3.28-0.21-3.28-0.21
	s0.33-1.54,0.4-1.91c0.13-0.72,0.25-1.53,0.25-1.53V91.75z"/>
<path style="fill:#464C4F;" d="M58.5,114.74c-0.31,0.15-1.16,1.75-1.96,3.14c-0.68,1.18-1.42,2.57-1.27,3.72s1.84,2.77,6.81,2.24
	s6.95-3.21,7.79-5.73s1.02-11.42,1.37-16.32c0.35-4.9,1.98-13.19,1.87-16.57S71.9,74.2,71.16,73.94s-0.11,9.01-0.02,11.23
	c0.17,4.1-0.77,6.41-1.45,14.02c-0.6,6.65-0.81,12.78-1.45,14.54c-0.55,1.52-3.42,2.86-6.24,2.74c-3.04-0.13-3.48-1.72-3.48-1.72
	L58.5,114.74z"/>
<path style="fill:#0B0B0B;" d="M41.11,42.39c0,0-2.54,2.39-1.17,4.33c0.9,1.27,2.8,0.03,2.8,0.03s-0.36-1.18-0.89-2.62
	C41.56,43.36,41.11,42.39,41.11,42.39z"/>
<path style="fill:#2F2F2F;" d="M43.09,18.88c0,0-4.24,2.3-4.77,3.64c-0.34,0.85-0.42,5.83,0.85,5.9s1.55-1.52,2.54-3.18
	s3.39-3.39,3.39-3.39L43.09,18.88z"/>
<path style="fill:#2F2F2F;" d="M47.5,24.99c0,0-2.45,1.93-4.17,3.96c-1.59,1.87-2.51,3.57-2.61,5.26c-0.07,1.06,0.39,2.08,1.06,2.19
	c1.06,0.18,3.32-2.93,5.51-4.8s3.53-3,3.53-3L47.5,24.99L47.5,24.99z"/>
<path style="fill:#2F2F2F;" d="M68.07,44.73c0,0-0.15,5.25-3.93,11.65c-3.16,5.36-5.67,6.41-8.02,8.19
	c-1.28,0.97-6.25,3.8-6.07,4.28c0.34,0.88,2.84,0.68,8.05-1.74s10.16-6.96,11.87-11.75c2.55-7.13,2.41-11.62,2.41-11.62l-4.33,0.99
	L68.07,44.73z"/>
<path style="fill:#2F2F2F;" d="M46.17,72.76c0,0,2.48,0.7,4.64,0.13s7.43-2.41,10.35-3.94c2.92-1.52,6.41-3.94,8.13-3.75
	s2.52,2.89,2.87,4.12s0.79,2.77-0.2,3.08s-2.37-2.65-3.67-2.65s-5.21,2.57-7.54,3.75c-2.33,1.19-7.51,3.61-8.57,4.22
	s-0.44,1.61-0.44,1.61l-4.06-1.82l-1.5-4.75H46.17z"/>
<path style="fill:#2F2F2F;" d="M56.64,80.52c0.1,1.03,2.68,2.63,7.12,2.22s5.94-1.96,5.47-4.13c-0.46-2.17-1.51-1.84-3.87-0.98
	c-2.27,0.83-3.92,1.34-5.99,1.7s-2.83,0.26-2.74,1.19H56.64z"/>
<path style="fill:#2F2F2F;" d="M98.09,69.36c0,0,3.56,0.3,6.03-0.72c3.04-1.25,5.85-4.12,6.8-3.34s-0.24,5.49-4.83,7.4
	c-4.54,1.89-7.76,0.84-7.76,0.84L98.09,69.36z"/>
<path style="fill:#2F2F2F;" d="M99.17,78.01c0,0,3.28-0.06,6.5-0.6s5.13-1.37,5.97-1.13s1.43,1.85,0.3,3.16s-3.59,2.34-5.91,2.57
	c-3.04,0.3-5.97-0.42-5.97-0.42l-0.9-3.58L99.17,78.01z"/>
<path style="fill:#2F2F2F;" d="M102.33,85.71c0,0,2.75-0.18,4.95-0.54s5.61-0.78,5.85,0.06s-0.78,3.76-4.95,4.65
	s-5.19-0.42-5.19-0.42l-0.66-3.76L102.33,85.71z"/>
<path style="fill:#2F2F2F;" d="M102.98,93.86c0,0,1.87,0.19,3.64,0.56s5.49,1.07,5.55,2.09c0.07,1.14-3.25,2.58-6.89,2.36
	c-1.48-0.09-2.49-0.49-2.49-0.49s0.1-0.85,0.15-2.23c0.05-1.4,0.03-2.3,0.03-2.3L102.98,93.86z"/>
<path style="fill:#2F2F2F;" d="M57.94,86.63c-0.06,0.12,0.29,1.21,0.79,2.26c0.7,1.46,1.89,3,4.32,3.08
	c5.24,0.17,6.46-3.46,6.11-4.44s-4.4-0.07-5.94-0.14S58.18,86.14,57.94,86.63z"/>
<path style="fill:#2F2F2F;" d="M59.74,98.2c0,0,1.8,0.23,4.65-0.28c1.72-0.31,3.47-1.49,4.15-0.81s-0.62,4.14-3.16,4.84
	c-2.97,0.81-5.47-0.07-5.5-0.4C59.84,101.12,59.74,98.2,59.74,98.2z"/>
<path style="fill:#2F2F2F;" d="M59.98,107.26c0,0,1.61,0.21,3.25,0.19c1.44-0.02,4.06-0.44,4.62-0.11s0.72,2.64-0.24,3.14
	s-3.86,0.67-5.06,0.67s-2.79-0.07-2.73-0.42c0.05-0.25,0.11-0.82,0.13-1.61S59.99,107.54,59.98,107.26z"/>
<path style="fill:#0B0B0B;" d="M48.22,85.23c0,0,1.8,0.66,3.71,0.63c1.16-0.02,3.14-0.29,3.59,0.33s-0.27,2.76-2.93,3.51
	c-2.19,0.62-4.18-0.46-4.18-0.46s-0.07-1.03-0.11-1.88C48.26,86.3,48.22,85.23,48.22,85.23z"/>
<path style="fill:#0B0B0B;" d="M48.56,93.09c0,0,1.74,0.36,3.74,0.29c1.16-0.04,3.68-0.74,4.34-0.04s0.62,3.71-3.47,3.88
	c-3.02,0.12-4.54-0.48-4.54-0.48s-0.01-1.07-0.02-1.72s-0.05-1.94-0.05-1.94V93.09z"/>
<path style="fill:#0B0B0B;" d="M48.69,101.83c0,0,1.11,0.28,3.37,0.31c1.7,0.02,3.26-0.58,3.84,0.08s-0.78,3.3-3.59,3.3
	s-3.62-0.82-3.62-0.82v-1.59C48.69,102.41,48.69,101.82,48.69,101.83L48.69,101.83z"/>
<path style="fill:#464C4F;" d="M47.39,110.16c-0.22-0.09-1.34,2.18-2.13,3.43s-1.34,2.13-1.25,2.83s0.97,2.32,5.24,2.22
	c4.26-0.09,7.51-1.62,8.25-4.08s0.67-4.75,0.51-4.77c-0.45-0.08-1.6,1.55-6.91,1.58c-2.32,0.01-3.48-1.11-3.71-1.2V110.16z"/>
<path style="fill:#464C4F;" d="M88.39,102.63c0,0-1.8,4.17-1.1,5.2c0.6,0.88,2.32,1.39,4.92,1.07c3.36-0.41,5.68-1.15,6.44-3.89
	c0.59-2.11,0.63-3.66,0.63-3.66s-2.49,1.52-6.42,1.8c-2.27,0.16-4.47-0.53-4.47-0.53V102.63z"/>
<path style="fill:#464C4F;" d="M101.84,104.92c0,0,1.2,1.55,4.26,1.53c4.81-0.03,7.46-2.87,7.46-2.87s0.46,6.16-0.88,8.06
	c-1.18,1.67-5.65,3.2-9.13,2.78s-3.93-1.95-3.43-4.17C100.54,108.4,101.51,105.62,101.84,104.92L101.84,104.92z"/>
<path style="fill:#464C4F;" d="M114.94,78.03c0.51,7.08,2.62,12.21,2.8,13.18s-0.17,2.91,1.08,2.91c1.77,0,2.8-10.27,2.8-15.75
	s-2.11-11.93-2.11-11.93s-0.91,1.43-1.94,1.43s-2.11-0.92-2.11-0.92s-0.9,5.71-0.51,11.08L114.94,78.03z"/>
</svg>
