<?xml version="1.0" encoding="utf-8"?>
<!-- Generator: Adobe Illustrator 26.3.1, SVG Export Plug-In . SVG Version: 6.00 Build 0)  -->
<svg version="1.1" id="a" xmlns="http://www.w3.org/2000/svg" xmlns:xlink="http://www.w3.org/1999/xlink" x="0px" y="0px"
	 viewBox="0 0 128 128" style="enable-background:new 0 0 128 128;" xml:space="preserve">
<path style="fill:#B0B0B0;" d="M110.35,97.1l13.49-5.58c0,0,0.1-6.79-5.37-12.11c-2.99-2.91-6.35-5.29-9.1-7.08l-3.89,11.22
	L110.35,97.1z"/>
<path style="fill:#858585;" d="M110.34,97.11c0,0-2.14-3.35-4.02-4.75s-5.56-2.85-5.56-2.85L98.07,79.4l1.47-14.31
	c0,0,3,2.61,4.86,4.03c0.84,0.64,2.69,1.73,4.98,3.22c0,0,0.2,9.72,0.32,12.49c0.12,2.77,0.65,12.28,0.65,12.28"/>
<path style="fill:#2F2F2F;" d="M102.69,72.15c0,0,0.71-0.96,1.37-1.52s1.31-0.84,1.31-0.84l4.01,2.55c0,0-1.87,1.29-3.39,3.39
	c-1.26,1.72-2.79,5.03-2.79,5.03l-0.81-5.99l0.31-2.61L102.69,72.15z"/>
<path style="fill:#595F66;" d="M97.45,106.31c0.71,1.26-0.61,5.13-1.13,5.99c-0.68,1.14-1.86,1.31-2.25,2.34
	c-0.26,0.68-0.16,1.68,2.3,1.64c2.16-0.04,6.36,0.12,7.59-1.06c2.36-2.26,1.69-4.3,2.53-9.21s1.42-7.79,1.01-8.89
	c-0.36-0.99-1.16-1.17-2.2-2.29c-0.54-0.58-1.06-1.32-1.06-1.32l-8.07,6.07l-1.04,3.43C95.13,103.01,96.61,104.84,97.45,106.31
	L97.45,106.31z"/>
<path style="fill:#474C52;" d="M80.49,101.2l-2.64,1.87c0,0,0.28,2.35-0.31,3.34s-2.51,2.85-3.83,3.83s-3.44,2.31-3.05,3.29
	s3.44,1.13,6.04,1.03s5.01-0.49,5.9-1.62s2.56-3.1,3.73-4.62s1.82-2.75,1.82-3.83s-0.71-1.5-0.8-4.02
	c-0.09-2.52-6.87,0.73-6.87,0.73H80.49z"/>
<path style="fill:#474C52;" d="M50.6,105.3c0,0-0.25,2.7-1.4,4.15c-0.78,0.98-2.46,2.41-3.1,2.9s-0.74,1.87,0.69,1.97
	s3.61,0.21,6.24-0.1c3.39-0.39,4.27-2.35,4.86-3.83s1.33-5.64,1.33-5.64l-4.57-3.7C54.65,101.05,50.6,105.3,50.6,105.3z"/>
<path style="fill:#5C6269;" d="M23.44,103.11c0,0-2.46,1.86-3.83,2.99s-3.19,2.9-3.29,5.26s0.29,3.29,1.38,3.29s2.11-1.67,3.54-2.36
	s2.79-1.17,3.81-1.64c1.56-0.72,2.42-1.29,2.42-1.29l-1.22-4.35l-2.8-1.91L23.44,103.11z"/>
<path style="fill:#5C6269;" d="M72.8,89.26l-1.39,3.07c0,0,1.85,2.78,3.07,4.76s2.48,3.77,2.73,4.31s0.64,1.66,0.64,1.66
	s1.77,0.72,4.21,0.21s5.3-2.81,5.3-2.81s0.04-2.64,0.44-3.37c0.51-0.93,1.33-0.85,1.33-0.85l-3.75-6.02l-0.67-19.86l-8.59-1.81
	C76.12,68.55,72.8,89.26,72.8,89.26z"/>
<path style="fill:#5C6269;" d="M43.76,92.42l-3.08,4.99c0,0,1.73,0.34,2.89,0.86s3.28,1.59,4.75,2.86c1.03,0.89,2.02,2.09,2.21,2.98
	c0.08,0.36,0.07,1.2,0.07,1.2s2.6,0.61,4.56,0.4s4.07-0.95,4.07-0.95s0.87-5.34,1.96-7.7c0.9-1.95,5.4-3.98,5.4-3.98l-22.83-0.65
	L43.76,92.42z"/>
<path style="fill:#797B7E;" d="M44.17,87.75l1.19,7.35c0,0,4.77,1.19,9.61,0.63s11.43-2.89,17.14-3.33
	c5.71-0.44,10.11,0.64,10.11,0.64s-3.96-3.66-5.34-8.11c-1.38-4.46-1.07-7.16,0.25-10.3S76.5,68.6,76.5,68.6L44.17,87.75
	C44.16,87.75,44.17,87.75,44.17,87.75z"/>
<path style="fill:#5E6367;" d="M21.11,65.48l-6.92,4.35c0,0,0.04-3.91,0.33-6.18s0.67-4.43,1.75-4.61s2.86,1.6,3.61,2.38
	c0.97,1,2.08,2.57,2.08,2.57l-0.86,1.49H21.11z"/>
<path style="fill:#A0A0A0;" d="M14.46,69.26c0,0,1.68-2.57,3.63-4.03s3.45-2.04,3.45-2.04s2.88-4.65,4.96-6.46s3.89-3.05,5.26-2.87
	s3.14,3.63,3.67,6.19s0.8,3.63,1.15,3.94c0.35,0.31,1.37,0.22,2.57,0.49s1.83,0.47,2.36,0.2s13.28-8.81,21.68-12.39
	c9.72-4.14,19.61-4.86,27.92,1.59s11.58,14.64,12.25,18.28c0.44,2.38,1.03,6.07-0.1,11.14c-0.5,2.22-1.48,4.5-0.88,6.42
	s1.84,3.44,1.87,3.79c0.08,1.1-0.99,4.14-2.98,6.31c-2.24,2.43-6.13,3.19-6.13,3.19s-8.48-7.67-10.91-11.2s-5.82-9.28-4.85-13.85
	s2.16-5.42,2.52-6.22s0.48-1.43-0.18-1.84s-1.65-0.13-2.9,1.76s-3.77,7.44-13.49,12.78c-9.71,5.34-15.92,8.03-19.53,10.48
	s-7.08,7.65-8.91,9.38c-1.34,1.26-9.62,5.19-9.62,5.19s-1.4-0.27-3.02-2.71s-0.86-3.66-0.86-3.66s4.44-2.79,5.28-4.64
	c1.39-3.06,1.87-7.47,1.88-9.61S14.47,69.28,14.47,69.28L14.46,69.26z"/>
<path style="fill:#797B7E;" d="M23.59,66.74c0,0,5.75,1.09,9.03,2.57s3.81,2.24,3.81,2.6s-2.2,4.8-2.11,4.98s3.28,1.26,3.41,1.8
	s-2.07,4.28-3.19,6.19c-1.37,2.36-3.84,4.49-3.84,4.49s-3.07,1.57-9.62,1.71c-7.54,0.15-10.05-1.84-10.05-1.84
	S23.59,66.74,23.59,66.74z"/>
<path style="fill:#C8C8C8;" d="M5.46,84.75l1.12-2.02c0,0,2.38-2.74,3.23-3.9s1.35-3.1,2.51-5.88s2.38-5.3,6.73-6.24
	s7.99,1.44,9.96,2.38s3.55,2.38,3.55,3.01s-1.21,2.69-1.84,3.81s-1.66,2.51-1.66,2.51s3.41,0,3.55,0.63
	c0.07,0.33-0.38,2.46-1.33,4.34c-0.85,1.67-2.15,3.1-2.98,3.77c-0.72,0.57-4.76,2.93-10.37,2.98c-4.54,0.04-7.44-1.04-7.44-1.04
	l-3.37-1.75L5.46,84.75L5.46,84.75z"/>
<path style="fill:#54595F;" d="M16,73.59c-2.13,0.33-3.89,2.45-3.67,4.84c0.24,2.52,2.48,3.18,3.94,3.72
	c1.66,0.62,3.31,1.41,5.17,1.46c2.43,0.07,5.55-1.49,5.58-4.28c0.03-2.49-3.72-4.3-5.68-5.08c-1.4-0.56-3.86-0.89-5.35-0.66
	C15.99,73.59,16,73.59,16,73.59z"/>
<path style="fill:#202121;" d="M17.03,74.97c-1.32-0.05-2.77,0.96-2.73,3.15c0.03,2.07,1.32,2.93,2.7,2.97
	c1.83,0.06,2.52-1.62,2.52-3.06C19.52,76.47,18.74,75.03,17.03,74.97z"/>
<path style="fill:#FFFFFF;" d="M16.31,76.14c-0.93,0.07-1.05,0.93-1.05,1.56s0.36,1.32,0.99,1.35s1.14-0.63,1.14-1.5
	S17.12,76.08,16.31,76.14z"/>
<path style="fill:#202121;" d="M7.64,87.91c0.03-0.32,0.52-0.35,1.97-0.4c2.56-0.09,2.49-1.33,3.54-1.97
	c0.96-0.59,1.95-0.02,1.88,1.15s-0.82,1.97-2.18,2.3c-1.42,0.34-2.63,0.19-3.45,0.05S7.6,88.41,7.64,87.91z"/>
<path style="fill:#474C52;" d="M7.68,84.77c0.29,1.49,0.35,2.89,0.09,2.98c-0.54,0.2-1.91,0.09-2.64-0.62
	c-0.94-0.91-1.52-2.18-0.91-3.54s2.63-1.12,2.63-1.12S7.37,83.14,7.68,84.77z"/>
<path style="fill:#5B626A;" d="M30.98,57.89c-0.95-0.49-2.61,1.11-3.83,2.57s-1.8,3.37-0.88,4.29s4.37,1.53,5.21,1.3
	c1.66-0.45,1.46-2.18,1.26-4.06S31.94,58.39,30.98,57.89z"/>
<path style="fill:#474C52;" d="M110.34,97.11c0,0,1.07-4.72,4.93-6.67c5.59-2.82,8.57,1.08,8.57,1.08s0.36,4.79-1.68,8.62
	c-1.36,2.55-5.32,6.58-8.51,5.31c-2.07-0.82-1.67-3.02-2.06-4.99S110.34,97.1,110.34,97.11L110.34,97.11z"/>
<path style="fill:#2F2F2F;" d="M103.9,90.93c0,0,0.94-4.27,2.11-6.92c1.4-3.17,3.5-4.93,3.5-4.93l2.07,1.76l-1.8,6.06
	c0,0-0.88,1.73-1.35,3.15s-0.93,3.39-0.93,3.39s-0.79-0.97-1.97-1.64c-0.73-0.41-1.62-0.89-1.62-0.89S103.9,90.93,103.9,90.93z"/>
<path style="fill:#474C52;" d="M115.36,76.62c0,0-1.79,0.15-3.35,0.9c-1.07,0.51-2.48,1.56-2.48,1.56l0.27,7.82
	c0,0,0.95-2.65,4.44-4.53c3.65-1.97,6.19-0.72,6.19-0.72s-1.09-1.47-2.4-2.8C116.86,77.65,115.37,76.62,115.36,76.62
	C115.37,76.62,115.36,76.62,115.36,76.62z"/>
</svg>
