<?xml version="1.0" encoding="utf-8"?>
<!-- Generator: Adobe Illustrator 26.3.1, SVG Export Plug-In . SVG Version: 6.00 Build 0)  -->
<svg version="1.1" id="Layer_4" xmlns="http://www.w3.org/2000/svg" xmlns:xlink="http://www.w3.org/1999/xlink" x="0px" y="0px"
	 viewBox="0 0 128 128" style="enable-background:new 0 0 128 128;" xml:space="preserve">
<g style="display:none;">
	<path style="display:inline;fill:#FCEACC;" d="M122,81.1c-4.2-5.9-14.2-5.5-17-5.4h-0.4c-4.9,0.2-9.7-1.7-13.2-5.2L57.3,36.4
		c-3.5-3.5-5.3-8.4-5-13.3v-0.4c0.2-2.8,0.4-6.6,0-9.5C51.7,8.6,47.1,1.6,35,4.1s-8.6,3.7-9,9.6c-0.1,1.2,0.5,7.7-1.9,10.2
		s-8.1,0.6-9.4,0.7C8.9,25,3.9,29.2,3.9,37.5s5.7,14.3,9,14.4c3,0.2,6.7,0.3,9.5,0.2l8.6-0.4c0,0,1.1,1.1,4.6,4.7l34.5,35.1
		c3.5,3.5,5.3,8.4,5,13.3v0.4c-0.2,2.8-1.7,13.3,5.1,17.1s5.6,2.8,12.3,1.5c6.2-1.2,8.6-3.7,9-9.6c0.1-1.2,0.1-8.9,2.7-11.4
		c2.5-2.5,8.4-1.5,9.7-1.6c5.8-0.4,9.3-2,10.5-8.2s-1.6-11.1-2.2-12L122,81.1z"/>
	<path style="display:inline;fill:#88C4D8;" d="M37.7,2.2C34,1.7,32,6.7,32.2,10.4s1.4,8-1,11c-3.4,4.1-10.6,1.7-15,4.8
		c-1.5,1-2.6,2.7-3,4.5c-1.1,4.4,1.7,9.4,6,10.7c3.9,1.2,8.1-0.4,12.1-0.1c8.1,0.5,13.9,7.6,19,13.9c5.9,7.3,12.3,14.1,19.2,20.6
		c5.5,5.2,11.7,10.6,13.4,18c1.4,6.1-0.5,12.6,0.2,18.8c0.2,1.3,0.4,2.7,1.2,3.8c2.4,3.9,8.7,3.3,12,0.1s4.8-7.7,6.7-11.9
		c1.9-4.2,5-8.4,9.5-9.2c2.9-0.5,6.1,0.5,8.7-0.8c0.7-0.3,1.2-0.8,1.9-1.1c2.4-0.8,4.6,1.6,5.6,3.9c4.4,9.9-0.3,22.1-8.7,29
		c-8.4,6.9-19.6,9.3-30.4,10c-26,1.7-53.1-6.3-72.2-24.1C9.7,105.1,3.4,96.4-1.5,87c-7.3-13.7-11.8-29-12.4-44.5
		c-0.5-11.8,1.3-23.9,7.2-34.1C-0.9-1.9,9.5-9.9,21.2-11.1"/>
</g>
<g>
	<path style="fill:#FCEACC;" d="M6.3,81.1c4.2-5.9,14.2-5.5,17-5.4h0.4c4.9,0.2,9.7-1.7,13.2-5.2L71,36.4c3.5-3.5,5.3-8.4,5-13.3
		v-0.4c-0.2-2.8-0.4-6.6,0-9.5c0.6-4.6,5.2-11.6,17.3-9.1s8.6,3.7,9,9.6c0.1,1.2-0.5,7.7,1.9,10.2s8.1,0.6,9.4,0.7
		c5.8,0.4,10.8,4.6,10.8,12.9c0,9.1-5.7,14.3-9,14.4c-3,0.2-6.7,0.3-9.5,0.2l-8.6-0.4c0,0-1.1,1.1-4.6,4.7L58.2,91.5
		c-3.5,3.5-5.3,8.4-5,13.3v0.4c0.2,2.8,1.7,13.3-5.1,17.1s-5.6,2.8-12.3,1.5c-6.2-1.2-8.6-3.7-9-9.6c-0.1-1.2-0.1-8.9-2.7-11.4
		c-2.5-2.5-8.4-1.5-9.7-1.6c-5.8-0.4-9.3-2-10.5-8.2c-1-5.5,1.6-11.1,2.2-12L6.3,81.1z"/>
	<path style="fill:#DEBCA8;" d="M102.1,11.1c-0.8-3.1-4.9-2.7-5.9-1.7s-1.6,2.4-1.8,3.8c-0.8,5.8,1.2,9.2,3.2,10.2s3.4,1.3,6.5,1.6
		s3.4-0.1,2.7-0.5c-1-0.6-3.1-2-3.6-2.8s-0.5-1.9-0.6-2.9c-0.3-2.6,0.2-5.2-0.5-7.8L102.1,11.1z"/>
	<path style="fill:#DEBCA8;" d="M4.1,93.1L4.1,93.1c-0.3-1.7,1.7-3,3.1-1.9s0.7,0.5,1.1,0.7c4.1,2.3,9.7,0.5,13.6,3.2
		c6.8,4.8,2.8,17.9,7.4,21s7.7,2.3,10.6,0.9c4.6-2.3,5.2-5.2,5.5-8.3c0.4-4.7,0.4-10,1.1-13.7c1-5,7.3-11.7,7.3-11.7
		s25.7-28.3,35.4-37s9.5-2.2,13.9-1.7s8.6,0.2,11.6-2.4s3.9-8.5,2.6-12.3s-7-4.9-7-4.9c2,0,2.7-0.1,3.3,0
		c5.8,0.4,10.8,4.6,10.8,12.9c0,9.1-5.4,13.8-8.6,14.6s-13,0-13,0s-5.1-0.7-7.1,1.4s-1.7,1.7-3,3L58.2,92c-3.5,3.5-5.3,8.4-5,13.3
		v0.4c0.2,2.8,1.7,13.3-5.1,17.1c-0.9,0.5-5.6,2.8-12.3,1.5c-6.2-1.2-8.6-3.7-9-9.6c-0.1-1.2-0.1-8.9-2.7-11.4
		c-2.5-2.5-8.4-1.5-9.7-1.6c-5.8-0.4-9.3-2-10.5-8.2L4.1,93.1z"/>
</g>
</svg>
