<?xml version="1.0" encoding="utf-8"?>
<!-- Generator: Adobe Illustrator 26.3.1, SVG Export Plug-In . SVG Version: 6.00 Build 0)  -->
<svg version="1.1" id="Layer_1" xmlns="http://www.w3.org/2000/svg" xmlns:xlink="http://www.w3.org/1999/xlink" x="0px" y="0px"
	 viewBox="0 0 128 128" style="enable-background:new 0 0 128 128;" xml:space="preserve">
<g id="a">
	<g>
		<path style="fill:#BA8D68;" d="M49.97,60c-0.09,0.87-0.15,1.59-0.16,2.09c-0.08,4-0.8,11.04-0.75,11.35
			c0.11,0.64,1.32,1.86,1.63,5.32c0.1,1.09-0.06,2.34-0.24,2.51c-0.5,0.45-1.1-0.07-1.37-1.54c-0.16-0.88-0.67-1.21-0.87-0.67
			c-0.3,0.82-0.17,1.45,0.19,2.94c0.32,1.32,0.73,1.91,0.56,2.68c-0.09,0.4-0.74,1.11-1.07,0.4c-0.23-0.5-0.36-0.71-0.36-0.71
			s-0.33,0.38-1.04-0.21c-1.64-1.35-3.6-3.07-3.69-4.84c-0.14-2.68,0.8-4.8,0.87-5.78c0.07-0.98-0.6-5.6-0.36-9.49
			c0.07-1.11,0.65-3.99,0.79-5.91c0.05-0.64,0.13-1.35,0.24-2.09c2.56,2.07,3.93,2.94,5.64,3.96h-0.01L49.97,60z"/>
		<path style="fill:#BA8D68;" d="M77.51,46.08c0,0-2.03-2.13-4.65-0.96c-0.64,0.29,3.24,12.5,3.75,16.65
			c0.49,3.97,1.93,10.9,1.91,11.22c-0.04,0.65-1.12,1.99-1.08,5.46c0.01,1.09,0.3,2.32,0.5,2.47c0.54,0.39,1.09-0.19,1.21-1.68
			c0.07-0.9,0.54-1.27,0.79-0.76c0.39,0.78,0.32,1.43,0.11,2.95c-0.18,1.34-0.53,1.98-0.29,2.72c0.13,0.39,0.85,1.03,1.11,0.29
			c0.18-0.52,0.28-0.74,0.28-0.74s0.36,0.34,1.02-0.32c1.5-1.51,3.27-3.43,3.17-5.19c-0.14-2.68-1.28-4.7-1.46-5.66
			c-0.17-0.97,0.03-5.64-0.62-9.47c-0.18-1.1-1.05-3.91-1.39-5.8c-1.09-6.07-4.37-11.17-4.37-11.17L77.51,46.08L77.51,46.08z"/>
	</g>
	<g>
		<path style="fill:#99674F;" d="M44.14,56.93l-0.16,2.29c0,0,1.43,1.7,3.35,2.74c1.25,0.67,1.5,2.54,1.44,3.47s-0.6,7.13-0.44,7.73
			s1.31,1.46,1.58,2.23s-0.82-2.61-0.82-2.61s0.6-6.81,0.71-8.55s0.22-5.06,0.22-5.06l-5.88-2.23l0,0V56.93z"/>
		<path style="fill:#99674F;" d="M77.3,66.18c0,0-0.13-3.4,0.35-4.49c0.53-1.22,1.86-1.89,2.64-2.3s1.85-0.89,1.85-0.89l-0.59-2.89
			l-5.57,3.7c0,0,0.53,2.04,0.63,2.46S77.03,65.33,77.3,66.18L77.3,66.18L77.3,66.18z"/>
	</g>
	<g>
		<path style="fill:#824E3A;" d="M47.29,83.95c0,0-2.23-2.84-1.96-3.66c0.09-0.27,0.59-0.18,0.72,0.25
			C46.35,81.53,47.28,83.95,47.29,83.95L47.29,83.95L47.29,83.95z"/>
		<path style="fill:#824E3A;" d="M45.59,83.38c0,0-2.45-2.66-1.86-2.95c0.25-0.13,0.57,0.81,0.89,1.38S45.59,83.38,45.59,83.38z"/>
		<path style="fill:#824E3A;" d="M81.34,83.25c0,0,1.93-3.05,1.57-3.84c-0.12-0.26-0.61-0.12-0.69,0.32
			C82.02,80.75,81.34,83.25,81.34,83.25z"/>
		<path style="fill:#824E3A;" d="M82.97,82.51c0,0,2.17-2.89,1.54-3.13c-0.26-0.1-0.49,0.86-0.74,1.47S82.97,82.51,82.97,82.51z"/>
		<path style="fill:#824E3A;" d="M49.67,81.2c0-0.09-0.29-1.48-0.33-1.85s-0.24-1.29-0.78-1.17c-0.66,0.14-1,0.71-0.87,1.51
			c0.28,1.68,0.87,3.26,1.03,3.53s-0.51-2.15-0.56-2.98c-0.05-0.89,0.03-1.36,0.3-1.42c0.43-0.1,0.53,0.99,0.81,1.75
			c0.23,0.62,0.39,0.62,0.39,0.62L49.67,81.2L49.67,81.2z"/>
		<path style="fill:#824E3A;" d="M78.89,80.41c0,0,0.14-0.32,0.19-0.75s0.19-1.36,0.5-1.4s0.56,0.54,0.6,1.02s-0.16,2.54-0.41,3.48
			s-0.03,1.55,0.15,1.68c0.05-0.34,0.11-1.11,0.24-1.69c0.19-0.85,0.55-2.76,0.41-3.72s-0.54-1.5-1.24-1.28
			c-0.56,0.17-0.57,1.2-0.57,1.61s0.12,1.07,0.12,1.07L78.89,80.41L78.89,80.41z"/>
	</g>
	<path style="fill:#543930;" d="M70.45,7.61c0,0-0.21-3.53-6.01-3.65c-5.8-0.13-7.9,4.41-10.21,3.86C51.8,7.25,52.8,5.47,52.26,5.3
		s-2.27,0.92-2.31,2.73s0.29,2.02,0.29,2.02s-2.48,0.4-3.4,3.65c-1.18,4.16,1.26,6.05,1.26,6.05s-2.26,1.9-1,5.88
		c0.86,2.73,2.56,2.62,2.52,4.17s-1.22,1.58-1.18,2.26s0.72,1.24,1.55,1.64c1.24,0.6,2.23,0.17,2.23,0.17s0.77,1.42,2.69,1.89
		c3.87,0.94,5.86-0.84,5.86-0.84l1.33-1.29c0,0,3.48,2.14,7.38,2.22s5.34-1.06,5.34-1.27s-0.71-0.97-0.71-0.97s1.26,0.34,2.69-0.38
		s1.3-1.81,1.09-2.18s-1.91-0.51-1.72-2.18c0.29-2.6,2.76-2.46,2.73-6.85c-0.03-3.45-2.1-4.54-2.1-4.54s2.27-2.94-0.67-7.01
		c-2.59-3.59-5.67-2.86-5.67-2.86S70.45,7.61,70.45,7.61z"/>
	<path style="fill:#99674F;" d="M54.91,38.19l3.88-1.61c0,0,0.07-0.58,0.05-1.24c-0.05-1.54-0.04-3.07-0.04-3.07l8.4,0.04
		c0,0-0.01,0.93,0,2.63c0,0.44,0.06,1.12,0.05,1.53l3.88,0.88l-8.45,4.12l-7.77-3.3C54.91,38.17,54.91,38.19,54.91,38.19z"/>
	<g>
		<path style="fill:#335599;" d="M53.57,110c0,0,0.33,2.66-0.47,4.62c-0.71,1.76-2.69,3.73-3.05,6.37c-0.15,1.12,1.37,2.08,1.8,2.32
			c2.73,1.52,6.09,0.52,7.01-1.92c0.54-1.44,0.73-2.4,1.16-3.17s1.06-1.69,1.06-2.56s0.02-6.06,0.02-6.06l-7.55,0.39L53.57,110
			L53.57,110z"/>
		<path style="fill:#335599;" d="M74.82,109.74c0,0-0.33,2.66,0.47,4.62c0.71,1.76,2.69,3.73,3.05,6.37
			c0.15,1.12-1.37,2.08-1.8,2.32c-2.73,1.52-6.09,0.52-7.01-1.92c-0.54-1.44-0.73-2.4-1.16-3.17s-1.06-1.69-1.06-2.56
			s-0.02-6.06-0.02-6.06l7.55,0.39L74.82,109.74L74.82,109.74z"/>
	</g>
	<path style="fill:#7C7C7C;" d="M51.91,68.9c0,0-0.47,6.56-0.18,21.93c0.19,10.18,0.79,19.87,0.89,20.25s2.12,0.88,4.14,0.87
		c2.69-0.02,4.68-0.54,4.82-1.05s1.15-6.94,1.25-13.39c0.04-2.63,0.06-4.92,0.11-6.99c0.1-4.09,0.35-6.91,1.18-6.87
		c0.67,0.03,0.79,3.19,0.93,6.49c0.12,2.88,0.29,5.87,0.29,7.02c0,2.46,1.18,12.95,1.2,13.32s2.27,1.31,4.7,1.22
		s4.41-0.52,4.45-0.92s0.6-11.68,0.6-19.88s-0.48-22.61-0.48-22.61l-14.22-3.94L51.9,68.9H51.91L51.91,68.9z"/>
	<path style="fill:#686868;" d="M63.48,62.1l-11.6,7.34l-0.13,2.84c0,0,6.62,2.52,11.96,2.31c7.94-0.3,12.21-2.65,12.21-2.65
		l-0.09-3.2l-12.35-6.65l0,0L63.48,62.1z"/>
	<path style="fill:#F06E00;" d="M74.53,38.35c-2.14-1.33-7.25-2.02-7.25-2.02s-0.08,3.1-4.07,3.22c-3.56,0.11-4.47-3.09-4.47-3.09
		s-4.31,0.73-7.46,2.25c-2.63,1.27-3.54,3.31-4.81,7.03c-1.26,3.73-4.07,9.67-3.8,10.13c0.38,0.65,1.21,1.27,2.86,2.53
		s3.3,1.89,3.3,1.89l1.89-1.14l1.14,2.15c0,0,0.06,1.86,0,2.68c-0.06,0.82-0.41,5.35,0.09,5.66s5.55,2.94,12.12,2.69
		s11.47-2.36,11.75-3.22c0.19-0.6-0.06-4.69-0.09-5.67c-0.06-1.9-0.19-3.15-0.19-3.15l1.14-2.97l1.83,1.52c0,0,1.29-0.65,3-1.91
		s2.56-2.01,2.56-2.57s-3.38-6.78-5.14-9.58c-1.71-2.72-2.12-5.02-4.39-6.42h-0.01V38.35z"/>
	<g>
		<path style="fill:#DA4C00;" d="M75.54,60.29c0,0-0.26-4.08-0.3-5.7s-0.7-5.76,0.33-6.13c1.23-0.44,1.63,3.24,1.86,4.91
			s1.08,5.47,1.08,5.47s-0.75,0.44-1.5,0.81c-0.68,0.33-1.47,0.65-1.47,0.65l0,0V60.29z"/>
		<path style="fill:#DA4C00;" d="M48.83,60.29c0,0,0.61-3.42,0.83-5.57s0.48-5.17,0.82-5.74s1.19-0.53,1.34,0.35s0,6.74,0,7.93
			s0.08,4.21,0.08,4.21s-0.62-0.24-1.43-0.52c-1.03-0.35-1.63-0.66-1.63-0.66S48.83,60.29,48.83,60.29z"/>
	</g>
	<g>
		<path style="fill:#99674F;" d="M50.47,21.76c0,0-2.35,0.37-1.78,3.55c0.68,3.76,4.25,2.79,4.25,2.79l-1.73-2.16
			c0,0-0.37-1.1-0.53-2.26S50.46,21.76,50.47,21.76L50.47,21.76L50.47,21.76z"/>
		<path style="fill:#99674F;" d="M74.85,22.03c0.4-0.17,2.17,0.16,1.97,2.88c-0.25,3.44-2.54,3.51-3.1,3.51s-1.85-1.55-1.85-1.55
			s2.4-0.84,2.62-1.43S74.85,22.03,74.85,22.03z"/>
	</g>
	<path style="fill:#BA8D68;" d="M52.64,18.26c-0.37,0.4-0.29,7.1-0.72,7.56c-0.37,0.4-0.74-0.03-0.74-0.03s1.71,9.98,11.72,9.98
		c4.45,0,6.99-1.75,8.69-3.81c2.52-3.06,2.91-6.52,2.91-6.52s-0.14,0.41-0.51,0.36c-0.22-0.03-0.45-0.05-0.54-0.62
		c-0.11-0.66-0.5-7.15-2.09-8.65c-1.78-1.67-3.24-1.36-3.24-1.36s-0.65-1.73-3.39-2.16c-2.16-0.34-3.85,1.21-7.32,3.32
		c-2.01,1.22-4.77,1.92-4.77,1.92l0,0L52.64,18.26z"/>
	<path style="fill:#99674F;" d="M62.84,26.13c-1.07,0.02-1.47-0.34-1.85,0.04c-0.35,0.35-0.04,0.85,0.54,1.3
		c0.78,0.61,1.99,0.59,2.62,0.03s0.89-1.03,0.49-1.37S63.93,26.11,62.84,26.13z"/>
	<g>
		<path style="fill:#613E31;" d="M54.23,19.51c0.28,0.45,1.22-0.26,2.71-0.3c1.22-0.03,2.29,0.84,2.54,0.04
			c0.3-0.94-0.71-1.35-2.52-1.26s-3.11,0.92-2.74,1.52C54.22,19.51,54.23,19.51,54.23,19.51z"/>
		<path style="fill:#613E31;" d="M66,19.46c0.62,0.17,1.09-0.28,2.35-0.19c1.18,0.08,2.33,0.6,2.67,0.21s-0.54-1.31-2.48-1.5
			c-1.75-0.17-2.82,0.3-2.95,0.68s0.15,0.72,0.41,0.79l0,0V19.46z"/>
	</g>
	<g>
		<path style="fill:#49352E;" d="M56.92,20.79c-1.43-0.02-1.99,1.22-1.9,2.09s0.75,1.71,2.01,1.69s1.86-0.81,1.86-1.86
			S58.25,20.81,56.92,20.79z"/>
		<path style="fill:#49352E;" d="M68.39,20.75c-1.07-0.11-2.05,0.64-2.01,1.92c0.05,1.43,1.3,1.88,1.99,1.88
			c0.98,0,1.78-0.73,1.79-1.77C70.18,21.6,69.58,20.88,68.39,20.75z"/>
	</g>
</g>
<g id="b">
	<path style="fill:#49352E;" d="M62.92,29.61c-1.58,0-3.09-0.59-3.37,0.03c-0.42,0.92,1.15,1.97,3.43,1.97
		c2.92,0,3.88-1.47,3.51-1.99s-1.74,0-3.57,0V29.61z"/>
</g>
</svg>
