<?xml version="1.0" encoding="utf-8"?>
<!-- Generator: Adobe Illustrator 26.3.1, SVG Export Plug-In . SVG Version: 6.00 Build 0)  -->
<svg version="1.1" id="Layer_1" xmlns="http://www.w3.org/2000/svg" xmlns:xlink="http://www.w3.org/1999/xlink" x="0px" y="0px"
	 viewBox="0 0 128 128" style="enable-background:new 0 0 128 128;" xml:space="preserve">
<g id="a">
	<g>
		<path style="fill:#875334;" d="M72.97,28.65c0,0,3.21,0.03,3.82-3.25c0.65-3.46-1.85-4.03-1.85-4.03l-1.98,7.29h0.01V28.65z"/>
		<path style="fill:#875334;" d="M51.24,21.96c0,0-3.18-0.42-2.17,3.54c0.87,3.44,4.15,3.15,4.15,3.15l-1.98-6.68l0,0V21.96z"/>
	</g>
	<g>
		<path style="fill:#A56C43;" d="M49.92,59.83c-0.1,0.88-0.15,1.6-0.16,2.1c-0.08,4.01-0.81,11.08-0.75,11.4
			c0.11,0.64,1.32,1.87,1.64,5.34c0.1,1.09-0.06,2.35-0.25,2.52c-0.5,0.45-1.11-0.07-1.38-1.55c-0.16-0.89-0.67-1.21-0.87-0.68
			c-0.31,0.82-0.17,1.46,0.19,2.95c0.32,1.32,0.73,1.92,0.57,2.69c-0.09,0.4-0.75,1.12-1.08,0.4c-0.23-0.5-0.36-0.71-0.36-0.71
			s-0.33,0.38-1.05-0.21c-1.65-1.35-3.61-3.08-3.7-4.86c-0.14-2.69,0.8-4.82,0.87-5.81c0.07-0.98-0.61-5.62-0.36-9.52
			c0.07-1.12,0.65-4.01,0.79-5.94c0.05-0.64,0.13-1.35,0.24-2.1C46.83,57.93,48.21,58.8,49.92,59.83z"/>
		<path style="fill:#A56C43;" d="M77.56,45.85c0,0-2.04-2.14-4.67-0.97c-0.64,0.29,3.25,12.55,3.76,16.72s1.94,10.94,1.92,11.26
			c-0.04,0.65-1.12,1.99-1.08,5.48c0.01,1.1,0.3,2.33,0.5,2.48c0.54,0.4,1.09-0.19,1.21-1.68c0.07-0.9,0.54-1.27,0.79-0.76
			c0.39,0.79,0.32,1.43,0.11,2.96c-0.18,1.35-0.53,1.99-0.29,2.73c0.13,0.39,0.86,1.03,1.11,0.29c0.18-0.52,0.29-0.74,0.29-0.74
			s0.36,0.34,1.02-0.32c1.5-1.52,3.28-3.44,3.19-5.21c-0.14-2.69-1.29-4.71-1.46-5.69c-0.17-0.97,0.03-5.66-0.62-9.51
			c-0.19-1.1-1.06-3.92-1.4-5.82c-1.09-6.1-4.39-11.21-4.39-11.21h0.01V45.85z"/>
	</g>
	<g>
		<path style="fill:#875334;" d="M44.07,56.75l-0.16,2.3c0,0,1.44,1.71,3.36,2.75c1.25,0.68,1.5,2.55,1.45,3.48s-0.6,7.16-0.44,7.76
			s1.32,1.47,1.59,2.23s-0.82-2.62-0.82-2.62s0.6-6.83,0.71-8.58s0.22-5.08,0.22-5.08l-5.9-2.24
			C44.08,56.75,44.07,56.75,44.07,56.75z"/>
		<path style="fill:#875334;" d="M77.35,66.02c0,0-0.13-3.41,0.35-4.51c0.53-1.23,1.87-1.89,2.65-2.31s1.86-0.9,1.86-0.9l-0.59-2.9
			l-5.59,3.72c0,0,0.53,2.05,0.63,2.47s0.42,3.57,0.7,4.42l0,0L77.35,66.02z"/>
	</g>
	<g>
		<path style="fill:#63351E;" d="M47.23,83.86c0,0-2.24-2.85-1.97-3.67c0.09-0.27,0.59-0.19,0.73,0.25
			C46.29,81.43,47.23,83.86,47.23,83.86z"/>
		<path style="fill:#63351E;" d="M45.52,83.29c0,0-2.46-2.67-1.86-2.96c0.25-0.13,0.58,0.81,0.89,1.39s0.97,1.58,0.97,1.58l0,0
			V83.29z"/>
		<path style="fill:#63351E;" d="M81.41,83.16c0,0,1.94-3.06,1.58-3.86c-0.12-0.26-0.61-0.12-0.7,0.33
			C82.09,80.65,81.41,83.16,81.41,83.16z"/>
		<path style="fill:#63351E;" d="M83.04,82.42c0,0,2.18-2.9,1.55-3.14c-0.26-0.1-0.49,0.86-0.75,1.47S83.04,82.42,83.04,82.42z"/>
		<path style="fill:#63351E;" d="M49.61,81.1c0-0.09-0.29-1.49-0.33-1.85s-0.24-1.29-0.78-1.17c-0.66,0.15-1,0.71-0.87,1.51
			c0.28,1.69,0.88,3.28,1.04,3.55s-0.51-2.16-0.56-2.99c-0.05-0.89,0.03-1.37,0.3-1.42c0.43-0.1,0.53,0.99,0.82,1.76
			c0.23,0.63,0.39,0.62,0.39,0.62l0,0L49.61,81.1z"/>
		<path style="fill:#63351E;" d="M78.95,80.31c0,0,0.14-0.32,0.2-0.76s0.19-1.37,0.5-1.4s0.56,0.54,0.61,1.02s-0.16,2.55-0.41,3.49
			s-0.03,1.55,0.15,1.68c0.05-0.34,0.11-1.11,0.24-1.7c0.19-0.85,0.56-2.78,0.41-3.74s-0.54-1.5-1.24-1.29
			c-0.57,0.17-0.57,1.21-0.57,1.62s0.12,1.07,0.12,1.07h-0.01V80.31z"/>
	</g>
	<path style="fill:#3C2C23;" d="M62.24,28.22l-10.85-3.87c0,0-2.25-7.45-0.04-13.08c1.76-4.47,5.69-7.25,11.2-7.38
		c5.88-0.13,9.98,2.37,11.88,6.94c2.3,5.52-0.11,13.43-0.11,13.43S62.24,28.22,62.24,28.22z"/>
	<path style="fill:#875334;" d="M54.88,37.79l3.9-1.61c0,0,0.07-0.58,0.05-1.24c-0.05-1.55-0.04-3.08-0.04-3.08l8.44,0.04
		c0,0-0.01,0.93,0,2.64c0,0.45,0.06,1.12,0.05,1.54l3.89,0.89l-8.48,4.14l-7.8-3.31L54.88,37.79L54.88,37.79z"/>
	<g>
		<path style="fill:#335599;" d="M53.53,110.02c0,0,0.33,2.67-0.47,4.64c-0.72,1.77-2.7,3.74-3.06,6.4
			c-0.15,1.12,1.37,2.09,1.81,2.33c2.74,1.53,6.12,0.52,7.04-1.93c0.55-1.45,0.73-2.41,1.17-3.18s1.07-1.69,1.07-2.57
			s0.02-6.08,0.02-6.08L53.53,110.02z"/>
		<path style="fill:#335599;" d="M74.86,109.75c0,0-0.33,2.67,0.47,4.64c0.72,1.77,2.7,3.74,3.06,6.4c0.15,1.12-1.37,2.09-1.81,2.33
			c-2.74,1.53-6.12,0.52-7.04-1.93c-0.55-1.45-0.73-2.41-1.17-3.18s-1.07-1.69-1.07-2.57s-0.02-6.08-0.02-6.08
			S74.86,109.75,74.86,109.75z"/>
	</g>
	<path style="fill:#7C7C7C;" d="M51.86,68.76c0,0-0.48,6.59-0.18,22.01c0.19,10.21,0.8,19.95,0.9,20.33s2.13,0.89,4.16,0.87
		c2.7-0.02,4.69-0.54,4.83-1.06s1.16-6.96,1.25-13.44c0.04-2.64,0.06-4.94,0.11-7.02c0.11-4.11,0.35-6.93,1.19-6.89
		c0.68,0.03,0.8,3.2,0.93,6.52c0.12,2.89,0.29,5.9,0.29,7.05c0,2.47,1.19,13,1.21,13.37s2.27,1.31,4.72,1.22s4.43-0.53,4.47-0.92
		s0.61-11.73,0.61-19.96s-0.48-22.69-0.48-22.69L61.59,64.2l-9.72,4.57h-0.01L51.86,68.76z"/>
	<path style="fill:#686868;" d="M63.48,61.93L51.84,69.3l-0.13,2.85c0,0,6.64,2.53,12,2.32c7.97-0.3,12.25-2.66,12.25-2.66
		l-0.09-3.21L63.48,61.93L63.48,61.93L63.48,61.93z"/>
	<path style="fill:#00BDA3;" d="M74.57,38.09c-2.15-1.33-7.28-2.03-7.28-2.03s-0.08,3.11-4.09,3.23c-3.58,0.11-4.49-3.1-4.49-3.1
		s-4.33,0.74-7.48,2.26c-2.64,1.27-3.56,3.32-4.83,7.06c-1.27,3.74-4.09,9.7-3.81,10.17c0.38,0.65,1.22,1.27,2.87,2.54
		s3.31,1.89,3.31,1.89l1.9-1.14l1.14,2.16c0,0,0.06,1.87,0,2.69s-0.41,5.37,0.09,5.68s5.58,2.95,12.17,2.7
		c6.59-0.25,11.52-2.37,11.79-3.23c0.19-0.6-0.06-4.7-0.09-5.69c-0.06-1.91-0.19-3.16-0.19-3.16l1.14-2.98l1.84,1.52
		c0,0,1.3-0.65,3.01-1.92s2.57-2.01,2.57-2.58s-3.39-6.8-5.16-9.61S76.85,39.51,74.57,38.09L74.57,38.09L74.57,38.09z"/>
	<g>
		<path style="fill:#06927F;" d="M75.58,60.12c0,0-0.26-4.1-0.3-5.72s-0.7-5.78,0.34-6.16c1.23-0.44,1.64,3.25,1.86,4.92
			s1.08,5.49,1.08,5.49s-0.75,0.44-1.51,0.81c-0.68,0.33-1.48,0.65-1.48,0.65h0.01L75.58,60.12z"/>
		<path style="fill:#06927F;" d="M48.77,60.12c0,0,0.61-3.44,0.83-5.59s0.48-5.19,0.82-5.76s1.19-0.53,1.34,0.35s0,6.77,0,7.96
			s0.08,4.22,0.08,4.22s-0.63-0.25-1.43-0.52c-1.03-0.35-1.64-0.67-1.64-0.67l0,0L48.77,60.12z"/>
	</g>
	<path style="fill:#A56C43;" d="M53.87,15.03c-0.52,0.33-0.48,4.78-0.78,6.69c-0.31,2.02-1.71,2.59-1.71,2.59s0.75,2.96,1.92,5.21
		c1.61,3.1,4.83,6.26,9.8,6.27c4.13,0,6.51-2.19,8.09-4.09c2.34-2.82,3.14-7.43,3.14-7.43s-0.82-0.65-1.4-2.54
		c-0.68-2.21-0.56-6.51-1.16-6.91s-3.85-0.15-9.27-0.07c-4.29,0.06-8.12-0.04-8.64,0.29h0.01L53.87,15.03z"/>
	<path style="fill:#875334;" d="M63.12,25.88c-1.07,0.02-1.48-0.34-1.86,0.04c-0.35,0.35-0.04,0.86,0.54,1.31
		c0.79,0.61,2.01,0.59,2.64,0.03s0.9-1.03,0.49-1.38S64.21,25.86,63.12,25.88z"/>
	<g>
		<path style="fill:#3C2C23;" d="M54.45,19.21c0.28,0.45,1.23-0.26,2.73-0.3c1.23-0.04,2.31,0.84,2.56,0.04
			c0.3-0.95-0.71-1.35-2.54-1.27S54.07,18.6,54.45,19.21z"/>
		<path style="fill:#3C2C23;" d="M66.3,19.16c0.62,0.17,1.1-0.28,2.37-0.19c1.19,0.08,2.34,0.6,2.69,0.22s-0.54-1.31-2.49-1.51
			c-1.76-0.17-2.84,0.3-2.97,0.69s0.15,0.73,0.41,0.8L66.3,19.16L66.3,19.16z"/>
	</g>
	<g>
		<path style="fill:#42312C;" d="M57.16,20.5c-1.44-0.02-2,1.23-1.91,2.11s0.75,1.72,2.02,1.7c1.21-0.02,1.87-0.82,1.87-1.87
			S58.49,20.52,57.16,20.5z"/>
		<path style="fill:#42312C;" d="M68.7,20.46c-1.07-0.12-2.06,0.65-2.02,1.94c0.05,1.44,1.31,1.89,2,1.89
			c0.99,0,1.79-0.73,1.81-1.79C70.51,21.32,69.91,20.59,68.7,20.46z"/>
	</g>
</g>
<g id="b">
	<path style="fill:#473530;" d="M63.13,29.24c-1.58,0-3.09-0.59-3.37,0.03c-0.42,0.92,1.15,1.97,3.43,1.97
		c2.92,0,3.88-1.47,3.51-1.99s-1.74,0-3.57,0L63.13,29.24z"/>
</g>
</svg>
