<?xml version="1.0" encoding="utf-8"?>
<!-- Generator: Adobe Illustrator 26.3.1, SVG Export Plug-In . SVG Version: 6.00 Build 0)  -->
<svg version="1.1" id="a" xmlns="http://www.w3.org/2000/svg" xmlns:xlink="http://www.w3.org/1999/xlink" x="0px" y="0px"
	 viewBox="0 0 128 128" style="enable-background:new 0 0 128 128;" xml:space="preserve">
<path style="fill:#677584;" d="M56.12,110.03l-10.29-7.75c0,0-0.74,1.23-1.48,2.41s-1.31,2.71-2.11,3.19
	c-1.59,0.96-5.42,1.99-9.97,7.34c-2.43,2.86-3.43,7.89-0.88,8.29s27.43-0.48,27.43-0.48l6.7-4.78l18.66,4.78c0,0,28.31,0.4,29.51,0
	s2.28-5.81-4.63-11.56c-3.83-3.19-6.46-2.95-8.21-4.55c-1.9-1.73-1.91-3.43-3.99-5.74c-1.95-2.17-4.81-2.94-4.81-2.94L56.12,110.03
	L56.12,110.03z"/>
<path style="fill:#47515C;" d="M33.17,54.19L22.24,67.76c0,0,0.11,2.41,0.48,4c0.3,1.3,9.22,8.73,18.61,8.82
	c14.45,0.14,62.57-5.6,62.57-5.6s6.31-1.6,12.38-7.74c4.49-4.55,4.71-7.76,4.71-7.76l-7.92-14.2L61.3,37.36L33.15,54.2L33.17,54.19z
	"/>
<path style="fill:#B0B0B0;" d="M67.35,38.8c0,0-27.8,2.62-29.83,9.78c-1.53,5.43-1.02,9.49-0.35,11.9c0.46,1.65,0.99,2.53,0.99,2.53
	s-6.19,4.44-1.76,12.48c4.05,7.34,5.92,5.92,5.82,9.33s-3.42,3.79-3.33,5.27s1.28,2.59,3.42,3.6c2.73,1.29,4.9,0.37,4.9,0.37
	s1.65,3.31,5.92,4.16c5.55,1.11,8.96-1.66,8.96-1.66l9.06-4.9c0,0,7.21,6.38,15.8,6.56c8.6,0.18,9.98-2.13,9.98-2.59
	s-1.57-2.13-1.57-2.13s2.77,0.74,5.92-0.83c3.14-1.57,2.87-3.97,2.4-4.81s-4.2-1.13-3.79-4.81c0.65-5.73,6.56-7.49,6.01-15.06
	s-4.71-9.08-4.71-9.08s4.26-7.52-2.2-16.49c-10.21-4.15-31.64-3.64-31.64-3.64V38.8z"/>
<path style="fill:#737373;" d="M102.35,92.02c-0.3,0.23-0.65,0.45-1.07,0.65c-3.14,1.57-5.92,0.83-5.92,0.83s1.57,1.66,1.57,2.13
	s-1.39,2.77-9.98,2.59c-8.6-0.18-15.8-6.56-15.8-6.56l-9.06,4.9c0,0-3.42,2.77-8.96,1.66c-4.27-0.85-5.92-4.16-5.92-4.16
	s-2.93,0.99-5.74-0.75c0,0,4.37-1.9,5.44-5.19c1.07-3.3,0.66-8.49,0.66-8.49l45.6,0.99c0,0-1.24,4.53,2.14,7.42s7.03,3.98,7.03,3.98
	H102.35z"/>
<path style="fill:#9FA4AA;" d="M63.21,97.59c0,0-6.14-1.59-10.93,0.16c-5.83,2.14-6.46,3.99-6.62,4.63s2.07,5.9,4.47,10.21
	c1.92,3.46,7.1,10.53,7.1,10.53l26.95-0.08c0,0,5.18-6.46,7.5-11.16c2.31-4.71,3.43-9.41,2.71-12.52s-12.6-3.51-15.47-2.15
	s-15.71,0.4-15.71,0.4V97.59z"/>
<path style="fill:#886456;" d="M73.42,100.3l-13.24-0.56c0,0-1.44,1.2-1.04,4.47s3.35,8.37,5.34,11.88s4.94,7.02,4.94,7.02
	l2.87-0.08c0,0,3.27-3.91,5.58-8.45c2.31-4.55,4.25-9.41,4.31-11.16c0.08-2.63-2.23-3.83-2.23-3.83l-6.54,0.72L73.42,100.3z"/>
<path style="fill:#F0A007;" d="M60.26,100.89c0.15,1.02,8.21,10.18,10.42,10.11s10.11-8.84,10.11-9.79s-0.24-6.24-0.24-6.24
	l-20.13-0.16C60.42,94.81,60.18,100.34,60.26,100.89z"/>
<path style="fill:#9A9A9A;" d="M101.19,58.92c0,0,4.26-7.52-2.2-16.49c-10.21-4.15-31.64-3.64-31.64-3.64s-27.8,2.62-29.83,9.78
	c-1.53,5.43-1.02,9.49-0.35,11.9c0.46,1.65,0.99,2.53,0.99,2.53s5.69-6.11,24.47-7.12s38.57,3.04,38.57,3.04L101.19,58.92z"/>
<path style="fill:#858585;" d="M90.54,56.13l0.08,8.16l1.32,13.52l6.6-1.9c0,0-1.55-6.72-1.82-8.81c-0.7-5.49-0.7-7.47-2.51-12.09
	c-1.13-2.87-3.67,1.11-3.67,1.11V56.13z"/>
<path style="fill:#858585;" d="M45.19,57.12c0,0-0.58,3.96-0.58,7.17c0,3.21,0.68,7.54,0.68,7.54l0.73,5.57l4.7-0.58L49.73,57.2
	L45.19,57.12L45.19,57.12z"/>
<path style="fill:#737373;" d="M83.37,47.22c0,0-1.98-6.1-11.05-5.61c-8.24,0.45-14.68,10.14-18.55,11.87
	c-3.88,1.73-9.94,1.33-10.31,2.72c-0.49,1.9,5.16,2.85,5.16,2.85l23.79,1.77l19.95-2.97c0,0,0.63,0.62,1.57,0.49
	c2.03-0.26,0.31-5.43-3.69-9.03c-3.3-2.97-6.87-2.11-6.87-2.11L83.37,47.22z"/>
<g>
	<path style="fill:#F5A813;" d="M44.79,67.24c0,0-5.16-0.1-3.75,8.06c1.46,8.41,9.05,6.29,9.05,6.29l-3.68-4.94
		c0,0-0.78-2.33-1.13-4.81c-0.35-2.47-0.49-4.59-0.49-4.59L44.79,67.24z"/>
	<path style="fill:#F5A813;" d="M96.72,67.1c0.85-0.35,4.81,2.26,4.18,7.35c-0.84,6.8-5.26,8.14-6.46,8.14s-4.07-3.97-4.07-3.97
		s4.73-2.05,5.58-3.04S96.72,67.1,96.72,67.1z"/>
</g>
<path style="fill:#FFCA26;" d="M48.61,59.06c-0.78,0.85-0.36,7.26-0.29,9.81c0.07,2.54,0.3,6.81-0.49,7.35
	c-1.06,0.71-1.62-0.17-1.62-0.17s3.32,22.2,25.03,22.2c22.72,0,24.94-23.06,24.94-23.06s-0.41,1-1.15,0.76
	c-0.38-0.12-0.78-0.22-0.98-1.21c-0.28-1.41,0.62-15.87-4.31-21.75c-3.7-4.4-7.13-2.64-7.13-2.64s-2.47-5.08-8.45-4.76
	c-8.1,0.44-9.33,5.02-16.73,9.51c-4.29,2.6-8.81,3.96-8.81,3.96L48.61,59.06z"/>
<path style="fill:#E59700;" d="M71.05,76.97c-2.39,0.05-3.28-0.76-4.13,0.1c-0.77,0.79-0.08,1.91,1.2,2.9
	c1.75,1.36,4.45,1.31,5.86,0.06s1.99-2.29,1.09-3.06c-0.9-0.76-1.59-0.05-4.03,0H71.05z"/>
<path style="fill:#785446;" d="M71.1,84.66c-3.44,0-6.69-1.26-7.47,0.05c-0.75,1.26,1.85,4.21,7.47,4.25
	c6.35,0.04,8.41-3.25,7.59-4.44S75.06,84.66,71.1,84.66z"/>
<g>
	<path style="fill:#737373;" d="M52.01,62.55c0.62,1,2.72-0.57,6.07-0.67c2.74-0.08,5.12,1.87,5.68,0.1
		c0.67-2.1-1.58-3.01-5.64-2.82S51.17,61.21,52.01,62.55z"/>
	<path style="fill:#737373;" d="M78.33,62.43c1.39,0.38,2.44-0.62,5.25-0.43c2.63,0.18,5.21,1.34,5.97,0.48s-1.2-2.92-5.54-3.34
		c-3.92-0.38-6.31,0.67-6.59,1.53S77.76,62.28,78.33,62.43L78.33,62.43z"/>
</g>
<g>
	<path style="fill:#3F4040;" d="M58.03,65.42c-3.2-0.05-4.44,2.72-4.25,4.68s1.67,3.82,4.49,3.77s4.16-1.82,4.16-4.16
		s-1.43-4.25-4.39-4.3L58.03,65.42z"/>
	<path style="fill:#3F4040;" d="M83.67,65.32c-2.39-0.26-4.59,1.43-4.49,4.3c0.11,3.2,2.91,4.2,4.44,4.2c2.2,0,3.97-1.62,4.01-3.96
		C87.68,67.23,86.34,65.61,83.67,65.32z"/>
</g>
<path style="fill:#F0A007;" d="M92.2,57.8c-0.59-1.86-1.39-3.55-2.46-4.82c-3.7-4.4-7.13-2.64-7.13-2.64s-2.47-5.08-8.45-4.76
	c-8.1,0.44-10.4,5.62-17.79,10.11c-0.86,0.52-4.79,2.27-7.66,3.29c7.56-1.61,32.19-4.76,43.5-1.18L92.2,57.8z"/>
<path style="fill:#98A8BE;" d="M94.87,7.7c-0.41-3.12-5.17-5.4-14.2-3.14C72.13,6.7,57.55,17,51.27,25.54s-8.04,14.45-8.04,14.45
	l51.64-6.53c0,0-3.64-6.16-3.14-12.82C92.24,13.83,95.25,10.59,94.87,7.7z"/>
<path style="fill:#7D8A9D;" d="M54.66,35.22L33.05,46.53L20.74,60.48c0,0-0.43,2.39-0.04,5.67c0.34,2.89,2.05,5.64,2.05,5.64
	s10.4-26.45,48.75-29.03c35.56-2.39,49.51,16.71,49.51,16.71s1.32-3.59-0.5-8.04c-1.65-4.03-4.02-6.28-4.02-6.28L97.14,35.6
	L54.66,35.22L54.66,35.22z"/>
<path style="fill:#C5CFDD;" d="M20.73,60.48c0,0,5.65-27.52,49.89-30.28c33.04-2.07,45.86,14.95,45.86,14.95s-23.62-11.81-47.62-9.3
	c-10.31,1.08-20.39,3.87-28.52,8.54c-11.77,6.76-19.6,16.08-19.6,16.08L20.73,60.48z"/>
<g>
	<path style="fill:#875841;" d="M33.06,99.34l-20.49,3.18c0,0,2,5.02,2.61,5.55c1.31,1.14,11.59,3.26,12.24,3.59
		s5.52,11.94,5.52,11.94s2.37,0.72,4.6,0.72s1.25-11.15,1.25-11.15l-2.14-5.02c0,0,3.75-8.65,3.75-9.22s-2.04-4.9-2.04-4.9
		l-5.31,5.31H33.06z"/>
	<path style="fill:#B18466;" d="M19.68,79.67l0.33-3.75c0,0-1.07-2.64-1.65-2.76C17.29,72.94,6.55,87.92,6.55,88.73
		s6.04,13.79,6.04,13.79s17.47,5.47,18.85,4.98c1.38-0.49,6.94-13.47,6.94-13.47s-3.05-7.97-3.61-6.23s-9.62,2.23-9.62,2.23
		l-5.47-10.37L19.68,79.67z"/>
	<path style="fill:#BF4A10;" d="M22.29,80.65L20,75.92c0,0-9.79,12-9.79,13.55c0,1.31,4.73,11.26,5.14,11.51
		c0.75,0.45,7.18-1.39,7.18-1.39L22.29,80.65"/>
	
		<radialGradient id="SVGID_1_" cx="23.87" cy="39.29" r="10.72" gradientTransform="matrix(1 0 0 -1 0 130)" gradientUnits="userSpaceOnUse">
		<stop  offset="0.1" style="stop-color:#FFC39D"/>
		<stop  offset="0.33" style="stop-color:#FEC09A"/>
		<stop  offset="0.5" style="stop-color:#FEB790"/>
		<stop  offset="0.66" style="stop-color:#FEA880"/>
		<stop  offset="0.79" style="stop-color:#FE936A"/>
		<stop  offset="0.92" style="stop-color:#FE784E"/>
		<stop  offset="0.93" style="stop-color:#FE764C"/>
	</radialGradient>
	<path style="fill:url(#SVGID_1_);" d="M34.76,87.8l-5.21,12.64c0,0-5.08,3.45-11.4-0.72c-3.87-2.55-6.26-8.21-3.32-14.08
		c2.82-5.64,9.74-6.58,14.4-4.43c5.08,2.35,5.54,6.58,5.54,6.58L34.76,87.8z"/>
	<path style="fill:#FFFFFF;" d="M21.13,87.47c1.27-1.49,2.21-1.49,4.09-1.44c1.88,0.06,2.54-2.65,0.61-3.48s-5.79-0.88-8.12,2.27
		c-2.54,3.43-2.17,6.13-1.88,7.13c0.77,2.65,3.48,1.6,3.76,0.39S19.54,89.35,21.13,87.47L21.13,87.47z"/>
	<path style="fill:#B08467;" d="M34.09,115.35l4.71-2.17l4.86,10.31c0,0-1.07,0.57-3.43,0.77c-1.99,0.17-2.7,0.05-2.7,0.05
		L34.09,115.35z"/>
</g>
</svg>
