<?xml version="1.0" encoding="utf-8"?>
<!-- Generator: Adobe Illustrator 26.3.1, SVG Export Plug-In . SVG Version: 6.00 Build 0)  -->
<svg version="1.1" id="a" xmlns="http://www.w3.org/2000/svg" xmlns:xlink="http://www.w3.org/1999/xlink" x="0px" y="0px"
	 viewBox="0 0 128 128" style="enable-background:new 0 0 128 128;" xml:space="preserve">
<path style="fill:#3C2C23;" d="M55.03,21.03c-24.86,2-30.06,24.84-30.06,24.84s-8.6,9.66-5.04,22.14c2.02,7.07,5.5,7.08,5.4,10.8
	s-5.32,3.25-5.22,4.86s2.51,2.82,4.5,3.78c2.95,1.42,5.76,1.08,5.76,1.08s2.4,2.31,7.02,3.24c6,1.21,29.1,0.65,38.41,0.85
	c9.3,0.2,11.81-1.97,11.81-2.47s-0.9-3.06-0.9-3.06s2.54,0.45,5.94-1.26s5.54-6.47,5.04-7.38s-2.91-1.93-2.52-5.94
	c0.45-4.71,2.02-7.55,1.8-12.42c-0.37-8.26-6.3-16.2-6.3-16.2s1.24-5.73-5.76-15.48C78.74,19.82,68.8,19.93,55.03,21.03z"/>
<path style="fill:#875334;" d="M46.19,89.86l-0.24,7.77c0,0-0.85,8.28,12.62,8.28s12.87-7.67,12.87-7.67l-0.24-9.41l-25,1.02
	L46.19,89.86z"/>
<path style="fill:#DFDFDF;" d="M46.74,93.49l-4.83,0.11c0,0,0.4,5.29-0.22,6s-18.16,3.94-24.09,9.74
	c-4.72,4.62-7.44,12.58-6.73,14.08c0.42,0.89,24.69,0.59,48.44,0.43c23.99-0.17,45.3-1.1,45.34-1.58
	c0.09-0.97-2.64-11.36-12.71-16.63c-7.44-3.9-16.95-6.16-16.95-6.16l-0.24-6.01l-6.59,1.62l-6.38,6.46v2.39l-7.79-0.35l-2.92-7.08
	l-4.34-3.01L46.74,93.49z"/>
<path style="fill:#B0B0B0;" d="M97.66,109.68c0,0,1,1.11,1.27,1.42s0.84,1,0.84,1l-5.6,10.85L90,123.37l7.66-13.7V109.68z"/>
<g>
	<path style="fill:#875334;" d="M27.7,58.07c-0.45-0.26-5.77,1.49-4.35,9.35c0.61,3.38,2.84,5.53,5.09,6.42
		c2.7,1.06,5.42,0.48,5.42,0.48l-4.23-5.74c0,0-0.9-2.89-1.32-5.76C27.9,59.95,28.15,58.33,27.7,58.07z"/>
	<path style="fill:#875334;" d="M88.41,58.34c0.98-0.41,5.69,2.32,4.62,8.97s-6,7.51-7.39,7.51s-4.76-3.04-4.76-3.04
		s5.23-2.77,6.21-3.92S88.41,58.34,88.41,58.34z"/>
</g>
<path style="fill:#F2A25B;" d="M83.45,123.44l17.32-32.09c0,0-5.96-5.84-0.11-16.72c5-9.29,13.32-9.76,18.11-6.62
	c4.98,3.26,5.33,11.88,2.02,17.88c-5.57,10.12-14.33,8.3-14.33,8.3l-15.27,29c0,0-1.24,0.76-4.02,0.68
	c-2.39-0.07-3.72-0.44-3.72-0.44L83.45,123.44z"/>
<path style="fill:#D27857;" d="M104.56,89.99c4.95,2.83,11.23-2.12,13.58-7.77c2.36-5.65,1.18-10.28-2.12-12.09
	s-9.11-0.71-12.72,6.83C100.28,83.26,101.63,88.32,104.56,89.99z"/>
<path style="fill:#FFB775;" d="M106.6,87.87c4.26,1.75,7.69-2.55,9.26-5.34c1.73-3.06,2.83-8.79-0.86-10.83
	c-3.28-1.81-7.77,1.65-9.73,6.04C103.48,81.75,103.54,86.61,106.6,87.87z"/>
<path style="fill:#B0B0B0;" d="M41.91,93.6c0.31,2.63,4.88,0.87,7.31,3.7c2.43,2.83,3.21,8.39,4.07,9.1s10.24,0.54,10.86,0
	s0.44-6.04,3.03-7.92s6.04-3.38,6.99-3.61s1.33-2.12-0.31-2.43s-7.52-0.02-10.03,3.9c-2.51,3.93-2.69,6.54-2.69,6.54h-5.1
	c0,0-1.06-4.72-3.69-7.54c-2.2-2.36-4.4-3.45-8.01-3.61C42.52,91.65,41.75,92.32,41.91,93.6L41.91,93.6z"/>
<path style="fill:#9A9A9A;" d="M45.53,109.51c-1.95,0-2.52,1.55-2.58,2.81s1.21,2.12,2.47,2.18c1.4,0.07,2.41-1.38,2.41-2.52
	S47.14,109.51,45.53,109.51L45.53,109.51z"/>
<path style="fill:#9A9A9A;" d="M72.09,109.85c-1.55-0.07-2.43,0.9-2.37,2.22s1.39,2.2,2.54,2.2s2.29-1.09,2.24-2.29
	S73.41,109.91,72.09,109.85L72.09,109.85z"/>
<path style="fill:#9A9A9A;" d="M69.35,119.92c-0.04,1.29,0.93,2.33,2.33,2.38s2.5-0.93,2.5-2.33s-1.05-2.42-2.58-2.42
	S69.39,118.56,69.35,119.92L69.35,119.92z"/>
<path style="fill:#9A9A9A;" d="M45.48,118.47c-1.76,0.16-2.17,1.37-2.13,2.46s1.13,2.05,2.25,2.05s2.42-0.68,2.42-2.13
	S47.21,118.31,45.48,118.47z"/>
<path style="fill:#A56C43;" d="M35.97,44.3c-0.9,0.98-2.8,7.81-3.55,14.94c-0.31,2.94-0.29,8.46-1.19,9.11s-1.45,0.18-1.45,0.18
	s0.59,6.77,5.11,13.28c4.19,6.02,11.77,11.83,23.67,11.83c11,0,17.42-4.06,21.62-9.15c6.23-7.57,6.9-16.47,6.9-16.47
	s-2.13,1.13-2.67-1.13c-0.39-1.62-0.06-20.36-5.8-27.19c-4.29-5.11-13.27-5.07-20.22-4.69C48.98,35.52,35.97,44.3,35.97,44.3z"/>
<path style="fill:#875334;" d="M58.63,67.42c-1.75,0.05-3.6-0.71-4.4,0.28s0.22,2.12,1.29,3c1.79,1.48,4.16,1.48,5.84,0.23
	s2.28-2.63,1.36-3.45S60.28,67.37,58.63,67.42z"/>
<g>
	<path style="fill:#3C2C23;" d="M36.31,51.12c0.72,1.16,3.16-0.67,7.04-0.78c3.18-0.09,5.95,2.17,6.6,0.11
		c0.78-2.44-1.83-3.49-6.55-3.27C38.58,47.41,35.33,49.56,36.31,51.12L36.31,51.12z"/>
	<path style="fill:#3C2C23;" d="M67.18,50.98c1.61,0.44,2.83-0.72,6.1-0.5c3.06,0.21,6.05,1.55,6.93,0.55s-1.4-3.39-6.43-3.88
		c-4.55-0.44-7.25,0.59-7.58,1.59S66.52,50.8,67.18,50.98z"/>
</g>
<g>
	<path style="fill:#42312C;" d="M43.68,54.11c-3.72-0.06-5.16,3.16-4.94,5.44s1.94,4.44,5.21,4.38s4.83-2.11,4.83-4.83
		S47.12,54.16,43.68,54.11z"/>
	<path style="fill:#42312C;" d="M73.46,54c-2.77-0.3-5.32,1.66-5.21,4.99c0.12,3.71,3.38,4.88,5.16,4.88c2.55,0,4.61-1.89,4.66-4.6
		c0.06-3.05-1.5-4.94-4.6-5.27H73.46z"/>
</g>
<path style="fill:#473530;" d="M58.71,76.74c-4.49,0-9-2.39-10.01-0.84c-0.45,0.68-0.31,2.02,1.09,3.26
	c1.62,1.44,4.81,2.75,8.75,2.77c8.29,0.05,11.01-4.63,9.95-6.03S63.89,76.74,58.71,76.74L58.71,76.74z"/>
<g>
	<path style="fill:#B0B0B0;" d="M63.57,13.53L6.74,30.92c0,0,1.98,3.38,6.74,4.94s8.36,1.25,8.36,1.25v4.5l53.69-4.16l18.69-1.15
		c0,0,3.47-0.36,7.71-3.89c5.32-4.44,7.06-8.07,7.06-11.46S63.57,13.53,63.57,13.53z"/>
	<path style="fill:#E3E3E2;" d="M6.74,30.92c0,0-2.12-2.04-1.61-5.09s3.91-9.2,9.92-11.54c5.49-2.13,8.99,0,8.99,0
		s2.71-5.77,8.48-6.79s8.27,0.34,8.27,0.34s5.47-3.3,16.4-3.77c9.14-0.39,15.59,0.26,20.51,2.04s7.33,3.42,7.33,3.42
		s4.58,1.7,6.79,1.87s3.31-0.34,8.06,0.34s8.65,2.88,9.25,6.11s-0.13,8.85-6.66,9.95s-9.79-1.54-9.79-1.54l-1.61-0.93
		c0,0-4.5,1.09-11.03-0.19c-6.53-1.27-5.8-4.2-5.8-4.2s-1.81,3.69-16.29,3.69c-8.44,0-11.75-4.07-11.75-4.07s-5.51,4.67-11.62,6.28
		s-12.04,0.08-12.04,0.08s-4.24,3.82-7.8,4.75c-3.56,0.93-6.53,0-7.97-0.76L6.74,30.92z"/>
	<path style="fill:#E3E3E2;" d="M21.7,39.33c-1.1,1.24-0.36,5.68,0,6.76c0.41,1.24,0.69,2.21,1.52,2.76s9.24-4.69,36.67-4.41
		c27.44,0.28,31.44,2.9,32.81,2.9s1.79-2.9,1.79-5.51s-0.28-5.51-0.28-5.51s-13.65-5.24-37.5-4.55
		c-23.85,0.69-33.92,6.34-35.02,7.58L21.7,39.33z"/>
	<path style="fill:#9B9B9B;" d="M23.96,26.93c-3.53-2.17-5.34-7.21-7.21-7.04s-4.44,5.33,4.41,10.52c7.38,4.33,12.3,2.63,12.47,0.51
		S28.37,29.65,23.96,26.93z"/>
	<path style="fill:#9B9B9B;" d="M43.55,19.63c1.49,4.11,1.79,8.69,3.48,8.57c2.38-0.17,1.19-6.28,0.17-9.58s-3.05-6.96-5-6.19
		s0,3.48,1.36,7.21L43.55,19.63z"/>
	<path style="fill:#9B9B9B;" d="M66.71,27.1c1.3,1.68,5.26-0.17,8.65-4.58s2.79-8.25,1.02-8.57c-2.8-0.51-1.78,2.97-4.41,6.53
		S65.27,25.23,66.71,27.1z"/>
	<path style="fill:#9B9B9B;" d="M96.9,18.11c-1.74-0.94-4.11,3.77-7.38,7.21c-3.14,3.31-7.63,2.63-7.63,4.83s6.7,1.19,10.26-1.7
		c3.56-2.88,6.79-9.25,4.75-10.35L96.9,18.11z"/>
</g>
</svg>
