<?xml version="1.0" encoding="utf-8"?>
<!-- Generator: Adobe Illustrator 26.3.1, SVG Export Plug-In . SVG Version: 6.00 Build 0)  -->
<svg version="1.1" id="a" xmlns="http://www.w3.org/2000/svg" xmlns:xlink="http://www.w3.org/1999/xlink" x="0px" y="0px"
	 viewBox="0 0 128 128" style="enable-background:new 0 0 128 128;" xml:space="preserve">
<g>
	<path style="fill:#99674F;" d="M77.93,38.91c0,0,4.53,0.05,5.4-4.6c0.92-4.9-2.61-5.7-2.61-5.7L77.93,38.91z"/>
	<path style="fill:#99674F;" d="M47.19,29.46c0,0-4.49-0.6-3.07,5c1.24,4.86,5.87,4.45,5.87,4.45L47.19,29.46z"/>
</g>
<g>
	<path style="fill:#99674F;" d="M34.09,88.31c0,0,0.63-0.69,1.11-1.09s1.76-1.39,1.76-1.39s-0.05-2.51,0-4.94
		c0.05-2.4,0.2-4.52,0.2-4.52L47,80.48l-0.07,9.16l-0.74,3.27l-4.67,3.46l-7.44-8.06H34.09z"/>
	<path style="fill:#99674F;" d="M82.8,78.36l8.57-3.44c0,0,0.73,3.63,1.01,5.92c0.28,2.3,0.37,3.44,0.37,3.44s0.6,0.28,1.52,1.19
		s1.44,1.77,1.44,1.77l-6.08,7.78L86,92.17l-2.53-2.48L82.8,78.34"/>
</g>
<path style="fill:#543930;" d="M62.76,38.31l-15.34-5.47c0,0-3.18-10.53-0.05-18.49C49.86,8.03,55.42,4.09,63.2,3.91
	c8.32-0.19,14.11,3.36,16.8,9.82c3.25,7.8-0.16,18.99-0.16,18.99l-17.09,5.59H62.76z"/>
<path style="fill:#99674F;" d="M52.72,51.92l3.96-1.29c0,0,1.35-0.55,1.47-2.65s-0.06-4.24-0.06-4.24L69.7,43.8
	c0,0-0.05,2.01-0.06,4.35c0,1.38,1.73,2.29,1.73,2.29l5.51,1.37l-13.43,4.66l-10.74-4.56L52.72,51.92z"/>
<path style="fill:#848484;" d="M51.5,88.97l-3.05,1.94c0,0,0.1,2.2-0.23,2.98c-0.25,0.59-3.17,1.97-4.77,2.68
	c-1.43,0.63-3.33,1.4-3.33,1.4l-4.69,2.2l16.16,15.07l34.11-5.16l6.98-11.32c0,0-5.19-2.65-7.75-3.74c-2.2-0.94-3.24-1.51-3.36-1.89
	s-0.26-2.28-0.26-2.28l-29.79-1.87L51.5,88.97z"/>
<path style="fill:#99674F;" d="M66.91,115.72c0,0-16.73,8.96-30.85,7.86c-9.39-0.73-12.61-5.9-12.61-5.9l-1.28-8.23
	c0,0,1.18-1.89,4.02-5.58s9.84-5.06,11.55-4.87s4.09,2.51,4.09,2.51l15.77,0.87l9.3,13.36L66.91,115.72z"/>
<path style="fill:#99674F;" d="M85.15,99.79l-6.81,1.55l-10.26-1.89c0,0-0.67,0.6-0.95,0.92s-0.94,1.05-0.94,1.05l3.67,4.97
	l28.1,1.78h5.66l-0.89-2.88l-5.45-4.09c0,0-3.3-1.73-4.04-2.04s-2.52,0.79-2.52,0.79S85.15,99.79,85.15,99.79z"/>
<path style="fill:#BA8D68;" d="M21.8,109.15c0,0-0.62,1.89-0.14,4.35s1.8,4.16,1.8,4.16s2.98,2.51,11.17,2.56
	c8.19,0.05,18.17-3.45,18.32-3.79s-1.85-4.64-6.48-7c-4.64-2.37-9.42-0.97-9.42-0.97l-0.18-1.87c0,0-1.8-1.72-5.11-1.51
	c-3.83,0.24-6.44,1.8-6.44,1.8l-3.5,2.27"/>
<path style="fill:#824E3A;" d="M31.07,111.94c1.18,1.23,3.31-1.8,5.96-3.12s5.63-2.89,10.18-1.85c4.54,1.04,19.69,8.72,19.69,8.72
	l3.57-1.79L59,106.54l-17.18-1.7c0,0-3.98,0.76-7.43,2.84c-2.2,1.32-4.27,3.27-3.31,4.26H31.07z"/>
<path style="fill:#99674F;" d="M84.07,110.99l-17.38,2.99c0,0,8.89,6.05,19.09,8.85c10.2,2.81,16.54,0.42,19.72-2.12
	c2.76-2.21,3.25-5.09,3.11-7.14s-0.55-2.81-0.55-2.81l-24,0.23H84.07z"/>
<path style="fill:#BA8D68;" d="M94.17,100.92c0.23-0.69-0.88-2.49-2.81-2.74c-2.28-0.3-3.52,1.25-3.52,1.25s-0.9-1.19-2.93-1.01
	s-3.15,1.83-6.02,1.77s-4.31-2.13-7.12-2.07c-2.39,0.05-3.7,1.34-3.7,1.34s2.14,1.64,5.08,2.36c3.64,0.9,11.1,0.84,12.95,0.72
	s4.6,0.42,4.6,0.42s0.74-0.66,1.58-1.1S94.07,101.2,94.17,100.92L94.17,100.92z"/>
<path style="fill:#BA8D68;" d="M65.64,102.03c0,0,2.63,1.52,5.69,2.39s12.07,1.27,14.78,1.27s7.56,0.75,7.56,0.75
	s1.33-0.98,4.56-1.1s5.6,1.04,5.6,1.04l2.83,1.56c0,0,0.66,1.17,0.87,1.6s0.53,1.22,0.53,1.22s-2.14,4.74-5.65,6.9
	c-3.52,2.16-8.87,3.04-17.1,1.76s-16.15-4.32-18.62-5.43s-13.31-6.34-16.43-7.42c-6.22-2.14-10.74-1.27-11.64-1.5
	c-0.52-0.13-0.84-2.97,1.18-4.07c1.74-0.95,2.72-0.26,2.93-0.34c0.3-0.11,2.13-2.93,4.84-2.86s3.38,2.1,5.78,1.87
	c2.4-0.23,3.34-2.21,7.13-1.65C63.53,98.48,65.64,102.03,65.64,102.03"/>
<path style="fill:#824E3A;" d="M66.23,101.37l-0.59,0.66c0,0,0.38,0.46,1.25,1.09c0.65,0.47,2.44,1.44,4.52,1.93
	c4.03,0.96,7.78,1.09,11.68,1.33c4.84,0.29,6.79,0.59,8.99,1.76c4.06,2.17,5.03,4.2,5.52,4.69s1.72,0.8,1.91,0.15
	c0.24-0.88-0.06-1.21-0.88-2.54c-1.17-1.91-2.98-3.42-6.6-4.74c-1.79-0.65-5.6-0.66-9.14-0.73s-7.33-0.31-10.17-0.93
	C68.65,103.16,66.22,101.37,66.23,101.37L66.23,101.37z"/>
<path style="fill:#BA8D68;" d="M42.71,95.18c0,0-0.25-3.16-3.23-5.43c-2.98-2.26-5.39-1.44-5.39-1.44s-4.1,4.38-4.49,4.46
	s-3.56-1.15-5.64-0.11s-2.38,1.95-3.81,2.21s-4.26-0.12-4.29,0.48c-0.03,0.48-0.12,1.23,0.34,1.77s2.1,0.62,2.1,0.62l2.5-0.05
	l3.05-0.5l1.02,1.27l-1.38,1.75l-1.72,0.83l-1.72-0.36l-1.29-2.08l-1.37,0.07l-0.57,1.47l0.93,1.4l0.33,1.71
	c0,0-1.44,0.38-2.99,0.27s-4.02-1.23-4.45-1.23s-0.63,0.24-0.63,0.24l0.41,1.06l1.37,1.01l-0.11,1.44l2.73,1.26l1.11,0.93l1.83,0.93
	l4.17-0.5l4.71-2.48l3.77-4.24l8.55-3.2l4.17-3.56L42.71,95.18z"/>
<path style="fill:#BA8D68;" d="M88.15,94.03c0,0,0.44-2.76,2.98-4.96s4.57-1.82,4.57-1.82s3.53,4.19,4.13,4.19s1.54-1.05,3.53-0.66
	c1.98,0.39,3.23,1.94,4.5,2.27c1.27,0.33,3.22,0.32,3.66,0.04s1.71-0.56,1.57,0.41s-1.94,2-1.94,2l-3.05,0.67l-2.54,0.44l-0.83,1.21
	l0.99,1.21h2.48l2.04-2.54l1.49-0.22l0.72,1.27l-0.5,2.31l-0.44,1.27c0,0,1.7-0.2,2.64-0.64s1.62-1.2,2.89-1.46
	c0.92-0.19,1.09,0.55,1.09,0.55l-1.17,1.25l-0.21,1.57l-1.43,1.76l-0.78,0.36l-0.32,1.18l-3.53,1.43h-4.41l-3.14-1.38l-4.3-3.25
	l-3.09-3.53L88.14,94L88.15,94.03z"/>
<path style="fill:#824E3A;" d="M113.09,93.16c-0.23-0.16-0.82,1.73-3.21,2.37c-1.26,0.34-3.16-0.29-4.41,0.34s-1.51,2.37-0.94,2.75
	c0.98,0.64,0.74-1.4,2.03-1.65s2.72-0.01,3.99-0.23C112.29,96.44,113.86,93.71,113.09,93.16L113.09,93.16z"/>
<g>
	<path style="fill:#99674F;" d="M10,102.53c-0.36,0.53,0.02,1.3,0.3,1.62c0.38,0.44,0.99,0.63,0.99,0.63s-0.39,0.35,0.02,1.32
		c0.28,0.65,1.05,1.56,3.73,1.82s5.38-0.57,5.84-0.93s0.65-0.75,0.26-0.82c-0.27-0.05-1.09,0.22-1.75,0.35s-1.8,0.61-4.04,0.54
		c-1.78-0.05-3.08-0.81-3.21-1.24s0.13-0.76,0.13-0.76s1.31,0.71,2.86,0.78s2.68-0.25,2.84-0.45s0.26-0.58-0.43-0.58
		s-1.63,0.57-4.34-0.27C10.71,103.78,9.99,102.52,10,102.53L10,102.53z"/>
	<path style="fill:#99674F;" d="M18.07,103.24c0,0,1.32-0.16,1.35-0.47s-1.63-0.44-1.92-2.01c-0.21-1.19,0-1.79,0.66-1.82
		s0.54,1.7,1.45,2.26c1.38,0.85,2.68,0.55,2.68,0.55s-0.57,0.97-1.14,1.57s-1.47,1.37-1.04,1.83c0.55,0.59,2.69-1.06,3.58-2.16
		c1.23-1.51,2.21-3.31,4.41-4.72s4.05-1.21,4.05-1.74s-1.73-1.15-4.29-0.01c-1.92,0.85-2.41,1.43-2.41,1.43s-0.65-1.1-1.41-1.17
		s0.03,1.32,0.03,1.77s-1.19,2.29-2.67,2.04s-1.91-2.01-1.91-2.01l-0.23-0.75l-1.48-0.47l-0.72,0.68c0,0-1.04,0.74-0.98,2.21
		c0.1,2.35,1.98,3.02,1.98,3.02L18.07,103.24z"/>
</g>
<g>
	<path style="fill:#99674F;" d="M109.15,101.49c0.25,0.98,2.94,0.06,3.75-1.97c0.81-2.04-0.21-4.09-1.74-4.01
		c-1.94,0.11-1.56,1.95-2.78,2.62c-1.93,1.05-2.71,0.16-2.98,0.06c-0.09,0.22-0.24,0.42-0.36,0.47c-0.17,0.08-0.29,0.04-0.43,0
		c-0.02,0.19,0.15,0.37,0.48,0.63c0.58,0.45,2.32,0.7,3.3,0.22c2.62-1.29,1.99-2.86,2.68-2.87c1.23-0.02,1.13,1.91,0.42,2.91
		s-2.52,1.15-2.33,1.94H109.15z"/>
	<path style="fill:#99674F;" d="M108.51,105.57c0.14,0.68,2.71,0.96,5.58-0.28c3.07-1.33,3.31-2.95,3.39-3.27s-0.08-1.21-0.53-1.17
		s-0.32,2.02-3.31,3.27S108.31,104.6,108.51,105.57z"/>
	<path style="fill:#99674F;" d="M109.4,103.39c-0.04,0.81,3.31,0.65,5.42-0.53c2.1-1.17,3.52-2.75,3.31-3.27
		c-0.16-0.42-2.47,1.74-4.24,2.47S109.44,102.68,109.4,103.39z"/>
	<path style="fill:#99674F;" d="M95.86,96.03c0.43,0.67,2.14-0.36,3.96,0.77s2.47,3.11,4.2,4.93c1.54,1.61,3.35,3.03,3.6,2.3
		s-1.42-1.37-2.79-2.91c-1.86-2.1-2.14-3.76-4.32-5.21c-1.55-1.03-3.72-0.77-4.08-0.77S95.58,95.58,95.86,96.03z"/>
</g>
<path style="fill:#824E3A;" d="M15.03,107.91c-0.39,0.52,0.24,2.13,3.94,1.99c6.29-0.24,9.68-6.37,11.47-7.5
	c1.01-0.64,2.47-0.9,4.5-1.66c2.15-0.8,4.9-2.12,7.31-3.82c4.67-3.31,4.94-4.4,5.18-5.44c0.32-1.37,0.32-3.24,0.36-8.07
	s-1.51-1.19-1.51-1.19s0.3,7.22-0.38,8.92s-2.29,3.36-5.95,5.48c-3.65,2.12-5.14,2.76-6.97,3.27s-3.48,1.02-5.01,2.72
	c-1.92,2.13-3.36,3.61-5.48,4.84s-3.19,1.19-4.54,1.1s-2.68-0.98-2.92-0.65L15.03,107.91z"/>
<path style="fill:#824E3A;" d="M83.52,80.85c0,0,0.26,6.98,1.13,8.82c0.36,0.78,1.5,1.91,3.38,3.29c3.13,2.29,7.42,4.48,9.42,6.55
	s4.73,5.05,7.31,6.34c5.82,2.91,9.36-1.35,9.78-1.32s0.8,0.52,0.4,1.01s-2.66,2.89-6.71,2.61c-5.29-0.36-8.41-4.16-11.48-7.56
	c-1.96-2.16-12.53-7.68-13.5-10.22c-0.97-2.55-1.57-9.68-1.57-9.68L83.52,80.85L83.52,80.85z"/>
<path style="fill:#00BDA3;" d="M79.84,52.14c-3.25-1.25-9.65-2.71-9.65-2.71s-0.49,4.13-6.01,4.36c-5.33,0.22-6.64-4.11-6.64-4.11
	s-5.49,0.86-9.84,2.96c-3.63,1.75-7.12,4.41-8.86,9.56s-1.8,9.07-2.24,10.55s-1.17,2.96-0.79,3.6c0.52,0.89,1.68,1.75,3.95,3.5
	s4.56,2.61,4.56,2.61l2.62-1.57l1.57,2.97c0,0,0.09,3.58,0,4.71s-0.69,3.09,0,3.53s7.68,4.06,16.75,3.71
	c9.08-0.35,15.85-3.26,16.23-4.45c0.27-0.83,0-1.43-0.03-2.79c-0.08-2.63-0.23-6.11-0.23-6.11l1.57-4.1l2.53,2.09
	c0,0,1.79-0.89,4.14-2.64s3.54-2.77,3.54-3.56s-0.64-1.22-1.07-3.05s-2.35-8.79-4.78-12.66C84.8,54.79,82.9,53.31,79.84,52.14
	L79.84,52.14z"/>
<g>
	<path style="fill:#06927F;" d="M81.22,82.46c0,0-0.41-4.77-0.46-6.66s-0.97-6.75,0.46-7.18c1.69-0.51,2.26,3.8,2.57,5.75
		s1.53,6.09,1.53,6.09s-1.12,0.78-2.05,1.19S81.22,82.46,81.22,82.46z"/>
	<path style="fill:#06927F;" d="M44.31,82.46c0,0,0.8-4,1.1-6.51s0.67-6.05,1.13-6.72s1.64-0.62,1.85,0.41s0,7.9,0,9.29
		s0.11,4.93,0.11,4.93s-0.86-0.29-1.97-0.6c-1.42-0.41-2.21-0.79-2.21-0.79L44.31,82.46z"/>
	<path style="fill:#06927F;" d="M63.94,59.42c-4.52,0.04-6.89-1.71-9.51-3.49c-2.75-1.88-4.79-4.1-4.79-4.1s1.72-0.69,3.55-1.21
		s4.35-0.94,4.35-0.94s1.68,4.22,6.64,4.11c5.19-0.11,6.01-4.36,6.01-4.36s2.54,0.61,4.26,1.02s4.32,1.32,4.32,1.32
		s-4.26,3.37-5.74,4.41c-1.48,1.05-4.1,3.18-9.08,3.23L63.94,59.42z"/>
</g>
<path style="fill:#BA8D68;" d="M50.92,19.66c-0.73,0.47-0.68,6.76-1.1,9.47c-0.44,2.86-2.41,3.66-2.41,3.66s1.05,4.18,2.71,7.37
	c2.28,4.38,6.83,8.86,13.85,8.86c5.84,0,9.21-3.1,11.44-5.79c3.31-3.99,4.44-10.51,4.44-10.51s-1.16-0.92-1.98-3.59
	c-0.95-3.12-0.8-9.2-1.64-9.78s-5.45-0.21-13.1-0.1c-6.07,0.08-11.48-0.05-12.21,0.42L50.92,19.66z"/>
<path style="fill:#49352E;" d="M64.04,39.8c-2.16,0-4.21-0.79-4.7,0.03s1.16,2.65,4.7,2.67c4,0.03,5.29-2.04,4.78-2.79
	S66.54,39.8,64.04,39.8z"/>
<g>
	<path style="fill:#613E31;" d="M52.29,26.16c0.41,0.6,1.93-0.21,3.97-0.35c1.68-0.11,3.27,0.79,3.57-0.31
		c0.36-1.3-1.4-1.78-3.88-1.56c-2.54,0.22-4.21,1.42-3.67,2.23L52.29,26.16z"/>
	<path style="fill:#613E31;" d="M68.08,25.74c0.84,0.27,1.62-0.22,3.34-0.03c1.61,0.18,3.05,0.88,3.54,0.37s-0.65-1.82-3.3-2.2
		c-2.39-0.34-3.88,0.23-4.08,0.75S67.74,25.63,68.08,25.74L68.08,25.74z"/>
</g>
<g>
	<path style="fill:#49352E;" d="M52.73,30.32c-0.39,0.95,1.21,2.23,3.54,2.2c2-0.03,4.33-0.95,3.61-2.26
		c-0.56-1.02-1.9,0.11-3.64,0.13C54.46,30.41,53.19,29.21,52.73,30.32z"/>
	<path style="fill:#49352E;" d="M67.49,30.09c-0.79,0.83,1,2.35,3.48,2.29c2.81-0.07,4.11-1.57,3.38-2.46s-1.38,0.41-3.41,0.43
		C69.15,30.36,68.3,29.24,67.49,30.09L67.49,30.09z"/>
</g>
<path style="fill:#99674F;" d="M64.04,35.07c-1.5,0.03-2.06-0.48-2.59,0.06c-0.49,0.49-0.05,1.2,0.75,1.82
	c1.1,0.85,2.79,0.82,3.67,0.04s1.25-1.44,0.69-1.92S65.56,35.04,64.04,35.07z"/>
<path style="fill:#824E3A;" d="M16.03,97.25c0.32,0.43,0.99,0.8,0.99,0.8s0.44-0.44,1.27-0.31s1.2,0.82,1.2,0.82s0.63,0.1,1.58-0.1
	s1.44-0.48,2.19-0.35s0.86,0.79,1.61,0.35s0.03-1.82-1.47-1.92s-3.01,1.2-5.58,0.31c-0.96-0.33-1.68-1.57-1.94-1.49
	c-0.32,0.09-0.4,1.12,0.16,1.89L16.03,97.25z"/>
</svg>
