<?xml version="1.0" encoding="utf-8"?>
<!-- Generator: Adobe Illustrator 26.3.1, SVG Export Plug-In . SVG Version: 6.00 Build 0)  -->
<svg version="1.1" id="a" xmlns="http://www.w3.org/2000/svg" xmlns:xlink="http://www.w3.org/1999/xlink" x="0px" y="0px"
	 viewBox="0 0 128 128" style="enable-background:new 0 0 128 128;" xml:space="preserve">
<path style="fill:#62453B;" d="M85.45,14.79c0,0-0.62-10.44-17.77-10.81C50.53,3.61,44.32,17.03,37.49,15.41
	c-7.19-1.7-4.22-6.96-5.84-7.46s-6.71,2.73-6.83,8.08c-0.12,5.34,0.87,5.96,0.87,5.96s-7.34,1.18-10.06,10.81
	c-3.48,12.3,3.73,17.89,3.73,17.89S11.03,56.65,17,67.46c5.45,9.87,7.95,7.95,7.83,12.55s-4.6,5.09-4.47,7.08s2.13,3.66,4.6,4.85
	c3.66,1.76,6.59,0.5,6.59,0.5s2.21,4.44,7.95,5.59c7.46,1.49,12.05-2.24,12.05-2.24l12.18-6.59c0,0,9.69,8.57,21.25,8.82
	s13.42-2.86,13.42-3.48s-2.11-2.86-2.11-2.86s3.73,0.99,7.95-1.12c4.22-2.11,3.85-5.34,3.23-6.46s-4.93-0.69-4.38-5.63
	c0.87-7.7,8.1-10.9,7.36-21.08c-0.75-10.19-6.21-13.42-6.21-13.42s6.71-8.7-1.99-20.75c-7.67-10.62-16.77-8.45-16.77-8.45
	S85.45,14.79,85.45,14.79z"/>
<path style="fill:#F09D02;" d="M51.51,92.98l-0.24,9c0,0-0.83,9.59,12.31,9.59s12.55-8.88,12.55-8.88L75.89,91.8L51.51,92.98
	L51.51,92.98L51.51,92.98z"/>
<g>
	<path style="fill:#E59502;" d="M28.26,56.39c0,0-7.13-0.1-5.04,10.83c1.88,9.83,12.16,7.98,12.16,7.98l-4.94-6.18
		c0,0-1.05-3.14-1.52-6.46s-0.67-6.18-0.67-6.18L28.26,56.39L28.26,56.39z"/>
	<path style="fill:#E59502;" d="M98.48,56.48c1.14-0.48,6.46,1.9,5.23,9.6c-1.24,7.7-7.03,9.12-8.65,9.12s-5.51-3.52-5.51-3.52
		s6.37-2.76,7.51-4.09s1.43-11.12,1.43-11.12L98.48,56.48L98.48,56.48z"/>
</g>
<path style="fill:#FFCA26;" d="M33.4,45.39c-1.05,1.14-0.48,9.76-0.39,13.18c0.1,3.42,0.38,9.12-0.67,9.88s-1.9,0.57-1.9,0.57
	s4.72,29.04,33.38,29.05c12.73,0,19.96-5.25,24.82-11.15c7.21-8.76,8.41-19.32,8.41-19.32s-2.21,0.76-2.56-1.14
	s0.84-21.34-5.8-29.24c-4.97-5.92-9.59-3.55-9.59-3.55s-3.32-6.83-11.37-6.39c-10.89,0.59-12.55,6.75-22.49,12.79
	C39.48,43.57,33.4,45.4,33.4,45.39L33.4,45.39L33.4,45.39z"/>
<path style="fill:#F06E00;" d="M10.33,123.09c-0.8-1.64,3.37-15.04,11.97-18.99s31.33-4.98,31.33-4.98s2.57,8.69,13,8.18
	c10.42-0.5,11.75-8.66,11.75-8.66s22.77,2.26,29.04,4.95c10.53,4.52,11.03,16.48,9.97,18.71c-0.76,1.59-27.91,1.25-54.69,1.54
	S10.33,123.09,10.33,123.09z"/>
<path style="fill:#E59700;" d="M63.85,69.99c-3.21,0.06-4.41-1.03-5.55,0.13c-1.04,1.06-0.11,2.56,1.62,3.91
	c2.35,1.82,5.99,1.76,7.87,0.08c1.87-1.67,2.67-3.08,1.47-4.11s-2.14-0.06-5.42,0l0,0L63.85,69.99z"/>
<path style="fill:#785446;" d="M63.91,80.33c-4.63,0-8.99-1.7-10.04,0.07c-1,1.7,2.49,5.66,10.04,5.71
	c8.54,0.06,11.3-4.37,10.21-5.97C73.03,78.53,69.24,80.33,63.91,80.33z"/>
<g>
	<path style="fill:#6D4C3F;" d="M37.97,50.08c0.83,1.35,3.66-0.77,8.16-0.9c3.68-0.11,6.88,2.51,7.64,0.13
		c0.9-2.83-2.12-4.05-7.58-3.79C40.61,45.78,36.85,48.27,37.97,50.08z"/>
	<path style="fill:#785446;" d="M73.35,49.92c1.86,0.51,3.28-0.83,7.06-0.58c3.54,0.24,7,1.8,8.03,0.64s-1.62-3.93-7.45-4.5
		c-5.27-0.51-8.48,0.9-8.86,2.05s0.45,2.16,1.22,2.38l0,0V49.92z"/>
</g>
<g>
	<path style="fill:#3F4040;" d="M46.06,53.93c-4.3-0.06-5.97,3.66-5.72,6.29c0.26,2.63,2.25,5.14,6.04,5.07s5.59-2.44,5.59-5.59
		S50.04,53.98,46.06,53.93L46.06,53.93L46.06,53.93z"/>
	<path style="fill:#3F4040;" d="M80.53,53.81c-3.21-0.34-6.16,1.93-6.04,5.78c0.14,4.3,3.91,5.65,5.97,5.65
		c2.95,0,5.34-2.18,5.39-5.33c0.06-3.53-1.73-5.72-5.33-6.1C80.52,53.81,80.53,53.81,80.53,53.81z"/>
</g>
<g>
	<path style="fill:#E0E0E0;" d="M69.68,93.53L12.4,98.47c0,0-2.99-14.55,0.39-18.7c3.38-4.16,9.09-3.38,15.59-3.64
		c2.93-0.12,73.33-0.34,76.11-0.13c5.07,0.39,9.12-0.17,10.78,4.94c1.37,4.23-1.3,15.07-1.3,15.07l-44.29-2.47l0,0V93.53z"/>
	<path style="fill:#B0B0B0;" d="M16.95,123.66c-0.88-0.27-4.55-23.12-5.07-28.44s1.43-12.6,7.14-12.86s83.25-0.26,87.67-0.13
		c4.42,0.13,8.7,4.29,7.53,11.69s-4.82,29.42-5.71,29.61C106.4,123.99,19.03,124.31,16.95,123.66z"/>
</g>
<g>
	<path style="fill:#858585;" d="M64.97,100.87c-6.93-0.01-9.8,4.9-10.1,9.16c-0.42,5.92,2.82,7.68,9.93,7.68s10.17-1.2,9.65-7.99
		C74.09,105.04,70.82,100.88,64.97,100.87z"/>
	<path style="fill:#B0B0B0;" d="M68.22,109.25c1.04-0.03,1.7-0.84,1.73-2.03c-0.01-1.17-0.9-1.88-1.86-1.86s-1.58,0.93-1.6,2.01
		S67.28,109.29,68.22,109.25z"/>
	<path style="fill:#B0B0B0;" d="M61.49,109.17c0.92-0.16,1.57-0.89,1.33-2.31c-0.32-1.34-1.21-1.84-2.28-1.54s-1.24,1.7-1.03,2.52
		C59.76,108.81,60.58,109.32,61.49,109.17z"/>
	<path style="fill:#B0B0B0;" d="M59.26,111.76c-0.53,0.83,1.93,3.06,5.78,3.02c4.33-0.04,6.13-2.71,5.12-3.46
		c-1.4-1.03-1.44,0.96-5.21,1.01S60.28,110.14,59.26,111.76z"/>
</g>
</svg>
