<?xml version="1.0" encoding="utf-8"?>
<!-- Generator: Adobe Illustrator 26.3.1, SVG Export Plug-In . SVG Version: 6.00 Build 0)  -->
<svg version="1.1" id="a" xmlns="http://www.w3.org/2000/svg" xmlns:xlink="http://www.w3.org/1999/xlink" x="0px" y="0px"
	 viewBox="0 0 128 128" style="enable-background:new 0 0 128 128;" xml:space="preserve">
<g>
	<path style="fill:#C48E6A;" d="M34.09,88.52c0,0,0.63-0.69,1.11-1.09s1.76-1.39,1.76-1.39s-0.05-2.51,0-4.94s0.2-4.52,0.2-4.52
		L47,80.69l-0.07,9.16l-0.74,3.27l-4.67,3.46l-7.44-8.06L34.09,88.52z"/>
	<path style="fill:#C48E6A;" d="M82.79,78.56l8.57-3.44c0,0,0.73,3.63,1.01,5.92s0.37,3.44,0.37,3.44s0.6,0.28,1.52,1.19
		s1.44,1.77,1.44,1.77l-6.08,7.78l-3.63-2.85l-2.53-2.48l-0.67-11.35"/>
</g>
<path style="fill:#AB872F;" d="M74.43,8.9c0,0-0.3-5.02-8.55-5.2S54.64,9.98,51.35,9.2c-3.46-0.82-2.03-3.35-2.81-3.59
	s-3.23,1.32-3.29,3.89s0.42,2.87,0.42,2.87s-3.53,0.57-4.84,5.2c-1.67,5.92,1.79,8.61,1.79,8.61s-3.22,2.7-1.43,8.37
	c1.23,3.89,3.65,3.73,3.59,5.94s-1.74,2.26-1.68,3.21s1.02,1.76,2.21,2.33c1.76,0.85,3.17,0.24,3.17,0.24s1.09,2.03,3.83,2.69
	c5.51,1.33,8.35-1.2,8.35-1.2l1.89-1.83c0,0,4.95,3.04,10.51,3.16c5.56,0.12,7.6-1.51,7.6-1.81s-1.02-1.37-1.02-1.37
	s1.79,0.48,3.83-0.54s1.85-2.57,1.55-3.11s-2.72-0.73-2.45-3.11c0.42-3.71,3.93-3.5,3.89-9.74c-0.04-4.92-2.99-6.46-2.99-6.46
	s3.23-4.18-0.96-9.98c-3.69-5.11-8.07-4.07-8.07-4.07L74.43,8.9z"/>
<path style="fill:#C48E6A;" d="M52.72,52.13l3.96-1.29c0,0,1.35-0.55,1.47-2.65s-0.06-4.24-0.06-4.24l11.61,0.06
	c0,0-0.05,2.01-0.06,4.35c0,1.38,1.73,2.29,1.73,2.29l5.51,1.37l-13.43,4.66l-10.74-4.56L52.72,52.13z"/>
<path style="fill:#7C7C7C;" d="M51.5,89.17l-3.05,1.94c0,0,0.1,2.2-0.23,2.98c-0.25,0.59-3.17,1.97-4.77,2.68
	c-1.43,0.63-3.33,1.4-3.33,1.4l-4.69,2.2l16.16,15.07l34.11-5.16l6.98-11.32c0,0-5.19-2.65-7.75-3.74c-2.2-0.94-3.24-1.51-3.36-1.89
	s-0.26-2.28-0.26-2.28l-29.78-1.87L51.5,89.17z"/>
<path style="fill:#C48E6A;" d="M66.91,115.92c0,0-16.73,8.96-30.84,7.86c-9.39-0.73-12.61-5.9-12.61-5.9l-1.28-8.23
	c0,0,1.18-1.89,4.02-5.58s9.84-5.06,11.55-4.87s4.09,2.51,4.09,2.51l15.77,0.87l9.3,13.36V115.92z"/>
<path style="fill:#C48E6A;" d="M85.15,99.99l-6.81,1.55l-10.26-1.89c0,0-0.67,0.6-0.95,0.92s-0.94,1.05-0.94,1.05l3.67,4.97
	l28.1,1.78h5.66l-0.89-2.88l-5.45-4.09c0,0-3.3-1.73-4.04-2.04s-2.52,0.79-2.52,0.79S85.15,99.99,85.15,99.99z"/>
<path style="fill:#E0BB95;" d="M21.8,109.35c0,0-0.62,1.89-0.14,4.35s1.8,4.16,1.8,4.16s2.98,2.51,11.17,2.56
	c8.19,0.05,18.17-3.45,18.31-3.79s-1.85-4.64-6.48-7c-4.64-2.37-9.42-0.97-9.42-0.97l-0.18-1.87c0,0-1.8-1.72-5.11-1.51
	c-3.83,0.24-6.44,1.8-6.44,1.8L21.8,109.35"/>
<path style="fill:#A87254;" d="M31.08,112.15c1.18,1.23,3.31-1.8,5.96-3.12s5.63-2.89,10.17-1.85s19.69,8.72,19.69,8.72l3.57-1.79
	L59,106.75l-17.18-1.7c0,0-3.98,0.76-7.43,2.84C32.19,109.21,30.12,111.16,31.08,112.15z"/>
<path style="fill:#C48E6A;" d="M84.06,111.19l-17.38,2.99c0,0,8.89,6.05,19.09,8.85c10.2,2.81,16.54,0.42,19.72-2.12
	c2.76-2.21,3.25-5.09,3.11-7.14s-0.55-2.81-0.55-2.81L84.06,111.19L84.06,111.19z"/>
<path style="fill:#E0BB95;" d="M94.17,101.12c0.23-0.69-0.88-2.49-2.81-2.74c-2.28-0.3-3.52,1.25-3.52,1.25s-0.9-1.19-2.93-1.01
	s-3.15,1.83-6.02,1.77s-4.31-2.13-7.12-2.07c-2.39,0.05-3.7,1.34-3.7,1.34s2.14,1.64,5.08,2.36c3.64,0.9,11.1,0.84,12.95,0.72
	s4.6,0.42,4.6,0.42s0.74-0.66,1.58-1.1S94.07,101.4,94.17,101.12L94.17,101.12z"/>
<path style="fill:#E0BB95;" d="M65.64,102.24c0,0,2.63,1.52,5.69,2.39s12.07,1.27,14.78,1.27s7.56,0.75,7.56,0.75
	s1.33-0.98,4.56-1.1c3.23-0.12,5.6,1.04,5.6,1.04l2.83,1.56c0,0,0.66,1.17,0.87,1.6s0.53,1.22,0.53,1.22s-2.14,4.74-5.65,6.9
	s-8.87,3.04-17.1,1.76s-16.14-4.32-18.62-5.43c-2.48-1.12-13.31-6.34-16.43-7.42c-6.21-2.14-10.74-1.27-11.64-1.5
	c-0.52-0.13-0.84-2.97,1.18-4.07c1.74-0.95,2.72-0.26,2.93-0.34c0.3-0.11,2.13-2.93,4.84-2.86s3.38,2.1,5.78,1.87
	s3.34-2.21,7.13-1.65C63.53,98.69,65.64,102.24,65.64,102.24"/>
<path style="fill:#A87254;" d="M66.23,101.57l-0.59,0.66c0,0,0.38,0.46,1.25,1.09c0.65,0.47,2.44,1.44,4.52,1.93
	c4.03,0.96,7.78,1.09,11.68,1.33c4.84,0.29,6.79,0.59,8.99,1.76c4.06,2.17,5.03,4.2,5.52,4.69s1.72,0.8,1.91,0.15
	c0.24-0.88-0.06-1.21-0.88-2.54c-1.17-1.91-2.98-3.42-6.6-4.74c-1.79-0.65-5.6-0.66-9.14-0.73s-7.33-0.31-10.16-0.93
	C68.66,103.36,66.23,101.57,66.23,101.57z"/>
<path style="fill:#E0BB95;" d="M42.71,95.38c0,0-0.25-3.16-3.23-5.43c-2.98-2.26-5.39-1.44-5.39-1.44s-4.1,4.38-4.49,4.46
	s-3.56-1.15-5.64-0.11s-2.38,1.95-3.81,2.21s-4.26-0.12-4.29,0.48c-0.03,0.48-0.12,1.23,0.34,1.77s2.1,0.62,2.1,0.62l2.5-0.05
	l3.05-0.5l1.02,1.27l-1.38,1.75l-1.72,0.83l-1.72-0.36l-1.29-2.08l-1.37,0.07l-0.57,1.47l0.93,1.4l0.33,1.71
	c0,0-1.44,0.38-2.99,0.27s-4.02-1.23-4.45-1.23s-0.63,0.24-0.63,0.24l0.41,1.06l1.37,1.01l-0.11,1.44l2.73,1.26l1.11,0.93l1.83,0.93
	l4.17-0.5l4.71-2.48l3.77-4.24l8.55-3.2l4.17-3.56L42.71,95.38z"/>
<path style="fill:#E0BB95;" d="M88.15,94.24c0,0,0.44-2.76,2.98-4.96s4.57-1.82,4.57-1.82s3.53,4.19,4.13,4.19s1.54-1.05,3.53-0.66
	s3.23,1.94,4.5,2.27s3.22,0.32,3.66,0.04s1.71-0.56,1.57,0.41s-1.94,2-1.94,2l-3.05,0.67l-2.54,0.44l-0.83,1.21l0.99,1.21h2.48
	l2.04-2.54l1.49-0.22l0.72,1.27l-0.5,2.31l-0.44,1.27c0,0,1.7-0.2,2.64-0.64s1.62-1.2,2.89-1.46c0.92-0.19,1.09,0.55,1.09,0.55
	l-1.17,1.25l-0.21,1.57l-1.43,1.76l-0.78,0.36l-0.32,1.18l-3.53,1.43h-4.41l-3.14-1.38l-4.3-3.25l-3.09-3.53l-7.61-4.96L88.15,94.24
	z"/>
<path style="fill:#A87254;" d="M113.09,93.36c-0.23-0.16-0.82,1.73-3.21,2.37c-1.26,0.34-3.16-0.29-4.41,0.34s-1.51,2.37-0.94,2.75
	c0.98,0.64,0.74-1.4,2.03-1.65s2.72-0.01,3.99-0.23C112.29,96.64,113.86,93.91,113.09,93.36L113.09,93.36z"/>
<g>
	<path style="fill:#C48E6A;" d="M10,102.73c-0.36,0.53,0.02,1.3,0.3,1.62c0.38,0.44,0.99,0.63,0.99,0.63s-0.39,0.35,0.02,1.32
		c0.28,0.65,1.05,1.56,3.73,1.82s5.38-0.57,5.84-0.93s0.65-0.75,0.26-0.82c-0.27-0.05-1.09,0.22-1.75,0.35s-1.8,0.61-4.04,0.54
		c-1.78-0.05-3.08-0.81-3.21-1.24s0.13-0.76,0.13-0.76s1.31,0.71,2.86,0.78s2.68-0.25,2.84-0.45s0.26-0.58-0.43-0.58
		s-1.63,0.57-4.34-0.27C10.71,103.98,9.99,102.72,10,102.73L10,102.73z"/>
	<path style="fill:#C48E6A;" d="M18.07,103.45c0,0,1.32-0.16,1.35-0.47s-1.63-0.44-1.92-2.01c-0.21-1.19,0-1.79,0.66-1.82
		s0.54,1.7,1.45,2.26c1.38,0.85,2.68,0.55,2.68,0.55s-0.57,0.97-1.14,1.57s-1.47,1.37-1.04,1.83c0.55,0.59,2.69-1.06,3.58-2.16
		c1.23-1.51,2.21-3.31,4.41-4.72s4.05-1.21,4.05-1.74s-1.73-1.15-4.29-0.01c-1.92,0.85-2.41,1.43-2.41,1.43s-0.65-1.1-1.41-1.17
		s0.03,1.32,0.03,1.77s-1.19,2.29-2.67,2.04s-1.91-2.01-1.91-2.01l-0.23-0.75l-1.48-0.47l-0.72,0.68c0,0-1.04,0.74-0.98,2.21
		c0.1,2.35,1.98,3.02,1.98,3.02L18.07,103.45z"/>
</g>
<g>
	<path style="fill:#C48E6A;" d="M109.15,101.69c0.25,0.98,2.94,0.06,3.75-1.97c0.81-2.04-0.21-4.09-1.74-4.01
		c-1.94,0.11-1.56,1.95-2.78,2.62c-1.93,1.05-2.71,0.16-2.98,0.06c-0.09,0.22-0.24,0.42-0.36,0.47c-0.17,0.08-0.29,0.04-0.43,0
		c-0.02,0.19,0.15,0.37,0.48,0.63c0.58,0.45,2.32,0.7,3.3,0.22c2.62-1.29,1.99-2.86,2.68-2.87c1.23-0.02,1.13,1.91,0.42,2.91
		s-2.52,1.15-2.33,1.94H109.15z"/>
	<path style="fill:#C48E6A;" d="M108.51,105.77c0.14,0.68,2.71,0.96,5.58-0.28c3.07-1.33,3.31-2.95,3.39-3.27s-0.08-1.21-0.53-1.17
		s-0.32,2.02-3.31,3.27S108.31,104.8,108.51,105.77z"/>
	<path style="fill:#C48E6A;" d="M109.4,103.59c-0.04,0.81,3.31,0.65,5.42-0.53s3.52-2.75,3.31-3.27c-0.16-0.42-2.47,1.74-4.24,2.47
		C112.11,102.99,109.44,102.88,109.4,103.59z"/>
	<path style="fill:#C48E6A;" d="M95.86,96.24c0.43,0.67,2.14-0.36,3.96,0.77s2.47,3.11,4.2,4.93c1.54,1.61,3.35,3.03,3.6,2.3
		s-1.42-1.37-2.79-2.91c-1.86-2.1-2.14-3.76-4.32-5.21c-1.55-1.03-3.72-0.77-4.08-0.77S95.58,95.79,95.86,96.24z"/>
</g>
<path style="fill:#A87254;" d="M15.04,108.11c-0.39,0.52,0.24,2.13,3.94,1.99c6.29-0.24,9.68-6.37,11.47-7.5
	c1.01-0.64,2.47-0.9,4.5-1.66c2.15-0.8,4.9-2.12,7.3-3.82c4.67-3.31,4.94-4.4,5.18-5.44c0.32-1.37,0.32-3.24,0.36-8.07
	c0.05-4.59-1.51-1.19-1.51-1.19s0.3,7.22-0.38,8.92s-2.29,3.36-5.95,5.48c-3.65,2.12-5.14,2.76-6.97,3.27s-3.48,1.02-5.01,2.72
	c-1.92,2.13-3.36,3.61-5.48,4.84s-3.19,1.19-4.54,1.1s-2.68-0.98-2.92-0.65L15.04,108.11z"/>
<path style="fill:#A87254;" d="M83.52,81.06c0,0,0.26,6.98,1.13,8.82c0.36,0.78,1.5,1.91,3.38,3.29c3.13,2.29,7.42,4.48,9.42,6.55
	s4.73,5.05,7.31,6.34c5.82,2.91,9.36-1.35,9.78-1.32s0.8,0.52,0.4,1.01s-2.66,2.89-6.71,2.61c-5.29-0.36-8.41-4.16-11.48-7.56
	c-1.96-2.16-12.53-7.68-13.5-10.22s-1.57-9.68-1.57-9.68L83.52,81.06L83.52,81.06z"/>
<g>
	<path style="fill:#DBA689;" d="M46,29.04c0,0-3.34,0.53-2.53,5.05c0.96,5.36,6.05,3.97,6.05,3.97l-2.46-3.07
		c0,0-0.52-1.56-0.76-3.21S45.99,29.04,46,29.04L46,29.04z"/>
	<path style="fill:#DBA689;" d="M80.7,29.43c0.57-0.24,3.09,0.23,2.8,4.09c-0.36,4.9-3.61,5-4.42,5s-2.63-2.21-2.63-2.21
		s3.41-1.19,3.73-2.03S80.69,29.43,80.7,29.43L80.7,29.43z"/>
</g>
<path style="fill:#E0BB95;" d="M49.08,24.05c-0.52,0.57-0.42,10.1-1.02,10.76c-0.53,0.57-1.05-0.04-1.05-0.04s2.43,14.2,16.69,14.2
	c6.33,0,9.95-2.49,12.36-5.42c3.59-4.36,4.14-9.27,4.14-9.27s-0.2,0.58-0.72,0.51c-0.32-0.04-0.63-0.07-0.77-0.89
	c-0.15-0.95-0.71-10.18-2.97-12.31c-2.53-2.38-4.61-1.93-4.61-1.93s-0.93-2.46-4.83-3.07c-3.08-0.48-5.47,1.73-10.42,4.73
	c-2.87,1.74-6.79,2.74-6.79,2.74L49.08,24.05z"/>
<path style="fill:#785446;" d="M63.92,40.24c-2.28,0-4.44-0.84-4.96,0.04s1.23,2.79,4.96,2.82c4.22,0.03,5.58-2.16,5.04-2.95
	S66.55,40.25,63.92,40.24L63.92,40.24z"/>
<g>
	<path style="fill:#9B782C;" d="M51.51,26.35c0.43,0.63,2.03-0.23,4.2-0.37c1.77-0.12,3.45,0.84,3.77-0.33
		c0.38-1.38-1.47-1.88-4.1-1.65C52.7,24.23,50.94,25.5,51.51,26.35z"/>
	<path style="fill:#9B782C;" d="M68.18,25.9c0.88,0.29,1.71-0.24,3.52-0.03c1.7,0.19,3.22,0.92,3.74,0.39s-0.69-1.92-3.49-2.33
		c-2.52-0.36-4.1,0.25-4.31,0.79s0.17,1.05,0.53,1.17L68.18,25.9z"/>
</g>
<g>
	<path style="fill:#3F4040;" d="M51.98,30.74c-0.41,1,1.28,2.35,3.74,2.32c2.11-0.03,4.57-1,3.81-2.39c-0.59-1.08-2,0.12-3.84,0.14
		c-1.88,0.02-3.22-1.25-3.7-0.07L51.98,30.74z"/>
	<path style="fill:#3F4040;" d="M67.56,30.49c-0.83,0.88,1.06,2.48,3.67,2.42c2.97-0.07,4.34-1.66,3.57-2.6
		c-0.78-0.93-1.45,0.43-3.6,0.45c-1.89,0.01-2.79-1.18-3.64-0.28V30.49z"/>
</g>
<path style="fill:#C48E6A;" d="M63.98,35.32c-1.57,0.03-2.16-0.5-2.72,0.06c-0.51,0.52-0.05,1.26,0.79,1.91
	c1.15,0.89,2.93,0.86,3.86,0.04s1.31-1.51,0.72-2.01S65.58,35.29,63.98,35.32z"/>
<path style="fill:#A87254;" d="M16.03,97.45c0.32,0.43,0.99,0.8,0.99,0.8s0.44-0.44,1.27-0.31s1.2,0.82,1.2,0.82s0.63,0.1,1.58-0.1
	s1.44-0.48,2.19-0.35s0.86,0.79,1.61,0.35s0.03-1.82-1.47-1.92s-3.01,1.2-5.58,0.31c-0.96-0.33-1.68-1.57-1.94-1.49
	c-0.32,0.09-0.4,1.12,0.16,1.89L16.03,97.45z"/>
<path style="fill:#F06E00;" d="M79.84,52.35c-3.25-1.25-9.65-2.71-9.65-2.71S69.7,53.77,64.18,54s-6.64-4.11-6.64-4.11
	s-5.49,0.86-9.84,2.96c-3.63,1.75-7.12,4.41-8.86,9.56s-1.8,9.07-2.24,10.55s-1.17,2.96-0.79,3.6c0.52,0.89,1.68,1.75,3.95,3.5
	s4.56,2.61,4.56,2.61l2.62-1.57l1.57,2.97c0,0,0.09,3.58,0,4.71s-0.69,3.09,0,3.53s7.68,4.06,16.75,3.71
	c9.08-0.35,15.85-3.26,16.23-4.45c0.27-0.83,0-1.43-0.03-2.79c-0.08-2.63-0.23-6.11-0.23-6.11l1.57-4.1l2.53,2.09
	c0,0,1.79-0.89,4.14-2.64c2.36-1.75,3.54-2.77,3.54-3.56s-0.64-1.22-1.07-3.05s-2.35-8.79-4.78-12.66S82.9,53.52,79.84,52.35
	L79.84,52.35z"/>
<g>
	<path style="fill:#DA4C00;" d="M81.22,82.66c0,0-0.41-4.77-0.46-6.66s-0.97-6.75,0.46-7.18c1.69-0.51,2.26,3.8,2.57,5.75
		s1.53,6.09,1.53,6.09s-1.12,0.78-2.05,1.19S81.22,82.66,81.22,82.66z"/>
	<path style="fill:#DA4C00;" d="M44.31,82.66c0,0,0.8-4,1.1-6.51s0.67-6.05,1.13-6.72s1.64-0.62,1.85,0.41s0,7.9,0,9.29
		s0.11,4.93,0.11,4.93s-0.86-0.29-1.97-0.6c-1.42-0.41-2.21-0.79-2.21-0.79L44.31,82.66z"/>
	<path style="fill:#DA4C00;" d="M63.94,59.62c-4.52,0.04-6.89-1.71-9.51-3.49c-2.75-1.88-4.79-4.1-4.79-4.1s1.72-0.69,3.55-1.21
		s4.35-0.94,4.35-0.94s1.68,4.22,6.64,4.11c5.19-0.11,6.01-4.36,6.01-4.36s2.54,0.61,4.26,1.02s4.32,1.32,4.32,1.32
		s-4.26,3.37-5.74,4.41s-4.1,3.18-9.08,3.23L63.94,59.62z"/>
</g>
</svg>
