<?xml version="1.0" encoding="utf-8"?>
<!-- Generator: Adobe Illustrator 26.3.1, SVG Export Plug-In . SVG Version: 6.00 Build 0)  -->
<svg version="1.1" id="a" xmlns="http://www.w3.org/2000/svg" xmlns:xlink="http://www.w3.org/1999/xlink" x="0px" y="0px"
	 viewBox="0 0 128 128" style="enable-background:new 0 0 128 128;" xml:space="preserve">
<path style="fill:#312D2D;" d="M73.02,9.22c0,0-1.37-6.31-11.86-4.91s-13.01,10.17-17.33,9.83c-4.55-0.36-3.23-3.84-4.27-3.99
	s-3.83,2.3-3.4,5.57s1.09,3.55,1.09,3.55s-4.36,1.42-5.11,7.54c-0.96,7.83,3.97,10.56,3.97,10.56s-3.54,4.06-0.17,10.88
	c2.32,4.68,5.36,4,5.72,6.82s-1.77,3.2-1.5,4.4s1.64,2.03,3.26,2.52c2.4,0.73,4.06-0.32,4.06-0.32s1.77,2.5,5.38,2.66
	c4.69,0.2,7.35-3.22,7.35-3.22l5.02-2.63c0,0,6.87,2.88,13.94,1.94c7.07-0.94,9.33-3.4,9.27-3.78s-1.56-1.54-1.56-1.54
	s2.37,0.25,4.74-1.43s1.84-3.62,1.36-4.25s-3.59-0.39-3.72-3.46c-0.2-4.78,4.29-5.21,3.01-13.11c-1.01-6.22-5.06-7.59-5.06-7.59
	s3.27-5.94-3.18-12.46C78.35,7.05,73,9.24,73,9.24L73.02,9.22z"/>
<path style="fill:#EDBD82;" d="M82.48,45.11c0,0,4.72-1.67,3.86-6.82c-0.9-5.43-4.87-4.93-4.87-4.93l1,11.75H82.48z"/>
<path style="fill:#F06E00;" d="M97.87,104.5l12.73-0.41c0,0-1.91-16.6-8.09-27.19c-6.86-11.73-15.7-15.5-15.7-15.5l-21.41,13
	l12.85,32.59l19.63-2.5L97.87,104.5z"/>
<path style="fill:#DA4C00;" d="M18.85,99.04c0,0,6.29-14.55,16.3-25.01c10.97-11.47,19.93-15.62,19.93-15.62l22.85,0.2
	c0,0,2.38,0.62,4.65,1.24s4.23,1.55,4.23,1.55s-1.34,3.62-4.85,7.13c-3.51,3.51-8.68,5.06-8.68,5.06S18.85,99.04,18.85,99.04z"/>
<polygon style="fill:#AD3900;" points="37.48,102.76 81.11,90.01 73.86,71.9 47.89,75.65 38.55,99.35 "/>
<path style="fill:#EDBD82;" d="M42.3,47.9c1.31,4.61,6.72,4.62,6.72,4.62l-1.51-9.72l-2.27-1.13C45.24,41.67,40.69,42.24,42.3,47.9z
	"/>
<path style="fill:#EDBD82;" d="M60,60.49l0.62,8.41c0,0,2.54,2.68,9.23,1.72s8.01-3.82,8.14-4.38s-0.32-10.48-0.32-10.48
	S60,60.49,60,60.49z"/>
<path style="fill:#F9DDBD;" d="M44.58,38.72c0,0,1.09,11.52,6.84,17.49s11.86,8.33,19.23,6.26c7.37-2.06,12.82-9.21,13.11-18.05
	c0.12-3.72-0.07-6.44-0.33-8.35c-0.36-2.64-1.87-5.42-1.87-5.42s-3.09-6.4-8.42-7.42c-3.38-0.64-4.82,1.52-4.82,1.52
	s-3.62-2.62-8.21,0.07c-2.99,1.76-5.29,8.02-9.06,11.61c-2.57,2.45-6.48,2.29-6.48,2.29H44.58z"/>
<path style="fill:#DBA689;" d="M63.07,48.58c0.3,1.15,3.24,2.03,4.59,1.7c1.89-0.46,3.44-3.05,2.69-3.74
	c-0.92-0.84-2.72,1.03-3.31,1.11c-1.18,0.16-4.33-0.46-3.96,0.92L63.07,48.58z"/>
<path style="fill:#1A1717;" d="M62.62,54.38c0.41,1.12,3.57,1.47,5.77,1.15s6.09-3.18,4.82-4.23c-1.11-0.91-2.88,0.98-4.88,1.41
	c-1,0.21-2.34,0.34-3.54,0.46c-0.64,0.06-1.28,0-1.7,0.23c-0.37,0.19-0.59,0.62-0.46,0.98H62.62z"/>
<path style="fill:#1A1717;" d="M68.41,32.48c0.34,1.13,1.45,0.7,4.63,0.05s4.85-0.75,4.69-1.83c-0.18-1.17-2.32-0.95-5.06-0.86
	C69.38,29.95,68.04,31.24,68.41,32.48z"/>
<path style="fill:#1A1717;" d="M49.2,38.67c0.87,1,3.23-0.7,4.79-1.35s4.63-1.24,4.47-2.53s-3.18-0.92-5.33-0.05
	c-0.85,0.34-2.39,1.2-3.18,2.05s-1.03,1.57-0.75,1.89L49.2,38.67z"/>
<path style="fill:#312D2D;" d="M43.7,39.22c0,0,2.03,8.4,2.87,8.26s-0.14-10.64-0.14-10.64l-3.01,0.14
	C43.42,36.98,43.7,39.22,43.7,39.22z"/>
<path style="fill:#312D2D;" d="M82.78,30.34c0,0,0.99,2.3,1.3,5.57c0.31,3.28-0.06,5.82-0.25,5.07s-2.57-11.5-2.63-12.18
	C80.98,26.43,82.78,30.34,82.78,30.34z"/>
<path style="fill:#1A1717;" d="M50.48,43.47c-0.21,1.01,1.78,2.69,5.06,2.21s5.28-2.91,4.52-4.04c-0.75-1.13-2.21,0.54-4.96,1.08
	C52.77,43.18,50.68,42.45,50.48,43.47L50.48,43.47z"/>
<path style="fill:#1A1717;" d="M69.47,39.34c-0.54,1.45,2.28,2.42,5.22,1.58s4.65-3.41,3.34-4.27c-0.72-0.46-1.41,0.74-3.91,1.54
	C71.95,38.88,69.96,38.03,69.47,39.34z"/>
<g>
	<path style="fill:#FFFDE7;" d="M75.7,69.43c0,0-1.23-6.1-6.9-9.18s-11.09-5.48-11.58-5.48s-5.36,0.8-8.07,6.53
		s-0.86,10.72-0.62,11.39s12.19,6.22,16.63,7.02s7.27-2.09,7.27-2.09l3.26-8.19H75.7z"/>
	<path style="fill:#F9D6BB;" d="M51.51,65.33c0,0,0.3-2.43,1.47-3.84s1.96-1.96,1.96-1.96l8.01,2.83l-0.74,1.85
		c0,0-4.5-0.86-6.22-0.68s-4.49,1.8-4.49,1.8H51.51z"/>
	<path style="fill:#FFEBB1;" d="M72.44,67.03c0,0-2.16-3.33-5.54-5.23s-8.01-4-8.93-4s-3.02,1.72-3.02,1.72s1,1.03,3.2,2.03
		c2.51,1.14,3.94,1.42,4.06,1.6c0.27,0.41,0,1.05,0,1.05s3.82,0.99,5.23,1.42s4.87,1.6,4.99,1.42L72.44,67.03z"/>
</g>
<path style="fill:#4396A9;" d="M70.59,72.04c-2.52,3.94-2.15,7.65-2.15,7.65s1.55-0.21,2.66-0.95s5.06-7.89,4.84-8.73
	s-0.6-1.85-0.6-1.85S72.67,68.8,70.59,72.04z"/>
<g>
	<path style="fill:#6DCBE0;" d="M70.16,79.22c0,0-0.32-2.73,1.67-5.93s3.93-3.78,3.93-3.78s2.43,0.12,3.95,1.48
		c2.01,1.8,1.96,3.4,1.96,3.4l-4.63,7.93c0,0-1.82,0.88-4.4-0.6c-1.83-1.04-2.49-2.49-2.49-2.49L70.16,79.22z"/>
	<path style="fill:#50AFC4;" d="M79.93,74.74c0,0-1.81-1.57-2.76-2.2s-2.48-1.54-3-0.71s1.12,1.48,2.53,2.52s2.44,1.97,2.44,1.97
		l0.78-1.58H79.93z"/>
	<path style="fill:#50AFC4;" d="M77.74,78.52c0,0-1.85-0.55-2.96-1.11s-2.4-1.79-3.08-0.99s0.99,2.03,2.34,2.77s3.7,1.05,3.7,1.05
		S77.74,78.52,77.74,78.52z"/>
</g>
<g>
	<path style="fill:#FDFEFA;" d="M76.88,85.08c0,0-0.15-3.08-0.07-3.78c0.48-4.04,1.78-7.14,6.3-9.75
		c4.82-2.79,10.34-2.27,13.76-0.36c3.51,1.96,5.21,4.8,5.21,4.8L83.67,94.33l-6.8-9.24L76.88,85.08z"/>
	<path style="fill:#DFD7C5;" d="M76.79,81.54c0,0,1.53,3.11,4.34,4.01c1.85,0.59,2.57,0.1,2.57,0.1l0.58,10.01l-5.19-5.03
		l-2.22-5.55c0,0-0.1-0.54-0.13-0.78C76.68,83.83,76.78,81.54,76.79,81.54L76.79,81.54z"/>
	<path style="fill:#C6E1A5;" d="M84.47,91.66c0,0-3.9-8.66,0.68-14.93c4.57-6.25,13.09-3.99,13.09-3.99c1.89,0.36,6.53,3,7.12,8.2
		c0.53,4.69-3.57,11.42-3.57,11.42l-17.32-0.71L84.47,91.66z"/>
	<path style="fill:#A1C07D;" d="M83,85.71c0,0,5.38,6.96,14.52,5.11c9.4-1.9,7.32-11.72,7.32-11.72s5.78,9.49-2.09,16.12
		c-1.61,1.35-13.68,11.9-13.68,11.9s-3.59-8.42-4.39-10.69C82.8,91.14,83,85.72,83,85.72L83,85.71z"/>
</g>
<g>
	<path style="fill:#C7C7C7;" d="M35.25,105.85L35,111.53c0,0-0.4,3.63,2.8,6.83c5.1,5.1,16.51,4.64,16.51,4.64l12.37-7.93
		l-4.11-8.31L55.82,101l-20.57,4.86V105.85z"/>
	<path style="fill:#E0E0E0;" d="M40.76,99.27c0,0,2.96-3.13,5.43-4.77c2.47-1.65,12.26-5.6,14.89-6.42s9.24-3.34,9.24-3.34
		l1.3,12.48l-7.13,8.63l-7.6-2.13c0,0-0.82,0.74-0.25,2.55s2.3,3.13,2.3,3.13l-9.62,1.17c0,0-3.63-0.1-7.08-0.18
		s-7.08-0.91-7.08-0.91l5.6-10.2L40.76,99.27z"/>
	<path style="fill:#9A9A9A;" d="M70.33,84.73c0,0,2.16-0.66,3.66-0.78s2.76-0.12,2.76-0.12s1.98,5.15,6.11,9.53s8.93,7.91,8.93,7.91
		l-11.15,11.15l-17.56-4.79c0,0,0.89-7.51,3.48-14.02c2.76-6.95,3.78-8.87,3.78-8.87L70.33,84.73z"/>
	<path style="fill:#C7C7C7;" d="M72.6,99.83l-5.33,6.77l8.63,2.22l14.14-5.69l-1.2-0.66c0,0-3.54-3.12-5.75-5.21
		s-3.72-4.61-3.72-4.61L72.6,99.83L72.6,99.83z"/>
	<path style="fill:#E0E0E0;" d="M66.27,105.84c0,0,1.9-8.23,3.52-12.6s3.48-9.29,4.13-9.11s5.45,8.51,5.45,8.51
		s-1.44,4.79-4.13,7.61s-7.55,5.81-7.55,5.81S66.27,105.84,66.27,105.84z"/>
</g>
<path style="fill:#D89852;" d="M58.2,102.69c0,0-1.05,0.6-0.7,1.75s1.6,2.25,2.55,2.8s2.05,1.1,1.45,1.55s-12.12,1.77-12.12,1.77
	s-0.72,1.87,1.48,2.32s6.55,0.85,6.55,0.85s3.3,0.13,3.25,0.73s-9.96,0.07-9.96,0.07s-2.34,0.28-2.34,1.59
	c0,0.96,1.24,1.45,1.24,1.45s-1.03,0.71-0.34,1.7c0.91,1.31,3.6,1.5,3.6,1.5s-0.84,0.3-0.28,1.3s3.28,1.65,9.78,1.8
	c7.88,0.18,11.47-1.62,11.47-1.62l2.84-6.76l-12.16-9.66l-6.3-3.15L58.2,102.69z"/>
<path style="fill:#F9DDBD;" d="M73.56,107.6c0,0-1.07-0.3-4.91-1.49c-3.7-1.14-5.57-1.82-7.39-2.65c-1.35-0.62-2.7-1.15-3.06-0.79
	c-0.41,0.41,0.41,1.85,1.73,2.74s4.01,2.15,3.83,2.92s-4.62,0.94-7.37,1.13s-6.67,0.24-7.06,1.09s1.41,1.1,2.31,1.22
	c1.26,0.17,6.19,0.69,7.48,0.74c2.52,0.1,3.38,0.31,3.4,0.89c0.03,0.86-8.48,0.91-10.11,0.96c-1.22,0.04-2.98,0.07-3.25,0.7
	c-0.45,1.07,4.04,1.35,6.43,1.35c1.34,0,5.94-0.11,5.97,0.66c0.03,0.71-5.11,0.78-6.34,0.78c-1.46,0-5.35-0.25-5.35-0.25
	s-0.16,0.74,0.64,1.2c0.86,0.5,3.18,0.78,5.03,0.78c2.35,0,6.27-0.28,6.32,0.4c0.05,0.73-3.16,0.88-4.08,0.84
	c-0.82-0.03-3.79-0.11-4.29-0.04c-0.43,1.42,4.79,1.83,8.08,1.81c8.26-0.05,15.14-4.4,15.14-4.4l1.4-6.44l-4.54-4.17L73.56,107.6z"
	/>
<g>
	<path style="fill:#F06E00;" d="M110.59,104.13c0,0-0.52-10.77-7.99-8.89c-7.37,1.86-13.53,7.77-19.47,9.88
		c-4.75,1.69-9.84,2.39-9.84,2.39s0.74,2.28,0.74,4.65c0,2.39-0.13,4.87-0.13,4.87l18,0.97l16.4-7.35c0,0,2.37-4.11,2.28-6.54
		L110.59,104.13z"/>
	<path style="fill:#DA4C00;" d="M81.3,121.3c-3.58,0.32-7.62,1.1-7.62,1.1l0.23-5.38c0,0,5.26-0.66,8.32-0.76s7.45-0.24,15.49-2.78
		s12.88-9.4,12.88-9.4s0.2,4.94-2.1,8.45c-2.35,3.58-7.31,5.67-8.89,6.1c-6.84,1.88-16.7,2.51-18.31,2.66V121.3z"/>
</g>
<g>
	<path style="fill:#DA4C00;" d="M36.26,87.13l-17.77,23.65c0,0,1.6,5.23,8.29,5.23s9.59-5.91,11.82-10.59
		c2.23-4.68,7.94-17,8.27-18.01s-1.8-2.51-1.8-2.51L36.26,87.13z"/>
	<path style="fill:#F06E00;" d="M41.61,75.42l-5.06,4.06c0,0-7.54,7.87-9.77,10.1s-5.02,4.68-6.02,6.02s-3.62,5.78-3.34,10.15
		c0.2,3.18,1.08,5.08,1.08,5.08s7.61,0.27,9.73-0.96c2.12-1.23,8.81-10.59,11.04-14.61c2.23-4.01,6.36-12.71,6.36-12.71l-4.01-7.14
		L41.61,75.42z"/>
</g>
<path style="fill:#D89852;" d="M43.96,79.54l-2.67,5.63c0,0,2.08,1.1,4.48,0.89c3.08-0.27,4.97-2.74,4.94-2.61
	c-0.05,0.23,0,1.12,0.84,1.12s3.56-0.72,4.39-1.26s1.41-1.46,1.41-1.46s1.01,0.24,1.42-0.83s0.24-4.8,0.24-4.8l-1.22-3.14
	c0,0,4-1.36,5.9-2.01c1.9-0.65,3.61-1.07,3.79-2.01s-0.06-1.51-0.06-1.51l-13.14,2.3c0,0,0.15-1.48,0.56-2
	c0.45-0.57,2.67-2.26,4.1-3.06c1.54-0.87,3.29-2.03,3.97-2.62s0.89-1.54,0.63-2.12c-0.22-0.5-0.7-0.42-0.7-0.42L49,68.12
	l-5.04,11.44V79.54z"/>
<path style="fill:#F9DDBD;" d="M36.55,79.48c0,0,4.62-5.81,6.58-7.88s6.64-6.58,10.01-8.35c3.38-1.78,9.35-3.61,9.72-3.63
	c0.83-0.06,0.27,1.1-0.32,1.51s-5.85,3.25-6.5,3.78s-3.61,2.73-3.02,3.61s4.44-0.89,6.4-1.24s7.05-0.24,7.76,0.06
	s0.06,1.66-2.01,1.9s-3.92,0.5-4.5,0.59s-5.93,2.07-5.93,2.07s3.75,0.49,4.54,2.04c2.25,4.44-0.86,7.8-1.22,7.86
	s0.95-3.79-0.59-5.39s-3.67-1.54-4.38-1.36s-0.71,1.01,0.24,1.19s3.07,0.27,3.44,1.48c0.53,1.78,0.06,5.55-2.13,6.14
	s-3.71,1.14-3.63,0.3c0.18-1.96,2.98-2.23,3.04-3.95c0.03-0.77-1.19-1.36-1.84-1.3s-3.13,2.95-5.1,4.21
	c-2.71,1.74-5.81,2.07-5.81,2.07s-2.4-1.34-3.32-2.67c-1.07-1.54-1.42-3.02-1.42-3.02L36.55,79.48z"/>
</svg>
