<?xml version="1.0" encoding="utf-8"?>
<!-- Generator: Adobe Illustrator 26.3.1, SVG Export Plug-In . SVG Version: 6.00 Build 0)  -->
<svg version="1.1" id="a" xmlns="http://www.w3.org/2000/svg" xmlns:xlink="http://www.w3.org/1999/xlink" x="0px" y="0px"
	 viewBox="0 0 128 128" style="enable-background:new 0 0 128 128;" xml:space="preserve">
<path style="fill:#AB872F;" d="M75,14.53c0,0-0.61-10.26-17.47-10.63S34.56,16.73,27.84,15.14c-7.07-1.67-4.15-6.84-5.74-7.33
	s-6.6,2.69-6.72,7.94c-0.12,5.25,0.86,5.86,0.86,5.86s-7.22,1.16-9.9,10.63c-3.42,12.09,3.67,17.59,3.67,17.59s-6.57,5.52-2.92,17.1
	c2.5,7.94,7.46,7.61,7.34,12.13s-3.56,4.61-3.44,6.56s2.09,3.6,4.52,4.76c3.6,1.73,6.47,0.49,6.47,0.49s2.18,4.37,7.82,5.5
	c7.33,1.47,13.11-1.94,13.11-1.94l7.8-4.26c0,0,10.11,6.22,21.48,6.46c11.36,0.24,15.52-3.08,15.52-3.69s-2.08-2.81-2.08-2.81
	s3.67,0.98,7.82-1.1s3.79-5.25,3.18-6.35s-5.56-1.49-5.01-6.35c0.86-7.57,8.03-7.16,7.94-19.91c-0.07-10.04-6.11-13.19-6.11-13.19
	s6.6-8.55-1.95-20.4c-7.54-10.44-16.49-8.31-16.49-8.31L75,14.53z"/>
<path style="fill:#C48E6A;" d="M40.55,98.17c0,0,1.62,15.51,12.33,15.62c9.64,0.1,11.66-14.57,11.66-14.57l-0.1-6.14H40.6
	C40.6,93.08,40.55,98.17,40.55,98.17z"/>
<g>
	<path style="fill:#DBA689;" d="M16.91,55.69c0,0-6.83,1.09-5.17,10.32c1.97,10.95,12.36,8.11,12.36,8.11l-5.02-6.28
		c0,0-1.06-3.19-1.55-6.57c-0.48-3.38-0.63-5.59-0.63-5.59L16.91,55.69z"/>
	<path style="fill:#DBA689;" d="M87.81,56.48c1.16-0.48,6.31,0.47,5.73,8.37c-0.73,10.01-7.38,10.21-9.02,10.21
		s-5.37-4.51-5.37-4.51s6.97-2.44,7.63-4.15S87.81,56.49,87.81,56.48L87.81,56.48z"/>
</g>
<g>
	<path style="fill:#EFEFEF;" d="M52.46,121.47c0,0,2.67-4.51,6.54-7.1c-1.99-3.14-4.62-5.69-6.53-5.93c0,0-3.05,0.4-4.62,1.92
		s-2.47,3.63-2.47,3.63c3.12,2.58,7.08,7.47,7.08,7.47V121.47z"/>
	<path style="fill:#EFEFEF;" d="M40.43,94.77c-2.81,0.72-4.91,1.83-7.25,2.69c0.84,6.64,4.79,17.07,8.99,19.76l10.3-8.79
		C44.1,104.05,41.21,95.97,40.43,94.77z"/>
	<path style="fill:#EFEFEF;" d="M64.49,95.11c-0.78,1.21-3.69,8.95-12.01,13.33l8.8,8.46c4.95-2.91,9.22-12.75,10.43-19.4
		c-2.16-1.11-4.65-2.08-7.21-2.4L64.49,95.11z"/>
</g>
<path style="fill:#545454;" d="M88.64,103.04c-5.77-2.84-11.56-4.42-16.99-5.31c-0.79,3.96-3.47,8.09-6.47,11.46
	c-3.6,4.05-10.56,8.56-12.74,8.63c-2.19,0.07-10.17-5.9-12.55-8.59c-3.04-3.42-6.08-7.57-6.67-11.57c-0.77,0.13-1.54,0.27-2.31,0.43
	c-8.79,1.84-15.44,6.41-19.32,10.17c-4.91,4.74-8.61,13.69-7.87,15.22c0.44,0.91,23.57,0.6,48.44,0.44
	c25.13-0.17,50.27,0.37,50.32-0.12C102.57,122.81,99.27,108.28,88.64,103.04L88.64,103.04z"/>
<g>
	<g id="b">
		<path style="fill:#DD8A3E;" d="M99.66,123.99l1.79-9.03c0.07-0.32,0.18-0.62,0.32-0.92l4.38-9c1.14-2.36-0.63-3.42-3.16-4.14l0,0
			c-2.53-0.71-4.6-0.73-4.84,1.89l-0.97,9.96c-0.02,0.33-0.1,0.63-0.2,0.95l-3.8,10.29C93.18,123.99,99.66,123.99,99.66,123.99z"/>
		<path style="fill:#DD8A3E;" d="M103.51,93.4l2.55,0.72c1.86,0.53,2.96,2.48,2.44,4.36l-0.17,0.61c-0.53,1.86-2.48,2.96-4.36,2.44
			l-2.55-0.72c-1.86-0.53-2.96-2.48-2.44-4.36l0.17-0.61C99.68,93.97,101.64,92.87,103.51,93.4z"/>
		
			<rect x="101.02" y="72.97" transform="matrix(0.2709 -0.9626 0.9626 0.2709 -4.2945 166.8986)" style="fill:#995F33;" width="14.02" height="26.62"/>
		<path style="fill:#DD8A3E;" d="M110.49,95.74l-10.87-3.02c-1.55-0.43-3.38-1.38-1.92-5.4l3.04-9.15c0.43-1.49,2.02-2.36,3.58-1.93
			l10.87,3.02c1.55,0.43,2.63,0.97,2.04,3.48l-3.16,11.07c-0.44,1.51-2.04,2.38-3.58,1.94V95.74z"/>
		<path style="fill:#DD8A3E;" d="M97.11,82.14c1.77-6.28,2.33-7.66-0.11-8.35c-2.44-0.69-5.08,2.59-6.43,7.36
			c-1.34,4.77-0.88,9.23,1.56,9.92C94.57,91.76,95.34,88.42,97.11,82.14z"/>
		<path style="fill:#DD8A3E;" d="M117.55,88.92c1.77-6.28,2.01-8.78,4.46-8.09c2.44,0.69,3,4.88,1.66,9.65
			c-1.34,4.77-4.08,8.31-6.52,7.63c-2.44-0.69-1.36-2.91,0.41-9.19H117.55z"/>
	</g>
	<path style="fill:#995F33;" d="M98.97,96.45c0,0,2.03,1.28,4.43,1.92c2.75,0.74,5.01,0.08,4.92,0.71s-1.3,3.65-5.72,2.37
		c-3.53-1.02-4.31-3.17-3.63-5.01V96.45z"/>
</g>
<path style="fill:#666666;" d="M43.63,118.99c-7.81,0-14.15-0.17-14.93-0.7c-1.98-1.32-12.22-13.22-12.65-13.72l0.95-0.65
	c2.91,3.38,10.81,12.39,12.34,13.41c1.99,0.99,43.38,0.31,46.62-0.05c1.01-0.91,7.81-9.33,11.99-14.58l1.04,0.51
	c-11.72,14.73-12.42,15.09-12.62,15.16c-0.2,0.07-18.81,0.61-32.73,0.61L43.63,118.99z"/>
<path style="fill:#666666;" d="M16.78,124.09h-1.13c0.05-0.17,1.22-3.73,2.83-6.27c1.88-2.98,4.63-5.67,4.75-5.78l0.8,0.82
	c0,0-2.77,2.71-4.58,5.57C17.92,120.85,16.8,124.05,16.78,124.09L16.78,124.09z"/>
<path style="fill:#666666;" d="M26.68,124.08h-1.17c0.02-0.08,0.37-1.8,1.08-3.47c0.87-2.03,1.97-3.16,2.01-3.21l0.82,0.8
	c0,0-1,1.04-1.78,2.86C26.97,122.61,26.71,123.94,26.68,124.08L26.68,124.08z"/>
<path style="fill:#666666;" d="M88.14,123.97h1.23c-0.05-0.15-1.32-3.99-2.93-6.54c-1.88-2.98-4.63-5.67-4.75-5.78l-0.8,0.82
	c0,0,2.77,2.71,4.58,5.57c1.53,2.42,2.66,5.89,2.67,5.92V123.97z"/>
<path style="fill:#666666;" d="M78.26,123.92h1.18c-0.02-0.08-0.41-2.02-1.12-3.68c-0.87-2.03-1.97-3.16-2.01-3.21l-0.82,0.8
	c0,0,1,1.04,1.78,2.86C77.94,122.24,78.26,123.9,78.26,123.92L78.26,123.92z"/>
<path style="fill:#E0BB95;" d="M23.2,45.5c-1.06,1.16-0.85,20.65-2.09,21.99c-1.07,1.16-2.15-0.09-2.15-0.09s4.97,29.01,34.1,29.03
	c12.94,0,20.33-5.09,25.27-11.09c7.33-8.9,8.45-18.95,8.45-18.95s-0.42,1.18-1.48,1.03c-0.65-0.09-1.29-0.15-1.57-1.81
	c-0.31-1.93-1.45-20.81-6.07-25.16c-5.16-4.86-9.42-3.95-9.42-3.95s-1.9-5.03-9.87-6.27c-6.29-0.98-11.19,3.53-21.29,9.67
	C31.22,43.46,23.2,45.49,23.2,45.5L23.2,45.5z"/>
<g>
	<path style="fill:#9B782C;" d="M27.38,50.01c0.83,1.34,3.52-0.78,7.97-0.91c3.64-0.1,6.82,2.49,7.57,0.13
		c0.89-2.8-2.1-4.01-7.5-3.75c-5.53,0.26-9.14,2.75-8.03,4.54L27.38,50.01z"/>
	<path style="fill:#9B782C;" d="M62.65,49.83c1.84,0.51,3.24-0.83,6.99-0.57c3.5,0.24,6.93,1.78,7.95,0.64s-1.6-3.89-7.38-4.45
		c-5.21-0.51-8.31,0.67-8.69,1.82c-0.38,1.14,0.36,2.36,1.12,2.57L62.65,49.83z"/>
</g>
<g>
	<path style="fill:#3F4040;" d="M35.42,53.41c-4.26-0.06-5.91,3.62-5.66,6.23s2.23,5.09,5.98,5.02c3.57-0.06,5.53-2.42,5.53-5.53
		S39.36,53.47,35.42,53.41z"/>
	<path style="fill:#3F4040;" d="M69.85,53.29c-3.18-0.34-6.1,1.91-5.98,5.72c0.14,4.26,3.87,5.6,5.91,5.6
		c2.92,0,5.28-2.16,5.34-5.28c0.06-3.5-1.72-5.66-5.28-6.04H69.85z"/>
</g>
<path style="fill:#C48E6A;" d="M53.47,68.18c-3.19,0.06-4.38-1.02-5.51,0.13c-1.03,1.05-0.11,2.55,1.61,3.88
	c2.33,1.81,5.94,1.75,7.82,0.08c1.86-1.66,2.65-3.06,1.46-4.08S56.73,68.13,53.47,68.18L53.47,68.18z"/>
<path id="c" style="fill:#785446;" d="M44.87,82.24c-2.14-0.99-2.44-3.63,0.25-3.66c0.56,0,4.66,0.56,8.41,0.56s7.67-0.42,8.23-0.49
	c2.83-0.37,2.59,2.74,0.59,3.52c-1.49,0.58-3.8,1.29-8.73,1.29C49.63,83.46,46.16,82.83,44.87,82.24L44.87,82.24z"/>
</svg>
