<?xml version="1.0" encoding="utf-8"?>
<!-- Generator: Adobe Illustrator 26.3.1, SVG Export Plug-In . SVG Version: 6.00 Build 0)  -->
<svg version="1.1" id="a" xmlns="http://www.w3.org/2000/svg" xmlns:xlink="http://www.w3.org/1999/xlink" x="0px" y="0px"
	 viewBox="0 0 128 128" style="enable-background:new 0 0 128 128;" xml:space="preserve">
<path style="fill:#BF3636;" d="M83.42,74.15l15.1-6.77c0,0,0.59,6.84,1.19,9.82s2.9,5.95,2.83,6.99s-2.83,0.74-4.39,0.3
	s-3.57-1.86-3.57-1.86s0.59,3.27,1.56,4.83s2.08,2.38,2.01,3.05s-3.64,2.6-8.11,1.12s-6.77-11.08-6.77-11.08
	S83.42,74.15,83.42,74.15z"/>
<path style="fill:#BF3636;" d="M45.94,64.85l-20.9,2.16c0,0-0.97,5.28-2.38,7.59s-3.35,4.31-3.35,5.13s2.97,2.53,5.87,2.16
	s4.83-1.78,4.83-1.78s0.37,3.12-1.34,6.1s-2.9,4.02-2.6,5.13s4.24,1.12,6.84,0s3.87-2.9,4.46-2.68s-0.15,4.09-0.97,6.25
	s-1.78,3.87-0.82,4.98s8.48-0.37,8.48-0.37l11.68-0.07l-0.97-22.01l-8.85-12.57C45.92,64.87,45.94,64.85,45.94,64.85z"/>
<path style="fill:#E26056;" d="M86.64,40.86l1.21,31.51l7.51-3.19l1.99-11.83c0,0-0.6-11.31-1.12-14.59
	C95.71,39.48,86.65,40.86,86.64,40.86L86.64,40.86L86.64,40.86z"/>
<path style="fill:#E26056;" d="M30.43,40.43l-3.2,6.38c0,0-0.08,7.43-0.25,12.01s3.71,10.53,3.71,10.53l4.23,1.04l3.28-31.17
	C38.2,39.22,30.43,40.43,30.43,40.43z"/>
<g>
	<path style="fill:#EDBD82;" d="M94.86,56.31c1.78-0.54,5.17,2.23,3.95,10.06c-1.01,6.42-5.49,7.04-7.29,6.58
		c-1.45-0.37-5.11-3.26-5.11-3.26s5.05,0.3,6.2-0.85c2.09-2.09,2.24-12.53,2.24-12.53S94.86,56.31,94.86,56.31z"/>
	<path style="fill:#EDBD82;" d="M28.94,56.23c0,0-5.57,0.85-4.18,9.44c1.61,9.93,11.48,7.28,11.48,7.28l-4.66-4.82
		c0,0-0.32,0.1-0.64-0.68c-0.4-0.96-0.86-3.03-1.28-5.39C29.12,59.04,28.94,56.23,28.94,56.23z"/>
</g>
<path style="fill:#EDBD82;" d="M51.45,90.85c0,0,0.38,2.98-0.92,4.89c-0.82,1.21-2.98,2.44-2.98,2.44l6.65,17.11l22.31,1.15
	l7.94-18.79L71.62,89.4C71.62,89.4,51.45,90.85,51.45,90.85z"/>
<path style="fill:#D25114;" d="M15.03,122.49c-0.61-0.44,0.84-7.56,6.64-12.94c5.8-5.38,11.11-7.15,11.11-7.15s14.35-4.86,14.7-4.8
	s1.83,3.41,5.53,5.81c4.24,2.76,6.55,2.69,7.06,3.11s3.87,8.4,4.37,8.4c0.5,0,2.69-7.56,3.36-8.15s4.9-0.36,8.26-3.56
	c3.36-3.19,3.49-4.98,3.49-4.98l10.85,1.56l-4.45,22.94H50.82c0,0-34.75,0.5-35.8-0.25l0,0L15.03,122.49z"/>
<path style="fill:#FF8E00;" d="M46.04,97.89c-0.47-0.7-13.18,3.98-13.26,4.51s-0.91,5.97-0.91,13.14c0,3.25,0.09,7.42,0.09,7.42
	s6.33-0.02,10.56-0.02s9.44-0.15,9.44-0.15s-2.47-10.17-3.47-14.58c-1.59-6.95-2.3-10.1-2.46-10.33h0.01L46.04,97.89z"/>
<path style="fill:#FF8E00;" d="M81.06,98.55c0,0-1.94,11.31-2.69,14.71c-0.76,3.4-1.68,9.46-1.68,9.46l19.32,0.23l1.13-16.09
	l-16.09-8.31C81.05,98.55,81.06,98.55,81.06,98.55z"/>
<path style="fill:#F9DDBD;" d="M37.3,40.83c-0.97,1.06-3.62,24.95-4.18,26.31c-0.5,1.22-1.55,1.01-1.55,1.01s4.18,24.91,31.51,25.34
	c25.67,0.4,29.51-24.6,29.51-24.6s-1.43,0.71-1.76-1.05c-0.33-1.75-1.32-26.61-4.73-30.72c-4.57-5.51-11.96-9.62-19.41-9.21
	c-10.09,0.55-29.4,12.94-29.4,12.94L37.3,40.83L37.3,40.83z"/>
<path style="fill:#FF9966;" d="M39.09,42.05c0,0-3.38,23.43-3.38,24.38s-0.32,2.32,1.69,1.27s4.22-2.32,4.22-2.32l-1.16,13.93
	c-0.21,2.53-0.48,4.87-0.48,4.87s0.38,0.42,0.8,0.81c0.36,0.34,1.23,1.1,1.23,1.1s7.47-15.17,11.7-23.05s8.34-16.56,9.14-18.05
	s-0.91-1.6-1.71-1.14s-5.71,2.74-5.71,2.74l2.63-11.54l-18.95,7H39.09z"/>
<path style="fill:#E26056;" d="M68.33,23.27l-34.4,2.85l6.65-14.14c0,0,6.97-5.7,21.11-6.02c15.51-0.35,24.59,8.97,24.59,8.97
	l4.43,10.66L68.33,23.27L68.33,23.27L68.33,23.27z"/>
<path style="fill:#CC094F;" d="M27.23,46.81c0.07,0.65,15.13-7.6,36.14-7.5c21,0.11,32.08,7.28,33.14,6.65s0-7.92-0.84-12.66
	s-3.59-10.34-3.59-10.34s-10.95-3.93-29.54-4.29s-28.82,5.34-28.82,5.34s-3.27,3.27-4.54,6.54c-1.35,3.49-2.09,14.79-1.94,16.26
	C27.24,46.81,27.23,46.81,27.23,46.81z"/>
<path style="fill:#757575;" d="M73.32,82.43c-5.59,5.75-1.27,12.34-1.27,12.34l1.81,2.3c0,0,6.71,5.63,13.02-1.03
	c6.32-6.66,0.6-12.71,0.6-12.71s-1.29-1.47-1.98-1.98s-7.15-4.11-12.19,1.08C73.31,82.43,73.32,82.43,73.32,82.43z"/>
<path style="fill:#81AEC0;" d="M87.66,99.68l-3.04,4.24c0,0-3.96-3.61-4.01-4.54s0.54-4.06,3.48-6.71c2.94-2.64,5.61-2.09,6.01-2.04
	s4.32,3.7,4.37,4.29s-6.81,4.75-6.81,4.75l0,0L87.66,99.68z"/>
<path style="fill:#93D1E0;" d="M81.32,97.45c0.16,0.53,1.62,2.11,2.15,2.11s1.98-2.18,3.9-3.78c2.19-1.83,4.55-2.15,4.67-2.4
	s-2.4-2.76-2.72-2.8s-2.32-0.41-5.08,1.83C82.16,94.09,81.03,96.51,81.32,97.45z"/>
<path style="fill:#81AEC0;" d="M80.04,85.66l-2.78,0.65c0,0-2.27,1.99-4.07,5.25c-0.85,1.54-1.29,2.55-1.29,3.19s0.42,1.35,0.81,1.8
	s1.12,0.73,1.51,0.77c0.28,0.03,0.58-1.55,1.45-3.1s2.44-3.54,2.44-3.54l1.94-5.03L80.04,85.66L80.04,85.66z"/>
<path style="fill:#93D1E0;" d="M80.1,83.72c-2.88,2.06-5.12,4.59-5.17,5.5s0.22,1.06,0.7,1.52c0.68,0.64,1.42,0.85,1.97,0.53
	s1.9-2.51,4.41-4.49c3.24-2.55,6.02-2.66,6.02-3.02s-0.32-1.29-1.19-1.84s-1.51-0.61-1.51-0.61S82.51,82,80.1,83.72L80.1,83.72
	L80.1,83.72z"/>
<path style="fill:#F9DDBD;" d="M90.48,114.96l-4.29-5.4l-0.82,0.53c0,0-2.46-0.58-3.09,2.22s1.16,5.88,6.51,8.68
	c7.15,3.74,17.27,1.64,17.27,1.64l-0.14-7.09l-15.43-0.58C90.49,114.96,90.48,114.96,90.48,114.96z"/>
<path style="fill:#D89852;" d="M99.02,99.82l-7.28-2.12l-7.04,6.66l-1.07,0.56c0,0-0.73,4,1.75,5.18c1.39,0.66,2.09,1.37,2.57,2.86
	c0.61,1.9,0.32,3.17,0.32,3.17s2.22,2.99,6.94,3.76c4.73,0.77,9.4,0.34,9.4,0.34l6.85-4.15c0,0-0.19-3.23-1.54-5.5
	C109.07,109.15,99.02,99.83,99.02,99.82L99.02,99.82L99.02,99.82z"/>
<path style="fill:#F9DDBD;" d="M84.79,107.87c1.89,0.79,1.16-3.18,4.2-6.27c1.94-1.98,3.71-2.8,4.73-2.22s-1.63,1.55-3.27,3.39
	c-1.9,2.12-2.68,4.18-2.76,5.82c-0.1,1.88,1.4,2.8,2.27,0.63c0.47-1.16,1.59-3.6,3.4-5.22c1.4-1.25,3.2-1.82,3.97-1.19
	s-1.21,0.78-3.33,3c-1.94,2.02-3.27,4.57-3.47,5.83c-0.21,1.28,0.92,2.22,1.45,1.74s2.35-3.79,4.09-5.49
	c1.88-1.83,3.91-2.8,4.54-1.93s-1.16,1.62-2.99,3.36c-1.79,1.7-3.47,4.17-3.38,5.62s1.35,1.93,1.93,1.54s4.19-5.66,9.16-6.85
	c3.23-0.77,4.58,0.96,4.58,0.96s-1.16-4.97-7.23-11.24c-4.94-5.09-7.72-4.42-8.83-4.44c-2.46-0.05-5.51,1.4-7.91,4.44
	c-2.75,3.47-3.23,7.67-1.16,8.54v-0.02L84.79,107.87z"/>
<path style="fill:#DBA689;" d="M62.23,66.39c-2.99,0.06-4.11-0.96-5.17,0.12c-0.97,0.99-0.1,2.39,1.51,3.64
	c2.19,1.7,5.58,1.64,7.34,0.07c1.74-1.56,2.49-2.87,1.37-3.83S65.29,66.33,62.23,66.39z"/>
<path style="fill:#444444;" d="M62.46,75.45c-2.38,0-5.35-0.68-7.08-0.5c-1.4,0.14-3.3,0.83-3.01,3.2
	c0.31,2.57,3.49,6.22,10.53,6.21c6.97-0.01,9.34-4.52,9.65-6.21c0.44-2.32-1.45-3.11-2.38-3.26C68.43,74.62,65.69,75.45,62.46,75.45
	z"/>
<g>
	<path style="fill:#312D2D;" d="M39.11,48.47c0.78,1.26,3.41-0.72,7.6-0.84c3.43-0.1,6.41,2.34,7.12,0.12
		c0.84-2.63-1.97-3.77-7.06-3.53C41.57,44.46,38.07,46.78,39.11,48.47z"/>
	<path style="fill:#312D2D;" d="M71.08,48.32c1.74,0.48,3.05-0.78,6.58-0.54c3.3,0.22,6.52,1.68,7.48,0.6s-1.51-3.66-6.94-4.19
		c-4.91-0.48-7.9,0.84-8.26,1.91s0.42,2.02,1.14,2.21l0,0V48.32z"/>
</g>
<g>
	<path style="fill:#3F4040;" d="M45.65,52.06c-4.01-0.06-5.56,3.41-5.33,5.86s2.09,4.79,5.62,4.73s5.21-2.27,5.21-5.21
		s-1.8-5.33-5.51-5.39L45.65,52.06L45.65,52.06z"/>
	<path style="fill:#3F4040;" d="M77.77,51.94c-2.99-0.32-5.74,1.8-5.62,5.39c0.13,4.01,3.65,5.27,5.56,5.27
		c2.75,0,4.97-2.03,5.03-4.97C82.8,54.34,81.12,52.3,77.77,51.94L77.77,51.94L77.77,51.94z"/>
</g>
<path style="fill:#FF8C71;" d="M61.87,15.5c0,0-5.04-12.5-16.4-10.91C36.2,5.89,31.9,21.16,30.65,24.82s-1.74,11.52-0.67,12.16
	c1.42,0.83,6.74-11.82,9.49-16.24c2.75-4.41,5.59-7.25,10.07-6.49c3.37,0.57,5.28,4.61,5.28,4.61s5.22-0.19,7.71-0.19
	s6.82,0.29,6.82,0.29s2.47-5.95,7.31-5.61c5.91,0.42,7.68,5.98,9.52,10.31c1.68,3.98,2.75,11.91,5.5,11.91s1.08-11.16-0.25-15.07
	S87.24,4.42,76.94,4.01C66.45,3.59,61.87,15.5,61.87,15.5z"/>
<path style="fill:#424242;" d="M99.6,117c0,0.47,6.01,6.48,6.48,6.79s3.71,0.52,5.48-1.36s1.62-3.97,1.41-4.49s-4.64-5.83-5.54-5.95
	C102.94,111.36,99.6,117,99.6,117z"/>
</svg>
