<?xml version="1.0" encoding="utf-8"?>
<!-- Generator: Adobe Illustrator 26.3.1, SVG Export Plug-In . SVG Version: 6.00 Build 0)  -->
<svg version="1.1" id="a" xmlns="http://www.w3.org/2000/svg" xmlns:xlink="http://www.w3.org/1999/xlink" x="0px" y="0px"
	 viewBox="0 0 128 128" style="enable-background:new 0 0 128 128;" xml:space="preserve">
<g>
	<path style="fill:#EDBD82;" d="M34.36,88.45c0,0,0.63-0.68,1.1-1.08s1.75-1.38,1.75-1.38s-0.05-2.49,0-4.89s0.19-4.48,0.19-4.48
		l9.75,4.08l-0.07,9.07l-0.73,3.24l-4.63,3.43l-7.37-7.99H34.36z"/>
	<path style="fill:#EDBD82;" d="M82.62,78.58l8.49-3.41c0,0,0.73,3.6,1,5.87c0.27,2.28,0.36,3.41,0.36,3.41s0.59,0.27,1.5,1.18
		s1.43,1.76,1.43,1.76l-6.03,7.71l-3.6-2.82l-2.5-2.46l-0.66-11.25"/>
</g>
<path style="fill:#312D2D;" d="M80.32,54.27c0,0,4.22-8.89,4.08-25.7S74.98,4.67,64.72,4.12c-10.26-0.56-22.98,6.5-22.35,27.37
	c0.35,11.66,2.74,19.88,4.73,24.76c7,0.12,16.93,0.12,16.93,0.12L80.32,54.27z"/>
<path style="fill:#EDBD82;" d="M52.82,52.39l3.93-1.28c0,0,1.34-0.54,1.46-2.62s-0.06-4.2-0.06-4.2l11.51,0.06
	c0,0-0.05,1.99-0.06,4.32c0,1.37,1.72,2.27,1.72,2.27l5.46,1.36l-13.31,4.62L52.83,52.4L52.82,52.39z"/>
<path style="fill:#7C7C7C;" d="M51.62,89.1l-3.02,1.92c0,0,0.1,2.18-0.23,2.95c-0.25,0.59-3.14,1.96-4.73,2.65
	c-1.42,0.62-3.3,1.38-3.3,1.38l-4.65,2.18l16.01,14.93L85.5,110l6.91-11.22c0,0-5.14-2.62-7.68-3.7c-2.18-0.93-3.21-1.49-3.33-1.87
	s-0.26-2.26-0.26-2.26l-29.51-1.86L51.62,89.1z"/>
<path style="fill:#EDBD82;" d="M66.88,115.6c0,0-16.57,8.88-30.56,7.78c-9.31-0.73-12.49-5.85-12.49-5.85l-1.27-8.16
	c0,0,1.17-1.88,3.99-5.53s9.75-5.02,11.44-4.83s4.05,2.48,4.05,2.48l15.63,0.86l9.22,13.24L66.88,115.6z"/>
<path style="fill:#EDBD82;" d="M84.96,99.82l-6.74,1.54l-10.17-1.87c0,0-0.66,0.6-0.94,0.91s-0.94,1.04-0.94,1.04l3.64,4.93
	l27.84,1.77h5.61l-0.88-2.86l-5.4-4.05c0,0-3.27-1.71-4-2.03s-2.49,0.78-2.49,0.78l-5.52-0.15L84.96,99.82z"/>
<path style="fill:#F9DDBD;" d="M22.18,109.1c0,0-0.61,1.88-0.14,4.31c0.47,2.44,1.78,4.13,1.78,4.13s2.95,2.49,11.07,2.53
	c8.11,0.05,18.01-3.42,18.15-3.75s-1.83-4.6-6.42-6.94c-4.6-2.34-9.34-0.96-9.34-0.96l-0.18-1.85c0,0-1.78-1.7-5.06-1.5
	c-3.8,0.23-6.38,1.78-6.38,1.78l-3.47,2.25"/>
<path style="fill:#D89852;" d="M31.37,111.87c1.17,1.22,3.28-1.78,5.91-3.1s5.58-2.86,10.08-1.83s19.51,8.65,19.51,8.65l3.53-1.78
	l-11.37-7.29l-17.02-1.69c0,0-3.94,0.75-7.36,2.81c-2.18,1.31-4.23,3.24-3.28,4.22V111.87z"/>
<path style="fill:#EDBD82;" d="M83.88,110.92l-17.22,2.97c0,0,8.81,5.99,18.92,8.77c10.11,2.78,16.39,0.42,19.54-2.1
	c2.73-2.19,3.22-5.04,3.08-7.08s-0.54-2.78-0.54-2.78S83.88,110.92,83.88,110.92z"/>
<path style="fill:#F9DDBD;" d="M93.89,100.94c0.23-0.68-0.88-2.47-2.79-2.72c-2.26-0.29-3.48,1.24-3.48,1.24s-0.89-1.18-2.9-1.01
	s-3.12,1.82-5.96,1.76s-4.27-2.11-7.05-2.05c-2.37,0.05-3.67,1.33-3.67,1.33s2.12,1.62,5.03,2.34c3.61,0.89,11,0.83,12.84,0.71
	s4.55,0.41,4.55,0.41s0.73-0.65,1.57-1.09S93.8,101.2,93.89,100.94z"/>
<path style="fill:#F9DDBD;" d="M65.63,102.04c0,0,2.61,1.51,5.64,2.36s11.96,1.26,14.65,1.26s7.49,0.74,7.49,0.74
	s1.32-0.97,4.52-1.09s5.55,1.03,5.55,1.03l2.8,1.54c0,0,0.65,1.16,0.86,1.58s0.53,1.21,0.53,1.21s-2.12,4.7-5.6,6.83
	s-8.79,3.01-16.95,1.74c-8.16-1.27-16-4.28-18.45-5.39c-2.46-1.11-13.19-6.28-16.28-7.35c-6.16-2.12-10.65-1.26-11.53-1.48
	c-0.52-0.13-0.83-2.94,1.17-4.04c1.72-0.94,2.69-0.26,2.91-0.34c0.3-0.11,2.11-2.91,4.79-2.83s3.35,2.08,5.73,1.86
	s3.31-2.19,7.06-1.63c3.02,0.45,5.11,3.98,5.11,3.98"/>
<path style="fill:#D89852;" d="M66.21,101.39l-0.59,0.66c0,0,0.37,0.45,1.24,1.08c0.65,0.47,2.42,1.43,4.47,1.91
	c3.99,0.95,7.71,1.08,11.58,1.32c4.79,0.29,6.73,0.58,8.91,1.74c4.02,2.15,4.99,4.16,5.47,4.65s1.71,0.8,1.89,0.15
	c0.24-0.87-0.06-1.2-0.87-2.52c-1.16-1.89-2.95-3.39-6.54-4.7c-1.77-0.65-5.55-0.65-9.06-0.73s-7.26-0.31-10.07-0.92
	C68.61,103.15,66.2,101.39,66.21,101.39L66.21,101.39z"/>
<path style="fill:#F9DDBD;" d="M42.91,95.25c0,0-0.25-3.13-3.2-5.38s-5.34-1.42-5.34-1.42s-4.06,4.34-4.45,4.42
	s-3.53-1.14-5.59-0.11s-2.35,1.94-3.78,2.19s-4.22-0.12-4.25,0.48c-0.03,0.48-0.12,1.22,0.34,1.75s2.08,0.61,2.08,0.61l2.48-0.05
	l3.03-0.5l1.01,1.26l-1.37,1.73l-1.71,0.82l-1.71-0.36l-1.28-2.07l-1.35,0.07l-0.57,1.46l0.93,1.39l0.33,1.69
	c0,0-1.43,0.37-2.96,0.27s-3.99-1.21-4.41-1.21s-0.62,0.24-0.62,0.24l0.41,1.05l1.35,1L12.17,106l2.71,1.25l1.1,0.93l1.82,0.93
	l4.13-0.5l4.66-2.46l3.74-4.2l8.48-3.17l4.13-3.53L42.91,95.25z"/>
<path style="fill:#F9DDBD;" d="M87.93,94.12c0,0,0.44-2.73,2.95-4.92c2.51-2.18,4.53-1.8,4.53-1.8s3.5,4.15,4.1,4.15
	s1.53-1.04,3.5-0.66s3.2,1.92,4.45,2.25s3.19,0.32,3.63,0.04s1.69-0.55,1.56,0.41s-1.92,1.98-1.92,1.98l-3.02,0.67l-2.51,0.44
	l-0.82,1.2l0.98,1.2h2.46l2.02-2.51l1.47-0.22l0.71,1.26l-0.49,2.29l-0.44,1.26c0,0,1.69-0.19,2.61-0.63s1.6-1.19,2.86-1.45
	c0.91-0.19,1.08,0.54,1.08,0.54l-1.16,1.24l-0.2,1.55l-1.42,1.75l-0.77,0.36l-0.32,1.17l-3.5,1.42h-4.37l-3.11-1.37l-4.26-3.22
	l-3.06-3.5l-7.54-4.92L87.93,94.12z"/>
<path style="fill:#D89852;" d="M112.64,93.25c-0.23-0.16-0.81,1.71-3.18,2.35c-1.25,0.34-3.13-0.29-4.37,0.33s-1.5,2.35-0.93,2.72
	c0.98,0.64,0.73-1.38,2.01-1.64s2.7-0.01,3.95-0.23c1.72-0.29,3.28-3,2.52-3.54L112.64,93.25z"/>
<g>
	<path style="fill:#EDBD82;" d="M10.49,102.54c-0.36,0.52,0.02,1.28,0.29,1.6c0.38,0.44,0.98,0.62,0.98,0.62s-0.39,0.35,0.02,1.31
		c0.28,0.64,1.04,1.55,3.69,1.8s5.33-0.56,5.79-0.92s0.64-0.74,0.26-0.81c-0.27-0.05-1.08,0.22-1.73,0.35s-1.78,0.6-4.01,0.54
		c-1.76-0.05-3.05-0.8-3.18-1.23s0.13-0.75,0.13-0.75s1.3,0.71,2.84,0.77s2.65-0.25,2.82-0.45s0.26-0.58-0.42-0.58
		s-1.62,0.56-4.3-0.26c-2.47-0.76-3.18-2-3.18-2L10.49,102.54z"/>
	<path style="fill:#EDBD82;" d="M18.48,103.25c0,0,1.31-0.16,1.34-0.47s-1.62-0.44-1.9-1.99c-0.21-1.17,0-1.78,0.65-1.81
		s0.54,1.68,1.43,2.24c1.36,0.85,2.66,0.54,2.66,0.54s-0.57,0.96-1.13,1.55s-1.45,1.36-1.03,1.81c0.54,0.59,2.67-1.05,3.55-2.14
		c1.22-1.5,2.19-3.28,4.37-4.68s4.01-1.2,4.01-1.73s-1.71-1.14-4.25-0.01c-1.9,0.85-2.39,1.42-2.39,1.42s-0.65-1.09-1.4-1.16
		s0.03,1.31,0.03,1.75s-1.18,2.27-2.65,2.02s-1.89-1.99-1.89-1.99l-0.23-0.75l-1.46-0.47l-0.71,0.67c0,0-1.03,0.73-0.97,2.19
		c0.1,2.32,1.96,2.99,1.96,2.99L18.48,103.25z"/>
</g>
<g>
	<path style="fill:#EDBD82;" d="M108.74,101.5c0.25,0.97,2.91,0.06,3.71-1.95c0.8-2.02-0.21-4.05-1.73-3.97
		c-1.92,0.11-1.55,1.94-2.75,2.59c-1.91,1.04-2.69,0.16-2.96,0.06c-0.09,0.21-0.24,0.41-0.36,0.47c-0.17,0.08-0.29,0.04-0.42,0
		c-0.02,0.19,0.15,0.37,0.47,0.62c0.58,0.45,2.3,0.7,3.27,0.22c2.59-1.28,1.97-2.83,2.66-2.84c1.22-0.02,1.12,1.89,0.42,2.88
		S108.55,100.72,108.74,101.5L108.74,101.5z"/>
	<path style="fill:#EDBD82;" d="M108.11,105.55c0.14,0.67,2.68,0.95,5.53-0.28c3.04-1.32,3.28-2.92,3.36-3.24s-0.08-1.2-0.52-1.16
		s-0.32,2-3.28,3.24S107.91,104.59,108.11,105.55z"/>
	<path style="fill:#EDBD82;" d="M108.99,103.39c-0.04,0.8,3.28,0.64,5.37-0.52c2.08-1.16,3.49-2.72,3.28-3.24
		c-0.16-0.42-2.44,1.72-4.2,2.44S109.03,102.68,108.99,103.39z"/>
	<path style="fill:#EDBD82;" d="M95.57,96.1c0.42,0.67,2.12-0.36,3.92,0.76s2.44,3.08,4.16,4.89c1.53,1.6,3.32,3,3.56,2.28
		s-1.41-1.35-2.76-2.88c-1.84-2.08-2.12-3.72-4.28-5.17c-1.53-1.02-3.68-0.76-4.04-0.76S95.29,95.66,95.57,96.1z"/>
</g>
<path style="fill:#D89852;" d="M15.48,107.87c-0.38,0.51,0.24,2.11,3.9,1.97c6.23-0.23,9.6-6.31,11.37-7.43
	c1-0.63,2.45-0.89,4.46-1.64c2.13-0.79,4.86-2.1,7.24-3.79c4.63-3.28,4.9-4.36,5.13-5.39c0.31-1.36,0.31-3.21,0.36-7.99
	c0.05-4.55-1.5-1.18-1.5-1.18s0.29,7.15-0.38,8.84s-2.27,3.32-5.89,5.43c-3.62,2.1-5.09,2.74-6.9,3.24s-3.45,1.01-4.97,2.69
	c-1.9,2.11-3.32,3.58-5.43,4.8s-3.16,1.18-4.5,1.09s-2.65-0.97-2.9-0.64L15.48,107.87z"/>
<path style="fill:#D89852;" d="M83.34,81.06c0,0,0.26,6.91,1.12,8.74c0.36,0.77,1.49,1.9,3.35,3.26c3.1,2.26,7.36,4.43,9.33,6.49
	s4.69,5.01,7.25,6.29c5.77,2.88,9.27-1.34,9.69-1.31s0.79,0.52,0.39,1s-2.64,2.86-6.64,2.59c-5.25-0.36-8.33-4.12-11.37-7.49
	c-1.94-2.14-12.41-7.61-13.38-10.13s-1.56-9.59-1.56-9.59l1.82,0.16L83.34,81.06z"/>
<path style="fill:#F9DDBD;" d="M67.49,13.42c-0.27,0-3.38,3.81-8.96,6.66c-6.33,3.22-9.59,3.54-9.59,3.54s-1.04,5.91,0.54,12.58
	c1.14,4.82,5.31,12.24,14.46,12.34c9.89,0.1,13.26-8.25,14.08-12.8c1.03-5.73-0.13-12.81-0.13-12.81s-3.7-2.03-6.23-4.68
	S67.49,13.42,67.49,13.42z"/>
<path style="fill:#444444;" d="M64.04,40.1c-2.25,0-4.38-0.83-4.89,0.03s1.21,2.76,4.89,2.78c4.16,0.03,5.51-2.13,4.98-2.91
	s-2.38,0.09-4.98,0.09V40.1z"/>
<g>
	<path style="fill:#312D2D;" d="M51.79,25.89c0.42,0.62,2.01-0.22,4.14-0.37c1.75-0.12,3.4,0.82,3.72-0.32
		c0.37-1.36-1.45-1.85-4.04-1.63C52.96,23.8,51.23,25.05,51.79,25.89z"/>
	<path style="fill:#312D2D;" d="M68.24,25.45c0.87,0.28,1.69-0.23,3.48-0.03c1.68,0.19,3.17,0.91,3.69,0.39s-0.68-1.9-3.44-2.3
		c-2.49-0.36-4.05,0.24-4.25,0.78s0.17,1.04,0.53,1.15L68.24,25.45z"/>
</g>
<g>
	<path style="fill:#3F4040;" d="M52.25,30.22c-0.41,0.99,1.26,2.32,3.69,2.29c2.09-0.03,4.51-0.99,3.76-2.36
		c-0.58-1.06-1.98,0.12-3.79,0.14S52.73,29.06,52.25,30.22L52.25,30.22z"/>
	<path style="fill:#3F4040;" d="M67.62,29.98c-0.82,0.87,1.05,2.45,3.62,2.39c2.93-0.07,4.29-1.64,3.52-2.56
		c-0.77-0.92-1.43,0.43-3.55,0.44C69.35,30.26,68.46,29.09,67.62,29.98z"/>
</g>
<path style="fill:#DBA689;" d="M64.14,35.17c-1.56,0.03-2.14-0.5-2.69,0.06c-0.51,0.51-0.05,1.25,0.79,1.9
	c1.14,0.89,2.91,0.86,3.82,0.04s1.3-1.5,0.71-2S65.73,35.14,64.14,35.17z"/>
<path style="fill:#D89852;" d="M16.47,97.3c0.31,0.42,0.98,0.79,0.98,0.79s0.44-0.44,1.25-0.3s1.19,0.81,1.19,0.81
	s0.63,0.1,1.56-0.1s1.42-0.48,2.17-0.34s0.85,0.78,1.6,0.34s0.03-1.8-1.46-1.9s-2.99,1.19-5.53,0.31c-0.95-0.33-1.66-1.55-1.92-1.48
	C15.99,95.52,15.91,96.54,16.47,97.3z"/>
<path style="fill:#583EE2;" d="M79.69,52.61c-3.22-1.24-9.56-2.68-9.56-2.68s-0.49,4.09-5.95,4.32c-5.28,0.22-6.58-4.08-6.58-4.08
	s-5.44,0.85-9.75,2.93c-3.6,1.74-7.05,4.37-8.78,9.48s-1.79,8.99-2.22,10.46s-1.16,2.93-0.79,3.57c0.52,0.89,1.66,1.74,3.91,3.47
	s4.52,2.58,4.52,2.58l2.59-1.56l1.56,2.94c0,0,0.09,3.55,0,4.67s-0.69,3.07,0,3.5s7.61,4.02,16.6,3.68
	c8.99-0.35,15.71-3.23,16.08-4.41c0.26-0.82,0-1.42-0.03-2.77c-0.08-2.6-0.23-6.05-0.23-6.05l1.56-4.06l2.51,2.08
	c0,0,1.77-0.89,4.11-2.61c2.33-1.73,3.5-2.75,3.5-3.53s-0.63-1.21-1.06-3.02s-2.33-8.71-4.74-12.54s-4.22-5.18-7.25-6.34
	L79.69,52.61z"/>
<g>
	<path style="fill:#4B0FCE;" d="M81.07,82.65c0,0-0.41-4.72-0.46-6.6s-0.96-6.69,0.46-7.12c1.68-0.51,2.24,3.76,2.54,5.69
		s1.52,6.04,1.52,6.04s-1.11,0.77-2.03,1.18s-2.04,0.81-2.04,0.81H81.07z"/>
	<path style="fill:#4B0FCE;" d="M44.49,82.65c0,0,0.79-3.96,1.09-6.45s0.66-6,1.12-6.66s1.63-0.61,1.83,0.41s0,7.83,0,9.2
		s0.11,4.89,0.11,4.89s-0.85-0.28-1.96-0.6c-1.41-0.4-2.19-0.78-2.19-0.78L44.49,82.65z"/>
	<path style="fill:#4B0FCE;" d="M63.95,59.82c-4.48,0.04-6.83-1.69-9.43-3.46c-2.73-1.86-4.75-4.06-4.75-4.06s1.71-0.68,3.52-1.2
		s4.31-0.93,4.31-0.93s1.66,4.18,6.58,4.08s5.95-4.32,5.95-4.32s2.52,0.6,4.22,1.01s4.28,1.3,4.28,1.3s-4.22,3.34-5.69,4.37
		s-4.06,3.15-8.99,3.2L63.95,59.82z"/>
</g>
</svg>
