<?xml version="1.0" encoding="utf-8"?>
<!-- Generator: Adobe Illustrator 26.3.1, SVG Export Plug-In . SVG Version: 6.00 Build 0)  -->
<svg version="1.1" id="a" xmlns="http://www.w3.org/2000/svg" xmlns:xlink="http://www.w3.org/1999/xlink" x="0px" y="0px"
	 viewBox="0 0 128 128" style="enable-background:new 0 0 128 128;" xml:space="preserve">
<path style="fill:#62453B;" d="M31.2,27.1C28.3,37.9,29.7,45,29.7,45s-7,5.7-6.1,14.8c0.9,8.8,6.9,10.2,6.8,14.2s-3.9,4.5-3.8,6.2
	s1.8,3.2,3.9,4.2c3.1,1.5,5.8,0.6,5.8,0.6s2.6,3.4,8.4,4.8c6.3,1.4,9.4-1.6,9.4-1.6l10.3-5.8c0,0,8.2,7.5,17.9,7.7
	s11.3-2.5,11.3-3.1s-2.1-3.9-2.1-3.9s4.1,1.6,7,0.5c3.8-1.4,4.1-4.7,3.6-5.7s-4.6-1.8-4.1-6.2c0.7-6.8,4.4-6.7,4.7-15.4
	C103.3,41.4,91.4,35,91.4,35S81.1,23,65.7,19.8s-33.4,3-34.6,7.1l0,0v0.2L31.2,27.1L31.2,27.1L31.2,27.1z"/>
<path style="fill:#E0E0E0;" d="M63.3,91.7c0,0-17.2-1.4-29.1,6.9c-8.5,6-12.2,11.2-12.2,11.2l30,13.8h41.9c0,0,14.7,0,14.9-1.4
	s-5.3-12.1-13.1-19.8S77.3,92.3,77.3,92.3l-13.9-0.7l0,0L63.3,91.7z"/>
<path style="fill:#F2A259;" d="M9.1,122.8c0,0-9.4-14.4-0.6-22.7s27.4,2.2,35.1,10.2c6.8,7.1,9.2,13,8.5,13.3S10.5,122.9,9.1,122.8z
	"/>
<path style="fill:#E07F14;" d="M45.6,120.8l-1-0.6c0,0-2.8-0.6-4.2,1.5c-0.6,0.9-0.4,2-0.4,2h2C42.3,123.7,45.6,120.8,45.6,120.8
	C45.6,120.8,45.6,120.8,45.6,120.8z"/>
<path style="fill:#FFED5A;" d="M43.7,120.1c4-0.2,4.8,3.6,4.8,3.6H42C42,123.5,41.3,120.3,43.7,120.1z"/>
<path style="fill:#C62727;" d="M22.2,107.3l-9.4-4.1c0,0-2.5,2-0.8,4.5c0.7,1.1,2.9,1.8,4.1,2.6s3.1,2.1,5,2.1
	c2.9,0,3.5-3.6,3.5-3.6L22.2,107.3z"/>
<path style="fill:#F44236;" d="M12.4,105.6c0.8,1.3,3.3,1.8,4.8,2.5c2.5,1.1,5.5,4.8,7.1,1.7s-1.8-5.4-4.2-6.7s-4.4-1.2-5.8-0.7
	C11.6,103.3,12.1,105.1,12.4,105.6z"/>
<path style="fill:#00579C;" d="M13.6,115.4c0,0-2.8,1.6-1.3,4.8c1,2.1,2.3,2.8,2.3,2.8l4.7,0.2C19.3,123.2,13.6,115.4,13.6,115.4z"
	/>
<path style="fill:#2885C6;" d="M24.6,123.4c0,0,0-3.6-4-6.4c-4.4-2.9-6.2-2.1-7-1.6s-1.2,2.7,1.7,5.6c2.2,2.2,4,2.2,4,2.2
	S24.6,123.4,24.6,123.4z"/>
<polygon style="fill:#B0B0B0;" points="71.7,116.6 71.7,123.7 75.2,123.7 75.2,117.3 "/>
<path style="fill:#007D33;" d="M40.6,96.2l-0.3-4.7c0,0,1.6-1.1,3.6-1.7c2.5-0.7,3.2-0.7,3.2-0.7s1.2-3.2,5.4-3.8
	c3.8-0.5,25.2,1.6,25.2,1.6s10.3,3.5,9.7,8.7c-0.5,4.2-4.7,4-4.7,4l0.5,0.4l7.9,15.2c0,0-1.1,0.4-5.3-1.7s-7.7-3.5-7.7-3.5l-1.1,9.2
	l-6.6-5.4l-2.2-7.4c0,0,0.8-2.3,1.9-3.3s-5.5-2.2-5.5-2.2l-24.1-4.5l0,0v-0.2l0,0H40.6z"/>
<path style="fill:#9A9A9A;" d="M61.4,106.3c-2.7,0.2-3.3,2.1-3.2,3.7s1.7,3.1,3.4,3.1s3.7-1,3.7-3.2s-1.2-3.8-3.8-3.6
	C61.5,106.3,61.4,106.3,61.4,106.3z"/>
<path style="fill:#02AB47;" d="M68.2,106.4c0,0-1.7,3.8,0,6.9s8,6.6,9,7.3s2,0.4,2.3-1s-0.2-6.4-0.3-7.8s-1.6-4.2-2.5-4.2
	s1,8-1.8,7.8c-1.9,0-1.7-3.5-2.9-5.4C70.2,107.3,68.2,106.4,68.2,106.4z"/>
<path style="fill:#02AB47;" d="M81.8,104.5c0,0,3.2,3.7,5.1,5.7s4.2,5,4.2,5s0.8-0.2,0.7-2.7s0-6.1-3.3-9.8c-2.7-3-5.8-3.1-5.8-3.1
	s0.2,1.2,0,2.2S81.8,104.5,81.8,104.5L81.8,104.5L81.8,104.5z"/>
<g>
	<path style="fill:#1465C0;" d="M99.9,103c0,0-2.2,3.9-4,9.3c-2.4,7.1-3.2,11.4-3.2,11.4s3.3,0.3,5.7,0.3c4.4,0,6.7-0.8,6.7-0.8
		s2.1-3.5,3.4-7.8s2.3-8.1,2.3-8.1l-8.9-4.7l-1.9,0.2l0,0v0.2l0,0H99.9z"/>
	<path style="fill:#BDBDBD;" d="M106.5,88.3c0,0-1.4,0.6-2.8,4.1c-0.6,1.7-1.3,4-1.3,4s-1.4,0.8-2.2,2.8s-0.4,3.9-0.4,3.9
		s1.4,1.3,5,2.7s5.9,1.6,5.9,1.6s1.3-0.7,2.3-3.7c0.6-1.7,0.2-3.7,0.2-3.7s0.9-1.9,1.5-3.3s1.7-4.4,1.5-4.9s-9.9-3.3-9.9-3.3l0,0
		C106.3,88.5,106.5,88.3,106.5,88.3z"/>
	<path style="fill:#C67100;" d="M111.6,75.8l-4.8,2.9c0,0-6.1,8.5,3.3,12.6c11.5,5,13.4-6.7,13.2-10.3v-3.6l-3.1-6.1l-8.5,4.5l0,0
		H111.6z"/>
	<path style="fill:#F09300;" d="M109.5,75.9c0,0-2.1,1.8-2.7,2.8c-0.5,0.8-0.9,7,4.5,8.9c5.8,2.1,8.6-2.2,8.7-3.7s0-8.6-0.2-10.7
		S109.5,75.9,109.5,75.9z"/>
	<path style="fill:#C67100;" d="M114.5,77.3c0,0-3,4.1-1.4,5s6.2-8.2,6.2-8.2L114.5,77.3C114.5,77.3,114.5,77.3,114.5,77.3z"/>
	<path style="fill:#2A85C6;" d="M116.7,65.1c-2.4,0-1,2.9-2.8,5.3s-4,2.3-5.1,4.1s-0.8,3.2,1.1,3.8s4.4,0,6.2-1.1s2.1-2.3,3.7-2
		s3.5,2.2,3.5,2.2s0.5-4.7-1.8-8.2C120.6,67.8,118.4,65,116.7,65.1L116.7,65.1L116.7,65.1z"/>
	<path style="fill:#EEEEEE;" d="M108.4,93.8c0.3-0.7,0.9-2.8-0.2-3.2s-2.1,0.9-2.6,2.1s-0.7,1.9-0.6,2.7s1.3,1,1.8,0.6
		S108.1,94.5,108.4,93.8z"/>
	<path style="fill:#EEEEEE;" d="M104.8,101c-1.4-0.7-3.1-1.8-3.6-0.4c-0.5,1.2,0.8,1.8,2.6,2.6s3.3,1,3.6,0.3S105.9,101.6,104.8,101
		L104.8,101z"/>
	<path style="fill:#9E9E9E;" d="M104.9,100.1c0.9,0.6,2.1,1.1,3.5,1.6c3.5,1.3,4.8,1.4,4.8,1.4s0.3-0.9,0.2-1.9s-0.2-1.2-0.2-1.2
		s-1.6,0-4.4-1s-5.3-1.9-5.6-1.1S104.1,99.7,104.9,100.1z"/>
	<path style="fill:#2096F3;" d="M100.3,107.4c-0.6,0.6-1.3,2-2.2,4.7c-1.4,4.2-2.2,6.6-1.2,6.9s1.6-0.3,3.5-5.9
		c1-2.9,1.4-4.5,1.3-5.3C101.7,106.6,100.7,107,100.3,107.4z"/>
</g>
<path style="fill:#FFFFFF;" d="M13.2,105c0.3,0.4,1.4,0,2.3-0.4c1.4-0.6,2.2-0.6,2-1.4s-1.6-0.7-2.7-0.2
	C13.2,103.6,12.9,104.6,13.2,105z"/>
<path style="fill:#FFFFFF;" d="M16.2,117.9c1.1,0,1.8-0.3,1.7-1.2s-1-0.9-2.1-0.9s-1.8,0-1.8,1.1S15.6,117.9,16.2,117.9z"/>
<path style="fill:#FFFFFF;" d="M44.9,122.7c1.1,0.2,1.5,0,1.5-0.6s-0.5-1-1.1-1.1s-1.2,0-1.5,0.5S43.8,122.5,44.9,122.7z"/>
<path style="fill:#548B2E;" d="M30.4,109c0,0-0.6,0.7-1,1.2c-0.7,1.1-1.2,3,1,5.3c2.8,2.9,5.6,2.9,7.1,2.3c1.2-0.4,1.9-1.2,2.1-2.3
	c0.3-2-1.6-4.2-1.6-4.2L30.4,109z"/>
<path style="fill:#7DB343;" d="M30.6,108.8c-0.2,0.2-0.7,0.9-0.7,1.5c0,1.1,0.6,2.5,1.9,3.9c2.1,2.1,4.5,2.4,6.4,1.1
	s0.7-4.4-2.1-6.2S31.6,107.8,30.6,108.8z"/>
<path style="fill:#FFFFFF;" d="M33.3,111.1c0.4-0.5,0.6-1.3,0-1.8s-1.3-0.3-2.1,0.4s-0.5,1.5-0.2,1.8
	C31.7,112.3,32.9,111.7,33.3,111.1z"/>
<path style="fill:#E59502;" d="M52.2,90.5c0,0,2,4.7,11.8,4.8c8.8,0,10.1-3.7,10.1-3.7v-4.7H52.3v3.6l0,0L52.2,90.5z"/>
<g>
	<path style="fill:#E59502;" d="M32.5,54.2c0,0-6,1-4.5,9c1.7,9.6,10.8,7.1,10.8,7.1l-4.4-5.5c0,0-0.9-2.8-1.3-5.7s-0.5-4.9-0.5-4.9
		l0,0H32.5z"/>
	<path style="fill:#E59502;" d="M94.4,54.9c1-0.4,5.5,0.4,5,7.3c-0.6,8.7-6.4,8.9-7.9,8.9s-4.7-3.9-4.7-3.9s2,0,4.1-1.2
		s2.4-1.9,2.5-2.3c0.6-1.5,1-8.7,1-8.7l0,0V54.9z"/>
</g>
<path style="fill:#FFCA26;" d="M37.9,45.5c-0.9,1-0.6,17.8-1.7,19c-0.9,1-1.9,0-1.9,0s4,24.2,28.1,25.4c19.7,0.7,30.2-15.3,31-26.2
	c0,0.2-0.4,1-1.3,0.9c-0.6,0-1.1,0-1.4-1.6c-0.3-1.7-0.2-16.4-6.1-23.4c-4.4-5.2-10.4-7.4-14.3-7.1c-9.7,0.7-11.5,2.8-20.3,8.1
	C44.9,43.7,37.9,45.5,37.9,45.5C37.9,45.5,37.9,45.5,37.9,45.5z"/>
<path style="fill:#E59700;" d="M59.3,64.6c-0.8,1,0.2,2.1,1.3,3c1.8,1.5,4.2,1.5,5.8,0.2s2.3-2.6,1.4-3.4s-2.2,0-4.1,0
	S60.1,63.6,59.3,64.6z"/>
<path style="fill:#785446;" d="M64.1,73.7c-4.7,0-8.2-2-9-0.7c-0.4,0.6-0.3,1.8,1,2.8c1.5,1.3,4.3,2.4,7.8,2.4c7.4,0,10-4.1,8.9-5.3
	S68.8,73.7,64.1,73.7z"/>
<g>
	<path style="fill:#785446;" d="M42.4,48.4c1.2,0,3.2-1.1,6-1.2c3.2,0,6,2.1,6.6,0c0.8-2.3-1.8-3.4-6.5-3.2c-3.6,0.2-6.2,1.5-7,2.6
		s0.4,1.7,0.9,1.7l0,0V48.4z"/>
	<path style="fill:#785446;" d="M73.6,47.9c0.7-0.2,2.4-0.7,4.7-0.5c3.1,0.2,6.1,1.5,6.9,0.5c0.9-1-1.4-3.4-6.4-3.9
		c-4.6-0.4-7.2,0.6-7.6,1.6C70.5,47.2,72,48.3,73.6,47.9z"/>
</g>
<g>
	<path style="fill:#3F4040;" d="M48.4,51c-3.7,0-5.2,3.2-4.9,5.4s1.9,4.4,5.2,4.4s4.8-2.1,4.8-4.8S51.8,51.1,48.4,51z"/>
	<path style="fill:#3F4040;" d="M78.5,50.9c-2.8-0.3-5.3,1.7-5.2,5c0,3.7,3.4,4.9,5.2,4.9c2.6,0,4.6-1.9,4.7-4.6
		c0-3-1.5-4.9-4.6-5.3l0,0L78.5,50.9z"/>
</g>
<path style="fill:#373C3F;" d="M78,27l-20.4,6.7c0,0,11.3,0,21.2,1.3c9.3,1.2,14.7,4.9,17.1,4.9s2.9-2.1,3.4-4.5
	c0.5-2.5,1.2-6,1.2-6L78,26.9l0,0c0,0,0,0.1,0,0l0,0V27z"/>
<path style="fill:#2F2F2F;" d="M46.6,27.6l-22,7.2c0,0,0.2,2.4,1.4,4.3c1.3,1.9,3.4,2.5,3.4,2.5s10.3-3.8,19.8-6
	c9.1-2,13.3-2.6,17.4-3.5c5.3-1.2,12.5-2.3,19.3-2.5s14.6-0.2,14.6-0.2s0.8-3.3,0.6-7c-0.2-3.7-54.6,5.2-54.6,5.2
	S46.6,27.6,46.6,27.6z"/>
<path style="fill:#464C4F;" d="M24.2,24.4l-11.5,2.4c0,0-2.3,7.2,11.5,8.3s28.2-2.8,34.1-4.8s8.6-4,18.8-5
	c6.3-0.6,19.7,0.6,24.4-1.6c3.4-1.5,4.4-5.8,4.4-8.9s-1.1-5-1.1-5l-49.6,4.4L24.3,24.3h-0.1C24.2,24.3,24.2,24.4,24.2,24.4z"/>
<path style="fill:#5E6367;" d="M12.7,26.8c-0.4-1.2-1.3-11,41.3-19.1c19.7-3.8,34.5-4,41.8-2.7c8.4,1.5,9,4.9,9,4.9s-2,4.4-9,5.3
	s-25-1-34.7,2.1s-15.5,7.3-26.7,9.6S13.9,30.5,12.7,26.8z"/>
<path style="fill:#464C4F;" d="M55.2,4.2C52.3,5,52.3,8,52.7,9.1s1.7,2.8,4.6,2.2s3.3-3.3,3-4.3S58.8,3.2,55.2,4.2L55.2,4.2z"/>
<path style="fill:#02AB47;" d="M67.9,98.7c0,0,0.3-2.9,0.7-3.8s1.3-1.8,2.9-1.8s6.9,1,7.3,6c0,0.7-0.4,4.1-2.3,5.5s-4.7,0.7-5.8,0.2
	s-2-1.2-3.2-1.4s-14.2-0.3-22.4-2.7c-8.2-2.4-7.4-5.4-7-6.4c0.8-2.1,2.3-2.9,2.3-2.9s3.2,3.7,9.3,5.3c8.4,2.1,18.2,1.9,18.2,1.9l0,0
	L67.9,98.7z"/>
</svg>
