<?xml version="1.0" encoding="utf-8"?>
<!-- Generator: Adobe Illustrator 26.3.1, SVG Export Plug-In . SVG Version: 6.00 Build 0)  -->
<svg version="1.1" id="a" xmlns="http://www.w3.org/2000/svg" xmlns:xlink="http://www.w3.org/1999/xlink" x="0px" y="0px"
	 viewBox="0 0 128 128" style="enable-background:new 0 0 128 128;" xml:space="preserve">
<path style="fill:#47515C;" d="M32.87,53.55l-10.88,13.5c0,0,0.37,2.73,0.74,4.32c0.3,1.3,5.93,9.96,18.77,8.94
	c14.33-1.14,61.74-5.61,61.74-5.61s7.57-0.74,13.12-7.31c3.82-4.52,4.23-8.11,4.23-8.11l-8.2-14.61l-51.5-7.88l-28,16.75
	L32.87,53.55z"/>
<path style="fill:#AFAFAF;" d="M40.56,55.99l-2.43,5.23l0.12,1.09c0,0-4.37,3.9-3.82,12.12c0.67,10.04,9.89,18,17.06,18.15
	c7.17,0.14,38.15-1.07,38.15-1.07s15.6-1.75,15.92-18.02c0.18-9.04-4.45-11.99-4.45-11.99l0.94-1.78l-5.59-7.32
	C96.46,52.4,40.56,55.99,40.56,55.99z"/>
<path style="fill:#737373;" d="M51.08,76.67l-11.35,1.35c0,0,1.03,3.74,4.64,8.23c3.61,4.49,7.12,6.34,7.12,6.34
	s-0.29,1.27,0.98,2.83s4,2.93,4,2.93l30.64-2.05c0,0,1.56-0.88,2.05-2.15s0.49-2.63,0.49-2.63s4.2-1.17,7.32-5.85s3.32-8,3.32-8
	l-49.2-0.99L51.08,76.67z"/>
<path style="fill:#677584;" d="M55.88,122.67c0,0-23.02,0.97-24.42,0.78s-2.15-2.9-1.22-4.68s5.99-7.86,7.48-8.79
	s4.58-2.62,5.8-4.02s0.56-3.74,5.33-6.92s11.04-2.99,11.04-2.99h21.33c0,0,7.02-1.12,12.16,2.34c5.53,3.72,5.05,6.74,6.64,8.14
	s5.66,1.93,8.7,4.58c4.4,3.84,5.43,8.05,5.15,9.92s-2.43,1.59-2.43,1.59L55.88,122.67L55.88,122.67z"/>
<polygon style="fill:#63516D;" points="82.32,121.54 80.63,122.67 62.33,122.74 55.46,109.91 58.76,98.69 80.91,97.43 85.68,107.38 
	"/>
<path style="fill:#9FA4AA;" d="M55.88,122.67c0,0-5.26-13.46-0.56-22.64s20.12-4.98,20.82-4.7s7.78-0.07,10.73,5.75
	c4.25,8.4,0.28,21.57,0.28,21.57l-6.52,0.03c0,0,3.08-11.92,1.89-17.74s-3.65-6.59-3.65-6.59l-17.39,1.26c0,0-3.3,1.75-2.03,10.31
	c1.26,8.55,2.87,12.83,2.87,12.83l-6.45-0.07L55.88,122.67z"/>
<path style="fill:#9FA4AA;" d="M61.62,96.81c0,0-0.25,3.22-0.14,3.72c0.19,0.91,3.39,4.53,9.58,4.39s8.44-3.48,8.49-3.96
	s-0.19-4.67-0.19-4.67S61.62,96.81,61.62,96.81z"/>
<path style="fill:#A473D3;" d="M71.06,104.53c-3.19-0.1-5.77,2.34-5.58,6.1s3.24,5.33,5.58,5.29c3-0.05,5.67-2,5.58-5.77
	S74.4,104.62,71.06,104.53L71.06,104.53z"/>
<path style="fill:#F5A813;" d="M47.3,82.48c0,0-6.91,0.6-8.49-7.21c-1.49-7.38,3.91-7.81,3.91-7.81s1.58,5.41,1.8,5.63
	s5.56,5.03,5.56,5.03L47.3,82.48z"/>
<path style="fill:#F5A813;" d="M96.34,71.07c0,0,1.13-4.81,1.58-4.81s6.01,4.13,2.93,10.67c-3.08,6.53-9.84,5.86-9.84,5.86
	L96.34,71.07z"/>
<path style="fill:#FFCA26;" d="M48.72,59.8l-4.06,13.89c0,0,0.8,7.88,5.78,14.8c3.98,5.52,10.9,10.41,20.2,10.21
	c10.66-0.23,17.15-6.21,20.65-12.24c3.39-5.82,3.98-11.72,3.98-11.72l-0.68-9.84L83.4,53.03l-21.33,0.45l-10.14,3.23l-3.23,3.08
	L48.72,59.8z"/>
<path style="fill:#858585;" d="M38.26,51.67c0,0-1.46,1.55-0.96,5.42c0.31,2.37,0.83,4.13,0.83,4.13s3.09-0.85,5.26-1.43
	c1.77-0.47,5.78-1.35,5.78-1.35l7.96-3.61l26.96-0.9l5.03,2.63c0,0,4.66,0.9,7.66,1.65s5.26,1.5,5.26,1.5s1.78-2.99,1.73-6.83
	c-0.06-4.06-3.08-7.96-3.08-7.96L71.22,23.98L38.25,51.66L38.26,51.67z"/>
<path style="fill:#858585;" d="M83.42,55.33c0,0,6.76,4.1,8.49,8.38s2.33,6.83,2.33,8.49s0.53,2.55,1.05,2.55s1.35-0.9,1.43-3.08
	s-1-6.7-2.4-9.31c-2.63-4.88-6.47-6.83-6.47-6.83l-4.42-2.49v2.29L83.42,55.33z"/>
<path style="fill:#858585;" d="M53.31,56.95c0,0-3.3,3-4.81,7.29s-1.88,8.64-2.63,9.39s-1.65,0.08-1.58-1.5s0.9-6.83,2.25-10.29
	s3.18-4.44,3.18-4.44l3.58-0.45L53.31,56.95z"/>
<path style="fill:#F0A007;" d="M75.37,44.82L62.01,55.33c0,0,6.14-0.61,12.33-0.41s9.09,0.41,9.09,0.41l-1.08-3.83L75.37,44.82z"/>
<path style="fill:#737373;" d="M65.25,48.84c-5.2,3.25-11,5.8-12.28,6.29s-4.03,1.87-3.24,2.26s5.6-0.59,7.66-1.08
	s7.47-1.47,11.5-3.73s7.57-5.7,7.57-5.7s1.38,2.65,3.24,4.81s3.73,3.64,3.73,3.64l4.42,0.2c0,0-4.91-5.5-6.29-8.25
	s-2.75-6.29-2.75-6.29l-6.98,0.49C71.83,41.48,69.96,45.9,65.25,48.84L65.25,48.84z"/>
<path style="fill:#E59700;" d="M70.43,76.29c-2.37,0.05-3.26-0.76-4.11,0.1c-0.77,0.78-0.08,1.9,1.2,2.89
	c1.74,1.35,4.43,1.3,5.83,0.06s1.98-2.28,1.09-3.04S72.86,76.25,70.43,76.29L70.43,76.29z"/>
<path style="fill:#785446;" d="M70.48,83.94c-3.42,0-6.66-1.26-7.43,0.05c-0.74,1.26,1.84,4.19,7.43,4.22
	c6.32,0.04,8.36-3.23,7.56-4.42S74.43,83.93,70.48,83.94L70.48,83.94z"/>
<g>
	<path style="fill:#737373;" d="M51.49,61.5c0.62,1,2.71-0.57,6.04-0.67c2.72-0.08,5.09,1.86,5.65,0.1c0.67-2.09-1.57-2.99-5.61-2.8
		C53.44,58.32,50.66,60.17,51.49,61.5z"/>
	<path style="fill:#737373;" d="M77.68,61.38c1.38,0.38,2.42-0.62,5.23-0.43c2.62,0.18,5.18,1.33,5.94,0.48s-1.2-2.91-5.51-3.33
		c-3.9-0.38-6.27,0.67-6.56,1.52S77.12,61.22,77.68,61.38z"/>
</g>
<g>
	<path style="fill:#3F4040;" d="M57.48,64.35c-3.18-0.05-4.42,2.71-4.23,4.66s1.66,3.8,4.47,3.75s4.13-1.81,4.13-4.13
		S60.42,64.4,57.48,64.35z"/>
	<path style="fill:#3F4040;" d="M82.99,64.26c-2.37-0.25-4.56,1.43-4.47,4.28c0.11,3.18,2.9,4.18,4.42,4.18
		c2.19,0,3.95-1.62,3.99-3.94C86.98,66.17,85.65,64.55,82.99,64.26L82.99,64.26z"/>
</g>
<path style="fill:#98A8BE;" d="M94.58,7.84c-0.41-3.11-5.15-5.37-14.13-3.13c-8.5,2.13-23,12.38-29.25,20.88s-8,14.38-8,14.38
	l51.38-6.5c0,0-3.63-6.13-3.13-12.75C91.96,13.95,94.95,10.72,94.58,7.84z"/>
<path style="fill:#7D8A9D;" d="M54.58,35.22l-21.5,11.25L20.83,60.35c0,0-0.42,2.38-0.04,5.64c0.34,2.88,2.04,5.61,2.04,5.61
	s10.34-26.32,48.5-28.88c35.38-2.38,49.25,16.63,49.25,16.63s1.31-3.57-0.5-8c-1.64-4.01-4-6.25-4-6.25l-19.25-9.5
	C96.83,35.6,54.58,35.22,54.58,35.22z"/>
<path style="fill:#C5CFDD;" d="M20.83,60.35c0,0,5.63-27.38,49.63-30.13c32.87-2.05,45.63,14.88,45.63,14.88s-23.5-11.75-47.38-9.25
	c-10.26,1.07-20.29,3.85-28.38,8.5C28.62,51.08,20.83,60.35,20.83,60.35z"/>
<g>
	<path style="fill:#875841;" d="M33.35,99.31l-20.38,3.17c0,0,1.99,4.99,2.6,5.52c1.3,1.14,11.53,3.25,12.18,3.57
		s5.49,11.88,5.49,11.88s2.36,0.71,4.58,0.71s1.24-11.09,1.24-11.09l-2.13-5c0,0,3.74-8.61,3.74-9.18s-2.03-4.87-2.03-4.87
		l-5.28,5.28L33.35,99.31z"/>
	<path style="fill:#B18466;" d="M20.03,79.74L20.35,76c0,0-1.06-2.63-1.64-2.74C17.65,73.04,6.96,87.94,6.96,88.75
		s6.01,13.72,6.01,13.72s17.38,5.44,18.76,4.95c1.38-0.49,6.9-13.4,6.9-13.4s-3.03-7.93-3.59-6.2s-9.57,2.22-9.57,2.22L20.03,79.74
		L20.03,79.74z"/>
	<path style="fill:#AC42AC;" d="M22.63,80.71L20.36,76c0,0-9.74,11.93-9.74,13.48c0,1.3,4.71,11.21,5.12,11.45
		c0.75,0.45,7.15-1.38,7.15-1.38l-0.24-18.84"/>
	
		<radialGradient id="SVGID_1_" cx="24.2" cy="39.28" r="10.6645" gradientTransform="matrix(1 0 0 -1 0 130)" gradientUnits="userSpaceOnUse">
		<stop  offset="0.1" style="stop-color:#FEC8EE"/>
		<stop  offset="0.33" style="stop-color:#FDC5ED"/>
		<stop  offset="0.5" style="stop-color:#FCBBEC"/>
		<stop  offset="0.64" style="stop-color:#FBABEA"/>
		<stop  offset="0.78" style="stop-color:#F995E8"/>
		<stop  offset="0.91" style="stop-color:#F778E4"/>
		<stop  offset="0.93" style="stop-color:#F773E4"/>
	</radialGradient>
	<path style="fill:url(#SVGID_1_);" d="M35.04,87.83l-5.19,12.58c0,0-5.06,3.44-11.35-0.71c-3.85-2.54-6.22-8.17-3.31-14
		c2.81-5.61,9.69-6.55,14.33-4.41c5.06,2.33,5.51,6.55,5.51,6.55L35.04,87.83z"/>
	<path style="fill:#FFFFFF;" d="M21.47,87.5c1.26-1.48,2.2-1.48,4.07-1.43c1.87,0.05,2.53-2.64,0.6-3.46s-5.76-0.87-8.08,2.25
		c-2.53,3.41-2.16,6.1-1.87,7.09c0.77,2.64,3.46,1.59,3.74,0.38s-0.05-2.97,1.54-4.84L21.47,87.5z"/>
	<path style="fill:#B08467;" d="M34.37,115.23l4.68-2.16l4.87,10.11c0,0-1.1,0.72-3.44,0.91c-1.98,0.17-2.68,0.05-2.68,0.05
		L34.37,115.23L34.37,115.23z"/>
</g>
<path style="fill:#D0CFE0;" d="M70.68,100.5c-3.17,0-5.13-0.96-6.3-1.67s-2.08-1.63-2.84-0.88s-0.08,2.38,3,4.17
	c1.79,1.04,4.04,1.51,6.25,1.42c7.13-0.29,9.42-3.67,8.63-5.09s-3.67,2.04-8.76,2.04L70.68,100.5z"/>
<path style="fill:#BD90E6;" d="M73.93,107.73c-0.1-0.67-2.98-2.35-5.15-0.29c-1.95,1.86-1.46,4.86-0.48,5.05
	C69.02,112.63,74.02,108.39,73.93,107.73L73.93,107.73z"/>
</svg>
