<?xml version="1.0" encoding="utf-8"?>
<!-- Generator: Adobe Illustrator 26.3.1, SVG Export Plug-In . SVG Version: 6.00 Build 0)  -->
<svg version="1.1" id="a" xmlns="http://www.w3.org/2000/svg" xmlns:xlink="http://www.w3.org/1999/xlink" x="0px" y="0px"
	 viewBox="0 0 128 128" style="enable-background:new 0 0 128 128;" xml:space="preserve">
<path style="fill:#B7885A;" d="M30.3,55.62c0.3-1.69,4.65-8.43,5.16-9.45s2.34-4.2,2.63-4.2s1.64,4.64,2.31,6.77
	c0.43,1.38,1.16,3.61,1.58,4.73c0.16,0.43,0.54,1.21,0.54,1.21l0.51,2.11c0,0-0.87,0.15-1.24,0.87S40.99,61,40.99,61l-0.74,47.01
	l-5.76,6.48c0,0-0.33,1.96,0.13,2.96s12.25,6.08,25.76,6.19s16.43-1.95,16.43-1.95l3.68-2.92l2.92,2.38c0,0,3.46-0.97,7.13-3.13
	c3.68-2.16,4.76-3.89,4.76-5.4s-0.97-5.94-0.97-5.94l-12-45.18l5.19-5.3c0,0-0.23-0.6-0.64-1.26s-1.19-1.45-1.19-1.45l0.59-7.36
	c0,0,0.94-6.62,1.28-6.7s3.27,9.52,4.28,12.36c1.01,2.85,1.92,5.17,2.18,6.15c0.37,1.42,1.86,10.16,2.21,12.24s1.42,11.27,1.66,11.8
	s4.21,1.07,4.21,1.07l9.73-7.53l-0.77-5.99l-10.49-25.47L88.76,15.85c0,0-9.74-4.92-10.3-5.04c-1.45-0.32-3.78-0.54-3.78-0.54
	L50.6,11.24c0,0-1.89,0.51-2.73,0.74s-13.1,10.7-13.17,11.24S21.2,50.54,21.2,50.54s-4.4,21.22-4.63,22.22s-1.08,3.55-1.08,3.55
	l1.54,2.08c0,0,13.43,1.31,13.97,0.39s0.15-7.41,0-9.18S30.08,56.92,30.3,55.62L30.3,55.62z"/>
<path style="fill:#D5AA67;" d="M34.49,114.49c0,0,7.7,5.24,21.11,5.64s22.04-3.03,22.04-3.03s-0.16-6.79-0.24-10.38
	c-0.08-3.59-0.4-8.23-0.4-8.23s-8.63,4.47-10.22,5.11s-3.35-0.24-3.51-2.16s0.08-12.94,0.08-12.94s-2.16,11.26-2.48,12.54
	s-0.88,2.08-2.88,2.88s-6.47,1.84-7.75,2.16s-2.4-0.4-2.4-1.6s0.96-3.03,0.96-3.03l11.4-31.81c0,0-8.21-0.72-12.9-1.48
	s-7.22-0.36-7.22-0.36s-2.45,12.81-3.25,21.36s-1.81,21.57-1.89,22.69s-0.46,2.66-0.46,2.66L34.49,114.49z"/>
<path style="fill:#B7885A;" d="M43.72,74.96c-0.31,0.04-3.81,5.07-4.56,6.02s-1.61,2.01-1.61,2.01S37.07,86.3,37,87.4
	c-0.1,1.5-0.25,3.09-0.25,3.09s3.21-2.94,6.12-6.3c3.01-3.47,4.92-5.52,4.92-6.22S44.13,74.91,43.72,74.96L43.72,74.96z"/>
<path style="fill:#A66F38;" d="M78.84,67.39c0,0,0.96,17.77,1.49,23.2c0.53,5.43,0.85,13.94,1.6,17.88s1.63,7.76,1.7,9.47
	c0.08,1.82-0.23,3.21-0.23,3.21s-2.43,0.19-3.39,0.19s-3.2,0.35-3.2,0.35s0.73-6.14,0.47-14.92s-0.59-11.09-0.59-11.09
	s-6.18,3.35-7.95,4.17c-1.2,0.55-3.62,1.49-3.62-0.96s-0.95-23.4-0.95-23.4s-4.69,21.91-5.11,23.19s-0.55,1.84-2.19,2.46
	s-6.96,2.54-7.6,2.33s-0.44-2.03-0.44-2.03L61.3,69.83l-1.73-2.64c0,0-1.03-1.1-0.97-2.1s1.93-3.35,1.93-3.35l7.49,0.68
	c0,0,1.43,1.62,1.43,2.5s-0.91,2.9-0.91,2.9l10.32-0.44L78.84,67.39z"/>
<path style="fill:#D5AA67;" d="M68.51,70.43c0,0,2.01-1.01,3.49-1.17s3.33,0.31,3.33,0.31s0.46,8.88,0.63,12.91
	c0.18,4.29,0.5,10.66,0.5,10.66l-7.08-11.32L68.51,70.43L68.51,70.43z"/>
<path style="fill:#7A4E23;" d="M55.5,70.9c-2.39,0.06-2.99,2.01-2.89,3.2c0.13,1.44,1.57,2.58,2.89,2.58s2.76-0.94,2.89-2.76
	S57.13,70.86,55.5,70.9z"/>
<path style="fill:#D5AA67;" d="M86.76,116.88c0,0,3.28-1.9,5.18-3.12s3.25-2.45,3.25-2.45s-1.27-8.74-1.81-11.79
	s-2.02-13.11-2.65-18.95C90.06,74.33,88.9,65.9,88.9,65.9s-3.62,0.23-4.91,0.61s-3.09,1.91-3.09,1.91s0.99,18.85,1.76,25.7
	c0.76,6.85,1.98,13.28,2.73,15.76c1.29,4.27,1.37,7.01,1.37,7.01L86.76,116.88z"/>
<path style="fill:#B7885A;" d="M85.79,74.93c0,0-3.74,2.27-3.79,2.84c-0.03,0.37,2.89,3.96,5.42,6.79s4.38,4.63,4.4,4.62
	c0.08-0.04-1.14-8.71-1.14-8.71s-4.48-5.59-4.9-5.54H85.79z"/>
<path style="fill:#7A4E23;" d="M70.21,71.03c-1.6,0.05-2.87,1.32-2.59,2.92c0.25,1.42,1.16,2.54,3.03,2.37
	c1.76-0.16,2.54-1.27,2.48-2.87c-0.04-1.27-1.27-2.48-2.92-2.43L70.21,71.03z"/>
<polygon style="fill:#7A4E23;" points="54.08,8.99 53.06,12.74 55.1,17.32 72.06,17.32 72.89,7.91 65.39,5.12 56.81,6.2 "/>
<path style="fill:#B7885A;" d="M54.27,16.49c0,0,3.18-2.6,9.09-2.6s9.28,2.73,9.28,2.73l-9.02,14.74l-2.73-2.03L54.27,16.49
	L54.27,16.49z"/>
<path style="fill:#D5AA67;" d="M35.51,26.87c0.16,1.59,1.13,2.21,4.13,2.88s7.76,2.08,7.76,2.08s-2.29,6.58-2.47,7.93
	s0.08,3.16,1.86,3.77s5.37,1.7,7.76,2.43s9.72,3.31,11.29,4.22c1.13,0.65,6.37,3.71,6.94,5.91c0.47,1.83,0.43,2.51,0.43,2.51
	s-9.19,1.53-17.22,0.74c-8.03-0.8-12.95-2.57-12.95-2.57s-1.03-3.16-1.05-3.28s0.18-7.93,0.02-10.49s-0.5-6.31-1.67-7.17
	s-2.56-0.77-3.59,0.8s-2.7,5.13-4.39,7.85s-4.33,6.36-4.49,8.05s0.7,12.91,0.7,12.91l-11.35,3.07c0,0,0.2-8.48,0.07-12.48
	c-0.13-4.01-0.16-7.33,0.87-10.42c1.4-4.21,5.95-9.37,7.61-12.02c1.47-2.34,4.21-8.95,6.14-12.42s9.36-6.43,11.63-7.56
	s4.4-1.65,4.4-1.65s-2.52,3.43-4.01,5.21c-2.4,2.87-8.55,7.93-8.38,9.68L35.51,26.87z"/>
<path style="fill:#D5AA67;" d="M74.99,46.48c0,0,1.88,3.28,2.63,5.72s1.13,5.11,1.13,5.11s3.12-1.15,4.54-1.87s2.75-1.61,2.75-1.61
	s0.48-6.93,0.68-8.88s0.68-5.03,0.68-5.37s-0.78-5.59-0.78-6.47s0.29-1.64,1.27-1.78s1.93,0.66,2.78,3.47s7.17,19.66,7.53,21.67
	c0.52,2.91,1.51,11.15,1.51,11.15l10.68,0.29c0,0-0.4-6.15-1.54-11.05s-1.9-7.76-2.68-10.36c-0.67-2.24-7.97-21.01-9.22-24.14
	s-3.19-5.29-5.58-6.6s-12.68-5.09-12.91-4.91c-0.16,0.13,4.01,5.28,5.73,7.41c2.7,3.34,4.36,5.59,4.48,6.35s-0.68,1.47-1.93,2.14
	c-0.83,0.44-7.66,3.07-7.66,3.58s1.8,2.75,2.54,3.83s2.12,2.65,2,3.68s-3.36,3.87-4.73,5.18s-3.9,3.47-3.9,3.47V46.48z"/>
<path style="fill:#A66F38;" d="M45.68,63.77l-5.27,1.13l-0.32,2.88c0,0,13.16,2.98,23.98,2.81c4.13-0.06,7.94-0.47,11.26-1.03
	c2.06-0.34,3.93-0.74,5.58-1.15c5.01-1.23,8-2.53,8-2.53l-0.44-2.78l-7.65-1.72l-8.68,5.79c0,0-5.31,0.59-8.36,0.64
	s-7.93-0.38-7.93-0.38L45.68,63.77L45.68,63.77z"/>
<path style="fill:#E7BA75;" d="M41.36,59.07c0,0,3.62,1.37,7.15,1.92c4.29,0.66,9.33,1.15,9.33,1.15s-2.41,1.99-2.55,2.91
	s1.3,2.47,1.3,2.47s-6.97-0.62-10.16-1.15c-3.79-0.63-6.03-1.45-6.03-1.45s-0.28-0.91,0.13-3.03c0.22-1.14,0.83-2.81,0.83-2.81
	L41.36,59.07z"/>
<path style="fill:#E7BA75;" d="M69.39,61.48c-0.1-0.33,5.87-0.46,10.59-1.98s7.54-3.31,7.54-3.31s1.05,2,1.17,3.56
	c0.15,1.91-0.14,3.48-0.14,3.61S84,65.3,80.74,65.99s-8.41,1.48-8.59,1.18s0.78-2.37,0.65-3.13S69.5,61.8,69.39,61.48L69.39,61.48z"
	/>
<path style="fill:#A66F38;" d="M74.45,51.56c-1.24-3.13-2.72-5.69-2.72-5.69l1.73-23.65l1.9-10.63L73.88,7.8
	c0,0-2.27-2.79-5.45-3.16S59.9,4.15,58.08,4.68c-2.84,0.82-5.21,3.7-6.21,5.1s-0.31,14.83-0.31,14.83l15.95,21.9l3.9,4
	c0,0,1.99,1.99,2.63,3.44c1.04,2.36,1.22,4.4,1.22,4.4l1.18-0.27c0,0-0.74-3.39-1.98-6.52H74.45z M67.8,23.35
	c-1.65,2.86-4.89,6.86-4.89,6.86s-9.07-14.37-8.26-18.3c0.75-3.63,2.58-4.42,3.47-4.99s9.42-0.47,10.57,0.04
	c1.14,0.51,3.12,2.6,2.99,5.85c-0.19,4.77-2.22,7.69-3.88,10.55V23.35z"/>
<path style="fill:#B7885A;" d="M81.08,10.16c-0.53,0.33-0.38,1.39-0.38,1.39s2.77,1.11,4.19,1.7s2.91,1.63,3.81,1.56
	s1.21-2.01,0.1-3.29S81.73,9.75,81.08,10.16L81.08,10.16z"/>
<path style="fill:#B7885A;" d="M43.43,11.86c-0.71-0.2-2.94,0.55-4.5,1.11s-2.53,1.35-2.63,2.01s0.62,2.42,1.39,2.42
	s6.55-3.46,6.55-3.84S44.07,12.04,43.43,11.86L43.43,11.86z"/>
<path style="fill:#D5AA67;" d="M28.2,72.5c0,0-4.7,0.46-7.64,1.47s-5.08,2.34-5.08,2.34s-0.42,1.15-0.54,2.35s0.43,2.52,0.43,2.52
	l5.75,0.26l7.47-3.86l-0.38-5.08L28.2,72.5z"/>
<path style="fill:#7A4E23;" d="M20.65,77.91c-3.58,0.96-5.4,2.92-5.4,2.92s1.01,3.45,5.9,3.37c8.04-0.13,9.84-5.42,9.84-5.42
	S28.42,75.83,20.65,77.91z"/>
<path style="fill:#A66F38;" d="M25.8,64.83c0,0,1.28-0.2,3.02-0.08s3.05,0.7,3.32,1.8s0.44,3.15-0.27,3.75s-1.5,0.39-3.11,0.34
	c-1.96-0.06-4.43,0.4-8.34,1.61c-2.77,0.86-5.45,2.86-6.81,2.87c-0.88,0-1.53-0.33-1.81-0.98s0-1.59,0-1.59l14.01-7.72H25.8z"/>
<path style="fill:#B7885A;" d="M26.14,68.56c0.12-0.34-0.34-3.73-0.34-3.73s-5.09,0.93-8.81,2.68c-3.66,1.72-5.43,4.09-5.32,5.74
	c0.05,0.88,1.65-0.64,6.16-2.29c4.42-1.61,8.2-2.07,8.32-2.41L26.14,68.56z"/>
<path style="fill:#E7BA75;" d="M64.6,32.2l7.31,14.11c0,0,3.41-2.8,4.92-4.25c1.35-1.29,4.73-3.82,4.73-4.72s-2.16-3.24-3.31-5.03
	s-2.16-3.13-2.16-3.13s5.11-2.21,6.95-2.95s3.26-1.22,3.37-2.11c0.09-0.77-3.84-5.05-5.53-7.16s-4.21-5.9-5-6.84
	s-1.99-2.33-1.99-2.33s1.28,6.87-1.83,12.98s-7.44,11.42-7.44,11.42L64.6,32.2z"/>
<path style="fill:#E7BA75;" d="M51.86,9.78c0,0-1.21,0.83-2.84,3.3s-4.53,6.05-6.37,7.84s-4.43,4.23-4.58,4.9
	c-0.32,1.47,3.45,1.84,5.69,2.33s6.76,1.49,6.76,1.49s-2.1,6.06-2.55,7.45c-0.42,1.27-0.96,2.45-0.55,3.31
	c0.32,0.68,5.71,2.37,8.08,3.11s7.6,2.74,9.84,3.74c2.75,1.22,6.05,3.26,6.05,3.26s-2.68-5.21-5.05-9.21s-8.48-14.42-10-17.53
	S51.63,16.81,51.86,9.78z"/>
<path style="fill:#7A4E23;" d="M69.08,52.63c-1.6,0.07-2.73,1.31-2.59,2.92c0.13,1.51,1.16,2.54,3.03,2.37
	c1.76-0.16,2.63-1.22,2.47-2.81C71.85,53.75,70.57,52.57,69.08,52.63z"/>
<path style="fill:#7A4E23;" d="M56.79,52.29c-1.93,0-2.59,1.82-2.48,3.03s1.16,2.43,2.81,2.48s2.54-1.49,2.54-2.76
	S58.51,52.28,56.79,52.29L56.79,52.29z"/>
<path style="fill:#D5AA67;" d="M100.41,73.99l1.12,6.86l10.12-0.56c0,0,0.84-0.13,1.16-1.11s-1.05-4.22-1.05-4.22
	s-2.66-0.88-5.89-1.12S100.4,74,100.4,74L100.41,73.99z"/>
<path style="fill:#7A4E23;" d="M97.88,81.99c0,0,1.72-2.54,6.02-3.33c5.51-1.01,8.96,0.23,8.96,0.23s0.83,3.76-2.94,4.77
	c-2.65,0.71-7.14,0.9-9.28,0.34C98.12,83.34,97.88,81.99,97.88,81.99z"/>
<path style="fill:#A66F38;" d="M95.24,68.2c-0.61,0.83-0.01,3.18,0.51,4.67s3.46-0.44,5.28-0.79c1.96-0.38,4.33-0.39,6.69,0.06
	s3.8,1.37,5.09,1.34c2.14-0.06,2.56-1.3,2.56-1.3l-3.67-4.03l-10.85-2.3c0,0-4.5,0.84-5.62,2.36L95.24,68.2z"/>
<path style="fill:#B7885A;" d="M101.55,70.34l-0.68-4.49c0,0,3.64-0.89,8.43,0.06c4.83,0.96,6.81,4.83,6.08,6.28
	c-0.28,0.56-3.75-0.89-7.51-1.59c-4.22-0.79-6.32-0.25-6.32-0.25V70.34z"/>
<path style="fill:#E7BA75;" d="M68,62.42c0.07,0.63-2.58,4.33-3.71,4.33s-4.02-3.2-4.27-4.02s3.02-3.52,4.02-3.52
	S67.87,61.28,68,62.42L68,62.42z"/>
<path style="fill:#E7BA75;" d="M59.44,67.08c0,0,0.82,1.01,1.88,1.73c0.75,0.51,1.73,1.05,1.73,1.4c0,0.82-5.99,28.59-6.18,28.9
	s-7.66,2.66-8.07,2.33c-0.22-0.17,2.02-9,4.87-17.97C56.21,75.47,59.33,67.39,59.44,67.08L59.44,67.08z"/>
<path style="fill:#E7BA75;" d="M68.88,66.95c0,0-0.72,1-1.51,1.74s-1.66,1.23-1.66,1.42c0,0.38,0.85,10.66,1.35,16.25
	s1.05,11.14,1.05,11.14s3.54-1.45,4.89-2.16c1.86-0.97,3.54-2.14,3.54-2.14s-3.27-11.43-4.02-14.38S68.88,66.95,68.88,66.95z"/>
</svg>
