<?xml version="1.0" encoding="utf-8"?>
<!-- Generator: Adobe Illustrator 26.3.1, SVG Export Plug-In . SVG Version: 6.00 Build 0)  -->
<svg version="1.1" id="a" xmlns="http://www.w3.org/2000/svg" xmlns:xlink="http://www.w3.org/1999/xlink" x="0px" y="0px"
	 viewBox="0 0 128 128" style="enable-background:new 0 0 128 128;" xml:space="preserve">
<path style="fill:#006CA8;" d="M9.41,23.72l-5.1,2.38c0,0-0.53,3.6,0.29,7.57c0.64,3.07,5.29,10.78,9.46,16.94
	c12.12,17.86,29.91,52.73,55.62,61.75c18.38,6.45,33.34,4.45,41.7-0.07c10.12-5.47,11.67-13.72,11.67-13.72L21.9,23.87
	C21.9,23.87,9.41,23.72,9.41,23.72z"/>
<path style="fill:#34A9AE;" d="M43.7,36.64L8.52,15.81c0,0-2.35,1.92-3.45,5.72c-0.61,2.11-0.77,4.68-0.77,4.68
	S22.18,55.93,35.22,74.8c7.92,11.46,19.01,24.17,32.54,30.69c13.53,6.51,29.51,6.82,40.8,3.37c12.14-3.71,14.5-10.28,14.5-10.28
	s2.31-8.08-2.06-14.45L43.7,36.64z"/>
<path style="fill:#86CDC7;" d="M17.48,11.91C8.3,13.41,5.43,18.04,7.18,22.4c3,7.49,33.72,52.82,41.77,61.62s32.16,30.07,63.5,17.04
	c12.58-5.23,12.56-13,5.95-20.13c-9.71-10.49-32.06-20.28-36.3-24.07c-7.12-6.37-21.73-18.92-29.22-27.72
	C48.8,24.35,42.7,16.97,35.46,13.59C29.4,10.77,22.21,11.13,17.48,11.91L17.48,11.91z"/>
<path style="fill:#144E92;" d="M68.99,37.26l-12.53,1.15c0,0,3.13,3.9,4.51,5.43s1.99,2.75,4.2,2.75c2.21,0,9.55-1.22,16.73,0.46
	s11.61,6.42,11.61,6.42l5.65-1.38L89.69,40.4l-20.71-3.13L68.99,37.26z"/>
<path style="fill:#1FA9EB;" d="M90.87,65.67l-2.57,5.05c0,0-4.63,0.54-14.23-3.12c-6.98-2.66-17.64-8.41-22.86-10.28
	c-12.03-4.31-18.18-2.2-19.28-2.57s-6.7-8.26-6.52-8.63s7.9-2.48,7.9-2.48L48,45.11l17.53,7.53l13.5,4.31l10.65,1.74
	C89.68,58.69,90.87,65.67,90.87,65.67z"/>
<path style="fill:#0D6BDB;" d="M56.71,36.66c-1.07,0.78-0.28,2.3,0.92,2.39s20.84-0.92,26.9,1.56s10.28,5.51,12.21,10.47
	s-8.54,6.15-8.54,6.15s-13.86-2.39-22.95-6.33c-8.93-3.88-12.99-6.37-21.67-7.99C35.23,41.35,28.71,43,26.32,44.1
	s-1.01,3.12,1.1,2.3s9.46-1.47,16.16-0.64c5.37,0.66,16.34,5.97,20.11,7.71c3.77,1.74,11.75,4.22,15.42,4.96
	c3.67,0.73,7.16,1.1,7.16,1.1s0.83,3.21,1.29,5.6s0.73,5.6,0.73,5.6s3.18,0.14,5.42-0.64c3.43-1.2,10.92-1.84,10.28-11.2
	s-9.62-17.33-14.41-20.01c-8.35-4.68-31.21-3.4-32.87-2.2L56.71,36.66z"/>
<path style="fill:#0D6BDB;" d="M98.49,75.5l-8.26,8.45c0,0-1.09,5.29,2.75,5.6c3.4,0.28,8.35-2.39,9.27-13.13
	C102.56,72.81,98.49,75.5,98.49,75.5z"/>
<path style="fill:#00A5FF;" d="M88.2,57.23c-0.21,1.46,2.48,7.07,2.48,12.3s-0.46,14.41-0.46,14.41s1.84,2.11,5.6,0.64
	s7.71-6.43,7.16-16.52c-0.55-10.1-4.22-16.16-5.51-16.34S88.47,55.3,88.2,57.23z"/>
</svg>
