<?xml version="1.0" encoding="utf-8"?>
<!-- Generator: Adobe Illustrator 26.3.1, SVG Export Plug-In . SVG Version: 6.00 Build 0)  -->
<svg version="1.1" id="a" xmlns="http://www.w3.org/2000/svg" xmlns:xlink="http://www.w3.org/1999/xlink" x="0px" y="0px"
	 viewBox="0 0 128 128" style="enable-background:new 0 0 128 128;" xml:space="preserve">
<path style="fill:#B1B1B1;" d="M77.62,92.17c-0.29,0-0.55-0.22-0.59-0.51l-0.75-5.57c-0.04-0.32,0.18-0.62,0.51-0.67
	c0.32-0.05,0.62,0.18,0.67,0.51l0.75,5.57c0.04,0.32-0.18,0.62-0.51,0.67C77.67,92.17,77.65,92.17,77.62,92.17z"/>
<path style="fill:#B1B1B1;" d="M72.65,86.4l25.94-41.05c0.17-0.28,0.54-0.36,0.82-0.18c0.28,0.17,0.36,0.54,0.18,0.82L78.44,79.46
	l37.15-34.24c0.24-0.22,0.61-0.21,0.84,0.03c0.22,0.24,0.21,0.61-0.03,0.84L72.66,86.4L72.65,86.4z"/>
<path style="fill:#E59F1D;" d="M106.94,31.95l12.6,12.54c0,0-3.4,3.45-15.96,2.52c-12.01-0.89-15.26-8.44-15.26-8.44l5.16-8.17
	C93.48,30.4,106.94,31.95,106.94,31.95z"/>
<path style="fill:#D2711F;" d="M90.91,31.66l-3.52,4.49c0,0,0.21,1.48,0.93,2.42s5.46,2.18,10.53,1.45
	c5.46-0.78,10.19-2.49,9.96-5.86c-0.11-1.63-17.89-2.5-17.89-2.5H90.91z"/>
<path style="fill:#02AEA8;" d="M99.67,24.3l-21.41,4.37l1.45,3.68c0,0,5.41,4.2,11.52,4.83c6.01,0.62,14.89-1.28,17.69-4.37
	s-9.26-8.51-9.26-8.51L99.67,24.3z"/>
<path style="fill:#039BA1;" d="M88.32,13.61c0,0,8.1-0.96,12.96,1.31c2.82,1.32-10.89,11.82-10.89,11.82s-2.31,2.64-5.41,4.2
	c-3.1,1.56-5.26,1.4-5.26,1.4s-2.93-2.36-3.38-3.59S88.33,13.61,88.32,13.61L88.32,13.61z"/>
<path style="fill:#B1B1B1;" d="M75.55,83.51c0,0-0.03,0-0.05,0c-0.29-0.02-0.52-0.25-0.54-0.54l-2.49-27.58
	c-0.03-0.3,0.18-0.57,0.47-0.63l15.79-28.6c0.14-0.26,0.45-0.37,0.73-0.27c0.28,0.11,0.43,0.4,0.36,0.69l-6.58,28.37l-7.12,28.11
	C76.05,83.32,75.82,83.51,75.55,83.51z M73.69,55.81l2.13,23.61l6.27-24.74l5.61-24.22L73.77,55.7
	C73.77,55.7,73.72,55.78,73.69,55.81L73.69,55.81z"/>
<path style="fill:#B1B1B1;" d="M82.87,55.49c-0.17,0-0.34-0.07-0.46-0.21c-0.21-0.25-0.17-0.63,0.08-0.83l23.44-19.4
	c0.25-0.21,0.62-0.17,0.83,0.08s0.17,0.63-0.08,0.83l-23.44,19.4c-0.11,0.09-0.24,0.14-0.38,0.14L82.87,55.49z"/>
<path style="fill:#15CB9B;" d="M72.08,9.29l-7.16,19.87c0,0,7.41,3.08,13.68,2.04s11.21-5.13,11.63-9.88S72.08,9.29,72.08,9.29z"/>
<path style="fill:#5E6367;" d="M68.3,98.82c0,0-6.85-9.1-6.22-10.17s7.05,9.16,7.05,9.16s-0.19-0.91,0.06-2.09
	c0.19-0.91,0.67-1.86,2.08-2.07c2.28-0.33,2.86,2.26,2.86,2.26s-0.61-10.97,0.03-10.96s0.95,7.29,0.95,7.29s0.93-6.56,1.37-6.42
	c0.88,0.29-1.11,11.78-1.11,11.78l1.13,5.61c0,0,0.24,1.04,0.63,1.83c0.44,0.9-1.37,3.91-1.37,3.91s-1.09,0.82-2.02,0.23
	s-4.09-0.44-4.09-0.44s-2.59,0.37-3.21-3.56c-0.61-3.84,1.04-4.1,1.04-4.1l0.81-2.27L68.3,98.82z"/>
<path style="fill:#467CE0;" d="M77.58,86.5c0,0,0.32-3.45-2.67-4.75c-1.36-0.59-3.67-0.37-6.55,0.19c-6.02,1.17-6.49,2.14-7.38,4.1
	c-0.63,1.37,0.83,3.27,1.04,3.44L77.58,86.5z"/>
<path style="fill:#B1B1B1;" d="M62.05,88.97c-0.09,0-0.19-0.02-0.28-0.07L10.51,61.45l0.56-1.04L57.16,85.1L25.43,58.75l0.76-0.91
	l36.24,30.1c0.23,0.19,0.28,0.53,0.11,0.79c-0.11,0.17-0.3,0.26-0.49,0.26V88.97z"/>
<polygon style="fill:#B1B1B1;" points="62.97,90.64 33.95,51.06 34.91,50.36 59.97,84.55 53.34,61.64 37.45,42.26 38.36,41.51 
	54.41,61.07 "/>
<polygon style="fill:#B1B1B1;" points="53.2,61.47 52.61,28.24 62.44,58.1 61.31,58.47 53.93,36.05 54.39,61.45 "/>
<path style="fill:#B1B1B1;" d="M63.37,95.51c-0.27,0-0.52-0.19-0.58-0.47l-1.37-6.56v-0.06l-0.1-30.58v-0.06l7.92-37.47l4.43,35.15
	c0.04,0.32-0.19,0.62-0.51,0.66c-0.33,0.04-0.62-0.19-0.66-0.51l-3.55-28.17l-6.44,30.52l0.1,30.39l1.35,6.44
	c0.07,0.32-0.14,0.63-0.46,0.7C63.46,95.49,63.42,95.5,63.37,95.51L63.37,95.51z"/>
<path style="fill:#5E6367;" d="M77.27,96.94l-0.54-2.44c0,0,0-0.36-0.11-1.15s0.06-1.41,0.73-1.51s0.9,0.59,1.07,1.22
	c0.1,0.35,0.18,1.17,0.18,1.17S77.27,96.94,77.27,96.94z"/>
<path style="fill:#5E6367;" d="M65.19,99.15l0.58-1.75c0,0-0.36-1.15-0.67-1.71c-0.27-0.49-0.67-0.99-1.14-0.89
	s-0.78,0.92-0.68,2.03c0.09,0.95,0.25,1.17,0.25,1.17l1.65,1.14L65.19,99.15z"/>
<path style="fill:#E04537;" d="M69.66,108.76c0,0,0.26-1.65,1.78-1.78c1.1-0.09,1.73,0.48,2.15,1.03c0.85,1.09,1.63,1.97,1.8,2.35
	c0.32,0.74,0.42,2.41,0.42,2.41l-2.18,1.29l-1.09-0.8c0,0-0.05-0.72-0.22-1.4c-0.08-0.33-0.87-0.96-1.52-1.69
	c-0.6-0.68-1.16-1.39-1.16-1.39L69.66,108.76z"/>
<path style="fill:#B0B0B0;" d="M79.95,114.61l-0.03,0.09l-0.97,3.13c0,0,0.13,1.12,0.35,1.61c0.51,1.14,3.31,1.48,3.85,1.07
	s-1.12-2.35-1.12-2.35l-0.21-1.18l-1.88-2.38L79.95,114.61z"/>
<path style="fill:#B0B0B0;" d="M74.81,117.51l-1.64,1.78c0,0-0.03,0.59,0.27,1.21c0.33,0.68,1.76,1.91,2.83,1.55
	c0.76-0.26,0.09-3.46,0.09-3.46l-1.55-1.07L74.81,117.51z"/>
<path style="fill:#FFB803;" d="M107.82,33.4c0,0-2.56,2.06,2.92,7.5c7.05,6.99,9.68,3.59,11.6,0.29c2.73-4.68-0.36-8.43-3.53-12.21
	c-3.86-4.6-8.41-4.04-8.41-4.04l-2.59,8.47L107.82,33.4z"/>
<path style="fill:#07D6B7;" d="M95.98,14.82c-2.54,0.45-4.69,3.25-5.59,6.32s-0.51,8.88,6.16,11.92c6.66,3.05,12.38,1.96,14.08-2.91
	c1.7-4.87,1.38-8.92-5.95-13.55C100.67,14.06,98.58,14.36,95.98,14.82z"/>
<path style="fill:#8BEAA9;" d="M63.03,8.8c0,0,10.44-4.67,20.21-0.07s7.91,9.91,6.98,12.6s-3.8,5.72-11.49,3.65
	c-7.68-2.07-8.21-6.21-8.21-6.21L63.03,8.8L63.03,8.8z"/>
<path style="fill:#467CE0;" d="M52.59,11.54l-18.64,5.78c0,0-2.35,2.41-3.03,4.85c-0.68,2.45,22.35,9.98,22.35,9.98
	s11.67-0.91,15.21-5.63c4.81-6.42,2.99-11.89,2.99-11.89L52.59,11.54L52.59,11.54z"/>
<path style="fill:#349EFE;" d="M33.95,17.32c0,0,4.8-1.66,10.24-0.3s10.16,5.86,10.16,5.86l13.61-6.64c0,0,2.24-0.76,2.81-1.1
	c0.42-0.25,0.69-0.51,0.69-0.51s-2.49-8.2-17.71-6.5S33.95,17.32,33.95,17.32z"/>
<path style="fill:#CC26A1;" d="M18.09,30.2l-3.94,4.2c0,0-1.06,2.47-1.38,4.43s26.25,4.4,26.25,4.4s2.54,0.14,5.82-3.05
	c3.27-3.19,4.06-4.01,6.65-5.69s2.36-3.97,2.14-5.45s-1.13-2.96-1.13-2.96l-17.26-1.46l-17.15,5.59L18.09,30.2z"/>
<path style="fill:#F84AB2;" d="M14.15,34.39c0,0,3.61-8.59,11.56-12.25s17.24-2.17,20.66-0.85s6.13,4.77,6.13,4.77
	s-8.86,8.53-12.72,9.09s-8.78-2.17-15.9-2.56C16.76,32.2,14.15,34.39,14.15,34.39z"/>
<path style="fill:#FF706A;" d="M17.39,43.61L3.35,53.22c0,0,1.33,5.84,6.5,8.12s12.56,2.44,17.14-0.74c4.59-3.18,7.35-7.11,9-9.66
	s2.79-5.14,2.37-6.69s-4.03-5.78-6.84-6.39s-14.13,5.77-14.13,5.77L17.39,43.61z"/>
<path style="fill:#FF8984;" d="M13.07,37.37c0,0-5.05,1.44-8.3,8.36c-3.24,6.92-0.7,8.77-0.7,8.77s2.72,1.72,10.32,1.95
	c7.6,0.22,10.81-1.61,15.05-7.61c4.63-6.55,4.01-10.11,4.01-10.11s-2.64-2.16-10.29-2.71c-6.53-0.47-10.1,1.35-10.1,1.35H13.07z"/>
<path style="fill:#A5146A;" d="M41.11,29.5c-1.75,1.61-6.82,1.77-6.32,6.87c0.45,4.57,5.12,5.54,7.69,3.42s1.91-3.88,3.5-5.03
	s2.81-0.51,4.65-2s1.28-4.71,0.01-6.38s-4.55-2.33-6.6-0.8C42,27.11,42.83,27.91,41.11,29.5L41.11,29.5z"/>
<path style="fill:#E34B44;" d="M26.43,48.28c-0.44,1.16-1.81,1.11-2.75,1.87c-1.25,1.02-1.91,2.97-0.31,6.28
	c1.35,2.78,3.53,2.49,5.09,0.48c1.18-1.52,1.82-4.45,2.58-5.4c0.83-1.03,2.86-1.95,4.13-3.47c1.42-1.72,1.91-4.09-0.57-5.82
	s-4.97-1.11-6.33,0.71C27.15,44.42,26.97,46.85,26.43,48.28L26.43,48.28z"/>
<path style="fill:#164ACA;" d="M61.16,16.63c-1.84,0.26-3.89-0.98-6.39,0.31s-2.06,4.32-1.36,7.36s2.17,4.38,4.63,3.76
	s2.55-3.25,4.64-3.61c2.09-0.36,2.6,0.83,4.68-0.07s3.3-2.68,2.59-6.74s-2.23-4.3-4.35-3.67s-2.48,2.37-4.45,2.65L61.16,16.63z"/>
<path style="fill:#0AAC81;" d="M82.56,14.49c-0.8-0.3-1.74-1.67-3.27-2.21c-2.02-0.72-4.69-0.26-5.61,3.42
	c-0.87,3.48,0.48,5.39,2.11,5.86c1.41,0.4,3.48-0.21,4.73,0.26c1.14,0.43,2.01,1.53,3.54,1.77c2.1,0.32,4.32-0.87,5.19-3.96
	c1.11-3.9-1.18-5.42-3.56-5.65c-1.16-0.11-2.12,0.9-3.14,0.52L82.56,14.49z"/>
<path style="fill:#039BA1;" d="M102.88,22.5c-0.79-0.7-1.38-2.16-2.64-2.97c-2.1-1.35-5.09-1.54-6.9,1.86
	c-1.7,3.18-0.26,5.53,1.77,6.72c1.44,0.84,3.24,0.85,4.14,1.28c1.08,0.52,2.53,2.31,4.17,2.89s3.44-0.06,4.9-2.24s1.26-4.78-0.19-6
	s-3.56-0.03-5.24-1.53L102.88,22.5z"/>
<path style="fill:#D2711F;" d="M117.38,33.89c-0.68-0.64-0.89-2.28-1.77-3.43c-1.14-1.48-3.05-2.22-4.92,0.24
	c-1.63,2.14-0.94,4.5,0.33,5.58c1.31,1.12,3.25,0.96,3.88,1.79c1.24,1.63,2.8,6.43,6.09,2.28c1.4-1.77,0.84-3.82,0.06-4.7
	C120,34.47,118.23,34.7,117.38,33.89L117.38,33.89z"/>
<path style="fill:#5E6367;" d="M72.55,113.25c0,0,0.6,0.1,1.81-0.07c0.99-0.14,1.46-0.41,1.46-0.41l0.56,6.02
	c0,0-0.35,0.44-1.31,0.6c-1.29,0.21-1.89-0.09-1.89-0.09L72.55,113.25L72.55,113.25z"/>
<path style="fill:#E04537;" d="M75.77,108.96c0.04,0.28,1.18,1.04,1.43,1.45s0.75,1.63,0.75,1.63l2.81,0.15l0.32-0.72
	c0,0-0.27-1.39-0.73-2.4c-0.46-1.02-3.19-4.06-3.19-4.06s-0.82,1.18-1.07,2.06c-0.28,0.96-0.3,1.89-0.3,1.89L75.77,108.96z"/>
<path style="fill:#E04537;" d="M76.72,94.49c0,0,0.47,0.14,0.94,0.09c0.61-0.07,0.94-0.36,0.94-0.36s0.63,2.36-0.09,3.83
	s-2.4,2.35-2.4,2.35l0.4,2.81c0,0-1.11-0.86-1.44-3.62s1.11-2.06,1.41-2.83s0.24-2.28,0.24-2.28L76.72,94.49z"/>
<path style="fill:#E04537;" d="M65.77,97.4c0,0-0.52,0.25-1.02,0.43C64.1,98.06,63.53,98,63.53,98s0.53,1.97,1.95,3.13
	c0.83,0.68,1.4,0.66,2.02,1.21s0.99,2.69,1.28,2.91c0.52,0.39,1.59,0.19,1.69-0.43s-0.21-2.77-0.58-3.8s-1.59-2.19-1.59-2.19
	s-1.4,0.25-1.81-0.17S65.77,97.41,65.77,97.4L65.77,97.4z"/>
<path style="fill:#E04537;" d="M71.95,100.94c0.02,0.35,0.47,3.31,0.71,3.37s1.46-0.27,1.46-0.49s-0.45-3.05-0.59-3.32
	S71.92,100.55,71.95,100.94L71.95,100.94z"/>
<path style="fill:#5E6367;" d="M77.95,112.04c0,0,1.17-0.13,1.92-0.25s1.21-0.32,1.21-0.32l0.83,5.65c0,0-0.57,0.53-1.06,0.68
	s-1.9,0.03-1.9,0.03L77.95,112.04z"/>
</svg>
