<?xml version="1.0" encoding="utf-8"?>
<!-- Generator: Adobe Illustrator 26.3.1, SVG Export Plug-In . SVG Version: 6.00 Build 0)  -->
<svg version="1.1" id="Layer_6" xmlns="http://www.w3.org/2000/svg" xmlns:xlink="http://www.w3.org/1999/xlink" x="0px" y="0px"
	 viewBox="0 0 128 128" style="enable-background:new 0 0 128 128;" xml:space="preserve">
<path style="fill:#EF8720;" d="M85.1,105.7c-2.8-5.4-6.7-15.1-6.7-26.9c0-14.5-14-13-14-13s-14-1.5-14,13c0,11.9-3.8,21.5-6.6,26.9
	c-2.2,4.3-1.2,9.6,2.6,12.6c3.4,2.8,8.8,5,17.4,5c0.2,0,0.5,0,0.7,0s0.4,0,0.7,0c8.6,0,14-2.3,17.4-5
	C86.4,115.3,87.4,110,85.1,105.7z"/>
<path style="fill:#EF8720;" d="M100.4,27.7h-36h-36l12.5,40.8c1.6,4.2,6.2,12.7,22.9,12.7S86.4,72.7,88,68.4l0,0l12.3-40.8
	L100.4,27.7z"/>
<path style="fill:none;stroke:#424242;stroke-width:1.1;stroke-linecap:round;stroke-miterlimit:10;" d="M38.4,40.1
	c0.7,1.1,1.8,1.8,3,2.3c2,0.8,4.2,1.1,6.3,0.7"/>
<path style="fill:none;stroke:#424242;stroke-width:1.1;stroke-linecap:round;stroke-miterlimit:10;" d="M50.7,42.5
	c0.5,0.8,1.4,1.2,2.2,1.5c3.1,1.1,6.8,1.3,9.7-0.5"/>
<path style="fill:none;stroke:#424242;stroke-width:1.1;stroke-linecap:round;stroke-miterlimit:10;" d="M65.7,43.3
	c1.8,1.2,3.9,1.8,6,1.6s4.2-1,5.8-2.4"/>
<path style="fill:none;stroke:#424242;stroke-width:1.1;stroke-linecap:round;stroke-miterlimit:10;" d="M80.5,41.9
	c0.3,0.4,0.7,0.7,1.2,0.9c2.2,0.9,4.8,0.2,7-0.9c0.8-0.4,1.6-0.9,1.9-1.7"/>
<path style="fill:none;stroke:#424242;stroke-width:1.1;stroke-linecap:round;stroke-miterlimit:10;" d="M92.5,39.3
	c1.5,0.5,3.1,0,4.5-0.6c0.6-0.3,1.2-0.8,1.2-1.4"/>
<path style="fill:none;stroke:#424242;stroke-width:1.1;stroke-linecap:round;stroke-miterlimit:10;" d="M30.9,36.4
	c-0.2,0.5,0.1,0.9,0.4,1.3c1.1,1.4,2.9,2.2,4.6,2.1"/>
<ellipse style="fill:#FFCC80;" cx="64.6" cy="28.7" rx="38.8" ry="14.1"/>
<path style="fill:#424242;" d="M76.3,36.2v0.3l1.3,6.9c0,0,2-0.2,1.8-0.8s0.2-6.2,0.2-6.2"/>
<path style="fill:#424242;" d="M30.8,29c0.3,1.1-0.2,2.3,0,3.9s0.9,1.6,0.9,2.6c0.1,1.6-0.7,1.8-1.1,1.8c-1,0-2.1-1.5-2.2-4.6
	c0-0.6,0-2.5,0-2.9"/>
<path style="fill:none;stroke:#424242;stroke-width:1.7;stroke-linecap:round;stroke-miterlimit:10;" d="M30.5,35.8
	c0,0,7,25.8,10.3,34.1c2.2,5.4,8.6,9.3,8.6,9.3"/>
<path style="fill:#424242;" d="M37.9,32.7l1.7,1c0,0,0,0.8-0.2,1.7c-0.1,0.4-0.2,0.7-0.3,1c-0.2,0.6-0.2,1.2,0,1.7
	c0.2,0.4,0.3,0.9,0.3,1.2c0,0.6-0.5,2.1-0.7,2s-1.8-0.6-1.8-0.6l-0.2-3.9l-0.2-3.7l1.3-0.5L37.9,32.7z"/>
<path style="fill:#424242;" d="M97.8,29c-0.3,1.1,0.2,2.3,0,3.9s-0.9,1.6-0.9,2.6c-0.1,1.6,0.7,1.8,1.1,1.8c1,0,2.1-1.5,2.1-4.6
	c0-0.6,0-2.5,0-2.9"/>
<path style="fill:none;stroke:#424242;stroke-width:1.7;stroke-linecap:round;stroke-miterlimit:10;" d="M98.1,35.7
	c0,0-6.9,25.8-10.3,34.1c-2.6,6.3-10.5,10.1-10.5,10.1"/>
<polygon style="fill:#424242;" points="49.8,36.5 52.1,36.5 51.5,42.9 49.5,42 "/>
<path style="fill:#424242;" d="M90,33.1L90,33.1c-0.6,0.4-1,1.1-0.8,1.9c0,0.1,0,0.3,0.1,0.4c0.1,0.5,0.3,0.9,0.4,1.3
	c0.1,0.4,0.1,0.9,0,1.3c-0.2,0.4-0.4,1-0.4,1.4c0,0.6,0.5,2.1,0.7,2c0,0,0.3-0.1,0.7-0.2c0.7-0.2,1.2-0.9,1.2-1.6v-2.7
	c0.1,0,0.3-3.7,0.3-3.7L91.7,33c-0.5-0.2-1.1-0.1-1.6,0.1H90z"/>
<path style="fill:#FFCC80;" d="M26.5,22.2c0-8.3,11.2-16.3,37.5-16.3c26.2,0,38.4,8,38.4,16.3s-16.3,15-37.5,15s-38.4-6.7-38.4-14.9
	V22.2z"/>
<path style="fill:none;stroke:#E64A19;stroke-width:2.3;stroke-linecap:round;stroke-miterlimit:10;" d="M102.4,23
	c0,8.3-16.3,15-37.5,15s-38.4-6.7-38.4-14.9"/>
<ellipse style="fill:#FEF6E0;" cx="64.4" cy="18.9" rx="32.8" ry="11.9"/>
<path style="fill:none;stroke:#616161;stroke-width:3.4;stroke-linecap:round;stroke-miterlimit:10;" d="M88.1,68.5"/>
<path style="fill:none;stroke:#424242;stroke-width:2.3;stroke-linecap:round;stroke-miterlimit:10;" d="M60.6,46.8
	c0-2.2,1.8-3.9,3.9-4c2.1-0.1,3.9,1.8,4,3.9c0,1.9-2.9,26.2-3.7,33.7c0,0.2-0.4,0.2-0.4,0c-0.8-7.5-3.8-31.8-3.8-33.7L60.6,46.8z"/>
<path style="fill:#424242;" d="M66.2,41.5c-0.3-0.7-0.3-1.5,0-2.3c0.3-0.6,0.6-1.4,0.6-1.9c0-0.7-0.6-1.2-1.2-1.3h-1.9
	c-0.7,0-1.3,0.4-1.3,1.3c0,0.6,0.3,1.3,0.6,1.9c0.3,0.7,0.3,1.5,0,2.3c-0.3,0.6-0.6,1-0.6,1.6c0,0.7,0.4,1.4,1.2,1.6
	c0.8,0.2,1.4,0.1,1.9,0c0.7-0.2,1.2-0.9,1.3-1.6C66.8,42.6,66.5,42.2,66.2,41.5z"/>
<path style="fill:none;stroke:#424242;stroke-width:1.7;stroke-linecap:round;stroke-miterlimit:10;" d="M82.2,47.3
	c1-4.2-0.8-5.3-3-5.3s-3.6,1.8-3.9,4c-0.7,4.3-1.8,28-2,34.7c0,0.2,0.3,0.3,0.4,0c1.8-6.8,8.2-31.5,8.6-33.4L82.2,47.3z"/>
<path style="fill:none;stroke:#424242;stroke-width:1.7;stroke-linecap:round;stroke-miterlimit:10;" d="M92.1,46.6
	c2.6-7.8,1.1-8.2-1-7.6c-2.6,0.7-4,8.7-4,8.7L79,79.9c2.6-0.8,12.5-31.2,13.2-33.3L92.1,46.6z"/>
<path style="fill:#424242;" d="M93,36.1c0.1-1.8,1.2-1.6,0.9-3.5c-0.2-1.3-1.2-1.5-2.1-1.4s-2.7,0.5-2.7,2.2c0,0,1.2-0.3,1.5,1
	c0.2,0.7-0.4,2.2-0.3,3.2c0.3,1.9,0.2,2.7,0,3.3c-0.1,0.3-0.5,0.7,0,0.8c0.7,0.2,1.5,0,2.1-0.3c1-0.4,1.5-1.5,1.3-2.8
	c-0.1-0.7-0.8-1.1-0.8-2.2L93,36.1z"/>
<path style="fill:#424242;" d="M81.4,40.2c-0.4-0.7-0.7-0.9-0.4-1.7c0.2-0.7,0.7-1.4,0.6-2.5c0-1.2-1.6-1.3-2.7-1.2s-2,0.2-2.6,1.4
	c0,0,1,0,1.5,1.4s0.3,2.9,0,3.8c-0.3,1-0.2,2-0.2,2s0.4,0.4,1.3,0.4c1.3,0,1.8-0.3,2.2-0.6c1-0.7,0.6-2.2,0.3-2.9L81.4,40.2z"/>
<path style="fill:#424242;" d="M102.2,27.3c-0.7-1.6-1.8-1.9-3.2-1.1c-1.5,0.9-1.3,2.7-1.3,2.7s1.3-0.9,1.6,0.5
	c0.2,1-0.9,3.3-0.7,4.3c0.3,1.6-0.2,3.8-0.2,3.9c0,0,2.2-1.3,2.5-3.6c0.2-1.2-0.6-1.7,0.1-3.2c0.5-1.1,1.4-2.8,1-3.6L102.2,27.3z"/>
<path style="fill:none;stroke:#424242;stroke-width:1.7;stroke-linecap:round;stroke-miterlimit:10;" d="M46.5,47.3
	c-1-4.2,0.8-5.3,3-5.3s3.6,1.8,4,3.9c0.8,4.3,1.8,28,2.1,34.7c0,0.2-0.3,0.3-0.4,0C53.4,73.8,46.9,49.1,46.5,47.3z"/>
<path style="fill:none;stroke:#424242;stroke-width:1.7;stroke-linecap:round;stroke-miterlimit:10;" d="M36.6,46.7
	c-2.6-7.8-1.1-8.2,1-7.6c2.6,0.7,4.1,8.7,4.1,8.7l8.2,32.1c-2.6-0.7-12.6-31.2-13.2-33.2H36.6z"/>
<path style="fill:#424242;" d="M35.7,36.2c-0.1-1.8-1.2-1.6-0.9-3.5c0.2-1.3,1.2-1.5,2.1-1.4s2.7,0.5,2.7,2.2c0,0-1.2-0.3-1.5,1
	c-0.2,0.7,0.4,2.3,0.3,3.2c-0.3,1.9-0.2,2.7,0,3.3c0.1,0.4,0.5,0.7,0,0.8c-0.7,0.2-1.5,0-2.1-0.3c-1-0.4-1.5-1.5-1.3-2.8
	c0.1-0.7,0.8-1.1,0.8-2.2L35.7,36.2z"/>
<path style="fill:#424242;" d="M47.3,40.3c0.4-0.7,0.7-0.9,0.4-1.7c-0.2-0.7-0.7-1.4-0.6-2.5c0-1.2,1.6-1.3,2.7-1.2
	c1.1,0.1,2,0.2,2.6,1.4c0,0-1,0-1.5,1.4s-0.3,2.9,0,3.8c0.3,1,0.2,2,0.2,2s-0.4,0.4-1.3,0.4c-1.3,0-1.9-0.3-2.2-0.6
	c-1.1-1-0.6-2.2-0.3-2.8L47.3,40.3z"/>
<path style="fill:#424242;" d="M26.4,27.3c0.7-1.7,1.8-2,3.2-1.1c1.5,0.9,1.4,2.5,1.4,2.5s-1.5-0.7-1.8,0.8c-0.2,1,0.9,3.3,0.7,4.3
	c-0.3,1.6,0.2,3.8,0.2,3.9c0,0-2.2-1.3-2.5-3.5c-0.2-1.2,0.6-1.7-0.1-3.2c-0.5-1.1-1.4-2.7-1-3.6L26.4,27.3z"/>
<path style="fill:#424242;" d="M63.8,87.2c-11.2,0-14.3-2.7-14.6-3c-0.6-0.6-0.6-1.5,0-2.1s1.5-0.6,2,0c0.1,0,2.9,2.2,12.5,2.2
	c10.2,0,14.3-2.7,14.3-2.7c0.7-0.5,1.6-0.3,2,0.4c0.5,0.7,0.3,1.6-0.4,2c-0.2,0.1-4.7,3.3-16,3.3L63.8,87.2z"/>
<path style="fill:#424242;" d="M64.1,84.6c-11.1,0-16-2.9-16.1-3c-0.7-0.4-0.9-1.3-0.5-2s1.3-0.9,2-0.5c0,0,4.2,2.3,14.3,2.3
	c10.2,0,14.9-2.8,15-2.9c0.7-0.4,1.6-0.2,2,0.5s0.2,1.6-0.5,2C80.1,81.1,75.3,84.6,64.1,84.6z"/>
</svg>
