<?xml version="1.0" encoding="utf-8"?>
<!-- Generator: Adobe Illustrator 26.3.1, SVG Export Plug-In . SVG Version: 6.00 Build 0)  -->
<svg version="1.1" id="a" xmlns="http://www.w3.org/2000/svg" xmlns:xlink="http://www.w3.org/1999/xlink" x="0px" y="0px"
	 viewBox="0 0 128 128" style="enable-background:new 0 0 128 128;" xml:space="preserve">
<path style="fill:#A7571F;" d="M26.6,102.29l-9.74,11.27l10.7,3.52c0,0,36.45-40.69,37-41.51c0.36-0.54,0.25-1.22,0.25-1.22
	l-6.52-5.67L26.6,102.29L26.6,102.29z"/>
<path style="fill:#DA8346;" d="M19.39,113.83l40.74-43.78l-8.17-8.74c0,0-0.66-0.34-1.48,0.47c-1.32,1.32-39.21,39.24-39.21,39.24
	l-3.65,12.9L19.39,113.83L19.39,113.83z"/>
<path style="fill:#727272;" d="M9.73,106.46l-4.18,0.75c0,0-4.15,6.56,3.29,13.05c7.72,6.74,14.05,1.79,14.05,1.79L9.74,106.46
	L9.73,106.46z"/>
<path style="fill:#9A9A9A;" d="M11.27,101.03l-2.09,2.19l-2.59,3.69l1.15,5.18c0,0,1.94,3.04,4.23,4.83s5.23,3.34,5.23,3.34
	l9.02-1.64l1.34-1.54c0,0-6.18-1.54-11.56-7.17c-4.12-4.31-4.73-8.87-4.73-8.87V101.03z"/>
<path style="fill:#B0B0B0;" d="M9.18,103.22c0,0,1.05,2.89,3.14,5.68s4.38,4.73,4.83,5.53s0.6,2.09-0.25,2.94s-2.09,1.3-3.54,0.55
	s-4.24-3.38-5.63-5.83c-1.25-2.19-2.19-4.88-2.19-4.88S9.18,103.22,9.18,103.22z"/>
<path style="fill:#9A9A9A;" d="M60.46,56.85c0,0-3.38,0.1-3.82,0.3c-0.35,0.16-0.69,0.46-0.69,0.46l-1.44,2.51l-1.86,0.53
	l-0.68,0.66c0,0,1.36,4.15,5.39,7.82s7.45,5.21,7.45,5.21l1.35-1.43l0.29-2.87l2.54-0.41c0,0,0.53-0.42,0.57-0.99
	c0.04-0.65,0.08-3.95,0.08-3.95S60.46,56.85,60.46,56.85z"/>
<path style="fill:#858585;" d="M65,67.38c-0.26,0.03-2.55,2.7-2.62,2.97s1.37,1.29,2.03,1.68c0.76,0.46,1.75,0.9,1.75,0.9l2.97-3.4
	c0,0-0.95-0.28-2.18-0.89c-0.99-0.49-1.69-1.29-1.94-1.25L65,67.38z"/>
<path style="fill:#B0B0B0;" d="M54.5,63.51c0.58,0.88,2.39,2.97,3.99,4.26s3.23,1.94,4.22,0.76s0-2.74-1.06-3.88
	c-0.84-0.9-2.38-2.4-3.54-3.95c-0.87-1.18-2.17-3.08-2.17-3.08l-3.31,3.04C52.63,60.66,53.47,61.95,54.5,63.51L54.5,63.51z"/>
<path style="fill:#5E6367;" d="M68.58,38.22l-9.07,15.21c0,0,0.24,5.58,5.01,9.75c6.26,5.46,15.15,3.44,18.87,1.18
	c3.72-2.25,5.18-5.13,5.18-5.13L68.58,38.22L68.58,38.22z"/>
<path style="fill:#858585;" d="M65.53,37.71c0,0-4,2.48-5.69,9.75s1.01,10.53,4.34,12.62c2.86,1.8,9.91,1.75,9.91-0.9
	s-6.53-2.7-6.2-10.25c0.24-5.31,2.65-5.92,2.65-5.92L65.53,37.71z"/>
<path style="fill:#5E6367;" d="M112.32,60.23l-15.63,9.01c0,0,2.64,2.28,3.56,3s3.02,1.38,4.72,0.2s7.87-6.63,11.22-9.91
	c3.35-3.28,6.43-6.1,6.95-7.87s0.2-3.74-0.66-5.51s-10.17,11.09-10.17,11.09L112.32,60.23z"/>
<path style="fill:#858585;" d="M71.69,4.95c-2.13,1.5-13.95,14.2-15.35,15.68c-2.03,2.14-2.53,5.77-0.8,8.02S95.09,67.97,96.7,69.23
	s5.59,2.55,9.74-1.26c3.23-2.96,14.1-14.22,15.48-15.71s1.49-3.32-2.06-6.53S82.57,9.64,80.64,7.67
	C77.96,4.96,75.24,2.45,71.69,4.95z"/>
<path style="fill:#464C4F;" d="M74.25,19.28l-3.88-3.64c0,0-2.66,2.08-3.81,3.45c-0.54,0.64-0.64,1.53-0.64,1.53
	s-1.55,0.06-2.5,1.69c-0.81,1.38-1.31,3.36,0.54,5.71c1.85,2.35,34.43,34.64,36.3,36.36c1.87,1.72,3.96,1.13,5.53,0.13
	s1.81-2.34,1.81-2.34s1.34-0.34,2.63-1.49s2.19-2.91,2.19-2.91L74.24,19.29L74.25,19.28z"/>
<path style="fill:#5E6367;" d="M111.86,49.69l1.35,6.45c0,0,0.31,0.66-0.68,1.59s-1.95,0.4-1.95,0.4l-26.8-23.18L69.69,17.38
	c0,0-0.52-0.62,0.68-1.75s2.51-0.29,2.51-0.29l38.99,34.35H111.86z"/>
<path style="fill:#B0B0B0;" d="M82.29,40.8l2.01-0.14c0,0,19.24,19.55,19.77,20.07c0.76,0.75,2.28,1.2,2.28,1.2
	s-1.29,2.36-3.87,1.36c-1.96-0.76-18.62-17.97-18.62-17.97L82.29,40.8L82.29,40.8z"/>
<path style="fill:#B0B0B0;" d="M82.94,32.78l1.65,5.8c0,0,17.55,17.9,18.55,18.91s2.79,2.72,4.23,2.65s3.22-2.01,3.22-2.01
	L85.52,33.14L82.94,32.78z"/>
<path style="fill:#FECA7F;" d="M16.32,105.36c-0.46,0-0.92-0.17-1.28-0.52c-0.73-0.71-0.75-1.87-0.04-2.59l35.41-36.58
	c0.71-0.73,1.87-0.75,2.59-0.04c0.73,0.71,0.75,1.87,0.04,2.59L17.63,104.8C17.27,105.17,16.79,105.36,16.32,105.36L16.32,105.36z"
	/>
<path style="fill:#E0E0E0;" d="M76.87,10.2c-1.91,0-5.13,3.81-5.26,4.86c-0.18,1.41,9.03,9.91,18.36,19.2
	c10.61,10.56,21.62,22.07,23.24,21.89s4.61-3.53,4.61-4.88c0-1.45-10.87-11.86-21.53-22.61c-9.09-9.17-18.06-18.45-19.43-18.45
	L76.87,10.2z"/>
<path style="fill:#E0E0E0;" d="M69.69,17.38c0,0-2.19,1.59-1.93,3.37c0.36,2.43,2.65,3.8,6.52,7.45
	c3.57,3.37,10.31,10.38,10.31,10.38l0.93-5.44C85.52,33.14,69.69,17.38,69.69,17.38z"/>
<path style="fill:#E0E0E0;" d="M66.25,21.75c0,0-2.22,0.59-1.65,3.22c0.53,2.43,4.3,5.37,7.02,8.16
	C73.63,35.2,83.87,45.3,83.87,45.3l0.43-4.65c0,0-11.82-11.53-13.32-13.11s-4.87-4.73-4.73-5.8L66.25,21.75z"/>
<path style="fill:#E0E0E0;" d="M57.54,28.51l39.68,39.05c0.22,0.22,0.5,0.32,0.78,0.32s0.57-0.11,0.79-0.33
	c0.43-0.44,0.43-1.14,0-1.58L62.13,29.56c-1.74-1.84-2.65-3.78-2.36-5.17s1.94-3.87,5.76-7.78s7.99-8.37,7.99-8.37
	s0.63-0.84-0.21-1.64s-1.89,0.34-1.89,0.34s-4.16,4.07-7.91,8.04c-3.26,3.45-5.81,6.23-6.44,7.15c-0.86,1.26-1.46,4.48,0.46,6.39
	L57.54,28.51z"/>
<path style="fill:#B0B0B0;" d="M64.35,49.32c0.17-4.62,3.73-6.17,1.69-7.83c-2.14-1.75-5.01,2.99-5.46,7.27
	c-0.45,4.28-0.17,7.77,2.03,7.83s1.62-3.88,1.75-7.27L64.35,49.32z"/>
<path style="fill:#E0E0E0;" d="M54.16,59.25c-1.01,0.8-1.22,2.59,0.38,4.52c1.6,1.93,3.31,2.05,4.49,1.18s0.34-3.27-0.87-4.56
	S55.65,58.07,54.16,59.25L54.16,59.25z"/>
<path style="fill:#E0E0E0;" d="M12.62,107.95c0.48,0.68,1.01,2.33-0.65,3.89c-1.74,1.64-3.29,1.54-4.23,0.25s-0.15-2.79,1.1-3.84
	c1.54-1.3,3.19-1.15,3.79-0.3H12.62z"/>
<path style="fill:#858585;" d="M20.14,116.67c-0.23-0.1-3.29,3.39-3.29,3.39s1.52,0.88,3.62,1.43c1.25,0.33,2.41,0.56,2.41,0.56
	l3.34-3.44c0,0-2.39-0.55-3.34-0.85s-2.29-0.9-2.74-1.1L20.14,116.67z"/>
</svg>
