<?xml version="1.0" encoding="utf-8"?>
<!-- Generator: Adobe Illustrator 26.3.1, SVG Export Plug-In . SVG Version: 6.00 Build 0)  -->
<svg version="1.1" id="_1" xmlns="http://www.w3.org/2000/svg" xmlns:xlink="http://www.w3.org/1999/xlink" x="0px" y="0px"
	 viewBox="0 0 128 128" style="enable-background:new 0 0 128 128;" xml:space="preserve">
<path style="fill:#1851ED;" d="M114.66,61.1c-0.6-1.4-2.3-3.1-4.4-4c-3.8-1.5-9.7-2.7-16.7,2.9l-0.8-32.2c0-3.4-1.2-6.5-3.6-8.3
	c-4.9-3.8-9.5-2.5-12.2-1c-2.34,1.3-2.58,2.23-2.6,2.45c0.01-0.37,0.1-2.82,0.1-4.85c0-2.2-0.2-12.1-10.5-12.1s-10.4,9.4-10.4,11.8
	v4.9c0,0-1.1-1.6-3.1-2.5c-2-0.9-7.1-2.2-11.6,1.4c-2.4,1.8-3.6,4.9-3.6,8.3l-0.8,32.2c-7-5.6-12.9-4.4-16.7-2.9
	c-2.1,0.8-3.9,2.9-4.4,4c-0.5,1.1-0.6,2.6,0.7,3.1c3.3,1.5,9.3,6,12.4,17.4c2.4,9.3,4.7,42.3,37.4,42.3s35.19-32.97,37.59-42.27
	c3-11.5,8.91-15.94,12.21-17.44c0.54-0.27,0.88-0.6,1.08-0.94C115.33,62.3,114.66,61.1,114.66,61.1z"/>
<g>
	<path style="fill:#F5F5F5;" d="M64.16,75.3c14.4,0,20.5,13.05,20.5,13.05s-7,12.95-20.5,12.95s-20.5-12.95-20.5-12.95
		S49.86,75.3,64.16,75.3"/>
	<g>
		<circle style="fill:#5AC7F0;" cx="64.16" cy="88.3" r="11.9"/>
		<circle style="fill:#212121;" cx="64.16" cy="88.3" r="5.5"/>
	</g>
	<path style="fill:#FFFFFF;" d="M59.56,79.6c0.6,0.2,0.9,1,0.8,1.6s-0.5,1.2-0.9,1.7c-0.4,0.6-0.9,1.1-1.4,1.6
		c-0.3,0.3-0.6,0.6-1,0.5c-0.4,0-0.7-0.5-0.8-0.8c-0.6-1.8,0.7-5.5,3.2-4.7L59.56,79.6z"/>
</g>
<path style="opacity:0.55;fill:#00CFFF;enable-background:new    ;" d="M43.96,20.6c-0.3-0.7-1-0.5-1.6-0.2c-1.9,0.9-4.4,2.9-4.4,9
	v7.8c0,1.4,0.16,2.48,1.2,1.6c0.91-0.76,2.5-2.6,2.5-9.2s0.2-6,1.4-7.4C43.26,22,44.16,21.1,43.96,20.6z"/>
<path style="opacity:0.55;fill:#00CFFF;enable-background:new    ;" d="M64.46,6.5c-1.9-0.2-3.4,0.4-4.7,1.3c-1.4,1.1-2.4,3-2.6,5.3
	c-0.1,1.5,0,5.7,0.2,8.4c0,0.4,0.3,1,1,1s0.9-0.6,0.9-1c0.7-5.7,1.2-8.8,2.1-10.2s2.9-2.4,3.6-2.8c0.3-0.1,0.7-0.2,0.7-0.9
	s-0.5-1-1.3-1.1H64.46z"/>
<path style="opacity:0.55;fill:#00CFFF;enable-background:new    ;" d="M34.06,63.3c-2.7-4.4-6.7-6.1-11.6-5c-0.4,0-0.7,0.4-0.7,0.8
	c0,0.3,0.2,0.6,0.7,0.7c1.2,0.2,3.4,0.6,5.6,1.5c2.5,1,4.1,2.3,5,3c0.2,0.2,0.68,0.38,1.1,0C34.49,64,34.06,63.3,34.06,63.3z"/>
<path style="fill:#093068;" d="M111.36,65.42c-3.41,1.6-6.08,4.45-7.53,7.92c-0.68,1.64-1.3,3.54-1.88,5.76
	c-2.5,9.2-5.1,40.8-37.8,40.8s-35.3-31.6-37.8-40.8c-1.7-6.5-3.7-10.3-6.8-12.6c-3-2.2-4.61-1.65-6.51-3.45c0,0,0.2,2.2,0.2,3.3
	s2.21,2.05,3.71,3.15c2.3,1.7,7.4,6,9.7,15.2s4.7,39.3,37.4,39.4c32.7,0,35.2-30.5,37.4-39.4c2.2-8.8,7.4-13.5,9.7-15.2
	c1.5-1.1,3.61-2.13,3.61-3.23s0.2-3.68,0.2-3.68C114.89,63.55,113.03,64.64,111.36,65.42L111.36,65.42z"/>
<path style="fill:#1851ED;" d="M74.36,21c0,0,0-0.02,0-0.05C74.36,20.98,74.36,21,74.36,21z"/>
<g>
	<path style="opacity:0.77;fill:#002691;enable-background:new    ;" d="M49.7,17.9c0.03,0.01,0.06,0.02,0.09,0.03
		C49.77,17.92,49.74,17.91,49.7,17.9z"/>
	<path style="opacity:0.77;fill:#002691;enable-background:new    ;" d="M48.83,17.63c0.01,0,0.02,0,0.03,0.01
		C48.84,17.64,48.83,17.64,48.83,17.63z"/>
	<polygon style="opacity:0.77;fill:#002691;enable-background:new    ;" points="93.56,60 93.5,57.42 93.56,60 	"/>
	<polygon style="opacity:0.77;fill:#002691;enable-background:new    ;" points="34.53,57.38 34.45,60.09 34.46,60.1 	"/>
	<path style="fill:#1851ED;" d="M49.8,17.94c0.25,0.09,0.47,0.18,0.66,0.26C50.27,18.11,50.04,18.02,49.8,17.94z"/>
	<path style="fill:#1851ED;" d="M48.85,17.64c0.31,0.08,0.59,0.17,0.85,0.26C49.45,17.81,49.16,17.72,48.85,17.64z"/>
	<path style="fill:#1851ED;" d="M46.62,17.26c0.81,0.07,1.56,0.21,2.21,0.38C48.18,17.46,47.43,17.32,46.62,17.26z"/>
	<path style="fill:#1851ED;" d="M74.36,21c0,0,0-0.02,0-0.05C74.36,20.98,74.36,21,74.36,21z"/>
</g>
<path style="opacity:0.77;fill:#002691;enable-background:new    ;" d="M39.06,69.8l0.5,4.4l2.9-3.4c0,0,7.6-8.6,21.5-8.6
	c13.9,0,20.6,7.2,20.6,7.2l2.3,2.6l1-3.4c0,0,2.1-5.09,5.7-8.59l0-0.01c0,0,0,0,0,0l-0.06-2.58l-0.06-2.32
	c-4.28,2.49-7.05,6.56-8.26,9.56c-1.69-1.26-4.29-2.85-7.82-4.14c-0.03-8.08-0.16-34.9,0.2-36.73c0.4-2,1-3.9,2.5-5.3
	c0.56-0.47,1.97-1.38,2.13-1.49c-2.08,0.05-3.89,0.74-5.23,1.49c-2.34,1.3-2.58,2.23-2.6,2.45c0,0.03,0,0.05,0,0.05s0-0.02,0-0.05
	c0-0.08,0.01-0.26,0.02-0.52c-0.54,0.8-0.82,2.05-0.82,5.77v33.19c-2.75-0.66-5.91-1.09-9.5-1.09c-3.39,0-6.42,0.44-9.1,1.13
	c0-8.29,0.02-28.37,0-33.23c-0.02-4.42-1.4-5.5-1.4-5.5s-1.1-1.6-3.1-2.5c-0.19-0.09-0.42-0.18-0.66-0.26
	c-0.03-0.01-0.06-0.02-0.09-0.03c-0.26-0.09-0.54-0.18-0.85-0.26c-0.01,0-0.02,0-0.03-0.01c-0.65-0.17-1.4-0.31-2.21-0.38h0
	c0.45,0.28,1.4,0.87,1.85,1.24c1.5,1.4,2.1,3.3,2.5,5.3c0.37,1.84,0.23,28.94,0.2,36.85c-4.03,1.56-7.02,3.59-9,5.15
	c-1-3.2-2.73-6.1-7.63-8.5l0,0.09l-0.07,2.72c0,0,0,0-0.01-0.01v0C37.95,64.29,39.06,69.8,39.06,69.8z"/>
<g>
	<path style="opacity:0.77;fill:#002691;enable-background:new    ;" d="M63.96,72.3c0.03,0,0.07,0,0.1,0c0.03,0,0.07,0,0.1,0H63.96
		z"/>
	<path style="fill:#F5F5F5;" d="M64.16,102.9c-0.03,0-0.07,0-0.1,0c-0.03,0-0.07,0-0.1,0H64.16z"/>
	<path style="opacity:0.77;fill:#002691;enable-background:new    ;" d="M64.16,102.9c-0.03,0-0.07,0-0.1,0c-0.03,0-0.07,0-0.1,0
		H64.16z"/>
</g>
<path style="opacity:0.77;fill:#002691;enable-background:new    ;" d="M64.16,75.3c14.4,0,20.5,13.05,20.5,13.05
	s-7,12.95-20.5,12.95s-20.5-12.95-20.5-12.95S49.86,75.3,64.16,75.3 M64.16,72.3c-16.1,0-23,14.2-23.3,14.8l-0.7,1.25l0.7,1.55
	c0.3,0.6,8,14.6,23.2,14.6s22.9-14.05,23.2-14.65l0.7-1.5l-0.7-1.25c-0.3-0.6-7.2-14.8-23.3-14.8H64.16z"/>
<path style="fill:#093068;" d="M64.16,101.3c-13.5,0-20.5-12.95-20.5-12.95h-3.5l0.7,1.55c0.3,0.6,8,14.5,23.2,14.5
	s22.9-13.95,23.2-14.55l0.7-1.5h-3.3c0,0-7.1,13.05-20.6,13.05L64.16,101.3z"/>
</svg>
