<?xml version="1.0" encoding="utf-8"?>
<!-- Generator: Adobe Illustrator 26.3.1, SVG Export Plug-In . SVG Version: 6.00 Build 0)  -->
<svg version="1.1" id="Layer_2_00000152229916678701557290000017001440987333279873_"
	 xmlns="http://www.w3.org/2000/svg" xmlns:xlink="http://www.w3.org/1999/xlink" x="0px" y="0px" viewBox="0 0 128 128"
	 style="enable-background:new 0 0 128 128;" xml:space="preserve">
<radialGradient id="SVGID_1_" cx="-1686.1" cy="37.6" r="21.6" gradientTransform="matrix(-1 0 0 -1 -1661.5 130)" gradientUnits="userSpaceOnUse">
	<stop  offset="0" style="stop-color:#FFFFFF"/>
	<stop  offset="0" style="stop-color:#FEF8EF"/>
	<stop  offset="0.3" style="stop-color:#FDEED8"/>
	<stop  offset="0.5" style="stop-color:#FCE7C8"/>
	<stop  offset="0.7" style="stop-color:#FCE3BE"/>
	<stop  offset="1" style="stop-color:#FCE2BC"/>
</radialGradient>
<path style="opacity:0.8;fill:url(#SVGID_1_);enable-background:new    ;" d="M15.8,105.5c0,0-4.8-7.7-5.3-11.1s-1.3-9-0.6-9
	s3.4,5.5,3.8,5.2s-2.3-8.9-2-12s2.3-8.4,2.7-8.2s3.1,8.7,4.2,10.7s4.4,7,4.4,7s8.6,0.7,13.5,3.1s14.1,8,13.9,9.3s-14.1,1.7-18.3,1.4
	s-7.9-1.4-7.9-1.4s6.6,3.9,6.3,4.8s-5.1,1.3-8.3,1.3s-6.5-1.1-6.5-1.1L15.8,105.5z"/>
<linearGradient id="SVGID_00000153684900147906018590000009747414039916673926_" gradientUnits="userSpaceOnUse" x1="-1736.6073" y1="90.3943" x2="-1689.0073" y2="29.8943" gradientTransform="matrix(-1 0 0 -1 -1661.5 130)">
	<stop  offset="0" style="stop-color:#AE7237"/>
	<stop  offset="0.2" style="stop-color:#AF743A"/>
	<stop  offset="0.4" style="stop-color:#B57C44"/>
	<stop  offset="0.5" style="stop-color:#BF8B54"/>
	<stop  offset="0.7" style="stop-color:#CD9E6C"/>
	<stop  offset="0.8" style="stop-color:#DFB88A"/>
	<stop  offset="0.9" style="stop-color:#F4D7AF"/>
	<stop  offset="1" style="stop-color:#FCE2BC"/>
</linearGradient>
<path style="fill:url(#SVGID_00000153684900147906018590000009747414039916673926_);" d="M24,57.8c5.5-7.3,16.8-21.7,44.2-39.3
	C93.6,2.2,118.7,1.6,122.1,4.7s2.4,4.3,1.8,9.9s-2.6,10.6-6.8,14.5s-3.4,2.3-6.1,3.3c-4,1.5-7.1,1.6-7.1,2.7s3,2,5.8,1.5
	s5.8-1.5,5.8-1.5l-7,8.2c0,0-4.2-0.3-6.6-0.8s-5.6-2.3-6.2-1s1.9,2.5,4.2,3.5s5.4,1.6,5.4,1.6s-16.9,13.7-21.4,19
	s-19.6,22-23.7,24.5s-7.2,5.2-14.5,5.1s-27.7,0-27.7,0s0.4-14.3,0.4-19.9s3-13.9,5.8-17.6L24,57.8z"/>
<path style="fill:#6F4838;" d="M39.3,60.3c0,0,2-5.8,1.2-8.7S36,45.2,36,45.2s-5.6,6.6-6.8,10.8c-1.7,6.1-1,9.1,1.1,13.1
	s13.6,5.9,19.6,4.8s9.7-3.1,9.7-3.1s-5.6-8.2-10.7-9.9s-9.5-0.6-9.5-0.6L39.3,60.3z"/>
<path style="fill:#6F4838;" d="M57.1,27.2c0,0,2.4,1.8,3,6.8s-0.8,7.4-0.8,7.4s4.9-0.2,9.4,1.7c6.9,2.8,10.1,8.6,10.1,8.6
	s-5.1,2.4-10.6,3.2s-10.1,0.4-15.9-3.2c-3.4-2.1-4.1-2.4-4.1-2.4s-0.9-9.6,1.7-14.6S57.1,27.2,57.1,27.2z"/>
<path style="fill:#734B42;" d="M70.6,31.1c0,0-1.1-4,0.5-7.9s6.8-9.1,6.8-9.1s2.7,4.8,3.3,7c0.8,3.2-1.7,7.3-1.7,7.3
	s4.7,0.7,7.5,2.7c6.3,4.4,7.2,10.4,7.2,10.4s-8.6-1-13.2-2.3C74.4,37.4,70.4,34,70.4,34S70.6,31.1,70.6,31.1z"/>
<path style="fill:#734B42;" d="M90.7,20.9c0,0,2.5,3.2,8.1,4.1s11.6,0.8,11.6,0.8s-2.8-3.9-5.1-6.5s-7.2-2.5-7.2-2.5s3.1-4.5,3-5.8
	S100,7.1,100,7.1s-4.2,1.5-6.6,5.9s-2.6,8-2.6,8L90.7,20.9z"/>
<linearGradient id="SVGID_00000121990794257828592820000004208266410951844005_" gradientUnits="userSpaceOnUse" x1="-1680.172" y1="11.5199" x2="-1741.972" y2="98.5199" gradientTransform="matrix(-1 0 0 -1 -1661.5 130)">
	<stop  offset="0" style="stop-color:#CECECE"/>
	<stop  offset="0.3" style="stop-color:#A69B99"/>
	<stop  offset="0.5" style="stop-color:#83706B"/>
	<stop  offset="0.7" style="stop-color:#6A5049"/>
	<stop  offset="0.8" style="stop-color:#5B3D35"/>
	<stop  offset="0.9" style="stop-color:#56362E"/>
</linearGradient>
<path style="fill:url(#SVGID_00000121990794257828592820000004208266410951844005_);" d="M5.4,121.6c-1-0.4-1-2-1-3.2
	s15.3-37,28.6-53.6c12.5-15.6,30.7-28.3,39.6-35c14.6-11,45.5-23.4,47.5-24s3.1,0.3,1.1,1.6s-22.4,8.4-47,24.9
	c-20,13.4-29.5,23.8-36.7,34.3C30.3,77,21.6,92.3,18.6,99.4c-3,7.1-7.4,17.5-8,18.9S6.9,122.2,5.4,121.6L5.4,121.6z"/>
</svg>
