<?xml version="1.0" encoding="utf-8"?>
<!-- Generator: Adobe Illustrator 26.3.1, SVG Export Plug-In . SVG Version: 6.00 Build 0)  -->
<svg version="1.1" id="a" xmlns="http://www.w3.org/2000/svg" xmlns:xlink="http://www.w3.org/1999/xlink" x="0px" y="0px"
	 viewBox="0 0 128 128" style="enable-background:new 0 0 128 128;" xml:space="preserve">
<path style="fill:#0284FF;" d="M65.26,86.93c-3.21-0.07-6.15-1.29-7.94-4.75c-2.07-4-1.32-8.38,2.19-12.66
	c2.49-3.05,4.97-4.49,5.09-4.57c0.69-0.44,1.6-0.23,2.03,0.45c0.44,0.69,0.23,1.6-0.45,2.04c-0.11,0.07-9.93,6.29-6.25,13.38
	c2.56,4.94,8.64,3.54,16.99-0.09c3.81-1.66,6.93-1.73,9.68-1.79c2.34-0.06,4.36-0.1,6.57-1.05c4.94-2.12,5.9-6.47,6.9-11.07
	c0.53-2.41,1.08-4.91,2.23-7.08c2.37-4.48,5.98-6.94,6.63-7.32c0.77-0.45,1.61-0.99,2.11-0.34c0.5,0.64-0.26,1.44-0.9,1.94
	c-0.04,0.03-3.1,2.2-5.37,6.65c-0.94,1.84-1.31,4.47-1.82,6.79c-1.07,4.89-2.29,10.43-8.62,13.15c-2.73,1.17-5.24,1.23-7.66,1.29
	c-2.6,0.06-5.29,0.12-8.57,1.55c-3.14,1.36-8.27,3.59-12.84,3.49L65.26,86.93z"/>
<path style="fill:#0284FF;" d="M80.99,123.66c-0.92-0.49-9.54-5.2-17.73-8.48c-1.51-0.6-3.08-1.16-4.75-1.76
	c-6.68-2.38-14.98-5.33-24.34-13.38C21.68,89.3,20.38,79.44,20.72,74.52c0.27-3.96,1.88-6.92,3.59-10.05
	c0.71-1.32,1.45-2.68,2.11-4.14c1.88-4.24,1.37-10.93,1.36-10.99c-0.07-0.81,0.54-1.52,1.35-1.59c0.81-0.06,1.52,0.54,1.59,1.35
	c0.02,0.3,0.58,7.49-1.61,12.43c-0.7,1.58-1.47,2.99-2.21,4.36c-1.61,2.97-3.01,5.53-3.23,8.85c-0.24,3.52,0.48,12.81,12.43,23.08
	c8.94,7.68,16.63,10.42,23.41,12.83c1.7,0.6,3.3,1.17,4.86,1.8c8.43,3.38,15.99,8.25,17.08,8.87s2.55,2.07,2.12,2.76
	C83.28,124.54,81.91,124.15,80.99,123.66z"/>
<path style="fill:#0284FF;" d="M61.49,98.96c-1.31-0.03-2.65-0.17-4-0.43c-13-2.56-20.72-12.47-18.77-24.1
	c2.03-12.13,10.65-21.2,11.01-21.58c0.56-0.59,1.5-0.6,2.09-0.04c0.59,0.56,0.61,1.5,0.04,2.09c-0.08,0.09-8.35,8.81-10.23,20.02
	c-1.96,11.69,6.84,18.83,16.43,20.72c8.66,1.71,16.55-2.58,22.31-5.71c1.28-0.69,2.48-1.35,3.55-1.85c2.62-1.24,5-1.51,7.3-1.77
	c3.05-0.35,6.26-0.45,9.96-2.92c4.58-3.07,6.52-8.02,6.54-8.07c0.28-0.87,0.79-1.98,1.56-1.72c0.77,0.27,0.55,2.04,0.28,2.81
	c-0.38,1.08-1.64,5.57-7.07,9.2c-4.29,2.88-7.82,3.28-10.93,3.64c-2.16,0.25-4.2,0.48-6.37,1.51c-0.99,0.47-2.16,1.1-3.4,1.78
	c-5,2.71-12.2,6.62-20.29,6.44L61.49,98.96z"/>
<radialGradient id="SVGID_1_" cx="47.5874" cy="74.7414" r="73.31" gradientTransform="matrix(0.9998 0.0223 0.0223 -0.9998 -12.688 149.9519)" gradientUnits="userSpaceOnUse">
	<stop  offset="0.12" style="stop-color:#C2BDFF"/>
	<stop  offset="0.33" style="stop-color:#BFC8FF"/>
	<stop  offset="0.78" style="stop-color:#BCDDFF"/>
</radialGradient>
<path style="opacity:0.7;fill:url(#SVGID_1_);enable-background:new    ;" d="M33.37,50.56c0,1.61,0.75,5.83-1.13,10.9
	c-3.17,8.55-15.4,10.93-11.18,24.85c2.3,7.58,7.29,7.83,7.56,8.84s-1.75,15.64,15.98,20.17c16.65,4.25,24.94-10,29.86-11.14
	c5.07-1.17,4.71,3.92,5.68,8.86c0.81,4.15,3.18,7.12,7.06,8.83c4.09,1.81,6.57-0.56,6.57-0.56s3.84,3.05,9.34,1.82
	c10.23-2.29,9.26-13,8.56-13.12s-5.06,6.51-11.98,3.66c-6.09-2.51-5.54-9.1-4.04-13.1s1.19-8.04-0.78-10.2s-5.73-0.93-5.73-0.93
	s0.06-6.96-4.32-9.67c-4.38-2.72-10.28,1.02-13.79,4.24c-4.94,4.53-10.28,3.49-14.01-1.23c-3.36-4.25-3.86-9.8-0.09-14.42
	s6.37-4.49,6.37-4.49s-2.99-1.38-5.1-1.73s-9.07,2.1-13.89-1.02C37.11,56.46,36.73,51.54,33.37,50.56z"/>
<radialGradient id="SVGID_00000124854595409231750130000000970153553886628538_" cx="47.5874" cy="74.7414" r="73.31" gradientTransform="matrix(0.9998 0.0223 0.0223 -0.9998 -12.688 149.9519)" gradientUnits="userSpaceOnUse">
	<stop  offset="0.17" style="stop-color:#C2BDFF"/>
	<stop  offset="0.22" style="stop-color:#BEBEFF;stop-opacity:0.91"/>
	<stop  offset="0.43" style="stop-color:#B1C6FF;stop-opacity:0.52"/>
	<stop  offset="0.6" style="stop-color:#A7CCFF;stop-opacity:0.24"/>
	<stop  offset="0.72" style="stop-color:#A1CFFF;stop-opacity:0.07"/>
	<stop  offset="0.78" style="stop-color:#9FD1FF;stop-opacity:0"/>
</radialGradient>
<path style="fill:url(#SVGID_00000124854595409231750130000000970153553886628538_);" d="M33.37,50.56c0,1.61,0.75,5.83-1.13,10.9
	c-3.17,8.55-15.4,10.93-11.18,24.85c2.3,7.58,7.29,7.83,7.56,8.84s-1.75,15.64,15.98,20.17c16.65,4.25,24.94-10,29.86-11.14
	c5.07-1.17,4.71,3.92,5.68,8.86c0.81,4.15,3.18,7.12,7.06,8.83c4.09,1.81,6.57-0.56,6.57-0.56s3.84,3.05,9.34,1.82
	c10.23-2.29,9.26-13,8.56-13.12s-5.06,6.51-11.98,3.66c-6.09-2.51-5.54-9.1-4.04-13.1s1.19-8.04-0.78-10.2s-5.73-0.93-5.73-0.93
	s0.06-6.96-4.32-9.67c-4.38-2.72-10.28,1.02-13.79,4.24c-4.94,4.53-10.28,3.49-14.01-1.23c-3.36-4.25-3.86-9.8-0.09-14.42
	s6.37-4.49,6.37-4.49s-2.99-1.38-5.1-1.73s-9.07,2.1-13.89-1.02C37.11,56.46,36.73,51.54,33.37,50.56z"/>
<radialGradient id="SVGID_00000002354996137262486770000005229621091540419982_" cx="-707.0997" cy="992.2281" r="49.96" gradientTransform="matrix(-0.3587 0.9335 2.3616 0.9075 -2530.6243 -228.5121)" gradientUnits="userSpaceOnUse">
	<stop  offset="0.05" style="stop-color:#0EBCFF"/>
	<stop  offset="0.27" style="stop-color:#08D1FF"/>
	<stop  offset="0.44" style="stop-color:#06DCFF"/>
	<stop  offset="0.54" style="stop-color:#05D0FF"/>
	<stop  offset="0.73" style="stop-color:#03B1FF"/>
	<stop  offset="0.82" style="stop-color:#029FFF"/>
</radialGradient>
<path style="fill:url(#SVGID_00000002354996137262486770000005229621091540419982_);" d="M19.82,42.52
	c-0.68-1.6-1.73-8.94,3.35-19.62C28.25,12.23,46.43-4.42,73.35,8.88c25.69,12.69,17.93,41.4,12.78,49.65
	c-4.81,7.71-9,9.59-13.05,9.88c-2.68,0.19-9.85-5.67-12.97-5.94s-11.72,0.95-15.8-1.36s-9.36-9.89-11.15-10.63
	S22.51,48.83,19.82,42.52L19.82,42.52z"/>
<path style="fill:#F5ECEB;" d="M42.46,68.27c-1.21-0.1-2.14,0.7-2.24,2.01s0.77,2.11,1.9,2.2s2.07-0.56,2.21-1.94
	S43.63,68.36,42.46,68.27L42.46,68.27z"/>
<path style="fill:#F5ECEB;" d="M38.34,82.57c-1.38,0.03-2.06,0.94-2.07,2.3s1.03,2.04,2.28,2.03s1.97-0.9,2-2.2
	S39.63,82.53,38.34,82.57L38.34,82.57z"/>
<path style="fill:#F5ECEB;" d="M27.67,72.31c-1.36,0.1-2.02,1.09-1.94,2.08s0.49,1.91,1.85,1.91c1.14,0,1.94-0.58,2.03-1.88
	c0.09-1.17-0.65-2.2-1.95-2.1L27.67,72.31z"/>
<path style="fill:#F5ECEB;" d="M56.09,86.93c-1.26-0.02-1.87,1.01-1.8,1.92s0.59,1.81,1.72,1.85c1.05,0.03,1.79-0.62,1.89-1.83
	c0.08-1.08-0.52-1.93-1.8-1.94L56.09,86.93z"/>
<path style="fill:#F5ECEB;" d="M40.27,98.79c-1.24-0.1-2.17,0.67-2.27,1.98s0.77,2.13,1.92,2.23s2.11-0.56,2.25-1.93
	S41.46,98.89,40.27,98.79z"/>
<path style="fill:#F5ECEB;" d="M53.52,106.76c-1.07-0.09-1.89,0.61-1.98,1.77s0.68,1.86,1.68,1.95c1,0.08,1.83-0.49,1.95-1.71
	s-0.61-1.92-1.64-2.01L53.52,106.76z"/>
<path style="fill:#F5ECEB;" d="M70.21,93.63c-1.14,0.28-1.5,1.67-1.17,2.6s1.09,1.72,2.3,1.46c1.09-0.23,1.62-1.18,1.36-2.46
	C72.47,94.08,71.44,93.32,70.21,93.63z"/>
<path style="fill:#F5ECEB;" d="M80.21,85.51c-1.22-0.02-1.81,0.93-1.74,1.78s0.57,1.68,1.67,1.71c1.02,0.03,1.74-0.57,1.83-1.69
	c0.08-1-0.51-1.78-1.75-1.8L80.21,85.51z"/>
<radialGradient id="SVGID_00000170266419917857257690000003467060885062049925_" cx="-752.2075" cy="1146.8077" r="44.79" gradientTransform="matrix(-0.4 0.9165 1.6589 0.7241 -2137.1021 -123.0022)" gradientUnits="userSpaceOnUse">
	<stop  offset="0.36" style="stop-color:#83FFFF"/>
	<stop  offset="0.43" style="stop-color:#77F8FF"/>
	<stop  offset="0.56" style="stop-color:#5AE7FF"/>
	<stop  offset="0.72" style="stop-color:#2BCCFF"/>
	<stop  offset="0.81" style="stop-color:#0EBCFF"/>
</radialGradient>
<path style="fill:url(#SVGID_00000170266419917857257690000003467060885062049925_);" d="M31.49,48.33
	c-1.11-0.13-5.12-1.71-5.58-7.97s3.51-9.66,8.85-11.54c3.96-1.4,6.97-3.36,10.57-6c3.32-2.43,9.93-6.34,19.14-1.97
	c10.54,5,9.66,13.12,10.01,16.76c0.49,5.15,1.71,7.22,3.63,11.45c1.95,4.29,0.54,10.51-2.82,13.47c-4.01,3.54-10.89,2.07-11.99,1.34
	s-3.39-1.49-5.1-1.73S46.89,63,44.31,61.12s-7.99-8.04-9.08-8.87S31.49,48.33,31.49,48.33z"/>
<path style="fill:#0284FF;" d="M35.22,49.29c-4.29-2.66-6.93-1.78-10.05-3.78c-4.54-2.91-3.79-5.86-5.03-5.42
	c-1.12,0.4-0.65,6.62,4.72,9.56c5.37,2.93,6.62,1.18,9.63,3.93c3,2.76,3.14,6.71,10.08,9.36c6.15,2.36,10.49-0.08,14.33,0.85
	c5.07,1.23,3.21,3.68,9.02,5.03c4.53,1.05,8.44-0.6,8.21-1.36s-3.56,0.29-7.3-1.54c-2.65-1.3-4.91-4.28-8.05-5.17
	c-6.28-1.79-9.93,1.47-16.04-1.79c-6.12-3.26-4.69-6.68-9.5-9.66L35.22,49.29z"/>
<path style="fill:#F4FCFF;" d="M50.99,9.07c0.2,1.88,2.24,1.87,3.33,1.83c1.3-0.05,3.46-0.57,3.24-2.62
	c-0.16-1.5-1.45-2.05-3.38-1.95C52.39,6.42,50.8,7.35,50.99,9.07z"/>
<path style="fill:#F4FCFF;" d="M34.97,13.39c6.39-5.02,9.89-5.11,11.07-4.95c1.09,0.14,2.28,0.94,1.96,2.38s-1.81,1.79-2.91,2.18
	s-2.97,0.82-7.18,4c-3.22,2.44-6.21,6.68-7.62,7.75c-0.76,0.57-2.99,0.35-2.52-2.21s3.33-6.1,7.21-9.14L34.97,13.39z"/>
<path style="fill:#0284FF;" d="M49.12,121.09c-5.82-0.13-16.14-1.87-22.19-12.52C19.6,95.67,24.96,87,29.94,78.76
	c1.94-3.21,3.78-6.24,4.92-9.55c3.04-8.81,2.01-13.91,2-13.96c-0.17-0.79,0.33-1.58,1.13-1.75c0.79-0.18,1.78,1.16,1.86,1.97
	c0.1,1.04,1.14,5.02-2.2,14.7c-1.24,3.6-3.24,6.91-5.18,10.12c-4.75,7.85-9.23,15.27-2.76,26.66c7.81,13.73,21.27,11.53,22.23,11.5
	c0.81-0.03,2.72-0.15,2.87,0.65c0.15,0.8-0.92,1.46-1.72,1.62C53.03,120.73,51.8,121.15,49.12,121.09z"/>
<path style="fill:#0284FF;" d="M74.54,110.16c-4.08-0.09-8.59-1.01-13.66-3.11c-12.28-5.09-17.93-18.17-17.02-27.88
	c1.04-11.08,7.58-17.51,7.86-17.78c0.59-0.57,1.52-0.55,2.09,0.03c0.57,0.59,0.55,1.52-0.03,2.08c-0.1,0.1-6.04,6.03-6.97,15.94
	c-0.65,6.91,3.09,19.41,15.4,24.52c16.71,6.94,26.48,0.33,35.25-5.81c3.35-2.34,6.51-4.56,9.71-5.64c8.86-3,13.15,1.44,13.36,1.63
	c0.6,0.55,1.44,1.54,0.89,2.14s-1.36-0.24-2.22-0.71c-1.46-0.8-4.27-2.89-11.41-0.47c-2.8,0.95-5.47,3.25-8.65,5.47
	C92.69,105.08,85.1,110.39,74.54,110.16L74.54,110.16z"/>
</svg>
