<?xml version="1.0" encoding="utf-8"?>
<!-- Generator: Adobe Illustrator 26.3.1, SVG Export Plug-In . SVG Version: 6.00 Build 0)  -->
<svg version="1.1" id="a" xmlns="http://www.w3.org/2000/svg" xmlns:xlink="http://www.w3.org/1999/xlink" x="0px" y="0px"
	 viewBox="0 0 128 128" style="enable-background:new 0 0 128 128;" xml:space="preserve">
<path style="fill:#4D3129;" d="M52.53,25.76l-5.37-9.62c0,0-0.9,0.21-1.21,2.3c-0.28,1.9,0.1,4.3-0.34,6.46
	c-0.56,2.72-2.04,6.71-0.73,11.6c1.16,4.39,5.17,7.55,5.17,7.55l5.54,3.91l-1.9-21.58C53.68,26.38,52.53,25.76,52.53,25.76z"/>
<path style="fill:#4D3129;" d="M73.12,35.28l0.33,11.26l1.96-1.7c0,0,6.42-3.6,8.03-10.31c1.44-6.02,0.21-10.5-0.41-12.91
	c-0.67-2.62-1.16-4.25-1.26-4.34c-0.62-0.53-5.54,8.69-5.54,8.69l-3.11,9.3C73.11,35.28,73.12,35.28,73.12,35.28z"/>
<path style="fill:#C26948;" d="M77.92,45.64c0,0,0.78-1.73,4.12-1.32c5.36,0.66,8.57,5.69,12.36,1.81c3.12-3.2,0.91-8.82-0.91-12.52
	s-0.83-6.6,0.33-7.66c1.89-1.73,3.96-0.7,3.96-0.7s-1.03-2.23,0.57-3.42c1.81-1.34,3.23-0.31,4.26,1.08
	c2.14,2.88,3.49,9.13,5.22,8.56s0.74-4.61-2.22-8.32s-5.59-6.73-3.46-9.31c2.56-3.1,5.93,4.53,7.25,2.72s-4.7-4.04-2.47-7.66
	c2.05-3.34,5.29,0.08,7.17,2.97c1.19,1.82,4.37,5.85,4.37,5.85l-0.49,24.39l-15.24,10.22l-24.31-0.08l-0.49-6.59L77.92,45.64z"/>
<path style="fill:#C26948;" d="M8.63,24.38l1.89-6.59c0,0,1.5-3.59,3.79-6.01c2.8-2.97,5.03-3.05,6.43-1.81s0.82,3.46-0.41,4.53
	c-1.02,0.89-3.02,2.41-1.57,3.38c1.24,0.82,2.39-1.4,3.54-2.55s2.39-1.24,3.54-0.33s0.82,3.38-0.49,4.78s-3.64,4.49-5.44,8.07
	c-1.15,2.31-0.74,4.37,0.25,4.78s2.22,0.08,3.38-2.47s2.33-8.12,5.19-7.5c2.69,0.59,1.98,3.7,1.98,3.7s2.36-1.13,4.12,1
	c3.96,4.79-3.79,9.15-2.64,16.15c0.7,4.28,4.7,6.58,8.07,4.61c2.97-1.73,4.2-2.64,7.09-2.72s7.58,2.64,7.58,2.64l-11.95,6.59
	l-19.94-4.78L12,45.73L8.62,24.39L8.63,24.38z"/>
<path style="fill:#E69267;" d="M48.92,48.68c0,0-1.73-1.07-4.37,0s-4.7,3.38-9.47,1.81c-4.78-1.57-5.68-7.99-4.37-11.7
	c1.32-3.71,4.7-10.96,1.57-12.19s-4.53,2.22-5.6,6.51c-1.07,4.28-1.73,12.85-6.76,12.61s-8.49-8.49-5.85-15.74S17.37,19.1,13,17.79
	s-9.23,6.59-8.9,14.75s4.01,22,21.01,26.61c5.77,1.57,14.92,0.47,18.7-1.89c5.39-3.36,5.11-8.57,5.11-8.57V48.68z"/>
<path style="fill:#E69267;" d="M76.58,50.15l3.02-3.26c0,0,1.92-1.08,4.58,0.63c2.36,1.52,7.06,4.02,11.01,0.76
	s3.02-8.14,1.74-12.33s-3.78-8.12-0.88-10.56c2.37-1.99,4.52,4.04,5.5,6.96c0.97,2.92,2.63,12.55,6.91,12.11s7.78-7.2,6.76-13.04
	s-5.3-10.22-2.48-13.81c2.82-3.6,8.83,0.4,10.07,6.28c2.07,9.79,1.84,19.98-10.62,29.73c-12.11,9.47-27.6,2.97-27.6,2.97
	S76.58,50.15,76.58,50.15z"/>
<path style="fill:#6C4B41;" d="M85.22,66.97c0,0,2.41,7.5,1.13,13.09c-1.15,5.03-5.15,8.52-5.15,8.52L70.29,73.43l14.92-6.45
	L85.22,66.97z"/>
<path style="fill:#6C4B41;" d="M43.42,66.56c0,0-3.26,6.98-1.86,12.8c1.4,5.82,5.35,8.72,5.35,8.72l11.05-11.63
	C57.96,76.45,43.42,66.56,43.42,66.56z"/>
<path style="fill:#875E51;" d="M46.58,51.61c-1.95,2.73-5.68,4.55-5.49,10.99c0.2,6.44,3.05,9.29,4.32,11.44s2.11,3.4,2.6,4.66
	s0.32,2.86-0.17,5.1s-0.95,5.67-0.95,5.67l34.31-0.91c0,0-1.76-6.01-1.95-7.9c-0.13-1.36-0.3-2.34,0.19-2.92s7.82-8.07,7.61-17.24
	c-0.15-6.43-6.24-10.75-6.24-10.75s-2.66-6.99-6.14-9.65c-4.73-3.62-8.86-3.15-8.86-3.15s0.1-0.92,0.63-1.69s1.29-1.45,1.14-1.89
	c-0.29-0.88-4.72-1.82-9.21,5.2c-0.48,0.53-2.92,1.34-3.37,1.82c-3.93,4.26-6.66,7.01-8.41,11.21L46.58,51.61z"/>
<path style="fill:#4D3129;" d="M53.16,102.78c0,0,0.59,3.13,1.89,6.77c1.98,5.55,5.41,12.72,9.35,12.54
	c3.84-0.17,6.84-6.92,8.53-12.42c1.19-3.86,1.65-7.37,1.65-7.37L53.16,102.78L53.16,102.78z"/>
<path style="fill:#A4725E;" d="M64.11,74.82c-7.88,0-19.53,7.38-17.2,19.7c2.11,11.14,12.78,12.78,18.64,12.3s14.03-2.31,15.85-12.3
	C82.96,85.96,76.12,74.82,64.11,74.82z"/>
<path style="fill:#875E51;" d="M69.54,41.49c0,0-1.91-7.1-0.64-11.24c1.52-4.94,5.58-8.22,6.99-9.6c1.4-1.38,3.15-3.99,4.17-4.37
	c1.33-0.5,1.71,1.03,1.71,1.03s-3.41,7.27-4.7,12.03c-1.63,6.04-3.62,17.23-3.62,17.23L69.54,41.49
	C69.55,41.5,69.54,41.49,69.54,41.49z"/>
<path style="fill:#875E51;" d="M47.15,16.13c-0.61,0.65,0,4.04,1.07,6.64s3.15,7.18,4.22,11.75s0.9,11.19,0.9,11.19l5.45-4.68
	c0,0,2.1-7.07-0.32-13.17c-1.59-4.01-4.63-6.22-7.05-8.58S47.68,15.57,47.15,16.13C47.16,16.13,47.15,16.13,47.15,16.13z"/>
<path style="fill:#6C4B41;" d="M74.02,83.91c-1.4-0.55-3.41,1.39-4.35,4.42s-1.57,6.03,0.37,6.42c2.84,0.57,3.23-3.71,3.86-5.6
	s1.26-4.79,0.13-5.23L74.02,83.91z"/>
<path style="fill:#6C4B41;" d="M52.63,83.95c-1.18,0.75,0.06,3.72,0.44,4.73s1.07,6.24,3.85,6.12s1.45-5.42,0.44-7.38
	S54.52,82.75,52.63,83.95z"/>
<path style="fill:#533731;" d="M53.97,97.34c-1.33,1.09,1.96,5.84,10.15,6.05c7.06,0.19,10.72-4.6,9.9-5.87
	c-0.89-1.37-3.03,1.76-9.84,1.89c-6.75,0.13-8.83-3.22-10.22-2.08L53.97,97.34z"/>
<path style="fill:#282827;" d="M46.88,59.87c-2.49,0.81-2.29,5.09-1.66,7.54s2.34,6.08,5.04,5.35s1.98-6.08,1.53-7.98
	S49.94,58.88,46.88,59.87z"/>
<path style="fill:#292928;" d="M79.76,60.14c-3.32-0.57-4.34,3.92-4.56,6.17c-0.26,2.67,0.07,5.88,2.59,6.58
	c1.93,0.53,4-2.25,4.34-5.96C82.38,64.25,82.47,60.62,79.76,60.14z"/>
<path style="fill:#FBF9FB;" d="M47.28,61.24c-1.2,0.05-1.49,1.36-1.44,2.84c0.05,1.48,0.98,2.72,2,2.67s1.53-1.1,1.36-2.93
	s-0.93-2.63-1.91-2.59L47.28,61.24z"/>
<path style="fill:#FBF9FB;" d="M78.84,61.49c-1.21-0.17-1.87,1.66-2,2.8c-0.13,1.15-0.25,2.72,1.19,2.89s1.94-1.78,2.08-2.8
	C80.28,63.11,80.07,61.66,78.84,61.49z"/>
</svg>
