<?xml version="1.0" encoding="utf-8"?>
<!-- Generator: Adobe Illustrator 26.3.1, SVG Export Plug-In . SVG Version: 6.00 Build 0)  -->
<svg version="1.1" id="Layer_6" xmlns="http://www.w3.org/2000/svg" xmlns:xlink="http://www.w3.org/1999/xlink" x="0px" y="0px"
	 viewBox="0 0 128 128" style="enable-background:new 0 0 128 128;" xml:space="preserve">
<path style="fill:#EE5A46;" d="M96.1,99.1c-1.3,0-2.5-0.6-3.5-1.5c-4.1-3.7-3.8-14.6-3.2-20.7v-0.6c0.1-0.2,5.7-21.3,16.3-24.6
	c5.1-1.6,9.8-0.4,13.3,3.5c5.3,5.8,6.6,16.5,3.1,25C117.6,91,103.6,97.9,97.5,99c-0.5,0-0.9,0.1-1.4,0V99.1z M97.8,79.8
	c-0.5,5.6-1,6.7-0.2,9c6.7-1.1,14-6.5,16.8-12.4c3.1-6.5,2.6-12.7-0.7-16.3c0,0-1.6-1-4.6,0.6c-4.3,2.3-9.7,13.2-11.3,19.2
	L97.8,79.8z"/>
<path style="fill:#CC3F27;" d="M79.3,110.5c-0.4-0.6-0.8-1-1.5-1.4c-1.1-0.6-8.7-1.9-17.1-3.3c-8.5,0.5-16.1,1.1-17.3,1.6
	c-0.7,0.3-1.2,0.7-1.6,1.2c-1.4,1.8-2.4,4.5-0.5,5.6c2.8,1.6,8.6,3.9,18.8,4.4s16.2-1.2,19.2-2.5C81.3,115.2,80.6,112.4,79.3,110.5z
	"/>
<path style="fill:#EE5A46;" d="M81.9,46.2c0,0-12.6-4.8-17.9-5.1s-18.4,3.3-18.4,3.3c-10.7,7.8-22.7,20.4-23.3,32.8
	c-0.7,13.1,6.5,25.8,18.6,32.2c5.5,2.9,12.6,3.8,19.4,4.2c6.9,0.3,14,0.1,19.7-2.2c12.7-5.2,21.1-17.1,21.8-30.2
	C102.4,68.8,91.7,55.1,81.9,46.2z"/>
<path style="fill:#EE5A46;" d="M5.8,48.1L6,46.7l9.5-0.2c0,0,3.2,3,5,8.6c1.7,5.3,2.9,10.6,5.4,11.2l2.4,0.5c0,0,5.6,1.5,5.3,12.7
	c-0.3,11.3-6.5,12.7-6.5,12.7s-7.4,0.7-12.6-10.5s-2.8-18.5-4.4-24.1S5.8,48.1,5.8,48.1z"/>
<ellipse transform="matrix(0.0506 -0.9987 0.9987 0.0506 -37.1159 55.7799)" style="fill:#EE5A46;" cx="10.78" cy="47.41" rx="2.8" ry="5.3"/>
<ellipse transform="matrix(0.0506 -0.9987 0.9987 0.0506 -36.9058 55.5807)" style="fill:#AF2C1B;" cx="10.78" cy="47.2" rx="1.7" ry="3.7"/>
<path style="fill:#CC3F27;" d="M85.1,47.9c-5-2-12.5-3.4-20.8-3.9c-8-0.4-15.2,0.2-20.4,1.6c-1.9,1.4-3.8,3-5.6,4.7
	s0.8,9.7,25.3,10.9C88,62.4,90.3,53.7,89.7,53C88.2,51.2,86.7,49.5,85.1,47.9z"/>
<ellipse transform="matrix(0.0506 -0.9987 0.9987 0.0506 9.9392 112.3698)" style="fill:#FFA726;" cx="64.07" cy="50.96" rx="8.4" ry="25.7"/>
<path style="fill:#EE5A46;" d="M42.7,46.3c0,0,8.4-8.1,22-7.5c13.5,0.7,21.1,9.6,21.1,9.6c-0.2,3.8-10,6.4-21.9,5.8
	c-11.9-0.6-21.4-4.2-21.2-8L42.7,46.3z"/>
<circle style="fill:#EE5A46;" cx="64.9" cy="34.9" r="7.3"/>
<path style="fill:#CC3F27;" d="M70.5,39.6c-1.9,5-10.3,4.6-11.6-0.6c1,0.7,1.9,1.2,2.8,1.6C64.7,41.7,67.7,41.2,70.5,39.6L70.5,39.6
	z"/>
<path style="fill:#CC3F27;" d="M106.8,61.9c5.9-7.2,15.1-3.8,15.1,5.5c0,2.3-0.3,4.7-1,6.8c0-2.3-0.2-4.5-0.6-6.7
	c-1.1-8.1-7-9.8-13.6-5.6l0,0L106.8,61.9z"/>
<path style="fill:#FF8E5C;" d="M94.6,69.7c-2.2-6.5-8-8.5-10.3-6.3c-3.8,3.6,1.5,11.2,3.9,15.2c1.8,3,1.9,9,2.1,9.8
	c0.8,3.4,3.5,1.3,4.4-1.8c1.5-4.9,2.1-10.5,0-17L94.6,69.7z"/>
</svg>
