<?xml version="1.0" encoding="utf-8"?>
<!-- Generator: Adobe Illustrator 26.3.1, SVG Export Plug-In . SVG Version: 6.00 Build 0)  -->
<svg version="1.1" id="a" xmlns="http://www.w3.org/2000/svg" xmlns:xlink="http://www.w3.org/1999/xlink" x="0px" y="0px"
	 viewBox="0 0 128 128" style="enable-background:new 0 0 128 128;" xml:space="preserve">
<path style="fill:#ED9004;" d="M98.52,87.64l3.33,8.81l1.03-1.88c0,0,0.26-3.33,4.62-3.85s8.23-0.64,11.97-1.88
	c2.82-0.94,4.27-3.16,4.19-5.22c-0.11-2.65-2.75-3.64-2.75-3.64l-22.38,7.66H98.52z"/>
<path style="fill:#ED9004;" d="M39.67,106.7l-21.9-2.66c0,0-1.42,1.42-0.98,4.08s2.75,3.64,7.01,3.99s14.01,0.62,17.47,1.06
	s14.3,4.93,29.65,4.93s21.59-5.48,26.96-6.03c5.37-0.55,14.25,0,16.77-0.88s4.32-2.32,4.46-4.64c0.12-1.97-0.51-3.47-0.51-3.47
	l-45.81,6.73l-33.12-3.12L39.67,106.7z"/>
<path style="fill:#ED9004;" d="M18.93,78.59L6.76,78.53c0,0-3.34,2.6-2.56,7.07c0.62,3.55,4.08,5.5,9.05,6.83s10.11,1.86,11.53,3.99
	c1.42,2.13,1.51,4.88,1.51,4.88l7.98-9.31L18.92,78.6L18.93,78.59z"/>
<radialGradient id="SVGID_1_" cx="58.58" cy="-227.1685" r="78.6" gradientTransform="matrix(1 0 0 -0.61 0 -85.02)" gradientUnits="userSpaceOnUse">
	<stop  offset="0.28" style="stop-color:#FDDC2F"/>
	<stop  offset="0.41" style="stop-color:#FBD42D"/>
	<stop  offset="0.75" style="stop-color:#F9C32B"/>
</radialGradient>
<path style="fill:url(#SVGID_1_);" d="M9.62,76.27c0.29-1.62-1.13-18.47,4.44-33.99c5.86-16.33,30.63-42.26,67.68-26.64
	s32.33,53.89,32.2,55.64s-0.91,5.85,0.32,6.24s4.22,1.1,5.2,1.56s2.42,1.13,2.38,2.22c-0.03,0.78-0.95,2.46-5.04,3.43
	s-14.17,1.65-14.23,7.8c-0.05,4.87,6.74,4.96,11.63,7.02s5.13,4.73,4.52,5.99c-0.41,0.84-3.48,2.26-9.91,2.06
	c-6.43-0.19-8.06-0.06-9.68,0.19s-13.87,5.48-27.23,5.74c-13.36,0.26-26.03-4.2-29.46-4.37s-15.33-0.15-20.72-1.2
	c-3.08-0.6-4.14-2.14-4.2-3c-0.09-1.37,1.71-2.31,3.6-2.91s5.04-1.89,5.22-5.05c0.17-3-1.03-5.91-7.88-7.96
	c-6.85-2.06-9.4-2.79-11.42-4.52c-1.86-1.6-2.21-3.02-1.68-4.22c1.28-2.91,4.2-3.68,4.26-4.04L9.62,76.27z"/>
<radialGradient id="SVGID_00000117663594238060586410000016804762886416624572_" cx="75.0916" cy="-135.9632" r="98.42" gradientTransform="matrix(0.9997 0.0237 0.0154 -0.6498 -8.9056 -47.1186)" gradientUnits="userSpaceOnUse">
	<stop  offset="0.47" style="stop-color:#F2AE25;stop-opacity:0"/>
	<stop  offset="0.76" style="stop-color:#F2AE25"/>
	<stop  offset="0.76" style="stop-color:#F2AE25;stop-opacity:0.97"/>
	<stop  offset="0.82" style="stop-color:#F2AE25;stop-opacity:0.56"/>
	<stop  offset="0.88" style="stop-color:#F2AE25;stop-opacity:0.26"/>
	<stop  offset="0.91" style="stop-color:#F2AE25;stop-opacity:0.07"/>
	<stop  offset="0.93" style="stop-color:#F2AE25;stop-opacity:0"/>
</radialGradient>
<path style="fill:url(#SVGID_00000117663594238060586410000016804762886416624572_);" d="M9.62,76.27
	c0.29-1.62-1.13-18.47,4.44-33.99c5.86-16.33,30.63-42.26,67.68-26.64s32.33,53.89,32.2,55.64s-0.91,5.85,0.32,6.24
	s4.22,1.1,5.2,1.56s2.42,1.13,2.38,2.22c-0.03,0.78-0.95,2.46-5.04,3.43s-14.17,1.65-14.23,7.8c-0.05,4.87,6.74,4.96,11.63,7.02
	s5.13,4.73,4.52,5.99c-0.41,0.84-3.48,2.26-9.91,2.06c-6.43-0.19-8.06-0.06-9.68,0.19s-13.87,5.48-27.23,5.74
	c-13.36,0.26-26.03-4.2-29.46-4.37s-15.33-0.15-20.72-1.2c-3.08-0.6-4.14-2.14-4.2-3c-0.09-1.37,1.71-2.31,3.6-2.91
	s5.04-1.89,5.22-5.05c0.17-3-1.03-5.91-7.88-7.96c-6.85-2.06-9.4-2.79-11.42-4.52c-1.86-1.6-2.21-3.02-1.68-4.22
	c1.28-2.91,4.2-3.68,4.26-4.04L9.62,76.27z"/>
<radialGradient id="SVGID_00000048470708523062677000000011807087474444848564_" cx="61.9453" cy="67.44" r="61.7828" gradientTransform="matrix(1 0 0 -1 0 130)" gradientUnits="userSpaceOnUse">
	<stop  offset="0.74" style="stop-color:#EEAF2C;stop-opacity:0"/>
	<stop  offset="0.82" style="stop-color:#EEAF2C"/>
	<stop  offset="0.83" style="stop-color:#EEAF2C;stop-opacity:0.99"/>
	<stop  offset="0.86" style="stop-color:#EEAF2C;stop-opacity:0.57"/>
	<stop  offset="0.89" style="stop-color:#EEAF2C;stop-opacity:0.26"/>
	<stop  offset="0.91" style="stop-color:#EEAF2C;stop-opacity:0.07"/>
	<stop  offset="0.92" style="stop-color:#EEAF2C;stop-opacity:0"/>
</radialGradient>
<path style="fill:url(#SVGID_00000048470708523062677000000011807087474444848564_);" d="M9.62,76.27
	c0.29-1.62-1.13-18.47,4.44-33.99c5.86-16.33,30.63-42.26,67.68-26.64s32.33,53.89,32.2,55.64s-0.91,5.85,0.32,6.24
	S9.56,76.63,9.62,76.27z"/>
<linearGradient id="SVGID_00000062171718659804185310000014118742576211125908_" gradientUnits="userSpaceOnUse" x1="63.0422" y1="44.72" x2="63.3022" y2="23.44" gradientTransform="matrix(1 0 0 -1 0 130)">
	<stop  offset="0.28" style="stop-color:#412A0D"/>
	<stop  offset="0.37" style="stop-color:#583B13"/>
	<stop  offset="0.54" style="stop-color:#805B20"/>
	<stop  offset="0.76" style="stop-color:#A87B26"/>
	<stop  offset="0.88" style="stop-color:#BA8A29"/>
</linearGradient>
<path style="fill:url(#SVGID_00000062171718659804185310000014118742576211125908_);" d="M55.43,76.72
	c-10.71-7.93-15.16-17.49-16.87-20.01c-1.15-1.7-2.12-2-2.86-1.63c-1.06,0.53-1.02,2.44-0.77,4.04s1.62,11.24,9.22,19.27
	c8.06,8.52,18.05,11.18,24.53,12.59s13.25,2.73,14.2,3c1.82,0.52,2.1,2.35-0.58,2.88c-3.68,0.74-13.18,0.17-16.86,1.09
	c-3.18,0.8-5.26,3.69-2.59,6.5s8.76,2.39,10.24,2.17s4.45-1.04,4.07-2c-0.32-0.8-10.23,0.88-9.12-2.82
	c0.52-1.74,5.81-1.34,10.93-1.38c3.47-0.03,6.85-0.4,8.63-1.21c4.83-2.19,4.05-6.72,1.16-8.34s-8.87-2.86-15.45-4.95
	C66.07,83.62,59.99,80.09,55.43,76.72z"/>
<path style="fill:#412A0D;" d="M83.73,54.26c-3.44-0.95-7.28,1.56-9.38,8.15c-2.1,6.59-0.23,12.21,2.96,13.17
	c3.4,1.02,8.05-2.48,9.7-9.15C88.66,59.76,86.72,55.09,83.73,54.26z"/>
<path style="fill:#412A0D;" d="M56.61,34.7c-3.85-1.2-7.96,1.42-10.27,6.74c-2.15,4.96-1.84,12.02,2.31,13.44
	c4.43,1.52,8.7-2.37,10.51-7.71C60.97,41.85,60.38,35.86,56.61,34.7L56.61,34.7z"/>
<path style="fill:#876022;" d="M55.18,37.38c-1.08-0.8-2.98-0.56-4.04,0.8c-1.33,1.7-1.53,3.19-0.36,4.32s3.35,0.19,4.36-1.11
	s1.31-3.09,0.04-4.02V37.38z"/>
<path style="fill:#876022;" d="M82.64,57.5c-1.22-1.19-3.1-0.65-4.25,0.93s-1.33,3.41-0.06,4.46s3.35,0.25,4.28-1.27
	C83.37,60.38,83.66,58.49,82.64,57.5z"/>
</svg>
